<svg width="119" height="135" viewBox="0 0 119 135" fill="none" xmlns="http://www.w3.org/2000/svg">
<path d="M91.1516 132.768L96.4604 102.097C96.5524 101.658 96.8039 101.264 97.1693 100.988C97.5346 100.713 97.9897 100.573 98.4521 100.595H104.648C105.973 100.595 106.861 99.3061 106.419 98.2354L96.4604 68.8501C95.9753 67.4719 95.8241 66.0039 96.0186 64.5599L98.2312 44.3974L109.515 70.7811C110.178 72.4979 112.17 73.5686 113.94 73.5686C114.603 73.5686 115.266 73.3544 115.711 73.1403C118.145 72.0659 119.249 69.4962 118.366 66.9191L103.986 33.0332C103.323 31.3163 101.552 30.2419 99.5604 30.2419C98.845 30.2574 98.151 30.4812 97.5686 30.8843C93.8099 33.2435 89.3846 34.5284 84.5176 34.5284C79.8676 34.5284 75.2254 33.2435 71.4627 30.8843C70.881 30.4833 70.1885 30.2608 69.4749 30.2457C67.4831 30.2457 65.7122 31.3163 65.0496 33.0294L50.6695 66.9191C49.5612 69.4925 50.8904 72.2838 53.7695 73.1403C56.1991 73.7827 58.6326 72.4979 59.737 70.349L71.021 44.1832L73.2375 64.3457C73.4584 65.8484 73.2375 67.1333 72.7919 68.636L62.6122 98.0213C62.1705 99.3061 63.054 100.381 64.3831 100.381H70.7962C71.6797 100.381 72.5671 101.023 72.788 101.883L78.0967 132.768C78.1888 133.207 78.4403 133.601 78.8056 133.876C79.171 134.152 79.6261 134.292 80.0885 134.27H89.1599C90.0472 134.484 90.9307 133.628 91.1516 132.768V132.768Z" fill="#B98650" fill-opacity="0.15"/>
<path d="M98.673 13.7272C98.7041 15.5487 98.3609 17.358 97.6634 19.0497C96.9658 20.7413 95.928 22.2814 94.6103 23.5802C93.2926 24.8791 91.7214 25.9106 89.9883 26.6147C88.2552 27.3188 86.3948 27.6815 84.5157 27.6815C82.6366 27.6815 80.7762 27.3188 79.0431 26.6147C77.31 25.9106 75.7388 24.8791 74.4211 23.5802C73.1034 22.2814 72.0656 20.7413 71.368 19.0497C70.6705 17.358 70.3273 15.5487 70.3584 13.7272C70.4198 10.1263 71.9384 6.69311 74.5868 4.16773C77.2351 1.64234 80.801 0.227081 84.5157 0.227081C88.2304 0.227081 91.7963 1.64234 94.4446 4.16773C97.093 6.69311 98.6116 10.1263 98.673 13.7272" fill="#B98650" fill-opacity="0.15"/>
<path d="M37.3899 13.7272C37.3899 17.3679 35.8981 20.8594 33.2427 23.4338C30.5874 26.0081 26.9859 27.4544 23.2306 27.4544C19.4754 27.4544 15.8739 26.0081 13.2185 23.4338C10.5632 20.8594 9.07138 17.3679 9.07138 13.7272C9.07138 10.0865 10.5632 6.59495 13.2185 4.0206C15.8739 1.44625 19.4754 0 23.2306 0C26.9859 0 30.5874 1.44625 33.2427 4.0206C35.8981 6.59495 37.3899 10.0865 37.3899 13.7272" fill="#B98650" fill-opacity="0.15"/>
<path d="M36.7273 30.6702H32.0772L23.2345 43.1163L14.384 30.6702H9.734C7.15861 30.6918 4.69506 31.6935 2.87428 33.4594C1.05349 35.2253 0.0212475 37.6141 0 40.1109V80.4359C0 85.1544 3.75875 89.2305 8.40875 89.6588L12.6131 131.911C12.834 133.414 13.9384 134.484 15.4884 134.484H30.9767C32.5267 134.484 33.6311 133.414 33.852 131.911L38.0564 89.6588C42.7025 89.0164 46.4651 85.1507 46.4651 80.4359V39.9005C46.4651 34.7538 42.036 30.6739 36.7273 30.6739V30.6702Z" fill="#B98650" fill-opacity="0.15"/>
</svg>
