<svg width="182" height="126" viewBox="0 0 182 126" fill="none" xmlns="http://www.w3.org/2000/svg">
<path d="M120.976 123.956L125.815 95.3776C125.899 94.9679 126.129 94.6015 126.462 94.3448C126.795 94.0881 127.21 93.958 127.632 93.9779H133.286C134.494 93.9779 135.305 92.7782 134.898 91.7785L125.818 64.3995C125.414 63.1998 125.212 61.8002 125.414 60.4006L127.434 41.6124L137.725 66.199C138.331 67.7952 140.148 68.7949 141.763 68.7949C142.366 68.7949 142.972 68.5949 143.375 68.395C145.597 67.3953 146.606 64.9993 145.799 62.6034L132.68 31.0255C132.075 29.4259 130.459 28.4262 128.642 28.4262C127.99 28.4406 127.359 28.6484 126.828 29.0226C123.395 31.222 119.36 32.4217 114.921 32.4217C110.681 32.4217 106.444 31.222 103.015 29.0226C102.482 28.6471 101.847 28.4392 101.194 28.4262C99.3799 28.4262 97.7645 29.4259 97.1587 31.0221L84.0405 62.6C83.0309 64.9993 84.2424 67.5987 86.8675 68.395C89.0852 68.9948 91.3064 67.7952 92.316 65.7957L102.611 41.4159L104.63 60.204C104.828 61.6002 104.63 62.7999 104.223 64.1995L94.9375 91.5786C94.5302 92.7782 95.3414 93.778 96.5495 93.778H102.402C103.21 93.778 104.017 94.3778 104.219 95.1776L109.065 123.956C109.15 124.365 109.379 124.731 109.711 124.988C110.044 125.244 110.458 125.375 110.879 125.356H119.155C119.962 125.556 120.77 124.756 120.972 123.956H120.976Z" fill="#B98650" fill-opacity="0.15"/>
<path d="M127.834 13.0372C127.834 16.4292 126.473 19.6823 124.051 22.0809C121.629 24.4794 118.343 25.8269 114.918 25.8269C111.492 25.8269 108.207 24.4794 105.785 22.0809C103.362 19.6823 102.001 16.4292 102.001 13.0372C102.001 9.64511 103.362 6.39199 105.785 3.99345C108.207 1.59491 111.492 0.247421 114.918 0.247421C118.343 0.247421 121.629 1.59491 124.051 3.99345C126.473 6.39199 127.834 9.64511 127.834 13.0372" fill="#B98650" fill-opacity="0.15"/>
<path d="M71.9284 13.0372C71.9284 14.7167 71.5944 16.3799 70.9453 17.9316C70.2962 19.4833 69.3447 20.8932 68.1454 22.0809C66.946 23.2685 65.5221 24.2106 63.955 24.8533C62.3879 25.4961 60.7083 25.8269 59.0122 25.8269C57.316 25.8269 55.6364 25.4961 54.0693 24.8533C52.5022 24.2106 51.0783 23.2685 49.879 22.0809C48.6796 20.8932 47.7282 19.4833 47.079 17.9316C46.4299 16.3799 46.0959 14.7167 46.0959 13.0372C46.0959 9.64511 47.4567 6.39199 49.879 3.99345C52.3012 1.59491 55.5865 0.247421 59.0122 0.247421C62.4378 0.247421 65.7231 1.59491 68.1454 3.99345C70.5676 6.39199 71.9284 9.64511 71.9284 13.0372" fill="#B98650" fill-opacity="0.15"/>
<path d="M71.3227 28.8227H67.0822L59.0087 40.4162L50.9386 28.8227H46.6982C44.3489 28.8425 42.1015 29.7754 40.4403 31.4203C38.779 33.0653 37.8369 35.2906 37.8169 37.6169V75.1932C37.8169 79.5886 41.2462 83.3842 45.4866 83.784L49.3232 123.156C49.5216 124.556 50.5313 125.556 51.9447 125.556H66.0761C67.4896 125.556 68.4957 124.556 68.6976 123.156L72.5342 83.7875C76.7747 83.1842 80.2039 79.5852 80.2039 75.1898V37.4169C80.2039 32.6251 76.1654 28.8261 71.3227 28.8261V28.8227Z" fill="#B98650" fill-opacity="0.15"/>
<path d="M176.074 47.6108C176.097 48.8065 175.88 49.9949 175.434 51.1064C174.988 52.218 174.323 53.2303 173.477 54.0842C172.632 54.9381 171.623 55.6164 170.509 56.0795C169.395 56.5426 168.2 56.7811 166.992 56.7811C165.784 56.7811 164.589 56.5426 163.475 56.0795C162.361 55.6164 161.352 54.9381 160.507 54.0842C159.661 53.2303 158.996 52.218 158.55 51.1064C158.104 49.9949 157.887 48.8065 157.911 47.6108C157.957 45.2564 158.934 43.0139 160.632 41.3651C162.33 39.7163 164.614 38.7927 166.992 38.7927C169.37 38.7927 171.654 39.7163 173.352 41.3651C175.05 43.0139 176.027 45.2564 176.074 47.6108" fill="#B98650" fill-opacity="0.15"/>
<path d="M160.33 123.756C160.33 124.756 161.138 125.356 162.148 125.356H171.833C172.843 125.356 173.65 124.556 173.65 123.756L176.275 97.3736C179.304 96.9737 181.724 94.3744 181.724 91.3752V65.3958C181.724 62.0001 178.9 59.3974 175.67 59.3974H158.513C155.08 59.3974 152.455 62.2001 152.455 65.3958V91.3786C152.455 94.3778 154.878 96.9737 157.907 97.377L160.33 123.756Z" fill="#B98650" fill-opacity="0.15"/>
<path d="M23.8909 47.6108C23.9146 48.8065 23.6972 49.9949 23.2514 51.1064C22.8056 52.218 22.1405 53.2303 21.2949 54.0842C20.4492 54.9381 19.4401 55.6164 18.3265 56.0795C17.2129 56.5426 16.0173 56.7811 14.8095 56.7811C13.6017 56.7811 12.4061 56.5426 11.2925 56.0795C10.1789 55.6164 9.16979 54.9381 8.32416 54.0842C7.47853 53.2303 6.81337 52.218 6.3676 51.1064C5.92184 49.9949 5.70441 48.8065 5.72806 47.6108C5.77462 45.2564 6.75187 43.0139 8.4499 41.3651C10.1479 39.7163 12.4313 38.7927 14.8095 38.7927C17.1877 38.7927 19.4711 39.7163 21.1691 41.3651C22.8671 43.0139 23.8444 45.2564 23.8909 47.6108" fill="#B98650" fill-opacity="0.15"/>
<path d="M23.4871 59.4008H6.33036C2.89762 59.4008 0.272583 62.2001 0.272583 65.3992V91.3786C0.272583 94.3778 2.69569 96.9771 5.72458 97.377L8.14769 123.756C8.14769 124.756 8.95192 125.356 9.96155 125.356H19.6505C20.6601 125.356 21.4678 124.556 21.4678 123.756L24.0894 97.3736C27.1183 96.9737 29.5414 94.3744 29.5414 91.3786V65.3958C29.5414 62.0001 26.7179 59.4008 23.4836 59.4008H23.4871Z" fill="#B98650" fill-opacity="0.15"/>
</svg>
