<svg width="104" height="145" viewBox="0 0 104 145" fill="none" xmlns="http://www.w3.org/2000/svg">
<path d="M70.8749 13.409V9.98002C70.8749 8.10737 72.1817 6.86107 74.1454 6.86107C75.7806 6.86107 77.4158 8.10737 77.4158 9.98002V13.099H80.0295C81.6681 13.099 83.3033 14.6585 83.3033 16.2179C83.3016 17.0446 82.9564 17.837 82.3435 18.4215C81.7305 19.0061 80.8997 19.3352 80.0329 19.3369H74.142C72.8352 19.3369 71.85 20.2732 71.85 21.2095C71.85 22.4558 72.8318 23.079 74.142 23.079H74.7954C75.9145 23.0713 77.024 23.2759 78.0595 23.6808C79.0949 24.0857 80.0356 24.6828 80.8269 25.4375C81.6183 26.1921 82.2444 27.0893 82.669 28.0768C83.0935 29.0642 83.308 30.1223 83.3 31.1896C83.3 34.9317 80.6829 38.0506 77.4125 38.987V42.4191C77.4125 43.9786 75.7773 45.538 74.142 45.538C73.2752 45.5364 72.4444 45.2072 71.8314 44.6227C71.2185 44.0381 70.8733 43.2458 70.8716 42.4191V39.3001H68.9079C68.0411 39.2984 67.2103 38.9693 66.5973 38.3847C65.9844 37.8002 65.6392 37.0079 65.6375 36.1812C65.6375 34.6217 66.9443 33.0622 68.9079 33.0622H74.7954C76.1023 33.0622 76.7591 32.1259 76.7591 31.1896C76.7591 29.9433 75.7772 29.3169 74.7954 29.3169H74.142C69.2363 29.3169 65.3091 25.5748 65.3091 21.2095C65.6375 17.7774 67.6011 14.6585 70.8716 13.4122L70.8749 13.409ZM74.4704 52.4023C89.5159 52.4023 101.948 40.5464 101.948 26.198C101.948 11.8495 89.5159 0 74.4704 0C59.4249 0 46.9965 11.8527 46.9965 26.2012C46.9965 40.5496 59.4283 52.4023 74.4738 52.4023H74.4704Z" fill="#B98650" fill-opacity="0.15"/>
<path d="M100.637 95.1346L93.1147 90.1462C86.2454 85.7777 78.3977 83.9082 70.2181 84.5314L35.5499 87.3372L28.3555 87.9603L13.31 25.8944C12.3282 22.4654 8.72938 20.2796 5.13388 21.2159C1.53503 22.1491 -0.75363 25.5812 0.22818 29.0101L16.5805 96.3841C17.2339 99.503 20.5044 101.689 23.7749 101.376L27.7021 101.063L41.7658 99.8162L62.6954 97.9436L71.1999 97.3204C73.1636 97.3204 75.1272 97.3204 77.0875 97.6336C80.0329 98.2567 82.975 99.1931 85.592 100.753L93.4431 105.744C94.4216 106.367 96.0568 106.99 97.0386 106.99C99.3273 106.99 101.294 106.054 102.601 104.185C104.561 101.066 103.908 97.0104 100.637 95.1378V95.1346Z" fill="#B98650" fill-opacity="0.15"/>
<path d="M94.7466 124.141L88.8591 126.014L80.0262 104.805C78.7193 104.178 77.4125 103.868 75.7773 103.558H71.8534L65.3091 104.178L75.7773 129.756C61.7136 132.565 47.9749 132.565 34.2397 130.069L40.1272 106.364L26.0635 107.61L21.4828 126.637C19.5226 126.014 17.5623 125.391 15.5987 124.455C11.9998 123.208 8.07594 124.768 6.76574 127.887C5.4589 131.006 7.09413 135.061 10.3646 136.307C24.7567 141.922 39.4737 144.728 54.1942 144.728C68.9079 144.728 84.2818 141.922 99.3273 136.307C102.926 135.061 104.561 131.316 103.251 127.887C101.944 124.455 98.0171 122.895 94.7466 124.141V124.141Z" fill="#B98650" fill-opacity="0.15"/>
<path d="M45.0329 55.2113L27.6954 57.7039L30.6408 70.1829L44.7045 68.3103L55.4977 74.2382C56.4795 74.8613 57.7864 75.1745 58.7682 75.1745C61.0568 75.1745 63.3488 73.9282 64.6557 72.0556C66.6193 68.9334 65.3091 65.1913 62.042 63.3218L48.9568 56.4576C47.975 55.2113 46.6681 54.8981 45.0329 55.2113V55.2113Z" fill="#B98650" fill-opacity="0.15"/>
</svg>
