<svg width="122" height="102" viewBox="0 0 122 102" fill="none" xmlns="http://www.w3.org/2000/svg">
<path d="M0 89.4709C0 92.5441 1.20502 95.4914 3.34997 97.6645C5.49491 99.8375 8.40409 101.058 11.4375 101.058H110.562C113.596 101.058 116.505 99.8375 118.65 97.6645C120.795 95.4914 122 92.5441 122 89.4709V45.8229L61.9828 62.0248C61.3389 62.1965 60.6611 62.1965 60.0138 62.0248L0 45.8195V89.4709Z" fill="#B98650" fill-opacity="0.15"/>
<path d="M38.125 12.2209C38.125 9.14767 39.33 6.20035 41.475 4.02727C43.6199 1.85419 46.5291 0.633368 49.5625 0.633368H72.4375C75.4709 0.633368 78.3801 1.85419 80.525 4.02727C82.67 6.20035 83.875 9.14767 83.875 12.2209V16.0834H76.25V12.2209C76.25 10.0853 74.542 8.35837 72.4375 8.35837H49.5625C47.458 8.35837 45.75 10.0853 45.75 12.2209V16.0834H38.125V12.2209ZM0 38.3623L58.0584 54.0423C59.9901 54.5607 62.0167 54.5607 63.9449 54.0423L122 38.3623V27.6709C122 24.5977 120.795 21.6503 118.65 19.4773C116.505 17.3042 113.596 16.0834 110.562 16.0834H11.4375C8.40409 16.0834 5.49491 17.3042 3.34997 19.4773C1.20502 21.6503 0 24.5977 0 27.6709L0 38.3623Z" fill="#B98650" fill-opacity="0.15"/>
</svg>
