<svg xmlns="http://www.w3.org/2000/svg" width="32" height="37" viewBox="0 0 32 37"><g><g clip-path="url(#clip-8097a656-4138-4e7c-b292-713fdd203ff8)"><path fill="#b98650" d="M24.211 35.834l1.37-8.164a.5.5 0 0 1 .514-.4h1.599c.342 0 .571-.343.457-.628l-2.57-7.822a2.524 2.524 0 0 1-.114-1.142l.571-5.367 2.912 7.023c.171.457.685.742 1.142.742.171 0 .342-.057.457-.114.628-.286.913-.97.685-1.656l-3.711-9.02c-.171-.457-.628-.743-1.142-.743a.92.92 0 0 0-.514.171c-.97.628-2.112.97-3.368.97-1.2 0-2.398-.342-3.369-.97a.92.92 0 0 0-.513-.17c-.514 0-.971.285-1.142.741l-3.711 9.021c-.286.685.057 1.428.8 1.656.627.171 1.255-.171 1.54-.743l2.912-6.965.572 5.367c.057.4 0 .742-.115 1.142l-2.627 7.822c-.114.342.114.628.457.628h1.655c.228 0 .457.171.514.4l1.37 8.221a.5.5 0 0 0 .514.4h2.341c.229.057.457-.171.514-.4z"/></g><g clip-path="url(#clip-8097a656-4138-4e7c-b292-713fdd203ff8)"><path fill="#b98650" d="M26.152 4.147a3.654 3.654 0 1 1-7.307 0 3.654 3.654 0 0 1 7.307 0"/></g><g clip-path="url(#clip-8097a656-4138-4e7c-b292-713fdd203ff8)"><path fill="#b98650" d="M10.337 4.147a3.654 3.654 0 1 1-7.308 0 3.654 3.654 0 0 1 7.308 0"/></g><g clip-path="url(#clip-8097a656-4138-4e7c-b292-713fdd203ff8)"><path fill="#b98650" d="M10.166 8.657h-1.2L6.684 11.97 4.4 8.657H3.2A2.534 2.534 0 0 0 .688 11.17v10.734c0 1.256.97 2.341 2.17 2.455l1.085 11.247c.057.4.342.685.742.685h3.997c.4 0 .685-.285.742-.685l1.085-11.247c1.199-.171 2.17-1.2 2.17-2.455v-10.79c0-1.37-1.143-2.456-2.513-2.456z"/></g></g></svg>