<svg xmlns="http://www.w3.org/2000/svg" width="54" height="38" viewBox="0 0 54 38"><g><g><path fill="#b98650" d="M35.61 36.827l1.39-8.29a.508.508 0 0 1 .522-.406h1.624c.347 0 .58-.348.463-.638l-2.608-7.942c-.116-.348-.174-.754-.116-1.16l.58-5.45 2.956 7.132c.174.463.696.753 1.16.753.173 0 .347-.058.463-.116.638-.29.928-.985.696-1.68l-3.768-9.16c-.174-.464-.638-.754-1.16-.754a.934.934 0 0 0-.521.173c-.986.638-2.145.986-3.42.986-1.218 0-2.435-.348-3.42-.986a.934.934 0 0 0-.523-.173c-.521 0-.985.29-1.159.753l-3.768 9.16c-.29.696.058 1.45.812 1.681.637.174 1.275-.174 1.565-.754l2.957-7.072.58 5.45c.057.405 0 .753-.117 1.159l-2.667 7.942c-.117.348.116.638.463.638h1.681c.232 0 .464.174.522.406l1.392 8.348a.508.508 0 0 0 .521.406h2.377c.232.058.464-.174.522-.406z"/></g><g><path fill="#b98650" d="M37.58 4.652a3.71 3.71 0 1 1-7.42 0 3.71 3.71 0 0 1 7.42 0"/></g><g><path fill="#b98650" d="M21.522 4.652a3.71 3.71 0 1 1-7.42 0 3.71 3.71 0 0 1 7.42 0"/></g><g><path fill="#b98650" d="M21.348 9.231H20.13l-2.319 3.363-2.318-3.363h-1.218a2.573 2.573 0 0 0-2.551 2.551v10.9c0 1.275.985 2.376 2.203 2.492l1.102 11.421c.057.406.347.696.753.696h4.059c.406 0 .695-.29.753-.696l1.102-11.42c1.218-.175 2.203-1.219 2.203-2.494V11.724c0-1.39-1.16-2.492-2.551-2.492z"/></g><g><path fill="#b98650" d="M51.436 14.681a2.609 2.609 0 1 1-5.217 0 2.609 2.609 0 0 1 5.217 0"/></g><g><path fill="#b98650" d="M46.914 36.769c0 .29.232.464.522.464h2.782c.29 0 .522-.232.522-.464l.754-7.653c.87-.116 1.565-.87 1.565-1.74V19.84c0-.985-.811-1.74-1.739-1.74h-4.928c-.986 0-1.74.813-1.74 1.74v7.537c0 .87.696 1.623 1.566 1.74z"/></g><g><path fill="#b98650" d="M7.724 14.681a2.609 2.609 0 1 1-5.217 0 2.609 2.609 0 0 1 5.217 0"/></g><g><path fill="#b98650" d="M7.608 18.101H2.68c-.986 0-1.74.812-1.74 1.74v7.536c0 .87.696 1.624 1.566 1.74l.696 7.652c0 .29.231.464.521.464h2.783c.29 0 .522-.232.522-.464l.753-7.653c.87-.116 1.566-.87 1.566-1.739V19.84c0-.985-.811-1.739-1.74-1.739z"/></g></g></svg>