<svg xmlns="http://www.w3.org/2000/svg" width="25" height="23" viewBox="0 0 25 23"><g><g><g><g/><g/></g><g><g><path fill="#fff" d="M12.529 1.885H8.547c-.81.034-1.61.18-2.379.437a4.855 4.855 0 0 0-1.7 1.214 4.127 4.127 0 0 0-1.116 1.699 7.04 7.04 0 0 0-.485 2.38c-.049 1.019-.049 1.359-.049 3.98 0 2.623 0 2.963.049 3.982a7.04 7.04 0 0 0 .485 2.38c.225.65.609 1.234 1.117 1.699a4.127 4.127 0 0 0 1.7 1.117 7.04 7.04 0 0 0 2.378.485h7.963a7.04 7.04 0 0 0 2.38-.485 4.127 4.127 0 0 0 1.7-1.117 4.856 4.856 0 0 0 1.164-1.7c.256-.768.403-1.57.437-2.379.049-1.02.049-1.36.049-3.981 0-2.622 0-2.962-.049-3.982a8.692 8.692 0 0 0-.437-2.379 4.855 4.855 0 0 0-1.165-1.7 4.855 4.855 0 0 0-1.7-1.165 8.692 8.692 0 0 0-2.379-.437H12.53m0 1.7h3.933a5.244 5.244 0 0 1 1.796.34c.846.33 1.515 1 1.845 1.845.218.574.333 1.182.34 1.796.049 1.02.049 1.36.049 3.933 0 2.574 0 2.913-.049 3.933a5.244 5.244 0 0 1-.34 1.797c-.33.845-1 1.514-1.845 1.845a5.244 5.244 0 0 1-1.796.34H8.596a5.244 5.244 0 0 1-1.797-.34c-.845-.331-1.514-1-1.845-1.845a5.244 5.244 0 0 1-.34-1.797c-.048-1.02-.048-1.36-.048-3.933 0-2.573 0-2.913.049-3.933a5.244 5.244 0 0 1 .34-1.796c.33-.846.999-1.515 1.844-1.845a5.244 5.244 0 0 1 1.797-.34h3.933"/></g><g><path fill="#fff" d="M12.529 14.849a3.253 3.253 0 1 1 0-6.506 3.253 3.253 0 0 1 0 6.506m0-8.254a5.001 5.001 0 1 0 0 10.002 5.001 5.001 0 0 0 0-10.002"/></g><g><path fill="#fff" d="M18.89 6.4a1.165 1.165 0 1 1-2.331 0 1.165 1.165 0 0 1 2.33 0"/></g></g></g></g></svg>