<svg xmlns="http://www.w3.org/2000/svg" width="20" height="19" viewBox="0 0 20 19"><g><g><path fill="#fff" d="M3.22 7.283H6.1v8.669H3.22zm9.954-.204c1.896 0 3.317 1.239 3.317 3.902v4.97H13.61v-4.637c0-1.165-.417-1.96-1.46-1.96-.796 0-1.27.536-1.479 1.053-.076.185-.095.444-.095.703v4.842H7.695s.038-7.856 0-8.67h2.881V8.51c.383-.59 1.068-1.43 2.597-1.43zM4.679 3.103c.985 0 1.593.647 1.612 1.498 0 .832-.627 1.497-1.631 1.497H4.64c-.967 0-1.592-.665-1.592-1.497 0-.85.644-1.498 1.63-1.498zm-.94-3.148a3.75 3.75 0 0 0-3.74 3.739v11.601a3.75 3.75 0 0 0 3.74 3.738H15.34a3.749 3.749 0 0 0 3.738-3.738V3.694a3.75 3.75 0 0 0-3.738-3.74z"/></g></g></svg>