<svg xmlns="http://www.w3.org/2000/svg" width="266" height="60" viewBox="0 0 266 60"><g><g><g><path fill="#fff" d="M74.973 12.52h3.485l6.2 10.749 6.173-10.75h3.433v19.53h-3.3V18.426l-5.268 9.233h-2.128l-5.322-9.26v13.65h-3.273z"/></g><g><path fill="#fff" d="M98.386 24.625V12.52h3.46v11.867c0 3.14 1.25 4.736 3.645 4.736 2.421 0 3.698-1.623 3.698-4.736V12.519h3.46v12.106c0 4.976-2.661 7.796-7.158 7.796-4.47 0-7.105-2.82-7.105-7.796"/></g><g><path fill="#fff" d="M116.16 32.049v-3.273c1.597.16 2.607.213 3.378.213 2.369 0 3.487-.745 3.487-2.341 0-1.038-.506-1.836-2.05-2.848l-2.075-1.33c-2.022-1.33-3.007-2.98-3.007-5.002 0-3.246 2.369-5.188 6.386-5.188.852 0 1.783.08 2.875.24v3.086c-1.065-.133-1.996-.24-2.768-.24-2.023 0-3.034.692-3.034 1.996 0 .905.506 1.623 1.81 2.447l1.81 1.171c2.447 1.57 3.538 3.326 3.538 5.614 0 3.619-2.501 5.694-6.891 5.694-.852 0-1.89-.053-3.46-.24"/></g><g><path fill="#fff" d="M129.063 32.049v-3.273c1.597.16 2.608.213 3.38.213 2.367 0 3.485-.745 3.485-2.341 0-1.038-.505-1.836-2.049-2.848l-2.075-1.33c-2.022-1.33-3.007-2.98-3.007-5.002 0-3.246 2.368-5.188 6.386-5.188.852 0 1.783.08 2.874.24v3.086c-1.064-.133-1.995-.24-2.768-.24-2.022 0-3.033.692-3.033 1.996 0 .905.506 1.623 1.81 2.447l1.809 1.171c2.447 1.57 3.539 3.326 3.539 5.614 0 3.619-2.502 5.694-6.891 5.694-.852 0-1.89-.053-3.46-.24"/></g><g><path fill="#fff" d="M142.579 32.049v-19.53h3.46v19.53z"/></g><g><path fill="#fff" d="M162.081 29.255c1.144 0 2.262-.4 3.246-1.277l-3.831-4.816c-1.543.453-2.554 1.543-2.554 3.14 0 1.809 1.277 2.953 3.14 2.953m-6.44-2.74c0-2.768 1.623-4.79 4.098-5.694-.958-1.49-1.251-2.555-1.251-3.699 0-3.06 2.262-4.842 6.067-4.842.877 0 1.862.08 2.927.24v2.98c-1.038-.16-1.969-.24-2.688-.24-2.049 0-2.926.691-2.926 2.022 0 .905.425 1.702 1.41 2.927l4.23 5.241c.958-1.41 1.81-3.086 2.501-4.975l2.82 1.41c-.877 2.129-1.995 4.124-3.406 5.933l3.433 4.23h-4.283l-1.437-1.809c-1.49 1.304-3.3 2.05-5.375 2.05-3.699 0-6.12-2.342-6.12-5.775"/></g><g><path fill="#fff" d="M190.177 29.095c3.645 0 6.52-2.767 6.52-6.811 0-4.044-2.875-6.838-6.52-6.838-3.671 0-6.518 2.794-6.518 6.838 0 4.044 2.847 6.811 6.518 6.811m-10.11-6.811c0-5.96 4.444-10.138 10.11-10.138 5.668 0 10.111 4.178 10.111 10.138s-4.443 10.137-10.11 10.137-10.111-4.177-10.111-10.137"/></g><g><path fill="#fff" d="M203.587 12.52h3.459v16.31h7.13v3.219h-10.59z"/></g><g><path fill="#fff" d="M216.756 12.52h3.46v16.31h7.13v3.219h-10.59z"/></g><g><path fill="#fff" d="M229.927 32.049v-19.53h3.459v19.53z"/></g><g><path fill="#fff" d="M237.696 12.52h10.563v3.219h-7.105v4.71h7.026v3.219h-7.026v5.161h7.238v3.22h-10.696z"/></g><g><path fill="#fff" d="M255.602 21.087v-5.561h2.315c1.916 0 3.033 1.064 3.033 2.767 0 1.703-1.117 2.794-3.033 2.794zm5.907 10.962h4.204l-6.332-8.355c3.193-.452 5.108-2.554 5.108-5.401 0-3.725-2.448-5.774-6.385-5.774h-5.961v19.53h3.46v-8.222z"/></g></g><g><path fill="#848484" d="M76.043 46.597l1.636-4.81 1.636 4.81zm-1.78 2.803h.83l.71-2.08h3.752l.71 2.08h.854l-3.055-8.792h-.77z"/></g><g><path fill="#848484" d="M85.748 48.63v-7.253h1.359c2.13 0 3.645 1.444 3.645 3.62 0 2.19-1.516 3.634-3.645 3.634zm-.806.77h2.165c2.538 0 4.475-1.708 4.475-4.402 0-2.67-1.937-4.39-4.475-4.39h-2.165z"/></g><g><path fill="#848484" d="M94.647 40.608h.878l2.466 7.553 2.442-7.554h.842L98.364 49.4h-.77z"/></g><g><path fill="#848484" d="M108.815 48.75c1.996 0 3.632-1.563 3.632-3.752 0-2.177-1.636-3.753-3.632-3.753-2.01 0-3.633 1.576-3.633 3.753 0 2.189 1.624 3.753 3.633 3.753m-4.475-3.753c0-2.67 2.057-4.523 4.475-4.523 2.418 0 4.474 1.852 4.474 4.523 0 2.694-2.056 4.534-4.474 4.534s-4.475-1.84-4.475-4.534"/></g><g><path fill="#848484" d="M116.872 45.022c0-2.695 2.02-4.547 4.51-4.547 1.3 0 2.514.481 3.332 1.371l-.577.59c-.65-.734-1.648-1.19-2.755-1.19-2.093 0-3.68 1.587-3.68 3.776 0 2.165 1.575 3.74 3.644 3.74 1.865 0 3.272-1.262 3.38-3.391h-3.62v-.734h4.462v.325c0 2.887-1.84 4.57-4.222 4.57-2.478 0-4.474-1.852-4.474-4.51"/></g><g><path fill="#848484" d="M130.317 46.597l1.636-4.81 1.636 4.81zm-1.78 2.803h.83l.71-2.08h3.752l.71 2.08h.854l-3.056-8.792h-.77z"/></g><g><path fill="#848484" d="M140.022 48.63v-7.253h1.359c2.129 0 3.645 1.444 3.645 3.62 0 2.19-1.516 3.634-3.645 3.634zm-.806.77h2.165c2.538 0 4.474-1.708 4.474-4.402 0-2.67-1.936-4.39-4.474-4.39h-2.165z"/></g><g><path fill="#848484" d="M153.937 48.75c1.996 0 3.632-1.563 3.632-3.752 0-2.177-1.636-3.753-3.632-3.753-2.01 0-3.633 1.576-3.633 3.753 0 2.189 1.624 3.753 3.633 3.753m-4.475-3.753c0-2.67 2.057-4.523 4.475-4.523 2.417 0 4.474 1.852 4.474 4.523 0 2.694-2.057 4.534-4.474 4.534-2.418 0-4.475-1.84-4.475-4.534"/></g><g><path fill="#848484" d="M161.993 49.4v-.77c.59.072 1.107.097 1.54.097 1.396 0 2.105-.554 2.105-1.6 0-.71-.337-1.215-1.215-1.768l-.962-.602c-.963-.601-1.407-1.287-1.407-2.153 0-1.31.986-2.093 2.658-2.093.337 0 .721.024 1.19.096v.734a8.79 8.79 0 0 0-1.166-.096c-1.227 0-1.877.469-1.877 1.347 0 .613.325 1.059 1.095 1.54l.914.565c1.083.674 1.588 1.444 1.588 2.418 0 1.491-1.07 2.381-2.91 2.381-.47 0-.927-.024-1.553-.096"/></g><g><path fill="#848484" d="M176.618 46.597l1.635-4.81 1.636 4.81zm-1.781 2.803h.83l.71-2.08h3.753l.71 2.08h.853l-3.055-8.792h-.77z"/></g><g><path fill="#848484" d="M184.903 49.4v-.77c.59.072 1.106.097 1.54.097 1.395 0 2.104-.554 2.104-1.6 0-.71-.336-1.215-1.214-1.768l-.962-.602c-.963-.601-1.408-1.287-1.408-2.153 0-1.31.986-2.093 2.658-2.093.337 0 .722.024 1.191.096v.734a8.792 8.792 0 0 0-1.167-.096c-1.226 0-1.876.469-1.876 1.347 0 .613.325 1.059 1.094 1.54l.915.565c1.082.674 1.588 1.444 1.588 2.418 0 1.491-1.071 2.381-2.911 2.381-.47 0-.927-.024-1.552-.096"/></g><g><path fill="#848484" d="M192.828 49.4v-.77c.59.072 1.107.097 1.54.097 1.396 0 2.105-.554 2.105-1.6 0-.71-.337-1.215-1.215-1.768l-.962-.602c-.963-.601-1.407-1.287-1.407-2.153 0-1.31.986-2.093 2.658-2.093.337 0 .721.024 1.19.096v.734a8.79 8.79 0 0 0-1.166-.096c-1.227 0-1.877.469-1.877 1.347 0 .613.325 1.059 1.095 1.54l.914.565c1.083.674 1.588 1.444 1.588 2.418 0 1.491-1.07 2.381-2.91 2.381-.47 0-.927-.024-1.553-.096"/></g><g><path fill="#848484" d="M205.228 48.75c1.997 0 3.633-1.563 3.633-3.752 0-2.177-1.636-3.753-3.633-3.753-2.009 0-3.632 1.576-3.632 3.753 0 2.189 1.623 3.753 3.632 3.753m-4.474-3.753c0-2.67 2.056-4.523 4.474-4.523s4.475 1.852 4.475 4.523c0 2.694-2.057 4.534-4.475 4.534-2.418 0-4.474-1.84-4.474-4.534"/></g><g><path fill="#848484" d="M213.285 44.998c0-2.67 1.996-4.486 4.559-4.486.42 0 .83.047 1.202.108v.745a6.942 6.942 0 0 0-1.142-.108c-2.214 0-3.777 1.552-3.777 3.74 0 2.19 1.563 3.754 3.777 3.754.396 0 .782-.048 1.142-.108v.745a7.6 7.6 0 0 1-1.202.108c-2.563 0-4.56-1.816-4.56-4.498"/></g><g><path fill="#848484" d="M223.098 49.4v-8.792h.806V49.4z"/></g><g><path fill="#848484" d="M229.52 46.597l1.636-4.81 1.636 4.81zm-1.78 2.803h.83l.709-2.08h3.753l.71 2.08h.854l-3.056-8.792h-.77z"/></g><g><path fill="#848484" d="M239.225 48.63v-7.253h1.359c2.129 0 3.645 1.444 3.645 3.62 0 2.19-1.516 3.634-3.645 3.634zm-.806.77h2.165c2.538 0 4.474-1.708 4.474-4.402 0-2.67-1.936-4.39-4.474-4.39h-2.165z"/></g><g><path fill="#848484" d="M253.14 48.75c1.997 0 3.633-1.563 3.633-3.752 0-2.177-1.636-3.753-3.633-3.753-2.009 0-3.633 1.576-3.633 3.753 0 2.189 1.624 3.753 3.633 3.753m-4.474-3.753c0-2.67 2.056-4.523 4.474-4.523s4.474 1.852 4.474 4.523c0 2.694-2.056 4.534-4.474 4.534s-4.474-1.84-4.474-4.534"/></g><g><path fill="#848484" d="M261.196 49.4v-.77c.59.072 1.107.097 1.54.097 1.395 0 2.105-.554 2.105-1.6 0-.71-.337-1.215-1.215-1.768l-.962-.602c-.963-.601-1.408-1.287-1.408-2.153 0-1.31.987-2.093 2.659-2.093.336 0 .721.024 1.19.096v.734a8.79 8.79 0 0 0-1.166-.096c-1.227 0-1.877.469-1.877 1.347 0 .613.325 1.059 1.095 1.54l.914.565c1.083.674 1.588 1.444 1.588 2.418 0 1.491-1.07 2.381-2.911 2.381-.47 0-.926-.024-1.552-.096"/></g><g><path fill="#b98650" d="M55.116 55.72H3.674V4.28h51.442zM0 59.396h58.79V.605H0z"/></g><g><path fill="#b98650" d="M40.312 15.663h3.88v36.435H14.595V15.663h19.518l-1.47 3.674H18.27v29.086h22.248V19.337h-1.52zm10.865-7.588l-.088 44.122-3.675-.008.081-40.44h-6.808l-1.456 3.914-1.366 3.674-5.494 14.785h-5.794l-5.085-13.896h3.913l3.737 10.222h.676l4.126-11.111 1.367-3.674 2.822-7.588zm-27.79 6.64h-3.913l-1.087-2.966h-7.1v40.444H7.614V8.075h13.342z"/></g><g/></g></svg>