<svg xmlns="http://www.w3.org/2000/svg" width="59" height="60" viewBox="0 0 59 60"><g><g><path fill="#b98650" d="M55.116 55.72H3.674V4.28h51.442zM0 59.396h58.79V.605H0z"/></g><g><path fill="#b98650" d="M40.312 15.663h3.88v36.435H14.595V15.663h19.518l-1.47 3.674H18.27v29.086h22.248V19.337h-1.52zm10.865-7.588l-.088 44.122-3.675-.008.081-40.44h-6.808l-1.456 3.914-1.366 3.674-5.494 14.785h-5.794l-5.085-13.896h3.913l3.737 10.222h.676l4.126-11.111 1.367-3.674 2.822-7.588zm-27.79 6.64h-3.913l-1.087-2.966h-7.1v40.444H7.614V8.075h13.342z"/></g></g></svg>