<svg xmlns="http://www.w3.org/2000/svg" width="209" height="130" viewBox="0 0 209 130"><g><g><g><path fill="#fff" d="M17.318 87.973l-6.741 11.74-6.77-11.74H0v21.328h3.574V94.395l5.811 10.112h2.325l5.753-10.083V109.3h3.603V87.973z"/></g><g><path fill="#fff" d="M25.568 101.194v-13.22h3.778v12.958c0 3.43 1.365 5.173 3.98 5.173 2.644 0 4.04-1.773 4.04-5.173V87.973h3.777v13.22c0 5.435-2.906 8.515-7.817 8.515-4.88 0-7.758-3.08-7.758-8.514"/></g><g><path fill="#fff" d="M44.977 109.3v-3.573c1.744.174 2.847.232 3.69.232 2.586 0 3.807-.813 3.807-2.557 0-1.133-.553-2.005-2.237-3.11L47.97 98.84c-2.208-1.452-3.283-3.254-3.283-5.462 0-3.545 2.586-5.666 6.973-5.666.93 0 1.947.087 3.139.262v3.37c-1.163-.146-2.18-.262-3.022-.262-2.209 0-3.313.756-3.313 2.18 0 .988.552 1.772 1.976 2.673l1.976 1.278c2.673 1.715 3.864 3.632 3.864 6.131 0 3.952-2.731 6.218-7.525 6.218-.93 0-2.063-.058-3.778-.261"/></g><g><path fill="#fff" d="M59.068 109.3v-3.573c1.744.174 2.848.232 3.69.232 2.586 0 3.807-.813 3.807-2.557 0-1.133-.553-2.005-2.237-3.11L62.06 98.84c-2.208-1.452-3.283-3.254-3.283-5.462 0-3.545 2.586-5.666 6.973-5.666.93 0 1.947.087 3.139.262v3.37c-1.163-.146-2.18-.262-3.022-.262-2.209 0-3.313.756-3.313 2.18 0 .988.552 1.772 1.976 2.673l1.976 1.278c2.673 1.715 3.864 3.632 3.864 6.131 0 3.952-2.731 6.218-7.525 6.218-.93 0-2.063-.058-3.777-.261"/></g><g><path fill="#fff" d="M73.828 109.3V87.974h3.778v21.328z"/></g><g><path fill="#fff" d="M95.125 106.25c1.25 0 2.47-.436 3.545-1.395l-4.184-5.26c-1.685.495-2.79 1.686-2.79 3.43 0 1.976 1.395 3.225 3.43 3.225m-7.032-2.993c0-3.022 1.772-5.23 4.474-6.218-1.046-1.627-1.365-2.79-1.365-4.039 0-3.341 2.47-5.288 6.624-5.288.96 0 2.034.087 3.197.262v3.254c-1.133-.174-2.15-.262-2.935-.262-2.237 0-3.196.756-3.196 2.208 0 .989.465 1.86 1.54 3.197l4.62 5.724c1.046-1.54 1.976-3.37 2.731-5.434l3.08 1.54c-.959 2.325-2.18 4.504-3.72 6.48l3.75 4.62h-4.679l-1.57-1.976c-1.626 1.424-3.602 2.237-5.868 2.237-4.039 0-6.683-2.557-6.683-6.305"/></g><g><path fill="#fff" d="M125.807 106.075c3.98 0 7.12-3.022 7.12-7.438 0-4.417-3.14-7.467-7.12-7.467-4.01 0-7.118 3.05-7.118 7.467 0 4.416 3.109 7.438 7.118 7.438m-11.04-7.438c0-6.508 4.852-11.07 11.04-11.07 6.19 0 11.042 4.562 11.042 11.07 0 6.509-4.852 11.07-11.042 11.07-6.188 0-11.04-4.561-11.04-11.07"/></g><g><path fill="#fff" d="M140.45 87.974h3.778v17.811h7.787v3.516h-11.564z"/></g><g><path fill="#fff" d="M154.833 87.974h3.777v17.811h7.787v3.516h-11.564z"/></g><g><path fill="#fff" d="M169.216 109.3V87.974h3.776v21.328z"/></g><g><path fill="#fff" d="M177.7 87.974h11.534v3.515h-7.758v5.144h7.672v3.515h-7.672v5.637h7.904v3.516H177.7z"/></g><g><path fill="#fff" d="M197.253 97.33v-6.074h2.528c2.093 0 3.312 1.163 3.312 3.022 0 1.86-1.22 3.052-3.312 3.052zm6.451 11.97h4.591l-6.915-9.123c3.487-.494 5.578-2.79 5.578-5.899 0-4.067-2.673-6.305-6.973-6.305h-6.51v21.328h3.778v-8.979z"/></g></g><g><path fill="#848484" d="M15.317 126.985l1.547-4.55 1.547 4.55zm-1.683 2.651h.784l.672-1.968h3.548l.672 1.968h.808l-2.89-8.316H16.5z"/></g><g><path fill="#848484" d="M24.496 128.908v-6.86h1.285c2.014 0 3.447 1.365 3.447 3.425 0 2.07-1.433 3.435-3.447 3.435zm-.762.728h2.047c2.4 0 4.233-1.615 4.233-4.163 0-2.526-1.832-4.153-4.233-4.153h-2.047z"/></g><g><path fill="#848484" d="M32.913 121.32h.83l2.333 7.144 2.31-7.144h.796l-2.754 8.316H35.7z"/></g><g><path fill="#848484" d="M46.313 129.022c1.889 0 3.436-1.48 3.436-3.55 0-2.059-1.547-3.549-3.436-3.549-1.9 0-3.436 1.49-3.436 3.55 0 2.07 1.536 3.549 3.436 3.549m-4.232-3.55c0-2.525 1.946-4.277 4.232-4.277 2.287 0 4.232 1.752 4.232 4.278 0 2.548-1.945 4.288-4.232 4.288-2.286 0-4.232-1.74-4.232-4.288"/></g><g><path fill="#848484" d="M53.933 125.495c0-2.548 1.911-4.3 4.266-4.3 1.23 0 2.378.455 3.152 1.297l-.546.557c-.615-.694-1.559-1.126-2.606-1.126-1.979 0-3.48 1.502-3.48 3.572 0 2.048 1.49 3.538 3.447 3.538 1.763 0 3.094-1.194 3.196-3.208h-3.424v-.694h4.22v.307c0 2.73-1.74 4.323-3.992 4.323-2.344 0-4.233-1.752-4.233-4.266"/></g><g><path fill="#848484" d="M66.651 126.985l1.547-4.55 1.547 4.55zm-1.683 2.651h.784l.672-1.968h3.549l.671 1.968h.808l-2.89-8.316h-.728z"/></g><g><path fill="#848484" d="M75.83 128.908v-6.86h1.286c2.013 0 3.447 1.365 3.447 3.425 0 2.07-1.434 3.435-3.447 3.435zm-.762.728h2.048c2.4 0 4.232-1.615 4.232-4.163 0-2.526-1.832-4.153-4.232-4.153h-2.048z"/></g><g><path fill="#848484" d="M88.991 129.022c1.889 0 3.436-1.48 3.436-3.55 0-2.059-1.547-3.549-3.436-3.549-1.9 0-3.436 1.49-3.436 3.55 0 2.07 1.536 3.549 3.436 3.549m-4.232-3.55c0-2.525 1.946-4.277 4.232-4.277 2.286 0 4.232 1.752 4.232 4.278 0 2.548-1.946 4.288-4.232 4.288-2.286 0-4.232-1.74-4.232-4.288"/></g><g><path fill="#848484" d="M96.612 129.636v-.728c.557.068 1.046.09 1.456.09 1.32 0 1.99-.522 1.99-1.512 0-.671-.318-1.15-1.148-1.673l-.91-.568c-.91-.57-1.332-1.218-1.332-2.037 0-1.24.933-1.98 2.515-1.98.318 0 .682.023 1.126.092v.694a8.279 8.279 0 0 0-1.104-.091c-1.16 0-1.774.444-1.774 1.274 0 .58.307 1.001 1.035 1.456l.865.535c1.024.637 1.501 1.365 1.501 2.287 0 1.41-1.012 2.252-2.753 2.252-.443 0-.876-.023-1.467-.091"/></g><g><path fill="#848484" d="M110.444 126.985l1.547-4.55 1.547 4.55zm-1.684 2.651h.785l.671-1.968h3.55l.67 1.968h.808l-2.889-8.316h-.728z"/></g><g><path fill="#848484" d="M118.28 129.636v-.728c.557.068 1.047.09 1.456.09 1.32 0 1.99-.522 1.99-1.512 0-.671-.318-1.15-1.148-1.673l-.91-.568c-.91-.57-1.331-1.218-1.331-2.037 0-1.24.933-1.98 2.514-1.98.318 0 .683.023 1.127.092v.694a8.28 8.28 0 0 0-1.104-.091c-1.16 0-1.775.444-1.775 1.274 0 .58.307 1.001 1.036 1.456l.864.535c1.024.637 1.501 1.365 1.501 2.287 0 1.41-1.012 2.252-2.752 2.252-.444 0-.876-.023-1.468-.091"/></g><g><path fill="#848484" d="M125.776 129.636v-.728c.558.068 1.046.09 1.457.09 1.32 0 1.99-.522 1.99-1.512 0-.671-.318-1.15-1.15-1.673l-.91-.568c-.91-.57-1.33-1.218-1.33-2.037 0-1.24.933-1.98 2.514-1.98.318 0 .683.023 1.126.092v.694a8.279 8.279 0 0 0-1.103-.091c-1.16 0-1.775.444-1.775 1.274 0 .58.307 1.001 1.035 1.456l.865.535c1.024.637 1.501 1.365 1.501 2.287 0 1.41-1.012 2.252-2.752 2.252-.444 0-.876-.023-1.468-.091"/></g><g><path fill="#848484" d="M137.504 129.022c1.889 0 3.436-1.48 3.436-3.55 0-2.059-1.547-3.549-3.436-3.549-1.9 0-3.436 1.49-3.436 3.55 0 2.07 1.536 3.549 3.436 3.549m-4.232-3.55c0-2.525 1.945-4.277 4.232-4.277 2.286 0 4.231 1.752 4.231 4.278 0 2.548-1.945 4.288-4.23 4.288-2.288 0-4.233-1.74-4.233-4.288"/></g><g><path fill="#848484" d="M145.125 125.473c0-2.526 1.888-4.244 4.31-4.244.4 0 .786.046 1.139.102v.706a6.562 6.562 0 0 0-1.081-.103c-2.093 0-3.573 1.468-3.573 3.539 0 2.07 1.48 3.549 3.573 3.549.376 0 .74-.046 1.08-.102v.705c-.352.057-.739.102-1.137.102-2.423 0-4.311-1.717-4.311-4.254"/></g><g><path fill="#848484" d="M154.407 129.636v-8.316h.761v8.316z"/></g><g><path fill="#848484" d="M160.48 126.985l1.548-4.55 1.547 4.55zm-1.683 2.651h.784l.672-1.968h3.55l.67 1.968h.808l-2.89-8.316h-.727z"/></g><g><path fill="#848484" d="M169.66 128.908v-6.86h1.285c2.014 0 3.447 1.365 3.447 3.425 0 2.07-1.433 3.435-3.447 3.435zm-.762.728h2.047c2.4 0 4.232-1.615 4.232-4.163 0-2.526-1.832-4.153-4.232-4.153h-2.047z"/></g><g><path fill="#848484" d="M182.82 129.022c1.889 0 3.436-1.48 3.436-3.55 0-2.059-1.547-3.549-3.436-3.549-1.9 0-3.435 1.49-3.435 3.55 0 2.07 1.536 3.549 3.435 3.549m-4.232-3.55c0-2.525 1.946-4.277 4.232-4.277 2.287 0 4.233 1.752 4.233 4.278 0 2.548-1.946 4.288-4.233 4.288-2.286 0-4.232-1.74-4.232-4.288"/></g><g><path fill="#848484" d="M190.44 129.636v-.728c.558.068 1.048.09 1.457.09 1.32 0 1.991-.522 1.991-1.512 0-.671-.319-1.15-1.149-1.673l-.91-.568c-.91-.57-1.33-1.218-1.33-2.037 0-1.24.931-1.98 2.513-1.98.319 0 .683.023 1.127.092v.694a8.278 8.278 0 0 0-1.104-.091c-1.16 0-1.775.444-1.775 1.274 0 .58.308 1.001 1.036 1.456l.864.535c1.024.637 1.502 1.365 1.502 2.287 0 1.41-1.013 2.252-2.753 2.252-.444 0-.876-.023-1.468-.091"/></g><g><path fill="#b98650" d="M134.944 65.992H73.35V4.399h61.593zm-65.992 4.4h70.391V0H68.952z"/></g><g><path fill="#b98650" d="M117.218 18.029h4.646v43.625H86.427V18.029h23.37l-1.76 4.4H90.826v34.825h26.639V22.428h-1.822zm13.01-9.085l-.106 52.829-4.4-.01.097-48.42h-8.152l-1.742 4.686-1.637 4.4-6.577 17.703h-6.938l-6.089-16.639h4.686l4.474 12.24h.81l4.94-13.305 1.637-4.399 3.378-9.085zm-33.274 7.95H92.27l-1.302-3.55h-8.5v48.424h-4.4V8.944h15.975z"/></g></g></svg>