<svg xmlns="http://www.w3.org/2000/svg" width="190" height="42" viewBox="0 0 190 42"><g><g><g><g><path fill="#fff" d="M53.375 8.482h2.481l4.414 7.653 4.395-7.653h2.443v13.903H64.76v-9.698l-3.75 6.573h-1.516l-3.788-6.592v9.717h-2.33z"/></g><g><path fill="#fff" d="M70.043 17.1V8.482h2.463v8.448c0 2.235.89 3.372 2.595 3.372 1.724 0 2.633-1.156 2.633-3.372V8.482h2.463V17.1c0 3.543-1.894 5.55-5.096 5.55-3.182 0-5.058-2.007-5.058-5.55"/></g><g><path fill="#fff" d="M82.696 22.385v-2.33c1.137.114 1.857.152 2.406.152 1.686 0 2.482-.53 2.482-1.667 0-.738-.36-1.307-1.459-2.027l-1.478-.947c-1.44-.947-2.14-2.121-2.14-3.56 0-2.312 1.686-3.694 4.546-3.694.606 0 1.27.056 2.046.17v2.197c-.758-.095-1.42-.17-1.97-.17-1.44 0-2.16.492-2.16 1.42 0 .645.36 1.156 1.289 1.743l1.288.833c1.742 1.118 2.519 2.368 2.519 3.997 0 2.576-1.78 4.054-4.906 4.054-.606 0-1.345-.038-2.463-.17"/></g><g><path fill="#fff" d="M91.883 22.385v-2.33c1.137.114 1.856.152 2.405.152 1.686 0 2.482-.53 2.482-1.667 0-.738-.36-1.307-1.459-2.027l-1.477-.947c-1.44-.947-2.14-2.121-2.14-3.56 0-2.312 1.685-3.694 4.545-3.694.607 0 1.27.056 2.047.17v2.197c-.758-.095-1.421-.17-1.97-.17-1.44 0-2.16.492-2.16 1.42 0 .645.36 1.156 1.288 1.743l1.288.833c1.742 1.118 2.52 2.368 2.52 3.997 0 2.576-1.781 4.054-4.906 4.054-.607 0-1.345-.038-2.463-.17"/></g><g><path fill="#fff" d="M101.505 22.385V8.482h2.463v13.903z"/></g><g><path fill="#fff" d="M115.389 20.397c.814 0 1.61-.285 2.31-.91l-2.727-3.428c-1.099.322-1.818 1.098-1.818 2.235 0 1.288.909 2.103 2.235 2.103m-4.584-1.952c0-1.97 1.155-3.41 2.917-4.053-.682-1.06-.89-1.819-.89-2.633 0-2.179 1.61-3.448 4.319-3.448.624 0 1.325.057 2.083.171v2.121a13.119 13.119 0 0 0-1.913-.17c-1.459 0-2.084.492-2.084 1.44 0 .644.303 1.212 1.004 2.083l3.012 3.732c.682-1.004 1.288-2.198 1.78-3.542l2.008 1.004c-.624 1.515-1.42 2.936-2.424 4.223l2.443 3.012h-3.049l-1.023-1.288c-1.061.929-2.349 1.459-3.826 1.459-2.634 0-4.357-1.667-4.357-4.11"/></g><g><path fill="#fff" d="M135.39 20.283c2.596 0 4.642-1.97 4.642-4.85 0-2.879-2.046-4.867-4.641-4.867-2.614 0-4.64 1.988-4.64 4.868 0 2.879 2.026 4.849 4.64 4.849m-7.198-4.85c0-4.242 3.164-7.216 7.198-7.216 4.035 0 7.198 2.974 7.198 7.217 0 4.243-3.163 7.217-7.198 7.217-4.034 0-7.198-2.974-7.198-7.217"/></g><g><path fill="#fff" d="M144.937 8.482h2.463v11.611h5.076v2.292h-7.539z"/></g><g><path fill="#fff" d="M154.313 8.482h2.463v11.611h5.076v2.292h-7.539z"/></g><g><path fill="#fff" d="M163.69 22.385V8.482h2.462v13.903z"/></g><g><path fill="#fff" d="M169.22 8.482h7.52v2.292h-5.058v3.353h5.002v2.292h-5.002v3.674h5.153v2.292h-7.615z"/></g><g><path fill="#fff" d="M181.968 14.582v-3.96h1.648c1.364 0 2.16.758 2.16 1.97 0 1.213-.796 1.99-2.16 1.99zm4.206 7.804h2.992l-4.508-5.948c2.273-.322 3.637-1.819 3.637-3.846 0-2.651-1.743-4.11-4.546-4.11h-4.243v13.904h2.462v-5.854z"/></g></g><g><path fill="#848484" d="M54.137 32.743l1.164-3.425 1.165 3.425zm-1.268 1.995h.59l.506-1.481h2.672l.505 1.481h.608l-2.175-6.26h-.548z"/></g><g><path fill="#848484" d="M61.046 34.19v-5.163h.967c1.516 0 2.595 1.027 2.595 2.577 0 1.559-1.079 2.586-2.595 2.586zm-.574.548h1.541c1.807 0 3.186-1.216 3.186-3.134 0-1.9-1.379-3.125-3.186-3.125h-1.54z"/></g><g><path fill="#848484" d="M67.38 28.479h.626l1.756 5.377L71.5 28.48h.6l-2.073 6.26h-.548z"/></g><g><path fill="#848484" d="M77.468 34.276c1.421 0 2.586-1.114 2.586-2.672 0-1.55-1.165-2.672-2.586-2.672-1.43 0-2.587 1.122-2.587 2.672 0 1.558 1.156 2.672 2.587 2.672m-3.186-2.672c0-1.901 1.464-3.22 3.186-3.22 1.72 0 3.185 1.319 3.185 3.22 0 1.918-1.464 3.228-3.185 3.228-1.722 0-3.186-1.31-3.186-3.228"/></g><g><path fill="#848484" d="M83.203 31.621c0-1.918 1.439-3.237 3.211-3.237.925 0 1.79.343 2.372.976l-.41.42c-.463-.522-1.174-.847-1.962-.847-1.49 0-2.62 1.13-2.62 2.688 0 1.542 1.122 2.663 2.595 2.663 1.327 0 2.329-.899 2.406-2.414h-2.578v-.523h3.178v.231c0 2.056-1.31 3.254-3.006 3.254-1.764 0-3.186-1.318-3.186-3.21"/></g><g><path fill="#848484" d="M92.775 32.743l1.165-3.425 1.164 3.425zm-1.267 1.995h.59l.506-1.481h2.672l.505 1.481h.608l-2.175-6.26h-.548z"/></g><g><path fill="#848484" d="M99.684 34.19v-5.163h.968c1.516 0 2.595 1.027 2.595 2.577 0 1.559-1.08 2.586-2.595 2.586zm-.573.548h1.54c1.808 0 3.186-1.216 3.186-3.134 0-1.9-1.378-3.125-3.185-3.125H99.11z"/></g><g><path fill="#848484" d="M109.59 34.276c1.422 0 2.587-1.114 2.587-2.672 0-1.55-1.165-2.672-2.586-2.672-1.43 0-2.587 1.122-2.587 2.672 0 1.558 1.156 2.672 2.587 2.672m-3.186-2.672c0-1.901 1.464-3.22 3.186-3.22 1.72 0 3.185 1.319 3.185 3.22 0 1.918-1.464 3.228-3.185 3.228-1.722 0-3.186-1.31-3.186-3.228"/></g><g><path fill="#848484" d="M115.326 34.738v-.548c.42.051.788.069 1.097.069.993 0 1.498-.394 1.498-1.14 0-.505-.24-.864-.865-1.258l-.685-.428c-.685-.429-1.002-.916-1.002-1.533 0-.933.702-1.49 1.892-1.49.24 0 .514.017.848.068v.523a6.26 6.26 0 0 0-.83-.069c-.874 0-1.336.334-1.336.96 0 .436.23.753.779 1.095l.65.403c.772.48 1.131 1.028 1.131 1.721 0 1.062-.762 1.696-2.072 1.696a9.15 9.15 0 0 1-1.105-.069"/></g><g><path fill="#848484" d="M125.738 32.743l1.164-3.425 1.165 3.425zm-1.268 1.995h.59l.506-1.481h2.672l.505 1.481h.608l-2.175-6.26h-.548z"/></g><g><path fill="#848484" d="M131.636 34.738v-.548c.42.051.788.069 1.096.069.994 0 1.499-.394 1.499-1.14 0-.505-.24-.864-.865-1.258l-.685-.428c-.685-.429-1.002-.916-1.002-1.533 0-.933.702-1.49 1.892-1.49.24 0 .514.017.848.068v.523a6.262 6.262 0 0 0-.83-.069c-.874 0-1.336.334-1.336.96 0 .436.23.753.779 1.095l.65.403c.771.48 1.131 1.028 1.131 1.721 0 1.062-.762 1.696-2.072 1.696a9.15 9.15 0 0 1-1.105-.069"/></g><g><path fill="#848484" d="M137.278 34.738v-.548c.42.051.788.069 1.097.069.993 0 1.498-.394 1.498-1.14 0-.505-.24-.864-.865-1.258l-.685-.428c-.685-.429-1.002-.916-1.002-1.533 0-.933.702-1.49 1.893-1.49.24 0 .513.017.847.068v.523a6.26 6.26 0 0 0-.83-.069c-.874 0-1.336.334-1.336.96 0 .436.23.753.779 1.095l.65.403c.772.48 1.131 1.028 1.131 1.721 0 1.062-.762 1.696-2.072 1.696-.334 0-.66-.017-1.105-.069"/></g><g><path fill="#848484" d="M146.106 34.276c1.422 0 2.586-1.114 2.586-2.672 0-1.55-1.164-2.672-2.586-2.672-1.43 0-2.586 1.122-2.586 2.672 0 1.558 1.156 2.672 2.586 2.672m-3.185-2.672c0-1.901 1.464-3.22 3.185-3.22s3.186 1.319 3.186 3.22c0 1.918-1.465 3.228-3.186 3.228-1.721 0-3.185-1.31-3.185-3.228"/></g><g><path fill="#848484" d="M151.842 31.604c0-1.901 1.42-3.194 3.245-3.194.3 0 .591.034.856.077v.531a4.942 4.942 0 0 0-.813-.077c-1.576 0-2.689 1.105-2.689 2.663 0 1.559 1.113 2.672 2.689 2.672.282 0 .557-.034.813-.077v.53a5.41 5.41 0 0 1-.856.078c-1.824 0-3.245-1.293-3.245-3.203"/></g><g><path fill="#848484" d="M158.828 34.738v-6.26h.574v6.26z"/></g><g><path fill="#848484" d="M163.4 32.743l1.165-3.425 1.164 3.425zm-1.268 1.995h.591l.505-1.481h2.672l.505 1.481h.609l-2.176-6.26h-.548z"/></g><g><path fill="#848484" d="M170.31 34.19v-5.163h.966c1.516 0 2.595 1.027 2.595 2.577 0 1.559-1.079 2.586-2.595 2.586zm-.575.548h1.541c1.807 0 3.186-1.216 3.186-3.134 0-1.9-1.379-3.125-3.186-3.125h-1.54z"/></g><g><path fill="#848484" d="M180.216 34.276c1.42 0 2.585-1.114 2.585-2.672 0-1.55-1.164-2.672-2.585-2.672-1.43 0-2.587 1.122-2.587 2.672 0 1.558 1.156 2.672 2.587 2.672m-3.186-2.672c0-1.901 1.464-3.22 3.186-3.22 1.72 0 3.185 1.319 3.185 3.22 0 1.918-1.464 3.228-3.185 3.228-1.722 0-3.186-1.31-3.186-3.228"/></g><g><path fill="#848484" d="M185.95 34.738v-.548c.42.051.789.069 1.097.069.994 0 1.499-.394 1.499-1.14 0-.505-.24-.864-.865-1.258l-.685-.428c-.686-.429-1.002-.916-1.002-1.533 0-.933.702-1.49 1.892-1.49.24 0 .514.017.848.068v.523a6.258 6.258 0 0 0-.83-.069c-.874 0-1.337.334-1.337.96 0 .436.232.753.78 1.095l.65.403c.771.48 1.131 1.028 1.131 1.721 0 1.062-.762 1.696-2.072 1.696-.335 0-.66-.017-1.105-.069"/></g><g><path fill="#b98650" d="M39.238 39.238H2.616V2.616h36.622zM0 41.854h41.854V0H0z"/></g><g><path fill="#b98650" d="M28.699 10.72h2.762v25.939h-21.07v-25.94h13.895l-1.047 2.617H13.006v20.707h15.84V13.336h-1.084zm7.735-5.402l-.063 31.411-2.616-.005.058-28.79h-4.847L27.93 10.72l-.973 2.616-3.911 10.526H18.92l-3.62-9.893h2.785l2.66 7.277h.482l2.937-7.91.973-2.616 2.01-5.402zM16.65 10.045h-2.786l-.774-2.111H8.036v28.793H5.42V5.318h9.498z"/></g><g/></g></g></svg>