<svg xmlns="http://www.w3.org/2000/svg" width="20" height="56" viewBox="0 0 20 56"><defs><linearGradient id="k7y0a" x1="10" x2="10" y1="0" y2="32" gradientUnits="userSpaceOnUse"><stop offset="0" stop-color="#deaa74"/><stop offset="1" stop-color="#b98650"/></linearGradient><linearGradient id="k7y0b" x1="10" x2="10" y1="37.54" y2="55.98" gradientUnits="userSpaceOnUse"><stop offset="0" stop-color="#deaa74"/><stop offset="1" stop-color="#b98650"/></linearGradient></defs><g><g><path fill="url(#k7y0a)" d="M11.3 11.44a1.3 1.3 0 0 1-2.6 0V8a1.3 1.3 0 0 1 2.6 0zM10 0C4.477 0 0 4.477 0 10v12c0 5.523 4.477 10 10 10s10-4.477 10-10V10c0-5.523-4.477-10-10-10z"/></g><g><path fill="url(#k7y0b)" d="M8.5 37.536h3v12.706l4.864-4.864 2.121 2.123L10 55.984 1.514 47.5l2.121-2.123L8.5 50.242z"/></g></g></svg>