<svg xmlns="http://www.w3.org/2000/svg" width="32" height="46" viewBox="0 0 32 46"><g><g><path fill="#b98650" d="M21.515 4.943V3.87c0-.586.39-.976.976-.976.488 0 .976.39.976.976v.976h.78c.489 0 .977.488.977.976a.978.978 0 0 1-.976.976H22.49c-.39 0-.684.293-.684.586 0 .39.293.585.684.585h.195a2.52 2.52 0 0 1 2.538 2.538c0 1.171-.781 2.147-1.757 2.44v1.074c0 .488-.488.976-.976.976a.978.978 0 0 1-.976-.976v-.976h-.586a.978.978 0 0 1-.976-.976c0-.488.39-.976.976-.976h1.757c.39 0 .586-.293.586-.586 0-.39-.293-.586-.586-.586h-.195c-1.464 0-2.636-1.171-2.636-2.537.098-1.074.684-2.05 1.66-2.44zm1.073 12.202c4.49 0 8.2-3.71 8.2-8.2 0-4.49-3.71-8.198-8.2-8.198-4.49 0-8.199 3.709-8.199 8.199s3.71 8.199 8.2 8.199z"/></g><g><path fill="#b98650" d="M30.397 30.517l-2.245-1.561c-2.05-1.367-4.392-1.952-6.833-1.757l-10.346.878-2.147.195L4.336 8.85c-.293-1.073-1.367-1.757-2.44-1.464C.822 7.678.139 8.752.432 9.825l4.88 21.083c.195.976 1.171 1.66 2.147 1.562l1.172-.098 4.197-.39 6.246-.586 2.538-.195c.586 0 1.172 0 1.757.098.879.195 1.757.488 2.538.976l2.343 1.562c.292.195.78.39 1.073.39.683 0 1.27-.293 1.66-.878.585-.976.39-2.245-.586-2.831z"/></g><g><path fill="#b98650" d="M28.639 39.594l-1.757.586-2.636-6.637c-.39-.196-.78-.293-1.268-.39h-1.171l-1.953.194 3.124 8.004c-4.197.879-8.297.879-12.396.098l1.757-7.418-4.197.39-1.367 5.954c-.585-.195-1.17-.39-1.756-.683-1.074-.39-2.245.098-2.636 1.074-.39.976.098 2.245 1.074 2.635 4.295 1.757 8.687 2.635 13.08 2.635 4.391 0 8.979-.878 13.469-2.635 1.074-.39 1.562-1.562 1.171-2.635-.39-1.074-1.562-1.562-2.538-1.172z"/></g><g><path fill="#b98650" d="M13.803 18.024l-5.174.78.879 3.905 4.197-.586 3.221 1.855c.293.195.683.293.976.293.683 0 1.367-.39 1.757-.976.586-.977.195-2.148-.78-2.733l-3.905-2.148c-.293-.39-.683-.488-1.171-.39z"/></g></g></svg>