<svg xmlns="http://www.w3.org/2000/svg" width="36" height="30" viewBox="0 0 36 30"><g><g><path fill="#b98650" d="M0 26.642a3.375 3.375 0 0 0 3.375 3.375h29.25A3.375 3.375 0 0 0 36 26.642V13.929l-17.71 4.719c-.19.05-.39.05-.581 0L0 13.928z"/></g><g><path fill="#b98650" d="M11.25 4.142A3.375 3.375 0 0 1 14.625.767h6.75a3.375 3.375 0 0 1 3.375 3.375v1.125H22.5V4.142c0-.622-.504-1.125-1.125-1.125h-6.75c-.621 0-1.125.503-1.125 1.125v1.125h-2.25zM0 11.756l17.132 4.567c.57.151 1.168.151 1.737 0L36 11.756V8.642a3.375 3.375 0 0 0-3.375-3.375H3.375A3.375 3.375 0 0 0 0 8.642z"/></g></g></svg>