<?xml version="1.0" encoding="UTF-8"?>
<svg id="SVGDoc" width="32" height="32" xmlns="http://www.w3.org/2000/svg" version="1.1" xmlns:xlink="http://www.w3.org/1999/xlink" xmlns:avocode="https://avocode.com/" viewBox="0 0 32 32"><defs></defs><desc>Generated with Avocode.</desc><g><g><title>Caminho 25459</title><path d="M0.66378,14.26751c0.42549,-0.42657 1.00322,-0.6663 1.60572,-0.6663c0.6025,0 1.18023,0.23973 1.60572,0.6663l12.00104,12.00709v0l12.00306,-12.00709c0.88682,-0.88681 2.32463,-0.88681 3.21144,0c0.88681,0.88681 0.88681,2.32462 0,3.21143l-13.60777,13.60777c-0.42549,0.42657 -1.00323,0.6663 -1.60572,0.6663c-0.60249,0 -1.18023,-0.23973 -1.60572,-0.6663l-13.60777,-13.60777c-0.42657,-0.42548 -0.6663,-1.00322 -0.6663,-1.60572c0,-0.60249 0.23973,-1.18023 0.6663,-1.60572z" fill="#ffffff" fill-opacity="1"></path></g><g><title>Caminho 25460</title><path d="M15.87625,-0.0015c1.25256,0 2.26796,1.0154 2.26796,2.26796v22.67961c0,1.25256 -1.0154,2.26797 -2.26796,2.26797c-1.25256,0 -2.26796,-1.0154 -2.26796,-2.26797v-22.67961c0,-1.25256 1.0154,-2.26796 2.26796,-2.26796z" fill="#ffffff" fill-opacity="1"></path></g></g></svg>