<?xml version="1.0" encoding="UTF-8"?>
<svg id="SVGDoc" width="12" height="10" xmlns="http://www.w3.org/2000/svg" version="1.1" xmlns:xlink="http://www.w3.org/1999/xlink" xmlns:avocode="https://avocode.com/" viewBox="0 0 12 10"><defs></defs><desc>Generated with Avocode.</desc><g><g><title>Caminho 25474</title><path d="M6.32954,0.40872c-0.13225,0.13191 -0.20657,0.31102 -0.20657,0.49781c0,0.18679 0.07432,0.3659 0.20657,0.49781l3.7225,3.72062v0l-3.7225,3.72125c-0.27493,0.27493 -0.27493,0.72069 0,0.99562c0.27493,0.27493 0.72069,0.27493 0.99563,0l4.21875,-4.21875c0.13225,-0.13191 0.20657,-0.31102 0.20657,-0.49781c0,-0.18679 -0.07432,-0.3659 -0.20657,-0.49781l-4.21875,-4.21875c-0.13191,-0.13225 -0.31103,-0.20657 -0.49781,-0.20657c-0.18679,0 -0.3659,0.07432 -0.49781,0.20657z"  fill="#636363" fill-opacity="1"></path></g><g><title>Caminho 25475</title><path d="M11.04642,5.12497c0,-0.38832 -0.3148,-0.70312 -0.70312,-0.70312h-9.14062c-0.38833,0 -0.70312,0.3148 -0.70312,0.70313c0,0.38832 0.3148,0.70313 0.70313,0.70313h9.14063c0.38832,0 0.70313,-0.3148 0.70313,-0.70312z" fill="#636363" fill-opacity="1"></path></g></g></svg>