<?xml version="1.0" encoding="UTF-8"?>
<svg id="SVGDoc" width="319" height="20" xmlns="http://www.w3.org/2000/svg" version="1.1" xmlns:xlink="http://www.w3.org/1999/xlink" xmlns:avocode="https://avocode.com/" viewBox="0 0 319 20"><defs></defs><desc>Generated with Avocode.</desc><g><g opacity="0.6"><title>Linha 110</title><path d="M308.5,10h-123" fill-opacity="0" fill="#ffffff" stroke-dashoffset="0" stroke-linejoin="miter" stroke-linecap="butt" stroke-opacity="1" stroke="#ffffff" stroke-miterlimit="20" stroke-width="1"></path></g><g opacity="0.6"><title>Linha 111</title><path d="M133.5,10h-123.5" fill-opacity="0" fill="#ffffff" stroke-dashoffset="0" stroke-linejoin="miter" stroke-linecap="butt" stroke-opacity="1" stroke="#ffffff" stroke-miterlimit="20" stroke-width="1"></path></g><g><title>Grupo 10338</title><g><title>Caminho 25463</title><path d="M169.99992,7.43421v0v11.6951v0h-19.99995v0v-13.74188c0.14016,0.182 0.28562,0.36038 0.43652,0.53485c2.6211,3.05553 6.15834,4.58323 10.60755,4.58323c2.05515,0 3.92077,-0.33848 5.59923,-1.01642c1.25114,-0.50445 2.37034,-1.19019 3.35664,-2.05488" fill="#8c8b8b" fill-opacity="1"></path></g><g><title>Caminho 25464</title><path d="M155.65485,0.87056v0h14.34507v0v0.14741c-0.36916,1.05924 -0.99271,1.94972 -1.86827,2.66754c-1.31474,1.0789 -3.03197,1.61584 -5.15086,1.61584c-2.70854,0 -4.79507,-0.91531 -6.27675,-2.74913c-0.40543,-0.50319 -0.75576,-1.06356 -1.04919,-1.68167" fill="#cf000c" fill-opacity="1"></path></g></g></g></svg>