<?xml version="1.0" encoding="UTF-8"?>
<svg id="SVGDoc" width="173" height="158" xmlns="http://www.w3.org/2000/svg" version="1.1" xmlns:xlink="http://www.w3.org/1999/xlink" xmlns:avocode="https://avocode.com/" viewBox="0 0 173 158"><defs></defs><desc>Generated with Avocode.</desc><g><g><title>Caminho 25463</title><path d="M173.00003,56.53669v0v100.73782v0h-172.27306v0v-118.36816c1.20731,1.5677 2.46027,3.10417 3.76008,4.60699c22.57731,26.31938 53.04599,39.47849 91.37001,39.47849c17.70242,0 33.77229,-2.91556 48.22997,-8.75511c10.77692,-4.34512 20.41736,-10.25194 28.91299,-17.70003" fill="#ffffff" fill-opacity="1"></path></g><g><title>Caminho 25464</title><path d="M49.43598,-0.00005v0h123.56377v0v1.26978c-3.17987,9.12391 -8.5509,16.79423 -16.09268,22.97735c-11.32474,9.29329 -26.11637,13.91831 -44.36779,13.91831c-23.33051,0 -41.30322,-7.88416 -54.06589,-23.68011c-3.4922,-4.33431 -6.50987,-9.16115 -9.03741,-14.48533" fill="#ffffff" fill-opacity="1"></path></g></g></svg>