<?xml version="1.0" encoding="UTF-8"?>
<svg id="SVGDoc" width="30" height="21" xmlns="http://www.w3.org/2000/svg" version="1.1" xmlns:xlink="http://www.w3.org/1999/xlink" xmlns:avocode="https://avocode.com/" viewBox="0 0 30 21"><defs></defs><desc>Generated with Avocode.</desc><g><g><title>menu-left</title><g><title>Caminho 26029</title><path d="M0.00049,1.492c0,-0.825 0.669,-1.492 1.492,-1.492h12.015c0.82429,0 1.4925,0.66822 1.4925,1.4925c0,0.82429 -0.66821,1.4925 -1.4925,1.4925h-12.015c-0.8244,0 -1.49255,-0.6686 -1.492,-1.493z" fill="#ffffff" fill-opacity="1"></path></g><g><title>Caminho 26030</title><path d="M0.00049,10.5c0,-0.825 0.669,-1.492 1.492,-1.492h27.015c0.82428,0 1.4925,0.66821 1.4925,1.4925c0,0.82429 -0.66821,1.4925 -1.4925,1.4925h-27.015c-0.8244,0 -1.49255,-0.6686 -1.492,-1.493z" fill="#ffffff" fill-opacity="1"></path></g><g><title>Caminho 26031</title><path d="M1.49249,18.015c-0.82429,0 -1.4925,0.66821 -1.4925,1.4925c0,0.82429 0.66822,1.4925 1.4925,1.4925h18.015c0.82428,0 1.4925,-0.66822 1.4925,-1.4925c0,-0.82429 -0.66821,-1.4925 -1.4925,-1.4925z" fill="#ffffff" fill-opacity="1"></path></g></g></g></svg>