<?xml version="1.0" encoding="UTF-8"?>
<svg id="SVGDoc" width="19" height="17" xmlns="http://www.w3.org/2000/svg" version="1.1" xmlns:xlink="http://www.w3.org/1999/xlink" xmlns:avocode="https://avocode.com/" viewBox="0 0 19 17"><defs></defs><desc>Generated with Avocode.</desc><g><g><title>Icon awesome-twitter</title><path d="M17.06264,4.74269c0.01196,0.16742 0.01196,0.33489 0.01196,0.50231c0,5.10667 -3.88683,10.99074 -10.99081,10.99074c-2.18861,0 -4.22171,-0.63388 -5.93194,-1.7341c0.31096,0.03586 0.60992,0.04782 0.93284,0.04782c1.80586,0 3.46826,-0.60991 4.79578,-1.65039c-1.69826,-0.03589 -3.12145,-1.14812 -3.6118,-2.67894c0.23921,0.03586 0.47838,0.05978 0.72956,0.05978c0.34682,0 0.69367,-0.04786 1.01655,-0.13153c-1.77001,-0.35881 -3.09756,-1.91353 -3.09756,-3.79116v-0.04782c0.51424,0.28703 1.11227,0.46642 1.74608,0.49031c-1.04048,-0.69366 -1.72215,-1.87764 -1.72215,-3.2171c0,-0.71755 0.19132,-1.37532 0.52621,-1.94938c1.90158,2.34405 4.75992,3.87484 7.96504,4.0423c-0.05978,-0.28703 -0.09568,-0.58598 -0.09568,-0.88498c0,-2.12881 1.72219,-3.86291 3.86293,-3.86291c1.11223,0 2.11682,0.46642 2.82245,1.21986c0.87302,-0.16742 1.71019,-0.49035 2.45171,-0.93284c-0.28707,0.89698 -0.89698,1.65043 -1.69826,2.12877c0.77738,-0.08368 1.53083,-0.29899 2.22446,-0.59795c-0.52613,0.76537 -1.18394,1.44704 -1.93739,1.9972z" fill="#ffffff" fill-opacity="1"></path></g></g></svg>