<?xml version="1.0" encoding="UTF-8"?>
<svg id="SVGDoc" width="18" height="14" xmlns="http://www.w3.org/2000/svg" version="1.1" xmlns:xlink="http://www.w3.org/1999/xlink" xmlns:avocode="https://avocode.com/" viewBox="0 0 18 14"><defs></defs><desc>Generated with Avocode.</desc><g><g><title>__TEMP__SVG__</title><path d="M1.8142,1.3429h13.74076l-6.87312,6.83475zM15.5988,12.30481h-13.59277l3.83667,-3.96821l-0.78926,-0.76185l-3.95725,4.09427v-9.49302l6.81283,6.77994c0.42756,0.42502 1.11807,0.42502 1.54563,0l6.98822,-6.94985v9.59167l-4.03398,-4.03398l-0.77282,0.77281zM16.44287,0.2467h-15.34668c-0.60541,0 -1.09619,0.49078 -1.09619,1.09619v10.96191c0,0.60541 0.49078,1.09619 1.09619,1.09619h15.34668c0.60541,0 1.09619,-0.49078 1.09619,-1.09619v-10.96191c0,-0.60541 -0.49078,-1.09619 -1.09619,-1.09619z" fill="#ffffff" fill-opacity="1"></path></g></g></svg>