<?xml version="1.0" encoding="UTF-8"?>
<svg id="SVGDoc" width="41" height="33" xmlns="http://www.w3.org/2000/svg" version="1.1" xmlns:xlink="http://www.w3.org/1999/xlink" xmlns:avocode="https://avocode.com/" viewBox="0 0 41 33"><defs></defs><desc>Generated with Avocode.</desc><g><g><title>Grupo 10325</title><g><title>Caminho 25453</title><path d="M35.76352,5.37395c0,2.67965 -2.17239,4.8521 -4.85211,4.8521c-2.67999,0 -4.85214,-2.17237 -4.85214,-4.8521c0,-2.67973 2.17206,-4.85213 4.85214,-4.85213c2.67963,0 4.85211,2.17239 4.85211,4.85213" fill="#cf000c" fill-opacity="1"></path></g><g><title>Caminho 25454</title><path d="M15.96373,10.82387c0,2.67966 -2.17238,4.85213 -4.85211,4.85213c-2.67973,0 -4.85211,-2.17238 -4.85211,-4.85213c0,-2.67972 2.17238,-4.85211 4.85211,-4.85211c2.67973,0 4.85211,2.17239 4.85211,4.85211" fill="#cf000c" fill-opacity="1"></path></g><g><title>Caminho 25455</title><path d="M0.63573,29.69974v0h12.18976c0.43906,-3.23087 2.7998,-5.8515 5.89293,-6.67624c-0.95007,-0.70212 -1.63765,-1.73767 -1.87936,-2.93655c-1.65308,-1.43295 -3.61772,-2.26501 -5.72679,-2.26501c-5.23924,0.00064 -9.59088,5.1275 -10.47614,11.87753z" fill="#cf000c" fill-opacity="1"></path></g><g><title>Caminho 25456</title><path d="M24.45856,23.02397c3.09311,0.82471 5.45352,3.4451 5.89294,6.67621h10.12042c-0.80771,-9.55211 -4.77924,-16.80736 -9.56006,-16.80736c-1.9924,0 -3.84335,1.26311 -5.38406,3.42471c0.56842,0.79414 0.90686,1.76305 0.90686,2.81149c0,1.59657 -0.78055,3.01167 -1.97601,3.89525z" fill="#cf000c" fill-opacity="1"></path></g><g><title>Caminho 25457</title><path d="M18.16644,19.12875c0,1.88678 1.53516,3.42252 3.42258,3.42252c1.88742,0 3.42255,-1.5351 3.42255,-3.42252c0,-1.88742 -1.53513,-3.42258 -3.42255,-3.42258c-1.88742,0 -3.42258,1.53546 -3.42258,3.42258z" fill="#cf000c" fill-opacity="1"></path></g><g><title>Caminho 25458</title><path d="M22.39355,24.16846v0h-1.60953c-3.63928,0 -6.61694,2.97763 -6.61694,6.61694v2.14804v0h14.84317v0l0.00031,-2.14804c0,-3.63931 -2.97766,-6.61694 -6.61694,-6.61694z" fill="#cf000c" fill-opacity="1"></path></g></g></g></svg>