<?xml version="1.0" encoding="UTF-8"?>
<svg id="SVGDoc" width="28" height="32" xmlns="http://www.w3.org/2000/svg" version="1.1" xmlns:xlink="http://www.w3.org/1999/xlink" xmlns:avocode="https://avocode.com/" viewBox="0 0 28 32"><defs></defs><desc>Generated with Avocode.</desc><g><g><title>Icon map-accounting</title><path d="M24.45772,10.03238c0,0.71898 -0.58825,1.30723 -1.30723,1.30723h-18.30118c-0.71897,0 -1.30723,-0.58825 -1.30723,-1.30723v-5.22891c0,-0.71897 0.58825,-1.30723 1.30723,-1.30723h18.30118c0.71897,0 1.30723,0.58825 1.30723,1.30723zM24.45772,15.9149c0,0.71898 -0.58825,1.30723 -1.30723,1.30723h-2.61445c-0.71898,0 -1.30723,-0.58825 -1.30723,-1.30723v-0.65361c0,-0.71897 0.58825,-1.30723 1.30723,-1.30723h2.61445c0.71898,0 1.30723,0.58825 1.30723,1.30723zM24.45772,21.14381c0,0.71897 -0.58825,1.30723 -1.30723,1.30723h-2.61445c-0.71898,0 -1.30723,-0.58825 -1.30723,-1.30723v-0.65361c0,-0.71897 0.58825,-1.30723 1.30723,-1.30723h2.61445c0.71898,0 1.30723,0.58825 1.30723,1.30723zM24.45772,26.37272c0,0.71898 -0.58825,1.30723 -1.30723,1.30723h-2.61445c-0.71898,0 -1.30723,-0.58825 -1.30723,-1.30723v-0.65361c0,-0.71898 0.58825,-1.30723 1.30723,-1.30723h2.61445c0.71898,0 1.30723,0.58825 1.30723,1.30723zM16.61436,15.9149c0,0.71898 -0.58825,1.30723 -1.30723,1.30723h-2.61445c-0.71898,0 -1.30723,-0.58825 -1.30723,-1.30723v-0.65361c0,-0.71897 0.58825,-1.30723 1.30723,-1.30723h2.61445c0.71897,0 1.30723,0.58825 1.30723,1.30723zM16.61436,21.14381c0,0.71897 -0.58825,1.30723 -1.30723,1.30723h-2.61445c-0.71898,0 -1.30723,-0.58825 -1.30723,-1.30723v-0.65361c0,-0.71897 0.58825,-1.30723 1.30723,-1.30723h2.61445c0.71897,0 1.30723,0.58825 1.30723,1.30723zM16.61436,26.37272c0,0.71898 -0.58825,1.30723 -1.30723,1.30723h-2.61445c-0.71898,0 -1.30723,-0.58825 -1.30723,-1.30723v-0.65361c0,-0.71898 0.58825,-1.30723 1.30723,-1.30723h2.61445c0.71897,0 1.30723,0.58825 1.30723,1.30723zM8.771,15.9149c0,0.71898 -0.58825,1.30723 -1.30723,1.30723h-2.61445c-0.71897,0 -1.30723,-0.58825 -1.30723,-1.30723v-0.65361c0,-0.71897 0.58825,-1.30723 1.30723,-1.30723h2.61445c0.71897,0 1.30723,0.58825 1.30723,1.30723zM8.771,21.14381c0,0.71897 -0.58825,1.30723 -1.30723,1.30723h-2.61445c-0.71897,0 -1.30723,-0.58825 -1.30723,-1.30723v-0.65361c0,-0.71897 0.58825,-1.30723 1.30723,-1.30723h2.61445c0.71897,0 1.30723,0.58825 1.30723,1.30723zM8.771,26.37272c0,0.71898 -0.58825,1.30723 -1.30723,1.30723h-2.61445c-0.71897,0 -1.30723,-0.58825 -1.30723,-1.30723v-0.65361c0,-0.71898 0.58825,-1.30723 1.30723,-1.30723h2.61445c0.71897,0 1.30723,0.58825 1.30723,1.30723zM24.45772,0.22818h-20.91563c-1.43795,0 -2.61445,1.1765 -2.61445,2.61445v26.14454c0,1.43795 1.1765,2.61445 2.61445,2.61445h20.91563c1.43795,0 2.61445,-1.17651 2.61445,-2.61445v-26.14454c0,-1.43795 -1.1765,-2.61445 -2.61445,-2.61445z" fill="#cf000c" fill-opacity="1"></path></g></g></svg>