<?xml version="1.0" encoding="UTF-8"?>
<svg id="SVGDoc" width="28" height="32" xmlns="http://www.w3.org/2000/svg" version="1.1" xmlns:xlink="http://www.w3.org/1999/xlink" xmlns:avocode="https://avocode.com/" viewBox="0 0 28 32"><defs></defs><desc>Generated with Avocode.</desc><g><g><title>Icon awesome-building</title><path d="M19.92902,7.51874c0,0.40927 -0.33183,0.7411 -0.7411,0.7411h-2.47034c-0.40928,0 -0.7411,-0.33183 -0.7411,-0.7411v-2.47035c0,-0.40927 0.33183,-0.7411 0.7411,-0.7411h2.47034c0.40928,0 0.7411,0.33183 0.7411,0.7411zM19.92902,13.44757c0,0.40927 -0.33183,0.7411 -0.7411,0.7411h-2.47034c-0.40928,0 -0.7411,-0.33183 -0.7411,-0.7411v-2.47035c0,-0.40927 0.33183,-0.7411 0.7411,-0.7411h2.47034c0.40928,0 0.7411,0.33183 0.7411,0.7411zM19.92902,19.3764c0,0.40928 -0.33183,0.7411 -0.7411,0.7411h-2.47034c-0.40928,0 -0.7411,-0.33183 -0.7411,-0.7411v-2.47034c0,-0.40928 0.33183,-0.7411 0.7411,-0.7411h2.47034c0.40928,0 0.7411,0.33183 0.7411,0.7411zM15.97647,29.99888h-3.95255v-5.18773c0,-0.40928 0.33183,-0.7411 0.7411,-0.7411h2.47035c0.40928,0 0.7411,0.33183 0.7411,0.7411zM11.28281,20.1175h-2.47035c-0.40927,0 -0.7411,-0.33183 -0.7411,-0.7411v-2.47034c0,-0.40928 0.33183,-0.7411 0.7411,-0.7411h2.47035c0.40927,0 0.7411,0.33183 0.7411,0.7411v2.47034c0,0.40928 -0.33183,0.7411 -0.7411,0.7411zM8.07137,10.97722c0,-0.40927 0.33183,-0.7411 0.7411,-0.7411h2.47035c0.40927,0 0.7411,0.33183 0.7411,0.7411v2.47035c0,0.40927 -0.33183,0.7411 -0.7411,0.7411h-2.47035c-0.40927,0 -0.7411,-0.33183 -0.7411,-0.7411zM8.07137,5.04839c0,-0.40927 0.33183,-0.7411 0.7411,-0.7411h2.47035c0.40927,0 0.7411,0.33183 0.7411,0.7411v2.47035c0,0.40927 -0.33183,0.7411 -0.7411,0.7411h-2.47035c-0.40927,0 -0.7411,-0.33183 -0.7411,-0.7411zM25.85786,29.99888v-28.16194c0,-0.81861 -0.6636,-1.48221 -1.48221,-1.48221h-20.7509c-0.81861,0 -1.48221,0.6636 -1.48221,1.48221v28.16194h-1.23517c-0.40927,0 -0.7411,0.33183 -0.7411,0.7411v1.23517h27.66787v-1.23517c0,-0.40928 -0.33183,-0.7411 -0.7411,-0.7411z" fill="#cf000c" fill-opacity="1"></path></g></g></svg>