<?xml version="1.0" encoding="UTF-8"?>
<svg id="SVGDoc" width="18" height="33" xmlns="http://www.w3.org/2000/svg" version="1.1" xmlns:xlink="http://www.w3.org/1999/xlink" xmlns:avocode="https://avocode.com/" viewBox="0 0 18 33"><defs></defs><desc>Generated with Avocode.</desc><g><g><title>Icon metro-money</title><path d="M9.6856,14.64666c-3.96529,-1.03061 -5.24049,-2.08747 -5.24049,-3.74695c0,-1.90406 1.75556,-3.24038 4.71644,-3.24038c3.10937,0 4.26228,1.48482 4.36709,3.66834h3.86048c-0.11353,-3.01328 -1.95646,-5.75582 -5.60732,-6.65542v-3.82556v0h-5.24049v0v3.77315c-3.38884,0.74239 -6.11389,2.92595 -6.11389,6.30607c0,4.03518 3.34519,6.04404 8.21009,7.21439c4.37581,1.0481 5.24049,2.57656 5.24049,4.21859c0,1.19659 -0.8472,3.11809 -4.71644,3.11809c-3.59846,0 -5.02215,-1.61583 -5.20557,-3.66834h-3.85176c0.21834,3.82556 3.07441,5.96544 6.43708,6.69035v3.79063v0h5.24049v0v-3.75566c3.3976,-0.65506 6.11389,-2.62024 6.11389,-6.20998c0,-4.94354 -4.2448,-6.63794 -8.21009,-7.67732z" fill="#cf000c" fill-opacity="1"></path></g></g></svg>