<?xml version="1.0" encoding="UTF-8"?>
<svg id="SVGDoc" width="18" height="18" xmlns="http://www.w3.org/2000/svg" version="1.1" xmlns:xlink="http://www.w3.org/1999/xlink" xmlns:avocode="https://avocode.com/" viewBox="0 0 18 18"><defs></defs><desc>Generated with Avocode.</desc><g><g><title>Icon awesome-linkedin-in</title><path d="M13.71734,17.27639v-5.35994c0,-1.2774 -0.02577,-2.91557 -1.7777,-2.91557c-1.7777,0 -2.05012,1.38784 -2.05012,2.82354v5.45197h-3.41551v-11.0107h3.2793v1.50196h0.04786c0.45648,-0.8651 1.57155,-1.77806 3.23513,-1.77806c3.46042,0 4.09655,2.27871 4.09655,5.23846v6.04834zM2.6208,4.76373c-1.09335,0 -1.98017,-0.90559 -1.98017,-1.99893c0,-1.09361 0.88655,-1.98016 1.98017,-1.98016c1.09362,0 1.98017,0.88655 1.98017,1.98016c0,1.09334 -0.88719,1.99893 -1.98017,1.99893zM4.33223,17.27639h-3.41919v-11.0107h3.41919z" fill="#ffffff" fill-opacity="1"></path></g></g></svg>