<?xml version="1.0" encoding="UTF-8"?>
<svg id="SVGDoc" width="15" height="19" xmlns="http://www.w3.org/2000/svg" version="1.1" xmlns:xlink="http://www.w3.org/1999/xlink" xmlns:avocode="https://avocode.com/" viewBox="0 0 15 19"><defs></defs><desc>Generated with Avocode.</desc><g><g><title>Caminho 25477</title><path d="M7.15872,5.59537c1.07788,0.00097 1.95141,0.87451 1.95237,1.95238c0,1.07826 -0.8741,1.95237 -1.95237,1.95237c-1.07827,0 -1.95238,-0.8741 -1.95238,-1.95237c0,-1.07827 0.8741,-1.95237 1.95237,-1.95238zM10.41268,7.54774c0,-1.79711 -1.45685,-3.25396 -3.25396,-3.25396c-1.79711,0 -3.25396,1.45685 -3.25396,3.25396c0,1.79711 1.45685,3.25396 3.25396,3.25396c1.79619,-0.00223 3.25173,-1.45777 3.25396,-3.25396z" fill="#ffffff" fill-opacity="1"></path></g><g><title>Caminho 25478</title><path d="M2.48171,11.05853c-0.76681,-1.00967 -1.18136,-2.24295 -1.1801,-3.5108c0,-3.2348 2.62232,-5.85712 5.85712,-5.85712c3.2348,0 5.85712,2.62232 5.85712,5.85712c0.00155,1.26709 -0.41238,2.49973 -1.17837,3.50907c-0.00058,0.00059 -0.15329,0.20247 -0.18164,0.23834l-4.49712,5.3041l-4.49133,-5.29715c-0.03471,-0.04338 -0.18569,-0.24354 -0.18685,-0.24354zM12.65082,12.13396c0.0295,-0.03471 0.22445,-0.29098 0.22445,-0.29098l0.00058,-0.00174c0.93744,-1.23484 1.44386,-2.74313 1.44158,-4.29349c0,-3.95365 -3.20507,-7.15871 -7.15871,-7.15871c-3.95365,0 -7.15871,3.20507 -7.15871,7.15871c-0.00228,1.55099 0.50434,3.05989 1.44215,4.29523c0.07461,0.09838 0.15,0.19614 0.22619,0.29329l5.49037,6.47494z" fill="#ffffff" fill-opacity="1"></path></g></g></svg>