<?xml version="1.0" encoding="UTF-8"?>
<svg id="SVGDoc" width="27" height="27" xmlns="http://www.w3.org/2000/svg" version="1.1" xmlns:xlink="http://www.w3.org/1999/xlink" xmlns:avocode="https://avocode.com/" viewBox="0 0 27 27"><defs></defs><desc>Generated with Avocode.</desc><g><g><title>Grupo 8011</title><g><title>Caminho 8685</title><path d="M3.23837,23.28574l1.08487,-3.96066l-0.25543,-0.4062c-1.0749,-1.70909 -1.64225,-3.68403 -1.64142,-5.71212c0.00229,-5.91817 4.81829,-10.73297 10.74041,-10.73297c2.86789,0.00124 5.56322,1.11912 7.59049,3.14784c2.02706,2.02871 3.14266,4.72573 3.14162,7.59384c-0.00249,5.91834 -4.81871,10.73376 -10.73605,10.73376h-0.00415c-1.92696,-0.00103 -3.81654,-0.51833 -5.4646,-1.49646l-0.39228,-0.23238zM6.98472,24.55813c1.88665,1.029 4.01069,1.57122 6.17252,1.57205h0.00561c0.00021,0 -0.00041,0 0,0c7.11893,0 12.91412,-5.79373 12.91723,-12.91388c0.00124,-3.45083 -1.34133,-6.69543 -3.77999,-9.13637c-2.43886,-2.44094 -5.68202,-3.78581 -9.13722,-3.78726c-7.12015,0 -12.91453,5.79288 -12.91744,12.91325c-0.00083,2.27603 0.59373,4.49767 1.72407,6.4562l-1.83248,6.69171z" fill="#ffffff" fill-opacity="1"></path></g><g><title>Caminho 8686</title><path d="M9.93447,7.80738c-0.24174,-0.53745 -0.49635,-0.54828 -0.72646,-0.55762c-0.18814,-0.0081 -0.40349,-0.00768 -0.61842,-0.00768c-0.21515,0 -0.56487,0.08099 -0.86058,0.40392c-0.29593,0.32292 -1.12994,1.10376 -1.12994,2.6918c0,1.58827 1.15671,3.12271 1.3181,3.33827c0.16135,0.21536 2.23285,3.57834 5.51337,4.87212c2.72649,1.07532 3.28117,0.8614 3.87305,0.80763c0.59186,-0.05379 1.90952,-0.78082 2.17844,-1.53447c0.26917,-0.75363 0.26917,-1.39946 0.18835,-1.53468c-0.08078,-0.13435 -0.29593,-0.21513 -0.61864,-0.3765c-0.32272,-0.16135 -1.9095,-0.9424 -2.20543,-1.04996c-0.29594,-0.10777 -0.51111,-0.16138 -0.72624,0.16176c-0.21536,0.32272 -0.83337,1.04956 -1.02173,1.26469c-0.18837,0.21576 -0.37671,0.24278 -0.69943,0.08122c-0.32271,-0.16179 -1.36232,-0.50237 -2.59546,-1.60197c-0.95941,-0.85539 -1.60735,-1.91199 -1.7957,-2.23514c-0.18816,-0.32272 -0.00311,-0.48222 0.14185,-0.65851c0.26103,-0.31754 0.69901,-0.8884 0.80656,-1.10356c0.10759,-0.21555 0.05379,-0.40392 -0.02676,-0.56548c-0.0808,-0.16136 -0.70815,-1.75749 -0.99492,-2.39586z" fill="#ffffff" fill-opacity="1"></path></g></g></g></svg>