<?xml version="1.0" encoding="UTF-8"?>
<svg id="SVGDoc" width="30" height="27" xmlns="http://www.w3.org/2000/svg" version="1.1" xmlns:xlink="http://www.w3.org/1999/xlink" xmlns:avocode="https://avocode.com/" viewBox="0 0 30 27"><defs></defs><desc>Generated with Avocode.</desc><g><g><title>wallet-solid</title><g><title>Caminho 25451</title><path d="M27.78206,18.85916h-8.10567c-2.01596,-0.07179 -3.59284,-1.76282 -3.5238,-3.77887c-0.06904,-2.01605 1.50784,-3.70708 3.5238,-3.77887h8.10568zM28.67009,9.41198h-1.83275v-4.72359c0,-0.52175 -0.42296,-0.94472 -0.94472,-0.94472h-22.67322c-0.52175,0 -0.94472,-0.42296 -0.94472,-0.94472c0,-0.52175 0.42296,-0.94472 0.94472,-0.94472h22.29533c0.52175,0 0.94472,-0.42296 0.94472,-0.94472c0,-0.52175 -0.42297,-0.94472 -0.94472,-0.94472h-22.29533c-1.53408,-0.03163 -2.80316,1.18669 -2.83415,2.72079v19.83907c0.0025,1.03643 0.41727,2.02929 1.15279,2.75949c0.73553,0.73021 1.73136,1.13776 2.76779,1.13274h21.58679c0.52175,0 0.94472,-0.42296 0.94472,-0.94472v-4.72359h1.83275c0.241,0.01824 0.47886,-0.06361 0.65761,-0.22627c0.17875,-0.16266 0.2826,-0.39178 0.28711,-0.63342v-9.44718c0.00647,-0.53888 -0.40728,-0.98986 -0.94472,-1.02974z" fill="#cf000c" fill-opacity="1"></path></g><g><title>Caminho 25452</title><path d="M21.67918,15.00471c0,0.78263 -0.63445,1.41708 -1.41707,1.41708c-0.78263,0 -1.41708,-0.63445 -1.41708,-1.41708c0,-0.78263 0.63445,-1.41707 1.41708,-1.41707c0.78263,0 1.41708,0.63445 1.41708,1.41708z" fill="#cf000c" fill-opacity="1"></path></g></g></g></svg>