<?xml version="1.0" encoding="UTF-8"?>
<svg id="SVGDoc" width="27" height="27" xmlns="http://www.w3.org/2000/svg" version="1.1" xmlns:xlink="http://www.w3.org/1999/xlink" xmlns:avocode="https://avocode.com/" viewBox="0 0 27 27"><defs></defs><desc>Generated with Avocode.</desc><g><g><title>close</title><path d="M16.79891,13.56483v0l9.05063,-9.05063c0.89419,-0.8927 0.8954,-2.34127 0.0027,-3.23546c-0.8927,-0.8942 -2.34126,-0.89541 -3.23546,-0.00271l-9.05062,9.05063v0l-9.05063,-9.05063c-0.89457,-0.89457 -2.34496,-0.89457 -3.23953,0c-0.89457,0.89457 -0.89457,2.34496 0,3.23953l9.05062,9.05063v0l-9.05063,9.05063c-0.89457,0.89457 -0.89457,2.34495 0,3.23952c0.89457,0.89457 2.34496,0.89457 3.23953,0l9.05063,-9.05062v0l9.05063,9.05063c0.89457,0.89457 2.34496,0.89457 3.23953,0c0.89457,-0.89457 0.89457,-2.34496 0,-3.23953z" fill="#ffffff" fill-opacity="1"></path></g></g></svg>