<?xml version="1.0" encoding="UTF-8"?>
<svg id="SVGDoc" width="36" height="37" xmlns="http://www.w3.org/2000/svg" version="1.1" xmlns:xlink="http://www.w3.org/1999/xlink" xmlns:avocode="https://avocode.com/" viewBox="0 0 36 37"><defs></defs><desc>Generated with Avocode.</desc><g><g><title>house</title><path d="M27,28.29886c0,0.30467 -0.11133,0.56833 -0.334,0.791c-0.22267,0.22267 -0.48633,0.334 -0.791,0.334h-4.5c-0.30467,0 -0.56833,-0.11133 -0.791,-0.334c-0.22267,-0.22267 -0.334,-0.48633 -0.334,-0.791v-4.5c0,-0.30467 0.11133,-0.56833 0.334,-0.791c0.22267,-0.22267 0.48633,-0.334 0.791,-0.334h4.5c0.30467,0 0.56833,0.11133 0.791,0.334c0.22267,0.22267 0.334,0.48633 0.334,0.791zM15.75,33.92386h-6.75v-10.125c0,-0.30467 0.11133,-0.56833 0.334,-0.791c0.22267,-0.22267 0.48633,-0.334 0.791,-0.334h4.5c0.30467,0 0.56833,0.11133 0.791,0.334c0.22267,0.22267 0.334,0.48633 0.334,0.791zM36,18.08586c0,-0.64467 -0.23433,-1.18967 -0.703,-1.635l-15.574,-15.574c-0.46867,-0.46867 -1.043,-0.69133 -1.723,-0.668c-0.68,-0.02333 -1.25433,0.19933 -1.723,0.668l-15.609,15.574c-0.446,0.446 -0.66867,0.991 -0.668,1.635c0.00067,0.644 0.22933,1.19467 0.686,1.652c0.45667,0.45733 1.00733,0.686 1.652,0.686c0.64467,0 1.18967,-0.23433 1.635,-0.703l0.527,-0.492v14.695h-3.34c-0.30467,0 -0.56833,0.11133 -0.791,0.334c-0.22267,0.22267 -0.334,0.48634 -0.334,0.791c0,0.30467 0.11133,0.56833 0.334,0.791c0.22267,0.22267 0.48633,0.334 0.791,0.334h33.715c0.30467,0 0.56833,-0.11133 0.791,-0.334c0.22267,-0.22267 0.334,-0.48633 0.334,-0.791c0,-0.30467 -0.11133,-0.56833 -0.334,-0.791c-0.22267,-0.22267 -0.48633,-0.334 -0.791,-0.334h-3.375v-14.695l0.527,0.492c0.44533,0.46867 0.99033,0.703 1.635,0.703c0.64467,0 1.19533,-0.22867 1.652,-0.686c0.45733,-0.45667 0.686,-1.00733 0.686,-1.652z" fill="#cf000c" fill-opacity="1"></path></g></g></svg>