<?xml version="1.0" encoding="UTF-8"?>
<svg id="SVGDoc" width="18" height="51" xmlns="http://www.w3.org/2000/svg" version="1.1" xmlns:xlink="http://www.w3.org/1999/xlink" xmlns:avocode="https://avocode.com/" viewBox="0 0 18 51"><defs></defs><desc>Generated with Avocode.</desc><g><g><title>Grupo 10326</title><g><title>__TEMP__SVG__</title><path d="M10.5,12c0,0.82843 -0.67157,1.5 -1.5,1.5c-0.82843,0 -1.5,-0.67157 -1.5,-1.5v-4.5c0,-0.82843 0.67157,-1.5 1.5,-1.5c0.82843,0 1.5,0.67157 1.5,1.5zM9,0c4.97056,0 9,4.02944 9,9v12c0,4.97056 -4.02944,9 -9,9c-4.97056,0 -9,-4.02944 -9,-9v-12c0,-4.97056 4.02944,-9 9,-9zM9,3c-3.31371,0 -6,2.68629 -6,6v12c0,3.31371 2.68629,6 6,6c3.31371,0 6,-2.68629 6,-6v-12c0,-3.31371 -2.68629,-6 -6,-6z" fill="#ffffff" fill-opacity="1"></path></g><g><title>arrow-down-short</title><g><title>Caminho 25459</title><path d="M1.33047,42.078c0.21106,-0.21159 0.49764,-0.33051 0.7965,-0.33051c0.29886,0 0.58544,0.11892 0.7965,0.33051l5.953,5.956v0l5.954,-5.956c0.4399,-0.4399 1.15311,-0.4399 1.593,0c0.43989,0.4399 0.43989,1.15311 0,1.593l-6.75,6.75c-0.21106,0.21159 -0.49764,0.33051 -0.7965,0.33051c-0.29886,0 -0.58544,-0.11892 -0.7965,-0.33051l-6.75,-6.75c-0.21159,-0.21106 -0.33051,-0.49764 -0.33051,-0.7965c0,-0.29886 0.11892,-0.58544 0.33051,-0.7965z" fill="#ffffff" fill-opacity="1"></path></g><g><title>Caminho 25460</title><path d="M8.87646,35c0.62132,0 1.125,0.50368 1.125,1.125v11.25c0,0.62132 -0.50368,1.125 -1.125,1.125c-0.62132,0 -1.125,-0.50368 -1.125,-1.125v-11.25c0,-0.62132 0.50368,-1.125 1.125,-1.125z" fill="#ffffff" fill-opacity="1"></path></g></g></g></g></svg>