<?xml version="1.0" encoding="UTF-8"?>
<svg id="SVGDoc" width="20" height="20" xmlns="http://www.w3.org/2000/svg" version="1.1" xmlns:xlink="http://www.w3.org/1999/xlink" xmlns:avocode="https://avocode.com/" viewBox="0 0 20 20"><defs></defs><desc>Generated with Avocode.</desc><g><g><title>Icon simple-instagram</title><path d="M15.2275,3.90547c-0.62356,0 -1.13089,0.50654 -1.13089,1.1301c0,0.62356 0.50654,1.13089 1.13089,1.13089c0.62357,0 1.1309,-0.50655 1.1309,-1.13089c0,-0.62356 -0.50812,-1.13089 -1.1309,-1.1301zM10.19659,13.20702c-1.73561,0 -3.14138,-1.40576 -3.14138,-3.14136c0,-1.7356 1.40577,-3.14136 3.14138,-3.14136c1.73561,0 3.14137,1.40576 3.14137,3.14136c0,1.7356 -1.40577,3.14136 -3.14137,3.14136zM10.19659,5.22641c-2.6741,0 -4.83929,2.16753 -4.83929,4.83926c0,2.67408 2.16755,4.83926 4.83929,4.83926c2.6741,0 4.83929,-2.16754 4.83929,-4.83926c0,-2.67408 -2.16755,-4.83926 -4.83929,-4.83926zM10.19659,2.33793c2.51546,0 2.81546,0.01257 3.80892,0.05576c0.91885,0.04319 1.41755,0.19555 1.74896,0.32592c0.44136,0.17042 0.75393,0.37461 1.08535,0.70366c0.32906,0.32984 0.53325,0.64319 0.70367,1.08455c0.12879,0.33141 0.28272,0.8301 0.32435,1.74895c0.04476,0.99424 0.05497,1.29267 0.05497,3.80889c0,2.51623 -0.01178,2.81544 -0.05812,3.80889c-0.0479,0.91885 -0.20105,1.41754 -0.33063,1.74895c-0.17592,0.44136 -0.37618,0.75393 -0.70602,1.08534c-0.32906,0.32906 -0.64712,0.53325 -1.08377,0.70366c-0.32984,0.1288 -0.83639,0.28272 -1.75524,0.32434c-1.00053,0.04476 -1.29503,0.05497 -3.81599,0.05497c-2.52174,0 -2.81624,-0.01178 -3.81599,-0.05811c-0.91964,-0.04791 -1.42618,-0.20105 -1.75603,-0.33063c-0.44686,-0.17592 -0.75393,-0.37618 -1.08299,-0.70602c-0.33063,-0.32906 -0.54189,-0.64712 -0.70681,-1.08377c-0.12958,-0.32984 -0.28194,-0.83639 -0.32984,-1.75523c-0.03534,-0.98953 -0.04791,-1.29502 -0.04791,-3.80418c0,-2.50994 0.01257,-2.81622 0.04791,-3.81753c0.04791,-0.91885 0.20026,-1.4246 0.32984,-1.75445c0.16492,-0.44764 0.37618,-0.75393 0.70681,-1.08455c0.32906,-0.32906 0.63613,-0.5411 1.08299,-0.70523c0.32984,-0.13037 0.8254,-0.28351 1.74425,-0.33063c1.00131,-0.03534 1.29582,-0.04712 3.81599,-0.04712l0.03534,0.02356zM10.19659,0.6416c-2.56022,0 -2.87986,0.01178 -3.8851,0.05654c-1.00367,0.04712 -1.68692,0.20497 -2.28771,0.43822c-0.61964,0.24031 -1.14582,0.56309 -1.66964,1.08691c-0.52382,0.52382 -0.84739,1.04921 -1.08692,1.66963c-0.23325,0.60078 -0.39189,1.28403 -0.43822,2.28769c-0.04712,1.00523 -0.05654,1.32487 -0.05654,3.88507c0,2.56021 0.01178,2.87984 0.05654,3.88507c0.04712,1.00288 0.20497,1.68691 0.43822,2.28769c0.24032,0.61885 0.56309,1.14581 1.08692,1.66963c0.52382,0.52304 1.04922,0.84738 1.66964,1.08691c0.60157,0.23246 1.28482,0.39189 2.28771,0.43822c1.00524,0.04712 1.32487,0.05654 3.8851,0.05654c2.56022,0 2.87986,-0.01178 3.88509,-0.05655c1.00289,-0.04712 1.68692,-0.20576 2.28771,-0.43822c0.61885,-0.24031 1.14582,-0.56387 1.66964,-1.08691c0.52304,-0.52382 0.84739,-1.04843 1.08692,-1.66963c0.23246,-0.60079 0.39189,-1.28482 0.43822,-2.28769c0.04712,-1.00523 0.05654,-1.32487 0.05654,-3.88507c0,-2.5602 -0.01178,-2.87984 -0.05654,-3.88507c-0.04712,-1.00288 -0.20576,-1.68769 -0.43822,-2.28769c-0.24031,-0.61963 -0.56388,-1.14581 -1.08692,-1.66963c-0.52382,-0.52382 -1.04844,-0.84738 -1.66964,-1.08691c-0.60079,-0.23325 -1.28482,-0.39188 -2.28771,-0.43822c-1.00524,-0.04712 -1.32488,-0.05654 -3.8851,-0.05654z" fill="#ffffff" fill-opacity="1"></path></g></g></svg>