<?xml version="1.0" encoding="UTF-8"?>
<svg id="SVGDoc" width="30" height="30" xmlns="http://www.w3.org/2000/svg" version="1.1" xmlns:xlink="http://www.w3.org/1999/xlink" xmlns:avocode="https://avocode.com/" viewBox="0 0 30 30"><defs></defs><desc>Generated with Avocode.</desc><g><g><title>bxs-bank</title><path d="M18,9.91492c-0.00055,1.65741 -1.34459,3.00055 -3.002,3c-1.65741,-0.00055 -3.00055,-1.34459 -3,-3.002c0.00055,-1.65741 1.34459,-3.00055 3.002,-3c1.65741,0.00055 3.00055,1.34459 3,3.002zM24,24.91492h-3v-8.998h3zM13.5,24.91492v-8.998h3v8.998zM6,24.91492v-8.998h3v8.998zM0,9.91492v6.002h1.5v8.998h-1.5v4.5h24l4.5,0.002v-0.002h1.5v-4.5h-1.5v-8.998h1.5v-6.002l-15,-9z" fill="#cf000c" fill-opacity="1"></path></g></g></svg>