<?xml version="1.0" encoding="UTF-8"?>
<svg id="SVGDoc" width="100" height="28" xmlns="http://www.w3.org/2000/svg" version="1.1" xmlns:xlink="http://www.w3.org/1999/xlink" xmlns:avocode="https://avocode.com/" viewBox="0 0 100 28"><defs></defs><desc>Generated with Avocode.</desc><g><g><title>Grupo 10333</title><g><title>Grupo 6066</title><g><title>Caminho 6313</title><path d="M-0.00008,1.53188v0h3.12228v0v12.28905c0,1.18193 0.7361,1.1595 1.38295,1.1595h5.59806v0v2.87722v0h-6.71334c-1.76194,0 -3.38995,-0.6691 -3.38995,-3.16686z" fill="#13172d" fill-opacity="1"></path></g><g><title>Caminho 6314</title><path d="M15.14245,15.0697v-10.77229h3.56845c1.73971,0 2.78787,1.07059 2.78787,5.44189c0,3.27864 -0.75833,5.33041 -2.78787,5.33041zM12.02016,17.85766h6.93619c3.96985,0 5.66489,-3.30087 5.66489,-8.09601c0,-4.03681 -0.98136,-8.22977 -5.66489,-8.22977h-6.93619z" fill="#13172d" fill-opacity="1"></path></g><g><title>Caminho 6315</title><path d="M26.78345,1.53188v0h3.16714v0l6.46793,10.54928v0v-10.54928v0h3.12216v0v16.32578v0h-3.12216v0l-6.49036,-10.43778v0v10.43778v0h-3.14471v0z" fill="#13172d" fill-opacity="1"></path></g><g><title>Caminho 6316</title><path d="M46.65452,11.47901l1.96255,-5.84341l1.82904,5.84341zM41.3017,17.85766h3.34546l1.18216,-3.61314h5.35254l1.15979,3.61314h3.32324l-5.30817,-16.32578h-3.54623z" fill="#13172d" fill-opacity="1"></path></g><g><title>Caminho 6317</title><path d="M62.66642,5.61334c0,-3.23396 1.91785,-4.17073 4.41583,-4.2153c2.34198,-0.04459 5.01813,0.26758 6.31183,0.64676v2.45335c-1.42737,-0.13385 -4.66144,-0.22308 -5.46423,-0.22308c-1.36041,-0.02223 -2.14111,0.067 -2.14111,1.5836v0.80284c0,1.29359 0.4906,1.56128 1.73962,1.56128h2.5871c3.21167,0 3.85852,2.5202 3.85852,4.32681v1.09273c0,3.70241 -2.2973,4.39365 -4.50531,4.39365c-2.78772,0 -4.61676,-0.17833 -6.31171,-0.66899v-2.4532c0.89221,0.08908 3.61304,0.24527 5.68719,0.24527c0.93683,0 2.00732,-0.15619 2.00732,-1.4052v-0.86986c0,-0.93658 -0.26752,-1.53885 -1.47192,-1.53885h-2.49811c-3.94769,0 -4.21503,-2.89938 -4.21503,-4.3268z" fill="#cf000c" fill-opacity="1"></path></g><g><title>Caminho 6318</title><path d="M81.31077,0.68429v0h3.23389v0l-6.26703,18.77913v0h-3.23395v0z" fill="#cf000c" fill-opacity="1"></path></g><g><title>Caminho 6319</title><path d="M90.98941,11.47901l1.96277,-5.84341l1.82874,5.84341zM85.63688,17.85766h3.34521l1.18213,-3.61314h5.35278l1.15979,3.61314h3.32312l-5.30835,-16.32578h-3.54614z" fill="#cf000c" fill-opacity="1"></path></g></g><g><title>Grupo 6068</title><g><title>Grupo 6067</title><g><title>Caminho 6320</title><path d="M3.96926,25.43342l0.70644,-2.10318l0.65829,2.10318zM2.04258,27.72938h1.20419l0.42545,-1.30038h1.92668l0.4174,1.30038h1.19604l-1.91051,-5.87619h-1.27637z" fill="#918d8c" fill-opacity="1"></path></g><g><title>Caminho 6321</title><path d="M11.70869,21.78895c0.89113,0 1.40495,0.04819 2.25574,0.25708v0.87488c-0.04803,0 -1.07556,-0.1366 -1.99074,-0.1366c-0.8911,0 -1.05968,0.53787 -1.05968,1.991c0,1.52518 0.17661,1.9346 1.00348,1.94263c0.55386,0.0079 1.01137,-0.36932 1.01137,-0.36932v0v-1.05148v0h-0.81874v0v-0.71454c0.34525,-0.14441 0.81874,-0.19272 1.39679,-0.19272c0.16861,0 0.35327,0 0.5459,0.01608v3.32343v0h-0.80275v0l-0.30501,-0.39337c-0.25687,0.24097 -0.57004,0.40948 -1.24442,0.43347c-1.66168,0.06427 -1.91049,-1.3324 -1.91049,-3.01031c0,-1.70984 0.32111,-2.97021 1.91855,-2.97021z" fill="#918d8c" fill-opacity="1"></path></g><g><title>Caminho 6322</title><path d="M18.05936,21.33149h0.75462l0.50568,-0.48163l0.4736,0.48163h0.74655l-0.77855,-1.0838h-0.83488zM17.21652,26.57336c0,1.08377 0.83471,1.20419 1.35658,1.17999c0,0 2.04708,-0.07214 2.50458,-0.13638v-0.92319h-2.23964c-0.23276,0 -0.49773,0.00806 -0.49773,-0.41751v-0.91513l2.37613,-0.07208v-0.93127l-2.37613,-0.08038v-0.9151c0,-0.2165 0,-0.44965 0.41745,-0.44965h2.31992v-0.93115c-0.51373,-0.07215 -2.58479,-0.12833 -2.58479,-0.12833c-0.55403,-0.00802 -1.27637,0.2006 -1.27637,1.22025z" fill="#918d8c" fill-opacity="1"></path></g><g><title>Caminho 6323</title><path d="M24.16116,21.85319v0h1.13986v0l2.32803,3.79718v0v-3.79718v0h1.12378v0v5.87619v0h-1.12378v0l-2.33609,-3.75687v0v3.75687v0h-1.13181v0z" fill="#918d8c" fill-opacity="1"></path></g><g><title>Caminho 6324</title><path d="M33.81921,21.78895c0.81882,0 1.41296,0.0802 2.047,0.26486v0.88315c-0.00797,0 -0.99533,-0.11237 -1.78201,-0.11237c-0.82681,0 -1.13992,0.18448 -1.13992,1.96689c0,1.31628 0.21674,1.95053 1.13992,1.95053c0.84286,0 1.78201,-0.06409 1.78201,-0.06409v0v0.87485c-0.52975,0.16858 -1.20404,0.24091 -2.047,0.22479c-1.48508,-0.01593 -1.99881,-1.13995 -1.99881,-3.00226c0,-1.87863 0.40131,-2.98636 1.99881,-2.98636z" fill="#918d8c" fill-opacity="1"></path></g><g><title>Caminho 6325</title><path d="M38.9256,21.85319v0h1.1239v0v5.87619v0h-1.1239v0z" fill="#918d8c" fill-opacity="1"></path></g><g><title>Caminho 6326</title><path d="M44.97073,25.43342l0.70642,-2.10318l0.65833,2.10318zM43.04421,27.72938h1.20404l0.42548,-1.30038h1.9267l0.41736,1.30038h1.19617l-1.91058,-5.87619h-1.27637z" fill="#918d8c" fill-opacity="1"></path></g><g><title>Caminho 6327</title><path d="M56.68442,26.7258v-3.87701h1.28442c0.62634,0 1.00366,0.3852 1.00366,1.95853c0,1.18015 -0.27313,1.91849 -1.00366,1.91849zM55.56064,27.72938h2.4967c1.42871,0 2.039,-1.18808 2.039,-2.91397c0,-1.45313 -0.35327,-2.96222 -2.039,-2.96222h-2.4967z" fill="#918d8c" fill-opacity="1"></path></g><g><title>Caminho 6328</title><path d="M63.24393,21.85319v0h1.12396v0v5.87619v0h-1.12396v0z" fill="#918d8c" fill-opacity="1"></path></g><g><title>Caminho 6329</title><path d="M69.34531,21.78895c0.89124,0 1.40497,0.04819 2.25586,0.25708v0.87488c-0.04803,0 -1.07562,-0.1366 -1.99078,-0.1366c-0.89093,0 -1.05945,0.53787 -1.05945,1.991c0,1.52518 0.17633,1.9346 1.00336,1.94263c0.55377,0.0079 1.01129,-0.36932 1.01129,-0.36932v0v-1.05148v0h-0.81879v0v-0.71454c0.34521,-0.14441 0.81879,-0.19272 1.39679,-0.19272c0.16852,0 0.35339,0 0.54584,0.01608v3.32343v0h-0.80267v0l-0.30499,-0.39337c-0.2569,0.24097 -0.56982,0.40948 -1.24432,0.43347c-1.66168,0.06427 -1.91058,-1.3324 -1.91058,-3.01031c0,-1.70984 0.32141,-2.97021 1.91846,-2.97021z" fill="#918d8c" fill-opacity="1"></path></g><g><title>Caminho 6330</title><path d="M74.87711,21.85319v0h1.1239v0v5.87619v0h-1.1239v0z" fill="#918d8c" fill-opacity="1"></path></g><g><title>Caminho 6331</title><path d="M78.97202,21.85319v0h4.34308v0v1.03558v0h-1.6297v0v4.84061v0h-1.1239v0v-4.84061v0h-1.58948v0z" fill="#918d8c" fill-opacity="1"></path></g><g><title>Caminho 6332</title><path d="M87.12851,25.43342l0.70654,-2.10318l0.65839,2.10318zM85.20194,27.72938h1.20422l0.42566,-1.30038h1.92639l0.41754,1.30038h1.19604l-1.91064,-5.87619h-1.27643z" fill="#918d8c" fill-opacity="1"></path></g><g><title>Caminho 6333</title><path d="M93.34293,21.85319v0h1.1239v0v4.42316c0,0.42554 0.26501,0.41748 0.4978,0.41748h2.01489v0v1.03555v0h-2.41638c-0.63391,0 -1.22021,-0.24084 -1.22021,-1.13992z" fill="#918d8c" fill-opacity="1"></path></g></g></g></g></g></svg>