<?xml version="1.0" encoding="UTF-8"?>
<svg id="SVGDoc" width="140" height="54" xmlns="http://www.w3.org/2000/svg" version="1.1" xmlns:xlink="http://www.w3.org/1999/xlink" xmlns:avocode="https://avocode.com/" viewBox="0 0 140 54"><defs></defs><desc>Generated with Avocode.</desc><g><g><title>Grupo 10320</title><g><title>Caminho 25443</title><path d="M43.57631,15.24387v0v25.48154v0h-43.57633v0v-29.94112c0.30539,0.39655 0.62232,0.7852 0.95111,1.16533c5.71091,6.65747 13.41794,9.98605 23.11197,9.98605c4.47781,0 8.54267,-0.73749 12.19973,-2.2146c2.72601,-1.09909 5.16455,-2.59322 7.31352,-4.47721" fill="#8c8b8b" fill-opacity="1"></path></g><g><title>Caminho 25444</title><path d="M12.32066,0.94294v0h31.25535v0v0.32119c-0.80434,2.30788 -2.16294,4.24809 -4.07063,5.8121c-2.86459,2.35073 -6.60611,3.52063 -11.2228,3.52063c-5.90143,0 -10.44761,-1.99429 -13.67592,-5.98987c-0.88335,-1.09636 -1.64667,-2.3173 -2.28601,-3.66405" fill="#cf000c" fill-opacity="1"></path></g><g><title>Caminho 25445</title><path d="M135.35172,53.61804v-6.78116h4.50999v1.04529h-3.3544v1.68405h3.09671v1.03592h-3.09671v1.95935h3.49268v1.05655zM128.92667,53.61804v-6.78116h2.27478c0.96022,0 1.7047,0.2993 2.24529,0.90126c0.53665,0.6017 0.80678,1.43944 0.80678,2.50783c0,1.08389 -0.27287,1.91776 -0.81801,2.49875c-0.54665,0.58252 -1.3273,0.87332 -2.34224,0.87332zM130.08322,52.55295h1.01004c0.6424,0 1.12918,-0.19446 1.45555,-0.57977c0.32878,-0.38593 0.49316,-0.95566 0.49316,-1.70834c0,-0.78949 -0.16194,-1.38107 -0.49072,-1.77402c-0.32516,-0.39319 -0.81802,-0.59131 -1.4756,-0.59131h-0.99243zM126.21588,51.50308l-0.92529,-3.14716c-0.0237,-0.08237 -0.0474,-0.17502 -0.06471,-0.28015c-0.01765,-0.10455 -0.03495,-0.21912 -0.05228,-0.34369c-0.00881,0.12184 -0.02126,0.23154 -0.03495,0.33002c-0.01853,0.09845 -0.03616,0.1893 -0.0559,0.27133l-0.91646,3.16965zM128.06735,53.61804h-1.20908l-0.32637,-1.06509h-2.67952l-0.30752,1.06509h-1.17413l2.1216,-6.78116h1.38593zM116.75098,53.61804v-6.78116h2.27384c0.96024,0 1.70592,0.2993 2.24529,0.90126c0.53663,0.6017 0.80678,1.43944 0.80678,2.50783c0,1.08389 -0.27289,1.91776 -0.81559,2.49875c-0.5491,0.58252 -1.33004,0.87332 -2.34222,0.87332zM117.91054,52.55295h1.00854c0.63994,0 1.12675,-0.19446 1.4531,-0.57977c0.32879,-0.38593 0.49561,-0.95566 0.49561,-1.70834c0,-0.78949 -0.16439,-1.38107 -0.48922,-1.77402c-0.32909,-0.39319 -0.81955,-0.59131 -1.47955,-0.59131h-0.98848zM114.12614,46.83688h1.18297v6.78116h-1.18297zM109.31622,53.61804v-6.78116h1.18052v5.71606h2.70565v1.06509zM106.64884,46.83688h1.18053v6.78116h-1.18053zM100.27733,46.83688h2.61235c0.72717,0 1.28264,0.14557 1.66733,0.44183c0.38743,0.29535 0.5804,0.72165 0.5804,1.27625c0,0.3215 -0.0784,0.59467 -0.23154,0.82379c-0.15588,0.22729 -0.37862,0.39471 -0.66638,0.50198c0.38104,0.09933 0.68734,0.29871 0.91281,0.60257c0.22547,0.30084 0.33974,0.65634 0.33974,1.06079c0,0.66397 -0.20148,1.17538 -0.6038,1.53363c-0.40202,0.36221 -0.97116,0.54031 -1.71078,0.54031h-2.90012zM101.42776,47.86395v1.65549h1.51814c0.29626,0 0.5339,-0.07901 0.71592,-0.23792c0.18414,-0.1568 0.275,-0.36102 0.275,-0.61169c0,-0.2717 -0.08691,-0.47406 -0.26134,-0.60773c-0.16955,-0.13342 -0.43332,-0.19815 -0.7858,-0.19815zM101.42776,50.51126v2.05902h1.7111c0.34093,0 0.61016,-0.08966 0.81041,-0.27774c0.19933,-0.18597 0.30143,-0.43149 0.30143,-0.73901c0,-0.32181 -0.09966,-0.57523 -0.29626,-0.76212c-0.1969,-0.18625 -0.46583,-0.28015 -0.80677,-0.28015zM96.64397,48.35592c-0.02372,-0.08237 -0.0462,-0.17502 -0.06474,-0.28015c-0.02005,-0.10455 -0.03495,-0.21912 -0.05227,-0.34369c-0.0088,0.12184 -0.02005,0.23154 -0.03889,0.33002c-0.01337,0.09845 -0.03221,0.1893 -0.05469,0.27133l-0.91283,3.16965h2.0484zM98.21162,53.61804l-0.32878,-1.06509h-2.67708l-0.30996,1.06509h-1.17444l2.12799,-6.78116h1.38473l2.18664,6.78116zM89.15784,47.94205v-1.10516h4.83001v1.10516h-1.82169v5.67599h-1.18296v-5.67599zM82.96561,53.61804v-6.78116h1.10942l2.61115,4.42401c0.07111,0.11911 0.13187,0.24677 0.19173,0.39474c0.0547,0.14404 0.10452,0.30264 0.14586,0.46823c-0.03494,-0.18625 -0.06351,-0.35611 -0.08477,-0.51501c-0.02007,-0.15378 -0.03009,-0.27258 -0.03009,-0.35342v-4.41855h1.13313v6.78116h-1.08178l-2.63606,-4.43774c-0.07111,-0.12152 -0.13461,-0.25339 -0.19449,-0.39746c-0.05469,-0.14554 -0.10451,-0.30112 -0.14555,-0.46365c0.03222,0.18289 0.05835,0.35489 0.08205,0.51047c0.02004,0.16016 0.02613,0.27896 0.02613,0.3613v4.42709zM81.05427,52.81794c-0.55427,0.64752 -1.2875,0.97147 -2.20033,0.97147c-0.91888,0 -1.65608,-0.32394 -2.21034,-0.97147c-0.55516,-0.64877 -0.83654,-1.50961 -0.83654,-2.58228c0,-1.07599 0.28138,-1.93594 0.83654,-2.58565c0.55426,-0.64571 1.29146,-0.97144 2.21034,-0.97144c0.91283,0 1.64606,0.32695 2.20033,0.97571c0.55515,0.64757 0.83411,1.5099 0.83411,2.58138c0,1.07266 -0.27895,1.9335 -0.83411,2.58228zM80.18004,52.03607c0.32241,-0.43729 0.48679,-1.03741 0.48679,-1.80042c0,-0.76331 -0.16074,-1.36346 -0.48436,-1.80194c-0.3224,-0.43452 -0.76818,-0.65607 -1.32852,-0.65607c-0.56397,0 -1.00975,0.22154 -1.33611,0.65607c-0.32514,0.43848 -0.48923,1.03864 -0.48923,1.80194c0,0.763 0.16409,1.36313 0.48923,1.80042c0.32635,0.43576 0.77213,0.65573 1.33611,0.65573c0.5579,0 0.99974,-0.21997 1.32609,-0.65573zM75.08476,51.76471c-0.2279,0.66306 -0.57157,1.16476 -1.02616,1.50659c-0.45185,0.34036 -1.00489,0.50928 -1.66096,0.50928c-0.91463,0 -1.63996,-0.31998 -2.17113,-0.95807c-0.53086,-0.63968 -0.79796,-1.513 -0.79796,-2.62512c0,-1.05627 0.27258,-1.90741 0.81863,-2.55495c0.54605,-0.64815 1.26775,-0.97118 2.16172,-0.97118c0.69617,0 1.27382,0.17624 1.72567,0.53391c0.4546,0.35703 0.76331,0.87485 0.92407,1.55429l-1.10943,0.30386c-0.1021,-0.41113 -0.29263,-0.73111 -0.56915,-0.96902c-0.275,-0.23581 -0.59528,-0.35342 -0.96236,-0.35342c-0.5181,0 -0.94352,0.22794 -1.272,0.681c-0.33183,0.45459 -0.49622,1.04166 -0.49622,1.75635c0,0.76151 0.16439,1.36923 0.49622,1.8223c0.32848,0.45642 0.76879,0.6843 1.31302,0.6843c0.36343,0 0.68371,-0.12332 0.96235,-0.36734c0.27895,-0.24341 0.48438,-0.58221 0.61017,-1.01797zM65.98298,53.66479h-0.6369c-0.21089,0 -0.41387,-0.04434 -0.6132,-0.13217c-0.19995,-0.08749 -0.36981,-0.21088 -0.51993,-0.36401c-0.24036,0.19537 -0.49865,0.34366 -0.76575,0.44305c-0.26952,0.10147 -0.55151,0.1528 -0.84476,0.1528c-0.61381,0 -1.11823,-0.19171 -1.51174,-0.57339c-0.39594,-0.3786 -0.59589,-0.85294 -0.59589,-1.41663c0,-0.42938 0.12975,-0.80798 0.37862,-1.13983c0.25282,-0.33182 0.62263,-0.6059 1.11247,-0.82013c-0.12307,-0.21149 -0.21727,-0.41263 -0.27866,-0.6062c-0.06502,-0.19357 -0.0942,-0.37558 -0.0942,-0.55032c0,-0.41354 0.14951,-0.7691 0.44639,-1.05777c0.30204,-0.2908 0.66608,-0.43604 1.09454,-0.43604c0.44577,0 0.81315,0.13521 1.10942,0.40991c0.29355,0.27377 0.44032,0.61563 0.44032,1.02829c0,0.35947 -0.11457,0.67612 -0.34368,0.9563c-0.23154,0.28198 -0.56033,0.50378 -0.98302,0.66818c0.12885,0.23154 0.27015,0.46371 0.41965,0.68796c0.14981,0.2261 0.31115,0.4476 0.48407,0.66608c0.09997,-0.10815 0.18201,-0.25525 0.25221,-0.43393c0.06503,-0.17929 0.11152,-0.38589 0.1413,-0.61957h1.06232c-0.05287,0.38165 -0.14707,0.72806 -0.27591,1.0304c-0.12946,0.30511 -0.29932,0.58224 -0.51051,0.83081c0.09087,0.11365 0.21119,0.19901 0.35492,0.24765c0.14403,0.04858 0.34612,0.07474 0.59892,0.07474h0.07901zM62.40888,50.58176c-0.26711,0.14371 -0.47009,0.31116 -0.60775,0.49927c-0.13825,0.19174 -0.20875,0.39468 -0.20875,0.61322c0,0.29749 0.10606,0.55484 0.32027,0.76996c0.2109,0.22061 0.46371,0.33002 0.7539,0.33002c0.15558,0 0.31451,-0.03583 0.47556,-0.10696c0.16135,-0.07019 0.32028,-0.17441 0.47829,-0.31055c-0.22608,-0.27893 -0.44032,-0.56973 -0.63934,-0.86603c-0.20298,-0.29657 -0.39048,-0.60776 -0.57219,-0.92892zM63.59093,49.11865c0.14707,-0.14648 0.22061,-0.31512 0.22061,-0.50446c0,-0.16864 -0.05621,-0.31235 -0.16743,-0.42572c-0.10847,-0.1127 -0.24674,-0.17197 -0.41083,-0.17197c-0.17625,0 -0.31725,0.06168 -0.42543,0.18381c-0.10574,0.12189 -0.16196,0.2814 -0.16196,0.48013c0,0.11575 0.02674,0.24005 0.0705,0.36646c0.0474,0.1246 0.12337,0.26834 0.22577,0.42844c0.28534,-0.09384 0.49957,-0.21115 0.64877,-0.35669zM55.44693,51.50308l-0.9271,-3.14716c-0.0237,-0.08237 -0.04406,-0.17502 -0.06442,-0.28015c-0.01762,-0.10455 -0.03252,-0.21912 -0.04983,-0.34369c-0.00882,0.12184 -0.0237,0.23154 -0.03799,0.33002c-0.01519,0.09845 -0.03586,0.1893 -0.05622,0.27133l-0.91586,3.16965zM57.29932,53.61804h-1.21214l-0.32575,-1.06509h-2.67982l-0.30812,1.06509h-1.17415l2.12495,-6.78116h1.38534zM49.61568,46.83688h1.18297v6.78116h-1.18297zM43.47663,53.61804v-6.78116h2.4115c0.81316,0 1.42393,0.16864 1.8375,0.50806c0.41082,0.33852 0.61958,0.84232 0.61958,1.50842c0,0.48129 -0.11152,0.88791 -0.33517,1.21457c-0.22274,0.3306 -0.56033,0.58279 -1.00338,0.75296l1.60564,2.79715h-1.3118l-1.46465,-2.63974h-1.19785v2.63974zM44.63801,49.96976h1.22976c0.41721,0 0.73414,-0.09116 0.94807,-0.27591c0.2197,-0.18323 0.32879,-0.44577 0.32879,-0.7937c0,-0.34064 -0.09967,-0.59406 -0.30509,-0.76151c-0.19965,-0.16437 -0.50807,-0.24979 -0.92133,-0.24979h-1.2802zM41.56863,52.81794c-0.5579,0.64752 -1.29113,0.97147 -2.20395,0.97147c-0.91556,0 -1.65245,-0.32394 -2.207,-0.97147c-0.5579,-0.64877 -0.83686,-1.50961 -0.83686,-2.58228c0,-1.07599 0.27895,-1.93594 0.83686,-2.58565c0.55456,-0.64571 1.29144,-0.97144 2.207,-0.97144c0.91282,0 1.64605,0.32695 2.20395,0.97571c0.55516,0.64757 0.83078,1.5099 0.83078,2.58138c0,1.07266 -0.27562,1.9335 -0.83078,2.58228zM39.36468,52.6918c0.56033,0 1.00063,-0.21997 1.32638,-0.65573c0.32544,-0.43729 0.4874,-1.03741 0.4874,-1.80042c0,-0.76331 -0.15892,-1.36346 -0.48103,-1.80194c-0.32665,-0.43452 -0.7694,-0.65607 -1.33276,-0.65607c-0.56398,0 -1.00976,0.22154 -1.33521,0.65607c-0.32331,0.43848 -0.49014,1.03864 -0.49014,1.80194c0,0.763 0.16682,1.36313 0.49014,1.80042c0.32544,0.43576 0.77122,0.65573 1.33521,0.65573zM30.13526,52.46335l0.97968,-0.7691c0.24948,0.34485 0.52265,0.59708 0.81285,0.7572c0.29324,0.1629 0.62536,0.24191 0.99213,0.24191c0.41934,0 0.75694,-0.09085 1.01523,-0.27319c0.25525,-0.18475 0.38743,-0.42084 0.38743,-0.70529c0,-0.4552 -0.51931,-0.78946 -1.55854,-1.00366c-0.18172,-0.03983 -0.32879,-0.06931 -0.4315,-0.08966c-0.67793,-0.14825 -1.17111,-0.36978 -1.47619,-0.66818c-0.30509,-0.29874 -0.46037,-0.69525 -0.46037,-1.19391c0,-0.62201 0.22274,-1.12704 0.66578,-1.51175c0.44639,-0.38409 1.03316,-0.57645 1.76396,-0.57645c0.57218,0 1.07387,0.09937 1.50294,0.29932c0.43149,0.20117 0.79826,0.50504 1.1,0.91159l-0.89459,0.69345c-0.19114,-0.28137 -0.4315,-0.49106 -0.71896,-0.63693c-0.28746,-0.14493 -0.61077,-0.21846 -0.97207,-0.21846c-0.38409,0 -0.68917,0.07777 -0.91526,0.23338c-0.22577,0.15588 -0.34003,0.3613 -0.34003,0.62201c0,0.46249 0.52782,0.79401 1.58407,0.9982c0.10574,0.02341 0.18475,0.03769 0.24097,0.04834c0.75146,0.14218 1.29691,0.37009 1.63724,0.68369c0.33517,0.31265 0.50199,0.74265 0.50199,1.29446c0,0.65121 -0.23793,1.18265 -0.71926,1.59076c-0.47798,0.40628 -1.11185,0.60742 -1.90435,0.60742c-0.62809,0 -1.18539,-0.11304 -1.66399,-0.34671c-0.48406,-0.22849 -0.85995,-0.56033 -1.12918,-0.98843zM24.04755,52.46335l0.97754,-0.7691c0.24917,0.34485 0.52235,0.59708 0.81558,0.7572c0.2908,0.1629 0.62263,0.24191 0.9894,0.24191c0.42268,0 0.76028,-0.09085 1.01583,-0.27319c0.26041,-0.18475 0.39016,-0.42084 0.39016,-0.70529c0,-0.4552 -0.51992,-0.78946 -1.56128,-1.00366c-0.18202,-0.03983 -0.32605,-0.06931 -0.42876,-0.08966c-0.67793,-0.14825 -1.17111,-0.36978 -1.47619,-0.66818c-0.30812,-0.29874 -0.46036,-0.69525 -0.46036,-1.19391c0,-0.62201 0.22274,-1.12704 0.66608,-1.51175c0.44243,-0.38409 1.03255,-0.57645 1.76366,-0.57645c0.57218,0 1.07114,0.09937 1.50233,0.29932c0.42815,0.20117 0.79552,0.50504 1.10061,0.91159l-0.8952,0.69345c-0.19052,-0.28137 -0.43149,-0.49106 -0.71895,-0.63693c-0.28776,-0.14493 -0.61017,-0.21846 -0.97147,-0.21846c-0.3847,0 -0.68948,0.07777 -0.91586,0.23338c-0.2282,0.15588 -0.34033,0.3613 -0.34033,0.62201c0,0.46249 0.52873,0.79401 1.58498,0.9982c0.10605,0.02341 0.18505,0.03769 0.24036,0.04834c0.75147,0.14218 1.29752,0.37009 1.63208,0.68369c0.33729,0.31265 0.50473,0.74265 0.50473,1.29446c0,0.65121 -0.23793,1.18265 -0.71561,1.59076c-0.47859,0.40628 -1.1155,0.60742 -1.90495,0.60742c-0.6281,0 -1.186,-0.11304 -1.66733,-0.34671c-0.48406,-0.22849 -0.85965,-0.56033 -1.12705,-0.98843zM18.73015,53.61804v-6.78116h4.51063v1.04529h-3.35137v1.68405h3.09612v1.03592h-3.09612v1.95935h3.48659v1.05655zM12.17691,52.46335l0.97967,-0.7691c0.24978,0.34485 0.52265,0.59708 0.81346,0.7572c0.29323,0.1629 0.62506,0.24191 0.99152,0.24191c0.41964,0 0.76028,-0.09085 1.01553,-0.27319c0.25829,-0.18475 0.38743,-0.42084 0.38743,-0.70529c0,-0.4552 -0.51962,-0.78946 -1.55855,-1.00366c-0.18171,-0.03983 -0.32575,-0.06931 -0.42815,-0.08966c-0.67823,-0.14825 -1.17384,-0.36978 -1.47923,-0.66818c-0.30508,-0.29874 -0.45793,-0.69525 -0.45793,-1.19391c0,-0.62201 0.22,-1.12704 0.66304,-1.51175c0.44638,-0.38409 1.03285,-0.57645 1.7673,-0.57645c0.57188,0 1.07144,0.09937 1.50233,0.29932c0.42876,0.20117 0.79523,0.50504 1.09727,0.91159l-0.89459,0.69345c-0.19083,-0.28137 -0.42906,-0.49106 -0.71591,-0.63693c-0.28776,-0.14493 -0.61382,-0.21846 -0.97208,-0.21846c-0.38409,0 -0.68978,0.07777 -0.91799,0.23338c-0.22608,0.15588 -0.3376,0.3613 -0.3376,0.62201c0,0.46249 0.52782,0.79401 1.58134,0.9982c0.10909,0.02341 0.18809,0.03769 0.24401,0.04834c0.74843,0.14218 1.29691,0.37009 1.63208,0.68369c0.33729,0.31265 0.50412,0.74265 0.50412,1.29446c0,0.65121 -0.23732,1.18265 -0.71591,1.59076c-0.48103,0.40628 -1.11489,0.60742 -1.90739,0.60742c-0.62871,0 -1.18266,-0.11304 -1.66702,-0.34671c-0.48102,-0.22849 -0.85691,-0.56033 -1.12675,-0.98843zM6.08981,52.46335l0.97755,-0.7691c0.25191,0.34485 0.52539,0.59708 0.81528,0.7572c0.2908,0.1629 0.62293,0.24191 0.99243,0.24191c0.41965,0 0.75724,-0.09085 1.01553,-0.27319c0.25768,-0.18475 0.38713,-0.42084 0.38713,-0.70529c0,-0.4552 -0.51962,-0.78946 -1.55824,-1.00366c-0.18506,-0.03983 -0.32878,-0.06931 -0.42845,-0.08966c-0.68097,-0.14825 -1.17385,-0.36978 -1.47893,-0.66818c-0.30539,-0.29874 -0.46097,-0.69525 -0.46097,-1.19391c0,-0.62201 0.22274,-1.12704 0.66851,-1.51175c0.44091,-0.38409 1.03042,-0.57645 1.76153,-0.57645c0.57219,0 1.07387,0.09937 1.50233,0.29932c0.42845,0.20117 0.79583,0.50504 1.10092,0.91159l-0.8955,0.69345c-0.19022,-0.28137 -0.43119,-0.49106 -0.71592,-0.63693c-0.2908,-0.14493 -0.61321,-0.21846 -0.97451,-0.21846c-0.38166,0 -0.68978,0.07777 -0.91586,0.23338c-0.22577,0.15588 -0.33973,0.3613 -0.33973,0.62201c0,0.46249 0.52782,0.79401 1.58437,0.9982c0.10818,0.02341 0.18506,0.03769 0.24097,0.04834c0.75086,0.14218 1.29995,0.37009 1.63421,0.68369c0.3376,0.31265 0.50503,0.74265 0.50503,1.29446c0,0.65121 -0.24097,1.18265 -0.71895,1.59076c-0.47798,0.40628 -1.11277,0.60742 -1.90435,0.60742c-0.6284,0 -1.18327,-0.11304 -1.66733,-0.34671c-0.48163,-0.22849 -0.86025,-0.56033 -1.12705,-0.98843zM3.84452,51.50308l-0.9265,-3.14716c-0.02097,-0.08237 -0.04163,-0.17502 -0.06199,-0.28015c-0.01793,-0.10455 -0.03889,-0.21912 -0.05318,-0.34369c-0.00851,0.12184 -0.02036,0.23154 -0.03525,0.33002c-0.01762,0.09845 -0.03798,0.1893 -0.05865,0.27133l-0.91586,3.16965zM5.69691,53.61804h-1.2097l-0.32879,-1.06509h-2.67648l-0.31086,1.06509h-1.17081l2.12161,-6.78116h1.38564z" fill="#ffffff" fill-opacity="1"></path></g><g><title>Caminho 25446</title><path d="M139.94409,40.72328v-22.18669h-16.97169v7.72465h8.63411c-0.19693,2.19516 -1.08576,3.94088 -2.65613,5.22655c-1.56643,1.28567 -3.61209,1.92258 -6.13632,1.92258c-3.22858,0 -5.71668,-1.08755 -7.48093,-3.27419c-1.75455,-2.17601 -2.63852,-5.25602 -2.63852,-9.23427c0,-3.96155 0.90158,-7.04035 2.70323,-9.2282c1.81044,-2.18634 4.36447,-3.283 7.66022,-3.283c2.05355,0 3.80931,0.44031 5.26485,1.32244c1.45554,0.87302 2.71207,2.24408 3.78284,4.09251l7.66907,-4.14842c-1.72964,-3.11496 -4.05697,-5.51006 -6.98538,-7.16979c-2.93747,-1.66247 -6.29825,-2.48747 -10.08719,-2.48747c-6.05428,0 -10.81438,1.91407 -14.29854,5.7337c-3.48023,3.81963 -5.22623,9.06684 -5.22623,15.74102c0,6.20227 1.55793,11.11948 4.6832,14.7498c3.12926,3.64338 7.34056,5.46447 12.64369,5.46447c2.45071,0 4.67196,-0.40475 6.67419,-1.21031c1.99851,-0.80555 3.7157,-2.00037 5.14145,-3.57745l0.35733,3.82207zM75.98025,0.96598l-6.12022,28.78733l-4.74519,-28.78733h-7.97748l8.43509,39.7573h8.00452l5.98682,-27.65998l6.0318,27.65998h7.97658l8.46121,-39.7573h-8.0276l-4.737,28.78733l-6.08012,-28.78733z" fill="#ffffff" fill-opacity="1"></path></g></g></g></svg>