<svg xmlns="http://www.w3.org/2000/svg" width="19" height="19" viewBox="0 0 19 19"><g><g><path fill="#fff" d="M3.762 7.626h2.704v8.136H3.762zm9.342-.191c1.78 0 3.113 1.163 3.113 3.662v4.665h-2.704V11.41c0-1.094-.39-1.84-1.37-1.84-.746 0-1.192.503-1.387.989-.072.173-.09.416-.09.66v4.543H7.963s.036-7.373 0-8.136h2.705v1.152c.359-.554 1.002-1.343 2.437-1.343zM5.132 3.703c.925 0 1.495.608 1.512 1.406 0 .78-.587 1.405-1.53 1.405h-.018c-.907 0-1.494-.624-1.494-1.405 0-.798.605-1.406 1.53-1.406zM4.249.75A3.52 3.52 0 0 0 .74 4.258v10.888c0 1.93 1.58 3.508 3.51 3.508h10.887a3.518 3.518 0 0 0 3.508-3.508V4.258a3.52 3.52 0 0 0-3.508-3.51z"/></g></g></svg>