<svg xmlns="http://www.w3.org/2000/svg" width="70" height="70" viewBox="0 0 70 70"><g><g><path fill="#0066a9" d="M10 70C4.477 70 0 65.523 0 60V10C0 4.477 4.477 0 10 0h50c5.523 0 10 4.477 10 10v50c0 5.523-4.477 10-10 10z"/></g><g><path fill="#fff" d="M51.985 33.62l.015.015V36.5c0 .39-.075.75-.21 1.095L47.26 48.17A2.98 2.98 0 0 1 44.5 50H31c-1.65 0-3-1.35-3-3V32c0-.825.33-1.575.885-2.115L38.755 20l1.59 1.575c.405.405.66.975.66 1.59l-.045.48-1.425 6.855H49c1.65 0 3 1.35 3 3zM19 32h6v18h-6z"/></g></g></svg>