<svg xmlns="http://www.w3.org/2000/svg" width="18" height="19" viewBox="0 0 18 19"><g><g><path fill="#fff" d="M16.006.749c.498 0 .92.173 1.265.518.346.346.518.754.518 1.223v14.181c0 .47-.173.878-.519 1.223a1.723 1.723 0 0 1-1.264.519H1.866c-.497 0-.919-.173-1.265-.519a1.671 1.671 0 0 1-.517-1.223V2.491c0-.47.172-.878.518-1.224A1.723 1.723 0 0 1 1.866.75zm-2.032 6.468c.608-.497.995-.912 1.161-1.244-.359.166-.787.29-1.285.374.498-.36.83-.802.995-1.327-.553.304-1.064.497-1.534.58a1.97 1.97 0 0 0-1.285-.684 2.653 2.653 0 0 0-1.472.208c-.456.207-.822.552-1.099 1.036-.276.484-.345 1.016-.207 1.596-1.852-.11-3.483-.926-4.893-2.446-.304.553-.366 1.154-.186 1.803.18.65.476 1.1.89 1.348a3.06 3.06 0 0 1-.995-.29c.028 1.189.636 1.977 1.825 2.364a2.418 2.418 0 0 1-.995.041c.331.995 1.064 1.548 2.197 1.658-.414.36-.953.63-1.617.809-.663.18-1.285.228-1.866.145 1.244.774 2.515 1.134 3.815 1.079 1.935-.083 3.503-.768 4.706-2.053 1.202-1.285 1.818-2.951 1.845-4.997z"/></g></g></svg>