<svg xmlns="http://www.w3.org/2000/svg" width="19" height="19" viewBox="0 0 19 19"><g><g><path fill="#ffffff" d="M14.092 3.601c-.593 0-1.075.482-1.075 1.075a1.076 1.076 0 0 0 2.15 0c0-.593-.481-1.075-1.075-1.075zm-4.781 8.84a2.985 2.985 0 1 1 0-5.97 2.985 2.985 0 1 1 0 5.97zm0-7.584a4.6 4.6 0 1 0 0 9.199 4.6 4.6 0 0 0 0-9.199zm0-2.745c2.39 0 2.675.012 3.62.053.873.041 1.347.185 1.662.31.42.162.716.356 1.031.668.313.314.507.611.669 1.03.122.316.269.79.308 1.663.043.944.052 1.228.052 3.62 0 2.39-.01 2.675-.055 3.62-.045.873-.191 1.347-.314 1.661-.146.389-.375.741-.671 1.032-.29.296-.642.525-1.03.668-.314.123-.795.27-1.669.308-.95.043-1.23.053-3.626.053s-2.676-.011-3.626-.056c-.874-.045-1.356-.19-1.67-.313a2.774 2.774 0 0 1-1.029-.672 2.72 2.72 0 0 1-.671-1.03c-.123-.313-.268-.794-.314-1.668-.034-.94-.045-1.231-.045-3.615 0-2.386.012-2.677.045-3.628.045-.874.19-1.354.314-1.668a2.65 2.65 0 0 1 .671-1.03 2.652 2.652 0 0 1 1.03-.67c.313-.124.784-.27 1.658-.314.951-.034 1.231-.045 3.626-.045l.034.022zM9.31.5C6.878.5 6.574.51 5.618.554 4.665.598 4.015.749 3.444.97a4.383 4.383 0 0 0-1.586 1.033A4.379 4.379 0 0 0 .825 3.59C.603 4.16.453 4.81.408 5.764.363 6.72.355 7.024.355 9.456c0 2.434.01 2.737.053 3.693.045.953.195 1.603.417 2.174.225.598.577 1.14 1.033 1.587a4.38 4.38 0 0 0 1.586 1.033c.572.22 1.222.372 2.174.416.956.045 1.26.054 3.693.054s2.737-.011 3.692-.054c.953-.045 1.604-.195 2.174-.416a4.402 4.402 0 0 0 1.587-1.033 4.374 4.374 0 0 0 1.033-1.587c.221-.57.372-1.221.417-2.174.044-.955.053-1.259.053-3.693 0-2.433-.01-2.736-.053-3.692-.045-.953-.196-1.604-.417-2.174a4.396 4.396 0 0 0-1.033-1.587A4.364 4.364 0 0 0 15.177.97c-.57-.222-1.22-.372-2.174-.416C12.048.509 11.744.5 9.311.5z"/></g></g></svg>