<svg xmlns="http://www.w3.org/2000/svg" width="18" height="18" viewBox="0 0 18 18"><g><g><g><path fill="#51cee1" d="M17.25 9.925V8.712h-3.637v6.063h1.212V12.35h1.819v-1.213h-1.819V9.925z"/></g><g><path fill="#51cee1" d="M9.369 9.925h1.212c.335 0 .606.271.607.606v2.425a.607.607 0 0 1-.607.606H9.37zm3.031 3.031v-2.425a1.82 1.82 0 0 0-1.819-1.819H8.156v6.063h2.425a1.82 1.82 0 0 0 1.82-1.819z"/></g><g><path fill="#51cee1" d="M3.913 11.744v-1.82h1.819v1.82zm1.819-3.032H2.7v6.063h1.213v-1.819h1.819c.669 0 1.211-.543 1.212-1.212v-1.82c0-.669-.543-1.211-1.212-1.212z"/></g><g><path fill="#51cee1" d="M7.55 5.075V1.68l3.395 3.395zM12.4 7.5V5.075a.552.552 0 0 0-.181-.424L7.975.407A.551.551 0 0 0 7.55.225H1.488A1.216 1.216 0 0 0 .275 1.438v14.55c0 .669.543 1.212 1.213 1.212h9.7v-1.213h-9.7V1.437h4.85v3.638c.002.669.543 1.21 1.212 1.212h3.638V7.5z"/></g></g></g></svg>