<svg xmlns="http://www.w3.org/2000/svg" width="11" height="14" viewBox="0 0 11 14"><g><g><g><path fill="#51cee1" d="M5.248 1.052A4.373 4.373 0 0 0 .875 5.426v3.936H0V5.426a5.248 5.248 0 1 1 10.496 0v3.936h-.875V5.426a4.373 4.373 0 0 0-4.373-4.374z"/></g><g><path fill="#51cee1" d="M2.624 7.175a.875.875 0 0 0-.875-.875H0V9.8c0 .483.392.875.875.875h.874a.875.875 0 0 0 .875-.875zm5.248 2.624c0 .483.392.875.875.875h.874a.875.875 0 0 0 .875-.875V6.3h-1.75a.875.875 0 0 0-.874.875z"/></g><g><path fill="#51cee1" d="M10.059 7.612c.241 0 .437.196.437.438v2.624A2.187 2.187 0 0 1 8.31 12.86H5.25a.437.437 0 0 1-.001-.874h3.061c.725 0 1.312-.588 1.312-1.312V8.05c0-.242.196-.438.438-.438z"/></g><g><path fill="#51cee1" d="M3.936 12.423c0-.483.392-.875.875-.875h.874a.875.875 0 0 1 0 1.75h-.874a.875.875 0 0 1-.875-.875z"/></g></g></g></svg>