<svg xmlns="http://www.w3.org/2000/svg" width="114" height="30" viewBox="0 0 114 30"><g><g><g><path fill="#fff" d="M72.5 9.023c-.886.626-1.664 1.567-2.329 2.813l.631-3.725h-4.405l-2.475 14.754h4.63l.996-5.915c.79-4.7 6.05-4.009 5.837-4.099l.862-4.73c-.188-.024 0 0-.185-.014a6.882 6.882 0 0 0-.555-.02c-1.115 0-2.117.31-3.007.936"/></g><g><path fill="#fff" d="M107.566 8.712c-.812.453-1.556 1.138-2.225 2.064-.145-.916-.52-1.601-1.126-2.059-.605-.458-1.446-.685-2.516-.685-.978 0-1.865.242-2.666.73-.8.487-1.561 1.246-2.283 2.276l.516-2.927h-4.601l-2.48 14.754h4.523l1.004-5.97c.35-2.089.55-2.891 1.008-3.547.46-.66 1.126-.99 1.996-.99.696 0 1.147.236 1.344.71.202.468.193 1.344-.022 2.625l-1.1 7.172h4.5l1.003-5.97c.349-2.069.603-2.866 1.054-3.532.452-.67 1.115-1.005 1.985-1.005.7 0 1.146.242 1.35.72.2.483.197 1.354-.015 2.615l-1.159 7.172h4.614l1.368-8.132.053-.321c.233-1.384.334-2.385.304-3-.034-.615-.17-1.158-.414-1.621a3.048 3.048 0 0 0-1.277-1.32c-.545-.29-1.216-.439-2.01-.439-.999 0-1.911.227-2.728.68"/></g><g><path fill="#fff" d="M12.22 14.5s2.63-5.97 2.756-6.301c.026.471.536 6.302.536 6.302zM19.29.455h-5.939L.29 28.996h5.076l4.126-10.012h7.41l.337 3.885h5.21z"/></g><g><path fill="#fff" d="M36.036 12.882h2.513l-1.555 9.983h4.587l1.54-9.983h5.931l.876-4.762h-5.88l1.318-7.6h-4.593l-1.214 7.6H36.88"/></g><g><path fill="#fff" d="M52.332.52L51.32 6.536l-.291 1.728-.787 4.677-1.673 9.924h4.578l.889-5.29c.084-.508.165-.936.349-1.683 1.019-4.142 5.266-3.804 4.87-.217-.044.399-1.155 7.19-1.155 7.19h4.669l1.368-8.138c.234-1.394.335-2.443.305-3.143-.028-.705-.178-1.3-.443-1.793-.323-.567-.79-1-1.408-1.306-.615-.3-1.352-.453-2.204-.453-1.097 0-2.086.257-2.965.764-.88.512-1.702 1.31-2.47 2.4.114-.36.217-.76.32-1.203.1-.439.194-.922.281-1.444L56.906.52z"/></g><g><path fill="#fff" d="M85.632 15.56c-.18 1.067-.56 1.902-1.149 2.51a2.84 2.84 0 0 1-2.13.914c-.85 0-1.458-.304-1.837-.914-.374-.607-.474-1.443-.295-2.51.18-1.069.561-1.908 1.15-2.522a2.836 2.836 0 0 1 2.135-.918c.827 0 1.437.304 1.819.918.382.614.486 1.453.307 2.522zm4.747-3.016a6.352 6.352 0 0 0-1.19-2.557c-.576-.739-1.267-1.3-2.087-1.675-.815-.374-1.734-.561-2.752-.561a7.99 7.99 0 0 0-2.953.561c-.946.374-1.825.936-2.637 1.675a9.624 9.624 0 0 0-2.028 2.543 9.4 9.4 0 0 0-1.052 3.014c-.178 1.059-.163 2.06.042 3.01a6.093 6.093 0 0 0 1.174 2.518c.57.75 1.264 1.32 2.082 1.705.824.385 1.736.576 2.75.576.99 0 1.963-.191 2.911-.576.948-.385 1.843-.956 2.686-1.705a9.94 9.94 0 0 0 2.039-2.542 9.175 9.175 0 0 0 1.059-2.986c.178-1.059.164-2.059-.044-3z"/></g><g><path fill="#fff" d="M31.984 9.043c-.886.625-1.665 1.566-2.329 2.812l.64-3.744h-4.396l-2.485 14.754h4.626l.991-5.896c.792-4.7 6.052-4.01 5.838-4.1l.861-4.729c-.187-.024 0 0-.184-.014a6.913 6.913 0 0 0-.554-.02c-1.116 0-2.118.31-3.008.937"/></g><g><g><path fill="#fff" d="M36.19 28.576l.483-.58c.335.277.686.452 1.11.452.336 0 .538-.133.538-.35v-.011c0-.207-.128-.314-.75-.473-.749-.192-1.233-.399-1.233-1.138v-.01c0-.675.542-1.122 1.302-1.122.543 0 1.005.17 1.382.473l-.425.617c-.33-.229-.653-.367-.967-.367-.314 0-.478.143-.478.324v.01c0 .245.159.325.802.49.755.196 1.18.468 1.18 1.116v.01c0 .74-.563 1.154-1.366 1.154a2.368 2.368 0 0 1-1.578-.595z"/></g><g><path fill="#fff" d="M41.665 28.427c-.66 0-1.127-.532-1.127-1.17v-.01c0-.638.457-1.159 1.116-1.159s1.127.532 1.127 1.17v.01c0 .638-.457 1.159-1.116 1.159zm-.011.755c1.148 0 1.983-.867 1.983-1.924v-.011c0-1.058-.824-1.913-1.972-1.913-1.149 0-1.983.866-1.983 1.924v.01c0 1.058.824 1.914 1.972 1.914z"/></g><g><path fill="#fff" d="M44.365 25.397h.82v2.977h1.854v.744h-2.674z"/></g><g><path fill="#fff" d="M47.491 27.523v-2.126h.819v2.105c0 .606.303.92.802.92.5 0 .803-.303.803-.893v-2.132h.818v2.1c0 1.127-.632 1.68-1.631 1.68-1 0-1.61-.559-1.61-1.654z"/></g><g><path fill="#fff" d="M52.43 29.756l.425-.627c-.856-.197-1.451-.946-1.451-1.86v-.011c0-1.058.797-1.924 1.94-1.924.702 0 1.121.234 1.467.573l-.52.601c-.288-.26-.58-.42-.952-.42-.627 0-1.08.521-1.08 1.159v.01c0 .638.442 1.17 1.08 1.17.425 0 .685-.17.978-.436l.52.526c-.356.383-.749.628-1.387.66l-.345.86z"/></g><g><path fill="#fff" d="M56.64 25.158c.074-.17.138-.26.303-.26.191 0 .468.207.797.207.372 0 .537-.287.66-.734l-.431-.132c-.075.17-.138.26-.303.26-.191 0-.468-.207-.797-.207-.372 0-.537.287-.66.733zm.67 3.269c-.66 0-1.127-.532-1.127-1.17v-.01c0-.638.457-1.158 1.116-1.158.66 0 1.127.531 1.127 1.169v.01c0 .638-.457 1.159-1.116 1.159zm-.01.755c1.147 0 1.982-.867 1.982-1.924v-.011c0-1.058-.824-1.913-1.972-1.913-1.148 0-1.983.866-1.983 1.924v.01c0 1.058.824 1.914 1.972 1.914z"/></g><g><path fill="#fff" d="M60.01 25.397h2.807v.729h-1.993v.754h1.754v.728h-1.754v.782h2.02v.728H60.01z"/></g><g><path fill="#fff" d="M63.317 28.576l.484-.58c.335.277.686.452 1.11.452.336 0 .538-.133.538-.35v-.011c0-.207-.128-.314-.75-.473-.75-.192-1.233-.399-1.233-1.138v-.01c0-.675.542-1.122 1.302-1.122.542 0 1.005.17 1.382.473l-.425.617c-.33-.229-.654-.367-.967-.367-.314 0-.479.143-.479.324v.01c0 .245.16.325.803.49.755.196 1.18.468 1.18 1.116v.01c0 .74-.564 1.154-1.366 1.154a2.368 2.368 0 0 1-1.579-.595z"/></g><g><path fill="#fff" d="M68.57 25.397h2.806v.729h-1.993v.754h1.754v.728h-1.754v.782h2.02v.728h-2.834z"/></g><g><path fill="#fff" d="M72.131 25.397h.882l.978 1.574.978-1.574h.883v3.72h-.813V26.69l-1.048 1.589h-.02l-1.037-1.573v2.413h-.803z"/></g><g><path fill="#fff" d="M80.158 28.427c-.66 0-1.127-.532-1.127-1.17v-.01c0-.638.457-1.159 1.116-1.159.66 0 1.127.532 1.127 1.17v.01c0 .638-.457 1.159-1.116 1.159zm-1.983-1.159c0 1.058.824 1.914 1.972 1.914 1.148 0 1.983-.867 1.983-1.924v-.011c0-1.058-.824-1.913-1.972-1.913-1.148 0-1.983.866-1.983 1.924v.01z"/></g><g><path fill="#fff" d="M83.677 27.205v-1.069h.814c.398 0 .643.18.643.532v.01c0 .314-.229.527-.627.527zm-.818 1.913h.818v-1.19h.643l.798 1.19h.957l-.91-1.329c.474-.175.798-.553.798-1.153v-.01c0-.352-.112-.644-.319-.851-.245-.245-.611-.378-1.084-.378h-1.701z"/></g><g><path fill="#fff" d="M87.569 26.152h-1.133v-.755h3.083v.755h-1.132v2.966h-.818z"/></g><g><path fill="#fff" d="M91.805 28.427c-.659 0-1.126-.532-1.126-1.17v-.01c0-.638.457-1.159 1.116-1.159s1.126.532 1.126 1.17v.01c0 .638-.457 1.159-1.116 1.159zm-.01.755c1.148 0 1.982-.867 1.982-1.924v-.011c0-1.058-.824-1.913-1.972-1.913-1.148 0-1.982.866-1.982 1.924v.01c0 1.058.824 1.914 1.972 1.914z"/></g><g><path fill="#fff" d="M95.325 27.274v-1.138h.632c.41 0 .664.197.664.564v.01c0 .32-.239.564-.648.564zm-.819 1.844h.819v-1.116h.622c.834 0 1.504-.447 1.504-1.308v-.01c0-.76-.537-1.287-1.425-1.287h-1.52z"/></g><g><path fill="#fff" d="M98.057 25.397h2.807v.729H98.87v.754h1.754v.728H98.87v.782h2.02v.728h-2.833z"/></g><g><path fill="#fff" d="M102.437 28.379v-2.243h.633c.67 0 1.122.463 1.122 1.122v.01c0 .66-.452 1.111-1.122 1.111zm-.818.739h1.451c1.17 0 1.977-.813 1.977-1.86v-.011c0-1.047-.808-1.85-1.977-1.85h-1.451z"/></g><g><path fill="#fff" d="M105.813 25.397h.819v3.72h-.819z"/></g><g><path fill="#fff" d="M108.71 27.56l.495-1.206.494 1.207zm-1.466 1.558h.834l.34-.834h1.573l.34.834h.856l-1.594-3.747h-.755z"/></g></g></g></g></svg>