<svg xmlns="http://www.w3.org/2000/svg" width="30" height="30" viewBox="0 0 30 30"><g><g><path fill="#fff" d="M15.267.475c1.947 0 3.808.381 5.584 1.145 1.775.764 3.306 1.788 4.59 3.074 1.286 1.286 2.31 2.816 3.075 4.59a13.963 13.963 0 0 1 1.145 5.584c0 1.948-.382 3.809-1.145 5.584-.763 1.775-1.788 3.305-3.074 4.59-1.286 1.286-2.817 2.31-4.591 3.074a13.979 13.979 0 0 1-5.584 1.146c-2.482 0-4.804-.598-6.968-1.795L.34 30.025l2.597-7.73C1.56 20.028.874 17.552.874 14.867c0-1.947.382-3.808 1.145-5.583.764-1.776 1.788-3.306 3.074-4.591C6.38 3.409 7.91 2.384 9.683 1.62A13.963 13.963 0 0 1 15.268.475zm0 26.381a11.67 11.67 0 0 0 4.649-.954c1.483-.636 2.759-1.489 3.827-2.558 1.069-1.07 1.921-2.345 2.558-3.827.637-1.483.955-3.032.955-4.649 0-1.616-.32-3.166-.955-4.648-.636-1.483-1.488-2.759-2.558-3.828-1.07-1.069-2.345-1.921-3.827-2.558a11.662 11.662 0 0 0-4.649-.954c-1.617 0-3.166.318-4.648.954-1.482.637-2.758 1.49-3.827 2.558-1.07 1.07-1.923 2.345-2.558 3.828a11.685 11.685 0 0 0-.955 4.648c0 2.583.764 4.925 2.29 7.025l-1.507 4.448 4.62-1.47c2.01 1.324 4.206 1.985 6.585 1.985zm3.875-10.117c.165 0 .786.28 1.862.84 1.075.56 1.645.897 1.708 1.011a.81.81 0 0 1 .039.286c0 .42-.109.903-.325 1.45-.204.497-.656.914-1.355 1.252-.7.337-1.35.506-1.948.506-.725 0-1.934-.394-3.627-1.184a10.883 10.883 0 0 1-3.245-2.252c-.916-.93-1.858-2.107-2.825-3.532-.916-1.362-1.368-2.596-1.355-3.703v-.153c.039-1.158.51-2.163 1.413-3.016.305-.28.636-.42.992-.42.077 0 .191.01.344.029.153.019.273.028.362.028.242 0 .41.042.506.124.095.083.194.258.296.525.102.255.312.815.63 1.68.317.866.477 1.343.477 1.432 0 .267-.22.633-.658 1.098-.44.465-.659.76-.66.887 0 .09.032.185.096.286.432.929 1.081 1.8 1.947 2.616.712.674 1.673 1.316 2.882 1.927.153.09.293.134.42.134.19 0 .534-.308 1.03-.925.497-.617.828-.926.993-.926z"/></g></g></svg>