<?xml version="1.0" encoding="UTF-8"?>
<svg id="SVGDoc" width="30" height="29" xmlns="http://www.w3.org/2000/svg" version="1.1" xmlns:xlink="http://www.w3.org/1999/xlink" xmlns:avocode="https://avocode.com/" viewBox="0 0 30 29"><defs></defs><desc>Generated with Avocode.</desc><g><g><title>Caminho 7308</title><path d="M12.5,28.12119l-11.9,-12c-0.3922,-0.35985 -0.61548,-0.86772 -0.61548,-1.4c0,-0.53228 0.22327,-1.04015 0.61548,-1.4l11.9,-12c0.73117,-0.71535 1.8714,-0.79982 2.7,-0.2c0.48843,0.32803 0.79733,0.86384 0.83647,1.4509c0.03914,0.58706 -0.19591,1.15913 -0.63647,1.5491l-8.6,8.6v0h21.2c1.10457,0 2,0.89543 2,2c0,1.10457 -0.89543,2 -2,2h-21.2v0l8.6,8.6c0.44057,0.38997 0.67561,0.96204 0.63647,1.5491c-0.03914,0.58706 -0.34804,1.12287 -0.83647,1.4509c-0.8286,0.59982 -1.96883,0.51535 -2.7,-0.2z" fill="#fff" fill-opacity="1"></path></g></g></svg>