<?xml version="1.0" encoding="UTF-8"?>
<svg id="SVGDoc" width="18" height="22" xmlns="http://www.w3.org/2000/svg" version="1.1" xmlns:xlink="http://www.w3.org/1999/xlink" xmlns:avocode="https://avocode.com/" viewBox="0 0 18 22"><defs></defs><desc>Generated with Avocode.</desc><g><g><title>Caminho 26055</title><path d="M17.7022,12.93804c-0.21787,-0.2628 -0.53136,-0.4281 -0.87128,-0.45944c-0.33992,-0.03134 -0.67835,0.07386 -0.9406,0.29239l-5.60267,4.66461v0v-15.2403c0,-0.7097 -0.57532,-1.28502 -1.28502,-1.28502c-0.7097,0 -1.28502,0.57532 -1.28502,1.28502v15.2403v0l-5.60267,-4.66461c-0.54646,-0.45421 -1.35767,-0.37941 -1.81187,0.16705c-0.45421,0.54646 -0.37941,1.35767 0.16705,1.81187l7.7101,6.42509v0l0.19275,0.11565v0l0.16705,0.08995c0.29771,0.11487 0.62751,0.11487 0.92521,0l0.16705,-0.08995v0l0.19275,-0.11565v0l7.7101,-6.42509c0.26279,-0.21787 0.4281,-0.53136 0.45944,-0.87128c0.03134,-0.33992 -0.07386,-0.67834 -0.29239,-0.9406z" fill="#ffffff" fill-opacity="1"></path></g></g></svg>