<svg xmlns="http://www.w3.org/2000/svg" width="338.833" height="364.712" viewBox="0 0 338.833 364.712">
  <path id="Caminho_26053" data-name="Caminho 26053" d="M200.9,0H0V364.712H158.621V275.868H200.9c76.057,0,137.934-61.876,137.934-137.933S276.957,0,200.9,0m0,39.2a98.9,98.9,0,0,1,94.4,69.817c-52.038,19.07-97.791,24.981-136.68,17.7V39.2Zm-81.482,74.552c-.291-.144-.588-.277-.879-.422C80.5,94.2,59.113,61.637,48.216,39.2h71.2Zm0,119.013A109.218,109.218,0,0,1,39.2,127.622V98.1a187.385,187.385,0,0,0,61.182,49.986,185.048,185.048,0,0,0,19.032,8.323ZM39.2,325.509V227.924a148.2,148.2,0,0,0,80.215,45.108v52.478Zm161.7-88.844H158.621V166.479a225.068,225.068,0,0,0,33.638,2.476q49.118,0,106.695-19.643A98.859,98.859,0,0,1,200.9,236.665" fill="#28b36f" opacity="0.04"/>
</svg>
