<?xml version="1.0" encoding="UTF-8"?>
<svg id="SVGDoc" width="34" height="24" xmlns="http://www.w3.org/2000/svg" version="1.1" xmlns:xlink="http://www.w3.org/1999/xlink" xmlns:avocode="https://avocode.com/" viewBox="0 0 34 24"><defs></defs><desc>Generated with Avocode.</desc><g><g><title>menu-right</title><g><title>Grupo 9676</title><g><title>Caminho 26074</title><path d="M34,21.98723c0,0.9254 -0.75041,1.67414 -1.67414,1.67414h-13.47725c-0.9246,0 -1.67414,-0.74954 -1.67414,-1.67414c0,-0.9246 0.74954,-1.67414 1.67414,-1.67414h13.47725c0.92541,0 1.67414,0.74873 1.67414,1.67414z" fill="#ffffff" fill-opacity="1"></path></g><g><title>Caminho 26075</title><path d="M34,11.8835c0,0.9254 -0.75042,1.67414 -1.67414,1.67414h-30.30278c-0.9246,0 -1.67414,-0.74954 -1.67414,-1.67414c0,-0.9246 0.74954,-1.67414 1.67414,-1.67414h30.30279c0.9254,0 1.67414,0.75042 1.67414,1.67414z" fill="#ffffff" fill-opacity="1"></path></g><g><title>Caminho 26076</title><path d="M32.32587,3.4539c0.9246,0 1.67414,-0.74954 1.67414,-1.67414c0,-0.9246 -0.74954,-1.67414 -1.67414,-1.67414h-20.20747c-0.9246,0 -1.67414,0.74954 -1.67414,1.67414c0,0.9246 0.74954,1.67414 1.67414,1.67414z" fill="#ffffff" fill-opacity="1"></path></g></g></g></g></svg>