<?xml version="1.0" encoding="UTF-8"?>
<svg id="SVGDoc" width="31" height="38" xmlns="http://www.w3.org/2000/svg" version="1.1" xmlns:xlink="http://www.w3.org/1999/xlink" xmlns:avocode="https://avocode.com/" viewBox="0 0 31 38"><defs></defs><desc>Generated with Avocode.</desc><g><g><title>bx-camera-home</title><g><title>Caminho 26051</title><path d="M26.65033,26.61444h-22.84314v-22.84314h22.84314zM3.56924,-0.03589c-1.97037,0.0021 -3.56714,1.59887 -3.56924,3.56924v23.31904c0,1.96832 1.60092,3.56924 3.56924,3.56924h9.75592v3.80719h-7.61438v3.80719h19.03595v-3.80719h-7.61438v-3.80719h9.75592c1.97037,-0.0021 3.56714,-1.59888 3.56924,-3.56924v-23.31904c-0.0021,-1.97037 -1.59887,-3.56714 -3.56924,-3.56924z" fill="#28b36f" fill-opacity="1"></path></g><g><title>Caminho 26052</title><path d="M15.22876,11.38568c2.09966,0 3.80719,1.70753 3.80719,3.80719c0,2.09967 -1.70753,3.80719 -3.80719,3.80719c-2.09966,0 -3.80719,-1.70753 -3.80719,-3.80719c0,-2.09966 1.70753,-3.80719 3.80719,-3.80719zM15.22876,22.80725c4.19933,0 7.61438,-3.41505 7.61438,-7.61438c0,-4.19933 -3.41505,-7.61438 -7.61438,-7.61438c-4.19933,0 -7.61438,3.41505 -7.61438,7.61438c0,4.19933 3.41505,7.61438 7.61438,7.61438z" fill="#28b36f" fill-opacity="1"></path></g></g></g></svg>