<?xml version="1.0" encoding="UTF-8"?>
<svg id="SVGDoc" width="38" height="48" xmlns="http://www.w3.org/2000/svg" version="1.1" xmlns:xlink="http://www.w3.org/1999/xlink" xmlns:avocode="https://avocode.com/" viewBox="0 0 38 48"><defs></defs><desc>Generated with Avocode.</desc><g><g><title>bx-camera-home</title><g><title>Caminho 26051</title><path d="M33.15515,33.84485h-28.3103v-28.3103h28.3103zM33.45005,0.81616h-28.9001c-2.44195,0.0026 -4.42088,1.98154 -4.42348,4.42348v28.9001c0,2.4394 1.98408,4.42348 4.42348,4.42348h12.09086v4.71838h-9.43677v4.71838h23.59192v-4.71838h-9.43677v-4.71838h12.09086c2.44194,-0.0026 4.42088,-1.98154 4.42348,-4.42348v-28.9001c-0.00261,-2.44195 -1.98154,-4.42089 -4.42349,-4.42349z" fill="#28b36f" fill-opacity="1"></path></g><g><title>Caminho 26052</title><path d="M19,14.97131c2.60219,0 4.71838,2.1162 4.71838,4.71838c0,2.60219 -2.1162,4.71838 -4.71838,4.71838c-2.60219,0 -4.71838,-2.1162 -4.71838,-4.71838c0,-2.60219 2.1162,-4.71838 4.71838,-4.71838zM19,29.12646c5.20438,0 9.43677,-4.23239 9.43677,-9.43677c0,-5.20438 -4.23239,-9.43677 -9.43677,-9.43677c-5.20438,0 -9.43677,4.23239 -9.43677,9.43677c0,5.20438 4.23239,9.43677 9.43677,9.43677z" fill="#28b36f" fill-opacity="1"></path></g></g></g></svg>