<?xml version="1.0" encoding="UTF-8"?>
<svg id="SVGDoc" width="48" height="48" xmlns="http://www.w3.org/2000/svg" version="1.1" xmlns:xlink="http://www.w3.org/1999/xlink" xmlns:avocode="https://avocode.com/" viewBox="0 0 48 48"><defs></defs><desc>Generated with Avocode.</desc><g><g><title>Layer 2</title><g><title>invisible box</title><g><title>Retângulo 6611</title></g></g><g><title>icons Q2</title><g><title>Caminho 26047</title><path d="M9.9,45v0h-3.9c-1.10457,0 -2,-0.89543 -2,-2v-38c0,-1.10457 0.89543,-2 2,-2h32c1.10457,0 2,0.89543 2,2v7.9c0.01865,1.02 -0.69847,1.90585 -1.7,2.1c-0.58014,0.08805 -1.16969,-0.0831 -1.61248,-0.46814c-0.44279,-0.38504 -0.69416,-0.94511 -0.68751,-1.53186v-6v0h-28v0v34v0h2c0.58675,-0.00664 1.14682,0.24472 1.53186,0.68752c0.38504,0.44279 0.5562,1.03234 0.46814,1.61248c-0.19415,1.00153 -1.08,1.71865 -2.1,1.7z" fill="#28b36f" fill-opacity="1"></path></g><g><title>Retângulo 6612</title><path d="M15,18c-1.10457,0 -2,-0.89543 -2,-2v0c0,-1.10457 0.89543,-2 2,-2h14c1.10457,0 2,0.89543 2,2v0c0,1.10457 -0.89543,2 -2,2z" fill="#28b36f" fill-opacity="1"></path></g><g><title>Caminho 26048</title><path d="M38.1,31.8l-6.9,-6.9l3,-3.1l7,7zM28.9,41h-6.9v-6.9l6.4,-6.4l6.9,6.9zM45.4,27.4l-9.8,-9.8c-0.35985,-0.3922 -0.86772,-0.61547 -1.4,-0.61547c-0.53228,0 -1.04015,0.22327 -1.4,0.61547l-4.40001,4.4h-13.4c-1.10457,0 -2,0.89543 -2,2c0,1.10457 0.89543,2 2,2h9.4l-4,4h-5.4c-1.10457,0 -2,0.89543 -2,2c0,1.10457 0.89543,2 2,2h3v9c0,1.10457 0.89543,2 2,2h9.8c0.52754,-0.00751 1.03074,-0.22317 1.4,-0.6l14.2,-14.2c0.39221,-0.35985 0.61548,-0.86772 0.61548,-1.4c0,-0.53228 -0.22327,-1.04015 -0.61548,-1.4z" fill="#28b36f" fill-opacity="1"></path></g></g></g></g></svg>