<?xml version="1.0" encoding="UTF-8"?>
<svg id="SVGDoc" width="23" height="23" xmlns="http://www.w3.org/2000/svg" version="1.1" xmlns:xlink="http://www.w3.org/1999/xlink" xmlns:avocode="https://avocode.com/" viewBox="0 0 23 23"><defs></defs><desc>Generated with Avocode.</desc><g><g><title>Caminho 26063</title><path d="M22.65062,1.60679v0v19.49381c-0.00344,0.04196 -0.02295,0.08098 -0.05445,0.1089c-0.02721,0.52963 -0.4505,0.95292 -0.98013,0.98014h-5.71746v0v-8.38561v0h2.66815c0.16336,0 0.16336,0 0.21781,-0.16335l0.16335,-1.3613c0.05445,-0.54452 0.1089,-1.08904 0.21781,-1.63356c0.1089,-0.54452 0,-0.16336 -0.1089,-0.16336h-3.15822v0v-2.12363c0,-0.16336 0.05445,-0.38116 0.05445,-0.54452c0.04876,-0.45946 0.41177,-0.82247 0.87123,-0.87123l0.70788,-0.10891v0h1.63356c0.1089,0 0.1089,0 0.1089,-0.1089v-2.77705c0,-0.05445 0,-0.1089 -0.1089,-0.1089h-2.50479c-0.6207,-0.01704 -1.23658,0.1136 -1.79691,0.38116c-0.83739,0.28182 -1.52493,0.89079 -1.90582,1.68801c-0.31058,0.60537 -0.46057,1.28034 -0.43562,1.96027c-0.05445,0.81678 0,1.68801 0,2.55924h-2.77705c-0.1089,0 -0.1089,0.05445 -0.1089,0.1089v3.10376c0,0.1089 0,0.1089 0.1089,0.1089h2.77705v0v8.38561c-0.03151,0.02793 -0.05101,0.06694 -0.05445,0.1089h-10.56369c-0.52963,-0.02721 -0.95292,-0.4505 -0.98014,-0.98013c-0.05445,0 -0.05445,-0.05445 -0.05445,-0.10891v-19.54826c0,-0.05445 0,-0.1089 0.05445,-0.1089c0.02721,-0.52963 0.4505,-0.95292 0.98014,-0.98014h19.71162c0.52963,0.02721 0.95292,0.4505 0.98014,0.98014z" fill="#ffffff" fill-opacity="1"></path></g></g></svg>