<?xml version="1.0" encoding="UTF-8"?>
<svg id="SVGDoc" width="41" height="41" xmlns="http://www.w3.org/2000/svg" version="1.1" xmlns:xlink="http://www.w3.org/1999/xlink" xmlns:avocode="https://avocode.com/" viewBox="0 0 41 41"><defs></defs><desc>Generated with Avocode.</desc><g><g><title>Layer 2</title><g><title>invisible box</title><g><title>Retângulo 6613</title></g><g><title>Retângulo 6614</title></g></g><g><title>icons Q2</title><g><title>Grupo 9569</title><g><title>Caminho 26049</title><path d="M17.08333,33.3125v0h-11.95833v0v-25.625v0h29.04167c0.94349,0 1.70833,-0.76485 1.70833,-1.70833c0,-0.94349 -0.76485,-1.70833 -1.70833,-1.70833h-30.75c-0.94349,0 -1.70833,0.76485 -1.70833,1.70833v29.04167c0,0.94349 0.76485,1.70833 1.70833,1.70833h13.66667c0.94349,0 1.70833,-0.76485 1.70833,-1.70833c0,-0.94349 -0.76485,-1.70834 -1.70833,-1.70834z" fill="#28b36f" fill-opacity="1"></path></g><g><title>Caminho 26050</title><path d="M30.75,34.42292l-2.5625,-2.39167l-2.5625,2.39167v-6.6625c-3.05981,-1.1086 -5.10505,-4.00603 -5.125,-7.26042c0,-4.24569 3.44181,-7.6875 7.6875,-7.6875c4.24569,0 7.6875,3.44181 7.6875,7.6875c-0.01994,3.25439 -2.06519,6.15182 -5.125,7.26041zM39.29167,20.49999c-0.00001,-6.13266 -4.97151,-11.10416 -11.10417,-11.10416c-2.59225,-0.01331 -5.1049,0.89488 -7.08958,2.5625h-10.84792c-0.94349,0 -1.70833,0.76485 -1.70833,1.70833c0,0.94349 0.76485,1.70833 1.70833,1.70833h8.11458c-0.5845,1.05771 -0.9614,2.21742 -1.11042,3.41667h-7.00417c-0.94349,0 -1.70833,0.76485 -1.70833,1.70833c0,0.94349 0.76485,1.70833 1.70833,1.70833h7.00417c0.14901,1.19925 0.52592,2.35895 1.11042,3.41667h-8.11459c-0.94349,0 -1.70833,0.76485 -1.70833,1.70833c0,0.94349 0.76485,1.70833 1.70833,1.70833h10.84792l1.11042,0.76875v8.28542c-0.05319,1.02457 0.69097,1.91756 1.70833,2.05c0.42508,-0.00994 0.82707,-0.19547 1.11042,-0.51249l3.16042,-2.90417l3.16042,2.90417c0.28335,0.31703 0.68534,0.50256 1.11042,0.5125c1.01737,-0.13244 1.76152,-1.02543 1.70833,-2.05001v-8.2c3.18068,-2.0699 5.10673,-5.60098 5.125,-9.39582z" fill="#28b36f" fill-opacity="1"></path></g><g><title>Elipse 111</title><path d="M24.00008,20.49996c0,-2.48528 1.79086,-4.5 4,-4.5c2.20914,0 4,2.01472 4,4.5c0,2.48528 -1.79086,4.5 -4,4.5c-2.20914,0 -4,-2.01472 -4,-4.5z" fill="#28b36f" fill-opacity="1"></path></g></g></g></g></g></svg>