<?xml version="1.0" encoding="UTF-8"?>
<svg id="SVGDoc" width="22" height="23" xmlns="http://www.w3.org/2000/svg" version="1.1" xmlns:xlink="http://www.w3.org/1999/xlink" xmlns:avocode="https://avocode.com/" viewBox="0 0 22 23"><defs></defs><desc>Generated with Avocode.</desc><g><g><title>Caminho 26059</title><path d="M18.62341,19.03143h-3.21267v-5.06404c0,-1.19794 0,-2.7226 -1.68801,-2.7226c-1.68801,0 -1.90582,1.30685 -1.90582,2.66815v5.11849h-3.21267v-10.34588h3.04931v1.41575h0.05445c0.62496,-1.08441 1.79856,-1.73408 3.04931,-1.68801c3.26712,0 3.86609,2.12363 3.86609,4.95513zM4.95596,7.2698c-1.03123,-0.02948 -1.85179,-0.87417 -1.85137,-1.90582c0,-1.02248 0.82888,-1.85137 1.85137,-1.85137c1.02248,0 1.85137,0.82889 1.85137,1.85137c0.00042,1.03165 -0.82014,1.87634 -1.85137,1.90582zM6.58952,19.03143h-3.26712v-10.34588h3.26712zM20.25697,0.51775h-18.51368c-0.42816,-0.01477 -0.84394,0.14505 -1.15197,0.44281c-0.30802,0.29776 -0.48185,0.70789 -0.48159,1.1363v18.56813c-0.00026,0.42841 0.17357,0.83854 0.48159,1.1363c0.30802,0.29776 0.72381,0.45758 1.15197,0.44281h18.51368c0.87212,0 1.57911,-0.70699 1.57911,-1.57911v-18.56813c0,-0.87212 -0.70699,-1.57911 -1.57911,-1.57911z" fill="#ffffff" fill-opacity="1"></path></g></g></svg>