<?xml version="1.0" encoding="UTF-8"?>
<svg id="SVGDoc" width="23" height="23" xmlns="http://www.w3.org/2000/svg" version="1.1" xmlns:xlink="http://www.w3.org/1999/xlink" xmlns:avocode="https://avocode.com/" viewBox="0 0 23 23"><defs></defs><desc>Generated with Avocode.</desc><g><g><title>Caminho 26060</title><path d="M11.23976,0.4633v0h-4.46506c-0.90788,0.03819 -1.80595,0.20314 -2.66815,0.49007c-0.72649,0.31016 -1.37681,0.77467 -1.90582,1.3613c-0.56989,0.52087 -1.00042,1.17603 -1.2524,1.90582c-0.33466,0.85113 -0.51891,1.75394 -0.54452,2.66815c-0.05445,1.14349 -0.05445,1.52466 -0.05445,4.46507c0,2.94041 0,3.32157 0.05445,4.46507c0.02561,0.91421 0.20985,1.81702 0.54452,2.66815c0.25198,0.72978 0.68251,1.38494 1.2524,1.90582c0.52087,0.56988 1.17603,1.00042 1.90582,1.2524c0.85114,0.33467 1.75394,0.51891 2.66815,0.54452h8.93013c0.91421,-0.02561 1.81702,-0.20985 2.66815,-0.54452c0.72978,-0.25198 1.38494,-0.68251 1.90582,-1.2524c0.56695,-0.53446 1.0126,-1.18436 1.30685,-1.90582c0.28693,-0.86219 0.45188,-1.76027 0.49007,-2.66815c0.05445,-1.14349 0.05445,-1.52465 0.05445,-4.46506c0,-2.94041 0,-3.32157 -0.05445,-4.46506c-0.03819,-0.90788 -0.20314,-1.80596 -0.49007,-2.66815c-0.29424,-0.72146 -0.73989,-1.37136 -1.30685,-1.90582c-0.53446,-0.56695 -1.18436,-1.0126 -1.90582,-1.30685c-0.86219,-0.28693 -1.76027,-0.45188 -2.66815,-0.49007h-4.46507v0M11.23976,2.42357v0h4.41061c0.68872,0.00809 1.37065,0.13711 2.01472,0.38117c0.94824,0.37078 1.6984,1.12094 2.06918,2.06918c0.24406,0.64407 0.37307,1.32601 0.38116,2.01472c0.05445,1.14349 0.05445,1.52466 0.05445,4.41061c0,2.88596 0,3.26712 -0.05445,4.41061c-0.00809,0.68871 -0.13711,1.37065 -0.38116,2.01472c-0.37078,0.94824 -1.12094,1.6984 -2.06918,2.06918c-0.64407,0.24405 -1.32601,0.37307 -2.01472,0.38116h-8.82122c-0.68871,-0.00809 -1.37065,-0.13711 -2.01472,-0.38116c-0.94824,-0.37078 -1.6984,-1.12094 -2.06918,-2.06917c-0.24406,-0.64407 -0.37307,-1.32601 -0.38116,-2.01472c-0.05445,-1.14349 -0.05445,-1.52466 -0.05445,-4.41061c0,-2.88596 0,-3.26712 0.05445,-4.41061c0.00809,-0.68871 0.13711,-1.37065 0.38116,-2.01472c0.37078,-0.94824 1.12094,-1.6984 2.06918,-2.06918c0.64407,-0.24406 1.32601,-0.37307 2.01472,-0.38116h4.41061v0" fill="#ffffff" fill-opacity="1"></path></g><g><title>Caminho 26061</title><path d="M11.23976,15.00199c-2.01489,0 -3.64828,-1.63339 -3.64828,-3.64828c0,-2.01489 1.63339,-3.64828 3.64828,-3.64828c2.01489,0 3.64828,1.63339 3.64828,3.64828c0,2.01489 -1.63339,3.64828 -3.64828,3.64828M11.23976,5.74515c-3.09752,0 -5.60856,2.51104 -5.60856,5.60856c0,3.09752 2.51104,5.60855 5.60856,5.60855c3.09752,0 5.60855,-2.51104 5.60855,-5.60855c0,-3.09752 -2.51104,-5.60856 -5.60855,-5.60856" fill="#ffffff" fill-opacity="1"></path></g><g><title>Caminho 26062</title><path d="M18.37297,5.52734c0,0.72175 -0.58509,1.30685 -1.30685,1.30685c-0.72176,0 -1.30685,-0.5851 -1.30685,-1.30685c0,-0.72175 0.58509,-1.30685 1.30685,-1.30685c0.72176,0 1.30685,0.58509 1.30685,1.30685" fill="#ffffff" fill-opacity="1"></path></g></g></svg>