<?xml version="1.0" encoding="UTF-8"?>
<svg id="SVGDoc" width="48" height="48" xmlns="http://www.w3.org/2000/svg" version="1.1" xmlns:xlink="http://www.w3.org/1999/xlink" xmlns:avocode="https://avocode.com/" viewBox="0 0 48 48"><defs></defs><desc>Generated with Avocode.</desc><g><g><title>Layer 2</title><g><title>invisible box</title><g><title>Retângulo 6613</title></g><g><title>Retângulo 6614</title></g></g><g><title>icons Q2</title><g><title>Grupo 9569</title><g><title>Caminho 26049</title><path d="M20,39h-14v0v-30v0h34c1.10457,0 2,-0.89543 2,-2c0,-1.10457 -0.89543,-2 -2,-2h-36c-1.10457,0 -2,0.89543 -2,2v34c0,1.10457 0.89543,2 2,2h16c1.10457,0 2,-0.89543 2,-2c0,-1.10457 -0.89543,-2 -2,-2z" fill="#28b36f" fill-opacity="1"></path></g><g><title>Caminho 26050</title><path d="M36,32.5v7.8l-3,-2.8l-3,2.8v-7.8c-3.58222,-1.29787 -5.97665,-4.68998 -6,-8.5c0,-4.97056 4.02944,-9 9,-9c4.97056,0 9,4.02944 9,9c-0.02335,3.81002 -2.41778,7.20213 -6,8.5zM46,23.99999c-0.00001,-7.1797 -5.8203,-12.99999 -13,-12.99999c-3.03483,-0.01558 -5.97647,1.04766 -8.3,3h-12.7c-1.10457,0 -2,0.89543 -2,2c0,1.10457 0.89543,2 2,2h9.5c-0.68429,1.2383 -1.12554,2.596 -1.3,4h-8.2c-1.10457,0 -2,0.89543 -2,2c0,1.10457 0.89543,2 2,2h8.2c0.17446,1.404 0.61571,2.7617 1.3,4h-9.5c-1.10457,0 -2,0.89543 -2,2c0,1.10457 0.89543,2 2,2h12.7l1.3,0.9v9.7c-0.06227,1.1995 0.80894,2.24495 2,2.39999c0.49766,-0.01163 0.96827,-0.22884 1.3,-0.59999l3.7,-3.40001l3.7,3.4c0.33173,0.37115 0.80235,0.58836 1.3,0.6c1.19107,-0.15505 2.06227,-1.2005 2,-2.40001v-9.59999c3.72372,-2.42329 5.97861,-6.55724 6,-10.99999z" fill="#28b36f" fill-opacity="1"></path></g><g><title>Elipse 111</title><path d="M28,24c0,-2.76142 2.23858,-5 5,-5c2.76142,0 5,2.23858 5,5c0,2.76142 -2.23858,5 -5,5c-2.76142,0 -5,-2.23858 -5,-5z" fill="#28b36f" fill-opacity="1"></path></g></g></g></g></g></svg>