<?xml version="1.0" encoding="UTF-8"?>
<svg id="SVGDoc" width="30" height="22" xmlns="http://www.w3.org/2000/svg" version="1.1" xmlns:xlink="http://www.w3.org/1999/xlink" xmlns:avocode="https://avocode.com/" viewBox="0 0 30 22"><defs></defs><desc>Generated with Avocode.</desc><g><g><title>Caminho 26064</title><path d="M12.06667,15.35364v-8.8l7.6,4.4zM29.06667,3.88697c-0.33809,-1.26999 -1.33001,-2.26191 -2.6,-2.6c-2.26666,-0.6 -11.46667,-0.6 -11.46667,-0.6c0,0 -9.2,0 -11.46667,0.6c-1.26999,0.33809 -2.26191,1.33001 -2.6,2.6c-0.6,2.26667 -0.6,7.06667 -0.6,7.06667c0,0 0,4.8 0.6,7.06667c0.33809,1.26999 1.33001,2.26192 2.6,2.6c2.26667,0.6 11.46667,0.6 11.46667,0.6c0,0 9.2,0 11.46667,-0.6c1.26999,-0.33809 2.26191,-1.33001 2.6,-2.6c0.6,-2.26667 0.6,-7.06667 0.6,-7.06667c0,0 0,-4.8 -0.6,-7.06667z" fill="#ffffff" fill-opacity="1"></path></g></g></svg>