<?xml version="1.0" encoding="UTF-8"?>
<svg id="SVGDoc" width="42" height="42" xmlns="http://www.w3.org/2000/svg" version="1.1" xmlns:xlink="http://www.w3.org/1999/xlink" xmlns:avocode="https://avocode.com/" viewBox="0 0 42 42"><defs></defs><desc>Generated with Avocode.</desc><g><g><title>Layer 2</title><g><title>invisible box</title><g><title>Retângulo 6620</title></g><g><title>Retângulo 6621</title></g></g><g><title>icons Q2</title><g><title>Caminho 26056</title><path d="M25.48129,34.80482l-3.86821,-2.98907c-0.30035,-0.26865 -0.75462,-0.26865 -1.05497,0l-3.86821,2.98907v-5.80232c1.4216,0.45386 2.90346,0.69095 4.3957,0.70331c1.49223,-0.01235 2.9741,-0.24945 4.39569,-0.70331zM10.53591,15.63958c0,-5.82643 4.72325,-10.54968 10.54967,-10.54968c5.82642,0 10.54967,4.72325 10.54967,10.54968c0,5.82643 -4.72325,10.54967 -10.54967,10.54967c-5.82643,0 -10.54967,-4.72325 -10.54967,-10.54967zM35.15182,15.63958c0.01204,-6.69906 -4.702,-12.47709 -11.26709,-13.81018c-6.56509,-1.33309 -13.15939,2.14871 -15.76116,8.3219c-2.60177,6.1732 -0.489,13.32469 5.04976,17.09293l-0.00001,11.16507c-0.00112,0.98626 0.77314,1.79923 1.75828,1.8462c0.35667,0.01857 0.70563,-0.10832 0.96705,-0.35166l5.18692,-4.04404l5.18692,4.04404c0.26143,0.24334 0.61038,0.37023 0.96706,0.35166c0.98513,-0.04696 1.75939,-0.85994 1.75827,-1.84619v-11.16507c3.84239,-2.61411 6.14562,-6.95734 6.15398,-11.60464z" fill="#28b36f" fill-opacity="1"></path></g><g><title>Caminho 26057</title><path d="M17.92068,17.13411v0l-0.43957,2.72533c-0.02303,0.33102 0.12526,0.65073 0.39284,0.84695c0.26758,0.19623 0.61708,0.24156 0.92587,0.1201l2.28576,-1.67037v0l2.28576,1.67036c0.30879,0.12146 0.65829,0.07613 0.92587,-0.1201c0.26758,-0.19622 0.41587,-0.51594 0.39284,-0.84695l-0.43957,-2.72533v0l1.84619,-1.75828c0.22576,-0.25827 0.2978,-0.61682 0.18932,-0.94225c-0.10848,-0.32543 -0.38123,-0.56904 -0.7168,-0.64021l-2.54951,-0.35165v0l-1.14288,-2.5495c-0.14689,-0.30329 -0.45423,-0.49593 -0.79123,-0.49593c-0.33699,0 -0.64433,0.19264 -0.79123,0.49593l-1.14288,2.5495v0l-2.54951,0.35165c-0.33557,0.07116 -0.60833,0.31477 -0.71681,0.6402c-0.10847,0.32543 -0.03644,0.68397 0.18932,0.94225z" fill="#28b36f" fill-opacity="1"></path></g></g></g></g></svg>