<svg id="pbs-logo" xmlns="http://www.w3.org/2000/svg" xmlns:xlink="http://www.w3.org/1999/xlink" width="138.17" height="53.414" viewBox="0 0 138.17 53.414">
  <defs>
    <clipPath id="clip-path">
      <rect id="Retângulo_6605" data-name="Retângulo 6605" width="138.17" height="53.414" fill="none"/>
    </clipPath>
  </defs>
  <g id="Grupo_9565" data-name="Grupo 9565" clip-path="url(#clip-path)">
    <path id="Caminho_26038" data-name="Caminho 26038" d="M29.423,0H0V53.414H23.231V40.4h6.192a20.2,20.2,0,0,0,0-40.4m0,5.742A14.485,14.485,0,0,1,43.249,15.967c-7.621,2.793-14.322,3.659-20.018,2.592V5.742ZM17.489,16.66l-.129-.062A23.5,23.5,0,0,1,7.062,5.742H17.489Zm0,17.43a16,16,0,0,1-11.748-15.4V14.367A27.444,27.444,0,0,0,14.7,21.688a27.1,27.1,0,0,0,2.787,1.219ZM5.742,47.673V33.381a21.7,21.7,0,0,0,11.748,6.606v7.686ZM29.423,34.661H23.231V24.382a32.963,32.963,0,0,0,4.927.363,48.618,48.618,0,0,0,15.626-2.877A14.478,14.478,0,0,1,29.423,34.661" transform="translate(0 0)" fill="#28b36f"/>
    <path id="Caminho_26039" data-name="Caminho 26039" d="M1093.563,47.751h4.236c6.846,0,11.1-3.58,11.1-9.342,0-5.784-4.253-9.376-11.1-9.376h-11.065V54.4h6.829ZM1102,38.409c0,2.354-1.517,3.547-4.511,3.547h-3.926V34.828h3.926c2.994,0,4.511,1.2,4.511,3.581" transform="translate(-1023.09 -27.333)" fill="#fff"/>
    <path id="Caminho_26040" data-name="Caminho 26040" d="M1562.523,47.2a6.477,6.477,0,0,0-3.687-6.089,6.407,6.407,0,0,0,2.481-5.18c0-4.317-3.647-6.9-9.756-6.9h-12.409V54.4h13.1c8.938,0,10.272-4.514,10.272-7.2m-11.651-8.274h-4.925V34.484h4.925c3.581,0,3.581,1.657,3.581,2.2s0,2.237-3.581,2.237m-4.925,5.313h5.89c3.426,0,3.822,1.355,3.822,2.375,0,1.09-.435,2.34-3.822,2.34h-5.89Z" transform="translate(-1449.014 -27.333)" fill="#fff"/>
    <path id="Caminho_26041" data-name="Caminho 26041" d="M2014.485,40.062c0-5.681-5.36-6.907-9.274-7.8-2.956-.676-4.751-1.177-4.751-2.433,0-1.856,2.481-2.133,3.96-2.133a13.034,13.034,0,0,1,6.378,1.814l.618.352,2.188-5.381-.442-.278a16.763,16.763,0,0,0-8.706-2.233c-7.964,0-10.789,4.383-10.789,8.136,0,5.735,5.354,6.979,9.263,7.887,2.964.688,4.763,1.2,4.763,2.485,0,1.706-2.525,1.961-4.029,1.961a13.517,13.517,0,0,1-7.593-2.4l-.62-.452-2.413,5.351.388.3c2.292,1.775,6.3,2.922,10.2,2.922,8.014,0,10.858-4.364,10.858-8.1" transform="translate(-1876.315 -20.681)" fill="#fff"/>
    <path id="Caminho_26042" data-name="Caminho 26042" d="M1097.84,618.534a4.029,4.029,0,0,0,.683-1.684,11.118,11.118,0,0,0,.153-1.8,12.223,12.223,0,0,0-.141-1.908,3.981,3.981,0,0,0-.577-1.567,2.776,2.776,0,0,0-1.343-1.036,6.672,6.672,0,0,0-2.438-.365h-7.443v16.205h2.026v-6.431h4.829c.254,0,.457-.007.611-.021l2.545,6.452h2.167l-2.732-6.737a3.054,3.054,0,0,0,1.661-1.107m-2.685-.542a7.135,7.135,0,0,1-1.849.188h-4.546v-6.266h4.711a6.271,6.271,0,0,1,1.778.2,1.812,1.812,0,0,1,.942.589,2.054,2.054,0,0,1,.377.966,9.958,9.958,0,0,1,.082,1.378,8.709,8.709,0,0,1-.094,1.378,2.077,2.077,0,0,1-.412.977,1.856,1.856,0,0,1-.989.589" transform="translate(-1023.09 -574.438)" fill="#fff"/>
    <path id="Caminho_26043" data-name="Caminho 26043" d="M1367.357,620.088q0,1.484-.094,2.4a2.852,2.852,0,0,1-.483,1.437,2.014,2.014,0,0,1-1.225.706,11.061,11.061,0,0,1-2.32.189,11.239,11.239,0,0,1-2.332-.189,2.022,2.022,0,0,1-1.237-.706,3,3,0,0,1-.507-1.437,19.593,19.593,0,0,1-.118-2.4v-9.916h-2.026v9.115q0,1.767.118,3.015a7.109,7.109,0,0,0,.471,2.084,2.922,2.922,0,0,0,1.037,1.307,4.565,4.565,0,0,0,1.8.672,16.27,16.27,0,0,0,2.792.2,16.1,16.1,0,0,0,2.768-.2,4.573,4.573,0,0,0,1.8-.672,2.855,2.855,0,0,0,1.024-1.307,7.17,7.17,0,0,0,.448-2.084q.106-1.248.106-3.015v-9.115h-2.026Z" transform="translate(-1277.543 -574.438)" fill="#fff"/>
    <path id="Caminho_26044" data-name="Caminho 26044" d="M1656.5,618.534a4.029,4.029,0,0,0,.683-1.684,11.092,11.092,0,0,0,.153-1.8,12.223,12.223,0,0,0-.141-1.908,3.981,3.981,0,0,0-.577-1.567,2.776,2.776,0,0,0-1.343-1.036,6.672,6.672,0,0,0-2.438-.365h-7.443v16.205h2.026v-6.431h4.829c.254,0,.457-.007.611-.021l2.545,6.452h2.167l-2.733-6.737a3.054,3.054,0,0,0,1.661-1.107m-2.685-.542a7.133,7.133,0,0,1-1.849.188h-4.546v-6.266h4.711a6.274,6.274,0,0,1,1.778.2,1.812,1.812,0,0,1,.942.589,2.052,2.052,0,0,1,.377.966,9.92,9.92,0,0,1,.082,1.378,8.71,8.71,0,0,1-.094,1.378,2.075,2.075,0,0,1-.412.977,1.855,1.855,0,0,1-.989.589" transform="translate(-1549.029 -574.438)" fill="#fff"/>
    <path id="Caminho_26045" data-name="Caminho 26045" d="M1896.457,610.172l-6.124,16.205h2.049l1.672-4.428h7.278l1.673,4.428h2.1l-6.1-16.205Zm-1.79,10.01,2.968-7.938h.118l2.968,7.938Z" transform="translate(-1779.627 -574.438)" fill="#fff"/>
    <path id="Caminho_26046" data-name="Caminho 26046" d="M2196.422,610.172H2194.4v16.206h9.587v-1.79h-7.561Z" transform="translate(-2065.884 -574.438)" fill="#fff"/>
  </g>
</svg>
