<svg width="131" height="126" viewBox="0 0 131 126" fill="none" xmlns="http://www.w3.org/2000/svg">
<path d="M105.731 49.7791H130.424C129.901 37.6444 124.898 26.0787 116.303 17.1328C109.465 24.7022 105.713 34.374 105.735 44.3739L105.731 49.7791Z" fill="url(#paint0_linear_3_86)"/>
<path d="M46.9062 39.4082C45.9032 31.1865 42.3472 23.4403 36.6964 17.167C31.8003 22.2482 28.03 28.2231 25.6125 34.7323H33.7444C38.5785 34.7323 43.2496 36.3908 46.9062 39.4082Z" fill="url(#paint1_linear_3_86)"/>
<path d="M13.4977 105.676V107.827H40.7021C41.1664 105.288 42.4333 102.946 44.3326 101.116L55.9678 89.9971C57.5766 88.4497 58.4825 86.3586 58.4892 84.1773V71.2783C58.4348 69.6026 57.6997 68.0129 56.4401 66.8458C55.1804 65.6788 53.4948 65.0262 51.7404 65.0262C49.9859 65.0262 48.3004 65.6788 47.0406 66.8458C45.7809 68.0129 45.0459 69.6026 44.9915 71.2783V75.58H40.4933V71.2783C40.4953 68.8006 41.3916 66.3993 43.0311 64.4799C44.6707 62.5604 46.953 61.2402 49.4929 60.7422V54.0809C49.4885 50.0906 47.828 46.265 44.8755 43.4435C41.923 40.622 37.9198 39.035 33.7444 39.031H15.7485C11.5728 39.0342 7.56909 40.6209 4.61643 43.4425C1.66377 46.2643 0.00344796 50.0903 -7.30068e-06 54.0809V74.5359C-0.0161934 80.039 1.11024 85.4905 3.31407 90.5749C5.51789 95.6591 8.75532 100.275 12.8388 104.155C13.2601 104.558 13.4971 105.104 13.4977 105.673V105.676Z" fill="url(#paint2_linear_3_86)"/>
<path d="M8.99961 112.123H44.9915V125.022H9.00287L8.99961 112.123Z" fill="url(#paint3_linear_3_86)"/>
<path d="M101.233 44.3739C101.216 33.2332 105.448 22.4682 113.136 14.0935C103.746 5.75248 91.5454 0.892584 78.7359 0.390274V49.7791H101.23L101.233 44.3739Z" fill="url(#paint4_linear_3_86)"/>
<path d="M51.7403 45.2654C52.5134 46.6961 53.094 48.2111 53.4691 49.7791H74.2377V0.424561C61.4483 0.964555 49.2727 5.81857 39.8735 14.1246C47.5421 22.4961 51.7612 33.248 51.7436 44.3739L51.7403 45.2654Z" fill="url(#paint5_linear_3_86)"/>
<path d="M105.731 54.0809V59.4891C105.728 69.4807 109.479 79.1415 116.303 86.7115C124.885 77.7677 129.87 66.2057 130.372 54.0809H105.731Z" fill="url(#paint6_linear_3_86)"/>
<path d="M74.2377 86.3281V54.0809H53.991V60.7454C56.5306 61.2439 58.8126 62.5642 60.4521 64.4836C62.0915 66.4029 62.9882 68.8038 62.9906 71.2815V84.1773C62.98 87.4985 61.5993 90.6818 59.1481 93.0363L53.3843 98.5475C56.4668 99.944 59.6831 101.057 62.9906 101.87V92.7776C62.9906 91.0673 63.7011 89.4271 64.9661 88.2171C66.2309 87.0072 67.9466 86.3267 69.7363 86.3251L74.2377 86.3281Z" fill="url(#paint7_linear_3_86)"/>
<path d="M101.233 54.0809H78.7359V86.3281C80.5262 86.3281 82.2431 87.0076 83.5092 88.2169C84.7754 89.4264 85.4872 91.0668 85.488 92.7776V97.0762H112.48V92.7744C112.488 91.7645 112.747 90.7706 113.237 89.8755C105.498 81.481 101.23 70.6767 101.233 59.4891V54.0809Z" fill="url(#paint8_linear_3_86)"/>
<path d="M119.229 90.6267H128.225C129.468 90.6267 130.476 91.8113 130.476 92.7776V122.874C130.476 123.445 130.239 123.992 129.817 124.395C129.395 124.798 128.822 125.025 128.225 125.025H119.229C117.99 125.025 116.978 123.837 116.978 122.874V92.7776C116.978 91.59 117.99 90.6267 119.229 90.6267Z" fill="url(#paint9_linear_3_86)"/>
<path d="M85.4847 101.375H112.48V114.274H85.4847V101.375Z" fill="url(#paint10_linear_3_86)"/>
<path d="M69.7395 90.6267H78.7359C79.9786 90.6267 80.9866 91.8113 80.9866 92.7776V122.874C80.9866 123.445 80.7494 123.992 80.3273 124.395C79.9052 124.798 79.3328 125.025 78.7359 125.025H69.7395C68.4967 125.025 67.4888 123.837 67.4888 122.874V92.7776C67.4888 91.59 68.4967 90.6267 69.7395 90.6267Z" fill="url(#paint11_linear_3_86)"/>
<defs>
<linearGradient id="paint0_linear_3_86" x1="109.174" y1="22.7749" x2="132.655" y2="48.102" gradientUnits="userSpaceOnUse">
<stop stop-color="#06354E" stop-opacity="0"/>
<stop offset="1" stop-color="#001F30"/>
</linearGradient>
<linearGradient id="paint1_linear_3_86" x1="28.5815" y1="21.0109" x2="44.7167" y2="41.0203" gradientUnits="userSpaceOnUse">
<stop stop-color="#06354E" stop-opacity="0"/>
<stop offset="1" stop-color="#001F30"/>
</linearGradient>
<linearGradient id="paint2_linear_3_86" x1="1.63097" y1="38.1402" x2="41.983" y2="105.184" gradientUnits="userSpaceOnUse">
<stop stop-color="#06354E" stop-opacity="0"/>
<stop offset="1" stop-color="#001F30"/>
</linearGradient>
<linearGradient id="paint3_linear_3_86" x1="9.78571" y1="112.427" x2="15.9806" y2="133.808" gradientUnits="userSpaceOnUse">
<stop stop-color="#06354E" stop-opacity="0"/>
<stop offset="1" stop-color="#001F30"/>
</linearGradient>
<linearGradient id="paint4_linear_3_86" x1="79.1012" y1="-0.999997" x2="111.204" y2="42.096" gradientUnits="userSpaceOnUse">
<stop stop-color="#06354E" stop-opacity="0"/>
<stop offset="1" stop-color="#001F30"/>
</linearGradient>
<linearGradient id="paint5_linear_3_86" x1="44.6648" y1="8.95426" x2="80.7454" y2="44.2776" gradientUnits="userSpaceOnUse">
<stop stop-color="#06354E" stop-opacity="0"/>
<stop offset="1" stop-color="#001F30"/>
</linearGradient>
<linearGradient id="paint6_linear_3_86" x1="106.827" y1="54.9146" x2="126.479" y2="83.3491" gradientUnits="userSpaceOnUse">
<stop stop-color="#06354E" stop-opacity="0"/>
<stop offset="1" stop-color="#001F30"/>
</linearGradient>
<linearGradient id="paint7_linear_3_86" x1="53.8214" y1="53.3171" x2="85.3735" y2="79.6539" gradientUnits="userSpaceOnUse">
<stop stop-color="#06354E" stop-opacity="0"/>
<stop offset="1" stop-color="#001F30"/>
</linearGradient>
<linearGradient id="paint8_linear_3_86" x1="78.2857" y1="50.9207" x2="113.229" y2="96.9022" gradientUnits="userSpaceOnUse">
<stop stop-color="#06354E" stop-opacity="0"/>
<stop offset="1" stop-color="#001F30"/>
</linearGradient>
<linearGradient id="paint9_linear_3_86" x1="114.982" y1="93.2561" x2="137.08" y2="106.77" gradientUnits="userSpaceOnUse">
<stop stop-color="#06354E" stop-opacity="0"/>
<stop offset="1" stop-color="#001F30"/>
</linearGradient>
<linearGradient id="paint10_linear_3_86" x1="84.8095" y1="101.244" x2="89.3311" y2="117.987" gradientUnits="userSpaceOnUse">
<stop stop-color="#06354E" stop-opacity="0"/>
<stop offset="1" stop-color="#001F30"/>
</linearGradient>
<linearGradient id="paint11_linear_3_86" x1="66.869" y1="86.8659" x2="91.1523" y2="105.101" gradientUnits="userSpaceOnUse">
<stop stop-color="#06354E" stop-opacity="0"/>
<stop offset="1" stop-color="#001F30"/>
</linearGradient>
</defs>
</svg>
