<svg xmlns="http://www.w3.org/2000/svg" width="26" height="38" viewBox="0 0 26 38"><g><g><g><path fill="#fccc80" d="M21.868.745h-7.29v7.396c2.609.288 5.109 1.2 7.29 2.66zm-10.934 0h-7.29v10.056a16.323 16.323 0 0 1 7.29-2.66zm1.822 14.579c5.025 0 9.112 4.086 9.112 9.111s-4.087 9.112-9.112 9.112-9.111-4.087-9.111-9.112 4.086-9.111 9.111-9.111zm0 21.867c7.032 0 12.756-5.724 12.756-12.756S19.788 11.68 12.756 11.68C5.722 11.679 0 17.403 0 24.435s5.722 12.756 12.756 12.756z"/></g><g><path fill="#fccc80" d="M9.147 25.912l-.853 4.968 4.462-2.345 4.462 2.345-.853-4.968 3.612-3.52-4.99-.726-2.23-4.52-2.234 4.52-4.99.726z"/></g></g></g></svg>