<svg width="130" height="99" viewBox="0 0 130 99" fill="none" xmlns="http://www.w3.org/2000/svg">
<path d="M80.6989 51.6701C80.6989 55.8047 78.9985 59.77 75.9717 62.6936C72.9449 65.6172 68.8397 67.2596 64.5591 67.2596C60.2786 67.2596 56.1734 65.6172 53.1466 62.6936C50.1198 59.77 48.4193 55.8047 48.4193 51.6701C48.4193 47.5356 50.1198 43.5703 53.1466 40.6467C56.1734 37.7231 60.2786 36.0807 64.5591 36.0807C68.8397 36.0807 72.9449 37.7231 75.9717 40.6467C78.9985 43.5703 80.6989 47.5356 80.6989 51.6701Z" fill="#EBEBEB"/>
<path d="M81.0804 63.6755C77.2963 68.529 71.3304 71.7145 64.5591 71.7145C57.785 71.7145 51.822 68.529 48.035 63.6755C41.2835 68.5508 36.8889 76.306 36.8889 85.0766V89.5315C36.8897 91.8943 37.8618 94.1601 39.5915 95.8309C41.3212 97.5017 43.667 98.4406 46.1133 98.4413H83.0022C85.4484 98.4406 87.7942 97.5017 89.5239 95.8309C91.2537 94.1601 92.2258 91.8943 92.2265 89.5315V85.0766C92.2265 76.306 87.832 68.5508 81.0804 63.6755Z" fill="#EBEBEB"/>
<path d="M80.6989 16.0362C80.6989 20.1708 78.9985 24.1361 75.9717 27.0597C72.9449 29.9833 68.8397 31.6257 64.5591 31.6257C60.2786 31.6257 56.1734 29.9833 53.1466 27.0597C50.1198 24.1361 48.4193 20.1708 48.4193 16.0362C48.4193 11.9017 50.1198 7.93641 53.1466 5.01282C56.1734 2.08922 60.2786 0.446762 64.5591 0.446762C68.8397 0.446762 72.9449 2.08922 75.9717 5.01282C78.9985 7.93641 80.6989 11.9017 80.6989 16.0362Z" fill="#EBEBEB"/>
<path d="M117.593 29.3983C117.593 33.5332 115.893 37.4988 112.866 40.4227C109.839 43.3465 105.733 44.9891 101.452 44.9891C97.1714 44.9891 93.0658 43.3465 90.0387 40.4227C87.0117 37.4988 85.3111 33.5332 85.3111 29.3983C85.3111 25.2633 87.0117 21.2977 90.0387 18.3739C93.0658 15.45 97.1714 13.8074 101.452 13.8074C105.733 13.8074 109.839 15.45 112.866 18.3739C115.893 21.2977 117.593 25.2633 117.593 29.3983Z" fill="#EBEBEB"/>
<path d="M117.975 41.4091C114.188 46.2598 108.225 49.4427 101.451 49.4427C94.6767 49.4427 88.7137 46.2598 84.9267 41.4091C84.2909 41.8622 83.7059 42.37 83.1124 42.8722C84.4717 45.5419 85.3111 48.4982 85.3111 51.6701C85.3111 54.591 84.6498 57.348 83.4854 59.8457L83.8443 60.1132C89.4109 64.1098 93.4863 69.7415 95.4596 76.164H119.897C122.342 76.1633 124.688 75.2247 126.418 73.5545C128.147 71.8844 129.12 69.6192 129.121 67.2569V62.802C129.121 54.0368 124.727 46.2817 117.975 41.4064V41.4091Z" fill="#EBEBEB"/>
<path d="M43.8072 29.3983C43.8072 33.5329 42.1067 37.4981 39.08 40.4217C36.0532 43.3453 31.9479 44.9878 27.6674 44.9878C23.3869 44.9878 19.2816 43.3453 16.2549 40.4217C13.2281 37.4981 11.5276 33.5329 11.5276 29.3983C11.5276 25.2637 13.2281 21.2984 16.2549 18.3748C19.2816 15.4513 23.3869 13.8088 27.6674 13.8088C31.9479 13.8088 36.0532 15.4513 39.08 18.3748C42.1067 21.2984 43.8072 25.2637 43.8072 29.3983Z" fill="#EBEBEB"/>
<path d="M45.2739 60.1105L45.6413 59.8484C44.4328 57.2801 43.8083 54.4913 43.81 51.6701C43.81 48.4982 44.6437 45.5419 46.003 42.8722C45.4124 42.37 44.8217 41.8622 44.1915 41.4091C40.4046 46.2571 34.4415 49.4427 27.6674 49.4427C20.8933 49.4427 14.9302 46.2571 11.1461 41.4064C4.39174 46.2789 0 54.0341 0 62.8074V67.2596C0.000748616 69.622 0.972449 71.8874 2.70158 73.5581C4.4307 75.2288 6.77579 76.168 9.22152 76.1695H33.6643C35.6315 69.7426 39.7068 64.1068 45.2767 60.1105H45.2739Z" fill="#EBEBEB"/>
</svg>
