<svg xmlns="http://www.w3.org/2000/svg" width="38" height="40" viewBox="0 0 38 40"><g><g><g><path fill="#fff" d="M15.597 23.596c-2.503 0-4.714-1.294-5.966-3.463-.375-.668-.166-1.544.501-1.92.668-.375 1.543-.166 1.92.501.75 1.252 2.085 2.045 3.545 2.045s2.795-.751 3.463-2.003c.375-.709 1.252-.918 1.92-.542.667.375.917 1.251.541 1.919-1.168 2.17-3.42 3.463-5.924 3.463zM6.336 12.123a.77.77 0 0 1-.21-.667c.126-1.21 1.044-3.547 3.88-3.547 2.754 0 3.755 2.295 3.88 3.547a.77.77 0 0 1-.208.667.985.985 0 0 1-.668.292H6.961a.806.806 0 0 1-.625-.292zm14.851-4.172c2.795 0 3.797 2.295 3.88 3.546a.77.77 0 0 1-.209.668c-.167.167-.375.292-.626.292h-6.049a.75.75 0 0 1-.625-.292.77.77 0 0 1-.209-.668c.084-1.251 1.043-3.546 3.838-3.546zm.46 20.025zm8.009-13.225c.209-.333.459-.709.75-1l.001-12.308c0-.417-.167-.792-.5-1.043a1.471 1.471 0 0 0-1.085-.333l-.334.041a107.3 107.3 0 0 1-25.865 0l-.25-.083a1.517 1.517 0 0 0-1.127.334c-.292.292-.5.667-.5 1.084v13.475c0 2.587.5 5.131 1.46 7.551 2.21 5.465 7.467 9.053 13.391 9.053.75 0 1.46-.042 2.211-.167.167-.334.334-.625.5-.918a6.307 6.307 0 0 1 3.338-2.461z"/></g><g><path fill="#fff" d="M36.456 14.96a3.242 3.242 0 0 0-4.672 1.043L24.608 27.85a5.459 5.459 0 0 1 2.336.96c.71.5 1.293 1.084 1.752 1.793l8.51-10.93c1.127-1.502.794-3.671-.75-4.714z"/></g><g><path fill="#fff" d="M25.568 30.813a3.805 3.805 0 0 0-5.257.96c-1.251 1.835 0 4.338-2.21 6.757-.418.418-.126 1.127.458 1.127 4.13.083 6.717-1.836 7.926-3.63a3.703 3.703 0 0 0-.917-5.214z"/></g></g></g></svg>