<svg width="170" height="161" viewBox="0 0 170 161" fill="none" xmlns="http://www.w3.org/2000/svg">
<path d="M137.374 64.1213H169.456C168.777 48.5592 162.277 33.7268 151.109 22.2543C142.225 31.9616 137.35 44.3651 137.378 57.1895L137.374 64.1213Z" fill="#042636"/>
<path d="M60.9438 50.8212C59.6406 40.2774 55.0204 30.3433 47.6786 22.2981C41.3172 28.8145 36.4186 36.4769 33.2775 44.8247H43.8431C50.124 44.8247 56.1929 46.9515 60.9438 50.8212Z" fill="#042636"/>
<path d="M17.5372 135.806V138.565H52.883C53.4862 135.309 55.1323 132.305 57.6 129.958L72.7172 115.699C74.8075 113.714 75.9846 111.032 75.9933 108.235V91.6928C75.9225 89.5438 74.9675 87.5051 73.3309 86.0084C71.6942 84.5118 69.5041 83.6749 67.2247 83.6749C64.9452 83.6749 62.7552 84.5118 61.1184 86.0084C59.4817 87.5051 58.5268 89.5438 58.456 91.6928V97.2095H52.6117V91.6928C52.6143 88.5153 53.7789 85.4358 55.909 82.9742C58.0392 80.5126 61.0046 78.8195 64.3046 78.1809V69.6381C64.2989 64.5208 62.1415 59.6146 58.3054 55.9963C54.4693 52.3779 49.2681 50.3426 43.8431 50.3375H20.4615C15.0361 50.3416 9.83427 52.3765 5.99796 55.995C2.16166 59.6138 0.00445338 64.5204 -3.59378e-05 69.6381V95.8704C-0.0210661 102.928 1.44248 109.919 4.30584 116.44C7.1692 122.96 11.3755 128.88 16.6811 133.856C17.2284 134.372 17.5363 135.072 17.5372 135.803V135.806Z" fill="#042636"/>
<path d="M11.6929 144.074H58.4561V160.616H11.6972L11.6929 144.074Z" fill="#042636"/>
<path d="M131.529 57.1895C131.507 42.9021 137.005 29.0966 146.994 18.3565C134.793 7.65966 118.942 1.42713 102.299 0.782944V64.1213H131.525L131.529 57.1895Z" fill="#042636"/>
<path d="M67.2247 58.3327C68.2291 60.1676 68.9835 62.1104 69.4709 64.1213H96.4548V0.82692C79.8379 1.51943 64.0185 7.74443 51.8065 18.3965C61.77 29.1324 67.2518 42.9211 67.2289 57.1895L67.2247 58.3327Z" fill="#042636"/>
<path d="M137.374 69.6381V76.5738C137.369 89.3875 142.243 101.777 151.109 111.485C162.259 100.015 168.736 85.1875 169.388 69.6381H137.374Z" fill="#042636"/>
<path d="M96.4548 110.993V69.6381H70.1489V78.185C73.4485 78.8242 76.4135 80.5175 78.5435 82.9789C80.6736 85.4403 81.8387 88.5194 81.8419 91.6969V108.235C81.8281 112.494 80.0341 116.577 76.8494 119.596L69.3607 126.664C73.3657 128.455 77.5444 129.882 81.8419 130.925V119.264C81.8419 117.071 82.7649 114.968 84.4084 113.416C86.0518 111.864 88.281 110.991 90.6062 110.989L96.4548 110.993Z" fill="#042636"/>
<path d="M131.529 69.6381H102.299V110.993C104.625 110.993 106.856 111.865 108.501 113.416C110.146 114.967 111.071 117.07 111.072 119.264V124.777H146.142V119.26C146.152 117.965 146.489 116.691 147.125 115.543C137.071 104.777 131.525 90.9212 131.529 76.5738V69.6381Z" fill="#042636"/>
<path d="M154.911 116.506H166.6C168.214 116.506 169.524 118.025 169.524 119.264V157.861C169.524 158.593 169.216 159.295 168.667 159.812C168.119 160.329 167.375 160.62 166.6 160.62H154.911C153.3 160.62 151.987 159.097 151.987 157.861V119.264C151.987 117.741 153.3 116.506 154.911 116.506Z" fill="#042636"/>
<path d="M111.068 130.29H146.142V146.832H111.068V130.29Z" fill="#042636"/>
<path d="M90.6105 116.506H102.299C103.914 116.506 105.223 118.025 105.223 119.264V157.861C105.223 158.593 104.915 159.295 104.367 159.812C103.818 160.329 103.075 160.62 102.299 160.62H90.6105C88.9958 160.62 87.6862 159.097 87.6862 157.861V119.264C87.6862 117.741 88.9958 116.506 90.6105 116.506Z" fill="#042636"/>
</svg>
