<svg width="118" height="130" viewBox="0 0 118 130" fill="none" xmlns="http://www.w3.org/2000/svg">
<path d="M47.1135 77.2C39.1714 77.2 32.1576 73.0125 28.1878 65.985C26.9976 63.825 27.6612 60.9875 29.7771 59.77C31.8955 58.555 34.6751 59.23 35.8653 61.3925C38.2457 65.445 42.4825 68.0125 47.1159 68.0125C51.7469 68.0125 55.9812 65.58 58.0996 61.5275C59.2898 59.23 62.0694 58.555 64.1878 59.77C66.3061 60.9875 67.0996 63.825 65.9094 65.985C62.2016 73.01 55.0555 77.2 47.1135 77.2ZM17.7331 40.0475C17.4635 39.7659 17.2631 39.4231 17.1482 39.0473C17.0332 38.6714 17.0071 38.2731 17.0718 37.885C17.4686 33.9675 20.378 26.4 29.378 26.4C38.1135 26.4 41.2898 33.8325 41.6865 37.885C41.7515 38.2731 41.7254 38.6715 41.6105 39.0474C41.4956 39.4233 41.295 39.766 41.0253 40.0475C40.4963 40.5875 39.7029 40.9925 38.9069 40.9925H19.7192C19.058 40.9925 18.262 40.7225 17.7355 40.0475H17.7331ZM64.8465 26.5375C73.7143 26.5375 76.8906 33.9675 77.1551 38.02C77.2201 38.4081 77.194 38.8065 77.0791 39.1824C76.9641 39.5583 76.7636 39.901 76.4939 40.1825C75.9649 40.7225 75.3012 41.13 74.5102 41.13H55.32C54.5241 41.13 53.8629 40.8575 53.3363 40.18C53.0667 39.8989 52.866 39.5567 52.7507 39.1813C52.6354 38.8059 52.6086 38.408 52.6727 38.02C52.9371 33.9675 55.9788 26.5375 64.8465 26.5375ZM91.7143 48.56C92.3755 47.4775 93.169 46.26 94.0947 45.315V5.46C94.0947 4.11 93.5657 2.895 92.5078 2.085C92.0335 1.68087 91.4854 1.37687 90.8951 1.19062C90.3049 1.00437 89.6843 0.939578 89.0694 1L88.0114 1.135C60.7605 4.51252 33.2093 4.51252 5.95837 1.135L5.16 0.8675C3.83755 0.7325 2.5151 1.1375 1.58694 1.95C0.661225 2.895 0 4.11 0 5.46V49.1C0 57.475 1.58694 65.7175 4.63102 73.555C11.6449 91.255 28.3225 102.87 47.1135 102.87C49.4963 102.87 51.7469 102.735 54.1273 102.33C54.6563 101.25 55.1878 100.305 55.7167 99.3575C58.2649 95.5587 61.9956 92.7502 66.3037 91.3875L91.7143 48.56Z" fill="#EBEBEB"/>
<path d="M113.285 49.2325C112.115 48.3961 110.786 47.8177 109.385 47.5343C107.983 47.2508 106.539 47.2686 105.145 47.5863C103.751 47.9041 102.436 48.5149 101.286 49.3798C100.136 50.2448 99.1745 51.3449 98.4637 52.61L75.698 90.98C78.3429 91.385 80.858 92.465 83.1086 94.0875C85.3592 95.7075 87.2106 97.6 88.6678 99.895L115.665 64.5C119.241 59.6375 118.18 52.61 113.282 49.2325H113.285Z" fill="#EBEBEB"/>
<path d="M78.7445 100.573C73.3175 96.79 65.9069 98.14 62.0669 103.68C58.0996 109.623 62.0669 117.73 55.0555 125.565C53.7306 126.915 54.6563 129.215 56.5102 129.215C69.6122 129.483 77.8163 123.268 81.6563 117.46C85.4939 111.92 84.169 104.355 78.742 100.573H78.7445Z" fill="#EBEBEB"/>
</svg>
