<svg width="129" height="99" viewBox="0 0 129 99" fill="none" xmlns="http://www.w3.org/2000/svg">
<path d="M80.8932 51.8213C80.8932 60.4596 73.7213 67.4609 64.8759 67.4609C56.0321 67.4609 48.8616 60.4582 48.8616 51.8213C48.8616 43.1831 56.0334 36.1791 64.8773 36.1791C73.7227 36.1791 80.8932 43.1831 80.8932 51.8213Z" fill="url(#paint0_linear_3_101)"/>
<path d="M81.2713 63.8627C77.5153 68.7339 71.5978 71.9283 64.8759 71.9283C58.1541 71.9283 52.2379 68.7339 48.4819 63.8627C41.7825 68.7559 37.4217 76.5359 37.4217 85.3348V89.8036C37.4225 92.1738 38.3869 94.4467 40.1031 96.1227C41.8191 97.7987 44.1465 98.7406 46.5736 98.7413H83.1797C85.6067 98.7406 87.9341 97.7987 89.6501 96.1227C91.3663 94.4467 92.3307 92.1738 92.3316 89.8036V85.3348C92.3316 76.5359 87.9722 68.7559 81.2713 63.8627Z" fill="url(#paint1_linear_3_101)"/>
<path d="M80.8932 16.0707C80.8932 24.709 73.7213 31.7116 64.8759 31.7116C56.0321 31.7116 48.8616 24.709 48.8616 16.0707C48.8616 7.43247 56.0334 0.431213 64.8773 0.431213C73.7227 0.431213 80.8932 7.43247 80.8932 16.0707Z" fill="url(#paint2_linear_3_101)"/>
<path d="M117.499 29.4772C117.499 38.1155 110.329 45.1181 101.483 45.1181C92.6382 45.1181 85.469 38.1155 85.469 29.4772C85.469 20.839 92.6382 13.8363 101.483 13.8363C110.329 13.8363 117.499 20.8403 117.499 29.4786" fill="url(#paint3_linear_3_101)"/>
<path d="M117.879 41.5255C114.121 46.3912 108.204 49.5869 101.482 49.5869C94.7602 49.5869 88.844 46.3912 85.088 41.5255C84.4565 41.9814 83.8758 42.4909 83.2852 42.9949C84.6352 45.6729 85.4677 48.6393 85.4677 51.82C85.4677 54.7521 84.8124 57.5193 83.6565 60.0215L84.0122 60.2893C89.664 64.4093 93.6028 70.0482 95.5392 76.3944H119.784C122.211 76.3937 124.539 75.4518 126.255 73.7758C127.971 72.0998 128.935 69.827 128.936 67.4568V62.9879C128.936 54.1931 124.577 46.4132 117.877 41.5241L117.879 41.5255Z" fill="url(#paint4_linear_3_101)"/>
<path d="M44.2856 29.4772C44.2856 38.1155 37.1166 45.1181 28.2712 45.1181C19.426 45.1181 12.2555 38.1155 12.2555 29.4772C12.2555 20.839 19.426 13.8363 28.2712 13.8363C37.1166 13.8363 44.2856 20.8403 44.2856 29.4786" fill="url(#paint5_linear_3_101)"/>
<path d="M45.7426 60.2893L46.1039 60.0243C44.9049 57.4477 44.2854 54.6501 44.2871 51.82C44.2871 48.6393 45.1167 45.6729 46.4653 42.9949C45.8789 42.4909 45.2939 41.9801 44.6653 41.5255C40.9106 46.3912 34.9932 49.5856 28.2727 49.5856C21.5507 49.5856 15.6333 46.3898 11.8758 41.5241C5.17924 46.4132 0.818451 54.1917 0.818451 62.9921V67.4609C0.819568 69.8309 1.78419 72.1034 3.50029 73.7791C5.21639 75.4547 7.54358 76.3965 9.97032 76.3972H34.2225C36.1743 69.9502 40.2177 64.2967 45.7439 60.288L45.7426 60.2893Z" fill="url(#paint6_linear_3_101)"/>
<defs>
<linearGradient id="paint0_linear_3_101" x1="43.8328" y1="2.65052" x2="82.1204" y2="68.2568" gradientUnits="userSpaceOnUse">
<stop stop-color="#06354E" stop-opacity="0"/>
<stop offset="1" stop-color="#001F30"/>
</linearGradient>
<linearGradient id="paint1_linear_3_101" x1="28.8001" y1="26.4779" x2="95.0496" y2="100.306" gradientUnits="userSpaceOnUse">
<stop stop-color="#06354E" stop-opacity="0"/>
<stop offset="1" stop-color="#001F30"/>
</linearGradient>
<linearGradient id="paint2_linear_3_101" x1="43.8328" y1="-33.0973" x2="82.1204" y2="32.5089" gradientUnits="userSpaceOnUse">
<stop stop-color="#06354E" stop-opacity="0"/>
<stop offset="1" stop-color="#001F30"/>
</linearGradient>
<linearGradient id="paint3_linear_3_101" x1="80.4376" y1="-19.6661" x2="118.725" y2="45.9129" gradientUnits="userSpaceOnUse">
<stop stop-color="#06354E" stop-opacity="0"/>
<stop offset="1" stop-color="#001F30"/>
</linearGradient>
<linearGradient id="paint4_linear_3_101" x1="76.1063" y1="4.1612" x2="130.972" y2="77.6527" gradientUnits="userSpaceOnUse">
<stop stop-color="#06354E" stop-opacity="0"/>
<stop offset="1" stop-color="#001F30"/>
</linearGradient>
<linearGradient id="paint5_linear_3_101" x1="7.22811" y1="-19.6661" x2="45.516" y2="45.9129" gradientUnits="userSpaceOnUse">
<stop stop-color="#06354E" stop-opacity="0"/>
<stop offset="1" stop-color="#001F30"/>
</linearGradient>
<linearGradient id="paint6_linear_3_101" x1="-6.35623" y1="4.1612" x2="48.4953" y2="77.6523" gradientUnits="userSpaceOnUse">
<stop stop-color="#06354E" stop-opacity="0"/>
<stop offset="1" stop-color="#001F30"/>
</linearGradient>
</defs>
</svg>
