<svg xmlns="http://www.w3.org/2000/svg" width="40" height="41" viewBox="0 0 40 41"><g><g><g><path fill="#fff" d="M32.414 16.29h7.57a16.488 16.488 0 0 0-4.329-10.473 13.331 13.331 0 0 0-3.24 8.739z"/></g><g><path fill="#fff" d="M14.38 12.963a13.297 13.297 0 0 0-3.13-7.135 16.433 16.433 0 0 0-3.398 5.635h2.493c1.482 0 2.914.532 4.035 1.5z"/></g><g><path fill="#fff" d="M4.138 34.222v.69h8.34a4.047 4.047 0 0 1 1.113-2.153l3.567-3.567a2.66 2.66 0 0 0 .773-1.867v-4.138a2.07 2.07 0 0 0-4.138 0v1.38h-1.379v-1.38a3.453 3.453 0 0 1 2.759-3.38V17.67a4.833 4.833 0 0 0-4.828-4.828H4.828A4.832 4.832 0 0 0 0 17.67v6.562a13.347 13.347 0 0 0 3.936 9.502.69.69 0 0 1 .202.487z"/></g><g><path fill="#fff" d="M2.759 36.29h11.034v4.138H2.76z"/></g><g><path fill="#fff" d="M31.035 14.556a14.697 14.697 0 0 1 3.649-9.714A16.483 16.483 0 0 0 24.138.446V16.29h6.896z"/></g><g><path fill="#fff" d="M15.862 14.842c.237.459.415.945.53 1.448h6.367V.457a16.596 16.596 0 0 0-10.535 4.395 14.699 14.699 0 0 1 3.639 9.704z"/></g><g><path fill="#fff" d="M32.414 17.67v1.735a13.373 13.373 0 0 0 3.241 8.733 16.452 16.452 0 0 0 4.313-10.468z"/></g><g><path fill="#fff" d="M22.759 28.015V17.67h-6.207v2.138a3.454 3.454 0 0 1 2.759 3.38v4.137a4.047 4.047 0 0 1-1.178 2.842l-1.767 1.768c.945.448 1.931.805 2.945 1.066v-2.917a2.07 2.07 0 0 1 2.068-2.07z"/></g><g><path fill="#fff" d="M31.035 17.67h-6.897v10.345a2.07 2.07 0 0 1 2.07 2.069v1.379h8.275v-1.38a2.04 2.04 0 0 1 .232-.93 14.74 14.74 0 0 1-3.68-9.748z"/></g><g><path fill="#fff" d="M36.552 29.394h2.758c.381 0 .69.38.69.69v9.655a.69.69 0 0 1-.69.69h-2.758c-.38 0-.69-.381-.69-.69v-9.655c0-.381.31-.69.69-.69z"/></g><g><path fill="#fff" d="M26.207 32.842h8.276v4.138h-8.276z"/></g><g><path fill="#fff" d="M21.38 29.394h2.758c.381 0 .69.38.69.69v9.655a.69.69 0 0 1-.69.69H21.38c-.381 0-.69-.381-.69-.69v-9.655c0-.381.309-.69.69-.69z"/></g></g></g></svg>