<svg xmlns="http://www.w3.org/2000/svg" width="16" height="16" viewBox="0 0 16 16"><g><g><g><path fill="#fff" d="M10.94 5.131a3.413 3.413 0 0 1-.75 2.117l-2.532 3.567L5.19 7.319a3.386 3.386 0 0 1-.815-2.188A3.32 3.32 0 0 1 7.658 1.78 3.32 3.32 0 0 1 10.94 5.13zm.109 2.806a4.485 4.485 0 0 0 .985-2.806A4.42 4.42 0 0 0 7.658.685a4.453 4.453 0 0 0-3.331 7.33l3.33 4.703z"/></g><g><path fill="#fff" d="M8.752 4.513a1.094 1.094 0 1 1-2.188 0 1.094 1.094 0 0 1 2.188 0z"/></g><g><path fill="#fff" d="M14.221 6.154h-1.093v1.094h1.093v7.658H1.094V7.248h1.094V6.154H1.094C.49 6.154 0 6.644 0 7.248v7.658C0 15.51.49 16 1.094 16h13.127c.605 0 1.094-.49 1.094-1.094V7.248c0-.604-.49-1.094-1.094-1.094z"/></g></g></g></svg>