<svg xmlns="http://www.w3.org/2000/svg" width="46" height="37" viewBox="0 0 46 37"><g><g><g><path fill="#fff" d="M28.555 19.295a5.711 5.711 0 1 1-11.422 0 5.711 5.711 0 0 1 11.422 0"/></g><g><path fill="#fff" d="M28.69 23.693c-1.339 1.778-3.45 2.945-5.846 2.945-2.397 0-4.507-1.167-5.847-2.945-2.389 1.786-3.944 4.627-3.944 7.84v1.632a3.265 3.265 0 0 0 3.264 3.264H29.37a3.265 3.265 0 0 0 3.264-3.264v-1.632c0-3.213-1.555-6.054-3.944-7.84z"/></g><g><path fill="#fff" d="M28.555 6.241a5.711 5.711 0 1 1-11.422 0 5.711 5.711 0 0 1 11.422 0"/></g><g><path fill="#fff" d="M41.61 11.136a5.711 5.711 0 1 1-11.423 0 5.711 5.711 0 0 1 11.423 0"/></g><g><path fill="#fff" d="M41.745 15.536c-1.34 1.777-3.45 2.943-5.847 2.943-2.397 0-4.507-1.166-5.847-2.943-.225.166-.432.352-.642.536.481.978.778 2.061.778 3.223 0 1.07-.234 2.08-.646 2.995l.127.098a11.35 11.35 0 0 1 4.11 5.88h8.647a3.265 3.265 0 0 0 3.264-3.263v-1.632c0-3.211-1.555-6.052-3.944-7.838z"/></g><g><path fill="#fff" d="M15.501 11.136a5.711 5.711 0 1 1-11.422 0 5.711 5.711 0 0 1 11.422 0"/></g><g><path fill="#fff" d="M16.02 22.387l.13-.096a7.231 7.231 0 0 1-.648-2.996c0-1.162.295-2.245.776-3.223-.209-.184-.418-.37-.641-.536-1.34 1.776-3.45 2.943-5.847 2.943-2.397 0-4.507-1.167-5.846-2.944C1.554 17.32 0 20.161 0 23.375v1.631a3.265 3.265 0 0 0 3.263 3.264h8.649a11.33 11.33 0 0 1 4.109-5.883z"/></g></g></g></svg>