<svg xmlns="http://www.w3.org/2000/svg" width="49" height="52" viewBox="0 0 49 52"><g><g><g><path fill="#042636" d="M19.238 30.88c-3.243 0-6.107-1.675-7.728-4.486-.486-.864-.215-1.999.649-2.486.865-.486 2-.216 2.486.649.972 1.621 2.702 2.648 4.594 2.648 1.891 0 3.62-.973 4.485-2.594.486-.919 1.621-1.189 2.486-.703.865.487 1.189 1.622.703 2.486-1.514 2.81-4.432 4.486-7.675 4.486zM7.241 16.019a.998.998 0 0 1-.27-.865c.162-1.567 1.35-4.594 5.025-4.594 3.567 0 4.864 2.973 5.026 4.594a.997.997 0 0 1-.27.865c-.216.216-.54.378-.865.378H8.052c-.27 0-.595-.108-.81-.378zm19.238-5.404c3.621 0 4.918 2.972 5.026 4.593a.997.997 0 0 1-.27.865c-.216.216-.487.379-.81.379h-7.836c-.325 0-.595-.109-.81-.38a.998.998 0 0 1-.271-.864c.108-1.621 1.35-4.593 4.971-4.593zm.595 25.939zm10.376-17.13c.27-.433.594-.92.972-1.298V2.184c0-.54-.216-1.026-.648-1.35A1.906 1.906 0 0 0 36.37.4l-.432.054a138.994 138.994 0 0 1-33.505 0L2.107.347C1.567.293 1.027.455.648.78.27 1.158 0 1.644 0 2.184V19.64c0 3.35.648 6.647 1.891 9.782 2.864 7.08 9.674 11.726 17.347 11.726.973 0 1.892-.054 2.864-.216.216-.432.433-.81.649-1.189a8.17 8.17 0 0 1 4.323-3.188z"/></g><g><path fill="#042636" d="M46.258 19.693a4.2 4.2 0 0 0-6.052 1.351L30.91 36.392c1.08.162 2.107.594 3.026 1.243.919.648 1.675 1.405 2.27 2.323L47.23 25.8c1.46-1.945 1.027-4.756-.973-6.107z"/></g><g><path fill="#042636" d="M32.154 40.229c-2.216-1.513-5.242-.973-6.81 1.243-1.62 2.377 0 5.62-2.863 8.754-.541.54-.163 1.46.594 1.46 5.35.107 8.7-2.379 10.268-4.702 1.567-2.216 1.026-5.242-1.19-6.755z"/></g></g></g></svg>