<svg width="84" height="82" viewBox="0 0 84 82" fill="none" xmlns="http://www.w3.org/2000/svg">
<path d="M64.828 31.7854H79.968C79.6474 24.1896 76.5801 16.95 71.31 11.3503C67.1174 16.0884 64.8167 22.1425 64.83 28.402L64.828 31.7854Z" fill="url(#paint0_linear_2_41)"/>
<path d="M28.76 25.2937C28.145 20.1473 25.9647 15.2985 22.5 11.3717C19.498 14.5523 17.1863 18.2923 15.704 22.3668H20.69C23.654 22.3668 26.518 23.4049 28.76 25.2937Z" fill="url(#paint1_linear_2_41)"/>
<path d="M8.27598 66.7746V68.121H24.956C25.2407 66.5317 26.0175 65.0656 27.182 63.92L34.316 56.96C35.3024 55.9914 35.8579 54.6825 35.862 53.3171V45.2429C35.8286 44.194 35.3779 43.1989 34.6056 42.4684C33.8332 41.7379 32.7997 41.3294 31.724 41.3294C30.6483 41.3294 29.6148 41.7379 28.8424 42.4684C28.07 43.1989 27.6194 44.194 27.586 45.2429V47.9356H24.828V45.2429C24.8292 43.692 25.3788 42.1889 26.384 40.9874C27.3893 39.7859 28.7887 38.9595 30.346 38.6478V34.4781C30.3433 31.9804 29.3252 29.5857 27.5149 27.8196C25.7046 26.0535 23.2501 25.0601 20.69 25.0576H9.65598C7.0957 25.0596 4.64089 26.0528 2.8305 27.819C1.02011 29.5853 0.00210194 31.9802 -1.66167e-05 34.4781V47.282C-0.00994095 50.7267 0.680719 54.1391 2.03197 57.3217C3.38322 60.5042 5.36821 63.3936 7.87198 65.8224C8.13027 66.0745 8.27556 66.4163 8.27598 66.7727V66.7746Z" fill="url(#paint2_linear_2_41)"/>
<path d="M5.51801 70.8098H27.586V78.8839H5.52001L5.51801 70.8098Z" fill="url(#paint3_linear_2_41)"/>
<path d="M62.07 28.402C62.0595 21.4284 64.654 14.69 69.368 9.44781C63.6104 4.22674 56.13 1.18467 48.276 0.870247V31.7854H62.068L62.07 28.402Z" fill="url(#paint4_linear_2_41)"/>
<path d="M31.724 28.96C32.198 29.8556 32.554 30.8039 32.784 31.7854H45.518V0.891708C37.6763 1.22972 30.211 4.26811 24.448 9.46732C29.1499 14.7075 31.7368 21.4377 31.726 28.402L31.724 28.96Z" fill="url(#paint5_linear_2_41)"/>
<path d="M64.828 34.4781V37.8634C64.8257 44.1177 67.126 50.1649 71.31 54.9034C76.5716 49.305 79.6281 42.0677 79.936 34.4781H64.828Z" fill="url(#paint6_linear_2_41)"/>
<path d="M45.518 54.6634V34.4781H33.104V38.6498C34.6611 38.9618 36.0603 39.7883 37.0655 40.9897C38.0707 42.1911 38.6205 43.694 38.622 45.2449V53.3171C38.6155 55.396 37.7689 57.3886 36.266 58.8624L32.732 62.3122C34.622 63.1863 36.594 63.8829 38.622 64.3922V58.7005C38.622 57.6299 39.0576 56.6032 39.8332 55.8458C40.6087 55.0885 41.6607 54.6625 42.758 54.6615L45.518 54.6634Z" fill="url(#paint7_linear_2_41)"/>
<path d="M62.07 34.4781H48.276V54.6634C49.3737 54.6634 50.4264 55.0887 51.2027 55.8457C51.9791 56.6028 52.4155 57.6296 52.416 58.7005V61.3912H68.966V58.6985C68.9708 58.0663 69.1298 57.4442 69.43 56.8839C64.685 51.6293 62.068 44.8663 62.07 37.8634V34.4781Z" fill="url(#paint8_linear_2_41)"/>
<path d="M73.104 57.3541H78.62C79.382 57.3541 80 58.0956 80 58.7005V77.5395C80 77.8966 79.8546 78.239 79.5958 78.4915C79.337 78.744 78.986 78.8859 78.62 78.8859H73.104C72.344 78.8859 71.724 78.1424 71.724 77.5395V58.7005C71.724 57.9571 72.344 57.3541 73.104 57.3541V57.3541Z" fill="url(#paint9_linear_2_41)"/>
<path d="M52.414 64.082H68.966V72.1561H52.414V64.082Z" fill="url(#paint10_linear_2_41)"/>
<path d="M42.76 57.3541H48.276C49.038 57.3541 49.656 58.0956 49.656 58.7005V77.5395C49.656 77.8966 49.5106 78.239 49.2518 78.4915C48.993 78.744 48.642 78.8859 48.276 78.8859H42.76C41.998 78.8859 41.38 78.1424 41.38 77.5395V58.7005C41.38 57.9571 41.998 57.3541 42.76 57.3541V57.3541Z" fill="url(#paint11_linear_2_41)"/>
<path d="M66.5172 76V81.4839H61V76H66.5172ZM83.069 76V81.4839H77.5517V76H83.069ZM74.7931 76V81.4839H69.2759V76H74.7931Z" fill="white"/>
<defs>
<linearGradient id="paint0_linear_2_41" x1="66.9389" y1="14.882" x2="81.6567" y2="30.432" gradientUnits="userSpaceOnUse">
<stop stop-color="#06354E" stop-opacity="0"/>
<stop offset="1" stop-color="#001F30"/>
</linearGradient>
<linearGradient id="paint1_linear_2_41" x1="17.5244" y1="13.7778" x2="27.6666" y2="26.0977" gradientUnits="userSpaceOnUse">
<stop stop-color="#06354E" stop-opacity="0"/>
<stop offset="1" stop-color="#001F30"/>
</linearGradient>
<linearGradient id="paint2_linear_2_41" x1="0.999999" y1="24.5" x2="26.5" y2="66" gradientUnits="userSpaceOnUse">
<stop stop-color="#06354E" stop-opacity="0"/>
<stop offset="1" stop-color="#001F30"/>
</linearGradient>
<linearGradient id="paint3_linear_2_41" x1="6" y1="71" x2="9.94585" y2="84.3402" gradientUnits="userSpaceOnUse">
<stop stop-color="#06354E" stop-opacity="0"/>
<stop offset="1" stop-color="#001F30"/>
</linearGradient>
<linearGradient id="paint4_linear_2_41" x1="48.5" y1="2.93455e-07" x2="68.7104" y2="26.5755" gradientUnits="userSpaceOnUse">
<stop stop-color="#06354E" stop-opacity="0"/>
<stop offset="1" stop-color="#001F30"/>
</linearGradient>
<linearGradient id="paint5_linear_2_41" x1="27.3857" y1="6.23091" x2="49.9558" y2="27.8749" gradientUnits="userSpaceOnUse">
<stop stop-color="#06354E" stop-opacity="0"/>
<stop offset="1" stop-color="#001F30"/>
</linearGradient>
<linearGradient id="paint6_linear_2_41" x1="65.5" y1="35" x2="77.889" y2="52.5589" gradientUnits="userSpaceOnUse">
<stop stop-color="#06354E" stop-opacity="0"/>
<stop offset="1" stop-color="#001F30"/>
</linearGradient>
<linearGradient id="paint7_linear_2_41" x1="33" y1="34" x2="52.6732" y2="50.0852" gradientUnits="userSpaceOnUse">
<stop stop-color="#06354E" stop-opacity="0"/>
<stop offset="1" stop-color="#001F30"/>
</linearGradient>
<linearGradient id="paint8_linear_2_41" x1="48" y1="32.5" x2="69.9901" y2="60.844" gradientUnits="userSpaceOnUse">
<stop stop-color="#06354E" stop-opacity="0"/>
<stop offset="1" stop-color="#001F30"/>
</linearGradient>
<linearGradient id="paint9_linear_2_41" x1="70.5" y1="59" x2="84.2003" y2="67.2068" gradientUnits="userSpaceOnUse">
<stop stop-color="#06354E" stop-opacity="0"/>
<stop offset="1" stop-color="#001F30"/>
</linearGradient>
<linearGradient id="paint10_linear_2_41" x1="52" y1="64" x2="54.8812" y2="74.4503" gradientUnits="userSpaceOnUse">
<stop stop-color="#06354E" stop-opacity="0"/>
<stop offset="1" stop-color="#001F30"/>
</linearGradient>
<linearGradient id="paint11_linear_2_41" x1="41" y1="55" x2="56.1098" y2="66.1143" gradientUnits="userSpaceOnUse">
<stop stop-color="#06354E" stop-opacity="0"/>
<stop offset="1" stop-color="#001F30"/>
</linearGradient>
</defs>
</svg>
