<svg width="129" height="125" viewBox="0 0 129 125" fill="none" xmlns="http://www.w3.org/2000/svg">
<path d="M104.243 49.7836H128.587C128.072 37.7013 123.14 26.1854 114.665 17.2782C107.924 24.8149 104.224 34.445 104.246 44.4018L104.243 49.7836Z" fill="#EBEBEB"/>
<path d="M46.2456 39.4575C45.2567 31.2713 41.7508 23.5585 36.1797 17.3122C31.3525 22.3715 27.6353 28.3206 25.2518 34.8018H33.2692C38.0353 34.8018 42.6405 36.453 46.2456 39.4575Z" fill="#EBEBEB"/>
<path d="M13.3077 105.439V107.582H40.1289C40.5866 105.054 41.8357 102.721 43.7082 100.899L55.1795 89.8284C56.7657 88.2873 57.6589 86.205 57.6655 84.0334V71.1901C57.6118 69.5216 56.8871 67.9387 55.6452 66.7767C54.4033 65.6147 52.7414 64.965 51.0117 64.965C49.282 64.965 47.6201 65.6147 46.3781 66.7767C45.1361 67.9387 44.4115 69.5216 44.3578 71.1901V75.4732H39.923V71.1901C39.925 68.7231 40.8087 66.3321 42.4251 64.421C44.0415 62.5098 46.2917 61.1953 48.7959 60.6995V54.0668C48.7915 50.0938 47.1544 46.2846 44.2435 43.4754C41.3326 40.6661 37.3858 39.0859 33.2692 39.0819H15.5267C11.4098 39.0851 7.46249 40.665 4.55141 43.4744C1.64033 46.284 0.00339306 50.0935 -1.35377e-05 54.0668V74.4335C-0.0159717 79.913 1.0946 85.3408 3.26739 90.4037C5.44017 95.4658 8.63201 100.062 12.658 103.925C13.0733 104.326 13.307 104.87 13.3077 105.437V105.439Z" fill="#EBEBEB"/>
<path d="M8.87286 111.859H44.3579V124.702H8.87613L8.87286 111.859Z" fill="#EBEBEB"/>
<path d="M99.8073 44.4018C99.7906 33.3091 103.963 22.5905 111.543 14.2519C102.284 5.94695 90.256 1.10802 77.6269 0.60788V49.7836H99.8043L99.8073 44.4018Z" fill="#EBEBEB"/>
<path d="M51.0117 45.2894C51.7738 46.714 52.3463 48.2224 52.7161 49.7836H73.1922V0.642029C60.5829 1.17969 48.5787 6.01277 39.312 14.283C46.8725 22.6183 51.0322 33.3238 51.0149 44.4018L51.0117 45.2894Z" fill="#EBEBEB"/>
<path d="M104.243 54.0668V59.4517C104.239 69.4002 107.937 79.0194 114.665 86.5567C123.126 77.6514 128.041 66.1394 128.536 54.0668H104.243Z" fill="#EBEBEB"/>
<path d="M73.1922 86.1747V54.0668H53.2306V60.7026C55.7345 61.1989 57.9844 62.5136 59.6007 64.4246C61.217 66.3356 62.1011 68.7262 62.1036 71.1932V84.0334C62.0931 87.3401 60.7318 90.5101 58.3151 92.854L52.6325 98.3416C55.6716 99.7321 58.8425 100.84 62.1036 101.65V92.5963C62.1036 90.8936 62.804 89.2609 64.0511 88.0559C65.2981 86.8509 66.9897 86.1731 68.7541 86.1716L73.1922 86.1747Z" fill="#EBEBEB"/>
<path d="M99.8073 54.0668H77.6269V86.1747C79.3919 86.1747 81.0848 86.8517 82.3331 88.0559C83.5814 89.2601 84.2833 90.8929 84.284 92.5963V96.8766H110.896V92.5932C110.904 91.5877 111.159 90.5986 111.642 89.7073C104.013 81.3486 99.8043 70.591 99.8073 59.4517V54.0668Z" fill="#EBEBEB"/>
<path d="M117.55 90.455H126.42C127.645 90.455 128.639 91.6343 128.639 92.5963V122.563C128.639 123.131 128.405 123.676 127.988 124.078C127.573 124.479 127.008 124.705 126.42 124.705H117.55C116.328 124.705 115.331 123.522 115.331 122.563V92.5963C115.331 91.4138 116.328 90.455 117.55 90.455Z" fill="#EBEBEB"/>
<path d="M84.281 101.157H110.896V114H84.281V101.157Z" fill="#EBEBEB"/>
<path d="M68.7574 90.455H77.6269C78.8524 90.455 79.8457 91.6343 79.8457 92.5963V122.563C79.8457 123.131 79.612 123.676 79.1961 124.078C78.7795 124.479 78.2157 124.705 77.6269 124.705H68.7574C67.5321 124.705 66.5384 123.522 66.5384 122.563V92.5963C66.5384 91.4138 67.5321 90.455 68.7574 90.455Z" fill="#EBEBEB"/>
</svg>
