<svg width="105" height="115" viewBox="0 0 105 115" fill="none" xmlns="http://www.w3.org/2000/svg">
<path d="M41.9022 68.2643C34.8395 68.2643 28.6023 64.5362 25.0709 58.2846C24.0113 56.3602 24.6002 53.8355 26.483 52.753C28.3657 51.6718 30.8375 52.2722 31.8982 54.1955C34.0163 57.8027 37.7831 60.0883 41.9034 60.0883C46.0225 60.0883 49.7893 57.9234 51.6721 54.3162C52.7317 52.2722 55.2035 51.6718 57.0875 52.753C58.9702 53.8355 59.6762 56.3602 58.6177 58.2846C55.3206 64.5362 48.965 68.2631 41.9022 68.2631V68.2643ZM15.773 35.2004C15.5329 34.9502 15.3543 34.6454 15.2518 34.3111C15.1491 33.9768 15.1255 33.6225 15.1827 33.2772C15.5363 29.7895 18.1252 23.0572 26.1293 23.0572C33.8981 23.0572 36.7222 29.6688 37.0759 33.2772C37.1333 33.6225 37.1098 33.9767 37.0074 34.3109C36.905 34.6452 36.7266 34.95 36.4868 35.2004C36.0162 35.6811 35.309 36.0423 34.6029 36.0423H17.5374C16.9496 36.0423 16.2424 35.8007 15.7718 35.2004H15.773ZM57.674 23.1767C65.5598 23.1767 68.3852 29.7895 68.6205 33.3967C68.6779 33.742 68.6544 34.0963 68.552 34.4306C68.4498 34.7648 68.2714 35.0695 68.0316 35.3199C67.5608 35.8007 66.9719 36.1632 66.2659 36.1632H49.2004C48.4931 36.1632 47.9042 35.9216 47.4347 35.3199C47.1949 35.0695 47.0165 34.7648 46.9141 34.4306C46.8118 34.0963 46.7883 33.742 46.8458 33.3967C47.0811 29.7895 49.7881 23.1767 57.674 23.1767ZM81.5681 42.776C82.1571 41.8144 82.8631 40.7319 83.6862 39.8899V4.4208C83.6862 3.21881 83.2155 2.13641 82.2742 1.41521C81.8518 1.0561 81.364 0.786184 80.8387 0.621127C80.3136 0.456057 79.7615 0.399122 79.2146 0.453629L78.2733 0.573217C54.0368 3.57898 29.5335 3.57898 5.29707 0.573217L4.58983 0.332815C3.4131 0.213232 2.23638 0.574444 1.41207 1.2944C0.588966 2.13641 0 3.22005 0 4.42204V43.2555C0 50.709 1.41207 58.0443 4.12034 65.0183C10.3576 80.7673 25.1879 91.107 41.9022 91.107C44.0203 91.107 46.0226 90.9873 48.1407 90.6261C48.6113 89.6645 49.0821 88.8226 49.5528 87.9817C51.8188 84.6002 55.1371 82.1001 58.9689 80.887L81.5681 42.776Z" fill="url(#paint0_linear_3_80)"/>
<path d="M100.753 43.3751C96.3984 40.2499 90.277 41.5727 87.5712 46.382L67.3255 80.527C69.6789 80.887 71.9166 81.8498 73.9176 83.2922C75.9174 84.7345 77.566 86.4173 78.861 88.4614L102.872 56.9606C106.05 52.6334 105.109 46.382 100.754 43.3751H100.753Z" fill="url(#paint1_linear_3_80)"/>
<path d="M70.0326 89.0629C65.2074 85.6974 58.6153 86.8994 55.2023 91.8282C51.6709 97.1182 55.2023 104.331 48.9639 111.305C47.7871 112.507 48.6113 114.551 50.2588 114.551C61.9114 114.793 69.2094 109.261 72.6226 104.092C76.0358 99.1621 74.859 92.4298 70.0338 89.0629H70.0326Z" fill="url(#paint2_linear_3_80)"/>
<defs>
<linearGradient id="paint0_linear_3_80" x1="-1.65208e-06" y1="-6.45626" x2="79.6448" y2="95.4543" gradientUnits="userSpaceOnUse">
<stop stop-color="#06354E" stop-opacity="0"/>
<stop offset="1" stop-color="#001F30"/>
</linearGradient>
<linearGradient id="paint1_linear_3_80" x1="67.3255" y1="38.198" x2="109.378" y2="84.9105" gradientUnits="userSpaceOnUse">
<stop stop-color="#06354E" stop-opacity="0"/>
<stop offset="1" stop-color="#001F30"/>
</linearGradient>
<linearGradient id="paint2_linear_3_80" x1="48.4101" y1="85.1168" x2="72.2256" y2="116.692" gradientUnits="userSpaceOnUse">
<stop stop-color="#06354E" stop-opacity="0"/>
<stop offset="1" stop-color="#001F30"/>
</linearGradient>
</defs>
</svg>
