<svg width="80" height="86" viewBox="0 0 80 86" fill="none" xmlns="http://www.w3.org/2000/svg">
<path d="M31.9255 51.3511C26.5444 51.3511 21.7922 48.5872 19.1016 43.9524C18.2943 42.5257 18.743 40.6539 20.1775 39.8514C21.612 39.0498 23.4952 39.4949 24.3034 40.9208C25.9172 43.5951 28.7871 45.2896 31.9264 45.2896C35.0648 45.2896 37.9347 43.6846 39.3692 41.0103C40.1765 39.4949 42.0598 39.0498 43.4952 39.8514C44.9297 40.6539 45.4676 42.5257 44.6611 43.9524C42.149 48.5872 37.3067 51.3502 31.9255 51.3502V51.3511ZM12.0175 26.8382C11.8346 26.6527 11.6985 26.4268 11.6204 26.1789C11.5422 25.9311 11.5242 25.6684 11.5678 25.4124C11.8372 22.8267 13.8097 17.8355 19.908 17.8355C25.8271 17.8355 27.9788 22.7372 28.2483 25.4124C28.292 25.6684 28.2741 25.931 28.1961 26.1788C28.1181 26.4266 27.9822 26.6526 27.7995 26.8382C27.4409 27.1946 26.9021 27.4624 26.3641 27.4624H13.3618C12.914 27.4624 12.3752 27.2833 12.0166 26.8382H12.0175ZM43.9421 17.9241C49.9503 17.9241 52.103 22.8267 52.2823 25.501C52.326 25.757 52.3081 26.0197 52.2301 26.2675C52.1522 26.5153 52.0163 26.7412 51.8336 26.9268C51.4749 27.2833 51.0262 27.552 50.4883 27.552H37.486C36.9471 27.552 36.4984 27.3729 36.1407 26.9268C35.958 26.7412 35.8221 26.5153 35.7441 26.2675C35.6661 26.0197 35.6482 25.757 35.692 25.501C35.8713 22.8267 37.9338 17.9241 43.9421 17.9241ZM62.1471 32.4546C62.5959 31.7417 63.1338 30.9392 63.7609 30.3149V4.01887C63.7609 3.12774 63.4023 2.32527 62.6851 1.79059C62.3633 1.52435 61.9916 1.32424 61.5914 1.20187C61.1913 1.07949 60.7707 1.03728 60.354 1.07769L59.6368 1.16635C41.1709 3.39476 22.5017 3.39476 4.03586 1.16635L3.49701 0.988121C2.60046 0.899465 1.70391 1.16726 1.07586 1.70102C0.448736 2.32527 0 3.12866 0 4.01979V32.8101C0 38.336 1.07586 43.7742 3.13931 48.9446C7.89149 60.6206 19.1908 68.2862 31.9255 68.2862C33.5393 68.2862 35.0648 68.1975 36.6786 67.9297C37.0372 67.2168 37.3959 66.5926 37.7545 65.9692C39.481 63.4622 42.0092 61.6087 44.9287 60.7093L62.1471 32.4546Z" fill="url(#paint0_linear_2_57)"/>
<path d="M76.7641 32.8988C73.4464 30.5818 68.7825 31.5625 66.7209 35.128L51.2956 60.4424C53.0887 60.7093 54.7936 61.4231 56.3182 62.4925C57.8418 63.5618 59.0979 64.8094 60.0846 66.3248L78.3788 42.9708C80.8 39.7627 80.0828 35.128 76.7651 32.8988H76.7641Z" fill="url(#paint1_linear_2_57)"/>
<path d="M53.3582 66.7708C49.6818 64.2757 44.6593 65.1668 42.0589 68.8209C39.3683 72.7428 42.0589 78.0904 37.3058 83.2608C36.4092 84.1519 37.0372 85.6673 38.2924 85.6673C47.1706 85.8465 52.731 81.7454 55.3315 77.9131C57.932 74.2581 57.0354 69.2669 53.3591 66.7708H53.3582Z" fill="url(#paint2_linear_2_57)"/>
<path d="M62.5287 75.0323V80.5161H57.0115V75.0323H62.5287ZM79.0805 75.0323V80.5161H73.5632V75.0323H79.0805ZM70.8046 75.0323V80.5161H65.2874V75.0323H70.8046Z" fill="white"/>
<defs>
<linearGradient id="paint0_linear_2_57" x1="5.08808e-07" y1="-4.04516" x2="58.6381" y2="73.0633" gradientUnits="userSpaceOnUse">
<stop stop-color="#06354E" stop-opacity="0"/>
<stop offset="1" stop-color="#001F30"/>
</linearGradient>
<linearGradient id="paint1_linear_2_57" x1="51.2956" y1="29.0606" x2="82.3722" y2="64.5364" gradientUnits="userSpaceOnUse">
<stop stop-color="#06354E" stop-opacity="0"/>
<stop offset="1" stop-color="#001F30"/>
</linearGradient>
<linearGradient id="paint2_linear_2_57" x1="36.8839" y1="63.8452" x2="54.4022" y2="87.7142" gradientUnits="userSpaceOnUse">
<stop stop-color="#06354E" stop-opacity="0"/>
<stop offset="1" stop-color="#001F30"/>
</linearGradient>
</defs>
</svg>
