<svg width="80" height="60" viewBox="0 0 80 60" fill="none" xmlns="http://www.w3.org/2000/svg">
<path d="M47.9367 30.1872C47.9367 35.2192 43.6867 39.2976 38.445 39.2976C33.2042 39.2976 28.955 35.2184 28.955 30.1872C28.955 25.1552 33.205 21.0752 38.4458 21.0752C43.6875 21.0752 47.9367 25.1552 47.9367 30.1872Z" fill="url(#paint0_linear_2_85)"/>
<path d="M48.1608 37.2016C45.935 40.0392 42.4283 41.9 38.445 41.9C34.4617 41.9 30.9558 40.0392 28.73 37.2016C24.76 40.052 22.1758 44.584 22.1758 49.7096V52.3128C22.1763 53.6935 22.7478 55.0175 23.7648 55.9938C24.7817 56.9701 26.1609 57.5188 27.5992 57.5192H49.2917C50.7299 57.5188 52.1091 56.9701 53.126 55.9938C54.143 55.0175 54.7145 53.6935 54.715 52.3128V49.7096C54.715 44.584 52.1317 40.052 48.1608 37.2016V37.2016Z" fill="url(#paint1_linear_2_85)"/>
<path d="M47.9367 9.3616C47.9367 14.3936 43.6867 18.4728 38.445 18.4728C33.2042 18.4728 28.955 14.3936 28.955 9.3616C28.955 4.3296 33.205 0.2512 38.4458 0.2512C43.6875 0.2512 47.9367 4.3296 47.9367 9.3616" fill="url(#paint2_linear_2_85)"/>
<path d="M69.6292 17.1712C69.6292 22.2032 65.38 26.2824 60.1383 26.2824C54.8967 26.2824 50.6483 22.2032 50.6483 17.1712C50.6483 12.1392 54.8967 8.06 60.1383 8.06C65.38 8.06 69.6292 12.14 69.6292 17.172" fill="url(#paint3_linear_2_85)"/>
<path d="M69.8542 24.1896C67.6275 27.024 64.1208 28.8856 60.1375 28.8856C56.1542 28.8856 52.6483 27.024 50.4225 24.1896C50.0483 24.4552 49.7042 24.752 49.3542 25.0456C50.1542 26.6056 50.6475 28.3336 50.6475 30.1864C50.6475 31.8944 50.2592 33.5064 49.5742 34.964L49.785 35.12C53.1342 37.52 55.4683 40.8048 56.6158 44.5016H70.9833C72.4215 44.5012 73.8007 43.9525 74.8177 42.9762C75.8347 41.9999 76.4062 40.6759 76.4067 39.2952V36.692C76.4067 31.5688 73.8233 27.0368 69.8533 24.1888L69.8542 24.1896Z" fill="url(#paint4_linear_2_85)"/>
<path d="M26.2433 17.1712C26.2433 22.2032 21.995 26.2824 16.7533 26.2824C11.5117 26.2824 7.2625 22.2032 7.2625 17.1712C7.2625 12.1392 11.5117 8.06 16.7533 8.06C21.995 8.06 26.2433 12.14 26.2433 17.172" fill="url(#paint5_linear_2_85)"/>
<path d="M27.1067 35.12L27.3208 34.9656C26.6103 33.4647 26.2432 31.835 26.2442 30.1864C26.2442 28.3336 26.7358 26.6056 27.535 25.0456C27.1875 24.752 26.8408 24.4544 26.4683 24.1896C24.2433 27.024 20.7367 28.8848 16.7542 28.8848C12.7708 28.8848 9.26417 27.0232 7.0375 24.1888C3.06917 27.0368 0.485001 31.568 0.485001 36.6944V39.2976C0.485663 40.6782 1.05729 42.002 2.07424 42.9781C3.09119 43.9542 4.47026 44.5028 5.90833 44.5032H20.28C21.4366 40.7477 23.8327 37.4544 27.1075 35.1192L27.1067 35.12Z" fill="url(#paint6_linear_2_85)"/>
<path d="M65 55.2V60H60V55.2H65ZM80 55.2V60H75V55.2H80ZM72.5 55.2V60H67.5V55.2H72.5Z" fill="white"/>
<defs>
<linearGradient id="paint0_linear_2_85" x1="25.975" y1="1.544" x2="48.0888" y2="40.0912" gradientUnits="userSpaceOnUse">
<stop stop-color="#06354E" stop-opacity="0"/>
<stop offset="1" stop-color="#001F30"/>
</linearGradient>
<linearGradient id="paint1_linear_2_85" x1="17.0667" y1="15.424" x2="55.5818" y2="59.0871" gradientUnits="userSpaceOnUse">
<stop stop-color="#06354E" stop-opacity="0"/>
<stop offset="1" stop-color="#001F30"/>
</linearGradient>
<linearGradient id="paint2_linear_2_85" x1="25.975" y1="-19.28" x2="48.0888" y2="19.2672" gradientUnits="userSpaceOnUse">
<stop stop-color="#06354E" stop-opacity="0"/>
<stop offset="1" stop-color="#001F30"/>
</linearGradient>
<linearGradient id="paint3_linear_2_85" x1="47.6667" y1="-11.456" x2="69.7808" y2="27.0754" gradientUnits="userSpaceOnUse">
<stop stop-color="#06354E" stop-opacity="0"/>
<stop offset="1" stop-color="#001F30"/>
</linearGradient>
<linearGradient id="paint4_linear_2_85" x1="45.1" y1="2.424" x2="76.9009" y2="45.7571" gradientUnits="userSpaceOnUse">
<stop stop-color="#06354E" stop-opacity="0"/>
<stop offset="1" stop-color="#001F30"/>
</linearGradient>
<linearGradient id="paint5_linear_2_85" x1="4.28333" y1="-11.456" x2="26.3974" y2="27.0754" gradientUnits="userSpaceOnUse">
<stop stop-color="#06354E" stop-opacity="0"/>
<stop offset="1" stop-color="#001F30"/>
</linearGradient>
<linearGradient id="paint6_linear_2_85" x1="-3.76666" y1="2.424" x2="28.026" y2="45.7567" gradientUnits="userSpaceOnUse">
<stop stop-color="#06354E" stop-opacity="0"/>
<stop offset="1" stop-color="#001F30"/>
</linearGradient>
</defs>
</svg>
