<svg xmlns="http://www.w3.org/2000/svg" width="34" height="35" viewBox="0 0 34 35"><g><g><g><path fill="none" stroke="#fccc80" stroke-linecap="round" stroke-linejoin="round" stroke-miterlimit="20" stroke-width="3" d="M32 17.883c0 8.285-6.716 15-15 15-8.284 0-15-6.715-15-15 0-8.284 6.716-15 15-15 8.284 0 15 6.716 15 15z"/></g><g><path fill="none" stroke="#fccc80" stroke-linecap="round" stroke-linejoin="round" stroke-miterlimit="20" stroke-width="3" d="M26 17.883a9 9 0 1 1-18 0 9 9 0 0 1 18 0z"/></g><g><path fill="none" stroke="#fccc80" stroke-linecap="round" stroke-linejoin="round" stroke-miterlimit="20" stroke-width="3" d="M20 17.883a3 3 0 1 1-6 0 3 3 0 0 1 6 0z"/></g></g></g></svg>