<svg xmlns="http://www.w3.org/2000/svg" width="70" height="70" viewBox="0 0 70 70"><defs><clipPath id="ag8da"><path fill="#fff" d="M0 70V0h70v70z"/></clipPath></defs><g><g><path fill="none" stroke="#fccc80" stroke-miterlimit="20" stroke-width="2" d="M0 70v0V0v0h70v70z" clip-path="url(&quot;#ag8da&quot;)"/></g><g><path fill="#fccc80" d="M51.985 31.62l.015.015V34.5c0 .39-.075.75-.21 1.095L47.26 46.17A2.98 2.98 0 0 1 44.5 48H31c-1.65 0-3-1.35-3-3V30c0-.825.33-1.575.885-2.115L38.755 18l1.59 1.575c.405.405.66.975.66 1.59l-.045.48-1.425 6.855H49c1.65 0 3 1.35 3 3zM19 30h6v18h-6z"/></g></g></svg>