<svg xmlns="http://www.w3.org/2000/svg" width="19" height="19" viewBox="0 0 19 19"><g><g><g><path fill="#fff" d="M9.73 6.741a2.528 2.528 0 1 1 0 5.057 2.528 2.528 0 0 1 0-5.057zm0-1.685a4.214 4.214 0 1 0 0 8.427 4.214 4.214 0 0 0 0-8.427z"/></g><g><path fill="#fff" d="M14.786 3.37a.843.843 0 1 0 0 1.686.843.843 0 0 0 0-1.685z"/></g><g><path fill="#fff" d="M17.315 3.37v11.798c0 .931-.755 1.686-1.686 1.686H3.831c-.93 0-1.685-.755-1.685-1.686V3.371c0-.931.754-1.686 1.685-1.686H15.63c.931 0 1.686.755 1.686 1.686zM3.83 0a3.37 3.37 0 0 0-3.37 3.37v11.798a3.37 3.37 0 0 0 3.37 3.371H15.63A3.37 3.37 0 0 0 19 15.17V3.37A3.37 3.37 0 0 0 15.63 0z"/></g></g></g></svg>