<svg xmlns="http://www.w3.org/2000/svg" width="16" height="15" viewBox="0 0 16 15"><g><g><path fill="#fff" d="M5.467 14.726s.041-8.57 0-9.458h3.144v1.339c.417-.645 1.165-1.561 2.833-1.561 2.068 0 3.619 1.351 3.619 4.257v5.423h-3.144v-5.06c0-1.271-.455-2.139-1.592-2.139-.869 0-1.386.585-1.613 1.15-.083.202-.104.485-.104.767v5.282H5.467zM2.135 3.976C1.08 3.976.398 3.249.398 2.342c0-.928.703-1.634 1.778-1.634 1.076 0 1.738.706 1.758 1.634 0 .907-.683 1.634-1.779 1.634zM.583 14.726V5.268h3.144v9.458z"/></g></g></svg>