<svg xmlns="http://www.w3.org/2000/svg" width="127" height="36" viewBox="0 0 127 36"><g><g><g><path fill="#fff" d="M36.333 22.315V10.661h1.942v4.765h9.193v-4.765h1.943v11.654h-1.943V17.03h-9.193v5.285z"/></g><g><path fill="#fff" d="M55.464 22.315V10.661H66.69v1.558h-9.284v3.253h5.67v1.535h-5.67v3.705h9.374v1.603z"/></g><g><path fill="#fff" d="M72.97 12.738c.06.452.09 1.024.09 1.717v7.86h-1.65V10.66h1.582l5.669 7.59 5.285-7.59h1.807v11.655h-1.807v-7.86l.09-1.717c-.255.542-.489.964-.7 1.265l-4.449 6.483h-.497l-4.63-6.302c-.181-.24-.445-.723-.79-1.446"/></g><g><path fill="#fff" d="M91.807 22.315V10.661h1.942v11.654z"/></g><g><path fill="#fff" d="M98.289 22.316v-.79l8.628-9.284h-7.883V10.66h11v.655l-8.786 9.373h8.786v1.627z"/></g><g><path fill="#fff" d="M115.184 22.316V10.66h11.226v1.558h-9.284v3.253h5.67v1.536h-5.67v3.704h9.374v1.604z"/></g><g><path fill="#907140" d="M62.82 29.032h.203c.584 0 .876.211.876.633 0 .436-.283.654-.85.654h-.23zm.285 1.858c.425 0 .763-.109 1.014-.328.25-.219.376-.515.376-.89 0-.349-.118-.638-.352-.867a1.044 1.044 0 0 0-.466-.27c-.175-.048-.433-.072-.776-.072h-.699v4.087h.617v-1.66z"/></g><g><path fill="#907140" d="M67.373 30.34h.196c.584 0 .876-.223.876-.67 0-.418-.284-.627-.852-.627h-.22zm.768.468l1.265 1.742h-.754l-1.168-1.673h-.11v1.673h-.618v-4.087h.723c.54 0 .93.102 1.17.304.265.226.397.525.397.895 0 .29-.083.538-.249.747a1.11 1.11 0 0 1-.656.4"/></g><g><path fill="#907140" d="M71.972 30.496c0 .452.152.824.455 1.115.302.29.65.437 1.046.437.428 0 .79-.149 1.085-.445.295-.3.442-.665.442-1.096 0-.436-.146-.801-.437-1.096a1.441 1.441 0 0 0-1.074-.445c-.426 0-.785.148-1.077.445-.294.293-.44.655-.44 1.085m-.622-.008c0-.575.21-1.069.632-1.482.42-.413.925-.62 1.514-.62.583 0 1.082.209 1.499.625.418.417.627.917.627 1.501a2.01 2.01 0 0 1-.63 1.496c-.422.41-.93.617-1.527.617-.528 0-1.002-.183-1.422-.548-.462-.405-.693-.934-.693-1.589"/></g><g><path fill="#907140" d="M79.268 28.463v2.644c0 .316-.022.552-.066.707-.044.176-.12.326-.225.447-.207.242-.48.363-.82.363-.258 0-.5-.067-.723-.201l.301-.527c.15.1.29.151.421.151.184 0 .31-.07.381-.21.074-.138.111-.382.111-.73v-2.644z"/></g><g><path fill="#907140" d="M84.129 29.043H82.49v.982h1.591v.58h-1.59v1.365h1.638v.58h-2.256v-4.087h2.256z"/></g><g><path fill="#907140" d="M87.692 29.043v3.507h-.616v-3.507h-.94v-.58h2.494v.58z"/></g><g><path fill="#907140" d="M91.095 30.496c0 .452.151.824.455 1.115.302.29.65.437 1.045.437.43 0 .791-.149 1.086-.445.295-.3.442-.665.442-1.096 0-.436-.146-.801-.437-1.096a1.44 1.44 0 0 0-1.075-.445c-.425 0-.784.148-1.077.445-.293.293-.44.655-.44 1.085m-.621-.008c0-.575.21-1.069.633-1.482.42-.413.924-.62 1.513-.62.583 0 1.082.209 1.499.625.418.417.627.917.627 1.501a2.01 2.01 0 0 1-.63 1.496c-.422.41-.93.617-1.527.617-.528 0-1.002-.183-1.422-.548-.462-.405-.693-.934-.693-1.589"/></g><g><path fill="#907140" d="M99.457 29.072l-.5.297c-.093-.163-.182-.269-.267-.318a.622.622 0 0 0-.342-.085.63.63 0 0 0-.426.146.451.451 0 0 0-.17.36c0 .2.149.36.446.482l.407.166c.332.134.574.298.728.491.153.194.23.43.23.711 0 .376-.125.687-.376.932-.252.247-.565.37-.94.37-.354 0-.647-.105-.878-.314-.227-.21-.37-.506-.426-.887l.624-.138c.029.24.078.406.149.498.127.176.312.264.555.264a.646.646 0 0 0 .48-.193.668.668 0 0 0 .19-.49.688.688 0 0 0-.033-.218.544.544 0 0 0-.103-.182.831.831 0 0 0-.181-.157 1.778 1.778 0 0 0-.265-.139l-.394-.164c-.56-.236-.84-.582-.84-1.038 0-.306.118-.563.352-.77.235-.208.527-.312.876-.312.472 0 .84.23 1.104.688"/></g><g><path fill="#fff" d="M117.78 9.855v-.79h6.69v.79z"/></g><g><path fill="#907140" d="M0 0h7.215v10.771L0 15.431z"/></g><g><path fill="#907140" d="M18.863 0h7.367v11.394L7.215 23.863v11.189H0V20.314L18.863 7.377z"/></g><g><path fill="#907140" d="M26.512 16.34v18.712h-6.75V20.607z"/></g></g></g></svg>