<svg xmlns="http://www.w3.org/2000/svg" width="103" height="61" viewBox="0 0 103 61"><g><g><g><g><path fill="#c1c1c1" d="M86.18 31.847a19.162 19.162 0 0 1-5.078-.693l-3.925-1.385a2.54 2.54 0 0 1-1.154-.923c0-.231-.23-.693-.23-.924v-1.847c0-.51.413-.923.923-.923h.461l.924.462 3.694 1.154 4.155.462a9.465 9.465 0 0 0 4.848-1.155 3.694 3.694 0 0 0 1.847-3.232 3.463 3.463 0 0 0-.923-2.308 8.08 8.08 0 0 0-3.463-1.847l-4.848-1.616a10.62 10.62 0 0 1-5.541-3.232 8.31 8.31 0 0 1-1.616-5.079 6.695 6.695 0 0 1 .923-3.694 6.695 6.695 0 0 1 2.309-2.77L83.18.45l4.155-.462h4.387l2.077.693 1.385.462c.462.23.693.692.924.923.22.342.302.754.23 1.154v1.616c0 .693-.23.924-.692.924a1.385 1.385 0 0 1-1.154-.462 20.315 20.315 0 0 0-6.695-1.154 8.31 8.31 0 0 0-4.386.923 3.232 3.232 0 0 0-1.616 3.001 3.232 3.232 0 0 0 1.154 2.309 6.695 6.695 0 0 0 3.694 1.847l4.617 1.616a9.234 9.234 0 0 1 5.31 3.232 7.157 7.157 0 0 1 1.616 4.617 9.927 9.927 0 0 1-.924 3.925 8.08 8.08 0 0 1-2.54 3 6.926 6.926 0 0 1-3.693 1.848 11.312 11.312 0 0 1-4.848 1.385zm-43.4-.924a1.385 1.385 0 0 1-1.155-.461 2.078 2.078 0 0 1-.923-1.385L32.852 2.99a4.155 4.155 0 0 1-.23-1.386c0-.382.31-.692.692-.692h4.617c.327.407.563.88.693 1.385l5.772 22.393 5.31-22.393a1.847 1.847 0 0 1 .461-1.385h5.54l.693 1.385 5.31 22.624L67.48 2.297l.693-1.385h4.386c.693 0 .924.23.924.692v.693c0 .23-.231.462-.231.693l-8.311 26.317a1.385 1.385 0 0 1-.693 1.155l-1.154.461h-3.001a1.616 1.616 0 0 1-1.847-1.846l-5.31-21.701-5.31 21.7a1.847 1.847 0 0 1-.461 1.386l-1.385.461zM15.77 27.23l3.462-.693a9.696 9.696 0 0 0 3.232-2.078 7.157 7.157 0 0 0 1.154-2.308c0-.693.231-1.616.231-2.77v-1.386l-3.001-.692h-3.232a7.85 7.85 0 0 0-5.079 1.385 4.848 4.848 0 0 0-1.616 3.925 4.848 4.848 0 0 0 1.154 3.462 4.848 4.848 0 0 0 3.694 1.155zm13.62-5.08c.023 1.017.179 2.026.461 3.002l.924 2.309c.169.189.252.44.23.692 0 .462-.23.693-.461 1.154l-2.309 1.386h-.692a1.385 1.385 0 0 1-1.154-.462 4.156 4.156 0 0 1-1.155-1.616c-.436-.582-.822-1.2-1.154-1.847a12.466 12.466 0 0 1-9.927 4.617 9.234 9.234 0 0 1-6.695-2.54 8.773 8.773 0 0 1-2.54-6.463 9.003 9.003 0 0 1 3.233-6.926 12.005 12.005 0 0 1 8.08-2.54h3.694l3.924.693v-2.078a8.08 8.08 0 0 0-1.616-5.31 8.773 8.773 0 0 0-5.54-1.615l-3.694.461-3.694 1.155-1.154.461h-.462c-.462 0-.693-.461-.693-1.154V3.913c-.07-.4.012-.812.231-1.154l.924-.693A17.314 17.314 0 0 1 12.306.681a21.008 21.008 0 0 1 5.31-.693 12.697 12.697 0 0 1 9.003 2.77c2.003 2.286 3.001 5.282 2.77 8.312v11.08z"/></g><g><path fill="#c1c1c1" d="M97.262 42.928c1.385 1.847-2.54 11.774-3.001 12.697-.462.924.462 1.385 1.385.693 6.002-5.079 7.388-15.698 6.233-17.084-1.154-1.385-11.543-2.77-18.007 1.616-.923.693-3 2.078.462 1.616 3.463-.461 11.543-1.385 12.928.462zm-4.617 5.31c1.847-1.385.23-3.463-1.616-2.54a104.348 104.348 0 0 1-38.323 7.85c-17.654-.014-35-4.63-50.327-13.39-1.154-.924-2.308.461-1.154 1.385a74.106 74.106 0 0 0 50.327 19.161c13.852 0 30.012-4.386 41.093-12.466z"/></g></g></g></g></svg>