<svg xmlns="http://www.w3.org/2000/svg" width="83" height="102" viewBox="0 0 83 102"><g><g><g><g><path fill="#c1c1c1" d="M45.75 8.984A21.7 21.7 0 0 1 61.678.21a21.239 21.239 0 0 1-5.31 16.16c-6.926 8.542-15.006 7.157-15.006 7.157s-1.616-6.695 4.386-14.544z"/></g><g><path fill="#c1c1c1" d="M42.056 29.3c3.463 0 9.927-4.618 18.238-4.618A22.393 22.393 0 0 1 80.147 34.84 21.932 21.932 0 0 0 69.067 54a22.624 22.624 0 0 0 13.85 20.777s-9.695 26.78-22.623 26.78c-5.772 0-10.39-3.925-16.622-3.925-6.233 0-12.697 4.156-16.853 4.156-11.774 0-26.78-25.625-26.78-46.172 0-20.546 12.698-30.704 24.472-30.704 7.618 0 13.62 4.386 17.545 4.386z"/></g></g></g></g></svg>