<svg xmlns="http://www.w3.org/2000/svg" width="100" height="86" viewBox="0 0 100 86"><g><g><g><path fill="#c1c1c1" d="M61.113 85.369h36.513a2.041 2.041 0 0 0 2.268-2.268 1.36 1.36 0 0 0-.227-.907l-18.143-31.07a2.495 2.495 0 0 0-3.175-.681l-.68.68-18.37 30.844a2.268 2.268 0 0 0 .68 2.948z"/></g><g><path fill="#c1c1c1" d="M67.01 60.422l9.524-16.102a2.041 2.041 0 0 0 0-2.268L52.494 1.229a2.041 2.041 0 0 0-2.948-.68c-.453 0-.68.454-.907.68l-9.525 16.103a2.495 2.495 0 0 0 0 2.494l24.04 40.596a2.041 2.041 0 0 0 2.948.68z"/></g><g><path fill="#c1c1c1" d="M33.671 26.176L.333 81.966a2.268 2.268 0 0 0 .907 2.95l1.134.453H50.68a2.041 2.041 0 0 0 1.815-1.134l9.071-14.968a2.041 2.041 0 0 0 0-2.268l-24.04-40.823a2.495 2.495 0 0 0-3.175-.68z"/></g></g></g></svg>