<svg xmlns="http://www.w3.org/2000/svg" width="19" height="16" viewBox="0 0 19 16"><g><g><path fill="#fff" d="M19 2.734a7.702 7.702 0 0 1-1.9 1.964 10.885 10.885 0 0 1-.434 3.547 10.895 10.895 0 0 1-1.358 2.926 11.555 11.555 0 0 1-2.178 2.477c-.842.72-1.854 1.293-3.037 1.72-1.183.428-2.45.642-3.802.642-2.11 0-4.054-.57-5.83-1.71.315.036.617.053.907.053a7.457 7.457 0 0 0 4.724-1.629 3.69 3.69 0 0 1-2.209-.759 3.738 3.738 0 0 1-1.342-1.882 3.83 3.83 0 0 0 1.717-.064 3.707 3.707 0 0 1-2.183-1.31 3.68 3.68 0 0 1-.867-2.418v-.047a3.754 3.754 0 0 0 1.723.476 3.778 3.778 0 0 1-1.236-1.355 3.711 3.711 0 0 1-.457-1.809c0-.684.172-1.321.515-1.911A10.83 10.83 0 0 0 5.22 4.452 10.57 10.57 0 0 0 9.59 5.62a3.72 3.72 0 0 1-.099-.866c0-1.05.371-1.946 1.114-2.689A3.662 3.662 0 0 1 13.295.95c1.098 0 2.024.4 2.776 1.2a7.575 7.575 0 0 0 2.415-.924 3.677 3.677 0 0 1-1.671 2.105A7.601 7.601 0 0 0 19 2.734z"/></g></g></svg>