<svg xmlns="http://www.w3.org/2000/svg" width="1515.763" height="838.81" viewBox="0 0 1515.763 838.81">
  <g id="bg" opacity="0.04">
    <path id="Caminho_26101" data-name="Caminho 26101" d="M420.722,646.391c4.31.2,8.618.4,12.946.65a44.582,44.582,0,0,0,18.625-2.74q9.791-3.814,13.92-11.434c3.137-5.75,3.659-12.422,1.442-19.869a223.038,223.038,0,0,0-7.394-21.365,229.675,229.675,0,0,1-11.828-41.164,3.437,3.437,0,0,1,1.245-3.463,51.78,51.78,0,0,1,8.762-5.623c-11.9.646-23.385-.85-34.834-2.418-25.946-3.535-49.079,2.74-69.651,18.627-12.6,9.807-25.1,19.471-39.072,27.568-25.748,14.965-29.138,47.113-5.95,70.516-5.229-16.533,4.9-18.174,14.171-21.436,10.008-3.535,19.925-3.014,29.733-1.174,21.89,3.984,43.579,8.691,64.819,14.568C417.206,646.66,418.25,646.266,420.722,646.391Z" transform="translate(-129.879 -6.272)" fill="#303030"/>
    <path id="Caminho_26102" data-name="Caminho 26102" d="M1620.579,467.292q48.9-12.549,97.888-25.225c-.523-2.867-.325-1.766-.848-4.633q-88.413,9.223-176.9,18.3c59.915-22.016,126.25-26.6,177.222-71.041-71.815,16.985-143.361,34.438-216.564,44.9,67.038-32.744,136.509-59.79,199.31-100.376-89.467,32.419-180.485,59.861-271.125,88.674,38.351-23.331,78.342-43.525,115.864-67.957,46.266-30.255,89.125-73.636,94.029-98.861C1567.769,314.916,1484.125,351.9,1403.222,394.3c51.694-45.473,104.36-89.521,138.348-151.2-70.644,67.038-148.265,124.23-230.809,175.383,32.022-42.011,63.648-83.644,81.751-133.822-18.5,19.076-35.033,39.739-52.667,59.338-32.148,35.737-60.781,76-102.468,101.024C1186.333,475.6,1029.125,554.739,998.2,572.77c-76.647,44.7-167.215,91.217-237.209,145.524-6.6,5.157-11.955,11.106-22.809,6.275C656.507,688.165,569,673,481.25,665.626c-95.472-8.041-166.836-46.987-212.237-131.875-2.218-4.183-3.661-10.061-12.874-11.377-6.6,49.729,35.808,73.583,60.06,112.728-7.717-5.1-10.386-6.726-12.946-8.618-29.011-21.168-48.087-49.6-61.033-82.8-1.443-3.731-1.7-15.885-9.737-8.564-10.53,9.61-8.889-1.82-10.187-4.778-5.878-13.271-7.194-28.885-18.824-39.343-8.294,108.021,51.1,162.058,152,182.775,53.64,23.206,158.921,72.465,172.444,79.262,19.671,9.935,21.113,10.655,24.629,18.878a45.816,45.816,0,0,1,25.478,4.832c11.178,5.824,18.156,16.083,20.915,30.652,2.344,12.676,4.706,25.351,7,38.1.451,2.417,2.939,7.446,7.447,15.164q11.359,19.311-9.61,26.342-36.268,12.253-65.937,11.233c-1.641-.071-3.462-.27-5.482-.522C560.44,907.9,587.5,920.65,613.125,937.184c95.4,61.484,201.13,76.4,311.314,71.491,13.4-.649,22.539,1.893,32.221,10.132,12.8,10.981,27.965,21.439,45.094,18.428a174.555,174.555,0,0,1,24.431-2.74h0v.035h15.38a136.592,136.592,0,0,1,37.288,6.637,184.835,184.835,0,0,0,30.94,7.283l118.821,32.617a23.205,23.205,0,0,0,28.109-14.46c3.84-10.98,10.458-23.836,21.636-32.077,22.809-16.822,37.811-40.64,36.765-63.737-1.045-23.079,19.022-45.635,19.022-45.635s6.924-18.049-37.738-11.558h-.018c-26.721-1.118-53.442-1.965-80.235-2.687-51.423-1.442-103.117-.65-153.494-13.595-13.4-3.462-27.389-6-37.648-17.256,7.573-9.809,33.916-7.97,15.741-31.553A1511.331,1511.331,0,0,1,1193.4,736.9c107.227-68.282,219.5-120.047,318.364-181.279,5.553-3.461,22.412-15.884,48.087-29.462,33.465-17.651,80.758-44.823,94.75-55.605h-33.717c-.126-1.119-.2-2.164-.325-3.264Z" transform="translate(-202.704 -243.1)" fill="#303030"/>
  </g>
</svg>
