<svg xmlns="http://www.w3.org/2000/svg" width="28" height="18" viewBox="0 0 28 18"><g><g><path fill="#194f70" d="M27.505 15.753c0 .743-.607 1.35-1.35 1.35H1.845c-.743 0-1.35-.607-1.35-1.35 0-.743.607-1.35 1.35-1.35h24.31c.743 0 1.35.607 1.35 1.35zm0-6.753c0 .743-.607 1.35-1.35 1.35H1.845c-.743 0-1.35-.607-1.35-1.35 0-.743.607-1.35 1.35-1.35h24.31c.743 0 1.35.607 1.35 1.35zM.495 2.247c0-.743.607-1.35 1.35-1.35h24.31c.743 0 1.35.607 1.35 1.35 0 .743-.607 1.35-1.35 1.35H1.845c-.743 0-1.35-.607-1.35-1.35z"/></g></g></svg>