<svg xmlns="http://www.w3.org/2000/svg" width="23" height="23" viewBox="0 0 23 23"><g><g><path fill="#fff" d="M22.65 1.511v19.494a.163.163 0 0 1-.054.109c-.027.53-.45.953-.98.98h-5.717v-8.386h2.668c.163 0 .163 0 .218-.163l.163-1.361c.054-.545.109-1.09.218-1.634.109-.545 0-.163-.11-.163H15.9V8.263c0-.163.054-.381.054-.545a.98.98 0 0 1 .871-.87l.708-.11h1.634c.109 0 .109 0 .109-.109V3.852c0-.054 0-.109-.11-.109h-2.504a3.92 3.92 0 0 0-1.797.382 3.267 3.267 0 0 0-1.906 1.688c-.31.605-.46 1.28-.435 1.96-.055.817 0 1.688 0 2.56H9.746c-.11 0-.11.054-.11.108v3.104c0 .109 0 .109.11.109h2.777v8.385a.163.163 0 0 0-.055.11H1.904a1.035 1.035 0 0 1-.98-.98c-.054 0-.054-.055-.054-.11V1.511c0-.055 0-.109.054-.109.027-.53.45-.953.98-.98h19.712c.53.027.953.45.98.98z"/></g></g></svg>