<svg xmlns="http://www.w3.org/2000/svg" width="23" height="23" viewBox="0 0 23 23"><g><g><path fill="#fff" d="M11.24.367H6.775a9.747 9.747 0 0 0-2.668.49A5.445 5.445 0 0 0 2.2 2.22c-.57.52-1 1.176-1.253 1.906a7.896 7.896 0 0 0-.544 2.668C.349 7.936.349 8.317.349 11.258c0 2.94 0 3.321.055 4.465.025.914.21 1.817.544 2.668.252.73.683 1.385 1.253 1.906.52.57 1.176 1 1.906 1.252a7.896 7.896 0 0 0 2.668.545h8.93a7.896 7.896 0 0 0 2.668-.545 4.628 4.628 0 0 0 1.906-1.252 5.445 5.445 0 0 0 1.307-1.906c.287-.862.452-1.76.49-2.668.054-1.144.054-1.525.054-4.465s0-3.322-.054-4.465a9.747 9.747 0 0 0-.49-2.668 5.445 5.445 0 0 0-1.307-1.906A5.445 5.445 0 0 0 18.373.912a9.747 9.747 0 0 0-2.668-.49H11.24m0 1.906h4.41a5.88 5.88 0 0 1 2.015.38 3.648 3.648 0 0 1 2.07 2.07 5.88 5.88 0 0 1 .38 2.015c.055 1.143.055 1.524.055 4.41s0 3.268-.055 4.411a5.88 5.88 0 0 1-.38 2.015 3.648 3.648 0 0 1-2.07 2.069 5.88 5.88 0 0 1-2.015.381H6.83a5.88 5.88 0 0 1-2.016-.381 3.648 3.648 0 0 1-2.069-2.07 5.88 5.88 0 0 1-.38-2.014c-.055-1.143-.055-1.525-.055-4.41 0-2.887 0-3.268.054-4.411a5.88 5.88 0 0 1 .381-2.015 3.648 3.648 0 0 1 2.07-2.07 5.88 5.88 0 0 1 2.014-.38h4.41"/></g><g><path fill="#fff" d="M11.24 14.906a3.648 3.648 0 1 1 0-7.296 3.648 3.648 0 0 1 0 7.296m0-9.257a5.609 5.609 0 1 0 0 11.217 5.609 5.609 0 0 0 0-11.217"/></g><g><path fill="#fff" d="M18.373 5.432a1.307 1.307 0 1 1-2.614 0 1.307 1.307 0 0 1 2.614 0"/></g></g></svg>