<?xml version="1.0" encoding="UTF-8"?>
<svg id="SVGDoc" width="18" height="18" xmlns="http://www.w3.org/2000/svg" version="1.1" xmlns:xlink="http://www.w3.org/1999/xlink" xmlns:avocode="https://avocode.com/" viewBox="0 0 18 18"><defs></defs><desc>Generated with Avocode.</desc><g><g><title>Caminho 26079</title><path d="M11.07188,8.94844v0l6.39375,-6.39375c0.58125,-0.58125 0.58125,-1.5375 0,-2.11875c-0.58125,-0.58125 -1.5375,-0.58125 -2.11875,0l-6.39375,6.39375v0l-6.39375,-6.39375c-0.58125,-0.58125 -1.5375,-0.58125 -2.11875,0c-0.29062,0.29063 -0.44062,0.675 -0.44062,1.05938c0,0.38438 0.15,0.76875 0.44062,1.05938l6.39375,6.39375v0l-6.39375,6.39375c-0.29062,0.29062 -0.44062,0.675 -0.44062,1.05937c0,0.38438 0.15,0.76875 0.44062,1.05937c0.58125,0.58125 1.5375,0.58125 2.11875,0l6.39375,-6.39375v0l6.39375,6.39375c0.58125,0.58125 1.5375,0.58125 2.11875,0c0.58125,-0.58125 0.58125,-1.5375 0,-2.11875z" fill="#ffffff" fill-opacity="1"></path></g></g></svg>