<svg xmlns="http://www.w3.org/2000/svg" width="22" height="23" viewBox="0 0 22 23"><g><g><path fill="#fff" d="M18.623 18.936h-3.212v-5.064c0-1.198 0-2.723-1.688-2.723s-1.906 1.307-1.906 2.668v5.119H8.604V8.59h3.05v1.415h.054a3.376 3.376 0 0 1 3.05-1.688c3.266 0 3.865 2.124 3.865 4.956zM4.956 7.174a1.906 1.906 0 0 1-1.851-1.906 1.851 1.851 0 1 1 3.702 0c0 1.032-.82 1.877-1.851 1.906zM6.59 18.936H3.322V8.59H6.59zM20.257.422H1.743A1.58 1.58 0 0 0 .11 2v18.568a1.58 1.58 0 0 0 1.633 1.58h18.514a1.58 1.58 0 0 0 1.58-1.58V2.001a1.58 1.58 0 0 0-1.58-1.58z"/></g></g></svg>