<svg xmlns="http://www.w3.org/2000/svg" width="38.021" height="38.02" viewBox="0 0 38.021 38.02">
  <g id="close" transform="translate(0.014 0.004)">
    <path id="Caminho_27013" data-name="Caminho 27013" d="M32.438,5.562a19.01,19.01,0,1,0,5.569,13.444A18.954,18.954,0,0,0,32.438,5.562ZM30,30a15.556,15.556,0,1,1,4.552-11A15.506,15.506,0,0,1,30,30Z" transform="translate(0 0)" fill="#bebebe"/>
    <path id="Caminho_27014" data-name="Caminho 27014" d="M24.041,21.636l6.106-6.106A1.728,1.728,0,0,0,27.7,13.088l0,0L21.6,19.193l-6.106-6.106a1.728,1.728,0,0,0-2.441,2.443l0,0,6.106,6.106L13.051,27.74a1.728,1.728,0,1,0,2.441,2.443l0,0L21.6,24.075l6.106,6.106a1.728,1.728,0,1,0,2.443-2.441l0,0Z" transform="translate(-2.601 -2.628)" fill="#bebebe"/>
  </g>
</svg>
