<?xml version="1.0" encoding="UTF-8"?>
<svg id="SVGDoc" width="30" height="30" xmlns="http://www.w3.org/2000/svg" version="1.1" xmlns:xlink="http://www.w3.org/1999/xlink" xmlns:avocode="https://avocode.com/" viewBox="0 0 30 30"><defs></defs><desc>Generated with Avocode.</desc><g><g><title>whatsapp</title><path d="M15.2674,0.47465c1.94685,0 3.80801,0.38179 5.58348,1.14537c1.77547,0.76358 3.30575,1.7882 4.59083,3.07384c1.28508,1.28565 2.3097,2.81592 3.07385,4.59083c0.76414,1.77491 1.14594,3.63607 1.14537,5.58348c-0.00057,1.94742 -0.38236,3.80858 -1.14537,5.58348c-0.76302,1.77491 -1.78763,3.30518 -3.07385,4.59083c-1.28621,1.28565 -2.81649,2.31026 -4.59083,3.07385c-1.77434,0.76358 -3.6355,1.14538 -5.58348,1.14537c-2.48193,0 -4.80463,-0.59813 -6.96811,-1.79442l-7.95992,2.55801l2.59618,-7.73085c-1.37445,-2.26586 -2.06167,-4.74128 -2.06167,-7.42626c0,-1.94685 0.38179,-3.80801 1.14537,-5.58348c0.76358,-1.77547 1.7882,-3.30575 3.07384,-4.59083c1.28565,-1.28508 2.81592,-2.3097 4.59083,-3.07384c1.77491,-0.76415 3.63607,-1.14594 5.58349,-1.14537zM15.2674,26.85643c1.61597,0 3.16548,-0.31816 4.64852,-0.95448c1.48305,-0.63632 2.7588,-1.48899 3.82725,-2.558c1.06845,-1.06902 1.92112,-2.34476 2.558,-3.82725c0.63688,-1.48248 0.95505,-3.03199 0.95448,-4.64852c-0.00057,-1.61653 -0.31873,-3.16604 -0.95448,-4.64852c-0.63575,-1.48248 -1.48842,-2.75823 -2.558,-3.82725c-1.06958,-1.06902 -2.34533,-1.92168 -3.82725,-2.558c-1.48191,-0.63632 -3.03142,-0.95448 -4.64852,-0.95448c-1.6171,0 -3.16661,0.31816 -4.64852,0.95448c-1.48191,0.63632 -2.75766,1.48899 -3.82724,2.558c-1.06958,1.06902 -1.92225,2.34476 -2.558,3.82725c-0.63575,1.48248 -0.95391,3.03199 -0.95448,4.64852c0,2.58317 0.76358,4.92482 2.29075,7.02496l-1.50765,4.44745l4.61967,-1.46947c2.01077,1.32354 4.20593,1.98532 6.58548,1.98532zM19.14215,16.73896c0.16516,0 0.78564,0.27998 1.86144,0.83994c1.0758,0.55996 1.64538,0.89707 1.70873,1.01132c0.02545,0.06335 0.03818,0.15866 0.03818,0.28592c0,0.41969 -0.10832,0.90329 -0.32495,1.4508c-0.20362,0.49605 -0.65527,0.91291 -1.35494,1.25058c-0.69967,0.33767 -1.34871,0.50651 -1.94714,0.50652c-0.72512,0 -1.93413,-0.39452 -3.62702,-1.18356c-1.24718,-0.5724 -2.32893,-1.32326 -3.24522,-2.25257c-0.9163,-0.92931 -1.85805,-2.10664 -2.82526,-3.532c-0.9163,-1.36144 -1.36794,-2.5959 -1.35493,-3.70337v-0.15272c0.03846,-1.15782 0.50934,-2.1632 1.41263,-3.01615c0.30543,-0.27998 0.63632,-0.41997 0.99266,-0.41997c0.07636,0 0.1909,0.00962 0.34361,0.02885c0.15272,0.01923 0.27348,0.02885 0.36228,0.02885c0.24152,0 0.41007,0.04129 0.50566,0.12387c0.09559,0.08258 0.19429,0.25764 0.2961,0.52518c0.10181,0.25453 0.31166,0.81449 0.62953,1.67988c0.31788,0.86539 0.4771,1.34278 0.47766,1.43214c0,0.26697 -0.21946,0.63293 -0.65838,1.09786c-0.43892,0.46494 -0.65866,0.76047 -0.65923,0.88661c0,0.08937 0.03168,0.18467 0.09503,0.28592c0.4327,0.92874 1.08174,1.80064 1.94713,2.6157c0.71268,0.67421 1.67338,1.31676 2.8821,1.92762c0.15272,0.08937 0.29271,0.13405 0.41997,0.13405c0.19061,0 0.53422,-0.30854 1.03083,-0.92563c0.49661,-0.61709 0.8275,-0.92563 0.99266,-0.92563z" fill="#ffffff" fill-opacity="1"></path></g></g></svg>