<svg xmlns="http://www.w3.org/2000/svg" width="188.878" height="49.428" viewBox="0 0 188.878 49.428">
  <g id="logo-header" transform="translate(-202.704 -243.1)">
    <g id="Grupo_9575" data-name="Grupo 9575" transform="translate(202.704 243.1)">
      <path id="Caminho_26101" data-name="Caminho 26101" d="M300.893,544.4c.254.012.508.023.763.038a2.627,2.627,0,0,0,1.1-.161,1.5,1.5,0,0,0,.82-.674,1.484,1.484,0,0,0,.085-1.171,13.152,13.152,0,0,0-.436-1.259,13.523,13.523,0,0,1-.7-2.426.2.2,0,0,1,.073-.2,3.055,3.055,0,0,1,.516-.331,10.7,10.7,0,0,1-2.053-.142,5.29,5.29,0,0,0-4.1,1.1,20.532,20.532,0,0,1-2.3,1.625,2.533,2.533,0,0,0-.351,4.155c-.308-.974.289-1.071.835-1.263a3.3,3.3,0,0,1,1.752-.069c1.29.235,2.568.512,3.82.859C300.686,544.412,300.748,544.389,300.893,544.4Z" transform="translate(-283.755 -506.676)" fill="#fff"/>
      <path id="Caminho_26102" data-name="Caminho 26102" d="M286.254,256.311q2.881-.739,5.768-1.486l-.05-.273q-5.21.543-10.424,1.078c3.531-1.3,7.439-1.567,10.443-4.186-4.232,1-8.448,2.029-12.761,2.646,3.95-1.929,8.044-3.523,11.745-5.915C285.7,250.085,280.339,251.7,275,253.4c2.26-1.375,4.616-2.565,6.827-4,2.726-1.783,5.252-4.339,5.541-5.826-4.224,3.762-9.153,5.941-13.921,8.44,3.046-2.68,6.15-5.275,8.152-8.91A83.381,83.381,0,0,1,268,253.435a30.112,30.112,0,0,0,4.817-7.886c-1.09,1.124-2.064,2.342-3.1,3.5-1.894,2.106-3.582,4.478-6.038,5.953-3.008,1.8-12.272,6.465-14.094,7.528-4.517,2.634-9.853,5.375-13.978,8.575-.389.3-.7.654-1.344.37A46.357,46.357,0,0,0,219.118,268c-5.626-.474-9.831-2.769-12.506-7.771-.131-.246-.216-.593-.759-.67-.389,2.93,2.11,4.336,3.539,6.643-.455-.3-.612-.4-.763-.508a10.578,10.578,0,0,1-3.6-4.879c-.085-.22-.1-.936-.574-.5-.62.566-.524-.107-.6-.282-.346-.782-.424-1.7-1.109-2.318-.489,6.365,3.011,9.549,8.957,10.77,3.161,1.367,9.365,4.27,10.161,4.671,1.159.585,1.244.628,1.451,1.112a2.7,2.7,0,0,1,1.5.285,2.4,2.4,0,0,1,1.232,1.806c.138.747.277,1.494.412,2.245a3.95,3.95,0,0,0,.439.894q.669,1.138-.566,1.552a11.075,11.075,0,0,1-3.885.662c-.1,0-.2-.016-.323-.031a23.464,23.464,0,0,1,4.76,2.326c5.622,3.623,11.852,4.5,18.345,4.213a2.441,2.441,0,0,1,1.9.6,3.355,3.355,0,0,0,2.657,1.086,10.276,10.276,0,0,1,1.44-.161h0v0h.906a8.049,8.049,0,0,1,2.2.391,10.894,10.894,0,0,0,1.823.429l7,1.922a1.367,1.367,0,0,0,1.656-.852,3.94,3.94,0,0,1,1.275-1.89,4.714,4.714,0,0,0,2.166-3.756,4.519,4.519,0,0,1,1.121-2.689s.408-1.064-2.224-.681h0c-1.575-.066-3.149-.116-4.728-.158a40.506,40.506,0,0,1-9.045-.8,4.109,4.109,0,0,1-2.218-1.017c.446-.578,2-.47.928-1.859a89.06,89.06,0,0,1,8.995-6.577c6.318-4.024,12.934-7.074,18.76-10.682a30.177,30.177,0,0,1,2.834-1.736,59.2,59.2,0,0,0,5.583-3.277h-1.987c-.007-.066-.012-.128-.019-.192Z" transform="translate(-202.704 -243.1)" fill="#fff"/>
    </g>
    <g id="Grupo_9579" data-name="Grupo 9579" transform="translate(289.827 260.826)">
      <g id="Grupo_9577" data-name="Grupo 9577" transform="translate(0 4.442)">
        <g id="Grupo_9576" data-name="Grupo 9576" transform="translate(20.851 5.873)">
          <path id="Caminho_26103" data-name="Caminho 26103" d="M1227.031,507.03a8.82,8.82,0,0,1,3.221.571,7.738,7.738,0,0,1,2.556,1.605,7.335,7.335,0,0,1,1.689,2.429,7.587,7.587,0,0,1,.6,3.042,7.817,7.817,0,0,1-.6,3.074,7.247,7.247,0,0,1-1.689,2.461,7.851,7.851,0,0,1-2.556,1.616,9.22,9.22,0,0,1-6.443,0,7.851,7.851,0,0,1-2.556-1.616,7.264,7.264,0,0,1-1.69-2.45,7.791,7.791,0,0,1-.6-3.084,7.639,7.639,0,0,1,.6-3.063,7.209,7.209,0,0,1,1.69-2.418,7.8,7.8,0,0,1,2.556-1.595A8.82,8.82,0,0,1,1227.031,507.03Zm.064,3.655a3.431,3.431,0,0,0-2.566,1.14,4.132,4.132,0,0,0-.782,1.278,4.558,4.558,0,0,0,.011,3.2,4.242,4.242,0,0,0,.793,1.289,3.574,3.574,0,0,0,1.152.855,3.251,3.251,0,0,0,1.394.306,3.021,3.021,0,0,0,1.351-.306,3.534,3.534,0,0,0,1.12-.855,4.069,4.069,0,0,0,.761-1.289,4.581,4.581,0,0,0,.275-1.605,4.468,4.468,0,0,0-.275-1.595,4.08,4.08,0,0,0-.761-1.278,3.4,3.4,0,0,0-1.12-.845,3.168,3.168,0,0,0-1.351-.3Z" transform="translate(-1218.96 -507.03)" fill="#fff"/>
          <path id="Caminho_26104" data-name="Caminho 26104" d="M1386.37,509.62h3.739l7.456,9.8-1.161.4v-10.2h4.014v14.808h-3.739l-7.435-9.759,1.161-.4v10.16h-4.034V509.62Z" transform="translate(-1368.583 -509.345)" fill="#fff"/>
          <path id="Caminho_26105" data-name="Caminho 26105" d="M1548.534,509.62a9.575,9.575,0,0,1,3.274.528,7.244,7.244,0,0,1,2.5,1.5,6.651,6.651,0,0,1,1.616,2.334,8.336,8.336,0,0,1,0,6.062,6.569,6.569,0,0,1-1.648,2.345,7.454,7.454,0,0,1-2.567,1.51,9.885,9.885,0,0,1-3.327.528h-6.337V509.62h6.485Zm.126,11.364a3.14,3.14,0,0,0,1.362-.285,3.247,3.247,0,0,0,1.056-.8,3.582,3.582,0,0,0,.7-1.236,4.994,4.994,0,0,0,.243-1.605,4.9,4.9,0,0,0-.254-1.616,3.767,3.767,0,0,0-.729-1.268,3.07,3.07,0,0,0-1.13-.813,3.74,3.74,0,0,0-1.458-.275h-2.007v7.9h2.218Z" transform="translate(-1507.723 -509.345)" fill="#fff"/>
          <path id="Caminho_26106" data-name="Caminho 26106" d="M1692.45,507.03a8.82,8.82,0,0,1,3.221.571,7.738,7.738,0,0,1,2.556,1.605,7.335,7.335,0,0,1,1.689,2.429,7.587,7.587,0,0,1,.6,3.042,7.817,7.817,0,0,1-.6,3.074,7.247,7.247,0,0,1-1.689,2.461,7.851,7.851,0,0,1-2.556,1.616,9.22,9.22,0,0,1-6.443,0,7.851,7.851,0,0,1-2.556-1.616,7.263,7.263,0,0,1-1.69-2.45,7.789,7.789,0,0,1-.6-3.084,7.637,7.637,0,0,1,.6-3.063,7.208,7.208,0,0,1,1.69-2.418,7.8,7.8,0,0,1,2.556-1.595A8.82,8.82,0,0,1,1692.45,507.03Zm.064,3.655a3.431,3.431,0,0,0-2.566,1.14,4.129,4.129,0,0,0-.782,1.278,4.558,4.558,0,0,0,.011,3.2,4.242,4.242,0,0,0,.793,1.289,3.574,3.574,0,0,0,1.152.855,3.251,3.251,0,0,0,1.394.306,3.02,3.02,0,0,0,1.351-.306,3.533,3.533,0,0,0,1.12-.855,4.069,4.069,0,0,0,.761-1.289,4.584,4.584,0,0,0,.275-1.605,4.468,4.468,0,0,0-.275-1.595,4.082,4.082,0,0,0-.761-1.278,3.4,3.4,0,0,0-1.12-.845,3.167,3.167,0,0,0-1.351-.3Z" transform="translate(-1634.93 -507.03)" fill="#fff"/>
          <path id="Caminho_26107" data-name="Caminho 26107" d="M1858.707,509.62a6.979,6.979,0,0,1,4.626,1.373,4.781,4.781,0,0,1,1.627,3.865,5.276,5.276,0,0,1-1.627,4.13,6.671,6.671,0,0,1-4.626,1.468h-2.514v3.971H1851.8V509.62Zm0,7.435a2.1,2.1,0,0,0,1.531-.528,2.034,2.034,0,0,0,.539-1.521,1.948,1.948,0,0,0-.539-1.49,2.121,2.121,0,0,0-1.531-.517h-2.514v4.055h2.514Zm-.972,1.8H1862l3.465,5.577h-4.985Z" transform="translate(-1784.563 -509.345)" fill="#fff"/>
        </g>
        <path id="Caminho_26108" data-name="Caminho 26108" d="M1038.519,466.084l-.15.234a5.965,5.965,0,0,1-5.016,2.824,6.407,6.407,0,0,1,0-12.794,5.971,5.971,0,0,1,4.955,2.731l.153.232,3.832-2.54-.153-.232a10.553,10.553,0,0,0-8.787-4.787,11,11,0,0,0,0,21.991,10.542,10.542,0,0,0,8.891-4.947l.15-.234-3.875-2.475Z" transform="translate(-1022.71 -451.75)" fill="#fff"/>
      </g>
      <g id="Grupo_9578" data-name="Grupo 9578" transform="translate(30.065 0)">
        <path id="Caminho_26109" data-name="Caminho 26109" d="M1307.614,410.35h-1.934v5.166h.546v-1.631h1.387c1.314,0,2.111-.665,2.111-1.764s-.8-1.771-2.111-1.771Zm-.015,3.056h-1.372v-2.584h1.372c1.034,0,1.58.472,1.58,1.3S1308.633,413.406,1307.6,413.406Z" transform="translate(-1305.68 -410.306)" fill="#fff"/>
        <path id="Caminho_26110" data-name="Caminho 26110" d="M1359.53,410.35v5.166h.546V410.35Z" transform="translate(-1353.809 -410.306)" fill="#fff"/>
        <path id="Caminho_26111" data-name="Caminho 26111" d="M1388.94,410.35v4.191l-3.329-4.191h-.452v5.166h.546v-4.191l3.321,4.191h.452V410.35Z" transform="translate(-1376.716 -410.306)" fill="#fff"/>
        <path id="Caminho_26112" data-name="Caminho 26112" d="M1438.651,410.35v.472h1.816v4.694h.546v-4.694h1.816v-.472h-4.179Z" transform="translate(-1424.522 -410.306)" fill="#fff"/>
        <path id="Caminho_26113" data-name="Caminho 26113" d="M1493.162,410.35v2.937c0,1.225-.575,1.786-1.587,1.786s-1.579-.561-1.579-1.786V410.35h-.546v2.959a2.125,2.125,0,1,0,4.243,0V410.35Z" transform="translate(-1469.925 -410.306)" fill="#fff"/>
        <path id="Caminho_26114" data-name="Caminho 26114" d="M1552.415,413.754a1.6,1.6,0,0,0,1.18-1.622c0-1.108-.8-1.771-2.11-1.771h-1.935v5.166h.546v-1.637h1.389a3.68,3.68,0,0,0,.413-.022l1.18,1.66h.6l-1.262-1.771Zm-.945-.331H1550.1v-2.591h1.374c1.034,0,1.579.472,1.579,1.3S1552.5,413.422,1551.47,413.422Z" transform="translate(-1523.64 -410.315)" fill="#fff"/>
        <path id="Caminho_26115" data-name="Caminho 26115" d="M1599.571,410.35h-.539l-2.362,5.166h.568l.619-1.379h2.879l.62,1.379h.575l-2.361-5.166Zm-1.514,3.344,1.241-2.776,1.24,2.776h-2.481Z" transform="translate(-1565.753 -410.306)" fill="#fff"/>
        <path id="Caminho_26116" data-name="Caminho 26116" d="M1654.906,411.34c0-.516.42-.937,1.364-.937a2.652,2.652,0,0,1,1.418.428l.184-.435a2.917,2.917,0,0,0-1.6-.457c-1.312,0-1.9.657-1.9,1.416,0,1.912,3.18,1.041,3.18,2.459,0,.509-.42.915-1.387.915a2.542,2.542,0,0,1-1.706-.627l-.214.421a2.8,2.8,0,0,0,1.92.672c1.322,0,1.926-.649,1.926-1.409,0-1.883-3.18-1.026-3.18-2.444Z" transform="translate(-1617.206 -409.94)" fill="#fff"/>
      </g>
    </g>
  </g>
</svg>
