<svg xmlns="http://www.w3.org/2000/svg" width="145.208" height="109.329" viewBox="0 0 145.208 109.329">
  <g id="footer" transform="translate(-329.07 -256.41)">
    <g id="Grupo_9580" data-name="Grupo 9580" transform="translate(352.037 256.41)">
      <path id="Caminho_26117" data-name="Caminho 26117" d="M569.293,522.909c.319.015.636.029.954.049a3.285,3.285,0,0,0,1.373-.2,1.882,1.882,0,0,0,1.027-.844,1.86,1.86,0,0,0,.106-1.466,16.383,16.383,0,0,0-.545-1.577,16.981,16.981,0,0,1-.872-3.036.253.253,0,0,1,.091-.255,3.777,3.777,0,0,1,.646-.414,13.237,13.237,0,0,1-2.569-.179,6.623,6.623,0,0,0-5.138,1.373,25.931,25.931,0,0,1-2.883,2.035c-1.9,1.1-2.15,3.475-.438,5.2-.385-1.22.361-1.34,1.045-1.581a4.136,4.136,0,0,1,2.193-.086c1.615.294,3.215.64,4.781,1.074-.033-.073.044-.1.226-.091Z" transform="translate(-547.84 -475.689)" fill="#fff"/>
      <path id="Caminho_26118" data-name="Caminho 26118" d="M585.012,272.95q3.608-.926,7.221-1.86c-.038-.212-.024-.13-.062-.343q-6.521.681-13.048,1.349c4.42-1.625,9.312-1.962,13.072-5.24-5.3,1.253-10.575,2.54-15.974,3.311,4.945-2.414,10.069-4.411,14.7-7.4-6.6,2.391-13.314,4.416-20,6.541,2.83-1.721,5.78-3.211,8.546-5.013,3.413-2.232,6.575-5.432,6.936-7.293-5.288,4.71-11.458,7.437-17.424,10.566,3.813-3.355,7.7-6.6,10.2-11.154a104.428,104.428,0,0,1-17.025,12.937c2.361-3.1,4.695-6.17,6.03-9.872-1.364,1.408-2.584,2.93-3.885,4.376-2.372,2.637-4.482,5.605-7.558,7.452-3.765,2.256-15.362,8.092-17.641,9.423-5.654,3.3-12.335,6.73-17.5,10.734-.487.381-.882.819-1.683.463-6.026-2.684-12.479-3.8-18.952-4.347-7.042-.593-12.306-3.466-15.656-9.726-.164-.308-.27-.742-.95-.839-.487,3.668,2.642,5.428,4.429,8.315-.569-.376-.766-.5-.954-.636a13.238,13.238,0,0,1-4.5-6.107c-.106-.275-.126-1.171-.718-.631-.775.709-.656-.135-.753-.352-.434-.979-.53-2.13-1.388-2.9-.612,7.968,3.769,11.954,11.212,13.482,3.957,1.712,11.722,5.346,12.72,5.846,1.451.733,1.557.786,1.818,1.393a3.375,3.375,0,0,1,1.88.357,3,3,0,0,1,1.542,2.261c.173.935.348,1.871.516,2.81a4.94,4.94,0,0,0,.549,1.118c.558.95.323,1.595-.709,1.942a13.879,13.879,0,0,1-4.863.828c-.12,0-.255-.02-.405-.038a29.375,29.375,0,0,1,5.957,2.912c7.038,4.535,14.837,5.634,22.963,5.273a3.054,3.054,0,0,1,2.376.747,4.2,4.2,0,0,0,3.326,1.36,12.623,12.623,0,0,1,1.8-.2H542.3a10.067,10.067,0,0,1,2.751.49,13.692,13.692,0,0,0,2.282.537l8.764,2.407a1.712,1.712,0,0,0,2.073-1.067,4.931,4.931,0,0,1,1.6-2.366,5.9,5.9,0,0,0,2.712-4.7,5.654,5.654,0,0,1,1.4-3.366s.51-1.331-2.784-.853h0c-1.971-.082-3.942-.144-5.918-.2-3.793-.106-7.607-.049-11.323-1a5.142,5.142,0,0,1-2.777-1.273c.558-.722,2.5-.589,1.162-2.328a111.284,111.284,0,0,1,11.26-8.233c7.91-5.038,16.19-8.854,23.483-13.371a38.194,38.194,0,0,1,3.548-2.174,74.254,74.254,0,0,0,6.989-4.1h-2.487c-.009-.082-.015-.159-.024-.241Z" transform="translate(-480.427 -256.41)" fill="#fff"/>
    </g>
    <g id="Grupo_9582" data-name="Grupo 9582" transform="translate(329.07 334.326)">
      <g id="Grupo_9581" data-name="Grupo 9581" transform="translate(29.638 8.393)">
        <path id="Caminho_26119" data-name="Caminho 26119" d="M535.918,825.21a12.611,12.611,0,0,1,4.6.815,11.052,11.052,0,0,1,3.651,2.293,10.471,10.471,0,0,1,2.414,3.47,10.843,10.843,0,0,1,.86,4.346,11.172,11.172,0,0,1-.86,4.391,10.353,10.353,0,0,1-2.414,3.516,11.212,11.212,0,0,1-3.651,2.308,13.174,13.174,0,0,1-9.2,0,11.2,11.2,0,0,1-3.651-2.308,10.364,10.364,0,0,1-2.414-3.5,11.132,11.132,0,0,1-.86-4.4,10.922,10.922,0,0,1,.86-4.376,10.3,10.3,0,0,1,2.414-3.455,11.163,11.163,0,0,1,3.651-2.278,12.6,12.6,0,0,1,4.6-.815Zm.091,5.22a4.9,4.9,0,0,0-3.666,1.63,5.9,5.9,0,0,0-1.117,1.825,6.2,6.2,0,0,0-.407,2.279,6.115,6.115,0,0,0,1.554,4.133,5.106,5.106,0,0,0,1.645,1.221,4.645,4.645,0,0,0,1.991.437,4.326,4.326,0,0,0,1.932-.437,5.047,5.047,0,0,0,1.6-1.221,5.809,5.809,0,0,0,1.086-1.841,6.549,6.549,0,0,0,.393-2.293,6.4,6.4,0,0,0-.393-2.279,5.827,5.827,0,0,0-1.086-1.825,4.875,4.875,0,0,0-1.6-1.208A4.5,4.5,0,0,0,536.009,830.43Z" transform="translate(-524.39 -825.21)" fill="#fff"/>
        <path id="Caminho_26120" data-name="Caminho 26120" d="M691.83,827.792h5.341l10.652,14-1.66.574V827.792H711.9v21.152h-5.341L695.935,835l1.66-.574v14.514h-5.763V827.79Z" transform="translate(-666.423 -827.399)" fill="#fff"/>
        <path id="Caminho_26121" data-name="Caminho 26121" d="M856.8,827.8a13.669,13.669,0,0,1,4.677.754,10.393,10.393,0,0,1,3.576,2.143,9.5,9.5,0,0,1,2.308,3.334,11.916,11.916,0,0,1,0,8.661,9.371,9.371,0,0,1-2.353,3.349,10.639,10.639,0,0,1-3.666,2.158,14.131,14.131,0,0,1-4.753.754H847.54V827.8Zm.181,16.234a4.5,4.5,0,0,0,1.947-.407,4.623,4.623,0,0,0,1.508-1.147,5.121,5.121,0,0,0,1-1.765,7.152,7.152,0,0,0,.347-2.293,7,7,0,0,0-.363-2.308,5.377,5.377,0,0,0-1.041-1.81,4.4,4.4,0,0,0-1.615-1.162,5.34,5.34,0,0,0-2.082-.393h-2.866v11.286h3.168Z" transform="translate(-798.506 -827.407)" fill="#fff"/>
        <path id="Caminho_26122" data-name="Caminho 26122" d="M1001.458,825.21a12.611,12.611,0,0,1,4.6.815,11.05,11.05,0,0,1,3.651,2.293,10.47,10.47,0,0,1,2.414,3.47,10.842,10.842,0,0,1,.86,4.346,11.171,11.171,0,0,1-.86,4.391,10.352,10.352,0,0,1-2.414,3.516,11.209,11.209,0,0,1-3.651,2.308,13.174,13.174,0,0,1-9.2,0,11.205,11.205,0,0,1-3.651-2.308,10.364,10.364,0,0,1-2.414-3.5,11.131,11.131,0,0,1-.86-4.4,10.921,10.921,0,0,1,.86-4.376A10.3,10.3,0,0,1,993.2,828.3a11.163,11.163,0,0,1,3.651-2.278,12.6,12.6,0,0,1,4.6-.815Zm.091,5.22a4.9,4.9,0,0,0-3.666,1.63,5.9,5.9,0,0,0-1.117,1.825,6.2,6.2,0,0,0-.407,2.279,6.114,6.114,0,0,0,1.554,4.133,5.105,5.105,0,0,0,1.645,1.221,4.645,4.645,0,0,0,1.991.437,4.326,4.326,0,0,0,1.932-.437,5.047,5.047,0,0,0,1.6-1.221,5.81,5.81,0,0,0,1.086-1.841,6.55,6.55,0,0,0,.393-2.293,6.4,6.4,0,0,0-.393-2.279,5.826,5.826,0,0,0-1.086-1.825,4.875,4.875,0,0,0-1.6-1.208A4.5,4.5,0,0,0,1001.549,830.43Z" transform="translate(-919.29 -825.21)" fill="#fff"/>
        <path id="Caminho_26123" data-name="Caminho 26123" d="M1167.246,827.8a9.963,9.963,0,0,1,6.608,1.962,6.829,6.829,0,0,1,2.323,5.522,7.539,7.539,0,0,1-2.323,5.9,9.524,9.524,0,0,1-6.608,2.1h-3.59v5.674h-6.276V827.8h9.868Zm0,10.622a3,3,0,0,0,2.188-.754,2.907,2.907,0,0,0,.77-2.173,2.784,2.784,0,0,0-.77-2.127,3.031,3.031,0,0,0-2.188-.739h-3.59v5.793Zm-1.388,2.564h6.1l4.948,7.966h-7.121Z" transform="translate(-1061.331 -827.407)" fill="#fff"/>
      </g>
      <path id="Caminho_26124" data-name="Caminho 26124" d="M351.653,790.379l-.214.334a8.518,8.518,0,0,1-7.165,4.033,9.154,9.154,0,0,1,0-18.278,8.526,8.526,0,0,1,7.079,3.9l.219.331,5.475-3.63-.219-.331a15.079,15.079,0,0,0-12.552-6.839,15.715,15.715,0,0,0,0,31.413,15.057,15.057,0,0,0,12.7-7.066l.214-.334-5.535-3.536Z" transform="translate(-329.07 -769.9)" fill="#fff"/>
    </g>
    <g id="Grupo_9583" data-name="Grupo 9583" transform="translate(371.868 327.981)">
      <path id="Caminho_26125" data-name="Caminho 26125" d="M613.882,728.5H611.12v7.379h.78v-2.329h1.982c1.877,0,3.017-.95,3.017-2.52s-1.14-2.531-3.017-2.531Zm-.021,4.366H611.9v-3.69h1.96c1.476,0,2.256.675,2.256,1.856S615.337,732.867,613.86,732.867Z" transform="translate(-611.12 -728.436)" fill="#fff"/>
      <path id="Caminho_26126" data-name="Caminho 26126" d="M664.98,728.51v7.379h.78V728.51Z" transform="translate(-656.807 -728.445)" fill="#fff"/>
      <path id="Caminho_26127" data-name="Caminho 26127" d="M696.02,728.51V734.5l-4.755-5.988h-.645v7.379h.78V729.9l4.745,5.988h.645V728.51Z" transform="translate(-678.557 -728.445)" fill="#fff"/>
      <path id="Caminho_26128" data-name="Caminho 26128" d="M744.13,728.51v.674h2.595v6.705h.78v-6.705H750.1v-.674H744.13Z" transform="translate(-723.947 -728.445)" fill="#fff"/>
      <path id="Caminho_26129" data-name="Caminho 26129" d="M800.252,728.51v4.2c0,1.75-.821,2.552-2.267,2.552s-2.255-.8-2.255-2.552v-4.2h-.78v4.227c0,2.118,1.15,3.215,3.035,3.215s3.027-1.1,3.027-3.215V728.51h-.759Z" transform="translate(-767.056 -728.445)" fill="#fff"/>
      <path id="Caminho_26130" data-name="Caminho 26130" d="M859.141,733.35a2.286,2.286,0,0,0,1.686-2.319c0-1.583-1.14-2.531-3.013-2.531H855.05v7.379h.78v-2.34h1.983a5.235,5.235,0,0,0,.59-.032l1.686,2.372h.854l-1.8-2.531Zm-1.349-.473H855.83v-3.7h1.962c1.476,0,2.255.675,2.255,1.856S859.268,732.876,857.792,732.876Z" transform="translate(-818.036 -728.436)" fill="#fff"/>
      <path id="Caminho_26131" data-name="Caminho 26131" d="M906.314,728.51h-.769l-3.375,7.379h.812l.885-1.971h4.112l.886,1.971h.821l-3.373-7.379Zm-2.164,4.777,1.774-3.966,1.771,3.966Z" transform="translate(-858.006 -728.445)" fill="#fff"/>
      <path id="Caminho_26132" data-name="Caminho 26132" d="M960.73,730.083c0-.737.6-1.338,1.95-1.338a3.786,3.786,0,0,1,2.026.612l.263-.622a4.166,4.166,0,0,0-2.288-.654c-1.875,0-2.719.938-2.719,2.024,0,2.731,4.543,1.487,4.543,3.513,0,.727-.6,1.306-1.982,1.306a3.631,3.631,0,0,1-2.437-.9l-.3.6a4.009,4.009,0,0,0,2.742.959c1.888,0,2.751-.927,2.751-2.013C965.273,730.886,960.73,732.109,960.73,730.083Z" transform="translate(-906.875 -728.08)" fill="#fff"/>
    </g>
  </g>
</svg>
