<svg xmlns="http://www.w3.org/2000/svg" width="100" height="28" viewBox="0 0 100 28"><g><g><g><g><path fill="#fff" d="M0 1.752h3.122V14.04c0 1.182.736 1.16 1.383 1.16h5.598v2.877H3.39c-1.762 0-3.39-.67-3.39-3.167z"/></g><g><path fill="#fff" d="M15.142 15.29V4.517h3.569c1.74 0 2.788 1.071 2.788 5.442 0 3.279-.759 5.33-2.788 5.33zm-3.122 2.788h6.936c3.97 0 5.665-3.301 5.665-8.096 0-4.037-.981-8.23-5.665-8.23H12.02z"/></g><g><path fill="#fff" d="M26.783 1.752h3.167l6.468 10.55V1.751h3.122v16.326h-3.122L29.928 7.64v10.438h-3.145z"/></g><g><path fill="#fff" d="M46.654 11.699l1.963-5.843 1.829 5.843zm-5.352 6.379h3.345l1.182-3.613h5.353l1.16 3.613h3.323L50.357 1.752H46.81z"/></g><g><path fill="#e66c36" d="M62.666 5.833c0-3.234 1.918-4.17 4.416-4.215 2.342-.045 5.018.268 6.312.647v2.453c-1.427-.134-4.662-.223-5.464-.223-1.36-.022-2.141.067-2.141 1.584v.802c0 1.294.49 1.562 1.74 1.562h2.586c3.212 0 3.859 2.52 3.859 4.327v1.092c0 3.703-2.297 4.394-4.505 4.394-2.788 0-4.617-.178-6.312-.669v-2.453c.892.089 3.613.245 5.687.245.937 0 2.007-.156 2.007-1.405v-.87c0-.937-.267-1.539-1.472-1.539h-2.498c-3.947 0-4.215-2.9-4.215-4.327z"/></g><g><path fill="#e66c36" d="M81.31.904h3.234l-6.266 18.78h-3.234z"/></g><g><path fill="#e66c36" d="M90.99 11.699l1.962-5.843 1.829 5.843zm-5.353 6.379h3.345l1.182-3.613h5.353l1.16 3.613H100L94.69 1.752h-3.546z"/></g></g><g><g><g><path fill="#fff" d="M3.969 25.653l.706-2.103.659 2.103zM2.042 27.95h1.205l.425-1.3h1.927l.417 1.3h1.196l-1.91-5.876H4.025z"/></g><g><path fill="#fff" d="M11.708 22.009c.892 0 1.405.048 2.256.257v.875c-.048 0-1.075-.137-1.99-.137-.892 0-1.06.538-1.06 1.991 0 1.525.176 1.935 1.003 1.943.554.008 1.012-.37 1.012-.37v-1.05h-.82v-.715c.346-.145.82-.193 1.398-.193.168 0 .353 0 .546.016v3.323h-.803l-.305-.393c-.257.241-.57.41-1.245.433-1.661.065-1.91-1.332-1.91-3.01 0-1.71.321-2.97 1.918-2.97z"/></g><g><path fill="#fff" d="M18.06 21.551h.754l.505-.481.474.481h.747l-.779-1.083h-.835zm-.844 5.242c0 1.084.835 1.205 1.357 1.18 0 0 2.047-.072 2.504-.136v-.923h-2.24c-.232 0-.497.008-.497-.418v-.915l2.376-.072v-.931l-2.376-.08v-.916c0-.216 0-.45.418-.45h2.32v-.93c-.514-.073-2.585-.129-2.585-.129-.554-.008-1.277.2-1.277 1.22z"/></g><g><path fill="#fff" d="M24.16 22.073h1.14l2.329 3.797v-3.797h1.124v5.876h-1.124l-2.336-3.756v3.756H24.16z"/></g><g><path fill="#fff" d="M33.819 22.009c.819 0 1.413.08 2.047.265v.883c-.008 0-.995-.112-1.782-.112-.827 0-1.14.184-1.14 1.966 0 1.317.217 1.951 1.14 1.951.843 0 1.782-.064 1.782-.064v.875c-.53.168-1.204.24-2.047.225-1.485-.016-1.999-1.14-1.999-3.003 0-1.878.402-2.986 1.999-2.986z"/></g><g><path fill="#fff" d="M38.925 22.073h1.124v5.876h-1.124z"/></g><g><path fill="#fff" d="M44.97 25.653l.707-2.103.658 2.103zm-1.926 2.296h1.204l.426-1.3H46.6l.418 1.3h1.196l-1.91-5.876h-1.277z"/></g><g><path fill="#fff" d="M56.684 26.946v-3.877h1.285c.626 0 1.003.385 1.003 1.958 0 1.18-.273 1.919-1.003 1.919zm-1.124 1.003h2.497c1.429 0 2.04-1.188 2.04-2.914 0-1.453-.354-2.962-2.04-2.962H55.56z"/></g><g><path fill="#fff" d="M63.244 22.073h1.124v5.876h-1.124z"/></g><g><path fill="#fff" d="M69.345 22.009c.891 0 1.405.048 2.256.257v.875c-.048 0-1.076-.137-1.99-.137-.892 0-1.06.538-1.06 1.991 0 1.525.176 1.935 1.003 1.943.554.008 1.011-.37 1.011-.37v-1.05h-.818v-.715c.345-.145.818-.193 1.396-.193.169 0 .354 0 .546.016v3.323h-.802l-.305-.393c-.257.241-.57.41-1.245.433-1.661.065-1.91-1.332-1.91-3.01 0-1.71.321-2.97 1.918-2.97z"/></g><g><path fill="#fff" d="M74.877 22.073h1.124v5.876h-1.124z"/></g><g><path fill="#fff" d="M78.972 22.073h4.343v1.036h-1.63v4.84h-1.124v-4.84h-1.59z"/></g><g><path fill="#fff" d="M87.128 25.653l.707-2.103.658 2.103zm-1.926 2.296h1.204l.426-1.3h1.926l.418 1.3h1.196l-1.911-5.876h-1.276z"/></g><g><path fill="#fff" d="M93.343 22.073h1.124v4.423c0 .426.265.418.498.418h2.014v1.035h-2.416c-.634 0-1.22-.24-1.22-1.14z"/></g></g></g></g></g></svg>