<svg xmlns="http://www.w3.org/2000/svg" width="28" height="32" viewBox="0 0 28 32"><g><g><path fill="#e66c36" d="M23.407 15.673c0-2.014-.072-2.05-1.62-2.086-1.654 0-1.726.108-1.726 1.942 0 1.943.036 2.015 1.655 2.015s1.69-.072 1.69-1.87zM21.68 18.84c-1.439 0-1.619.215-1.619 2.086 0 1.69.18 1.943 1.655 1.943 1.547 0 1.69-.18 1.69-2.05 0-1.871-.107-1.98-1.726-1.98zm.036-10.54c-1.475 0-1.655.216-1.655 2.05 0 1.763.18 1.979 1.727 1.979 1.475-.036 1.619-.216 1.619-2.015 0-1.834-.18-2.05-1.691-2.014zm-4.964 7.374c0-2.014-.036-2.05-1.583-2.086-1.69 0-1.763.108-1.763 1.942 0 1.943.072 2.015 1.691 2.015 1.583 0 1.655-.072 1.655-1.87zm-1.727 3.166c-1.439 0-1.619.215-1.619 2.086 0 1.69.216 1.943 1.655 1.943 1.547 0 1.69-.18 1.69-2.05 0-1.871-.107-1.98-1.726-1.98zm.072-10.54c-1.51 0-1.69.216-1.69 2.05 0 1.763.18 1.979 1.762 1.979 1.439-.036 1.583-.216 1.583-2.015 0-1.834-.144-2.05-1.655-2.014zM4.953 20.565c-1.115 0-1.259.72-1.259 1.655 0 .9.144 1.51 1.223 1.547 1.151.036 1.223-.72 1.151-1.619.108-.9-.072-1.583-1.115-1.583zm-.036-1.043c1.151.036 1.223-.72 1.151-1.583.072-.899-.036-1.618-1.115-1.618-1.151 0-1.223.755-1.223 1.654-.036.864.108 1.547 1.187 1.547zm20.576 9.784h-4.1c0-.827.035-1.618 0-2.41-.037-1.474-.468-1.942-1.835-1.942-.828 0-1.655-.036-2.482 0-1.152.036-1.62.504-1.691 1.727v2.625h-4.029c-.036-.431-.072-.827-.072-1.223V8.155c0-2.158.863-3.094 2.95-3.13 2.806 0 5.611 0 8.417.036 1.979 0 2.878.972 2.878 3.022v20.18c0 .324-.036.648-.036 1.043zM7.111 26.25c-1.618 0-2.122.396-2.194 1.87v1.187H2.615c-.036-.143-.108-.287-.108-.467 0-4.748-.036-9.497 0-14.245 0-1.259.504-1.763 1.763-1.763h4.676v3.49c-.827.108-.971.791-.935 1.51 0 .864.072 1.547.935 1.655v1.115c-.791.108-1.007.72-.935 1.547-.036.863.108 1.475.935 1.583v3.237c-.252-.54-.791-.72-1.835-.72zm16.152-23.67C22.867.421 22.759.313 20.529.313H16.14c-1.798.036-2.086.288-2.302 2.23-3.705.9-4.784 2.123-4.856 5.9-.072 0-.108-.036-.144-.036h-3.67c-1.222 0-1.402.971-1.51 1.906-2.662.864-3.49 1.979-3.49 4.82V29.63c0 1.727.432 2.159 2.123 2.195h7.806v-.108c.252.072.576.072.935.108h15.54c.396 0 .756-.036 1.26-.072V8.838c0-3.956-.972-5.287-4.57-6.259z"/></g></g></svg>