<svg xmlns="http://www.w3.org/2000/svg" width="34" height="34" viewBox="0 0 34 34"><g><g><g><path fill="none" stroke="#e66c36" stroke-linejoin="round" stroke-miterlimit="20" stroke-width="3" d="M2.001 23.534a1.5 1.5 0 0 1 1.5-1.5h4.5v0-5.25 0L17 10.785v0l9 6v5.249h4.499a1.5 1.5 0 0 1 1.5 1.5v6.75a1.5 1.5 0 0 1-1.5 1.499H2v0z"/></g><g><path fill="none" stroke="#e66c36" stroke-linecap="round" stroke-miterlimit="20" stroke-width="3" d="M17 3.286v7.499"/></g><g><path fill="none" stroke="#e66c36" stroke-linecap="round" stroke-linejoin="round" stroke-miterlimit="20" stroke-width="3" d="M26 7.785v0-4.5 0s-1.126 2.25-4.5 0c-3.375-2.25-4.5 0-4.5 0v4.5s1.125-2.25 4.5 0c3.374 2.25 4.5 0 4.5 0z"/></g><g><path fill="none" stroke="#e66c36" stroke-linecap="round" stroke-linejoin="round" stroke-miterlimit="20" stroke-width="3" d="M20 31.783v0-9.75 0h-6v9.75"/></g><g><path fill="none" stroke="#e66c36" stroke-linecap="round" stroke-linejoin="round" stroke-miterlimit="20" stroke-width="3" d="M12.5 31.783h9"/></g></g></g></svg>