<svg xmlns="http://www.w3.org/2000/svg" width="646" height="54" viewBox="0 0 646 54"><g><g transform="rotate(-180 323 27)"><path fill="#e66c36" d="M2.915 28.227c-1.231-.034-2.324.188-2.299.388.025.192 1.495.393 2.694.321 1.054-.063 1.808-.22 3.15-.394-1.52-.141-2.448-.284-3.545-.315m620.15 1.673l-.558-.06a.704.704 0 0 1-.05.056l.609.004M5.356 21.593c2.453-.315 3.396-.618 2.642-.982-1-.483.68-.92 1.324-1.374.153-.107.932-.202 1.509-.293.733-.116 2.075-.208 2.228-.333.44-.357 2.235-.522 4.2-.687.576-.049 1.056-.12 1.537-.186 2.295-.319 2.402-.64.47-.997-1.869-.346-3.652-.7-5.674-1.088 4.57-.308 9.158-.34 13.485-.403 7.538-.108 12.792-.742 19.465-1.285l-4.292-.2c6.317-.18 7.103-.392 4.352-1.17-2.014-.568-1.306-.769 3.506-1.004.62-.03 1.178-.084 1.968-.142.103-.362.352-.727.256-1.09-.06-.242.513-.412 2.538-.522-1.417-.181-2.659-.28-3.178-.427-.41-.116-.032-.294.181-.44.434-.292-1.787-.324-2.58-.517.21-.2.434-.414.669-.636.737-.081 1.463-.155 2.139-.236 4.506-.537 4.62-.636 1.438-1.48.74-.114 1.843-.231 2.402-.385.562-.154.584-.345.954-.595l4.769-.302c.399-.26.872-.559 1.313-.858.264-.178.31-.365.74-.534 2.253-.893 2.285-.891 7.816-1.393-1.438-.321-3.9.134-5.584-.167.313-.05.62-.145 1.04-.156 2.234-.056 4.505-.133 6.75-.128 11.906.028 23.686-.137 35.502-.318 14.52-.224 29.112-.368 43.69-.518C163.41.64 173.904.561 184.4.502c10.275-.058 20.564-.074 30.846-.109C219.118.38 222.99.35 226.863.351c10.054.006 20.122-.006 30.166.048 13.919.075 27.817.213 41.733.306 7.53.05 15.076.069 22.617.092 15.083.045 30.166.075 45.25.128 12.11.043 24.222.104 36.33.168 12.79.068 25.575.163 38.366.222 24.013.11 47.84.457 71.572.962 15.574.333 31.209.612 46.808.921 4.071.081 8.096.204 12.171.28 8.6.159 17.208.312 25.835.44 2.72.04 5.143.114 7.755.26 3.926.218 8.432.249 12.71.34 3.584.078 7.2.128 10.616.186 1.63.312.815.583.42.852-.463.317-.249.596 1.274.88 1.157.215 2.096.503 2.15.763.096.446-2.21.802-3.684 1.18-.765.198-2.637.222-4.324.199-2.95-.04-5.908-.08-8.869-.108a79.377 79.377 0 0 0-3.38.034c-.528.018-1.115.117-1.257.194-.146.079.003.209.405.256 2.082.25 4.396.426 7.307.456 3.374.035 6.723.116 10.094.177.106.36-.221.67.384.942.783.351-1.523.562-.623.944-4.666-.083-8.47-.153-12.279-.218-3.63-.061-7.253-.133-10.894-.171-3.872-.041-7.765-.067-11.652-.065-3.51.001-7.097-.083-11.296.055 1.786.257 3.31.253 4.83.264 5.473.037 10.947.078 16.417.119.687.005 1.456-.01 2.04.026 5.922.379 12.477.34 18.66.544 2.633.086 5.206.222 7.683.374.83.05 1.274.219 2.107.372l-4.555.256c-.684.255.199.394 1.395.5 1.662.15 3.391.284 5.395.45-.975.124-1.52.24-2.288.282-2.648.15-3.534.475-4.37.794-.584.222.135.496-1.73.676-.417.04-.214.236-.015.351.417.24 1.022.474 1.666.763-1.612-.013-2.929-.023-4.242-.035-4.556-.042-9.104-.09-13.663-.122-2.011-.015-2.823.157-2.894.464 7.011.414 15.119.31 22.408.702v.696c1.38.078 2.655.139 3.861.22 1 .067 1.919.157 2.819.233-.17.09-.15.167-.42.206-3.317.48-2.808 1.01.089 1.423 2.648.379 2.381.697.448 1.098 3.353.395 5.353.884 6.613 1.413.666.281.392.604.562.953-2.132.07-3.875.183-5.57.172-4.776-.033-9.523-.134-14.296-.179-5.225-.048-10.46-.068-15.695-.09-.858-.003-1.73.053-2.727.085v.929l-2.608.238c.477.078.69.148 1.035.163 1.082.045 2.24.058 3.321.104 2.114.091 3.317.3 4.25.644l-10.073.271c3.396.36 7.111.532 9.364.955 2.274.428 4.61.85 6.923 1.276-1.954.264-2.77.564-1.37.896.743.177.871.313.537.516-.328.197.185.424.484.634.217.151.75.293 1.039.443.794.412-.142.598-3.296.575-3.762-.028-7.189.04-10.417.335-3.819.351-5.993.85-7.438 1.417-.417.163-.523.408.092.54 3.178.689 3.068 1.473 4.086 2.205-5.812.963-5.812.963-4.374 1.87-.833.138-1.886.296-2.801.468-3.285.617-2.737 1.163 1.666 1.615 1.267.13 2.705.229 4.473.376l2.755.918c-2.886.478-2.95 1.043-1.78 1.671 1.905.28 4.766.464 5.962.928.975.38 1.302.686.253 1.049-1.275.44-.449.73 2.466.896 1.043.06 2.206.08 3.303.124 2.737.11 3.388.371 2.687.79-4.595.012-9.286.022-13.977.036-1.822.006-3.64.02-5.459.03-.911.006-1.933.054-2.708.013-4.193-.22-8.595-.125-12.888-.19-7.04-.105-14.072-.225-21.13-.303-3.035-.034-6.455-.193-8.858.248-2.719.028-5.445.092-8.154.079-8.89-.044-17.77-.12-26.653-.174-4.114-.025-8.232-.033-12.346-.037-.833 0-1.67.05-2.787.088 2.687 1.088 4.744 2.146 1.652 3.243.146.059.178.13.452.171 1.249.189 2.502.366 1.754.658-.744.29-2.096.492-4.313.538-4.517.093-9.04.188-13.589.237-8.196.087-16.425.123-24.617.214-13.674.15-27.33.321-40.99.493-12.513.157-25.005.35-37.536.483-7.741.082-15.532.08-23.301.117-4.332.02-8.663.047-12.994.064-5.257.02-10.514.026-15.767.05-6.395.027-12.787.063-19.176.102-27.415.169-54.837.156-82.255.035-10.272-.046-20.518-.187-30.79-.25-9.36-.056-18.738-.057-28.105-.097-9.35-.04-18.692.027-28.024.019-5.463-.005-10.926-.019-16.4-.006-5.039.012-10.054.015-15.008.167-.836.025-1.75.003-2.616.003-1.477-.336-2.078-.636-1.719-1.002.406-.415-.818-.541-4.046-.514-1.367.011-2.734.058-4.086.05-1.089-.007-2.164-.071-3.37-.115-.075-.109-.363-.207-.153-.277.957-.316.263-.544-1.787-.713-1.335-.11-2.687-.216-4.388-.353 1.562-.332 3.698-.573 3.59-.989-.145-.563-.113-1.12-1.626-1.657-1.078-.383-2.993-.624-5.95-.693-2.47-.058-4.969-.094-7.944-.15-.473-.253-.755-.53-1.527-.78-.658-.212-1.88-.392-2.854-.587.242-.049.512-.144.744-.142 4.459.03 5.552-.563 8.246-.85.868-.094.943-.413.63-.606-.894-.552-3.449-.939-7.826-1.143 0-.336.355-.679-.104-1-.427-.297-1.722-.571-2.374-.773.242-.479.424-.876.645-1.272.17-.31.412-.618.587-.927.16-.29.922-.525 2.441-.745 1.385-.2 2.317-.462 3.328-.705.918-.222 1.858-.415 3.822-.5 2.37-.1 2.869-.374 2.655-.678-.192-.27-.473-.538-.768-.864-4.513-.233-9.29-.413-14.343-.374-4.56.035-9.097.114-13.653.166-3.096.035-6.182.166-8.954-.227-.957-.136-3.495-.125-5.21-.09-4.431.092-7.567-.34-11.407-.483-2.071-.077-2.708-.447-2.666-.715.093-.604-1.576-1.087-4.363-1.523-1.609-.253-2.178-.548-1.783-.871.708-.58-.975-1.107-1.826-1.652-.274-.175-1.107-.342-1.886-.493-1.516-.296-3.356-.336-5.944-.149-.793.058-1.52.19-2.267.189-1.003-.002-2.192-.074-2.911-.17-.338-.046-.014-.242.445-.326.665-.12 1.772-.193 2.601-.299.659-.083 1.182-.186 1.993-.317l-2.726-.729c1.954-.24 2.74-.515 2.342-.898-.41-.392-.402-.81.11-1.2.887-.677.698-1.303-2.302-1.88-.26-.05-.47-.11-.563-.17-.765-.48-2.843-.834-6.548-1.172"/></g></g></svg>