<svg xmlns="http://www.w3.org/2000/svg" width="431" height="89" viewBox="0 0 431 89"><g><g transform="rotate(-180 215.5 44.5)"><path fill="#e66c36" d="M2.15 46.768c-.821-.056-1.55.313-1.534.646.017.32.997.655 1.798.535.703-.105 1.206-.366 2.101-.657-1.014-.235-1.633-.473-2.365-.524m413.778 2.786l-.373-.1a1.49 1.49 0 0 1-.033.093l.406.007M3.78 35.722c1.636-.526 2.266-1.03 1.762-1.636-.667-.804.454-1.532.884-2.287.102-.179.622-.337 1.006-.489.49-.192 1.385-.346 1.487-.553.294-.595 1.491-.87 2.802-1.145.385-.08.705-.199 1.026-.31 1.531-.53 1.603-1.065.313-1.66-1.246-.575-2.436-1.164-3.785-1.81 3.05-.514 6.11-.567 8.998-.672 5.03-.18 8.534-1.236 12.987-2.14l-2.864-.332c4.215-.3 4.74-.654 2.904-1.948-1.344-.946-.872-1.281 2.339-1.672.413-.05.786-.141 1.313-.238.07-.601.235-1.21.171-1.815-.04-.402.342-.686 1.693-.868-.945-.302-1.774-.467-2.12-.711-.273-.194-.022-.49.12-.732.29-.487-1.191-.54-1.72-.862.14-.333.289-.69.446-1.06.491-.134.976-.257 1.427-.392 3.006-.894 3.082-1.06.96-2.464.493-.19 1.23-.385 1.602-.641.375-.256.39-.575.636-.991l3.183-.503c.265-.433.581-.93.876-1.43.175-.295.206-.606.494-.888 1.503-1.486 1.524-1.484 5.214-2.32-.959-.534-2.602.223-3.725-.278.209-.082.413-.241.693-.258 1.491-.095 3.006-.223 4.505-.214 7.943.046 15.803-.228 23.687-.53 9.688-.372 19.424-.613 29.151-.862 6.991-.18 13.994-.31 20.997-.408 6.855-.096 13.72-.123 20.58-.181 2.584-.023 5.168-.075 7.752-.071 6.708.01 13.426-.01 20.127.08 9.287.125 18.56.355 27.845.51 5.025.084 10.06.115 15.091.153 10.064.076 20.128.126 30.192.214 8.08.07 16.161.172 24.24.279 8.534.113 17.064.272 25.599.37 16.021.183 31.92.76 47.754 1.602 10.391.554 20.823 1.018 31.231 1.534 2.717.135 5.403.338 8.122.464 5.737.266 11.481.52 17.237.734 1.814.067 3.432.19 5.175.432 2.619.364 5.625.415 8.48.568 2.39.128 4.803.211 7.083.31 1.088.518.544.97.28 1.418-.308.527-.166.993.85 1.465.772.357 1.399.838 1.435 1.27.064.742-1.475 1.336-2.458 1.966-.51.329-1.76.368-2.885.33a530.414 530.414 0 0 0-5.918-.18 21.255 21.255 0 0 0-2.256.056c-.351.03-.743.196-.838.325-.097.13.002.346.27.426 1.39.414 2.933.709 4.876.758 2.251.058 4.486.193 6.734.295.072.6-.147 1.116.257 1.568.522.585-1.017.936-.416 1.573-3.113-.138-5.651-.255-8.192-.364-2.422-.101-4.84-.22-7.27-.285a282.83 282.83 0 0 0-7.774-.107c-2.341.002-4.735-.139-7.537.091 1.192.428 2.209.422 3.222.44 3.653.061 7.305.13 10.955.198.458.008.971-.018 1.36.043 3.952.63 8.326.568 12.45.906a74.04 74.04 0 0 1 5.128.622c.553.084.85.365 1.405.621l-3.04.425c-.455.425.134.657.932.835 1.109.247 2.263.47 3.6.746-.651.207-1.014.4-1.527.472-1.767.249-2.358.79-2.916 1.32-.39.37.09.828-1.154 1.127-.278.068-.143.393-.01.584.278.4.682.79 1.112 1.27-1.076-.022-1.955-.038-2.831-.058-3.04-.069-6.074-.148-9.116-.203-1.342-.024-1.883.262-1.931.772 4.678.69 10.087.516 14.95 1.17v1.159c.922.13 1.772.231 2.577.366.668.112 1.28.262 1.881.387-.114.15-.1.28-.28.344-2.213.8-1.874 1.682.06 2.37 1.766.63 1.588 1.16.298 1.828 2.237.657 3.572 1.471 4.412 2.352.445.469.262 1.007.376 1.588-1.423.116-2.586.304-3.717.285-3.186-.055-6.354-.223-9.539-.297-3.486-.08-6.979-.114-10.472-.15-.572-.005-1.154.087-1.819.14v1.548l-1.74.397c.318.13.46.246.69.27.722.076 1.494.098 2.216.174 1.41.152 2.213.5 2.835 1.073l-6.72.451c2.266.6 4.745.885 6.248 1.59 1.517.712 3.075 1.415 4.619 2.124-1.304.44-1.848.94-.915 1.493.497.293.582.521.359.858-.218.328.123.707.323 1.056.145.252.501.488.693.737.53.688-.095.996-2.199.958-2.51-.046-4.796.066-6.95.559-2.548.584-4 1.415-4.963 2.358-.278.272-.35.68.062.901 2.12 1.146 2.046 2.451 2.726 3.67-3.878 1.604-3.878 1.604-2.919 3.113-.555.23-1.258.493-1.869.78-2.191 1.028-1.826 1.936 1.112 2.689.845.217 1.804.382 2.985.626a875.5 875.5 0 0 0 1.838 1.53c-1.926.795-1.969 1.736-1.188 2.782 1.27.467 3.18.772 3.978 1.545.65.632.869 1.142.168 1.746-.85.733-.299 1.214 1.646 1.493.696.099 1.472.133 2.204.206 1.826.183 2.26.618 1.793 1.315-3.066.02-6.196.037-9.326.06-1.215.01-2.429.033-3.642.051-.608.01-1.29.089-1.807.02-2.798-.365-5.735-.207-8.6-.315-4.696-.176-9.389-.375-14.097-.506-2.026-.056-4.308-.32-5.911.414-1.814.047-3.633.153-5.44.131-5.932-.073-11.857-.2-17.784-.29a650.99 650.99 0 0 0-8.238-.06c-.555-.002-1.113.083-1.86.145 1.794 1.811 3.166 3.574 1.103 5.4.097.098.119.217.301.286.834.314 1.67.608 1.171 1.094-.496.483-1.399.82-2.878.896-3.013.155-6.032.314-9.066.395-5.47.146-10.96.206-16.426.356-9.123.25-18.235.535-27.349.821-8.349.262-16.684.584-25.045.805-5.165.136-10.363.133-15.547.194-2.89.034-5.78.078-8.67.106-3.507.034-7.015.045-10.52.083-4.267.047-8.532.106-12.794.171-18.292.282-36.589.26-54.883.058-6.853-.076-13.69-.312-20.543-.415-6.245-.095-12.503-.096-18.753-.162-6.238-.067-12.471.045-18.698.031-3.645-.008-7.29-.03-10.942-.009-3.363.02-6.709.024-10.014.277-.558.042-1.168.005-1.745.005-.986-.56-1.387-1.059-1.147-1.667.27-.692-.547-.903-2.7-.857-.912.02-1.824.097-2.726.083-.727-.01-1.444-.118-2.25-.19-.05-.182-.241-.345-.101-.462.638-.527.175-.907-1.192-1.188-.89-.183-1.793-.36-2.928-.587 1.042-.553 2.467-.955 2.396-1.647-.098-.937-.076-1.865-1.086-2.76-.72-.637-1.997-1.038-3.97-1.153-1.648-.096-3.315-.157-5.3-.25-.316-.421-.504-.883-1.019-1.298-.44-.354-1.254-.654-1.904-.979.161-.08.342-.239.496-.236 2.975.051 3.704-.937 5.502-1.416.58-.155.63-.686.42-1.007-.596-.92-2.3-1.564-5.222-1.904 0-.56.238-1.13-.068-1.664-.285-.496-1.15-.953-1.584-1.289.161-.796.282-1.457.43-2.117.113-.515.275-1.03.391-1.544.107-.483.615-.875 1.63-1.24.923-.334 1.545-.77 2.22-1.175.612-.368 1.24-.69 2.55-.83 1.582-.169 1.914-.625 1.771-1.13-.128-.45-.315-.897-.512-1.439-3.011-.388-6.198-.689-9.57-.624-3.042.058-6.07.19-9.11.277-2.065.058-4.124.277-5.974-.378-.639-.226-2.332-.208-3.477-.149-2.956.153-5.048-.568-7.61-.806-1.382-.127-1.807-.743-1.779-1.189.062-1.005-1.052-1.81-2.911-2.536-1.074-.422-1.454-.913-1.19-1.451.473-.964-.65-1.844-1.218-2.75-.183-.292-.739-.57-1.259-.822-1.011-.491-2.239-.56-3.965-.247-.53.096-1.014.317-1.513.314-.67-.004-1.463-.123-1.942-.283-.226-.076-.01-.403.296-.542.444-.2 1.183-.322 1.736-.498.44-.14.789-.31 1.33-.529l-1.819-1.212c1.304-.402 1.829-.858 1.563-1.496-.274-.654-.269-1.35.073-2 .591-1.125.466-2.169-1.536-3.129-.174-.083-.314-.183-.375-.282-.511-.799-1.898-1.39-4.37-1.952"/></g></g></svg>