<svg xmlns="http://www.w3.org/2000/svg" width="48" height="27" viewBox="0 0 48 27"><g><g><path fill="#1c1c1c" d="M9.21 20.225l.41.02c.207.013.404-.016.59-.086a.808.808 0 0 0 .44-.362c.1-.182.117-.394.046-.63a7.067 7.067 0 0 0-.234-.676 7.273 7.273 0 0 1-.374-1.304.109.109 0 0 1 .04-.11c.088-.07.181-.13.277-.177-.377.02-.74-.027-1.103-.077a2.843 2.843 0 0 0-2.206.59c-.4.31-.795.617-1.237.873-.816.474-.923 1.492-.189 2.233-.165-.523.155-.575.449-.679.317-.112.63-.095.941-.037.694.126 1.38.275 2.053.461-.014-.03.019-.043.097-.039z"/></g><g><path fill="#1c1c1c" d="M44.9 7.054c1.033-.265 2.067-.532 3.1-.799l-.027-.147c-1.866.195-3.733.387-5.602.58 1.898-.697 3.998-.842 5.612-2.25-2.274.538-4.54 1.09-6.858 1.422 2.123-1.037 4.323-1.893 6.312-3.179-2.833 1.027-5.715 1.896-8.586 2.808 1.215-.738 2.481-1.378 3.67-2.152 1.464-.958 2.822-2.332 2.977-3.13-2.27 2.022-4.919 3.193-7.48 4.536 1.636-1.44 3.304-2.835 4.38-4.789-2.237 2.123-4.695 3.934-7.309 5.554 1.014-1.33 2.016-2.649 2.589-4.238-.586.604-1.11 1.259-1.668 1.88-1.018 1.131-1.925 2.406-3.245 3.199-1.616.968-6.595 3.474-7.574 4.045-2.427 1.415-5.295 2.889-7.512 4.608-.208.164-.378.352-.722.2-2.586-1.154-5.357-1.634-8.136-1.867-3.024-.255-5.283-1.488-6.721-4.177-.07-.132-.116-.318-.408-.36-.209 1.575 1.134 2.33 1.902 3.57-.244-.162-.329-.213-.41-.273-.919-.67-1.523-1.57-1.933-2.622-.045-.118-.053-.503-.308-.271C.61 9.506.662 9.144.62 9.05.434 8.63.393 8.136.024 7.805c-.262 3.42 1.618 5.132 4.814 5.788a200.04 200.04 0 0 1 5.46 2.51c.623.314.67.337.78.597a1.45 1.45 0 0 1 .807.153c.354.185.575.51.663.971.074.402.149.803.221 1.207.014.076.093.235.236.48.24.407.139.685-.304.834-.766.259-1.463.377-2.088.356a2.21 2.21 0 0 1-.174-.017c.89.323 1.747.726 2.558 1.25 3.021 1.947 6.37 2.42 9.858 2.264.425-.02.714.06 1.02.32.406.349.886.68 1.429.584.258-.047.517-.076.773-.086h.487c.408.018.807.086 1.181.21.327.11.653.182.98.231l3.763 1.033a.735.735 0 0 0 .89-.458c.122-.347.331-.754.685-1.015.722-.533 1.197-1.287 1.164-2.019-.033-.73.603-1.445.603-1.445s.219-.571-1.195-.366c-.847-.035-1.693-.062-2.542-.085-1.628-.046-3.265-.02-4.86-.43-.425-.11-.868-.19-1.193-.547.24-.31 1.074-.252.499-1a47.86 47.86 0 0 1 4.834-3.533c3.395-2.163 6.95-3.802 10.081-5.741.176-.11.71-.503 1.523-.933 1.06-.559 2.558-1.42 3-1.76H44.91l-.01-.104z"/></g></g></svg>