<svg xmlns="http://www.w3.org/2000/svg" width="48" height="27" viewBox="0 0 48 27"><g><g><path fill="#fff" d="M9.21 20.673c.137.006.273.012.41.02.207.013.404-.016.59-.087a.808.808 0 0 0 .44-.362c.1-.182.117-.393.046-.629a7.067 7.067 0 0 0-.234-.676 7.273 7.273 0 0 1-.374-1.304.109.109 0 0 1 .04-.11c.088-.07.181-.13.277-.178-.377.02-.74-.027-1.103-.076a2.843 2.843 0 0 0-2.206.59c-.4.31-.795.616-1.237.873-.816.474-.923 1.492-.189 2.233-.165-.524.155-.576.449-.68.317-.111.63-.095.941-.036.694.126 1.38.275 2.053.461-.014-.03.019-.043.097-.04z"/></g><g><path fill="#fff" d="M44.9 7.501c1.033-.265 2.067-.531 3.1-.798l-.027-.147c-1.866.195-3.733.387-5.602.58 1.898-.698 3.998-.843 5.612-2.25-2.274.538-4.54 1.09-6.858 1.421 2.123-1.036 4.323-1.893 6.312-3.178-2.833 1.026-5.715 1.895-8.586 2.808 1.215-.739 2.481-1.378 3.67-2.152 1.464-.958 2.822-2.332 2.977-3.13-2.27 2.021-4.919 3.192-7.48 4.535 1.636-1.44 3.304-2.835 4.38-4.788-2.237 2.123-4.695 3.934-7.309 5.554 1.014-1.33 2.016-2.649 2.589-4.238-.586.604-1.11 1.258-1.668 1.879-1.018 1.132-1.925 2.407-3.245 3.2-1.616.968-6.595 3.474-7.574 4.045-2.427 1.415-5.295 2.888-7.512 4.608-.208.163-.378.352-.722.199-2.586-1.153-5.357-1.633-8.136-1.867-3.024-.255-5.283-1.488-6.721-4.176-.07-.133-.116-.319-.408-.36-.209 1.574 1.134 2.33 1.902 3.57-.244-.162-.329-.214-.41-.273-.919-.67-1.523-1.571-1.933-2.622-.045-.119-.053-.503-.308-.272C.61 9.954.662 9.592.62 9.5.434 9.077.393 8.582.024 8.251c-.262 3.42 1.618 5.132 4.814 5.788a200.04 200.04 0 0 1 5.46 2.51c.623.315.67.338.78.598a1.45 1.45 0 0 1 .807.153c.354.184.575.51.663.97.074.402.149.803.221 1.207.014.077.093.236.236.48.24.408.139.685-.304.835-.766.258-1.463.376-2.088.355a2.21 2.21 0 0 1-.174-.016c.89.322 1.747.726 2.558 1.25 3.021 1.947 6.37 2.419 9.858 2.263.425-.02.714.06 1.02.321.406.348.886.68 1.429.584.258-.047.517-.077.773-.087v.001h.487c.408.018.807.085 1.181.21.327.11.653.181.98.231l3.763 1.033a.735.735 0 0 0 .89-.458c.122-.348.331-.755.685-1.016.722-.532 1.197-1.287 1.164-2.018-.033-.731.603-1.445.603-1.445s.219-.572-1.195-.366c-.847-.036-1.693-.063-2.542-.085-1.628-.046-3.265-.021-4.86-.43-.425-.11-.868-.191-1.193-.547.24-.31 1.074-.253.499-1a47.86 47.86 0 0 1 4.834-3.534c3.395-2.162 6.95-3.801 10.081-5.74.176-.11.71-.503 1.523-.933 1.06-.56 2.558-1.42 3-1.761H44.91L44.9 7.5z"/></g></g></svg>