<svg xmlns="http://www.w3.org/2000/svg" width="197" height="213" viewBox="0 0 197 213"><g><g><path fill="#fff" d="M194.038 37.042a2.171 2.171 0 0 1-.922-2.778L197 24.936v13.765zM16.584 213c.132-.479.427-.915.87-1.217.067-.047.148-.094.222-.127l17.32-9.858-8.283-19.493-5.572 1.561 2.651 10.49a2.173 2.173 0 0 1-1.487 2.611l-9.03 3.371a2.176 2.176 0 0 1-2.792-1.279l-.047-.141-7.973-27.122a2.172 2.172 0 0 1 1.467-2.699c.087-.034.175-.047.262-.06l19.412-4.017-2.92-20.886-5.787.068-.167 10.812a2.173 2.173 0 0 1-1.966 2.134l-9.736.914a2.164 2.164 0 0 1-2.369-1.951c-.006-.074-.006-.155-.006-.229L0 127.689c-.02-1.197.929-2.2 2.127-2.22h.168l19.58 1.157 3.674-20.858-5.524-1.722-3.486 10.234a2.178 2.178 0 0 1-2.664 1.379l-9.414-2.086a2.173 2.173 0 0 1-1.648-2.59l.04-.148h-.007l8.095-27.09a2.181 2.181 0 0 1 2.705-1.466c.08.02.155.047.235.087l18.639 7.267L43.11 71.23 38.5 67.72l-6.769 8.437a2.166 2.166 0 0 1-2.853.47l-.006.015-8.256-5.256a2.175 2.175 0 0 1-.492-3.242L36.873 45.54a2.172 2.172 0 0 1 3.035-.457c.06.047.12.093.174.155l15.019 13.154 15.704-14.21-3.304-4.758-9.043 5.935a2.17 2.17 0 0 1-2.86-.424h-.007l-6.237-7.537a2.19 2.19 0 0 1 .29-3.068c.073-.053.154-.108.228-.161L72.79 17.827a2.162 2.162 0 0 1 3.156.713L86.16 35.657l19.224-8.842-1.716-5.524-10.416 2.954a2.153 2.153 0 0 1-2.597-1.272h-.007L86.96 13.91a2.188 2.188 0 0 1 1.204-2.84c.075-.02.149-.053.223-.067l26.806-8.734a2.171 2.171 0 0 1 2.738 1.4l.047.168 4.624 19.466 21.033-2.476.067-5.794-10.813-.39a2.17 2.17 0 0 1-2.086-2.018h-.006l-.713-9.757a2.176 2.176 0 0 1 2.314-2.321L160.523.5c1.198 0 2.174.976 2.174 2.173l-.008.162h.008l-1.61 19.956 20.772 4.139 1.85-5.477-10.153-3.715a2.174 2.174 0 0 1-1.372-2.563l2.342-9.5a2.162 2.162 0 0 1 2.624-1.588c.08.013.155.04.229.06L197 10.492v4.568l-18.814-6.081-1.319 5.348 10.315 3.775a2.16 2.16 0 0 1 1.319 2.725l-3.089 9.15a2.175 2.175 0 0 1-2.536 1.596l-24.533-4.9a2.156 2.156 0 0 1-1.736-2.388l1.561-19.438-23.576.034.403 5.496 10.974.405a2.17 2.17 0 0 1 2.093 2.18l-.114 9.661a2.184 2.184 0 0 1-1.918 2.302l-24.754 2.913a2.174 2.174 0 0 1-2.463-1.648l-4.522-19.056-22.419 7.294 2.073 5.1 10.556-2.993a2.176 2.176 0 0 1 2.685 1.439l2.92 9.373h-.007a2.17 2.17 0 0 1-1.17 2.618L86.266 40.38a2.186 2.186 0 0 1-2.84-.829L73.39 22.732l-19.19 13.691 3.505 4.247 9.097-5.976.048-.04a2.178 2.178 0 0 1 3.014.558l5.598 8.069c.605.88.484 2.098-.33 2.832L56.641 62.84c-.8.787-2.085.842-2.947.087L38.958 50.022 24.916 68.964l4.649 2.96 6.837-8.533h.006a2.176 2.176 0 0 1 3.042-.416l7.811 5.955h-.006a2.166 2.166 0 0 1 .565 2.805L35.426 93.294a2.178 2.178 0 0 1-2.752 1.076l-18.24-7.126-6.757 22.594 5.377 1.205 3.539-10.388a2.175 2.175 0 0 1 2.705-1.4l9.278 2.9a2.194 2.194 0 0 1 1.589 2.49l-4.118 23.368c.147.31.221.673.202 1.049a2.18 2.18 0 0 1-2.302 2.039l-.276-.027c-.074 0-.154 0-.235-.006L4.395 129.95l.537 23.577 5.491-.518.168-10.981a2.17 2.17 0 0 1 2.153-2.146l9.676-.095a2.166 2.166 0 0 1 2.301 1.871l3.465 24.775a2.168 2.168 0 0 1-1.81 2.442l-19.082 3.95 6.655 22.635 5.153-1.925-2.698-10.664a2.172 2.172 0 0 1 1.52-2.618l9.455-2.651v.007a2.16 2.16 0 0 1 2.584 1.238l9.783 23.032a2.144 2.144 0 0 1-.027 1.75l-.006.026-.04.08-.008.014a2.282 2.282 0 0 1-.881.889L24.095 213zm25.274 0l.526-.35a2.167 2.167 0 0 1 2.802.35z"/></g></g></svg>