<svg xmlns="http://www.w3.org/2000/svg" width="487" height="496" viewBox="0 0 487 496"><g><g><path fill="#685952" d="M127.832 78.13c1.385-1.247 1.591-3.32.56-4.819l-9.524-13.726a3.705 3.705 0 0 0-5.129-.95l-.08.068L98.18 68.87l-5.965-7.224 32.65-23.297 17.082 28.62a3.717 3.717 0 0 0 4.83 1.409l38.558-17.722a3.69 3.69 0 0 0 1.992-4.453h.012l-4.969-15.948c-.606-1.923-2.644-3.022-4.567-2.45L159.84 32.9l-3.526-8.678 38.146-12.41 7.693 32.421a3.7 3.7 0 0 0 4.19 2.805l42.118-4.957a3.713 3.713 0 0 0 3.263-3.915l.195-16.44a3.694 3.694 0 0 0-3.56-3.709l-18.673-.687L229 7.976l40.115-.057-2.656 33.074a3.67 3.67 0 0 0 2.954 4.064l41.74 8.334a3.697 3.697 0 0 0 4.316-2.713l5.255-15.57c.64-1.912-.367-3.972-2.244-4.636l-17.55-6.423 2.244-9.101 38.18 12.341-12.777 30.681c-.778 1.718-.114 3.778 1.569 4.729l37.15 20.801a3.72 3.72 0 0 0 4.91-1.202l9.823-13.246c1.214-1.625.87-3.938-.767-5.163l-.023-.011-14.63-11.449 4.945-7.968 32.513 23.515L382.396 93.3a3.683 3.683 0 0 0 .137 4.934l27.9 31.952a3.677 3.677 0 0 0 4.876.607l13.841-9.25c1.66-1.1 2.13-3.343 1.065-5.026l-9.994-15.81 7.338-5.839 22.713 33.063-28.918 16.565a3.7 3.7 0 0 0-1.488 4.854l16.966 42.577a3.666 3.666 0 0 0 4.305 2.22l.011.012 16.2-4.018a3.697 3.697 0 0 0 2.713-4.465l-.035-.126-3.995-18.043 8.872-3.022 10.166 38.81-32.318 5.69-.218.034-.286.046c-2.015.355-3.354 2.29-3.01 4.293.09.538.297 1.019.583 1.43l5.037 40.562a3.688 3.688 0 0 0 3.961 3.24l16.394.091c2.015.012 3.652-1.602 3.71-3.594l.56-18.684 9.354-.733.309 40.127-33.257-2.473h-.538l-.035.011h-.137l-.23.035h-.022a3.91 3.91 0 0 0-1.706.835l-.046.046-.217.218-.034.034c-.092.091-.184.206-.264.298v.022a3.704 3.704 0 0 0-.675 1.569l-8.014 41.74c-.355 1.843.733 3.64 2.473 4.19v.023l15.856 5.232a3.706 3.706 0 0 0 4.648-2.29l6.296-17.584 9.102 2.175-12.067 38.249-30.864-12.605c-1.81-.721-3.87.08-4.706 1.809l-20.87 36.852a3.694 3.694 0 0 0 1.145 4.888l13.2 9.915a3.722 3.722 0 0 0 5.174-.733l11.54-14.608 7.945 4.991-23.686 32.387-25.083-21.694a3.708 3.708 0 0 0-5.049-.023l-31.368 28.77a3.69 3.69 0 0 0-.527 4.842l9.617 13.658a3.68 3.68 0 0 0 5.151.893l.08-.057 15.399-10.258 6.01 7.178-32.513 23.526-17.184-28.38a3.67 3.67 0 0 0-4.763-1.568l-38.729 17.653c-1.706.79-2.542 2.702-2.003 4.442l4.922 15.959a3.693 3.693 0 0 0 4.534 2.473l17.996-5.05 3.504 8.679-38.18 12.33-7.602-32.4a3.256 3.256 0 0 0-.252-.755l-.08-.16a1.455 1.455 0 0 0-.172-.298l-.011-.034-.046-.046v-.023l-.046-.068-.011-.012-.046-.069h-.011l-.035-.045-.023-.035-.08-.103-.091-.08-.046-.057-.149-.149-.229-.195-.069-.057-.183-.126-.034-.011-.057-.046a3.998 3.998 0 0 0-.962-.412c-.138-.046-.275-.057-.424-.08l-.023-.023h-.034l-.149-.012-.046-.011h-.057l-.252-.012h-.091l-.264.023h-.057l-42.29 4.877a3.69 3.69 0 0 0-3.274 3.881l-.229 16.44c-.023 2.003 1.557 3.675 3.538 3.732l18.683.744.664 9.354-40.126-.035 2.77-33.234a3.707 3.707 0 0 0-3.056-3.961l-41.283-9.582c-1.889-.435-3.778.686-4.35 2.495l-5.77 15.478c-.698 1.866.24 3.961 2.095 4.706h-.011l17.355 6.983-2.518 9.01-37.78-13.52 13.773-30.373a3.707 3.707 0 0 0-1.637-4.785l-36.326-21.843a3.691 3.691 0 0 0-4.785.87l-10.372 13.085a3.706 3.706 0 0 0 .515 5.14l14.356 11.987-5.175 7.796-31.757-24.51 22.45-24.626a3.703 3.703 0 0 0-.08-5.072l-27.774-31.986a3.688 3.688 0 0 0-4.83-.664l-13.91 9.239a3.693 3.693 0 0 0-1.042 5.128l.023.035 9.88 15.707-7.339 5.838-22.633-33.13 28.895-16.452a3.88 3.88 0 0 0 1.5-1.511l.011-.023.07-.138.01-.045a3.64 3.64 0 0 0 .046-2.977L50.98 303.971a3.671 3.671 0 0 0-4.396-2.107v-.011l-16.085 4.51a3.696 3.696 0 0 0-2.588 4.454l4.591 18.145-8.77 3.274-11.322-38.511 32.468-6.72a3.69 3.69 0 0 0 3.08-4.156l-5.897-42.153a3.685 3.685 0 0 0-3.915-3.182l-16.462.16a3.694 3.694 0 0 0-3.664 3.652l-.286 18.683-9.342.882-.916-40.115 32.399 1.9c.137.012.275.012.4.012l.47.046a3.708 3.708 0 0 0 3.915-3.469 3.697 3.697 0 0 0-.343-1.786l7.006-39.76a3.733 3.733 0 0 0-2.702-4.236l-15.787-4.934a3.701 3.701 0 0 0-4.602 2.381l-6.022 17.677-9.147-2.05 11.494-38.443 31.036 12.124a3.709 3.709 0 0 0 4.683-1.832l21.087-36.68a3.686 3.686 0 0 0-.961-4.774h.011L67.122 106.82a3.702 3.702 0 0 0-5.175.71h-.011l-11.632 14.516-7.91-5.037 23.892-32.227 25.072 21.958a3.69 3.69 0 0 0 5.014-.149l31.46-28.46zm-59.634-1.487a2.133 2.133 0 0 0-.298-.264 3.694 3.694 0 0 0-5.163.779l-28.495 38.454a2.279 2.279 0 0 0-.309.413 3.704 3.704 0 0 0 1.145 5.105l14.047 8.942.011-.023c1.557 1.007 3.664.675 4.854-.802l11.517-14.356 7.842 5.976-18.02 31.311-31.71-12.364a1.896 1.896 0 0 0-.401-.149 3.713 3.713 0 0 0-4.603 2.496L4.843 188.25h.012l-.07.252c-.434 1.993.814 3.973 2.806 4.408l16.016 3.55a3.705 3.705 0 0 0 4.533-2.348l5.93-17.413 9.4 2.931-6.251 35.49-33.315-1.97h-.286c-2.038.035-3.652 1.74-3.618 3.779l1.11 47.968c0 .126 0 .263.012.389a3.682 3.682 0 0 0 4.03 3.32l16.566-1.557a3.694 3.694 0 0 0 3.343-3.629l.286-18.397 9.845-.115 4.969 35.536-33.028 6.834c-.15.023-.298.046-.447.103-1.957.573-3.068 2.633-2.495 4.59l13.566 46.149.08.24a3.7 3.7 0 0 0 4.75 2.175l15.364-5.735c1.89-.573 3.023-2.519 2.53-4.442l-4.51-17.848 9.48-2.656 14.092 33.166-29.468 16.771a2.481 2.481 0 0 0-.378.218 3.713 3.713 0 0 0-.973 5.152l27.087 39.645.206.275a3.696 3.696 0 0 0 5.197.595l13.04-10.35c1.454-1.155 1.843-3.239.824-4.842l-9.788-15.592 8.208-5.461 23.618 27.212-22.942 25.164v.011l-.183.23a3.699 3.699 0 0 0 .664 5.185l37.962 29.296c.103.08.218.172.332.24a3.695 3.695 0 0 0 5.129-1.041l9.136-13.772c1.11-1.546.847-3.721-.642-4.969l-14.138-11.803 6.125-7.716 30.876 18.58-13.99 30.853c-.08.126-.149.275-.206.435-.676 1.924.32 4.053 2.244 4.74l45.289 16.234v-.023l.263.08a3.69 3.69 0 0 0 4.545-2.565l4.454-15.924a3.704 3.704 0 0 0-2.153-4.534l-17.08-6.869 3.434-9.227 35.192 8.174-2.828 34.047h.012l-.012.298c0 2.026 1.649 3.698 3.687 3.698l47.853.057h.493a3.712 3.712 0 0 0 3.446-3.95l-1.168-16.6a3.712 3.712 0 0 0-3.538-3.457l-18.397-.721.137-9.834 35.8-4.133 7.772 33.143c.023.103.058.206.092.286a3.695 3.695 0 0 0 4.637 2.404l45.69-14.745.343-.126c1.89-.756 2.805-2.897 2.05-4.809l-6.183-15.317a3.68 3.68 0 0 0-4.476-2.29l-17.722 4.969-2.908-9.4 32.8-14.974 17.492 28.884c.08.183.184.344.31.504a3.686 3.686 0 0 0 5.163.824l38.97-28.174v-.023l.206-.137c1.568-1.328 1.774-3.664.47-5.21l-10.705-12.776v.012a3.692 3.692 0 0 0-4.888-.698l-15.307 10.2-5.667-8.06 26.56-24.339 25.633 22.153a3.696 3.696 0 0 0 5.518-.504l28.38-38.821v-.023l.15-.217a3.699 3.699 0 0 0-1.169-5.083l-14.012-8.77a3.674 3.674 0 0 0-4.946.779l-11.425 14.425-7.877-5.92 17.768-31.379 31.46 12.834c.126.057.263.103.39.16 1.957.595 4.04-.47 4.647-2.427l14.46-45.84c.034-.09.068-.194.09-.308.47-1.97-.766-3.973-2.747-4.454l-16.2-3.858a3.696 3.696 0 0 0-4.338 2.37l-6.205 17.31-9.342-3.08 6.8-35.375 33.967 2.519v-.012l.275.012a3.701 3.701 0 0 0 3.675-3.71l-.378-47.842c.012-.16.012-.355 0-.526a3.714 3.714 0 0 0-3.984-3.412l-16.6 1.317h.012a3.732 3.732 0 0 0-3.412 3.594l-.55 18.386-9.845-.045-4.419-35.536 32.914-5.804h-.011l.297-.08c1.97-.515 3.16-2.519 2.645-4.488l-12.135-46.354a2.174 2.174 0 0 0-.126-.435 3.702 3.702 0 0 0-4.683-2.336l-15.764 5.358v.023a3.683 3.683 0 0 0-2.416 4.293l3.973 17.951-9.582 2.381-14.7-36.863 29.628-16.99-.011-.01.252-.161a3.668 3.668 0 0 0 .961-5.106l-27.063-39.405c-.103-.16-.206-.32-.332-.48a3.69 3.69 0 0 0-5.186-.573L413.03 96.998a3.685 3.685 0 0 0-.824 4.854l9.834 15.558-8.186 5.472-23.766-27.201 22.198-25.953.194-.24a3.696 3.696 0 0 0-.835-5.152l-38.947-28.152c-.08-.068-.172-.126-.264-.194-1.728-1.054-4.006-.515-5.071 1.202l-8.77 14.15a3.706 3.706 0 0 0 .87 4.865l14.494 11.334-5.873 7.91-31.448-17.607 13.085-31.414-.011-.011c.045-.092.08-.183.114-.298.618-1.923-.446-4.007-2.393-4.636L301.8 6.728c-.126-.034-.252-.08-.39-.103a3.681 3.681 0 0 0-4.464 2.702l-3.984 16.165a3.7 3.7 0 0 0 2.335 4.361l17.275 6.32-3.148 9.319-35.34-7.04 2.736-33.956h-.012l.012-.275a3.703 3.703 0 0 0-3.698-3.698l-47.854.08a3.696 3.696 0 0 0-.504 0c-2.038.137-3.572 1.912-3.434 3.95l1.213 16.6h.012a3.693 3.693 0 0 0 3.549 3.434l18.397.664-.114 9.857-35.788 4.213-7.865-33.12-.08-.286a3.693 3.693 0 0 0-4.66-2.381l-45.61 14.86c-.125.023-.251.08-.377.114a3.724 3.724 0 0 0-2.05 4.831l6.275 15.421h.011a3.665 3.665 0 0 0 4.419 2.164l17.722-5.026 2.92 9.4-32.708 15.042-17.379-29.124a2.514 2.514 0 0 0-.217-.344 3.68 3.68 0 0 0-5.152-.87L84.855 57.81c-.126.092-.263.183-.39.275-1.568 1.316-1.785 3.652-.491 5.22l10.612 12.822h.012a3.69 3.69 0 0 0 4.865.722l15.386-10.098 5.622 8.094-26.72 24.179zm215.17 375.354c.034.114.057.24.069.378"/></g></g></svg>