<svg xmlns="http://www.w3.org/2000/svg" width="74" height="92" viewBox="0 0 74 92"><g><g><path d="M1.164 6.936c-.295.478-.08.572.896.966.784.317 1.53.718 2.263 1.13.517.29.666.203.91.79.16.39.073.94.102 1.42.11 1.964.758 3.465 1.603 5.152.496.991.696 1.417.846 2.547.058.44.062 1.126.178 1.523.073.247.15.375.35.466.714.324 1.297.397 1.905-.087.441-.354 1.366-.565 1.195-1.472-.615-3.261.146-10.748 3.946-6.307.55.642.856 1.29.99 2.2.522 3.564-1.86 9.422-2.983 12.84a80.982 80.982 0 0 0-1.44 4.936c-1 3.789-.786 7.763-1.132 11.622-.135 1.49-.62 2.13-1.687 3.038-.153.131-.226.248-.393.379l-2.54 2.24c-.12.12-.302.256-.451.376-.838.677-2.594 2.266-3.352 3.024-.816.82-1.855 1.559-1.895 2.874-.01.364.656 1.92.824 2.354.284.732.62 1.577.958 2.233.357.692.648 1.457 1.035 2.15.386.691.743 1.35 1.144 2.043l2.338 4.037c1.192 2.073.77 3.166 1.483 4.892.252.605.7 1.67 1.308 1.895.477-.343 1.836-3.654 2.317-4.638.142-.295.408-.696.117-.998-.339-.343-1.654-.412-2.157-.62-1.64-.68-.612-2.284-2.022-3.533-.849-.75-.7-.543-1.373-1.4-.416-.531-.773-1.121-1.133-1.693-.784-1.246-1.064-2.478-1.578-3.979-.248-.728-.288-1.701-.044-2.448.23-.707.78-1.133 1.4-1.424.63-.3 1.307-.55 1.963-.813.627-.255 1.271-.59 1.862-.918.86-.477 2.277-.882 2.9-1.26.419-.255.564-.354 1.184-.24 1.191.214 1.54 2.458 1.81 3.74.32 1.538.474 3.367.569 4.988.222 3.673-.168 7.305-.124 10.955.022 1.83.113 3.622.142 5.447.033 1.847-.03 3.683-.102 5.516-.047 1.144-.139 4.196-.565 4.998a8.086 8.086 0 0 1-1.144 1.636c-.524.575-.849 1.177-1.224 1.577l.379.16-.28.12c.495.314 4.4.303 4.9.019-.3-.933-1.225-1.99-1.002-3.22.083-.481 1.009-1.502 1.402-1.833.153-.128.488-.32.5-.59.029-.641-.602-2.773-.802-3.476-.772-2.707-.16-9.294-.015-12.15.142-2.78.088-5.377.554-8.077.525-3.024 1.188-5.585 2.36-8.383.398-.947.81-2.113 1.352-2.965.164-.255.215-.456.39-.692.168-.234.27-.423.427-.653l.921-1.187c1.119-1.235 2.755-1.76 4.521-1.96 2.707-.31 5.436-.423 8.183-.164 3.122.291 5.556.921 7.6 3.151 2.725 2.973 3.967 6.678 4.186 10.875.135 2.554-.146 5.527-.718 7.858a24.266 24.266 0 0 1-1.053 3.217c-.4.995-.834 2.066-1.286 3.031-.91 1.939-1.69 4.103-2.703 5.935-1.01 1.825-2.04 3.898-3.21 5.377-.171.219-.31.357-.448.63-.313.605-1.282 1.06-1.869 1.374-.758.408-1.97 1.283-2.102 2.219.75.164 6.729.273 7.079-.015.09-.09-.004-.422-.07-.568-.109-.248-.987-.984-1.224-1.242-.335-.372.011-.867.248-1.093.346-.335.714-.255.926-.718l1.992-4.488c1.006-2.237 2.23-4.256 3.316-6.401.896-1.775 1.956-3.447 2.86-5.214.193-.379.393-.703.56-1.082.445-1.005.168-4.765.274-6.2.182-2.467.962-6.96 2.138-9.229.11-.207.179-.317.303-.52.062-.1.109-.157.164-.245.065-.102.08-.16.145-.251.474-.018.864.353 1.079.612.138.16.28.244.419.4.67.758 1.3 1.57 1.92 2.401.969 1.301 1.8 2.66 2.703 4.135.393.645.845 1.476 1.173 2.223 1.053 2.397 2.175 4.71 3.075 7.21 1.909 5.308 2.27 9.078 2.397 14.682.018.9.124 2.495-.014 3.333-.055.32-.208 1.13-.361 1.337-.168.226-.842.915-1.159 1.36l-.765.986c-.19.208-.342.274-.262.576.484.266 5.712.404 6.357.222-.156-.113-.331-.102-.535-.145.16-.106.455-.099.652-.11-.066-.215-.623-1.064-.783-1.293-.285-.4-.569-.83-.827-1.279-.66-1.136-.19-1.166.327-2.095.653-1.176.806-.338.354-2.342L67.9 79.439c-.955-4.656-1.742-7.905-2.084-12.667-.055-.761.022-1.086-.36-1.752-1.025-1.79-2.081-3.469-3.072-5.308-1.446-2.69-2.856-6.565-2.838-9.8.014-3.946.455-5.873-.394-9.852-.098-.466-.36-1.493.033-1.825.252-.146 1.115.04 1.385.157 1.351.583 1.624 1.337 2.156 2.78l1.421 5.206c.212.867.467 1.737.681 2.612.274 1.1 1.52 7.075 1.658 8.27.106.918.813 4.423 1.035 5.541.357 1.807.707 3.64 1.242 5.388.375 1.228 1.264 3.698 1.91 4.73.345.556 2.101 3.471 2.852 3.78-.011-.673-.332-1.733-.452-2.426-.437-2.499-.721-5.038-1.1-7.545-.66-4.328-2.907-14.281-4.175-18.959-.616-2.266-1.866-6.681-3.1-8.467-.39-.557-.9-1.1-1.36-1.519-.564-.517-.856-.852-1.686-1.195-.725-.298-1.709-.35-2.489-.109l-.182.073-.033.018-.029.018c-.073.03.044 0-.113.037-.892.2-.918.47-1.694.728-.903.303-4.11.354-5.315.452-3.385.284-6.653.893-9.942 1.618-3.69.812-6.514 1.264-10.39 1.082-2.668-.124-2.595-.794-3.112-1.21-.2-.16-.179-.207-.24-.473a4.593 4.593 0 0 1-.095-.704c-.142.008-.266.008-.408.008l.382-.022c.04-.383.004-.893.022-1.304.091-2.143.816-6.427 1.111-8.624 1.163-8.674 1.95-17.644-5.384-23.95-3.385-2.91-7.819-4.55-12.088-3.92-4.077.605-8.456 3.352-10.49 6.63"/></g></g></svg>