<svg xmlns="http://www.w3.org/2000/svg" width="30" height="30" viewBox="0 0 30 30"><g><g><path fill="#fff" d="M13.414 6.469v6.98H9.546v3.822h7.69V6.469zm1.529-2.508c2.824 0 5.65 1.077 7.806 3.232 4.311 4.31 4.311 11.302 0 15.613-4.31 4.31-11.302 4.31-15.613 0-4.311-4.311-4.311-11.302 0-15.613a11.008 11.008 0 0 1 7.807-3.232zm0-3.903A14.894 14.894 0 0 0 4.377 4.433c-5.836 5.835-5.836 15.298 0 21.133 5.835 5.835 15.296 5.835 21.132 0 5.835-5.835 5.835-15.298 0-21.133A14.894 14.894 0 0 0 14.943.058z"/></g></g></svg>