<svg xmlns="http://www.w3.org/2000/svg" width="73" height="92" viewBox="0 0 73 92"><g><g><path fill="#fff" d="M.689 6.765c-.295.477-.08.572.896.965.783.317 1.53.718 2.262 1.13.518.291.667.204.911.79.16.39.073.94.102 1.42.11 1.965.758 3.466 1.603 5.152.496.991.696 1.418.845 2.547.059.44.062 1.126.179 1.523.073.248.15.375.35.466.714.324 1.297.397 1.905-.087.44-.354 1.366-.565 1.195-1.472-.616-3.26.146-10.748 3.946-6.306.55.64.856 1.29.99 2.2.522 3.563-1.861 9.421-2.983 12.839a80.982 80.982 0 0 0-1.44 4.936c-1.001 3.789-.786 7.764-1.132 11.622-.135 1.49-.62 2.131-1.687 3.038-.153.131-.226.248-.394.38l-2.539 2.24c-.12.12-.302.255-.452.375-.838.678-2.594 2.266-3.351 3.024C1.079 54.367.04 55.106 0 56.42c-.01.365.656 1.92.824 2.354.284.732.619 1.577.958 2.233.357.692.648 1.457 1.034 2.15.387.692.744 1.351 1.144 2.043l2.34 4.037c1.19 2.073.768 3.166 1.482 4.893.251.604.7 1.668 1.308 1.894.477-.342 1.836-3.654 2.317-4.638.142-.295.408-.695.117-.998-.34-.342-1.654-.412-2.157-.62-1.64-.68-.612-2.283-2.022-3.533-.849-.75-.7-.543-1.374-1.4-.415-.531-.772-1.121-1.133-1.693-.783-1.246-1.063-2.477-1.577-3.978-.248-.73-.288-1.702-.044-2.449.23-.706.78-1.133 1.4-1.424.63-.299 1.307-.55 1.963-.813.626-.255 1.271-.59 1.861-.918.86-.477 2.277-.881 2.9-1.26.42-.255.565-.354 1.184-.24 1.192.214 1.542 2.458 1.811 3.74.32 1.538.474 3.367.568 4.988.223 3.673-.167 7.305-.123 10.955.021 1.83.113 3.622.142 5.447.032 1.847-.03 3.683-.102 5.516-.048 1.144-.139 4.197-.565 4.998a8.086 8.086 0 0 1-1.144 1.636c-.525.576-.849 1.177-1.224 1.577l.379.16-.28.121c.495.313 4.4.302 4.9.018-.3-.932-1.225-1.989-1.003-3.22.084-.481 1.01-1.501 1.403-1.833.153-.127.488-.32.5-.59.028-.641-.602-2.773-.802-3.476-.773-2.707-.16-9.293-.015-12.15.142-2.78.088-5.377.554-8.077.524-3.023 1.188-5.585 2.36-8.383.398-.947.81-2.113 1.352-2.965.164-.255.215-.456.39-.692.168-.233.27-.423.426-.652l.922-1.188c1.119-1.235 2.754-1.76 4.521-1.96 2.707-.31 5.436-.423 8.183-.164 3.122.291 5.556.922 7.6 3.151 2.725 2.973 3.967 6.678 4.186 10.875.134 2.554-.146 5.527-.718 7.858a24.266 24.266 0 0 1-1.053 3.217c-.4.995-.834 2.066-1.286 3.032-.91 1.938-1.69 4.102-2.703 5.934-1.01 1.826-2.04 3.899-3.21 5.378-.171.218-.31.357-.448.63-.313.605-1.283 1.06-1.87 1.373-.757.408-1.97 1.283-2.101 2.22.75.163 6.729.272 7.079-.016.09-.09-.004-.422-.07-.568-.109-.248-.987-.983-1.224-1.242-.335-.372.011-.867.248-1.093.346-.335.714-.255.925-.718l1.993-4.488c1.006-2.237 2.23-4.255 3.315-6.401.897-1.775 1.957-3.447 2.86-5.214.193-.379.394-.703.561-1.082.445-1.005.168-4.765.274-6.2.182-2.467.961-6.959 2.138-9.229.11-.207.179-.317.303-.52.061-.099.109-.157.163-.245.066-.102.08-.16.146-.251.474-.018.864.353 1.079.612.138.16.28.244.419.4.67.759 1.3 1.571 1.92 2.402.969 1.3 1.8 2.66 2.703 4.135.393.644.845 1.475 1.173 2.222 1.053 2.397 2.175 4.71 3.075 7.21 1.909 5.308 2.27 9.079 2.397 14.682.018.9.124 2.495-.015 3.333-.054.321-.207 1.13-.36 1.337-.168.226-.842.915-1.159 1.36l-.765.987c-.19.207-.342.273-.262.575.484.266 5.712.405 6.357.222-.157-.112-.331-.102-.535-.145.16-.106.455-.099.652-.11-.066-.215-.623-1.063-.784-1.293-.284-.4-.568-.83-.827-1.279-.659-1.136-.189-1.165.328-2.094.652-1.177.805-.34.354-2.343l-1.112-5.213c-.954-4.656-1.74-7.906-2.083-12.668-.055-.761.021-1.085-.361-1.752-1.024-1.789-2.08-3.468-3.071-5.308-1.447-2.689-2.857-6.565-2.838-9.8.014-3.946.455-5.873-.394-9.852-.098-.466-.36-1.493.033-1.825.251-.146 1.115.04 1.384.157 1.352.583 1.625 1.337 2.157 2.78l1.421 5.206c.211.867.466 1.738.681 2.612.273 1.1 1.52 7.075 1.658 8.27.106.918.812 4.423 1.035 5.541.357 1.807.706 3.64 1.242 5.388.375 1.228 1.264 3.698 1.909 4.73.346.557 2.102 3.471 2.853 3.78-.011-.673-.332-1.733-.452-2.425-.437-2.5-.722-5.039-1.1-7.546-.66-4.328-2.908-14.28-4.176-18.959-.615-2.266-1.865-6.681-3.1-8.466-.39-.558-.9-1.1-1.359-1.52-.564-.517-.856-.852-1.687-1.195-.725-.298-1.708-.35-2.488-.109l-.182.073-.033.018-.029.018c-.073.03.044 0-.113.037-.892.2-.918.47-1.694.729-.903.302-4.11.353-5.315.451-3.385.284-6.653.893-9.943 1.618-3.69.812-6.514 1.264-10.39 1.082-2.667-.124-2.594-.794-3.111-1.21-.2-.16-.179-.207-.24-.473a4.593 4.593 0 0 1-.095-.703c-.142.007-.266.007-.408.007l.382-.022c.04-.382.004-.893.022-1.304.091-2.142.816-6.427 1.111-8.624 1.162-8.674 1.95-17.644-5.384-23.95-3.385-2.91-7.819-4.55-12.089-3.92C7.101.74 2.722 3.486.69 6.764"/></g></g></svg>