<svg xmlns="http://www.w3.org/2000/svg" width="114" height="116" viewBox="0 0 114 116"><defs><filter id="ns7ca" width="134" height="136" x="-10" y="-10" filterUnits="userSpaceOnUse"><feOffset in="SourceGraphic" result="FeOffset1031Out"/><feGaussianBlur in="FeOffset1031Out" result="FeGaussianBlur1032Out" stdDeviation="2.4 2.4"/></filter></defs><g><g><g filter="url(#ns7ca)"><path fill="none" d="M32.682 22.199a.77.77 0 0 0 .117-1.006l-1.988-2.865a.773.773 0 0 0-1.07-.199l-.018.015-3.23 2.122-1.245-1.508 6.815-4.863 3.565 5.974c.21.349.65.47 1.008.294l8.048-3.7a.77.77 0 0 0 .416-.929h.002l-1.037-3.328a.773.773 0 0 0-.953-.512l-3.75 1.064-.735-1.812 7.962-2.59 1.605 6.767c.094.397.478.65.875.586l8.791-1.035a.775.775 0 0 0 .681-.817l.04-3.432a.77.77 0 0 0-.742-.774l-3.898-.143-.143-1.952 8.373-.012-.555 6.903a.766.766 0 0 0 .617.848l8.712 1.74c.406.081.8-.17.901-.566l1.097-3.25a.767.767 0 0 0-.468-.968l-3.664-1.34.469-1.9 7.969 2.576-2.667 6.404a.77.77 0 0 0 .327.987l7.754 4.341a.776.776 0 0 0 1.026-.25l2.05-2.765a.771.771 0 0 0-.16-1.078l-.005-.002-3.054-2.39 1.032-1.663 6.787 4.908-4.524 5.286a.769.769 0 0 0 .029 1.03l5.823 6.669c.26.299.7.349 1.018.127l2.89-1.931a.768.768 0 0 0 .221-1.05l-2.086-3.3 1.532-1.218 4.74 6.901-6.035 3.458a.772.772 0 0 0-.31 1.013l3.54 8.887c.144.365.531.554.899.463l.002.003 3.382-.84a.772.772 0 0 0 .566-.931l-.007-.026-.834-3.766 1.852-.631 2.122 8.1-6.746 1.188-.045.007-.06.01a.777.777 0 0 0-.629.896c.02.112.062.213.122.299l1.052 8.466a.77.77 0 0 0 .826.676l3.422.019a.772.772 0 0 0 .774-.75l.117-3.9 1.953-.153.064 8.375-6.941-.516h-.113l-.007.003h-.028l-.048.007h-.005a.816.816 0 0 0-.356.174l-.01.01-.045.045-.007.007c-.02.02-.038.043-.055.062v.005a.773.773 0 0 0-.141.328l-1.673 8.712a.765.765 0 0 0 .516.874v.005l3.31 1.092a.774.774 0 0 0 .97-.478l1.314-3.67 1.9.454-2.519 7.983-6.442-2.63a.774.774 0 0 0-.982.377l-4.356 7.692a.771.771 0 0 0 .239 1.02l2.755 2.07a.777.777 0 0 0 1.08-.153l2.409-3.05 1.658 1.043-4.944 6.76-5.235-4.529a.774.774 0 0 0-1.054-.004l-6.547 6.004a.77.77 0 0 0-.11 1.011l2.007 2.851a.768.768 0 0 0 1.075.186l.017-.012 3.214-2.14 1.254 1.498-6.786 4.91-3.587-5.924a.766.766 0 0 0-.994-.327l-8.084 3.685a.773.773 0 0 0-.418.927l1.028 3.33a.77.77 0 0 0 .946.517l3.756-1.054.732 1.812-7.97 2.573-1.586-6.762a.68.68 0 0 0-.053-.158l-.016-.033a.304.304 0 0 0-.036-.063l-.003-.007-.01-.01v-.004l-.009-.014-.002-.003-.01-.014h-.002l-.007-.01-.005-.007-.017-.021-.019-.017-.01-.012-.016-.017-.01-.01-.005-.004-.047-.04-.015-.013-.038-.026-.007-.002-.012-.01a.834.834 0 0 0-.2-.086c-.03-.01-.058-.012-.09-.017l-.004-.004h-.007l-.031-.003-.01-.002h-.012l-.052-.003h-.02l-.054.005h-.012l-8.827 1.018a.77.77 0 0 0-.684.81l-.047 3.431a.768.768 0 0 0 .738.78l3.9.155.138 1.952-8.375-.007.578-6.937a.774.774 0 0 0-.638-.827l-8.616-2a.775.775 0 0 0-.908.521l-1.205 3.23c-.146.39.05.828.437.983h-.002l3.623 1.458-.526 1.88-7.886-2.822 2.875-6.34a.774.774 0 0 0-.342-.998l-7.582-4.56a.77.77 0 0 0-.998.182l-2.165 2.731a.774.774 0 0 0 .107 1.073l2.997 2.502-1.08 1.627-6.629-5.116 4.686-5.14a.773.773 0 0 0-.017-1.058l-5.797-6.676a.77.77 0 0 0-1.008-.139l-2.904 1.928a.77.77 0 0 0-.217 1.07l.005.008 2.062 3.278-1.532 1.22-4.724-6.916 6.031-3.434a.81.81 0 0 0 .313-.315l.017-.034.003-.01a.76.76 0 0 0 .01-.62l-3.475-8.18a.766.766 0 0 0-.918-.44v-.002l-3.357.941a.771.771 0 0 0-.54.93l.958 3.787-1.83.684-2.364-8.039 6.777-1.402a.77.77 0 0 0 .643-.868l-1.23-8.798a.77.77 0 0 0-.818-.664l-3.436.033a.771.771 0 0 0-.765.762l-.06 3.9-1.95.184-.19-8.373 6.762.397c.029.002.057.002.083.002l.098.01a.774.774 0 0 0 .746-1.097l1.462-8.299a.78.78 0 0 0-.564-.884l-3.295-1.03a.773.773 0 0 0-.96.497l-1.257 3.69-1.91-.428 2.4-8.024 6.478 2.53a.774.774 0 0 0 .977-.382l4.401-7.656a.77.77 0 0 0-.2-.996h.002l-2.774-2.115a.773.773 0 0 0-1.08.148h-.003l-2.427 3.03-1.651-1.051 4.986-6.727 5.234 4.583a.77.77 0 0 0 1.046-.031l6.567-5.94zm-12.447-.311c-.02-.022-.041-.038-.063-.055a.771.771 0 0 0-1.077.162l-5.948 8.027a.773.773 0 0 0 .174 1.152l2.933 1.866.002-.005a.769.769 0 0 0 1.013-.167l2.404-2.997 1.637 1.248-3.761 6.535-6.62-2.58a.775.775 0 0 0-1.044.49l-2.874 9.62h.002L7 45.235c-.09.416.17.83.585.92l3.343.74c.395.115.813-.1.947-.49l1.237-3.634 1.962.612-1.305 7.408-6.953-.411h-.06a.773.773 0 0 0-.755.788l.232 10.012a.768.768 0 0 0 .844.774l3.457-.324a.771.771 0 0 0 .698-.758l.06-3.84 2.055-.024 1.037 7.417-6.894 1.427c-.031.005-.062.01-.093.021a.771.771 0 0 0-.521.959l2.831 9.632.017.05c.15.4.593.602.992.454l3.206-1.197a.771.771 0 0 0 .528-.927l-.941-3.725 1.979-.555 2.941 6.923-6.15 3.5a.775.775 0 0 0-.282 1.12l5.653 8.276.043.057c.265.335.75.39 1.085.125l2.722-2.16a.766.766 0 0 0 .172-1.011l-2.043-3.255L21.34 83l4.93 5.68-4.79 5.252v.003l-.037.048c-.26.339-.199.82.138 1.082l7.924 6.115a.771.771 0 0 0 1.14-.167l1.907-2.875a.77.77 0 0 0-.134-1.037l-2.951-2.464 1.278-1.61 6.445 3.878-2.92 6.44a.457.457 0 0 0-.043.09.777.777 0 0 0 .468.99l9.453 3.388v-.005l.055.017a.77.77 0 0 0 .949-.535l.93-3.324a.773.773 0 0 0-.45-.946l-3.565-1.434.717-1.926 7.345 1.706-.59 7.107h.002l-.002.062c0 .423.344.772.77.772l9.987.012h.103a.775.775 0 0 0 .72-.825l-.244-3.465a.775.775 0 0 0-.739-.721l-3.84-.15.03-2.053 7.471-.863 1.623 6.918a.35.35 0 0 0 .019.06c.129.406.564.63.968.501l9.536-3.078.072-.026a.771.771 0 0 0 .428-1.003l-1.29-3.198a.768.768 0 0 0-.935-.477l-3.7 1.037-.606-1.962 6.846-3.126 3.651 6.029a.77.77 0 0 0 1.142.277l8.134-5.88v-.005l.043-.029a.773.773 0 0 0 .098-1.087l-2.234-2.667v.003a.77.77 0 0 0-1.02-.146l-3.195 2.129-1.183-1.682 5.544-5.08 5.35 4.623a.772.772 0 0 0 1.152-.105l5.923-8.103v-.005l.031-.045a.772.772 0 0 0-.243-1.06l-2.925-1.831a.767.767 0 0 0-1.032.162l-2.385 3.011-1.644-1.235 3.708-6.55 6.567 2.679c.026.011.055.021.081.033a.775.775 0 0 0 .97-.507l3.018-9.567a.777.777 0 0 0-.554-.994l-3.381-.806a.771.771 0 0 0-.906.495l-1.295 3.613-1.95-.643 1.42-7.383 7.09.525v-.002l.057.002a.772.772 0 0 0 .767-.774l-.08-9.986a.775.775 0 0 0-.832-.822l-3.464.275h.003a.78.78 0 0 0-.712.75l-.115 3.838-2.055-.01-.922-7.417 6.87-1.211h-.003l.062-.017a.768.768 0 0 0 .552-.937l-2.533-9.675a.773.773 0 0 0-1.004-.578l-3.29 1.118v.005a.769.769 0 0 0-.504.896l.83 3.747-2 .497-3.069-7.694 6.184-3.547-.002-.002.052-.033a.766.766 0 0 0 .201-1.066l-5.649-8.225a.77.77 0 0 0-1.152-.22l-2.716 2.168a.77.77 0 0 0-.172 1.013l2.052 3.247-1.708 1.142-4.961-5.677 4.633-5.417.041-.05a.772.772 0 0 0-.174-1.076l-8.13-5.876c-.016-.014-.036-.026-.055-.04a.775.775 0 0 0-1.058.25l-1.83 2.954a.774.774 0 0 0 .181 1.016l3.025 2.365-1.226 1.652-6.564-3.676 2.732-6.556-.003-.003a.772.772 0 0 0-.476-1.03l-9.524-3.08c-.026-.007-.053-.017-.081-.021a.768.768 0 0 0-.932.564l-.832 3.374a.772.772 0 0 0 .488.91l3.606 1.319-.658 1.945-7.376-1.47.571-7.087h-.002l.002-.057A.773.773 0 0 0 63.007 6l-9.988.017a.772.772 0 0 0-.822.824l.253 3.465h.003a.77.77 0 0 0 .74.717l3.84.138-.024 2.058-7.47.88-1.64-6.914-.018-.06a.77.77 0 0 0-.972-.497l-9.52 3.102c-.026.005-.053.017-.079.024a.777.777 0 0 0-.428 1.008l1.31 3.219h.002c.144.36.54.562.923.452l3.699-1.05.609 1.962-6.827 3.14-3.627-6.079a.768.768 0 0 0-1.12-.253l-8.14 5.804c-.026.02-.055.038-.081.058a.778.778 0 0 0-.103 1.09l2.215 2.675h.003a.77.77 0 0 0 1.015.151l3.212-2.108 1.173 1.69-5.577 5.047zm44.91 78.346c.008.024.013.05.015.078"/></g><path fill="#fff" d="M32.682 22.199a.77.77 0 0 0 .117-1.006l-1.988-2.865a.773.773 0 0 0-1.07-.199l-.018.015-3.23 2.122-1.245-1.508 6.815-4.863 3.565 5.974c.21.349.65.47 1.008.294l8.048-3.7a.77.77 0 0 0 .416-.929h.002l-1.037-3.328a.773.773 0 0 0-.953-.512l-3.75 1.064-.735-1.812 7.962-2.59 1.605 6.767c.094.397.478.65.875.586l8.791-1.035a.775.775 0 0 0 .681-.817l.04-3.432a.77.77 0 0 0-.742-.774l-3.898-.143-.143-1.952 8.373-.012-.555 6.903a.766.766 0 0 0 .617.848l8.712 1.74c.406.081.8-.17.901-.566l1.097-3.25a.767.767 0 0 0-.468-.968l-3.664-1.34.469-1.9 7.969 2.576-2.667 6.404a.77.77 0 0 0 .327.987l7.754 4.341a.776.776 0 0 0 1.026-.25l2.05-2.765a.771.771 0 0 0-.16-1.078l-.005-.002-3.054-2.39 1.032-1.663 6.787 4.908-4.524 5.286a.769.769 0 0 0 .029 1.03l5.823 6.669c.26.299.7.349 1.018.127l2.89-1.931a.768.768 0 0 0 .221-1.05l-2.086-3.3 1.532-1.218 4.74 6.901-6.035 3.458a.772.772 0 0 0-.31 1.013l3.54 8.887c.144.365.531.554.899.463l.002.003 3.382-.84a.772.772 0 0 0 .566-.931l-.007-.026-.834-3.766 1.852-.631 2.122 8.1-6.746 1.188-.045.007-.06.01a.777.777 0 0 0-.629.896c.02.112.062.213.122.299l1.052 8.466a.77.77 0 0 0 .826.676l3.422.019a.772.772 0 0 0 .774-.75l.117-3.9 1.953-.153.064 8.375-6.941-.516h-.113l-.007.003h-.028l-.048.007h-.005a.816.816 0 0 0-.356.174l-.01.01-.045.045-.007.007c-.02.02-.038.043-.055.062v.005a.773.773 0 0 0-.141.328l-1.673 8.712a.765.765 0 0 0 .516.874v.005l3.31 1.092a.774.774 0 0 0 .97-.478l1.314-3.67 1.9.454-2.519 7.983-6.442-2.63a.774.774 0 0 0-.982.377l-4.356 7.692a.771.771 0 0 0 .239 1.02l2.755 2.07a.777.777 0 0 0 1.08-.153l2.409-3.05 1.658 1.043-4.944 6.76-5.235-4.529a.774.774 0 0 0-1.054-.004l-6.547 6.004a.77.77 0 0 0-.11 1.011l2.007 2.851a.768.768 0 0 0 1.075.186l.017-.012 3.214-2.14 1.254 1.498-6.786 4.91-3.587-5.924a.766.766 0 0 0-.994-.327l-8.084 3.685a.773.773 0 0 0-.418.927l1.028 3.33a.77.77 0 0 0 .946.517l3.756-1.054.732 1.812-7.97 2.573-1.586-6.762a.68.68 0 0 0-.053-.158l-.016-.033a.304.304 0 0 0-.036-.063l-.003-.007-.01-.01v-.004l-.009-.014-.002-.003-.01-.014h-.002l-.007-.01-.005-.007-.017-.021-.019-.017-.01-.012-.016-.017-.01-.01-.005-.004-.047-.04-.015-.013-.038-.026-.007-.002-.012-.01a.834.834 0 0 0-.2-.086c-.03-.01-.058-.012-.09-.017l-.004-.004h-.007l-.031-.003-.01-.002h-.012l-.052-.003h-.02l-.054.005h-.012l-8.827 1.018a.77.77 0 0 0-.684.81l-.047 3.431a.768.768 0 0 0 .738.78l3.9.155.138 1.952-8.375-.007.578-6.937a.774.774 0 0 0-.638-.827l-8.616-2a.775.775 0 0 0-.908.521l-1.205 3.23c-.146.39.05.828.437.983h-.002l3.623 1.458-.526 1.88-7.886-2.822 2.875-6.34a.774.774 0 0 0-.342-.998l-7.582-4.56a.77.77 0 0 0-.998.182l-2.165 2.731a.774.774 0 0 0 .107 1.073l2.997 2.502-1.08 1.627-6.629-5.116 4.686-5.14a.773.773 0 0 0-.017-1.058l-5.797-6.676a.77.77 0 0 0-1.008-.139l-2.904 1.928a.77.77 0 0 0-.217 1.07l.005.008 2.062 3.278-1.532 1.22-4.724-6.916 6.031-3.434a.81.81 0 0 0 .313-.315l.017-.034.003-.01a.76.76 0 0 0 .01-.62l-3.475-8.18a.766.766 0 0 0-.918-.44v-.002l-3.357.941a.771.771 0 0 0-.54.93l.958 3.787-1.83.684-2.364-8.039 6.777-1.402a.77.77 0 0 0 .643-.868l-1.23-8.798a.77.77 0 0 0-.818-.664l-3.436.033a.771.771 0 0 0-.765.762l-.06 3.9-1.95.184-.19-8.373 6.762.397c.029.002.057.002.083.002l.098.01a.774.774 0 0 0 .746-1.097l1.462-8.299a.78.78 0 0 0-.564-.884l-3.295-1.03a.773.773 0 0 0-.96.497l-1.257 3.69-1.91-.428 2.4-8.024 6.478 2.53a.774.774 0 0 0 .977-.382l4.401-7.656a.77.77 0 0 0-.2-.996h.002l-2.774-2.115a.773.773 0 0 0-1.08.148h-.003l-2.427 3.03-1.651-1.051 4.986-6.727 5.234 4.583a.77.77 0 0 0 1.046-.031l6.567-5.94zm-12.447-.311c-.02-.022-.041-.038-.063-.055a.771.771 0 0 0-1.077.162l-5.948 8.027a.773.773 0 0 0 .174 1.152l2.933 1.866.002-.005a.769.769 0 0 0 1.013-.167l2.404-2.997 1.637 1.248-3.761 6.535-6.62-2.58a.775.775 0 0 0-1.044.49l-2.874 9.62h.002L7 45.235c-.09.416.17.83.585.92l3.343.74c.395.115.813-.1.947-.49l1.237-3.634 1.962.612-1.305 7.408-6.953-.411h-.06a.773.773 0 0 0-.755.788l.232 10.012a.768.768 0 0 0 .844.774l3.457-.324a.771.771 0 0 0 .698-.758l.06-3.84 2.055-.024 1.037 7.417-6.894 1.427c-.031.005-.062.01-.093.021a.771.771 0 0 0-.521.959l2.831 9.632.017.05c.15.4.593.602.992.454l3.206-1.197a.771.771 0 0 0 .528-.927l-.941-3.725 1.979-.555 2.941 6.923-6.15 3.5a.775.775 0 0 0-.282 1.12l5.653 8.276.043.057c.265.335.75.39 1.085.125l2.722-2.16a.766.766 0 0 0 .172-1.011l-2.043-3.255L21.34 83l4.93 5.68-4.79 5.252v.003l-.037.048c-.26.339-.199.82.138 1.082l7.924 6.115a.771.771 0 0 0 1.14-.167l1.907-2.875a.77.77 0 0 0-.134-1.037l-2.951-2.464 1.278-1.61 6.445 3.878-2.92 6.44a.457.457 0 0 0-.043.09.777.777 0 0 0 .468.99l9.453 3.388v-.005l.055.017a.77.77 0 0 0 .949-.535l.93-3.324a.773.773 0 0 0-.45-.946l-3.565-1.434.717-1.926 7.345 1.706-.59 7.107h.002l-.002.062c0 .423.344.772.77.772l9.987.012h.103a.775.775 0 0 0 .72-.825l-.244-3.465a.775.775 0 0 0-.739-.721l-3.84-.15.03-2.053 7.471-.863 1.623 6.918a.35.35 0 0 0 .019.06c.129.406.564.63.968.501l9.536-3.078.072-.026a.771.771 0 0 0 .428-1.003l-1.29-3.198a.768.768 0 0 0-.935-.477l-3.7 1.037-.606-1.962 6.846-3.126 3.651 6.029a.77.77 0 0 0 1.142.277l8.134-5.88v-.005l.043-.029a.773.773 0 0 0 .098-1.087l-2.234-2.667v.003a.77.77 0 0 0-1.02-.146l-3.195 2.129-1.183-1.682 5.544-5.08 5.35 4.623a.772.772 0 0 0 1.152-.105l5.923-8.103v-.005l.031-.045a.772.772 0 0 0-.243-1.06l-2.925-1.831a.767.767 0 0 0-1.032.162l-2.385 3.011-1.644-1.235 3.708-6.55 6.567 2.679c.026.011.055.021.081.033a.775.775 0 0 0 .97-.507l3.018-9.567a.777.777 0 0 0-.554-.994l-3.381-.806a.771.771 0 0 0-.906.495l-1.295 3.613-1.95-.643 1.42-7.383 7.09.525v-.002l.057.002a.772.772 0 0 0 .767-.774l-.08-9.986a.775.775 0 0 0-.832-.822l-3.464.275h.003a.78.78 0 0 0-.712.75l-.115 3.838-2.055-.01-.922-7.417 6.87-1.211h-.003l.062-.017a.768.768 0 0 0 .552-.937l-2.533-9.675a.773.773 0 0 0-1.004-.578l-3.29 1.118v.005a.769.769 0 0 0-.504.896l.83 3.747-2 .497-3.069-7.694 6.184-3.547-.002-.002.052-.033a.766.766 0 0 0 .201-1.066l-5.649-8.225a.77.77 0 0 0-1.152-.22l-2.716 2.168a.77.77 0 0 0-.172 1.013l2.052 3.247-1.708 1.142-4.961-5.677 4.633-5.417.041-.05a.772.772 0 0 0-.174-1.076l-8.13-5.876c-.016-.014-.036-.026-.055-.04a.775.775 0 0 0-1.058.25l-1.83 2.954a.774.774 0 0 0 .181 1.016l3.025 2.365-1.226 1.652-6.564-3.676 2.732-6.556-.003-.003a.772.772 0 0 0-.476-1.03l-9.524-3.08c-.026-.007-.053-.017-.081-.021a.768.768 0 0 0-.932.564l-.832 3.374a.772.772 0 0 0 .488.91l3.606 1.319-.658 1.945-7.376-1.47.571-7.087h-.002l.002-.057A.773.773 0 0 0 63.007 6l-9.988.017a.772.772 0 0 0-.822.824l.253 3.465h.003a.77.77 0 0 0 .74.717l3.84.138-.024 2.058-7.47.88-1.64-6.914-.018-.06a.77.77 0 0 0-.972-.497l-9.52 3.102c-.026.005-.053.017-.079.024a.777.777 0 0 0-.428 1.008l1.31 3.219h.002c.144.36.54.562.923.452l3.699-1.05.609 1.962-6.827 3.14-3.627-6.079a.768.768 0 0 0-1.12-.253l-8.14 5.804c-.026.02-.055.038-.081.058a.778.778 0 0 0-.103 1.09l2.215 2.675h.003a.77.77 0 0 0 1.015.151l3.212-2.108 1.173 1.69-5.577 5.047zm44.91 78.346c.008.024.013.05.015.078"/></g></g></svg>