<svg xmlns="http://www.w3.org/2000/svg" width="12" height="16" viewBox="0 0 12 16"><g><g><path fill="#505050" d="M6.398.234C3.205.234.05 2.363.05 5.808c0 2.19 1.232 3.435 1.98 3.435.307 0 .485-.859.485-1.101 0-.29-.738-.906-.738-2.11 0-2.502 1.905-4.276 4.37-4.276 2.119 0 3.687 1.204 3.687 3.417 0 1.652-.663 4.752-2.81 4.752-.775 0-1.438-.56-1.438-1.363 0-1.177.822-2.316.822-3.53 0-2.06-2.923-1.686-2.923.804 0 .522.066 1.101.3 1.577-.43 1.849-1.308 4.603-1.308 6.508 0 .588.084 1.167.14 1.755.106.118.053.106.215.046 1.568-2.147 1.512-2.567 2.222-5.377.383.728 1.372 1.12 2.157 1.12 3.305 0 4.789-3.22 4.789-6.124C12 2.25 9.33.234 6.398.234z"/></g></g></svg>