<svg xmlns="http://www.w3.org/2000/svg" width="30" height="31" viewBox="0 0 30 31"><g><g><g><path fill="#726159" d="M14.993 20.543a5.043 5.043 0 1 1 0-10.086 5.043 5.043 0 0 1 0 10.086zm0-14.062A9.019 9.019 0 0 0 5.974 15.5a9.019 9.019 0 0 0 9.02 9.018 9.019 9.019 0 0 0 9.018-9.018 9.019 9.019 0 0 0-9.019-9.02z"/></g><g><path fill="#726159" d="M15 26.524c-6.08 0-11.024-4.944-11.024-11.023C3.976 9.423 8.92 4.475 15 4.475c6.079 0 11.024 4.947 11.024 11.025S21.08 26.523 15 26.523zM15 .5C6.716.5 0 7.216 0 15.5c0 8.284 6.716 15 15 15 8.284 0 15-6.716 15-15 0-8.284-6.716-15-15-15z"/></g><g><path fill="#726159" d="M18.042 15.5a3.049 3.049 0 1 1-6.099 0 3.049 3.049 0 0 1 6.1 0z"/></g></g></g></svg>