<svg xmlns="http://www.w3.org/2000/svg" width="91" height="91" viewBox="0 0 91 91"><g><g><g><path fill="#fff" d="M45.5 78.994c-18.36 0-33.292-14.93-33.292-33.288 0-18.353 14.935-33.295 33.292-33.295S78.79 27.35 78.79 45.703c0 18.357-14.93 33.288-33.291 33.288zm0-78.588C20.483.406.203 20.689.203 45.706.203 70.72 20.483 91 45.5 91c25.017 0 45.297-20.28 45.297-45.294 0-25.017-20.28-45.3-45.297-45.3z"/></g><g><path fill="#fff" d="M65.253 44.612l.006-.013-28.225-16.297-.006.014a1.242 1.242 0 0 0-.631-.192 1.282 1.282 0 0 0-1.278 1.282c0 .05.023.094.03.144h-.03v32.594h.03a1.265 1.265 0 0 0 1.251 1.134c.235 0 .44-.08.631-.191l.02.033 28.225-16.293-.02-.034c.383-.221.65-.617.65-1.09 0-.473-.267-.87-.65-1.09z"/></g></g></g></svg>