<svg xmlns="http://www.w3.org/2000/svg" width="16" height="16" viewBox="0 0 16 16"><g><g><path fill="#505050" d="M14.321 8c0-1.077.09-3.39-.297-4.364a2.499 2.499 0 0 0-1.407-1.408c-.972-.383-3.288-.297-4.365-.297-1.077 0-3.39-.09-4.364.297-.65.261-1.15.76-1.407 1.408-.383.97-.298 3.287-.298 4.364s-.089 3.39.298 4.364c.26.65.76 1.15 1.407 1.407.971.384 3.287.298 4.364.298s3.39.089 4.365-.298c.65-.26 1.15-.76 1.407-1.407.386-.971.297-3.287.297-4.364zm1.282-3.053c.07 1.223.07 4.883 0 6.105-.06 1.187-.33 2.237-1.196 3.103-.865.869-1.916 1.14-3.102 1.196-1.222.069-4.886.069-6.109 0-1.186-.06-2.233-.33-3.102-1.196-.869-.866-1.14-1.916-1.196-3.103C.83 9.83.83 6.166.898 4.944c.06-1.186.327-2.237 1.196-3.102C2.964.976 4.014.705 5.196.649c1.223-.07 4.887-.07 6.109 0 1.186.06 2.237.33 3.102 1.196.87.866 1.14 1.916 1.196 3.102zM13.09 4.05a.883.883 0 0 1-.885.885.885.885 0 1 1 .885-.885zm-2.369 3.95a2.47 2.47 0 0 0-2.468-2.467A2.47 2.47 0 0 0 5.785 8a2.472 2.472 0 0 0 2.467 2.468A2.472 2.472 0 0 0 10.72 8zm1.328 0a3.79 3.79 0 0 1-3.796 3.797A3.79 3.79 0 0 1 4.456 8a3.79 3.79 0 0 1 3.796-3.796A3.79 3.79 0 0 1 12.048 8z"/></g></g></svg>