<svg xmlns="http://www.w3.org/2000/svg" width="31" height="31" viewBox="0 0 31 31"><g><g><path fill="#726159" d="M.278 2.397C-.018 1.885-.078 1.44.1 1.063.277.687.633.5 1.167.5h3.825c.533 0 1.087.187 1.66.563.574.376 1.008.82 1.305 1.335l4.536 7.946c-2.254.534-4.161 1.66-5.723 3.38zM24.68 21.404c0 1.72-.42 3.306-1.26 4.76a9.334 9.334 0 0 1-3.455 3.453 9.347 9.347 0 0 1-4.773 1.275c-1.72 0-3.31-.425-4.774-1.275a9.349 9.349 0 0 1-3.454-3.455c-.84-1.452-1.26-3.038-1.26-4.759 0-1.72.42-3.312 1.26-4.773a9.317 9.317 0 0 1 3.454-3.47 9.325 9.325 0 0 1 4.774-1.274c1.72 0 3.31.425 4.773 1.275a9.3 9.3 0 0 1 3.455 3.469 9.423 9.423 0 0 1 1.26 4.773zm5.426-19.005l-6.493 11.326c-1.582-1.72-3.49-2.846-5.723-3.38l4.536-7.946c.296-.514.731-.959 1.305-1.335C24.304.687 24.858.5 25.39.5h3.825c.533 0 .89.187 1.067.563.178.376.119.82-.178 1.335z"/></g></g></svg>