<svg xmlns="http://www.w3.org/2000/svg" width="21" height="22" viewBox="0 0 21 22"><g><g><path fill="#fff" d="M14.378 7.796a.702.702 0 1 0-1.403.001.702.702 0 0 0 1.403-.001zm-1.875 3.12a1.957 1.957 0 0 1-1.955 1.956 1.957 1.957 0 0 1-1.956-1.955c0-1.079.877-1.956 1.955-1.956s1.956.877 1.956 1.956zm-1.955 3.011c1.66 0 3.01-1.35 3.01-3.01 0-1.659-1.35-3.009-3.01-3.009-1.66 0-3.01 1.35-3.01 3.009 0 1.658 1.35 3.009 3.01 3.01zm.003-8.868c1.573 0 1.783.007 2.415.036.486.01.965.101 1.423.272.785.305 1.41.93 1.715 1.715.174.463.265.948.271 1.443.037.62.037.823.038 2.4v.014c0 1.613-.008 1.8-.037 2.415-.009.488-.1.967-.272 1.424a3.013 3.013 0 0 1-1.714 1.714 4.284 4.284 0 0 1-1.423.273c-.622.036-.826.036-2.416.036-1.609 0-1.796-.009-2.415-.036a4.265 4.265 0 0 1-1.422-.293 3.006 3.006 0 0 1-1.715-1.713 4.295 4.295 0 0 1-.272-1.424c-.037-.623-.037-.827-.037-2.416 0-1.586.01-1.795.037-2.414.009-.486.1-.965.272-1.423a3.006 3.006 0 0 1 1.715-1.715 4.3 4.3 0 0 1 1.422-.272c.62-.036.825-.036 2.415-.036zM21 21.999V0H0V22h21z"/></g></g></svg>