<svg xmlns="http://www.w3.org/2000/svg" width="100" height="28" viewBox="0 0 100 28"><g><g><g><g><path fill="#fff" d="M0 1.41h3.122v12.289c0 1.182.736 1.16 1.383 1.16h5.598v2.876H3.39c-1.762 0-3.39-.669-3.39-3.167z"/></g><g><path fill="#fff" d="M15.143 14.947V4.175h3.568c1.74 0 2.788 1.07 2.788 5.442 0 3.279-.758 5.33-2.788 5.33zm-3.123 2.788h6.936c3.97 0 5.665-3.3 5.665-8.096 0-4.036-.981-8.23-5.665-8.23H12.02z"/></g><g><path fill="#fff" d="M26.784 1.41h3.167l6.468 10.549V1.409h3.122v16.326h-3.122l-6.49-10.437v10.437h-3.145z"/></g><g><path fill="#fff" d="M46.655 11.357l1.962-5.844 1.83 5.844zm-5.353 6.378h3.345l1.182-3.613h5.353l1.16 3.613h3.323L50.357 1.41H46.81z"/></g><g><path fill="#726159" d="M62.667 5.491c0-3.234 1.917-4.17 4.415-4.215 2.342-.045 5.018.267 6.312.646v2.454c-1.427-.134-4.661-.223-5.464-.223-1.36-.022-2.141.067-2.141 1.583v.803c0 1.294.49 1.561 1.74 1.561h2.587c3.211 0 3.858 2.52 3.858 4.327v1.093c0 3.702-2.297 4.394-4.505 4.394-2.788 0-4.617-.179-6.312-.67v-2.453c.892.09 3.613.246 5.687.246.937 0 2.008-.156 2.008-1.405v-.87c0-.937-.268-1.54-1.472-1.54h-2.498c-3.948 0-4.215-2.899-4.215-4.326z"/></g><g><path fill="#726159" d="M81.31.562h3.235l-6.267 18.78h-3.234z"/></g><g><path fill="#726159" d="M90.99 11.357l1.962-5.844 1.829 5.844zm-5.353 6.378h3.345l1.182-3.613h5.353l1.16 3.613H100L94.692 1.41h-3.546z"/></g></g><g><g><g><path fill="#918d8c" d="M3.97 25.311l.706-2.103.658 2.103zm-1.927 2.296h1.204l.425-1.3H5.6l.417 1.3h1.196l-1.91-5.876H4.026z"/></g><g><path fill="#918d8c" d="M11.709 21.667c.89 0 1.405.048 2.256.257v.875c-.048 0-1.076-.137-1.991-.137-.891 0-1.06.538-1.06 1.991 0 1.525.177 1.935 1.004 1.943.553.008 1.011-.37 1.011-.37v-1.051h-.819v-.715c.345-.144.819-.192 1.397-.192.169 0 .353 0 .546.016v3.323h-.803l-.305-.393c-.257.24-.57.41-1.244.433-1.662.064-1.91-1.332-1.91-3.01 0-1.71.32-2.97 1.918-2.97z"/></g><g><path fill="#918d8c" d="M18.06 21.21h.754l.506-.482.473.481h.747l-.779-1.084h-.834zm-.843 5.241c0 1.084.834 1.204 1.356 1.18 0 0 2.047-.072 2.505-.136v-.924h-2.24c-.233 0-.498.008-.498-.417v-.915l2.377-.072v-.932l-2.377-.08v-.915c0-.217 0-.45.418-.45h2.32v-.93c-.514-.073-2.585-.13-2.585-.13-.554-.007-1.276.201-1.276 1.221z"/></g><g><path fill="#918d8c" d="M24.161 21.73h1.14l2.328 3.798v-3.797h1.124v5.876h-1.124l-2.336-3.757v3.757h-1.132z"/></g><g><path fill="#918d8c" d="M33.82 21.667c.818 0 1.412.08 2.046.264v.884c-.008 0-.995-.113-1.782-.113-.826 0-1.14.185-1.14 1.967 0 1.316.217 1.95 1.14 1.95.843 0 1.782-.063 1.782-.063v.874c-.53.17-1.204.241-2.047.225-1.485-.016-1.998-1.14-1.998-3.002 0-1.879.4-2.986 1.998-2.986z"/></g><g><path fill="#918d8c" d="M38.926 21.73h1.124v5.877h-1.124z"/></g><g><path fill="#918d8c" d="M44.97 25.311l.707-2.103.659 2.103zm-1.926 2.296h1.204l.426-1.3H46.6l.417 1.3h1.196l-1.91-5.876h-1.277z"/></g><g><path fill="#918d8c" d="M56.685 26.603v-3.877h1.284c.626 0 1.004.386 1.004 1.959 0 1.18-.274 1.918-1.004 1.918zm-1.124 1.004h2.496c1.43 0 2.04-1.188 2.04-2.914 0-1.453-.354-2.962-2.04-2.962h-2.496z"/></g><g><path fill="#918d8c" d="M63.244 21.73h1.124v5.877h-1.124z"/></g><g><path fill="#918d8c" d="M69.345 21.667c.892 0 1.405.048 2.256.257v.875c-.048 0-1.075-.137-1.99-.137-.891 0-1.06.538-1.06 1.991 0 1.525.176 1.935 1.003 1.943.554.008 1.012-.37 1.012-.37v-1.051h-.82v-.715c.346-.144.82-.192 1.398-.192.168 0 .353 0 .545.016v3.323h-.802l-.305-.393c-.257.24-.57.41-1.244.433-1.662.064-1.911-1.332-1.911-3.01 0-1.71.321-2.97 1.918-2.97z"/></g><g><path fill="#918d8c" d="M74.877 21.73h1.124v5.877h-1.124z"/></g><g><path fill="#918d8c" d="M78.972 21.73h4.343v1.036h-1.63v4.841h-1.123v-4.84h-1.59z"/></g><g><path fill="#918d8c" d="M87.129 25.311l.706-2.103.658 2.103zm-1.927 2.296h1.204l.426-1.3h1.926l.418 1.3h1.196l-1.91-5.876h-1.277z"/></g><g><path fill="#918d8c" d="M93.343 21.73h1.124v4.424c0 .426.265.418.498.418h2.015v1.035h-2.417c-.634 0-1.22-.24-1.22-1.14z"/></g></g></g></g></g></svg>