<svg xmlns="http://www.w3.org/2000/svg" width="22" height="22" viewBox="0 0 22 22"><g><g><path fill="#fff" d="M3.752 8.84h3.131v9.462h-3.13zm10.843-.23c.949.006 1.843.287 2.579 1.037.764.852 1.01 2.027 1.037 3.222v5.433h-3.132v-5.064c-.007-.949-.332-2.103-1.589-2.141-.736.008-1.255.435-1.61 1.15-.097.231-.112.496-.116.76v5.296h-3.13c.011-2.647.028-5.295.022-7.943 0-.752-.008-1.258-.023-1.519h3.13v1.335c.266-.378.561-.736.957-1.025.536-.383 1.18-.53 1.875-.54zM5.341 4.28c.863.01 1.712.605 1.75 1.635.018.916-.78 1.614-1.772 1.636h-.025c-.854-.01-1.687-.62-1.726-1.636.012-.905.774-1.613 1.773-1.635zM0 0v21.778h21.778V0z"/></g></g></svg>