<svg xmlns="http://www.w3.org/2000/svg" width="170" height="56" viewBox="0 0 170 56"><g><g clip-path="url(#clip-95cb93a0-a59d-428b-a380-d9b9351a4f91)"><path fill="#fff" d="M159.924 25.673c-3.746 0-6.434-.625-8.061-1.874-1.396-1.072-2.093-2.655-2.093-4.75 0-2.181.723-3.8 2.17-4.862 1.628-1.197 4.289-1.798 7.984-1.798 3.642 0 6.291.631 7.944 1.893 1.421 1.085 2.132 2.674 2.132 4.767 0 2.17-.71 3.779-2.132 4.827-1.627 1.196-4.276 1.797-7.944 1.797zm-27.167-.19V14.774c0-.594-.31-.973-.93-1.137-.31-.09-1.292-.177-2.946-.266v-.34l7.247-.44v10.45c0 .793.142 1.273.426 1.438.284.164 1.202.246 2.753.246h3.449c1.317 0 2.196-.186 2.635-.562.284-.228.516-.726.698-1.503h1.2l-.193 2.823zm-15.929-.568c2.584 0 4.355-.648 5.31-1.945.646-.882.969-2.192.969-3.93 0-1.121-.091-1.983-.272-2.586-.31-1.007-.865-1.778-1.665-2.306-1.035-.665-2.482-1-4.342-1-2.635 0-4.431.647-5.386 1.945-.647.868-.97 2.186-.97 3.947 0 1.7.298 2.972.892 3.816.982 1.374 2.804 2.059 5.464 2.059zm0 .758c-3.746 0-6.432-.625-8.06-1.874-1.395-1.072-2.093-2.655-2.093-4.75 0-2.181.724-3.8 2.17-4.862 1.628-1.197 4.29-1.798 7.983-1.798 3.644 0 6.292.631 7.946 1.893 1.42 1.085 2.13 2.674 2.13 4.767 0 2.17-.71 3.779-2.13 4.827-1.629 1.196-4.276 1.797-7.946 1.797zM90.902 14.626v3.902h1.667c2.325 0 3.978-.119 4.96-.36 1.499-.366 2.248-1.104 2.248-2.216 0-.923-.471-1.586-1.415-1.99-.944-.404-2.331-.606-4.166-.606-1.525 0-2.454.069-2.79.209-.337.138-.504.492-.504 1.06zM87.53 25.483V14.626c0-.581-.233-.98-.698-1.195-.465-.215-1.525-.385-3.178-.51v-.323h9.378c3.307 0 5.645.14 7.015.417 2.351.48 3.526 1.459 3.526 2.937 0 1.465-1.226 2.438-3.68 2.918-1.422.278-3.838.416-7.249.416h-1.743v6.197zM71.91 14.628l-4.405 5.834h8.805zM61.449 25.483l8.022-10.63c.18-.24.323-.433.427-.578a.762.762 0 0 0 .155-.445c0-.354-.995-.657-2.985-.91v-.322h6.667l9.998 12.885-3.772.004-3.223-4.267h-9.8l-3.054 4.263zm98.476-.568c2.584 0 4.353-.648 5.31-1.945.645-.882.969-2.192.969-3.93 0-1.121-.091-1.983-.272-2.586-.31-1.007-.865-1.778-1.667-2.306-1.033-.665-2.48-1-4.34-1-2.636 0-4.431.647-5.386 1.945-.647.868-.97 2.186-.97 3.947 0 1.7.297 2.972.891 3.816.982 1.374 2.803 2.059 5.465 2.059"/></g><g clip-path="url(#clip-95cb93a0-a59d-428b-a380-d9b9351a4f91)"><path fill="#fff" d="M156.256 36.26c.176-.493.265-1.227.265-2.2 0-.627-.025-1.11-.075-1.448-.084-.565-.236-.996-.455-1.29-.283-.375-.679-.561-1.188-.561-.723 0-1.214.362-1.475 1.09-.177.486-.265 1.223-.265 2.209 0 .951.08 1.664.243 2.137.269.77.768 1.152 1.497 1.152.706 0 1.192-.362 1.453-1.088zm-3.66.466c-.382-.602-.573-1.488-.573-2.66 0-1.222.197-2.13.594-2.724.446-.67 1.174-1.007 2.186-1.007.997 0 1.722.355 2.175 1.06.389.609.584 1.499.584 2.67 0 1.215-.195 2.115-.584 2.703-.446.67-1.172 1.006-2.175 1.006-1.026 0-1.762-.35-2.208-1.048zm-12.97-5.055v4.778c0 .31.021.508.064.593.07.134.236.202.499.202.87 0 1.513-.252 1.93-.751.418-.504.627-1.311.627-2.428 0-1.023-.159-1.786-.478-2.288-.381-.6-1.021-.9-1.92-.9-.311 0-.51.046-.594.138-.085.093-.128.311-.128.656zm-.924 5.997v-5.995c0-.389-.053-.635-.163-.737-.11-.104-.409-.204-.897-.303v-.18h2.25c1.3 0 2.232.205 2.79.615.736.538 1.103 1.539 1.103 3.003 0 1.45-.377 2.443-1.135 2.981-.58.411-1.514.616-2.802.616zm-11.356-6.078l-1.206 3.266h2.41zm-2.864 6.078l2.196-5.952c.05-.135.088-.244.117-.324a.763.763 0 0 0 .043-.25c0-.198-.273-.367-.818-.51v-.179h1.825l2.738 7.215-1.034.001-.882-2.389h-2.682l-.836 2.388zm-11.367 0v-6.09c0-.32-.064-.538-.192-.659-.127-.12-.42-.215-.88-.287v-.179h5.008l.054 1.305h-.33c-.077-.417-.182-.668-.313-.754-.13-.085-.352-.127-.663-.127h-1.114c-.297 0-.479.041-.547.122-.066.082-.1.274-.1.578v2.112h1.347c.311 0 .547-.049.706-.149.158-.098.271-.347.334-.742h.244v2.227h-.244c-.049-.303-.092-.491-.127-.562-.114-.233-.417-.35-.913-.35h-1.348v3.555zm-11.462-.319c.706 0 1.191-.362 1.453-1.088.176-.494.265-1.228.265-2.201 0-.627-.025-1.11-.075-1.448-.084-.565-.236-.996-.455-1.29-.283-.375-.68-.561-1.188-.561-.723 0-1.214.362-1.475 1.09-.177.486-.265 1.223-.265 2.209 0 .951.08 1.664.243 2.137.269.77.768 1.152 1.497 1.152zm-2.208-.623c-.381-.602-.573-1.488-.573-2.66 0-1.222.198-2.13.594-2.724.447-.67 1.175-1.007 2.187-1.007.997 0 1.722.355 2.175 1.06.388.609.582 1.499.582 2.67 0 1.215-.194 2.115-.582 2.703-.447.67-1.172 1.006-2.175 1.006-1.026 0-1.762-.35-2.208-1.048zm-11.559.942v-6.791h-.953c-.32 0-.55.053-.69.159-.143.106-.237.4-.287.88h-.33l.054-1.463h5.337l.054 1.464h-.33c-.035-.404-.092-.658-.17-.763-.126-.185-.395-.277-.806-.277h-.955v6.79zm-10.295-7.162v.753a5.814 5.814 0 0 0-.72-.265 3.69 3.69 0 0 0-1.03-.17c-.383 0-.691.098-.928.292a.948.948 0 0 0-.356.778c0 .46.3.865.901 1.218.56.32 1.122.632 1.688.943.608.445.913.996.913 1.654 0 .698-.259 1.23-.775 1.588-.453.318-1.054.477-1.804.477a7.177 7.177 0 0 1-1.698-.21v-.735c.255.117.52.218.797.301.381.112.73.167 1.05.167.99 0 1.485-.456 1.485-1.368 0-.493-.293-.92-.881-1.281a163.6 163.6 0 0 1-1.634-.922c-.594-.424-.89-.95-.89-1.579 0-.579.204-1.025.615-1.34.41-.314.976-.472 1.698-.472.331 0 .64.018.923.054.14.014.357.053.646.117zm-16.056 7.162v-6.09c0-.32-.064-.538-.19-.659-.129-.12-.422-.215-.882-.287v-.179h5.009l.052 1.305h-.329c-.078-.417-.181-.668-.312-.754-.132-.085-.352-.127-.663-.127h-1.115c-.297 0-.48.041-.546.122-.068.082-.101.274-.101.578v2.112h1.347c.311 0 .547-.049.707-.149.158-.098.27-.347.334-.742h.243v2.227h-.243c-.05-.303-.092-.491-.128-.562-.113-.233-.418-.35-.913-.35h-1.347v2.506c0 .305.044.483.132.54.088.056.335.085.737.085h1.148c.345 0 .572-.072.678-.211.078-.104.159-.378.245-.818h.327l-.074 1.453zm107.987-7.162v.753a5.758 5.758 0 0 0-.722-.265 3.674 3.674 0 0 0-1.028-.17c-.383 0-.691.098-.93.292a.95.95 0 0 0-.354.778c0 .46.3.865.901 1.218.56.32 1.122.632 1.688.943.608.445.913.996.913 1.654 0 .698-.259 1.23-.775 1.588-.453.318-1.055.477-1.804.477a7.177 7.177 0 0 1-1.698-.21v-.735c.255.117.52.218.796.301.382.112.732.167 1.05.167.99 0 1.486-.456 1.486-1.368 0-.493-.293-.92-.881-1.281-.544-.303-1.09-.611-1.634-.922-.594-.424-.89-.95-.89-1.579 0-.579.204-1.025.614-1.34.41-.314.977-.472 1.697-.472.333 0 .64.018.924.054.142.014.358.053.647.117"/></g><g clip-path="url(#clip-95cb93a0-a59d-428b-a380-d9b9351a4f91)"><path fill="#fff" d="M15.132 13.165c-.104.168-.028.201.315.34.275.11.538.252.795.396.182.103.234.072.32.278.057.137.026.33.036.5.039.69.266 1.217.563 1.81.175.348.245.498.297.895.021.155.022.395.063.535.026.087.053.132.123.164.251.114.456.14.67-.03.155-.125.48-.2.42-.518-.217-1.146.05-3.777 1.386-2.216.194.225.301.453.349.773.183 1.252-.655 3.31-1.05 4.512a28.458 28.458 0 0 0-.505 1.735c-.352 1.331-.276 2.728-.398 4.084-.047.523-.218.749-.593 1.068-.054.046-.08.087-.138.133l-.892.787c-.043.042-.107.09-.16.132a21.1 21.1 0 0 0-1.177 1.063c-.287.288-.652.548-.666 1.01-.004.128.23.675.29.827.1.257.217.554.336.785.126.243.228.512.364.755.136.243.261.475.402.718l.822 1.419c.418.729.27 1.113.52 1.72.09.212.247.586.46.665.168-.12.646-1.284.815-1.63.05-.103.143-.244.04-.35-.118-.12-.58-.145-.757-.218-.576-.24-.215-.803-.71-1.242-.3-.264-.247-.19-.483-.492-.146-.187-.272-.394-.399-.595-.275-.438-.373-.87-.554-1.398a1.46 1.46 0 0 1-.015-.86c.08-.249.274-.399.491-.501.222-.105.46-.193.69-.286a6.2 6.2 0 0 0 .655-.322c.302-.168.8-.31 1.019-.443.147-.09.198-.124.416-.085.419.076.541.865.636 1.315.113.54.167 1.183.2 1.753.078 1.29-.059 2.567-.044 3.85.008.643.04 1.273.05 1.914.012.65-.01 1.294-.035 1.938-.017.402-.05 1.475-.199 1.757a2.842 2.842 0 0 1-.402.575c-.184.202-.298.413-.43.554l.133.057-.099.042c.175.11 1.547.106 1.722.006-.105-.328-.43-.699-.352-1.132.03-.169.355-.527.493-.644.054-.044.172-.112.176-.207.01-.225-.212-.974-.282-1.221-.271-.952-.056-3.267-.005-4.27.05-.977.03-1.89.195-2.839.184-1.062.417-1.962.83-2.946.139-.333.283-.742.474-1.042.058-.09.076-.16.137-.243.059-.082.095-.149.15-.23l.324-.417c.393-.434.968-.618 1.589-.689.951-.108 1.91-.148 2.875-.057 1.098.102 1.953.324 2.671 1.107.958 1.045 1.394 2.347 1.471 3.822a10.12 10.12 0 0 1-.252 2.762c-.1.402-.223.761-.37 1.13-.14.35-.293.726-.452 1.065-.32.682-.594 1.442-.95 2.086-.355.642-.717 1.37-1.128 1.89-.06.077-.109.125-.157.221-.11.213-.451.373-.657.483-.267.143-.693.45-.739.78.264.057 2.365.096 2.488-.005.032-.032-.002-.149-.025-.2-.038-.087-.347-.346-.43-.437-.118-.13.004-.304.087-.384.122-.118.251-.09.325-.252l.7-1.577c.354-.787.784-1.496 1.166-2.25.315-.623.687-1.211 1.005-1.832.068-.133.138-.247.197-.38.156-.354.059-1.675.096-2.18.064-.866.338-2.445.752-3.242.038-.073.062-.112.106-.184l.058-.085c.023-.036.028-.057.05-.089.167-.006.304.125.38.215.048.057.098.086.147.141.236.267.457.552.675.844.34.457.632.935.95 1.453.138.227.297.519.412.781.37.843.764 1.656 1.08 2.534.671 1.865.798 3.19.843 5.16.006.316.044.877-.005 1.171-.02.113-.073.397-.127.47-.059.08-.296.321-.407.478l-.269.347c-.066.072-.12.096-.092.202.17.093 2.007.142 2.234.078-.055-.04-.116-.036-.188-.051.056-.037.16-.035.23-.039-.024-.075-.22-.374-.276-.454-.1-.141-.2-.292-.29-.45-.233-.4-.067-.41.114-.736.23-.413.283-.119.125-.823l-.39-1.832c-.336-1.636-.613-2.779-.733-4.452-.02-.267.007-.381-.127-.616-.36-.628-.731-1.219-1.08-1.865-.508-.945-1.003-2.307-.997-3.444.005-1.387.16-2.064-.138-3.462-.035-.164-.127-.525.012-.642.088-.05.391.014.486.055.475.205.571.47.758.977l.5 1.83c.074.305.163.61.239.918.096.387.534 2.486.582 2.906.037.323.286 1.554.364 1.948.125.635.248 1.279.436 1.893.132.432.445 1.3.671 1.662.122.196.74 1.22 1.003 1.329-.004-.237-.117-.61-.159-.853-.154-.878-.253-1.77-.387-2.651-.231-1.521-1.021-5.02-1.467-6.663-.216-.796-.655-2.348-1.09-2.976a3.39 3.39 0 0 0-.477-.533c-.198-.182-.3-.3-.593-.42a1.379 1.379 0 0 0-.874-.039l-.064.026-.012.006-.01.007c-.026.01.015 0-.04.012-.313.07-.322.166-.595.256-.318.107-1.444.125-1.868.16-1.19.1-2.338.313-3.494.568-1.297.285-2.29.444-3.651.38-.938-.044-.912-.28-1.094-.425-.07-.056-.063-.073-.084-.167a1.613 1.613 0 0 1-.034-.247c-.05.003-.093.003-.143.003l.134-.008c.014-.134.002-.313.008-.458.032-.753.287-2.259.39-3.03.409-3.05.686-6.201-1.892-8.417-1.19-1.023-2.747-1.6-4.248-1.378-1.433.212-2.971 1.178-3.686 2.33"/></g><g clip-path="url(#clip-95cb93a0-a59d-428b-a380-d9b9351a4f91)"><path fill="#fff" d="M14.296 9a.412.412 0 0 0 .063-.539l-1.065-1.535a.414.414 0 0 0-.574-.106l-.009.007-1.73 1.137-.668-.808 3.652-2.605 1.91 3.2a.416.416 0 0 0 .54.158l4.312-1.982a.413.413 0 0 0 .223-.498h.001l-.555-1.783a.414.414 0 0 0-.511-.274l-2.009.57-.394-.97 4.266-1.389.86 3.626c.05.213.256.348.469.314l4.71-.555a.415.415 0 0 0 .365-.437l.022-1.839a.413.413 0 0 0-.399-.415L25.687 2.2l-.077-1.046 4.487-.006-.297 3.699a.41.41 0 0 0 .33.454l4.668.932a.413.413 0 0 0 .483-.303l.587-1.741a.41.41 0 0 0-.25-.519l-1.963-.718.25-1.018 4.27 1.38-1.428 3.431a.413.413 0 0 0 .175.53L41.077 9.6c.19.106.43.046.549-.135l1.098-1.481a.413.413 0 0 0-.085-.578h-.003L41 6.125l.553-.891 3.636 2.63-2.424 2.832c-.138.16-.129.4.016.551l3.12 3.574c.14.16.375.187.545.068l1.548-1.035a.412.412 0 0 0 .12-.562l-1.118-1.768.82-.653 2.54 3.698-3.234 1.852a.414.414 0 0 0-.166.543l1.897 4.762a.41.41 0 0 0 .482.248l.001.001 1.812-.45a.413.413 0 0 0 .303-.498l-.004-.015L51 18.996l.993-.338 1.137 4.34-3.615.636-.024.004-.032.005a.417.417 0 0 0-.272.64l.564 4.537c.027.221.223.38.443.362l1.833.01a.414.414 0 0 0 .415-.402l.063-2.09 1.046-.081.034 4.487-3.719-.276h-.079l-.026.005h-.002a.437.437 0 0 0-.191.093l-.005.005-.025.025-.004.004-.029.033v.002a.414.414 0 0 0-.076.176l-.896 4.668a.41.41 0 0 0 .277.468v.003l1.773.585a.414.414 0 0 0 .52-.256l.704-1.967 1.018.244-1.35 4.277-3.451-1.41a.415.415 0 0 0-.527.203l-2.334 4.121a.413.413 0 0 0 .128.547l1.477 1.109a.416.416 0 0 0 .578-.082l1.29-1.634.89.558-2.65 3.622-2.805-2.426a.415.415 0 0 0-.564-.002l-3.508 3.217a.413.413 0 0 0-.06.542l1.076 1.527c.13.187.39.233.576.1l.01-.006 1.721-1.148.672.803-3.636 2.631-1.921-3.174a.41.41 0 0 0-.533-.175l-4.331 1.974a.414.414 0 0 0-.224.497l.55 1.785a.413.413 0 0 0 .507.276l2.013-.564.392.97-4.27 1.379-.85-3.623a.365.365 0 0 0-.029-.085l-.009-.018a.163.163 0 0 0-.019-.033l-.001-.004-.005-.005v-.003l-.005-.007-.002-.002-.005-.007h-.001l-.004-.005-.002-.004-.01-.012-.01-.009-.005-.006-.016-.017-.026-.022-.008-.006-.02-.014-.004-.001-.006-.005a.447.447 0 0 0-.108-.046c-.015-.006-.03-.007-.047-.01l-.003-.002h-.004l-.016-.001-.005-.002H31.276l-.03.002h-.006l-4.73.545a.413.413 0 0 0-.366.434l-.025 1.839a.412.412 0 0 0 .395.417l2.09.083.074 1.046-4.488-.003.31-3.717a.415.415 0 0 0-.342-.443l-4.616-1.072a.415.415 0 0 0-.487.28l-.645 1.73a.413.413 0 0 0 .234.526h-.001l1.94.781-.28 1.008-4.226-1.512 1.54-3.397a.415.415 0 0 0-.183-.535l-4.062-2.443a.413.413 0 0 0-.535.098l-1.16 1.463a.415.415 0 0 0 .057.575l1.606 1.34-.579.872-3.552-2.74 2.511-2.755a.414.414 0 0 0-.009-.567l-3.106-3.577a.412.412 0 0 0-.54-.075l-1.556 1.034a.413.413 0 0 0-.116.573l.002.004L7.5 44.057l-.82.653-2.532-3.706 3.232-1.84a.434.434 0 0 0 .168-.168l.008-.018.002-.005a.407.407 0 0 0 .005-.333L5.7 34.257a.41.41 0 0 0-.491-.235v-.002l-1.8.505a.413.413 0 0 0-.289.498l.514 2.029-.98.366-1.267-4.307 3.63-.751a.413.413 0 0 0 .345-.465l-.66-4.714a.412.412 0 0 0-.437-.356l-1.841.018a.413.413 0 0 0-.41.408l-.032 2.09-1.044.098-.103-4.486 3.623.213h.045l.053.006a.415.415 0 0 0 .4-.588l.783-4.446a.417.417 0 0 0-.302-.474l-1.766-.552a.414.414 0 0 0-.515.266l-.673 1.977-1.023-.229 1.285-4.3 3.471 1.357c.204.079.43-.013.524-.205l2.358-4.102a.412.412 0 0 0-.107-.534h.001l-1.486-1.133a.414.414 0 0 0-.58.079l-1.301 1.623-.885-.563 2.672-3.604 2.804 2.456a.413.413 0 0 0 .56-.017L14.298 9zm-6.67-.166c-.01-.012-.02-.02-.032-.03a.413.413 0 0 0-.578.087L3.83 13.192a.414.414 0 0 0 .093.617l1.572 1 .001-.003c.174.113.41.076.543-.09l1.288-1.605.877.669-2.015 3.501L2.64 15.9a.415.415 0 0 0-.56.262l-1.54 5.155h.002l-.008.028a.413.413 0 0 0 .314.493l1.791.397a.414.414 0 0 0 .507-.263l.663-1.947 1.051.328-.699 3.969-3.725-.22H.405a.414.414 0 0 0-.405.422l.124 5.364a.412.412 0 0 0 .452.415l1.853-.174a.413.413 0 0 0 .374-.406l.032-2.057 1.1-.013.556 3.974-3.693.764c-.017.003-.034.006-.05.012a.413.413 0 0 0-.28.513l1.518 5.161.009.027c.08.214.317.323.531.243l1.718-.641a.413.413 0 0 0 .283-.497l-.504-1.996 1.06-.297 1.576 3.71L3.363 40.5a.415.415 0 0 0-.151.6l3.03 4.434.023.03c.142.18.402.21.58.067l1.46-1.157a.41.41 0 0 0 .091-.541l-1.094-1.744.918-.611 2.641 3.043-2.566 2.814v.002l-.02.025a.414.414 0 0 0 .074.58l4.246 3.277a.413.413 0 0 0 .61-.09l1.022-1.54a.413.413 0 0 0-.072-.556l-1.58-1.32.684-.863 3.453 2.078-1.564 3.45a.245.245 0 0 0-.024.05.417.417 0 0 0 .251.53l5.065 1.815v-.003l.03.01c.22.06.447-.067.508-.288l.498-1.78a.414.414 0 0 0-.24-.507l-1.91-.769.383-1.032 3.936.915-.316 3.807h.001l-.001.034c0 .226.184.413.412.413l5.352.006h.055a.415.415 0 0 0 .385-.441l-.13-1.857a.415.415 0 0 0-.396-.386l-2.057-.081.015-1.1 4.003-.462.87 3.707a.413.413 0 0 0 .529.3l5.11-1.649.038-.014a.413.413 0 0 0 .229-.537l-.691-1.714a.411.411 0 0 0-.501-.256l-1.982.556-.325-1.051 3.668-1.675 1.956 3.23a.412.412 0 0 0 .612.149l4.358-3.15v-.003l.024-.016a.414.414 0 0 0 .052-.582l-1.197-1.43v.002a.413.413 0 0 0-.547-.078l-1.712 1.14-.633-.9 2.97-2.723 2.867 2.478a.413.413 0 0 0 .617-.056l3.174-4.342v-.003l.016-.024a.414.414 0 0 0-.13-.568l-1.567-.981a.41.41 0 0 0-.553.087l-1.278 1.613-.881-.662 1.987-3.51 3.518 1.436c.014.007.03.012.044.018a.415.415 0 0 0 .52-.271l1.617-5.127a.416.416 0 0 0-.297-.533l-1.812-.43a.413.413 0 0 0-.485.264l-.694 1.936-1.045-.344.76-3.957 3.8.282v-.001l.03.001a.414.414 0 0 0 .411-.415l-.042-5.35a.415.415 0 0 0-.446-.44l-1.856.147h.001a.417.417 0 0 0-.381.402l-.062 2.056-1.101-.005-.494-3.974 3.68-.65.033-.009a.412.412 0 0 0 .295-.501l-1.357-5.184a.414.414 0 0 0-.538-.31l-1.762.599v.002a.412.412 0 0 0-.27.48l.444 2.008-1.072.266-1.644-4.122 3.314-1.9-.002-.001.028-.018a.41.41 0 0 0 .108-.571l-3.027-4.407a.413.413 0 0 0-.617-.118l-1.456 1.161a.412.412 0 0 0-.092.543l1.1 1.74-.915.612-2.658-3.042 2.482-2.903.022-.026a.413.413 0 0 0-.093-.577L41.68 4.31c-.009-.008-.02-.014-.03-.022a.415.415 0 0 0-.567.135l-.98 1.582a.414.414 0 0 0 .097.544l1.62 1.268-.656.885-3.517-1.97 1.463-3.513-.001-.001a.414.414 0 0 0-.255-.552l-5.103-1.65c-.014-.004-.028-.01-.044-.012a.412.412 0 0 0-.499.302l-.446 1.808c-.05.204.06.415.262.488l1.932.707-.352 1.042-3.953-.787.306-3.798h-.001l.001-.03a.414.414 0 0 0-.413-.414L25.193.33a.414.414 0 0 0-.44.442l.135 1.856h.001a.413.413 0 0 0 .397.384l2.058.074-.013 1.103-4.002.47-.88-3.703-.009-.032a.413.413 0 0 0-.52-.266l-5.102 1.661c-.014.003-.028.01-.042.013a.417.417 0 0 0-.23.54l.703 1.725c.078.193.29.301.495.242l1.982-.562.326 1.051-3.657 1.683-1.944-3.258a.412.412 0 0 0-.6-.136L9.49 6.728l-.044.031a.417.417 0 0 0-.055.584l1.187 1.434h.001c.132.16.368.197.544.08l1.721-1.128.629.905-2.988 2.704zm24.065 41.978a.207.207 0 0 1 .007.042"/></g></g></svg>