<svg width="32" height="25" viewBox="0 0 32 25" fill="none" xmlns="http://www.w3.org/2000/svg">
<path d="M3.045 3.7876L11.602 12.5L3.045 21.561V3.7876ZM26.705 3.09044L16 14.0333L5.295 3.09044H26.705ZM28.955 21.2124L20.398 12.5L28.955 3.7876V21.2124ZM5.295 21.9085L13.068 13.9638L16 16.961L18.932 13.9638L26.705 21.9085H5.295ZM31 24V1H1V24H31Z" fill="#878787"/>
<path d="M3.045 3.7876L11.602 12.5L3.045 21.561V3.7876ZM26.705 3.09044L16 14.0333L5.295 3.09044H26.705ZM28.955 21.2124L20.398 12.5L28.955 3.7876V21.2124ZM5.295 21.9085L13.068 13.9638L16 16.961L18.932 13.9638L26.705 21.9085H5.295ZM31 24V1H1V24H31Z" stroke="#878787" stroke-miterlimit="20"/>
</svg>
