<svg xmlns="http://www.w3.org/2000/svg" width="21" height="22" viewBox="0 0 21 22"><g><g><path fill="#fff" d="M15.654 6.726c.202 0 .366.165.366.367v.66c0 .04-.033.063-.065.085l-.007.004a2.486 2.486 0 0 1-.138.08l-5.254 3.091a.092.092 0 0 1-.092 0L5.046 7.92c-.031-.016-.066-.056-.066-.088v-.738c0-.202.164-.367.366-.367zM5.07 9.002a.09.09 0 0 1 .045.012l3.12 1.782c.026.015.043.04.047.07a.096.096 0 0 1-.03.077l-3.12 2.894a.09.09 0 0 1-.099.017.091.091 0 0 1-.054-.083V9.093c0-.032.017-.062.046-.078a.088.088 0 0 1 .045-.013zm10.857-.072a.09.09 0 0 1 .092.091v4.956c0 .05-.041.091-.092.091a.09.09 0 0 1-.066-.03l-2.974-3.205a.093.093 0 0 1-.024-.076.094.094 0 0 1 .045-.065l2.972-1.749a.093.093 0 0 1 .047-.013zm-6.69 2.439l1.048.598a.467.467 0 0 0 .46-.003l1.191-.702a.094.094 0 0 1 .115.017l3.563 3.84a.091.091 0 0 1 .016.1.092.092 0 0 1-.084.056H5.346a.36.36 0 0 1-.183-.054.092.092 0 0 1-.016-.147L9.13 11.38a.089.089 0 0 1 .061-.024c.016 0 .032.005.046.013zM21 21.999V0H0V22h21z"/></g></g></svg>