<svg xmlns="http://www.w3.org/2000/svg" width="18" height="17" viewBox="0 0 18 17"><g><g><g><path fill="#726159" d="M17.102 9.536V8.343h-3.58v5.966h1.194v-2.387h1.79V10.73h-1.79V9.536z"/></g><g><path fill="#726159" d="M9.347 9.536h1.193c.33 0 .596.267.596.597v2.386c0 .33-.267.596-.596.597H9.347zm2.983 2.983v-2.386c-.001-.988-.802-1.79-1.79-1.79H8.153v5.966h2.387c.988-.001 1.789-.802 1.79-1.79z"/></g><g><path fill="#726159" d="M3.977 11.326v-1.79h1.79v1.79zm1.79-2.983H2.784v5.966h1.193v-1.79h1.79c.659 0 1.192-.535 1.193-1.193v-1.79c0-.659-.534-1.193-1.193-1.193z"/></g><g><path fill="#726159" d="M7.557 4.763v-3.34l3.34 3.34zM12.33 7.15V4.763a.543.543 0 0 0-.18-.417L7.976.17a.542.542 0 0 0-.418-.18H1.59A1.197 1.197 0 0 0 .398 1.185v14.318c0 .659.534 1.193 1.193 1.193h9.545v-1.193H1.591V1.184h4.773v3.58a1.197 1.197 0 0 0 1.193 1.192h3.58V7.15z"/></g></g></g></svg>