<svg xmlns="http://www.w3.org/2000/svg" width="27" height="28" viewBox="0 0 27 28"><g><g><path fill="#878787" d="M26.231 21.572l-6.098-5.544a1.501 1.501 0 0 0-2.087.065l-3.589 3.69c-.864-.164-2.6-.705-4.389-2.49-1.788-1.79-2.329-3.53-2.49-4.388l3.69-3.591a1.5 1.5 0 0 0 .064-2.087L5.79 1.13A1.5 1.5 0 0 0 3.702 1L.447 3.792a1.5 1.5 0 0 0-.435.974C-.01 5.14-.44 14.024 6.45 20.915c6.01 6.008 13.537 6.447 15.61 6.447.302 0 .488-.01.537-.012.367-.02.713-.176.972-.436l2.79-3.256c.53-.615.473-1.54-.128-2.085z"/></g></g></svg>