<svg xmlns="http://www.w3.org/2000/svg" width="27" height="28" viewBox="0 0 27 28"><g><g><path fill="#fff" d="M26.231 21.572l-6.098-5.544a1.501 1.501 0 0 0-2.087.065l-3.589 3.69c-.864-.164-2.601-.705-4.389-2.49-1.788-1.79-2.329-3.53-2.49-4.388l3.689-3.591a1.5 1.5 0 0 0 .065-2.087L5.789 1.13A1.5 1.5 0 0 0 3.702 1L.447 3.792a1.5 1.5 0 0 0-.435.974c-.022.375-.452 9.258 6.437 16.149 6.009 6.008 13.537 6.447 15.609 6.447.303 0 .489-.01.538-.012.367-.02.713-.176.972-.436l2.79-3.256c.53-.615.473-1.54-.128-2.085z"/></g></g></svg>