<svg xmlns="http://www.w3.org/2000/svg" width="30" height="29" viewBox="0 0 30 29"><g><g><path fill="#726159" d="M21 26.023v-4.5c0-1.655-1.345-3-3-3h-6c-1.655 0-3 1.345-3 3v4.5H4.5V15.31c.482.124.978.213 1.5.213a5.985 5.985 0 0 0 4.5-2.035 5.983 5.983 0 0 0 4.5 2.035c1.79 0 3.401-.788 4.5-2.035a5.985 5.985 0 0 0 4.5 2.035c.522 0 1.018-.088 1.5-.213v10.713zm-9 0v-4.5h6v4.5zm-5.151-22.5h3.321L9.03 9.229l.03.006c-.022.096-.06.186-.06.288 0 1.655-1.345 3-3 3A3.005 3.005 0 0 1 3.024 9.9zm6.38 0h3.542l1.22 6.098A3 3 0 0 1 15 12.523a2.999 2.999 0 0 1-2.99-2.902zM26.976 9.9A3.005 3.005 0 0 1 24 12.523c-1.655 0-3-1.345-3-3 0-.102-.038-.192-.058-.288l.03-.006-1.142-5.706h3.321zm-1.254-7.92A3.012 3.012 0 0 0 23.151.523H6.849a3.014 3.014 0 0 0-2.571 1.456L.214 8.751c-.14.233-.214.5-.214.772a5.955 5.955 0 0 0 1.5 3.927v12.573c0 1.655 1.345 3 3 3h21c1.655 0 3-1.345 3-3V13.45A5.955 5.955 0 0 0 30 9.523c0-.272-.074-.539-.214-.772z"/></g></g></svg>