<svg xmlns="http://www.w3.org/2000/svg" width="15" height="15" viewBox="0 0 15 15"><g><g><path fill="#726159" d="M12.89 12.804a.45.45 0 1 1-.635.636L9.56 10.745a.45.45 0 1 1 .635-.635zM1.978 4.214c.168.236.44.376.73.376h.064c.238 0 .467.094.635.263l5.126 5.125-.274.82a.898.898 0 0 0 .217.92l3.014 3.014c.35.35.92.35 1.27 0l1.424-1.425a.898.898 0 0 0 0-1.27L11.17 9.023a.898.898 0 0 0-.92-.217l-.82.274-5.126-5.125a.898.898 0 0 1-.263-.636v-.063c0-.29-.14-.563-.376-.732L.898.55 0 1.447z"/></g><g><path fill="#726159" d="M2.27 10.645l.425-.218.423.217.475.024.258.399.4.258.023.475.216.423-.217.423-.023.475-.4.258-.257.4-.475.023-.424.217-.423-.217-.475-.023-.258-.4-.4-.258-.022-.475-.218-.423.217-.423.023-.475.4-.258.258-.4.475-.022zm12.007-8.1l-1.922 1.923-1.578-.327-.327-1.58L12.374.639a2.694 2.694 0 0 0-3.3 3.307L3.458 9.64a2.694 2.694 0 1 0 1.82 1.82l5.694-5.615a2.697 2.697 0 0 0 3.304-3.3z"/></g></g></svg>