<svg xmlns="http://www.w3.org/2000/svg" xmlns:xlink="http://www.w3.org/1999/xlink" width="386.106" height="347.123" viewBox="0 0 386.106 347.123">
  <defs>
    <clipPath id="clip-path">
      <rect id="Retângulo_6887" data-name="Retângulo 6887" width="355.475" height="311.673" fill="#fff"/>
    </clipPath>
  </defs>
  <g id="Grupo_9530" data-name="Grupo 9530" transform="matrix(0.995, 0.105, -0.105, 0.995, 32.579, 0)" opacity="0.03">
    <g id="Grupo_9501" data-name="Grupo 9501" clip-path="url(#clip-path)">
      <path id="Caminho_26700" data-name="Caminho 26700" d="M220.747,79.83A52.51,52.51,0,0,0,172.6,111.4,52.531,52.531,0,0,0,71.9,132.361H93.782v26.265a78.806,78.806,0,1,0,157.612,0V132.361h21.9a52.531,52.531,0,0,0-52.55-52.531M109.356,125.22h-9.244a25.358,25.358,0,1,1,50.717,0h-9.244a16.114,16.114,0,1,0-32.229,0m67.835,74.763a30.873,30.873,0,0,1-47.919-30.994l9.09,1.66a21.644,21.644,0,0,0,42.573,7.835l9.09,1.66a30.648,30.648,0,0,1-12.834,19.839m61.2-74.763a16.114,16.114,0,0,0-32.229,0h-9.244a25.358,25.358,0,1,1,50.717,0Z" transform="translate(66.854 74.231)" fill="#fff"/>
      <path id="Caminho_26701" data-name="Caminho 26701" d="M234.217,0A63.767,63.767,0,0,0,179.91,30.357a63.872,63.872,0,1,0-54.326,97.42H234.217A63.888,63.888,0,1,0,234.217,0M135.774,97.42a30.037,30.037,0,0,1-30.029-30.029c0-.077.019-.135.019-.193a31.294,31.294,0,0,0,3.319.193,30.018,30.018,0,0,0,30.009-29.836,30.024,30.024,0,0,1-3.319,59.864m120.115,0a30.025,30.025,0,0,1-30.029-30.029V67.2a31.66,31.66,0,0,0,3.339.193,30.042,30.042,0,0,0,30.009-29.836,30.025,30.025,0,0,1-3.319,59.864" transform="translate(57.36)" fill="#fff"/>
      <path id="Caminho_26702" data-name="Caminho 26702" d="M92.473,77.045C80.064,53.964,45.655,36.556,21.532,49.525c-23.486,12.641-26.96,49.829-14.3,73.393A48.4,48.4,0,1,0,92.473,77.045M42.76,123.014a25.364,25.364,0,0,1-8.067-49.4l2.953,8.762a16.117,16.117,0,1,0,10.286,30.55l2.933,8.762a25.479,25.479,0,0,1-8.105,1.332" transform="translate(0 41.931)" fill="#fff"/>
    </g>
  </g>
</svg>
