<svg xmlns="http://www.w3.org/2000/svg" xmlns:xlink="http://www.w3.org/1999/xlink" width="603.316" height="708.577" viewBox="0 0 603.316 708.577">
  <defs>
    <clipPath id="clip-path">
      <rect id="Retângulo_6886" data-name="Retângulo 6886" width="603.316" height="708.577" fill="#07060c"/>
    </clipPath>
  </defs>
  <g id="Grupo_9503" data-name="Grupo 9503" opacity="0.02">
    <g id="Grupo_9498" data-name="Grupo 9498" clip-path="url(#clip-path)">
      <path id="Caminho_26693" data-name="Caminho 26693" d="M349.282,107.2c16.639-21.723,25.919-53.793,27.057-64.068a7.962,7.962,0,0,0-8.035-8.817,7.839,7.839,0,0,0-6.542,3.662C357.5,44.416,342.243,57.109,321.8,72.326c12.017-26.452,18.986-52.478,20.159-63.037a8.168,8.168,0,0,0-2.667-7.217,8.276,8.276,0,0,0-12.408,1.671c-10.24,15.573-27.874,27.7-42.238,39.038-24.959,19.7-50.842,38.256-76.9,56.46q-21.226,14.879-42.7,29.332c-13.9,9.386-27.839,19.448-41.314,30.185-22.47,17.955-43.589,37.865-61.011,60.157A299.333,299.333,0,0,0,0,371.655a55.086,55.086,0,0,1,12.266-9c38.789-20.87,94.147,7.146,114.128,44.265A77.814,77.814,0,0,1,16.533,509.782C58.38,623.092,166.393,705.506,293.356,708.493c7.786.178,15.537.071,23.181-.32a126.848,126.848,0,0,1-80.494-118.039V547.86h-35.2a84.5,84.5,0,0,1,161.984-33.705,84.517,84.517,0,0,1,162.02,33.705H489.614v42.274a126.307,126.307,0,0,1-18.381,65.81c79.748-54.5,132.083-146.162,132.083-250.016,0-150.607-110-275.437-254.033-298.725M446.7,421.11H271.952a102.8,102.8,0,1,1,87.356-156.758A102.756,102.756,0,1,1,446.7,421.11" transform="translate(0 0.002)" fill="#07060c"/>
      <path id="Caminho_26694" data-name="Caminho 26694" d="M150.856,180.173H135.995a25.937,25.937,0,0,0-51.873,0H69.26a40.8,40.8,0,0,1,81.6,0" transform="translate(176.987 356.205)" fill="#07060c"/>
      <path id="Caminho_26695" data-name="Caminho 26695" d="M180.792,188.628a49.675,49.675,0,0,1-48.78,40.709,48.858,48.858,0,0,1-9.066-.818,49.678,49.678,0,0,1-39.892-57.846l14.613,2.667a34.83,34.83,0,1,0,68.513,12.586Z" transform="translate(210.089 436.137)" fill="#07060c"/>
      <path id="Caminho_26696" data-name="Caminho 26696" d="M194.656,180.173h-14.9a25.919,25.919,0,1,0-51.838,0H113.06a40.8,40.8,0,0,1,81.6,0" transform="translate(288.913 356.205)" fill="#07060c"/>
      <path id="Caminho_26697" data-name="Caminho 26697" d="M218.46,125.575a48.3,48.3,0,1,1-96.6,0v-.284a53.746,53.746,0,0,0,5.369.284,48.284,48.284,0,0,0,48.282-47.962,48.29,48.29,0,0,1,42.949,47.962" transform="translate(311.401 198.332)" fill="#07060c"/>
      <path id="Caminho_26698" data-name="Caminho 26698" d="M164.11,125.575a48.3,48.3,0,1,1-96.6,0v-.284a53.747,53.747,0,0,0,5.369.284,48.284,48.284,0,0,0,48.282-47.962,48.262,48.262,0,0,1,42.949,47.962" transform="translate(172.515 198.332)" fill="#07060c"/>
      <path id="Caminho_26699" data-name="Caminho 26699" d="M55.4,190.233a41.116,41.116,0,0,1-13.048,2.133,40.809,40.809,0,0,1-38.612-27.8,40.786,40.786,0,0,1,25.67-51.66l4.729,14.079a25.938,25.938,0,0,0,16.533,49.171Z" transform="translate(4.044 288.512)" fill="#07060c"/>
    </g>
  </g>
</svg>
