<svg xmlns="http://www.w3.org/2000/svg" xmlns:xlink="http://www.w3.org/1999/xlink" width="449.77" height="491.64" viewBox="0 0 449.77 491.64">
  <defs>
    <clipPath id="clip-path">
      <rect id="Retângulo_6886" data-name="Retângulo 6886" width="350.018" height="411.087" fill="#07060c"/>
    </clipPath>
  </defs>
  <g id="Grupo_9531" data-name="Grupo 9531" transform="translate(449.77 395.162) rotate(164)" opacity="0.02">
    <g id="Grupo_9498" data-name="Grupo 9498" transform="translate(0 0)" clip-path="url(#clip-path)">
      <path id="Caminho_26693" data-name="Caminho 26693" d="M202.639,348.891c9.653,12.6,15.037,31.209,15.7,37.17a4.619,4.619,0,0,1-4.662,5.115,4.548,4.548,0,0,1-3.8-2.125c-2.475-3.733-11.324-11.1-23.185-19.926,6.972,15.346,11.015,30.445,11.7,36.572a4.739,4.739,0,0,1-1.547,4.187,4.8,4.8,0,0,1-7.2-.969c-5.941-9.035-16.172-16.068-24.5-22.648-14.48-11.427-29.5-22.195-44.616-32.756q-12.314-8.632-24.773-17.017c-8.065-5.446-16.151-11.283-23.968-17.512-13.036-10.417-25.289-21.968-35.4-34.9A173.661,173.661,0,0,1,0,195.468a31.958,31.958,0,0,0,7.116,5.219c22.5,12.108,54.62-4.146,66.212-25.681A45.144,45.144,0,0,0,9.592,115.332C33.87,49.594,96.534,1.781,170.193.048c4.517-.1,9.014-.041,13.449.186a73.592,73.592,0,0,0-46.7,68.481V93.241H116.522A49.02,49.02,0,0,0,210.5,112.8a49.033,49.033,0,0,0,94-19.554H284.053V68.715a73.278,73.278,0,0,0-10.664-38.18,175.391,175.391,0,0,1,76.629,145.049c0,87.376-63.82,159.8-147.379,173.308m56.518-182.115H157.775a59.643,59.643,0,1,0,50.68,90.944,59.615,59.615,0,1,0,50.7-90.944" transform="translate(0 -0.001)" fill="#07060c"/>
      <path id="Caminho_26694" data-name="Caminho 26694" d="M47.339,0H38.717A15.071,15.071,0,0,1,23.659,15.037,15.053,15.053,0,0,1,8.622,0H0A23.685,23.685,0,0,0,23.659,23.659,23.7,23.7,0,0,0,47.339,0" transform="translate(142.862 99.903)" fill="#07060c"/>
      <path id="Caminho_26695" data-name="Caminho 26695" d="M57.191,23.618A28.819,28.819,0,0,0,28.891,0a28.344,28.344,0,0,0-5.26.474A28.821,28.821,0,0,0,.487,34.034l8.478-1.547a20.207,20.207,0,1,1,39.748-7.3Z" transform="translate(169.582 25.006)" fill="#07060c"/>
      <path id="Caminho_26696" data-name="Caminho 26696" d="M47.339,0H38.7A15.053,15.053,0,0,1,23.659,15.037,15.053,15.053,0,0,1,8.622,0H0A23.685,23.685,0,0,0,23.659,23.659,23.7,23.7,0,0,0,47.339,0" transform="translate(233.208 99.902)" fill="#07060c"/>
      <path id="Caminho_26697" data-name="Caminho 26697" d="M56.043,28.032A28.022,28.022,0,1,0,0,28.032V28.2a31.18,31.18,0,0,1,3.115-.165A28.012,28.012,0,0,1,31.126,55.858,28.016,28.016,0,0,0,56.043,28.032" transform="translate(251.36 195.137)" fill="#07060c"/>
      <path id="Caminho_26698" data-name="Caminho 26698" d="M56.043,28.032A28.022,28.022,0,1,0,0,28.032V28.2a31.18,31.18,0,0,1,3.115-.165A28.012,28.012,0,0,1,31.126,55.858,28,28,0,0,0,56.043,28.032" transform="translate(139.252 195.137)" fill="#07060c"/>
      <path id="Caminho_26699" data-name="Caminho 26699" d="M31.224,1.238A23.853,23.853,0,0,0,23.654,0a23.676,23.676,0,0,0-22.4,16.13A23.662,23.662,0,0,0,16.146,46.1l2.743-8.168A15.048,15.048,0,0,1,28.48,9.406Z" transform="translate(3.264 132.101)" fill="#07060c"/>
    </g>
  </g>
</svg>
