<?xml version="1.0" encoding="UTF-8"?>
<svg id="SVGDoc" width="26" height="19" xmlns="http://www.w3.org/2000/svg" version="1.1" xmlns:xlink="http://www.w3.org/1999/xlink" xmlns:avocode="https://avocode.com/" viewBox="0 0 26 19"><defs></defs><desc>Generated with Avocode.</desc><g><g><title>Caminho 30629</title><path d="M25.88226,17.22432c0,0.7056 -0.57218,1.27607 -1.27607,1.27607h-10.27611c-0.70499,0 -1.27649,-0.57151 -1.27649,-1.2765c0,-0.70499 0.57151,-1.27649 1.27649,-1.27649h10.27611c0.7056,0 1.27607,0.57047 1.27607,1.27607z" fill="#ffffff" fill-opacity="1"></path></g><g><title>Caminho 30630</title><path d="M25.88226,9.52002c0,0.7056 -0.57218,1.27607 -1.27607,1.27607h-23.10607c-0.70499,0 -1.2765,-0.57151 -1.2765,-1.2765c0,-0.70499 0.57151,-1.2765 1.2765,-1.2765h23.10521c0.7056,0 1.27607,0.57218 1.27607,1.27607z" fill="#ffffff" fill-opacity="1"></path></g><g><title>Caminho 30631</title><path d="M24.60619,3.09264c0.70499,0 1.2765,-0.57151 1.2765,-1.2765c0,-0.70499 -0.57151,-1.2765 -1.2765,-1.2765h-15.40861c-0.70499,0 -1.2765,0.57151 -1.2765,1.27649c0,0.70499 0.57151,1.2765 1.27649,1.2765h15.40775v0z" fill="#ffffff" fill-opacity="1"></path></g></g></svg>