<?xml version="1.0" encoding="UTF-8"?>
<svg id="SVGDoc" width="29" height="31" xmlns="http://www.w3.org/2000/svg" version="1.1" xmlns:xlink="http://www.w3.org/1999/xlink" xmlns:avocode="https://avocode.com/" viewBox="0 0 29 31"><defs></defs><desc>Generated with Avocode.</desc><g><g clip-path="url(#clip-125dc31d-ad5f-4d3e-8b1a-154b7ef169f7)"><title>Caminho 26714</title><path d="M10.98339,21.52992c0,1.12729 -0.00263,2.25457 0.00079,3.38185c0.00298,0.9798 0.80978,1.45926 1.66728,0.98542c2.01883,-1.1157 4.03257,-2.24053 6.05174,-3.35544c0.40208,-0.22205 0.67923,-0.5185 0.68265,-0.99902c0.00342,-0.48104 -0.26838,-0.78337 -0.6709,-1.00586c-2.01839,-1.11597 -4.03221,-2.24035 -6.05095,-3.35553c-0.87514,-0.48341 -1.6779,-0.00219 -1.68009,0.99963c-0.00237,1.11632 -0.00053,2.23264 -0.00053,3.34895M7.17174,3.94031c-0.27732,0.88154 -0.54342,1.73176 -0.81232,2.58111c-0.55386,1.7494 -1.10377,3.49994 -1.66965,5.24538c-0.08887,0.27417 -0.02799,0.33181 0.24241,0.32269c0.51368,-0.01728 1.02902,-0.01992 1.54244,0.00131c0.25495,0.01053 0.35918,-0.08045 0.4334,-0.31794c0.82811,-2.64787 1.67219,-5.29066 2.49557,-7.93993c0.08756,-0.28153 0.22126,-0.39366 0.5049,-0.44437c1.25844,-0.22521 2.51364,-0.46893 3.767,-0.72073c0.30794,-0.06185 0.29048,0.04071 0.21591,0.27496c-0.92085,2.89335 -1.83415,5.78915 -2.74938,8.68426c-0.02307,0.07291 -0.04352,0.14678 -0.07071,0.21811c-0.06159,0.16125 -0.03229,0.25407 0.16415,0.23995c0.08712,-0.00623 0.17503,-0.00061 0.26259,-0.00061c4.68337,0 9.36682,-0.00131 14.05019,0.00097c1.31012,0.0007 2.27395,0.73354 2.53777,1.93285c0.04878,0.2217 0.05369,0.45621 0.05387,0.68484c0.00298,4.10336 0.00614,8.20682 0.00052,12.31026c-0.00307,2.31633 -1.6557,3.97931 -3.96896,3.98168c-6.4561,0.00658 -12.9122,0.0064 -19.36831,0.00009c-2.30571,-0.00229 -3.97554,-1.6793 -3.97852,-3.98203c-0.005,-3.91737 -0.02764,-7.83509 0.01193,-11.75211c0.015,-1.48848 -0.14994,-2.9402 -0.45165,-4.38972c-0.16003,-0.76871 -0.36515,-1.53384 -0.38383,-2.32615c-0.04229,-1.79677 1.16703,-3.40001 2.91932,-3.79349c1.34258,-0.30145 2.70113,-0.5314 4.05283,-0.79214c0.05132,-0.00991 0.10449,-0.01044 0.19854,-0.01921" fill="#ffffff" fill-opacity="1"></path></g><g clip-path="url(#clip-125dc31d-ad5f-4d3e-8b1a-154b7ef169f7)"><title>Caminho 26715</title><path d="M20.04849,10.68514c0.35321,-1.12175 0.70502,-2.24404 1.06,-3.36535c0.64923,-2.05067 1.30502,-4.09933 1.94434,-6.15307c0.07291,-0.23416 0.18161,-0.32645 0.4191,-0.36725c0.46823,-0.08045 0.92902,-0.13836 1.39478,-0.00044c0.93051,0.27566 1.53964,0.88417 1.73633,1.8273c0.34331,1.64666 0.64659,3.30192 0.94788,4.95701c0.15887,0.87329 -0.4041,1.76519 -1.27609,1.94408c-2.04355,0.41919 -4.09616,0.7939 -6.14543,1.18519c-0.0179,0.00342 -0.03947,-0.01281 -0.08089,-0.02746" fill="#ffffff" fill-opacity="1"></path></g><g clip-path="url(#clip-125dc31d-ad5f-4d3e-8b1a-154b7ef169f7)"><title>Caminho 26716</title><path d="M20.79494,1.34508c-0.36655,1.15939 -0.72169,2.28343 -1.07745,3.4072c-0.64948,2.05173 -1.3009,4.10293 -1.94635,6.15588c-0.05237,0.16661 -0.10204,0.28689 -0.3054,0.32417c-1.39539,0.25601 -2.78842,0.52491 -4.18748,0.79065c-0.04475,-0.12835 0.01753,-0.22407 0.04904,-0.32347c0.96539,-3.05189 1.93521,-6.10228 2.89035,-9.15732c0.08582,-0.27434 0.20084,-0.39857 0.49631,-0.45051c1.31302,-0.23083 2.62024,-0.49481 3.92982,-0.74591c0.03027,-0.00579 0.06264,-0.0007 0.15117,-0.0007" fill="#ffffff" fill-opacity="1"></path></g></g></svg>