<?xml version="1.0" encoding="UTF-8"?>
<svg id="SVGDoc" width="32" height="32" xmlns="http://www.w3.org/2000/svg" version="1.1" xmlns:xlink="http://www.w3.org/1999/xlink" xmlns:avocode="https://avocode.com/" viewBox="0 0 32 32"><defs></defs><desc>Generated with Avocode.</desc><g><g><title>193626fa651e2b7cd181015e05b1784e</title><path d="M23.39275,9.93489c0,-0.72742 -0.54896,-1.33756 -1.27234,-1.41413c-0.72338,0.07657 -1.27234,0.68671 -1.27234,1.41413c0,0.72742 0.54896,1.33756 1.27234,1.41413c0.72338,-0.07657 1.27234,-0.68671 1.27234,-1.41413zM21.85179,16.21027c0.00583,-3.33548 -2.69493,-6.04333 -6.03044,-6.04625c-3.33548,-0.00291 -6.04097,2.70022 -6.04097,6.03569c-0.0042,1.59932 0.62819,3.13457 1.75758,4.26692c1.1294,1.13238 2.66299,1.76879 4.26233,1.76879c3.33547,0.00873 6.04568,-2.68967 6.0515,-6.02515zM24.94867,9.27918c0.27192,0.69477 0.41126,1.43435 0.4108,2.18044c0,1.23242 0,1.58003 0,4.74009c0,3.16006 0,3.50767 0,4.74009c-0.00729,0.74535 -0.14637,1.48354 -0.41081,2.18044c-0.38073,1.0329 -1.19494,1.84711 -2.22784,2.22784c-0.6969,0.26444 -1.43509,0.40352 -2.18044,0.41081c-1.23242,0 -1.58003,0 -4.74009,0c-3.16006,0 -3.50767,0 -4.74009,0c-0.71788,-0.0242 -1.42729,-0.16288 -2.10144,-0.41081c-1.0329,-0.38073 -1.84711,-1.19493 -2.22784,-2.22784c-0.25633,-0.69916 -0.39514,-1.43594 -0.41081,-2.18044c0,-1.23242 0,-1.58003 0,-4.74009c0,-3.16006 0,-3.50767 0,-4.74009c-0.00975,-0.74009 0.10235,-1.47675 0.33181,-2.18044c0.39973,-1.00287 1.2112,-1.78557 2.22784,-2.14884c0.6969,-0.26445 1.43509,-0.40352 2.18044,-0.41081c1.23242,0 1.58003,0 4.74009,0c3.16006,0 3.50767,0 4.74009,0c0.74158,-0.01297 1.47965,0.1047 2.18044,0.34761c1.0329,0.38073 1.84711,1.19493 2.22784,2.22784zM27.47671,21.0346c0.0474,-1.24822 -0.0632,-1.58003 -0.0632,-4.83489c0,-3.25486 0,-3.58667 0,-4.83489c-0.02877,-0.97689 -0.21552,-1.94267 -0.55301,-2.85986c-0.281,-0.75505 -0.72312,-1.43981 -1.29562,-2.00664c-0.57872,-0.60313 -1.2863,-1.06765 -2.06983,-1.35882c-0.91719,-0.33748 -1.88298,-0.52424 -2.85986,-0.55301c-1.24822,0 -1.58003,0 -4.83489,0c-3.25486,0 -3.58667,0 -4.83489,0c-0.97688,0.02877 -1.94266,0.21553 -2.85985,0.55301c-0.75326,0.28455 -1.4373,0.72621 -2.00664,1.29562c-0.60314,0.57873 -1.06766,1.28631 -1.35883,2.06984c-0.33883,0.91624 -0.52045,1.88313 -0.53721,2.85986c0,1.24822 0,1.58003 0,4.83489c0,3.25486 0,3.58666 0,4.83489c0.01676,0.97674 0.19838,1.94362 0.53721,2.85985c0.281,0.75505 0.72312,1.4398 1.29562,2.00664c0.57873,0.60314 1.28631,1.06766 2.06984,1.35883c0.91719,0.33749 1.88298,0.52424 2.85986,0.55301c1.24822,0 1.58003,0 4.83489,0c3.25486,0 3.58667,0 4.83489,0c0.97688,-0.02877 1.94266,-0.21552 2.85985,-0.55301c1.53131,-0.61974 2.74572,-1.83415 3.36546,-3.36547c0.35742,-0.90859 0.56551,-1.86901 0.61621,-2.84405zM31.49,8.41016c0.1106,2.03824 0.1106,2.63865 0.1106,7.78955c0,5.1509 0,5.75131 -0.1106,7.78955c-0.00878,1.22526 -0.23342,2.43937 -0.66362,3.58666c-0.31573,0.8316 -0.80601,1.58588 -1.43782,2.21204c-0.62916,0.63565 -1.38946,1.12635 -2.22784,1.43783c-1.14169,0.43061 -2.3507,0.6553 -3.57087,0.66361c-2.03824,0.1106 -2.63865,0.1106 -7.78955,0.1106c-5.15089,0 -5.7513,0 -7.78954,-0.1106c-1.22017,-0.00831 -2.42919,-0.233 -3.57087,-0.66361c-0.83838,-0.31148 -1.59868,-0.80217 -2.22784,-1.43783c-0.63181,-0.62615 -1.12209,-1.38043 -1.43783,-2.21204c-0.42222,-1.14948 -0.6466,-2.3622 -0.66361,-3.58666c-0.1106,-2.03824 -0.1106,-2.63865 -0.1106,-7.78955c0,-5.1509 0,-5.75131 0.1106,-7.78955c0.00831,-1.22017 0.233,-2.42919 0.66361,-3.57087c0.64149,-1.68986 1.97582,-3.02418 3.66567,-3.66567c1.14168,-0.43061 2.3507,-0.6553 3.57086,-0.66361c2.03823,-0.1106 2.63864,-0.1106 7.78954,-0.1106c5.1509,0 5.75131,0 7.78955,0.1106c1.22017,0.00831 2.42918,0.233 3.57087,0.66361c1.68985,0.64149 3.02417,1.97582 3.66566,3.66567c0.43061,1.14169 0.65529,2.35071 0.66361,3.57087zM19.71876,16.19971c0,2.16411 -1.75436,3.91847 -3.91847,3.91847c-2.16411,0 -3.91847,-1.75436 -3.91847,-3.91847c0,-2.16411 1.75436,-3.91847 3.91847,-3.91847c2.16411,0 3.91847,1.75436 3.91847,3.91847z" fill="#ffffff" fill-opacity="1"></path></g></g></svg>