<?xml version="1.0" encoding="UTF-8"?>
<svg id="SVGDoc" width="36" height="30" xmlns="http://www.w3.org/2000/svg" version="1.1" xmlns:xlink="http://www.w3.org/1999/xlink" xmlns:avocode="https://avocode.com/" viewBox="0 0 36 30"><defs></defs><desc>Generated with Avocode.</desc><g><g><title>e81be2cb0fc67584f7d3807eaf13856a</title><path d="M32.16569,10.78333c0,-0.70742 -0.5539,-1.28089 -1.23715,-1.28089c-0.68325,0 -1.23714,0.57347 -1.23714,1.28089c0,0.70742 0.55389,1.28089 1.23714,1.28089c0.68326,0 1.23715,-0.57347 1.23715,-1.28089zM26.51018,17.18778c0,-5.05298 -3.95634,-9.14923 -8.83673,-9.14923c-4.88039,0 -8.83673,4.09625 -8.83673,9.14923c0,5.05298 3.95634,9.14923 8.83673,9.14923c4.88039,0 8.83673,-4.09625 8.83673,-9.14923zM35.3469,9.8684v16.46861c0,2.01283 -1.59061,3.65969 -3.53469,3.65969h-28.27752c-1.94408,0 -3.53469,-1.64686 -3.53469,-3.65969v-16.46861c0,-2.01283 1.59061,-3.65969 3.53469,-3.65969h4.24163c0.62368,-0.02993 1.17106,-0.43936 1.39443,-1.04301l1.09929,-3.40717c0.18203,-0.57091 0.81121,-1.03935 1.39443,-1.03935h12.01795c0.62375,0.02938 1.17165,0.43796 1.39621,1.04118l1.09752,3.40534c0.22298,0.60395 0.77059,1.01355 1.39443,1.04301h4.24163c1.94408,0 3.53469,1.64686 3.53469,3.65969zM22.97548,17.18779c0,3.03178 -2.3738,5.48953 -5.30203,5.48953c-2.92824,0 -5.30204,-2.45774 -5.30204,-5.48953c0,-3.03179 2.37381,-5.48954 5.30204,-5.48954c2.92823,0 5.30203,2.45775 5.30203,5.48954z" fill="#ffffff" fill-opacity="1"></path></g></g></svg>