<?xml version="1.0" encoding="UTF-8"?>
<svg id="SVGDoc" width="45" height="44" xmlns="http://www.w3.org/2000/svg" version="1.1" xmlns:xlink="http://www.w3.org/1999/xlink" xmlns:avocode="https://avocode.com/" viewBox="0 0 45 44"><defs><clipPath id="ClipPath1017"><path d="M4.99989,44c-2.76142,0 -5,-2.23858 -5,-5v-34c0,-2.76142 2.23858,-5 5,-5h35c2.76142,0 5,2.23858 5,5v34c0,2.76142 -2.23858,5 -5,5z" fill="#ffffff"></path></clipPath></defs><desc>Generated with Avocode.</desc><g><g><title>Retângulo 6157</title><path d="M4.99989,44c-2.76142,0 -5,-2.23858 -5,-5v-34c0,-2.76142 2.23858,-5 5,-5h35c2.76142,0 5,2.23858 5,5v34c0,2.76142 -2.23858,5 -5,5z" fill="#ffffff" fill-opacity="1"></path><path d="M4.99989,44c-2.76142,0 -5,-2.23858 -5,-5v-34c0,-2.76142 2.23858,-5 5,-5h35c2.76142,0 5,2.23858 5,5v34c0,2.76142 -2.23858,5 -5,5z" fill-opacity="0" fill="#ffffff" stroke-dashoffset="0" stroke-linejoin="miter" stroke-linecap="butt" stroke-opacity="1" stroke="#ffffff" stroke-miterlimit="20" stroke-width="2" clip-path="url(&quot;#ClipPath1017&quot;)"></path></g><g><title>Caminho 6390</title><path d="M19.48016,31.5449v0h4.20356v0v-8.41762v0h3.78741v0l0.41615,-4.18254v0h-4.20356v0v-2.11229c0,-0.58039 0.4705,-1.05089 1.05089,-1.05089h3.15267v0v-4.20356v0h-3.15267c-2.90195,0 -5.25445,2.3525 -5.25445,5.25445v2.11229v0h-2.10178v0l-0.41615,4.18254v0h2.51793v0z" fill="#ea7d24" fill-opacity="1"></path></g></g></svg>