<?xml version="1.0" encoding="UTF-8"?>
<svg id="SVGDoc" width="16" height="11" xmlns="http://www.w3.org/2000/svg" version="1.1" xmlns:xlink="http://www.w3.org/1999/xlink" xmlns:avocode="https://avocode.com/" viewBox="0 0 16 11"><defs></defs><desc>Generated with Avocode.</desc><g><g><title>8a7a186666c0d51cd04d97fca1b9ee64</title><path d="M6.19779,8.28785c0.07755,-0.20113 0.10695,-0.41761 0.08585,-0.63214c0.04025,-0.40806 -0.11625,-0.81091 -0.42143,-1.08478c-0.33307,-0.22537 -0.72984,-0.33756 -1.13161,-0.31997h-2.34126v2.69245h2.34126c0.20466,0.00324 0.40899,-0.01772 0.60873,-0.06243c0.1797,-0.03729 0.35142,-0.10598 0.50727,-0.20291c0.14976,-0.09643 0.27101,-0.23116 0.35119,-0.39021zM2.42056,4.77596h2.18518c0.33861,0.01474 0.67281,-0.08114 0.95211,-0.27315c0.25975,-0.22257 0.3963,-0.55669 0.3668,-0.89748c0.00859,-0.19503 -0.03448,-0.38887 -0.12487,-0.5619c-0.07299,-0.14429 -0.18703,-0.26377 -0.32778,-0.34338c-0.14568,-0.08834 -0.30753,-0.14671 -0.47606,-0.17169c-0.18303,-0.03139 -0.3684,-0.04706 -0.5541,-0.04683h-2.02129zM6.68164,5.28324c0.55295,0.13339 1.03842,0.46352 1.36574,0.92871c0.30437,0.46257 0.45962,1.00732 0.44484,1.56084c0.01338,0.44666 -0.08592,0.88951 -0.28876,1.28769c-0.18328,0.35605 -0.45129,0.66157 -0.78042,0.88968c-0.33978,0.23252 -0.7174,0.40416 -1.116,0.50728c-0.42052,0.10912 -0.85324,0.1642 -1.28769,0.16388h-4.76057v-9.81769h4.65911c0.42991,-0.00526 0.8591,0.03662 1.27989,0.12487c0.35557,0.06295 0.69353,0.20133 0.99114,0.40582c0.28071,0.19669 0.50206,0.46663 0.63995,0.78042c0.16413,0.3622 0.24162,0.75766 0.22632,1.15502c0.01745,0.43573 -0.09972,0.86627 -0.33558,1.23306c-0.2566,0.34538 -0.60174,0.61502 -0.99894,0.78042zM10.81007,5.65785c-0.04444,0.15276 -0.07321,0.30965 -0.08584,0.46825h3.23874c-0.05632,-0.41535 -0.22649,-0.807 -0.49166,-1.13161c-0.28103,-0.27626 -0.66872,-0.41595 -1.06137,-0.38241c-0.26859,-0.00757 -0.5354,0.04579 -0.78042,0.15608c-0.37411,0.17304 -0.65759,0.49622 -0.78042,0.88968zM13.52593,8.87318c0.22162,-0.13969 0.39153,-0.34796 0.48386,-0.59312h1.72473c-0.19703,0.74104 -0.64704,1.38983 -1.27209,1.83399c-0.61884,0.37902 -1.33497,0.56891 -2.06031,0.54629c-0.51697,0.00881 -1.03086,-0.08125 -1.51402,-0.26534c-0.4333,-0.17181 -0.82264,-0.43847 -1.13941,-0.78042c-0.30618,-0.34829 -0.53967,-0.75426 -0.68677,-1.19405c-0.17318,-0.48565 -0.25776,-0.99846 -0.24973,-1.51401c-0.00476,-0.50834 0.08249,-1.01334 0.25754,-1.49061c0.16312,-0.4421 0.41549,-0.84589 0.7414,-1.18624c0.32684,-0.33368 0.71682,-0.59898 1.14722,-0.78042c0.47003,-0.19429 0.97421,-0.29248 1.4828,-0.28875c0.54077,-0.00835 1.07576,0.11202 1.56084,0.35119c0.43598,0.22704 0.81486,0.54989 1.1082,0.94431c0.29144,0.40662 0.50328,0.86473 0.62434,1.35013c0.12515,0.51021 0.16991,1.03682 0.13267,1.56084h-5.16638c-0.02285,0.50325 0.15063,0.99572 0.48386,1.37354c0.36435,0.31893 0.8451,0.47164 1.32671,0.42143c0.35991,0.01102 0.71438,-0.08987 1.01455,-0.28876zM14.3766,2.40349h-3.97234v-1.10039h3.95673z" fill="#2d2d2d" fill-opacity="1"></path></g></g></svg>