<?xml version="1.0" encoding="UTF-8"?>
<svg id="SVGDoc" width="15" height="16" xmlns="http://www.w3.org/2000/svg" version="1.1" xmlns:xlink="http://www.w3.org/1999/xlink" xmlns:avocode="https://avocode.com/" viewBox="0 0 15 16"><defs></defs><desc>Generated with Avocode.</desc><g><g clip-path="url(#clip-d4cec888-d10e-4cd7-8c25-ebde4e75ff00)"><title>Caminho 26714</title><path d="M5.7272,11.06153c0,0.58781 -0.00137,1.17562 0.00041,1.76344c0.00156,0.51091 0.42225,0.76092 0.86939,0.51384c1.0527,-0.58177 2.10275,-1.1683 3.15563,-1.74966c0.20966,-0.11579 0.35418,-0.27037 0.35596,-0.52093c0.00178,-0.25084 -0.13994,-0.40848 -0.34983,-0.52449c-1.05247,-0.58191 -2.10257,-1.16822 -3.15522,-1.74972c-0.45633,-0.25207 -0.87493,-0.00114 -0.87607,0.52125c-0.00123,0.58209 -0.00027,1.16419 -0.00027,1.74628M3.73965,1.88958c-0.14461,0.45967 -0.28336,0.90301 -0.42358,1.3459c-0.28881,0.91221 -0.57555,1.82501 -0.87063,2.73517c-0.04634,0.14296 -0.01459,0.17302 0.1264,0.16826c0.26785,-0.00901 0.53657,-0.01038 0.80429,0.00069c0.13294,0.00549 0.18729,-0.04195 0.22599,-0.16579c0.43181,-1.38071 0.87195,-2.75877 1.30129,-4.14021c0.04566,-0.1468 0.11538,-0.20527 0.26328,-0.23171c0.65621,-0.11743 1.31072,-0.24452 1.96427,-0.37582c0.16057,-0.03225 0.15147,0.02122 0.11259,0.14337c-0.48017,1.50871 -0.9564,3.01871 -1.43364,4.52834c-0.01203,0.03802 -0.02269,0.07654 -0.03687,0.11373c-0.03212,0.08409 -0.01684,0.13249 0.08559,0.12512c0.04543,-0.00325 0.09127,-0.00032 0.13692,-0.00032c2.4421,0 4.88426,-0.00068 7.32636,0.00051c0.68315,0.00036 1.18573,0.3825 1.3233,1.00787c0.02543,0.11561 0.028,0.23789 0.02809,0.35711c0.00156,2.13967 0.0032,4.27938 0.00027,6.41909c-0.0016,1.20784 -0.86335,2.07498 -2.06958,2.07622c-3.36648,0.00343 -6.73297,0.00333 -10.09945,0.00004c-1.2023,-0.00119 -2.07301,-0.87566 -2.07457,-2.0764c-0.00261,-2.04268 -0.01441,-4.08554 0.00622,-6.12804c0.00782,-0.77615 -0.07818,-1.53314 -0.23551,-2.28899c-0.08344,-0.40084 -0.1904,-0.79981 -0.20015,-1.21296c-0.02205,-0.93691 0.60854,-1.77291 1.52226,-1.97808c0.70008,-0.15719 1.40848,-0.2771 2.11332,-0.41306c0.02676,-0.00517 0.05449,-0.00544 0.10353,-0.01002" fill="#ea7d24" fill-opacity="1"></path></g><g clip-path="url(#clip-d4cec888-d10e-4cd7-8c25-ebde4e75ff00)"><title>Caminho 26715</title><path d="M10.45413,5.40661c0.18419,-0.58493 0.36763,-1.17013 0.55272,-1.75484c0.33853,-1.06931 0.68051,-2.13756 1.01385,-3.20847c0.03806,-0.1221 0.09473,-0.17023 0.21857,-0.1915c0.24414,-0.04195 0.48441,-0.07214 0.72726,-0.00023c0.48523,0.14374 0.80286,0.46105 0.90543,0.95283c0.17902,0.85864 0.33716,1.72176 0.49423,2.58479c0.08286,0.45537 -0.21069,0.92044 -0.66541,1.01372c-1.06555,0.21858 -2.13589,0.41397 -3.20447,0.61801c-0.00935,0.00178 -0.02058,-0.00668 -0.04219,-0.01432" fill="#ea7d24" fill-opacity="1"></path></g><g clip-path="url(#clip-d4cec888-d10e-4cd7-8c25-ebde4e75ff00)"><title>Caminho 26716</title><path d="M10.84337,0.53631c-0.19112,0.60456 -0.37633,1.19068 -0.56183,1.77666c-0.33865,1.06985 -0.67836,2.13944 -1.01491,3.20993c-0.0273,0.08687 -0.05321,0.1496 -0.15926,0.16904c-0.7276,0.13349 -1.45401,0.27371 -2.18353,0.41228c-0.02333,-0.06693 0.00914,-0.11684 0.02556,-0.16867c0.50342,-1.59138 1.00912,-3.18198 1.50717,-4.77501c0.04474,-0.14305 0.10474,-0.20783 0.25879,-0.23491c0.68468,-0.12036 1.3663,-0.25802 2.04916,-0.38895c0.01579,-0.00302 0.03267,-0.00037 0.07884,-0.00037" fill="#ea7d24" fill-opacity="1"></path></g></g></svg>