<?xml version="1.0" encoding="UTF-8"?>
<svg id="SVGDoc" width="45" height="44" xmlns="http://www.w3.org/2000/svg" version="1.1" xmlns:xlink="http://www.w3.org/1999/xlink" xmlns:avocode="https://avocode.com/" viewBox="0 0 45 44"><defs><clipPath id="ClipPath1056"><path d="M4.99989,44c-2.76142,0 -5,-2.23858 -5,-5v-34c0,-2.76142 2.23858,-5 5,-5h35c2.76142,0 5,2.23858 5,5v34c0,2.76142 -2.23858,5 -5,5z" fill="#ffffff"></path></clipPath></defs><desc>Generated with Avocode.</desc><g><g><title>Retângulo 6159</title><path d="M4.99989,44c-2.76142,0 -5,-2.23858 -5,-5v-34c0,-2.76142 2.23858,-5 5,-5h35c2.76142,0 5,2.23858 5,5v34c0,2.76142 -2.23858,5 -5,5z" fill="#ffffff" fill-opacity="1"></path><path d="M4.99989,44c-2.76142,0 -5,-2.23858 -5,-5v-34c0,-2.76142 2.23858,-5 5,-5h35c2.76142,0 5,2.23858 5,5v34c0,2.76142 -2.23858,5 -5,5z" fill-opacity="0" fill="#ffffff" stroke-dashoffset="0" stroke-linejoin="miter" stroke-linecap="butt" stroke-opacity="1" stroke="#ffffff" stroke-miterlimit="20" stroke-width="2" clip-path="url(&quot;#ClipPath1056&quot;)"></path></g><g><title>8a7a186666c0d51cd04d97fca1b9ee64</title><path d="M20.51767,25.173c0.10468,-0.27152 0.14437,-0.56378 0.11589,-0.85339c0.05434,-0.55089 -0.15694,-1.09473 -0.56893,-1.46446c-0.44964,-0.30426 -0.98528,-0.45571 -1.52767,-0.43196h-3.1607v3.63481h3.1607c0.27629,0.00436 0.55213,-0.02393 0.82178,-0.08429c0.2426,-0.05034 0.47443,-0.14307 0.68482,-0.27393c0.20217,-0.13018 0.36586,-0.31206 0.4741,-0.52678zM15.41839,20.43194h2.94999c0.45712,0.0199 0.9083,-0.10954 1.28535,-0.36875c0.35066,-0.30047 0.535,-0.75153 0.49518,-1.2116c0.0116,-0.26329 -0.04655,-0.52498 -0.16857,-0.75857c-0.09853,-0.1948 -0.25249,-0.35609 -0.4425,-0.46357c-0.19666,-0.11927 -0.41515,-0.19807 -0.64267,-0.23179c-0.24708,-0.04237 -0.49734,-0.06352 -0.74803,-0.06321h-2.72874zM21.17087,21.11675c0.74647,0.18007 1.40186,0.62574 1.84374,1.25375c0.4109,0.62446 0.62049,1.35988 0.60054,2.10713c0.01807,0.603 -0.11599,1.20085 -0.38982,1.73839c-0.24743,0.48066 -0.60924,0.89312 -1.05357,1.20107c-0.4587,0.31389 -0.9685,0.54561 -1.5066,0.68482c-0.56771,0.14732 -1.15188,0.22167 -1.73839,0.22124h-6.42676v-13.25388h6.2898c0.58038,-0.0071 1.15979,0.04943 1.72785,0.16857c0.48001,0.08499 0.93625,0.2718 1.33803,0.54786c0.37895,0.26553 0.67778,0.62995 0.86393,1.05357c0.22157,0.48897 0.32618,1.02284 0.30553,1.55928c0.02356,0.58824 -0.13462,1.16947 -0.45303,1.66464c-0.3464,0.46626 -0.81234,0.83028 -1.34857,1.05357zM26.74424,21.62247c-0.06001,0.20623 -0.09884,0.41804 -0.11589,0.63214h4.3723c-0.07603,-0.56072 -0.30575,-1.08945 -0.66374,-1.52767c-0.37939,-0.37295 -0.90278,-0.56152 -1.43285,-0.51625c-0.36259,-0.01022 -0.72279,0.06182 -1.05357,0.21071c-0.50504,0.23361 -0.88775,0.66989 -1.05356,1.20107zM31.06388,25.16246h2.32838c-0.26599,1.00041 -0.8735,1.87627 -1.71731,2.47589c-0.83544,0.51168 -1.80222,0.76802 -2.78142,0.73749c-0.6979,0.01189 -1.39165,-0.10969 -2.04392,-0.35821c-0.58497,-0.23195 -1.11056,-0.59194 -1.53821,-1.05357c-0.41334,-0.47019 -0.72856,-1.01824 -0.92714,-1.61196c-0.23379,-0.65564 -0.34798,-1.34793 -0.33714,-2.04392c-0.00643,-0.68625 0.11136,-1.36801 0.34768,-2.01232c0.22022,-0.59683 0.56091,-1.14194 1.00089,-1.60142c0.44123,-0.45047 0.96771,-0.80862 1.54875,-1.05357c0.63454,-0.2623 1.31518,-0.39485 2.00178,-0.38982c0.73003,-0.01128 1.45228,0.15123 2.10713,0.4741c0.58857,0.3065 1.10006,0.74235 1.49607,1.27482c0.39343,0.54894 0.67942,1.16738 0.84285,1.82267c0.16895,0.68879 0.22939,1.39972 0.17911,2.10714h-6.97462c-0.03085,0.6794 0.20335,1.34422 0.65321,1.85428c0.49187,0.43055 1.14089,0.63671 1.79106,0.56893c0.48588,0.01488 0.96441,-0.12132 1.36964,-0.38982c0.29918,-0.18858 0.52856,-0.46975 0.65321,-0.80071zM31.55905,17.2291h-5.36266v-1.48553h5.34159z" fill="#ea7d24" fill-opacity="1"></path></g></g></svg>