<?xml version="1.0" encoding="UTF-8"?>
<svg id="SVGDoc" width="16" height="15" xmlns="http://www.w3.org/2000/svg" version="1.1" xmlns:xlink="http://www.w3.org/1999/xlink" xmlns:avocode="https://avocode.com/" viewBox="0 0 16 15"><defs></defs><desc>Generated with Avocode.</desc><g><g><title>Caminho 6391</title><path d="M11.67633,4.53332c-0.49184,0 -0.88862,-0.39732 -0.88862,-0.88861c0,-0.49047 0.3976,-0.88807 0.88807,-0.88807c0.49047,0 0.88807,0.3976 0.88807,0.88807c0,0.49129 -0.39732,0.88862 -0.88752,0.88862zM7.71355,11.40759c-2.10531,0 -3.81055,-1.70524 -3.81055,-3.81055c0,-2.10531 1.70524,-3.81055 3.81055,-3.81055c2.10466,0 3.81083,1.70617 3.81083,3.81083c0,2.10466 -1.70617,3.81083 -3.81083,3.81083zM15.09341,4.56794c-0.00823,-0.6243 -0.12501,-1.24242 -0.34511,-1.82669c-0.38611,-0.99664 -1.17407,-1.7846 -2.17071,-2.17071c-0.57674,-0.2165 -1.18605,-0.33357 -1.80196,-0.34622c-0.793,-0.03572 -1.04414,-0.04561 -3.05768,-0.04561c-2.01354,0 -2.27127,0 -3.05823,0.04561c-0.61554,0.01277 -1.22446,0.12983 -1.80086,0.34621c-0.99679,0.38587 -1.78484,1.17392 -2.17071,2.17071c-0.21681,0.57624 -0.33353,1.18529 -0.34512,1.80086c-0.03572,0.79355 -0.04616,1.04524 -0.04616,3.05823c0,2.01299 0,2.27018 0.04616,3.05822c0.01209,0.61659 0.12859,1.22494 0.34512,1.80251c0.38649,0.99633 1.17463,1.78388 2.17126,2.16961c0.57482,0.22517 1.18385,0.35062 1.80086,0.37094c0.79354,0.03572 1.04524,0.04616 3.05823,0.04616c2.01299,0 2.27128,0 3.05823,-0.04616c0.61588,-0.01204 1.22522,-0.12874 1.80196,-0.34511c0.99633,-0.38658 1.78414,-1.17438 2.17071,-2.17071c0.21707,-0.57702 0.33303,-1.18537 0.34512,-1.80251c0.03572,-0.79299 0.04616,-1.04414 0.04616,-3.05822c-0.00165,-2.01299 -0.00165,-2.26853 -0.04781,-3.05767z" fill="#2d2d2d" fill-opacity="1"></path></g><g><title>Caminho 6392</title><path d="M10.18871,7.59649c0,1.36708 -1.10808,2.4754 -2.47516,2.47571c-1.36729,0 -2.4757,-1.10841 -2.4757,-2.47571c-0.00027,-1.36729 1.10814,-2.47571 2.47543,-2.47571c1.3673,0 2.47571,1.10841 2.47571,2.47571z" fill="#2d2d2d" fill-opacity="1"></path></g></g></svg>