<?xml version="1.0" encoding="UTF-8"?>
<svg id="SVGDoc" width="44" height="44" xmlns="http://www.w3.org/2000/svg" version="1.1" xmlns:xlink="http://www.w3.org/1999/xlink" xmlns:avocode="https://avocode.com/" viewBox="0 0 44 44"><defs><clipPath id="ClipPath1182"><path d="M4.99995,44c-2.76142,0 -5,-2.23858 -5,-5v-34c0,-2.76142 2.23858,-5 5,-5h34c2.76142,0 5,2.23858 5,5v34c0,2.76142 -2.23858,5 -5,5z" fill="#ffffff"></path></clipPath></defs><desc>Generated with Avocode.</desc><g><g><title>Grupo 9007</title><g><title>bxl-instagram-alt</title><g><title>Caminho 6391</title><path d="M27.3426,17.4035c-0.66399,0 -1.19963,-0.53638 -1.19963,-1.19963c0,-0.66213 0.53676,-1.19889 1.19889,-1.19889c0.66213,0 1.19889,0.53676 1.19889,1.19889c0,0.66325 -0.53639,1.19963 -1.19815,1.19963zM21.99285,26.68377c-2.84217,0 -5.14425,-2.30208 -5.14425,-5.14425c0,-2.84217 2.30208,-5.14425 5.14425,-5.14425c2.8413,0 5.14462,2.30332 5.14462,5.14462c0,2.84129 -2.30332,5.14462 -5.14462,5.14462zM31.95565,17.45024c-0.0111,-0.84281 -0.16876,-1.67727 -0.4659,-2.46604c-0.52125,-1.34546 -1.585,-2.40921 -2.93046,-2.93045c-0.77861,-0.29228 -1.60116,-0.45032 -2.43265,-0.46739c-1.07055,-0.04822 -1.40959,-0.06158 -4.12786,-0.06158c-2.71827,0 -3.06622,0 -4.1286,0.06158c-0.83098,0.01724 -1.65303,0.17528 -2.43116,0.46739c-1.34567,0.52093 -2.40953,1.58479 -2.93046,2.93046c-0.29269,0.77792 -0.45026,1.60015 -0.46591,2.43116c-0.04822,1.07129 -0.06232,1.41107 -0.06232,4.12861c0,2.71753 0,3.06474 0.06232,4.1286c0.01632,0.8324 0.1736,1.65367 0.46591,2.43339c0.52176,1.34505 1.58576,2.40824 2.9312,2.92897c0.77601,0.30398 1.59819,0.47334 2.43116,0.50077c1.07128,0.04822 1.41107,0.06232 4.1286,0.06232c2.71753,0 3.06622,0 4.12861,-0.06232c0.83144,-0.01625 1.65405,-0.1738 2.43265,-0.4659c1.34505,-0.52188 2.40858,-1.58541 2.93045,-2.93046c0.29305,-0.77898 0.44958,-1.60025 0.46591,-2.43339c0.04822,-1.07054 0.06232,-1.40958 0.06232,-4.1286c-0.00223,-2.71753 -0.00223,-3.06251 -0.06455,-4.12786z" fill="#ffffff" fill-opacity="1"></path></g><g><title>Caminho 6392</title><path d="M25.33431,21.53878c0,1.84556 -1.4959,3.34179 -3.34146,3.3422c-1.84584,0 -3.3422,-1.49636 -3.3422,-3.3422c-0.00037,-1.84585 1.49598,-3.3422 3.34183,-3.3422c1.84585,0 3.3422,1.49636 3.3422,3.3422z" fill="#ffffff" fill-opacity="1"></path></g></g><g><title>Retângulo 6158</title><path d="M4.99995,44c-2.76142,0 -5,-2.23858 -5,-5v-34c0,-2.76142 2.23858,-5 5,-5h34c2.76142,0 5,2.23858 5,5v34c0,2.76142 -2.23858,5 -5,5z" fill-opacity="0" fill="#ffffff" stroke-dashoffset="0" stroke-linejoin="miter" stroke-linecap="butt" stroke-opacity="1" stroke="#ffffff" stroke-miterlimit="20" stroke-width="2" clip-path="url(&quot;#ClipPath1182&quot;)"></path></g></g></g></svg>