<?xml version="1.0" encoding="UTF-8"?>
<svg id="SVGDoc" width="26" height="27" xmlns="http://www.w3.org/2000/svg" version="1.1" xmlns:xlink="http://www.w3.org/1999/xlink" xmlns:avocode="https://avocode.com/" viewBox="0 0 26 27"><defs></defs><desc>Generated with Avocode.</desc><g><g><title>73c0482f37cd99b2b06cd7d3eba8c43e</title><path d="M22.12493,4.03623c-5.04604,-5.04604 -13.19733,-5.04604 -18.24336,-0.00001c-4.14034,4.14034 -4.91665,10.48023 -2.07017,15.52626l-1.8114,6.59866v0l6.85743,-1.81139c1.94078,1.03508 4.01095,1.55262 6.08112,1.55262c7.11621,0 12.80917,-5.69296 12.80917,-12.80916c0.12939,-3.36402 -1.29386,-6.59866 -3.62279,-9.05699M18.63151,22.1502c-1.68201,1.03508 -3.62279,1.68201 -5.69296,1.68201c-1.94078,0 -3.75218,-0.51754 -5.43419,-1.42324l-0.38816,-0.25877v0l-4.01095,1.03508v0l1.03508,-3.88156v0l-0.25877,-0.38816c-3.10525,-5.17542 -1.55263,-11.6447 3.49341,-14.87933c5.04603,-3.23464 11.51531,-1.55263 14.62056,3.36403c3.10525,5.04603 1.68201,11.6447 -3.36403,14.74995M18.89029,15.81031c-0.25877,-0.12939 -1.94078,-0.9057 -2.19955,-1.03509c-0.25877,-0.12939 -0.51754,-0.12939 -0.77631,0.12938c-0.25877,0.25877 -0.77631,1.03509 -1.03508,1.29386c-0.12938,0.25877 -0.38816,0.25877 -0.64693,0.12938c-0.9057,-0.38816 -1.8114,-0.9057 -2.58771,-1.55263c-0.64693,-0.64693 -1.29385,-1.42324 -1.8114,-2.19955c-0.12939,-0.25877 0,-0.51754 0.12938,-0.64693c0.12939,-0.12938 0.25877,-0.38815 0.51754,-0.51754c0.12939,-0.12939 0.25877,-0.38816 0.25877,-0.51754c0.12939,-0.12939 0.12939,-0.38816 0,-0.51754c-0.12939,-0.12939 -0.77631,-1.68201 -1.03508,-2.32894c-0.12939,-0.9057 -0.38816,-0.9057 -0.64693,-0.9057h-0.64693c-0.25877,0 -0.64693,0.25877 -0.77631,0.38816c-0.77631,0.77631 -1.16447,1.68201 -1.16447,2.7171c0.12938,1.16447 0.51754,2.32894 1.29385,3.36402c1.42324,2.07017 3.23464,3.75218 5.43419,4.78727c0.64693,0.25877 1.16447,0.51754 1.8114,0.64693c0.64693,0.25877 1.29386,0.25877 2.07017,0.12938c0.9057,-0.12938 1.68201,-0.77631 2.19955,-1.55262c0.25877,-0.51754 0.25877,-1.03509 0.12938,-1.55263l-0.51754,-0.25877v0" fill="#f97716" fill-opacity="1"></path></g></g></svg>