<?xml version="1.0" encoding="UTF-8"?>
<svg id="SVGDoc" width="19" height="15" xmlns="http://www.w3.org/2000/svg" version="1.1" xmlns:xlink="http://www.w3.org/1999/xlink" xmlns:avocode="https://avocode.com/" viewBox="0 0 19 15"><defs></defs><desc>Generated with Avocode.</desc><g><g><title>e81be2cb0fc67584f7d3807eaf13856a</title><path d="M16.76303,5.56774c0,-0.34367 -0.2786,-0.62227 -0.62227,-0.62227c-0.34367,0 -0.62227,0.2786 -0.62227,0.62227c0,0.34367 0.2786,0.62227 0.62227,0.62227c0.34367,0 0.62227,-0.2786 0.62227,-0.62227zM13.91836,8.67909c0,-2.45479 -1.99,-4.44479 -4.44479,-4.44479c-2.45479,0 -4.44479,1.99 -4.44479,4.44479c0,2.45479 1.99,4.44479 4.44479,4.44479c2.45479,0 4.44479,-1.99 4.44479,-4.44479zM18.36316,5.12326v8.00063c0,0.97786 -0.80007,1.77792 -1.77792,1.77792h-14.22334c-0.97786,0 -1.77792,-0.80007 -1.77792,-1.77792v-8.00063c0,-0.97786 0.80007,-1.77792 1.77792,-1.77792h2.1335c0.31371,-0.01454 0.58904,-0.21345 0.70139,-0.50671l0.55293,-1.65524c0.09157,-0.27736 0.40803,-0.50493 0.70139,-0.50493h6.04492c0.31374,0.01428 0.58933,0.21277 0.70228,0.50582l0.55204,1.65435c0.11216,0.29341 0.38761,0.4924 0.70139,0.50671h2.1335c0.97785,0 1.77792,0.80007 1.77792,1.77792zM12.14044,8.6791c0,1.47287 -1.194,2.66687 -2.66687,2.66687c-1.47288,0 -2.66688,-1.194 -2.66688,-2.66687c0,-1.47288 1.194,-2.66688 2.66688,-2.66688c1.47287,0 2.66687,1.19401 2.66687,2.66688z" fill="#f97716" fill-opacity="1"></path></g></g></svg>