<?xml version="1.0" encoding="UTF-8"?>
<svg id="SVGDoc" width="164" height="51" xmlns="http://www.w3.org/2000/svg" version="1.1" xmlns:xlink="http://www.w3.org/1999/xlink" xmlns:avocode="https://avocode.com/" viewBox="0 0 164 51"><defs></defs><desc>Generated with Avocode.</desc><g><g><title>Prancheta 11</title><g><title>Caminho 25297</title><path d="M10.38998,11.296c-1.59697,1.27574 -3.10033,2.69466 -4.3412,4.27879c-1.33999,1.7016 -2.42299,3.60512 -3.19578,5.62979c-0.938,2.4542 -1.41158,5.07543 -1.40791,7.70218c0.01652,11.61018 9.40379,21.21771 21.01029,21.49123c12.12782,0.28452 22.04925,-9.46069 22.04925,-21.52426c0,-10.71074 -7.82333,-19.59321 -18.06783,-21.24892c1.18213,-1.54558 1.84294,-3.82539 1.92371,-4.55596c0.03671,-0.32674 -0.21109,-0.62594 -0.57271,-0.62961c-0.18906,0 -0.35977,0.10646 -0.4644,0.26249c-0.30287,0.45707 -1.38772,1.35835 -2.84335,2.44319c0.85539,-1.88333 1.34917,-3.73361 1.43361,-4.48621c0.02202,-0.1909 -0.04405,-0.38915 -0.1909,-0.51213c-0.29186,-0.24413 -0.69386,-0.16887 -0.88292,0.11932c-0.72691,1.10687 -1.98062,1.9696 -3.00305,2.77726c-1.77502,1.4024 -3.61613,2.7222 -5.47009,4.01813c-1.00591,0.70303 -2.01916,1.39873 -3.03608,2.08524c-0.98939,0.66816 -1.98245,1.38221 -2.94064,2.14765z" fill="#f97716" fill-opacity="1"></path></g><g><title>Caminho 25298</title><path d="M4.89605,34.20982c0.31021,0 0.6241,-0.04956 0.92697,-0.15235l-0.33775,-1.00224c-0.46624,0.15786 -0.96737,0.12298 -1.40791,-0.09546c-0.44239,-0.22026 -0.77095,-0.5984 -0.92882,-1.06464c-0.15786,-0.46624 -0.12299,-0.96737 0.09545,-1.40791c0.22027,-0.44239 0.59841,-0.77095 1.06465,-0.92882l-0.33775,-1.00224c-0.73424,0.24597 -1.32898,0.76545 -1.67407,1.4593c-0.34326,0.69387 -0.39832,1.48134 -0.15052,2.21558c0.24597,0.73424 0.76544,1.32897 1.4593,1.67407c0.4075,0.20191 0.84621,0.3047 1.28859,0.3047zM2.46385,25.79908c2.75892,-1.485 6.69812,0.50846 8.11887,3.14806c1.44829,2.68916 0.43688,6.05565 -2.25228,7.50211c-0.81868,0.44054 -1.71446,0.66449 -2.61757,0.66449c-0.536,0 -1.07383,-0.07893 -1.60065,-0.2368c-1.41708,-0.42586 -2.58269,-1.3767 -3.28389,-2.67998c-1.45013,-2.69649 -1.0518,-6.95141 1.63552,-8.39787zM18.66303,23.04385c0,1.89801 1.53823,3.43624 3.43624,3.43624c1.89801,0 3.43625,-1.53823 3.43625,-3.43624c0,-1.76952 -1.33815,-3.22516 -3.05627,-3.41422c-0.01102,1.887 -1.54373,3.41422 -3.43441,3.41422c-0.1285,0 -0.25515,-0.00917 -0.37997,-0.02203c0,0.00734 0,0.02203 0,0.02203zM32.40801,23.02182c0,0.00734 0,0.01468 0,0.02203c0,1.89801 1.53823,3.43624 3.43624,3.43624c1.89801,0 3.43625,-1.53823 3.43625,-3.43624c0,-1.76952 -1.33816,-3.22516 -3.05628,-3.41422c-0.01101,1.887 -1.54373,3.41422 -3.4344,3.41422c-0.12849,0 -0.25515,-0.00917 -0.37997,-0.02203zM20.93551,29.95673c-4.04016,0 -7.31303,-3.27287 -7.31303,-7.31303c0,-4.04016 3.2747,-7.31303 7.31303,-7.31303c2.62858,0 4.92675,1.39322 6.21535,3.47479c1.28859,-2.0834 3.58676,-3.47479 6.21535,-3.47479c4.04015,0 7.31303,3.27471 7.31303,7.31303c0,4.03832 -3.27472,7.31303 -7.31304,7.31303zM35.98744,38.15819c0,-1.60063 -1.30143,-2.90208 -2.90208,-2.90208c-1.60064,0 -2.90208,1.30145 -2.90208,2.90208h1.0573c0,-1.01692 0.82786,-1.84477 1.84478,-1.84477c1.01692,0 1.84478,0.82785 1.84478,1.84477zM27.92733,46.71576c0.77829,-0.536 1.29961,-1.34183 1.47031,-2.27063l-1.04078,-0.19092c-0.11932,0.64981 -0.4846,1.21518 -1.02978,1.59148c-0.54517,0.37446 -1.20416,0.51579 -1.85396,0.39648c-1.34366,-0.24597 -2.23575,-1.54006 -1.98979,-2.88373l-1.04079,-0.1909c-0.17071,0.92882 0.03121,1.8668 0.5672,2.64511c0.536,0.77829 1.34183,1.29961 2.27065,1.47031c0.2166,0.03856 0.43136,0.05875 0.64613,0.05875c0.70854,0 1.40239,-0.21477 1.99896,-0.62595zM20.16271,38.15819c0,-1.01692 0.82786,-1.84477 1.84479,-1.84477c1.01692,0 1.84477,0.82785 1.84477,1.84477h1.05731c0,-1.60064 -1.30143,-2.90208 -2.90208,-2.90208c-1.60064,0 -2.90208,1.30143 -2.90208,2.90208zM32.91463,32.96344c3.32061,0 6.0116,2.69098 6.0116,6.0116h-2.5056v3.00671c0,4.97998 -4.03831,9.01831 -9.01831,9.01831c-4.97998,0 -9.0183,-4.03833 -9.0183,-9.01831v-3.00671h-2.50559c0,-3.32062 2.69099,-6.0116 6.01159,-6.0116c2.46705,0 4.5835,1.48683 5.51048,3.61246c0.92698,-2.12563 3.04342,-3.61246 5.51048,-3.61246z" fill="#2d2d2d" fill-opacity="1"></path></g><g><title>Grupo 8956</title><g><title>Caminho 25299</title><path d="M68.70702,43.7329v0v1.59332v0h2.31653v0v0.89392v0h-2.31653v0v2.30737v0h-0.9343v0v-5.68854v0h3.3316v0v0.89392v0z" fill="#ffffff" fill-opacity="1"></path></g><g><title>Caminho 25300</title><path d="M76.43676,47.72351c-1.13806,0 -2.01547,-0.87009 -2.01547,-2.03934c0,-1.16928 0.87741,-2.03937 2.01547,-2.03937c1.13809,0 2.0155,0.86823 2.0155,2.03937c0,1.16925 -0.87741,2.03934 -2.0155,2.03934zM76.43678,48.63397c1.65021,0 2.9498,-1.29959 2.9498,-2.9498c0,-1.65024 -1.30878,-2.94983 -2.9498,-2.94983c-1.64105,0 -2.94983,1.29962 -2.94983,2.94983c0,1.65021 1.29962,2.9498 2.94983,2.9498z" fill="#ffffff" fill-opacity="1"></path></g><g><title>Caminho 25301</title><path d="M85.39998,43.7329v0h-1.60065v0v4.79462v0h-0.93433v0v-4.79462v0h-1.6098v0v-0.89392v0h4.14478v0z" fill="#ffffff" fill-opacity="1"></path></g><g><title>Caminho 25302</title><path d="M90.21846,47.72351c-1.13812,0 -2.0155,-0.87009 -2.0155,-2.03934c0,-1.16928 0.87738,-2.03937 2.0155,-2.03937c1.13806,0 2.01544,0.86823 2.01544,2.03937c0,1.16925 -0.87738,2.03934 -2.01544,2.03934zM90.21846,48.63397c1.65021,0 2.94977,-1.29959 2.94977,-2.9498c0,-1.65024 -1.30878,-2.94983 -2.94977,-2.94983c-1.64105,0 -2.94983,1.29962 -2.94983,2.94983c0,1.65021 1.29962,2.9498 2.94983,2.9498z" fill="#ffffff" fill-opacity="1"></path></g><g><title>Caminho 25303</title><path d="M95.29939,47.23525v0l0.80402,-0.47177c0.20374,0.57639 0.64246,0.95819 1.41339,0.95819c0.771,0 1.05731,-0.33408 1.05731,-0.74707c0,-0.50482 -0.44604,-0.67551 -1.29224,-0.93433c-0.8866,-0.26801 -1.7475,-0.5929 -1.7475,-1.66492c0,-1.07196 0.87006,-1.64102 1.82825,-1.64102c0.95819,0 1.62451,0.49564 1.98248,1.25189l-0.78748,0.45523c-0.20374,-0.45523 -0.55988,-0.79666 -1.19501,-0.79666c-0.54517,0 -0.89392,0.27719 -0.89392,0.70673c0,0.42953 0.31757,0.62595 1.14539,0.8866c0.94354,0.30103 1.89435,0.5929 1.89435,1.72363c0,1.04077 -0.82971,1.67404 -2.0155,1.67404c-1.12152,0 -1.89429,-0.55249 -2.19348,-1.39688z" fill="#ffffff" fill-opacity="1"></path></g><g><title>Caminho 25304</title><path d="M109.3821,47.63357v0v0.89395v0h-3.45459v0v-5.68854v0h3.41235v0v0.89392v0h-2.47803v0v1.47952v0h2.27612v0v0.88657v0h-2.27612v0v1.53641v0h2.51843v0z" fill="#ffffff" fill-opacity="1"></path></g><g><title>Caminho 25305</title><path d="M115.31477,42.83898v0h1.02423v0l1.51074,4.55963v0l1.5199,-4.55963v0h1.01508v0l-1.9751,5.68854v0h-1.12158v0l-1.9751,-5.68854v0z" fill="#ffffff" fill-opacity="1"></path></g><g><title>Caminho 25306</title><path d="M123.71816,42.84081v5.68852h-0.93433v-5.68852zM122.68654,42.31216l0.64978,-1.09769h1.05737l-0.86096,1.09769z" fill="#ffffff" fill-opacity="1"></path></g><g><title>Caminho 25307</title><path d="M130.69899,45.68417c0,-0.0003 0,-0.00061 0,-0.00091c0,-0.0003 0,-0.0006 0,-0.00091zM130.69899,45.68326c-0.0004,1.12109 -0.74003,1.95032 -1.82092,1.95032h-1.29962v-3.90067h1.29962c1.08082,0 1.82052,0.82191 1.82092,1.95035zM131.60023,45.68416c0,-1.59329 -1.1546,-2.84518 -2.72217,-2.84518h-2.23578v5.68854h2.23578c1.56757,0 2.72217,-1.25921 2.72217,-2.84335z" fill="#ffffff" fill-opacity="1"></path></g><g><title>Caminho 25308</title><path d="M137.69624,47.63357v0v0.89395v0h-3.45459v0v-5.68854v0h3.41418v0v0.89392v0h-2.47803v0v1.47952v0h2.27612v0v0.88657v0h-2.27612v0v1.53641v0h2.51843v0z" fill="#ffffff" fill-opacity="1"></path></g><g><title>Caminho 25309</title><path d="M142.95528,47.72351c-1.13806,0 -2.0155,-0.87009 -2.0155,-2.03934c0,-1.16928 0.87744,-2.03937 2.0155,-2.03937c1.13806,0 2.0155,0.86823 2.0155,2.03937c0,1.16925 -0.87744,2.03934 -2.0155,2.03934zM142.95528,48.63397c1.65021,0 2.94983,-1.29959 2.94983,-2.9498c0,-1.65024 -1.30884,-2.94983 -2.94983,-2.94983c-1.64105,0 -2.94983,1.29962 -2.94983,2.94983c0,1.65021 1.29962,2.9498 2.94983,2.9498z" fill="#ffffff" fill-opacity="1"></path></g><g><title>Caminho 25310</title><path d="M148.03438,47.23525v0l0.80402,-0.47177c0.20374,0.57639 0.64246,0.95819 1.41339,0.95819c0.77094,0 1.05731,-0.33408 1.05731,-0.74707c0,-0.50482 -0.44604,-0.67551 -1.29224,-0.93433c-0.88666,-0.26801 -1.74756,-0.5929 -1.74756,-1.66492c0,-1.07196 0.87012,-1.64102 1.82831,-1.64102c0.95819,0 1.62445,0.49564 1.98242,1.25189l-0.78748,0.45523c-0.20374,-0.45523 -0.55988,-0.79666 -1.19495,-0.79666c-0.54517,0 -0.89398,0.27719 -0.89398,0.70673c0,0.42953 0.31757,0.62595 1.14545,0.8866c0.94165,0.30103 1.89252,0.5929 1.89252,1.72363c0,1.04077 -0.82971,1.67404 -2.0155,1.67404c-1.12158,0 -1.89252,-0.55249 -2.19354,-1.39688z" fill="#ffffff" fill-opacity="1"></path></g></g><g><title>Grupo 8957</title><g><title>Caminho 25311</title><path d="M153.97252,13.05635h1.50702c0.20929,0 0.35608,-0.07343 0.43872,-0.22028l3.1701,-4.0475c0.08258,-0.0826 0.09357,-0.15603 0.03119,-0.22027c-0.0202,-0.0826 -0.10461,-0.12482 -0.25146,-0.12482h-3.23254c-0.18903,0 -0.32489,0.12482 -0.40747,0.3763l-1.53821,3.86027c-0.10461,0.25148 -0.01105,0.3763 0.28265,0.3763z" fill="#f97716" fill-opacity="1"></path></g><g><title>Caminho 25312</title><path d="M64.59712,15.21501v0h-9.44785v0v21.44899v0h3.8107v0v-18.07883v0h4.81845c1.25922,0 2.25778,0.3249 2.99203,0.97654c0.8609,0.73608 1.29044,1.7328 1.29044,2.99203c0,1.25922 -0.43137,2.25779 -1.29044,2.99203c-0.73608,0.65163 -1.73282,0.97654 -2.99203,0.97654c-1.14542,0 -2.07422,0.92881 -2.07422,2.07423v1.29594v0h2.89291c2.05771,0 3.79968,-0.69202 5.22778,-2.0779c1.4281,-1.38588 2.14215,-3.13888 2.14215,-5.259c0,-2.12012 -0.71405,-3.87312 -2.14215,-5.259c-1.4281,-1.38588 -3.17007,-2.0779 -5.22778,-2.0779z" fill="#f97716" fill-opacity="1"></path></g><g><title>Caminho 25313</title><path d="M85.64598,14.93233c-2.70935,0 -4.82947,0.97654 -6.36221,2.92962c-1.36566,1.74382 -2.04669,3.82172 -2.04669,6.23553v12.56653v0h3.81073v0v-12.50412c0,-1.72179 0.42035,-3.08748 1.25922,-4.09522c0.83887,-1.00774 1.95306,-1.51254 3.33896,-1.51254c1.38586,0 2.49274,0.49377 3.32242,1.47949c0.82971,0.98756 1.24457,2.36243 1.24457,4.12643v2.23576v0h-6.25208c0,1.87782 1.52356,3.40137 3.40137,3.40137h2.85071v0v6.86699v0h3.8107v0v-12.56653c0,-2.43584 -0.67181,-4.51374 -2.01547,-6.23553c-1.55475,-1.95308 -3.67487,-2.92962 -6.36218,-2.92962z" fill="#f97716" fill-opacity="1"></path></g><g><title>Caminho 25314</title><path d="M119.03923,15.27008v0h-2.79376c-0.25153,0 -0.37634,0.12482 -0.37634,0.3763v14.59303v0l-11.2981,-14.7821c-0.12482,-0.12482 -0.25146,-0.18906 -0.37634,-0.18906h-2.79376c-0.25146,0 -0.37628,0.12482 -0.37628,0.3763v20.61932c0,0.25146 0.12482,0.3763 0.37628,0.3763h2.79376c0.25153,0 0.37634,-0.12483 0.37634,-0.3763v-14.62424v0l11.39172,14.8757c0.06244,0.08444 0.15784,0.12482 0.28271,0.12482h2.79376c0.27167,0 0.40747,-0.12482 0.40747,-0.37628v-20.61932c0,-0.25148 -0.1358,-0.3763 -0.40747,-0.3763z" fill="#f97716" fill-opacity="1"></path></g><g><title>Caminho 25315</title><path d="M141.82634,33.26632h-10.7016v0l10.60797,-17.44923c0.06244,-0.0826 0.06244,-0.18906 0,-0.31389c-0.06244,-0.14685 -0.15601,-0.22027 -0.28265,-0.22027h-15.81738c-0.25146,0 -0.37634,0.12482 -0.37634,0.3763v2.63593c0,0.25147 0.12488,0.3763 0.37634,0.3763h9.8847v0l-10.51251,17.38682c-0.08441,0.14685 -0.08441,0.28268 0,0.4075c0.06244,0.12482 0.16705,0.18907 0.3139,0.18907h16.50757c0.25146,0 0.37628,-0.12483 0.37628,-0.3763v-2.63593c0,-0.25148 -0.12482,-0.3763 -0.37628,-0.3763z" fill="#f97716" fill-opacity="1"></path></g><g><title>Caminho 25316</title><path d="M163.35619,18.67328c0.25146,0 0.37628,-0.12482 0.37628,-0.3763v-2.63593c0,-0.25147 -0.12482,-0.3763 -0.37628,-0.3763h-15.18964c-0.25146,0 -0.37628,0.12482 -0.37628,0.3763v20.61931c0,0.25148 0.12482,0.37631 0.37628,0.37631h15.18964c0.25146,0 0.37628,-0.12483 0.37628,-0.37631v-2.63592c0,-0.25148 -0.12482,-0.3763 -0.37628,-0.3763h-11.76807v0v-5.64815v0h7.36261c1.7218,0 3.11871,-1.39689 3.11871,-3.11868v-0.26984v0h-10.48132v0v-5.55453v0h11.76807v0z" fill="#f97716" fill-opacity="1"></path></g></g></g></g></svg>