<?xml version="1.0" encoding="UTF-8"?>
<svg id="SVGDoc" width="241" height="75" xmlns="http://www.w3.org/2000/svg" version="1.1" xmlns:xlink="http://www.w3.org/1999/xlink" xmlns:avocode="https://avocode.com/" viewBox="0 0 241 75"><defs></defs><desc>Generated with Avocode.</desc><g><g><title>Prancheta 11</title><g><title>Caminho 25297</title><path d="M15.25903,16.69665c-2.34539,1.87362 -4.55331,3.95752 -6.37572,6.28405c-1.96797,2.49907 -3.55853,5.29467 -4.69348,8.26821c-1.37759,3.60436 -2.07313,7.45404 -2.06773,11.31182c0.02426,17.05132 13.81089,31.16145 30.85681,31.56314c17.81154,0.41785 32.38267,-13.89447 32.38267,-31.61166c0,-15.73035 -11.48974,-28.77562 -26.53535,-31.20728c1.73615,-2.26992 2.70665,-5.61817 2.82526,-6.69112c0.05392,-0.47986 -0.31001,-0.91929 -0.84111,-0.92468c-0.27766,0 -0.52837,0.15636 -0.68204,0.38551c-0.44481,0.67127 -2.03807,1.99494 -4.1759,3.58819c1.25629,-2.76595 1.98146,-5.48338 2.10548,-6.58868c0.03233,-0.28037 -0.0647,-0.57153 -0.28038,-0.75215c-0.42863,-0.35855 -1.01904,-0.24802 -1.29669,0.17523c-1.06758,1.6256 -2.90884,2.89266 -4.41045,4.07883c-2.60689,2.05964 -5.31084,3.99796 -8.03366,5.90124c-1.47733,1.03251 -2.96544,2.05424 -4.45895,3.0625c-1.45306,0.98129 -2.91153,2.02998 -4.31877,3.15415z" fill="#0a110c" fill-opacity="1"></path></g><g><title>Caminho 25298</title><path d="M7.19032,50.34907c0.4556,0 0.91658,-0.07278 1.36139,-0.22374l-0.49602,-1.47194c-0.68475,0.23184 -1.42073,0.18062 -2.06773,-0.1402c-0.64971,-0.3235 -1.13225,-0.87885 -1.36411,-1.5636c-0.23184,-0.68474 -0.18062,-1.42072 0.14018,-2.06772c0.3235,-0.64971 0.87886,-1.13227 1.5636,-1.36411l-0.49603,-1.47194c-1.07834,0.36123 -1.9518,1.12417 -2.45862,2.1432c-0.50414,1.01905 -0.58501,2.17557 -0.22107,3.25391c0.36125,1.07834 1.12418,1.95179 2.14322,2.45863c0.59847,0.29653 1.24279,0.44749 1.89249,0.44749zM3.61829,37.99664c4.05188,-2.18095 9.83721,0.74675 11.9238,4.6234c2.12703,3.94943 0.64162,8.89365 -3.30783,11.01799c-1.20235,0.64699 -2.51793,0.97589 -3.8443,0.97589c-0.78718,0 -1.57707,-0.11592 -2.35078,-0.34778c-2.08121,-0.62542 -3.79307,-2.02188 -4.82289,-3.93594c-2.12973,-3.96022 -1.54472,-10.20922 2.40201,-12.33356zM27.40928,33.95016c0,2.78751 2.25912,5.04665 5.04663,5.04665c2.78752,0 5.04666,-2.25914 5.04666,-5.04665c0,-2.59881 -1.96529,-4.73663 -4.48862,-5.01431c-0.01618,2.77134 -2.2672,5.01431 -5.04395,5.01431c-0.18871,0 -0.37473,-0.01348 -0.55803,-0.03236c0,0.01078 0,0.03236 0,0.03236zM47.59587,33.91779c0,0.01078 0,0.02157 0,0.03236c0,2.78751 2.25913,5.04665 5.04665,5.04665c2.78751,0 5.04665,-2.25914 5.04665,-5.04665c0,-2.59881 -1.96529,-4.73663 -4.48862,-5.01431c-0.01616,2.77134 -2.2672,5.01431 -5.04395,5.01431c-0.1887,0 -0.37472,-0.01348 -0.55804,-0.03236zM30.74676,44.10276c-5.9336,0 -10.7403,-4.80672 -10.7403,-10.74031c0,-5.9336 4.80941,-10.7403 10.7403,-10.7403c3.86047,0 7.23569,2.04616 9.12819,5.10326c1.89248,-3.0598 5.2677,-5.10326 9.12817,-5.10326c5.93358,0 10.74031,4.80941 10.74031,10.7403c0,5.93089 -4.80944,10.74031 -10.74033,10.74031zM52.8528,56.14785c0,-2.35077 -1.91136,-4.26215 -4.26216,-4.26215c-2.35079,0 -4.26215,1.91138 -4.26215,4.26215h1.55281c0,-1.4935 1.21584,-2.70932 2.70934,-2.70932c1.49351,0 2.70935,1.21582 2.70935,2.70932zM41.01527,68.71595c1.14304,-0.78718 1.90868,-1.97067 2.15938,-3.33476l-1.52855,-0.2804c-0.17523,0.95435 -0.7117,1.78469 -1.51237,2.33733c-0.80066,0.54996 -1.76849,0.75752 -2.72282,0.58229c-1.97338,-0.36123 -3.28356,-2.26179 -2.92232,-4.23518l-1.52855,-0.28038c-0.25072,1.36412 0.04583,2.7417 0.83302,3.88475c0.78719,1.14304 1.97067,1.90868 3.33478,2.15938c0.31811,0.05662 0.63353,0.08627 0.94894,0.08627c1.0406,0 2.05965,-0.31542 2.93579,-0.9193zM32.32114,53.43853c1.4935,0 2.70932,1.21582 2.70932,2.70932h1.55283c0,-2.35079 -1.91137,-4.26215 -4.26215,-4.26215c-2.3508,0 -4.26216,1.91137 -4.26216,4.26215h1.55281c0,-1.4935 1.21583,-2.70932 2.70935,-2.70932zM48.33993,48.51858c4.87682,0 8.82895,3.95212 8.82895,8.82895h-3.67986v4.41582c0,7.31386 -5.93088,13.24475 -13.24477,13.24475c-7.31386,0 -13.24475,-5.93089 -13.24475,-13.24475v-4.41582h-3.67984c0,-4.87683 3.95211,-8.82895 8.82893,-8.82895c3.62323,0 6.73155,2.18364 8.09297,5.30544c1.3614,-3.1218 4.46972,-5.30544 8.09297,-5.30544z" fill="#c3aa71" fill-opacity="1"></path></g><g><title>Grupo 8956</title><g><title>Caminho 25299</title><path d="M100.90651,64.33514v0v2.34006v0h3.40216v0v1.31287v0h-3.40216v0v3.3887v0h-1.37219v0v-8.35446v0h4.89301v0v1.31284v0z" fill="#ffffff" fill-opacity="1"></path></g><g><title>Caminho 25300</title><path d="M112.25881,70.19599c-1.67145,0 -2.96002,-1.27787 -2.96002,-2.99509c0,-1.71726 1.28857,-2.99512 2.96002,-2.99512c1.67145,0 2.96002,1.27512 2.96002,2.99512c0,1.71723 -1.28857,2.99509 -2.96002,2.99509zM112.25881,71.53314c2.42359,0 4.33228,-1.90866 4.33228,-4.33224c0,-2.42362 -1.92218,-4.33228 -4.33228,-4.33228c-2.4101,0 -4.33228,1.9087 -4.33228,4.33228c0,2.42358 1.9087,4.33224 4.33228,4.33224z" fill="#ffffff" fill-opacity="1"></path></g><g><title>Caminho 25301</title><path d="M125.42262,64.33514v0h-2.35077v0v7.04163v0h-1.37219v0v-7.04163v0h-2.36426v0v-1.31284v0h6.08722v0z" fill="#ffffff" fill-opacity="1"></path></g><g><title>Caminho 25302</title><path d="M132.49931,70.19599c-1.67151,0 -2.96008,-1.27787 -2.96008,-2.99509c0,-1.71726 1.28857,-2.99512 2.96008,-2.99512c1.67139,0 2.95996,1.27512 2.95996,2.99512c0,1.71723 -1.28857,2.99509 -2.95996,2.99509zM132.49932,71.53314c2.42358,0 4.33215,-1.90866 4.33215,-4.33224c0,-2.42362 -1.92212,-4.33228 -4.33215,-4.33228c-2.41016,0 -4.33228,1.9087 -4.33228,4.33228c0,2.42358 1.9087,4.33224 4.33228,4.33224z" fill="#ffffff" fill-opacity="1"></path></g><g><title>Caminho 25303</title><path d="M139.96144,69.47888v0l1.18079,-0.69284c0.29926,0.8465 0.94354,1.40723 2.07581,1.40723c1.13232,0 1.5528,-0.49063 1.5528,-1.09717c0,-0.74142 -0.65509,-0.9921 -1.89783,-1.37222c-1.30212,-0.39359 -2.56647,-0.87076 -2.56647,-2.44516c0,-1.57434 1.27783,-2.4101 2.68506,-2.4101c1.40723,0 2.38586,0.72791 2.91156,1.83859l-1.15649,0.66858c-0.29926,-0.66858 -0.82227,-1.17001 -1.75507,-1.17001c-0.80066,0 -1.31287,0.40707 -1.31287,1.03793c0,0.63083 0.46637,0.91928 1.68219,1.30209c1.38574,0.44211 2.7821,0.87076 2.7821,2.5314c0,1.52853 -1.21857,2.45859 -2.96008,2.45859c-1.64709,0 -2.78204,-0.8114 -3.22144,-2.05151z" fill="#ffffff" fill-opacity="1"></path></g><g><title>Caminho 25304</title><path d="M160.644,70.06387v0v1.3129v0h-5.07355v0v-8.35446v0h5.01154v0v1.31284v0h-3.63934v0v2.17291v0h3.34283v0v1.30206v0h-3.34283v0v2.25644v0h3.69867v0z" fill="#ffffff" fill-opacity="1"></path></g><g><title>Caminho 25305</title><path d="M169.35707,63.02231v0h1.50421v0l2.21875,6.6965v0l2.23218,-6.6965v0h1.49084v0l-2.90076,8.35446v0h-1.64722v0l-2.9007,-8.35446v0z" fill="#ffffff" fill-opacity="1"></path></g><g><title>Caminho 25306</title><path d="M181.69874,63.02502v8.35446h-1.37219v-8.35446zM180.18361,62.2486l0.95435,-1.61212h1.55286l-1.2644,1.61212z" fill="#ffffff" fill-opacity="1"></path></g><g><title>Caminho 25307</title><path d="M191.95113,67.2009c0,-0.00045 0,-0.0009 0,-0.00134c0,-0.00045 0,-0.00089 0,-0.00134zM191.95113,67.19956c-0.00059,1.64647 -1.08686,2.86432 -2.67432,2.86432h-1.90869v-5.72873h1.90869c1.58734,0 2.67373,1.20711 2.67432,2.86441zM191.95113,67.19822c0,0 0,0 0,0zM189.27681,63.02231h-3.28357v8.35446h3.28357c2.30212,0 3.99792,-1.84933 3.99792,-4.17587c0,-2.34 -1.6958,-4.17859 -3.99792,-4.17859z" fill="#ffffff" fill-opacity="1"></path></g><g><title>Caminho 25308</title><path d="M202.22768,70.06387v0v1.3129v0h-5.07361v0v-8.35446v0h5.01428v0v1.31284v0h-3.6394v0v2.17291v0h3.34277v0v1.30206v0h-3.34277v0v2.25644v0h3.69873v0z" fill="#ffffff" fill-opacity="1"></path></g><g><title>Caminho 25309</title><path d="M209.95137,70.19599c-1.67151,0 -2.96008,-1.27787 -2.96008,-2.99509c0,-1.71726 1.28857,-2.99512 2.96008,-2.99512c1.67138,0 2.96008,1.27512 2.96008,2.99512c0,1.71723 -1.28869,2.99509 -2.96008,2.99509zM209.95137,71.53314c2.42359,0 4.33228,-1.90866 4.33228,-4.33224c0,-2.42362 -1.92225,-4.33228 -4.33228,-4.33228c-2.41016,0 -4.33228,1.9087 -4.33228,4.33228c0,2.42358 1.9087,4.33224 4.33228,4.33224z" fill="#ffffff" fill-opacity="1"></path></g><g><title>Caminho 25310</title><path d="M217.41078,69.47888v0l1.18079,-0.69284c0.29919,0.8465 0.94348,1.40723 2.07581,1.40723c1.1322,0 1.55273,-0.49063 1.55273,-1.09717c0,-0.74142 -0.65503,-0.9921 -1.89783,-1.37222c-1.30212,-0.39359 -2.56653,-0.87076 -2.56653,-2.44516c0,-1.57434 1.27795,-2.4101 2.68518,-2.4101c1.40723,0 2.38574,0.72791 2.9115,1.83859l-1.15662,0.66858c-0.29919,-0.66858 -0.82227,-1.17001 -1.75488,-1.17001c-0.80066,0 -1.31299,0.40707 -1.31299,1.03793c0,0.63083 0.46643,0.91928 1.68225,1.30209c1.38293,0.44211 2.77942,0.87076 2.77942,2.5314c0,1.52853 -1.21851,2.45859 -2.95996,2.45859c-1.64722,0 -2.77954,-0.8114 -3.22156,-2.05151z" fill="#ffffff" fill-opacity="1"></path></g></g><g><title>Grupo 8957</title><g><title>Caminho 25311</title><path d="M226.1319,19.28198v0h2.21326c0.30737,0 0.52295,-0.10783 0.64429,-0.32352l4.65576,-5.94437c0.12134,-0.12131 0.13745,-0.22916 0.0459,-0.3235c-0.02966,-0.12131 -0.15369,-0.18332 -0.36938,-0.18332h-4.74744c-0.27759,0 -0.47717,0.18332 -0.59851,0.55266l-2.25903,5.66939c-0.15369,0.36934 -0.01624,0.55266 0.41516,0.55266z" fill="#0a110c" fill-opacity="1"></path></g><g><title>Caminho 25312</title><path d="M94.87048,22.4523v0h-13.87561v0v31.5011v0h5.59656v0v-26.55151v0h7.07666c1.84937,0 3.31592,0.47717 4.39429,1.4342c1.26434,1.08104 1.89514,2.54489 1.89514,4.39424c0,1.84937 -0.63348,3.31592 -1.89514,4.39426c-1.08105,0.95703 -2.54492,1.4342 -4.39429,1.4342c-1.68219,0 -3.04633,1.36411 -3.04633,3.04631v1.90329v0h4.24872c3.02203,0 5.58038,-1.01634 7.6778,-3.05173c2.09735,-2.03537 3.14606,-4.60991 3.14606,-7.72363c0,-3.11371 -1.04871,-5.68825 -3.14606,-7.72363c-2.09741,-2.03537 -4.65576,-3.05171 -7.6778,-3.05171z" fill="#0a110c" fill-opacity="1"></path></g><g><title>Caminho 25313</title><path d="M125.78391,22.03715c-3.97906,0 -7.09277,1.43419 -9.34387,4.30258c-2.00568,2.56107 -3.00586,5.61278 -3.00586,9.15784v18.45585v0h5.59662v0v-18.36419c0,-2.5287 0.61737,-4.53444 1.84937,-6.01447c1.23199,-1.48001 2.86835,-2.22137 4.90375,-2.22137c2.0354,0 3.66101,0.72517 4.87952,2.17285c1.21857,1.45038 1.82782,3.46959 1.82782,6.0603v3.28355v0h-9.18213c0,2.75787 2.23761,4.99543 4.99542,4.99543h4.18671v0v10.08521v0h5.59662v0v-18.45585c0,-3.57739 -0.98669,-6.62912 -2.96002,-9.15784c-2.28339,-2.86839 -5.39716,-4.30258 -9.34387,-4.30258z" fill="#0a110c" fill-opacity="1"></path></g><g><title>Caminho 25314</title><path d="M174.82697,22.5332v0h-4.10315c-0.36938,0 -0.55261,0.1833 -0.55261,0.55264v21.43208v0l-16.59302,-21.70976c-0.18335,-0.18332 -0.36926,-0.27766 -0.55273,-0.27766h-4.10303c-0.36938,0 -0.55261,0.1833 -0.55261,0.55264v30.28261c0,0.36931 0.18323,0.55264 0.55261,0.55264h4.10303c0.36938,0 0.55273,-0.18333 0.55273,-0.55264v-21.47792v0l16.73047,21.84723c0.09167,0.12402 0.23181,0.18332 0.41516,0.18332h4.10315c0.39893,0 0.59839,-0.18332 0.59839,-0.55263v-30.28261c0,-0.36934 -0.19946,-0.55266 -0.59839,-0.55266z" fill="#0a110c" fill-opacity="1"></path></g><g><title>Caminho 25315</title><path d="M208.29333,48.96341v0h-15.71692v0l15.57947,-25.62685c0.09167,-0.12131 0.09167,-0.27768 0,-0.461c-0.09167,-0.21567 -0.22913,-0.3235 -0.41516,-0.3235h-23.23022c-0.36926,0 -0.55273,0.18332 -0.55273,0.55266v3.87125c0,0.36932 0.18347,0.55266 0.55273,0.55266h14.51721v0l-15.43921,25.53519c-0.12402,0.21567 -0.12402,0.41516 0,0.59848c0.09167,0.1833 0.24536,0.27768 0.46094,0.27768h24.2439c0.36938,0 0.55261,-0.18333 0.55261,-0.55266v-3.87125c0,-0.36934 -0.18323,-0.55266 -0.55261,-0.55266z" fill="#0a110c" fill-opacity="1"></path></g><g><title>Caminho 25316</title><path d="M239.91327,27.53131c0.36926,0 0.55261,-0.18332 0.55261,-0.55264v-3.87126c0,-0.36932 -0.18335,-0.55266 -0.55261,-0.55266h-22.30835c-0.36926,0 -0.55261,0.18333 -0.55261,0.55266v30.28259c0,0.36934 0.18335,0.55267 0.55261,0.55267h22.30835c0.36926,0 0.55261,-0.18333 0.55261,-0.55267v-3.87125c0,-0.36934 -0.18335,-0.55266 -0.55261,-0.55266h-17.2832v0v-8.29517v0h10.81311c2.52869,0 4.58032,-2.05154 4.58032,-4.58026v-0.3963v0h-15.39343v0v-8.15767v0h17.2832v0z" fill="#0a110c" fill-opacity="1"></path></g></g></g></g></svg>