<?xml version="1.0" encoding="UTF-8"?>
<svg id="SVGDoc" width="61" height="70" xmlns="http://www.w3.org/2000/svg" version="1.1" xmlns:xlink="http://www.w3.org/1999/xlink" xmlns:avocode="https://avocode.com/" viewBox="0 0 61 70"><defs></defs><desc>Generated with Avocode.</desc><g><g clip-path="url(#clip-7f7a2286-101d-4eb1-a34f-c23c9ceb59c5)"><title>Caminho 25377</title><path d="M14.07494,15.92223c-2.16278,1.72773 -4.19802,3.64863 -5.87828,5.79574c-1.81573,2.30497 -3.2817,4.88315 -4.32829,7.62415c-1.26982,3.32397 -1.91269,6.87489 -1.90747,10.43229c0.02262,15.72437 12.73402,28.73583 28.45442,29.10575c16.42416,0.38631 29.85997,-12.81234 29.85997,-29.149c0,-14.50675 -10.59562,-26.53402 -24.46944,-28.77709c1.59996,-2.09292 2.49664,-5.18146 2.60428,-6.16987c0.04897,-0.442 -0.28564,-0.84796 -0.77512,-0.85169c-0.25457,-0.00199 -0.488,0.14294 -0.62895,0.35524c-0.41143,0.61925 -1.87863,1.8401 -3.84949,3.3083c1.1577,-2.55058 1.82792,-5.05518 1.94227,-6.07541c0.02934,-0.25779 -0.05867,-0.52603 -0.25729,-0.69308c-0.39403,-0.33187 -0.94019,-0.2292 -1.19575,0.16084c-0.98493,1.50002 -2.68358,2.66643 -4.068,3.76c-2.40392,1.89902 -4.89782,3.68567 -7.40837,5.44075c-1.3628,0.95286 -2.73454,1.89355 -4.11275,2.82404c-1.34043,0.90489 -2.68408,1.87217 -3.98174,2.90906" fill="#0a110c" fill-opacity="1"></path></g><g clip-path="url(#clip-7f7a2286-101d-4eb1-a34f-c23c9ceb59c5)"><title>Caminho 25378</title><path d="M3.33713,35.5637c3.73738,-2.00963 9.07198,0.68836 10.99635,4.26365c1.95967,3.64267 0.59091,8.20039 -3.05125,10.16007c-1.10798,0.59638 -2.32063,0.89942 -3.54471,0.89942c-0.72465,0 -1.45353,-0.10615 -2.16725,-0.32044c-1.91891,-0.57648 -3.49873,-1.86521 -4.44811,-3.62998c-1.9644,-3.65063 -1.4247,-9.41379 2.21498,-11.37247v-0.00025zM25.2791,31.83229c0,2.57022 2.08347,4.65369 4.65344,4.65369c2.57023,0 4.6537,-2.08346 4.6537,-4.65369c0,-2.39546 -1.81101,-4.36656 -4.13811,-4.62337c-0.0164,2.55606 -2.09217,4.62337 -4.65195,4.62337c-0.17451,0 -0.34604,-0.01144 -0.51558,-0.02984c0,0.00995 -0.00149,0.01964 -0.00149,0.02984zM43.89464,31.80246c0,0.00995 -0.00149,0.01964 -0.00149,0.02984c0,2.57022 2.08348,4.65369 4.6537,4.65369c2.56998,0 4.65345,-2.08346 4.65345,-4.65369c0,-2.39546 -1.81077,-4.36656 -4.13811,-4.62337c-0.01641,2.55606 -2.09193,4.62337 -4.65196,4.62337c-0.17452,0 -0.34604,-0.01144 -0.51559,-0.02984zM28.35398,41.19339c-5.46933,0 -9.90302,-4.43369 -9.90302,-9.90278c0,-5.46933 4.43369,-9.90277 9.90302,-9.90277c3.56013,0 6.67203,1.88484 8.41743,4.7049c1.74514,-2.82007 4.85729,-4.7049 8.41742,-4.7049c5.46908,0 9.90278,4.43344 9.90278,9.90277c0,5.46909 -4.4337,9.90278 -9.90278,9.90278zM47.30736,52.29985c0,-1.3772 -1.12091,-2.49788 -2.49838,-2.49788c-1.37747,0 -2.49813,1.12067 -2.49813,2.49788h-1.43191c0,-2.16674 1.76303,-3.93003 3.93004,-3.93003c2.167,0 3.93028,1.76329 3.93028,3.93003zM37.82123,63.8886c-0.80843,0.5576 -1.74638,0.84796 -2.7077,0.84796c-0.29062,0 -0.58296,-0.02635 -0.87481,-0.08028c-1.25764,-0.23095 -2.34997,-0.93771 -3.07587,-1.99052c-0.72614,-1.0528 -0.99861,-2.32485 -0.76791,-3.58276l1.40854,0.2588c-0.33436,1.81998 0.87406,3.57231 2.69378,3.90643c0.88102,0.16084 1.77322,-0.02909 2.51105,-0.53796c0.73783,-0.50912 1.23328,-1.27456 1.39512,-2.15607l1.40854,0.25854c-0.23119,1.25764 -0.9382,2.3502 -1.99075,3.07584zM25.87748,52.29985c0,-2.16674 1.76303,-3.93003 3.93003,-3.93003c2.16701,0 3.93004,1.76329 3.93004,3.93003h-1.43191c0,-1.3772 -1.12066,-2.49788 -2.49813,-2.49788c-1.37746,0 -2.49813,1.12067 -2.49813,2.49788zM6.62754,46.95359c-0.59837,0 -1.19301,-0.13847 -1.74439,-0.41268c-0.94019,-0.46685 -1.64222,-1.27205 -1.97683,-2.26694c-0.33461,-0.99487 -0.26202,-2.06036 0.20509,-3.00079c0.46686,-0.93994 1.27206,-1.64221 2.26694,-1.97682l0.45642,1.35708c-0.63243,0.21281 -1.14428,0.65903 -1.4411,1.2569c-0.29657,0.59763 -0.34306,1.2748 -0.13026,1.90722c0.21255,0.63268 0.65903,1.14452 1.25665,1.44112c0.59737,0.29656 1.27455,0.3428 1.90747,0.1305l0.45667,1.35709c-0.41142,0.13847 -0.83478,0.20734 -1.25665,0.20734M44.5743,45.26462c-3.34087,0 -6.20841,2.01411 -7.46381,4.89284c-1.25516,-2.87872 -4.1227,-4.89284 -7.46382,-4.89284c-4.49683,0 -8.14223,3.64539 -8.14223,8.14248h3.39258v0v4.07098c0,6.74538 5.46834,12.21372 12.21347,12.21372c6.74537,0 12.21371,-5.46835 12.21371,-12.21372v-4.07098v0h3.39257c0,-4.49709 -3.64539,-8.14248 -8.14247,-8.14248" fill="#c3aa71" fill-opacity="1"></path></g></g></svg>