<?xml version="1.0" encoding="UTF-8"?>
<svg id="SVGDoc" width="58" height="66" xmlns="http://www.w3.org/2000/svg" version="1.1" xmlns:xlink="http://www.w3.org/1999/xlink" xmlns:avocode="https://avocode.com/" viewBox="0 0 58 66"><defs><clipPath id="clip-6944e4f0-49ee-4632-a843-1924f0397d9d"><path d="M0.5,65.56294v0v-65.29731v0h56.98848v0v65.29731v0z" ></path></clipPath></defs><desc>Generated with Avocode.</desc><g><g><title>Grupo 9244</title><g><title>Grupo 8971</title><g><title>Retângulo 6562</title></g><g clip-path="url(#clip-6944e4f0-49ee-4632-a843-1924f0397d9d)"><title>Caminho 25348</title><path d="M13.80753,14.72533c-2.04467,1.63373 -3.9692,3.44978 -5.55792,5.47987c-1.71631,2.17906 -3.1023,4.61654 -4.09226,7.20816c-1.20012,3.14278 -1.80827,6.50026 -1.80342,9.86325c0.02137,14.86709 12.03972,27.16879 26.90261,27.51853c15.52868,0.36561 28.23194,-12.11356 28.23194,-27.55933c0,-13.71555 -10.01804,-25.08688 -23.13483,-27.20797c1.51229,-1.97861 2.36041,-4.89859 2.46209,-5.83317c0.04631,-0.41774 -0.27007,-0.80181 -0.73283,-0.80537c-0.24093,-0.00194 -0.46146,0.13536 -0.59488,0.33614c-0.3886,0.58549 -1.77621,1.73962 -3.63954,3.12789c1.09422,-2.41157 1.72829,-4.77975 1.83645,-5.74412c0.02752,-0.24384 -0.0557,-0.4974 -0.2432,-0.65543c-0.37273,-0.31379 -0.88891,-0.21664 -1.13049,0.1522c-0.93134,1.41806 -2.53722,2.52103 -3.84614,3.5547c-2.2733,1.79564 -4.63079,3.48507 -7.00448,5.14438c-1.28852,0.9009 -2.58547,1.79014 -3.88856,2.66999c-1.26715,0.85556 -2.53754,1.77006 -3.76454,2.7503" fill="#f97716" fill-opacity="1"></path></g><g clip-path="url(#clip-6944e4f0-49ee-4632-a843-1924f0397d9d)"><title>Caminho 25349</title><path d="M3.65509,33.29608l0,0c0,0 -0.00001,0 -0.00001,0.00001zM3.65509,33.29608c3.53365,-1.90024 8.57731,0.65058 10.3966,4.03105c1.85296,3.44394 0.55893,7.75317 -2.88469,9.60612c-1.04759,0.5638 -2.19396,0.85039 -3.35133,0.85039c-0.68522,0 -1.37434,-0.10039 -2.0492,-0.30312c-1.81443,-0.54499 -3.30794,-1.76358 -4.2056,-3.43195c-1.85717,-3.45139 -1.34681,-8.9005 2.09422,-10.75216zM24.4007,29.76827c0,2.4297 1.96987,4.39956 4.39957,4.39956c2.43004,0 4.3999,-1.96986 4.3999,-4.39956c0,-2.26521 -1.7121,-4.12853 -3.91253,-4.3714c-0.01523,2.41643 -1.97796,4.3714 -4.39828,4.3714c-0.16483,0 -0.32707,-0.01101 -0.48737,-0.0285c0,0.00939 -0.0013,0.01878 -0.0013,0.0285zM42.00093,29.73977c0,0.00939 -0.0013,0.01878 -0.0013,0.0285c0,2.4297 1.96987,4.39956 4.3999,4.39956c2.42971,0 4.39957,-1.96986 4.39957,-4.39956c0,-2.26521 -1.7121,-4.12853 -3.91221,-4.3714c-0.01554,2.41643 -1.97796,4.3714 -4.39827,4.3714c-0.16516,0 -0.32739,-0.01101 -0.48769,-0.0285zM27.30772,38.61889c-5.17094,0 -9.36293,-4.19199 -9.36293,-9.36293c0,-5.17093 4.19199,-9.36292 9.36293,-9.36292c3.3659,0 6.30824,1.78204 7.95848,4.44846c1.64993,-2.66642 4.59258,-4.44846 7.95849,-4.44846c5.17093,0 9.3626,4.19199 9.3626,9.36292c0,5.17094 -4.19167,9.36293 -9.3626,9.36293zM45.22758,49.11943c0,-1.30212 -1.05957,-2.36169 -2.36202,-2.36169c-1.30246,0 -2.36203,1.05957 -2.36203,2.36169h-1.35362c0,-2.04855 1.66676,-3.71564 3.71565,-3.71564c2.04887,0 3.71564,1.66708 3.71564,3.71564zM36.25875,60.07627c-0.76424,0.52719 -1.65122,0.80148 -2.56021,0.80148c-0.27461,0 -0.55116,-0.0246 -0.82706,-0.07545c-1.18879,-0.21858 -2.22181,-0.88698 -2.90801,-1.8821c-0.68652,-0.99548 -0.94429,-2.19817 -0.72603,-3.38728l1.33192,0.24449c-0.31638,1.7205 0.82642,3.37756 2.54694,3.69328c0.83289,0.15221 1.67615,-0.02719 2.374,-0.50874c0.69754,-0.48089 1.16612,-1.20496 1.31896,-2.03851l1.3316,0.24482c-0.21859,1.18911 -0.88698,2.22181 -1.88211,2.908zM24.96643,49.11943c0,-2.04855 1.66676,-3.71564 3.71564,-3.71564c2.04888,0 3.71564,1.66708 3.71564,3.71564h-1.35361c0,-1.30212 -1.05958,-2.36169 -2.36203,-2.36169c-1.30245,0 -2.36202,1.05957 -2.36202,2.36169zM6.76614,44.06476c-0.56573,0 -1.1279,-0.13084 -1.64927,-0.39022c-0.88892,-0.44138 -1.55277,-1.20239 -1.86915,-2.14312c-0.31638,-0.94072 -0.24773,-1.94817 0.19397,-2.83708c0.44138,-0.88892 1.20271,-1.55276 2.14344,-1.86916l0.43167,1.28303c-0.59812,0.20142 -1.08192,0.62305 -1.36268,1.18813c-0.28044,0.56541 -0.32448,1.20563 -0.12338,1.80341c0.2011,0.59811 0.62305,1.08225 1.18846,1.36269c0.56444,0.28011 1.20498,0.32382 1.80342,0.12338l0.43167,1.28302c-0.38892,0.13082 -0.7895,0.19592 -1.18814,0.19592M42.64373,42.46795c-3.15865,0 -5.87009,1.90445 -7.05693,4.62593c-1.18684,-2.72148 -3.89796,-4.62593 -7.05661,-4.62593c-4.25191,0 -7.69844,3.44653 -7.69844,7.69844h3.20755v0v3.84906c0,6.37753 5.16996,11.54749 11.5475,11.54749c6.37753,0 11.54749,-5.16995 11.54749,-11.54749v-3.84906v0h3.20787c0,-4.25191 -3.44685,-7.69844 -7.69844,-7.69844" fill="#0a110c" fill-opacity="1"></path></g></g></g></g></svg>