<?xml version="1.0" encoding="UTF-8"?>
<svg id="SVGDoc" width="75" height="66" xmlns="http://www.w3.org/2000/svg" version="1.1" xmlns:xlink="http://www.w3.org/1999/xlink" xmlns:avocode="https://avocode.com/" viewBox="0 0 75 66"><defs></defs><desc>Generated with Avocode.</desc><g><g clip-path="url(#clip-e405a037-2143-4c90-ad69-e8c66a95a20f)"><title>Caminho 26703</title><path d="M34.76378,22.14385c0,5.95361 0.02532,11.90723 -0.0149,17.8606c-0.01254,1.84826 -0.41806,3.65133 -0.93502,5.43382c-0.60212,2.07515 -1.37862,4.0772 -2.43643,5.94983c-2.05576,3.63879 -4.83406,6.64754 -8.28192,9.00801c-2.55898,1.75173 -5.32404,3.11024 -8.35005,3.84699c-2.23343,0.54369 -4.5007,0.92413 -6.81741,0.82547c-1.12642,-0.04803 -1.68501,-0.51269 -1.82271,-1.49716c-0.03786,-0.27161 -0.06009,-0.54771 -0.06151,-0.82168c-0.00994,-1.70938 -0.01443,-3.41899 -0.01561,-5.12838c-0.00071,-1.27712 -0.00497,-2.55449 0.01656,-3.83114c0.00639,-0.38919 0.08021,-0.7791 0.14621,-1.16475c0.09132,-0.53138 0.43438,-0.8593 0.93927,-0.98423c0.63667,-0.1578 1.27902,-0.31206 1.92823,-0.39558c1.96372,-0.25291 3.76584,-0.94164 5.42222,-2.00016c3.32176,-2.12271 5.39194,-5.13642 6.29407,-8.96661c0.26569,-1.12784 0.30899,-2.27412 0.32106,-3.42373c0.00733,-0.70717 -0.01065,-1.41482 0.00308,-2.122c0.00497,-0.24984 -0.05749,-0.3433 -0.32484,-0.34235c-2.20031,0.00828 -4.40086,0.0071 -6.6014,0.00142c-3.04542,-0.00805 -6.09084,-0.0149 -9.13602,-0.03809c-0.84724,-0.00639 -1.68832,-0.09488 -2.44968,-0.52642c-1.26624,-0.71782 -1.95615,-1.79313 -1.9675,-3.25859c-0.02153,-2.75062 -0.03005,-5.50125 -0.03241,-8.25187c-0.0045,-5.63918 -0.00402,-11.27812 0.00213,-16.9173c0.00095,-0.70599 0.00118,-1.4179 0.08636,-2.11679c0.21979,-1.80236 1.29321,-2.8966 3.08256,-3.17081c0.52169,-0.07997 1.05615,-0.10765 1.5847,-0.10789c8.26228,-0.00662 16.52456,-0.00473 24.78684,-0.00473c0.80868,0 1.6209,0.02863 2.37184,0.35702c1.44559,0.63217 2.18943,1.76687 2.23912,3.33761c0.0336,1.05993 0.03241,2.12152 0.03288,3.1824c0.00307,5.08887 0.00143,10.17797 0.00143,15.26707z" fill="#2d4e57" fill-opacity="1"></path></g><g clip-path="url(#clip-e405a037-2143-4c90-ad69-e8c66a95a20f)"><title>Caminho 26704</title><path d="M74.88155,22.14385c0,5.95361 0.02533,11.90723 -0.01489,17.8606c-0.01254,1.84826 -0.41806,3.65133 -0.935,5.43382c-0.60217,2.07515 -1.37863,4.0772 -2.43646,5.94983c-2.05573,3.63879 -4.83405,6.64754 -8.28189,9.00801c-2.55899,1.75173 -5.32407,3.11024 -8.35004,3.84699c-2.23346,0.54369 -4.5007,0.92413 -6.81744,0.82547c-1.1264,-0.04803 -1.685,-0.51269 -1.82266,-1.49716c-0.03787,-0.27161 -0.06009,-0.54771 -0.06155,-0.82168c-0.00992,-1.70938 -0.0144,-3.41899 -0.01559,-5.12838c-0.0007,-1.27712 -0.00497,-2.55449 0.01657,-3.83114c0.00635,-0.38919 0.0802,-0.7791 0.14621,-1.16475c0.09131,-0.53138 0.43439,-0.8593 0.93927,-0.98423c0.63663,-0.1578 1.27899,-0.31206 1.92819,-0.39558c1.96375,-0.25291 3.76587,-0.94164 5.42224,-2.00016c3.32175,-2.12271 5.39197,-5.13642 6.29407,-8.96661c0.26572,-1.12784 0.30899,-2.27412 0.32108,-3.42373c0.00732,-0.70717 -0.01065,-1.41482 0.00305,-2.122c0.00497,-0.24984 -0.0575,-0.3433 -0.32483,-0.34235c-2.20029,0.00828 -4.40085,0.0071 -6.60141,0.00142c-3.04541,-0.00805 -6.09085,-0.0149 -9.13602,-0.03809c-0.84723,-0.00639 -1.68829,-0.09488 -2.44968,-0.52642c-1.2662,-0.71782 -1.95615,-1.79313 -1.9675,-3.25859c-0.02151,-2.75062 -0.03003,-5.50125 -0.03241,-8.25187c-0.00449,-5.63918 -0.00403,-11.27812 0.00214,-16.9173c0.00095,-0.70599 0.00116,-1.4179 0.08636,-2.11679c0.21979,-1.80236 1.29318,-2.8966 3.08258,-3.17081c0.52164,-0.07997 1.05612,-0.10765 1.58466,-0.10789c8.26227,-0.00662 16.5246,-0.00473 24.78683,-0.00473c0.80869,0 1.62091,0.02863 2.37186,0.35702c1.44559,0.63217 2.18942,1.76687 2.23911,3.33761c0.03357,1.05993 0.03241,2.12152 0.03287,3.1824c0.00308,5.08887 0.00143,10.17797 0.00143,15.26707z" fill="#2d4e57" fill-opacity="1"></path></g></g></svg>