<svg xmlns="http://www.w3.org/2000/svg" width="144" height="145" viewBox="0 0 144 145"><g><g opacity=".06"><path fill="#8a8a8a" d="M13.377 144.138c1.477-.003.466-.004 1.483-.004h24.308v-15.442h-15.11L17.718 123V21.657l5.951-5.353h15.5V.862h-24.31c-.426 0-.922.001-1.45.004L.282 12.674c-.003 1.05-.006 2.006-.006 2.772V129.55l-.002 2.804z"/></g><g opacity=".06"><path fill="#8a8a8a" d="M130.897 144.138c-1.478-.003-.466-.004-1.483-.004h-24.309v-15.442h15.11l6.34-5.692V21.657l-5.95-5.353h-15.5V.862h24.309c.426 0 .923.001 1.45.004l13.128 11.808c.003 1.05.005 2.006.005 2.772V129.55l.003 2.805z"/></g></g></svg>