<svg xmlns="http://www.w3.org/2000/svg" width="364" height="363" viewBox="0 0 364 363"><g><g opacity=".06"><path fill="#f9f9f9" d="M33.523 362.787c3.735-.007 1.179-.01 3.75-.01h61.454v-39.039h-38.2l-16.03-14.39V53.14l15.046-13.53h39.184V.57H37.272c-1.078 0-2.333.002-3.667.01L.417 30.431c-.007 2.651-.014 5.07-.014 7.007v288.47c0 1.854-.004 4.548-.007 7.09z"/></g><g opacity=".06"><path fill="#f9f9f9" d="M330.627 362.787c-3.735-.007-1.179-.01-3.75-.01h-61.454v-39.039h38.2l16.03-14.39V53.14l-15.047-13.53h-39.183V.57h61.455c1.078 0 2.333.002 3.667.01l33.188 29.852c.007 2.651.014 5.07.014 7.007v288.47c0 1.854.004 4.548.006 7.09z"/></g></g></svg>