<svg xmlns="http://www.w3.org/2000/svg" width="19" height="19" viewBox="0 0 19 19"><g><g><path fill="#fff" d="M16.99 9.508c0-1.358.113-4.274-.375-5.503a3.15 3.15 0 0 0-1.774-1.775c-1.225-.483-4.145-.374-5.503-.374-1.358 0-4.274-.113-5.503.374a3.15 3.15 0 0 0-1.774 1.775c-.483 1.225-.375 4.145-.375 5.503 0 1.358-.112 4.273.375 5.502.329.82.958 1.45 1.774 1.775 1.225.483 4.145.375 5.503.375 1.358 0 4.274.112 5.503-.375a3.15 3.15 0 0 0 1.774-1.775c.488-1.224.375-4.144.375-5.502zm1.616 3.849c-.075 1.495-.416 2.82-1.508 3.911-1.091 1.096-2.416 1.437-3.911 1.508-1.541.087-6.16.087-7.702 0-1.495-.075-2.816-.417-3.911-1.508C.478 16.177.136 14.852.066 13.357c-.088-1.542-.088-6.161 0-7.702.075-1.496.412-2.82 1.508-3.912C2.669.652 3.994.31 5.484.24c1.542-.087 6.162-.087 7.703 0 1.495.075 2.82.417 3.911 1.508 1.096 1.092 1.438 2.416 1.508 3.912.088 1.54.088 6.156 0 7.698zm-3.17-8.831c0 .62-.5 1.116-1.116 1.116a1.116 1.116 0 1 1 1.116-1.116zM12.45 9.508a3.115 3.115 0 0 0-3.112-3.112 3.115 3.115 0 0 0-3.112 3.112c0 1.716 1.4 3.111 3.112 3.111a3.117 3.117 0 0 0 3.112-3.111zm1.674 0a4.779 4.779 0 0 1-4.786 4.786 4.779 4.779 0 0 1-4.786-4.786A4.779 4.779 0 0 1 9.338 4.72a4.779 4.779 0 0 1 4.786 4.787z"/></g></g></svg>