<svg xmlns="http://www.w3.org/2000/svg" width="22" height="16" viewBox="0 0 22 16"><g><g><path fill="#fff" d="M14.23 7.638l6.912-5.93c.04.123.061.253.061.389v11.777c0 .123-.02.26-.061.41zM.94 15.081l6.973-6.686 2.699 2.187 2.699-2.187 6.972 6.686a.982.982 0 0 1-.347.06H1.268a.926.926 0 0 1-.327-.06zM.92.89a.881.881 0 0 1 .348-.062h18.668c.122 0 .245.02.368.062l-6.952 5.95-.92.736-1.82 1.492-1.82-1.492-.92-.736zM0 13.874V2.097c0-.014.02-.143.061-.389l6.932 5.93-6.911 6.645A1.733 1.733 0 0 1 0 13.874z"/></g></g></svg>