<svg xmlns="http://www.w3.org/2000/svg" width="17" height="18" viewBox="0 0 17 18"><g><g><path fill="#fff" d="M8.646.933c1.063 0 2.079.209 3.048.625.97.417 1.805.977 2.507 1.679a7.949 7.949 0 0 1 1.678 2.506c.417.97.626 1.985.625 3.049 0 1.063-.209 2.079-.625 3.048a7.928 7.928 0 0 1-1.678 2.507 7.946 7.946 0 0 1-2.507 1.678 7.632 7.632 0 0 1-3.048.625 7.738 7.738 0 0 1-3.805-.98L.495 17.067l1.418-4.22A7.673 7.673 0 0 1 .787 8.791c0-1.063.209-2.08.626-3.049A7.932 7.932 0 0 1 3.09 3.237a7.949 7.949 0 0 1 2.506-1.679A7.624 7.624 0 0 1 8.646.933zm0 14.404c.882 0 1.728-.174 2.538-.521a6.594 6.594 0 0 0 2.09-1.397 6.611 6.611 0 0 0 1.396-2.09c.348-.809.521-1.655.521-2.537a6.38 6.38 0 0 0-.521-2.538 6.59 6.59 0 0 0-1.397-2.09 6.608 6.608 0 0 0-2.09-1.397 6.367 6.367 0 0 0-2.537-.52c-.883 0-1.73.173-2.538.52a6.608 6.608 0 0 0-2.09 1.397 6.59 6.59 0 0 0-1.396 2.09A6.38 6.38 0 0 0 2.1 8.792c0 1.41.417 2.688 1.251 3.835l-.823 2.428 2.522-.802a6.409 6.409 0 0 0 3.596 1.084zm2.115-5.524c.09 0 .43.153 1.017.459.587.305.898.49.932.552.014.034.021.086.021.156 0 .229-.059.493-.177.792-.111.27-.358.498-.74.683-.382.184-.736.276-1.063.276-.396 0-1.056-.215-1.98-.646a5.942 5.942 0 0 1-1.772-1.23c-.5-.507-1.015-1.15-1.543-1.928-.5-.743-.746-1.417-.74-2.022v-.083c.022-.633.279-1.181.772-1.647a.788.788 0 0 1 .542-.23c.042 0 .104.006.187.016.084.01.15.016.198.016.132 0 .224.023.276.068.053.045.106.14.162.286.056.14.17.445.344.918.173.472.26.733.26.781 0 .146-.12.346-.359.6-.24.254-.36.415-.36.484 0 .049.017.1.052.156.236.507.59.983 1.063 1.428.39.368.914.72 1.574 1.053.083.048.16.073.229.073.104 0 .292-.169.563-.506.27-.337.452-.505.542-.505z"/></g></g></svg>