<svg xmlns="http://www.w3.org/2000/svg" width="30" height="30" viewBox="0 0 30 30"><g><g><path fill="#191919" d="M16.93 23.104v-2.91a5.616 5.616 0 0 0 3.415-3.415h2.91a8.43 8.43 0 0 1-6.325 6.325zM6.87 16.78h2.91a5.616 5.616 0 0 0 3.416 3.415v2.91A8.43 8.43 0 0 1 6.87 16.78zm6.326-10.06v2.91a5.616 5.616 0 0 0-3.415 3.415H6.87a8.43 8.43 0 0 1 6.325-6.325zm1.867 10.06a1.867 1.867 0 1 1 0-3.735 1.867 1.867 0 0 1 0 3.735zm5.282-3.735A5.616 5.616 0 0 0 16.93 9.63V6.72a8.43 8.43 0 0 1 6.326 6.325zm6.71 0C26.25 7.844 22.13 3.725 16.93 2.92V-.026h-3.734V2.92c-5.2.806-9.32 4.925-10.126 10.125H.126v3.735H3.07c.806 5.2 4.926 9.319 10.126 10.125v2.945h3.734v-2.945c5.2-.806 9.32-4.925 10.126-10.125H30v-3.735z"/></g></g></svg>