<svg xmlns="http://www.w3.org/2000/svg" width="30" height="21" viewBox="0 0 30 21"><g><g><path fill="#191919" d="M15.063 6.085a4.068 4.068 0 0 0-4.074 4.074 4.068 4.068 0 0 0 4.074 4.074 4.068 4.068 0 0 0 4.074-4.074 4.068 4.068 0 0 0-4.074-4.074zm0 10.863a6.792 6.792 0 0 1-6.79-6.79 6.792 6.792 0 0 1 6.79-6.789 6.792 6.792 0 0 1 6.79 6.79 6.792 6.792 0 0 1-6.79 6.79zm0-16.974C8.273-.026 2.475 4.198.126 10.16c2.349 5.961 8.147 10.184 14.937 10.184 6.79 0 12.588-4.223 14.937-10.184C27.65 4.198 21.852-.026 15.063-.026z"/></g></g></svg>