<svg xmlns="http://www.w3.org/2000/svg" width="170" height="34" viewBox="0 0 170 34"><g><g clip-path="url(#clip-fb410ea2-d8f9-4dea-b3c2-deb8c17e5675)"><path fill="#fff" d="M109.422 15.211c-.667 0-1.198-.194-1.593-.58-.395-.386-.593-.95-.593-1.693v-1.281c0-.741.198-1.306.593-1.693.395-.387.926-.58 1.593-.58.662 0 1.17.183 1.525.552.355.369.533.873.533 1.513v.04h-.665v-.064c0-.421-.113-.767-.34-1.037-.227-.269-.578-.404-1.053-.404s-.846.146-1.113.436c-.267.291-.4.698-.4 1.221v1.312c0 .524.133.93.4 1.222.267.29.638.436 1.113.436s.826-.135 1.053-.404c.227-.27.34-.615.34-1.037v-.128h.665v.105c0 .64-.178 1.144-.533 1.512-.355.368-.863.552-1.525.552"/></g><g clip-path="url(#clip-fb410ea2-d8f9-4dea-b3c2-deb8c17e5675)"><path fill="#fff" d="M114.962 14.611c.485 0 .861-.145 1.128-.436.267-.292.4-.696.4-1.213v-1.329c0-.518-.133-.922-.4-1.213-.267-.29-.643-.436-1.128-.436-.48 0-.855.146-1.121.436-.267.29-.4.695-.4 1.213v1.33c0 .516.133.92.4 1.212.266.29.64.436 1.12.436m0 .6c-.667 0-1.199-.194-1.597-.58-.397-.387-.596-.951-.596-1.693v-1.281c0-.742.199-1.306.596-1.693.398-.387.93-.58 1.598-.58.672 0 1.207.193 1.604.58.398.387.597.951.597 1.693v1.28c0 .743-.2 1.307-.597 1.693-.397.387-.932.581-1.604.581"/></g><g clip-path="url(#clip-fb410ea2-d8f9-4dea-b3c2-deb8c17e5675)"><path fill="#fff" d="M119.348 10.104h1.53c.373 0 .658.09.856.269.197.178.296.427.296.748v.056c0 .32-.1.57-.3.748-.2.179-.485.268-.852.268h-1.53zm0 4.995v-2.297h1.937c.177 0 .308.043.397.128.088.086.132.208.132.368v1.801h.664v-1.88c0-.241-.063-.42-.188-.541a.688.688 0 0 0-.476-.188v-.113c.24-.074.448-.218.624-.431.176-.214.264-.505.264-.873v-.088c0-.31-.075-.576-.224-.797a1.455 1.455 0 0 0-.62-.512c-.265-.12-.57-.18-.917-.18h-2.265v5.603z"/></g><g clip-path="url(#clip-fb410ea2-d8f9-4dea-b3c2-deb8c17e5675)"><path fill="#fff" d="M124.791 10.104h1.53c.373 0 .658.09.856.269.197.178.296.427.296.748v.056c0 .32-.1.57-.3.748-.2.179-.484.268-.852.268h-1.53zm0 4.995v-2.297h1.937c.177 0 .309.043.397.128.088.086.132.208.132.368v1.801h.664v-1.88c0-.241-.063-.42-.188-.541a.688.688 0 0 0-.476-.188v-.113c.24-.074.448-.218.625-.431.175-.214.263-.505.263-.873v-.088c0-.31-.074-.576-.224-.797a1.456 1.456 0 0 0-.62-.512c-.264-.12-.57-.18-.916-.18h-2.266v5.603z"/></g><g clip-path="url(#clip-fb410ea2-d8f9-4dea-b3c2-deb8c17e5675)"><path fill="#fff" d="M129.562 15.099V9.496h3.45v.608h-2.777v1.874h2.553v.608h-2.553v1.905h2.817v.608z"/></g><g clip-path="url(#clip-fb410ea2-d8f9-4dea-b3c2-deb8c17e5675)"><path fill="#fff" d="M135.838 15.099v-4.995h-1.801v-.608h4.274v.608h-1.801v4.995z"/></g><g clip-path="url(#clip-fb410ea2-d8f9-4dea-b3c2-deb8c17e5675)"><path fill="#fff" d="M141.345 14.611c.486 0 .863-.145 1.13-.436.266-.292.4-.696.4-1.213v-1.329c0-.518-.134-.922-.4-1.213-.267-.29-.644-.436-1.13-.436-.48 0-.853.146-1.12.436-.267.29-.4.695-.4 1.213v1.33c0 .516.133.92.4 1.212.267.29.64.436 1.12.436m0 .6c-.667 0-1.199-.194-1.596-.58-.398-.387-.597-.951-.597-1.693v-1.281c0-.742.2-1.306.597-1.693.397-.387.929-.58 1.596-.58.672 0 1.208.193 1.606.58.397.387.596.951.596 1.693v1.28c0 .743-.199 1.307-.596 1.693-.398.387-.934.581-1.606.581"/></g><g clip-path="url(#clip-fb410ea2-d8f9-4dea-b3c2-deb8c17e5675)"><path fill="#fff" d="M145.732 10.104h1.529c.373 0 .66.09.856.269.198.178.296.427.296.748v.056c0 .32-.1.57-.3.748-.2.179-.484.268-.852.268h-1.529zm0 4.995v-2.297h1.937c.177 0 .309.043.396.128.088.086.133.208.133.368v1.801h.664v-1.88c0-.241-.063-.42-.188-.541a.69.69 0 0 0-.476-.188v-.113c.24-.074.448-.218.623-.431.177-.214.265-.505.265-.873v-.088c0-.31-.075-.576-.224-.797a1.459 1.459 0 0 0-.62-.512c-.264-.12-.57-.18-.917-.18h-2.266v5.603z"/></g><g clip-path="url(#clip-fb410ea2-d8f9-4dea-b3c2-deb8c17e5675)"><path fill="#fff" d="M152.328 9.904h.112l.96 3.17h-2.04zm-1.569 5.195l.432-1.417h2.386l.432 1.417h.696l-1.728-5.603h-1.185l-1.729 5.603z"/></g><g clip-path="url(#clip-fb410ea2-d8f9-4dea-b3c2-deb8c17e5675)"><path fill="#fff" d="M108.59 19.718h.728c.544 0 .955.13 1.233.393.277.26.416.677.416 1.248v1.097c0 .56-.139.974-.416 1.24-.278.267-.689.401-1.233.401h-.729zm.728 4.987c.736 0 1.306-.185 1.709-.556.403-.371.604-.946.604-1.725v-1.04c0-.775-.2-1.348-.604-1.722-.403-.374-.973-.56-1.71-.56h-2.185v.6h.785v4.403h-.785v.6z"/></g><g clip-path="url(#clip-fb410ea2-d8f9-4dea-b3c2-deb8c17e5675)"><path fill="#fff" d="M113.096 24.705v-5.603h3.45v.608h-2.777v1.873h2.553v.608h-2.553v1.906h2.818v.608z"/></g><g clip-path="url(#clip-fb410ea2-d8f9-4dea-b3c2-deb8c17e5675)"><path fill="#fff" d="M122.301 24.817c-.405 0-.768-.072-1.088-.216a1.696 1.696 0 0 1-.756-.652c-.185-.291-.277-.655-.277-1.093v-.168h.665v.168c0 .464.136.81.408 1.036.272.227.622.341 1.048.341.439 0 .772-.099 1.001-.297a.939.939 0 0 0 .345-.744c0-.208-.053-.373-.157-.496a1.122 1.122 0 0 0-.436-.3 4.265 4.265 0 0 0-.657-.205l-.416-.104a4.639 4.639 0 0 1-.864-.312 1.518 1.518 0 0 1-.589-.484c-.14-.2-.211-.458-.211-.773 0-.314.078-.587.236-.816.157-.23.379-.405.664-.528.285-.123.615-.185.988-.185.38 0 .72.067 1.022.196.3.131.538.323.712.578.173.253.26.572.26.956v.335h-.665v-.335c0-.273-.057-.49-.171-.657a1.027 1.027 0 0 0-.473-.368c-.2-.08-.429-.12-.685-.12-.367 0-.664.082-.888.244-.224.163-.336.394-.336.692 0 .198.048.358.144.48.096.124.233.224.408.301.177.078.387.146.633.204l.416.105c.326.069.618.163.876.284.26.12.466.282.621.488.155.205.232.473.232.804 0 .331-.082.62-.248.865a1.628 1.628 0 0 1-.7.572 2.566 2.566 0 0 1-1.062.204"/></g><g clip-path="url(#clip-fb410ea2-d8f9-4dea-b3c2-deb8c17e5675)"><path fill="#fff" d="M125.736 24.705v-5.603h3.45v.608h-2.778v1.873h2.554v.608h-2.554v1.906h2.818v.608z"/></g><g clip-path="url(#clip-fb410ea2-d8f9-4dea-b3c2-deb8c17e5675)"><path fill="#fff" d="M132.588 24.817a2.26 2.26 0 0 1-1.101-.26 1.82 1.82 0 0 1-.744-.764c-.179-.337-.269-.753-.269-1.25v-1.28c0-.742.198-1.306.593-1.693.395-.386.926-.58 1.592-.58.663 0 1.167.18 1.514.544.347.363.52.848.52 1.457v.04h-.664v-.056c0-.267-.049-.504-.145-.713a1.1 1.1 0 0 0-.448-.492c-.202-.12-.461-.18-.777-.18-.474 0-.845.145-1.112.436-.267.291-.4.698-.4 1.22v1.314c0 .523.133.93.4 1.221.267.29.641.436 1.121.436.47 0 .815-.133 1.037-.4.221-.267.332-.622.332-1.065v-.136h-1.698v-.576h2.354v2.665h-.608v-.608h-.112a1.44 1.44 0 0 1-.249.344 1.147 1.147 0 0 1-.432.272 2.014 2.014 0 0 1-.704.104"/></g><g clip-path="url(#clip-fb410ea2-d8f9-4dea-b3c2-deb8c17e5675)"><path fill="#fff" d="M138.336 24.817c-.417 0-.78-.075-1.089-.224-.31-.15-.55-.373-.72-.668-.171-.296-.256-.66-.256-1.093v-3.73h.664v3.738c0 .459.122.803.368 1.032.245.23.59.344 1.033.344.443 0 .786-.114 1.032-.344.246-.229.368-.573.368-1.032v-3.738h.673v3.73c0 .432-.086.797-.257 1.093a1.63 1.63 0 0 1-.723.668 2.51 2.51 0 0 1-1.093.224"/></g><g clip-path="url(#clip-fb410ea2-d8f9-4dea-b3c2-deb8c17e5675)"><path fill="#fff" d="M142.706 19.71h1.529c.373 0 .66.09.856.268.198.18.296.429.296.749v.056c0 .32-.1.57-.3.748-.2.18-.484.268-.852.268h-1.529zm0 4.995v-2.297h1.937c.176 0 .308.042.396.128.088.085.133.208.133.368v1.801h.664v-1.881c0-.24-.063-.42-.188-.54a.693.693 0 0 0-.476-.189v-.111c.24-.075.448-.22.623-.433.177-.213.265-.504.265-.872v-.088c0-.31-.075-.575-.224-.796a1.456 1.456 0 0 0-.62-.514c-.265-.119-.57-.179-.917-.179h-2.266v5.603z"/></g><g clip-path="url(#clip-fb410ea2-d8f9-4dea-b3c2-deb8c17e5675)"><path fill="#fff" d="M149.51 24.216c.485 0 .861-.145 1.128-.435.267-.291.4-.695.4-1.213v-1.33c0-.516-.133-.92-.4-1.212-.267-.29-.643-.436-1.128-.436-.48 0-.854.145-1.121.436-.267.291-.4.696-.4 1.213v1.329c0 .518.133.922.4 1.213.267.29.641.435 1.121.435m0 .6c-.667 0-1.2-.192-1.597-.58-.398-.386-.597-.95-.597-1.693v-1.28c0-.742.199-1.307.597-1.694.397-.385.93-.58 1.597-.58.672 0 1.208.195 1.605.58.397.387.596.952.596 1.694v1.28c0 .742-.199 1.307-.597 1.694-.396.387-.932.58-1.604.58"/></g><g clip-path="url(#clip-fb410ea2-d8f9-4dea-b3c2-deb8c17e5675)"><path fill="#fff" d="M155.09 24.817c-.406 0-.769-.072-1.089-.216a1.684 1.684 0 0 1-.756-.652c-.185-.291-.277-.655-.277-1.093v-.168h.664v.168c0 .464.136.81.409 1.036.271.227.622.341 1.048.341.438 0 .771-.099 1.001-.297a.94.94 0 0 0 .344-.744c0-.208-.052-.373-.156-.496a1.137 1.137 0 0 0-.436-.3 4.299 4.299 0 0 0-.657-.205l-.416-.104a4.618 4.618 0 0 1-.865-.312 1.522 1.522 0 0 1-.588-.484c-.141-.2-.212-.458-.212-.773 0-.314.078-.587.236-.816.158-.23.379-.405.665-.528.285-.123.615-.185.988-.185.379 0 .719.067 1.02.196.302.131.54.323.714.578.172.253.26.572.26.956v.335h-.665v-.335c0-.273-.057-.49-.173-.657a1.023 1.023 0 0 0-.471-.368c-.2-.08-.429-.12-.685-.12-.368 0-.664.082-.888.244-.224.163-.337.394-.337.692 0 .198.049.358.145.48.096.124.232.224.408.301.176.078.386.146.632.204l.417.105c.325.069.618.163.875.284.26.12.466.282.621.488.155.205.232.473.232.804 0 .331-.082.62-.247.865a1.63 1.63 0 0 1-.702.572c-.3.136-.654.204-1.06.204"/></g><g clip-path="url(#clip-fb410ea2-d8f9-4dea-b3c2-deb8c17e5675)"><path fill="#fff" d="M19.897 5.213h-4.476V28.95h14.595v-4.07H19.897z"/></g><g clip-path="url(#clip-fb410ea2-d8f9-4dea-b3c2-deb8c17e5675)"><path fill="#fff" d="M70.78 25.899h-.612L65.454 5.213h-8.511V28.95h4.408V8.264h.61l4.714 20.687h8.512V5.213H70.78z"/></g><g clip-path="url(#clip-fb410ea2-d8f9-4dea-b3c2-deb8c17e5675)"><path fill="#fff" d="M98.96 28.951L92.72 5.213h-7.8L78.68 28.95h3.7l1.007.037.02-.082 1.325-5.177 1.058-4.138 2.33-9.11.628-2.455h.207l2.55 10.386.29 1.18 1.016 4.137 1.128 4.594.135.552h.003l.019.076z"/></g><g clip-path="url(#clip-fb410ea2-d8f9-4dea-b3c2-deb8c17e5675)"><path fill="#fff" d="M41.168 24.874V9.268h2.239c1.012 0 2.526.01 3.662.019l1.558 1.558c.002 1.209.004 2.848.004 3.852v4.749c0 .963-.012 2.523-.023 3.708l-1.67 1.671c-1.114.023-2.552.049-3.531.049zm2.171-19.676h-9.77v3.935h3.12V25.01h-3.12v3.935h9.77c1.43 0 5.685-.125 6.177-.14v.019l.018-.019h.03l3.37-3.399s.175-4.307.175-6.096v-4.478c0-1.691.019-6.096.019-6.096L49.564 5.12s-4.272.078-6.225.078"/></g><g clip-path="url(#clip-fb410ea2-d8f9-4dea-b3c2-deb8c17e5675)"><path fill="#fff" d="M166.885.012l-.352.001h-5.765v3.663h3.584l1.503 1.35V29.06l-1.411 1.27h-3.676v3.662h6.109l3.114-2.801V3.472l.002-.665z"/></g><g clip-path="url(#clip-fb410ea2-d8f9-4dea-b3c2-deb8c17e5675)"><path fill="#fff" d="M3.108 33.993h6.117V30.33H5.64l-1.504-1.35V4.944l1.412-1.27h3.676V.013H3.459l-.344.001-3.113 2.8L0 3.472v27.062L0 31.2z"/></g></g></svg>