<?xml version="1.0" encoding="UTF-8"?>
<svg id="SVGDoc" width="43" height="43" xmlns="http://www.w3.org/2000/svg" version="1.1" xmlns:xlink="http://www.w3.org/1999/xlink" xmlns:avocode="https://avocode.com/" viewBox="0 0 43 43"><defs></defs><desc>Generated with Avocode.</desc><g><g><title>Caminho 25451</title><path d="M42.39623,21.35855c0,11.46251 -9.29221,20.75471 -20.75472,20.75471c-11.46251,0 -20.75471,-9.2922 -20.75471,-20.75471c0,-11.46251 9.2922,-20.75472 20.75472,-20.75472c5.51218,-0.02523 10.8059,2.15332 14.70364,6.05107c3.89774,3.89774 6.0763,9.19146 6.05107,14.70365zM38.62264,21.35855c0,-9.37842 -7.60271,-16.98114 -16.98113,-16.98114c-9.37842,0 -16.98113,7.60271 -16.98113,16.98114c0,9.37842 7.60271,16.98113 16.98114,16.98113c9.35698,-0.05156 16.92957,-7.62415 16.98113,-16.98113" fill="#283b8b" fill-opacity="1"></path></g><g><title>Caminho 25452</title><path d="M19.56604,21.35855v0l6.22642,6.22641c0.41562,0.3679 0.63736,0.90759 0.60044,1.46142c-0.03692,0.55383 -0.32834,1.0593 -0.78912,1.36877c-0.78169,0.56586 -1.85739,0.48619 -2.54717,-0.18867l-7.45283,-7.54717c-0.37001,-0.33949 -0.58064,-0.81861 -0.58064,-1.32075c0,-0.50215 0.21063,-0.98127 0.58064,-1.32076l7.45283,-7.54717c0.68978,-0.67486 1.76548,-0.75455 2.54717,-0.18868c0.46078,0.30947 0.7522,0.81495 0.78912,1.36878c0.03692,0.55383 -0.18482,1.09352 -0.60044,1.46142z" fill="#283b8b" fill-opacity="1"></path></g></g></svg>