<svg width="109" height="54" viewBox="0 0 109 54" fill="none" xmlns="http://www.w3.org/2000/svg">
<path d="M43 53.4528H0.129883C23.7437 51.0049 24.9751 30.8627 25.0063 27.2729C25.0024 27.0901 25.001 26.9098 25.001 26.727C25.001 11.9653 36.9663 0 51.7266 0H57.2739C72.0347 0 84 11.9653 84 26.727C84 27.5382 83.9644 28.3404 83.8931 29.1338C84.417 35.2916 87.7979 51.2887 108.676 53.4528H66.5H43Z" fill="white"/>
<path d="M44.5083 33.7708L53.0083 42.2C53.2632 42.4778 53.623 42.636 54 42.636C54.377 42.636 54.7368 42.4778 54.9917 42.2L63.4917 33.7708C63.9984 33.2529 64.0582 32.4452 63.6334 31.8583C63.401 31.5124 63.0214 31.2935 62.6056 31.2658C62.1898 31.2381 61.7846 31.4046 61.5084 31.7167L55.4167 37.8083V22.7917C55.4167 22.0093 54.7824 21.375 54 21.375C53.2176 21.375 52.5833 22.0093 52.5833 22.7917V37.8083L46.4916 31.7167C46.2154 31.4046 45.8102 31.2381 45.3944 31.2658C44.9786 31.2936 44.599 31.5124 44.3666 31.8583C43.9418 32.4453 44.0016 33.2529 44.5083 33.7708Z" fill="#283B8B"/>
</svg>
