<?xml version="1.0" encoding="UTF-8"?>
<svg id="SVGDoc" width="54" height="64" xmlns="http://www.w3.org/2000/svg" version="1.1" xmlns:xlink="http://www.w3.org/1999/xlink" xmlns:avocode="https://avocode.com/" viewBox="0 0 54 64"><defs></defs><desc>Generated with Avocode.</desc><g><g clip-path="url(#clip-eddd06a4-518b-4476-9956-efc74e9a3ad7)"><title>Caminho 25437</title><path d="M40.95298,30.12894l-6.91439,19.75152c-0.31244,0.89656 -0.31244,1.86104 0,2.73044c0.4347,1.16825 0.97807,3.3689 -0.13583,5.12127c-1.04599,1.64369 -3.3689,2.62177 -6.90082,2.93421c-3.5319,-0.31244 -5.8684,-1.29052 -6.91439,-2.93421c-1.11391,-1.75237 -0.57053,-3.95302 -0.13584,-5.12127c0.31244,-0.8558 0.32602,-1.83388 0,-2.73044l-6.91439,-19.75152c-0.28527,-0.81506 -0.39394,-1.65729 -0.32602,-2.51309l0.31244,-4.29262c0,-1.88821 0.62488,-3.35532 1.88821,-4.48281c3.77643,-3.38248 11.89981,-2.49951 11.9949,-2.48592h0.19018c0.08151,-0.01359 8.2049,-0.89656 11.99492,2.48592c1.26332,1.12749 1.87462,2.59459 1.87462,4.59148l0.32603,4.18396c0.06791,0.85581 -0.05434,1.69803 -0.33961,2.51309zM10.32047,23.22813l-0.24452,3.12438c-1.75237,-0.20376 -5.22994,-1.18183 -7.13174,-5.63747c0.9509,-0.97807 3.27381,-2.43158 7.81095,-0.35319c-0.28527,0.89656 -0.4347,1.84746 -0.4347,2.86628zM9.04355,5.07955c3.96661,4.63223 7.48493,7.32192 10.29688,8.92486c-2.22782,0.44828 -4.52356,1.27692 -6.23518,2.81194c-0.10868,0.09509 -0.19018,0.19018 -0.28527,0.28527c-3.28739,-4.91751 -3.85793,-9.29164 -3.77643,-12.02208zM44.94675,5.07955c0.08151,2.71685 -0.48902,7.10457 -3.77642,12.02208c-0.09509,-0.09509 -0.1766,-0.19018 -0.28527,-0.28527c-1.71161,-1.53502 -3.99377,-2.36366 -6.23517,-2.81194c2.81195,-1.58936 6.34385,-4.29263 10.29686,-8.92486zM43.91435,26.35251v0l-0.23093,-3.02929c0,-1.05958 -0.16301,-2.05123 -0.46187,-2.96137c4.55074,-2.07839 6.88723,-0.62488 7.82454,0.35319c-1.9018,4.45564 -5.37937,5.43371 -7.13174,5.63747M53.32826,19.19361c-0.84223,-1.00524 -3.65416,-3.627 -8.92487,-2.14632c4.4013,-7.62078 3.17872,-13.9918 2.85268,-15.32305l-0.29884,-0.91015v0l-0.84223,-0.1766c-0.54337,-0.10867 -1.14108,0.09509 -1.49427,0.54337c-8.74828,11.19344 -15.33665,12.26659 -16.50489,12.37527c-0.50261,0.02717 -0.89656,0.05434 -1.11391,0.06792c-0.21735,-0.01358 -0.58413,-0.04075 -1.05957,-0.06792c-0.93731,-0.0815 -7.64794,-0.9509 -16.5728,-12.37527c-0.35319,-0.44828 -0.9509,-0.66563 -1.50785,-0.54337l-0.92373,0.27169v0l-0.20377,0.82864c-0.32602,1.33126 -1.53502,7.68869 2.85269,15.30947c-5.27069,-1.48068 -8.08264,1.14108 -8.92486,2.14632c-0.5162,0.63845 -0.65204,1.50785 -0.35319,2.28215c2.25499,5.58314 6.79213,7.34909 9.72633,7.62078c0.06792,0.65204 0.21735,1.30409 0.4347,1.92897l6.92798,19.75152c0.10867,0.29886 0.10867,0.62488 0,0.89658c-0.59771,1.6301 -1.34485,4.78166 0.40753,7.52566c1.53502,2.41802 4.61865,3.83078 9.14221,4.19755h0.09509c4.52356,-0.36676 7.60719,-1.77953 9.15579,-4.19755c1.73879,-2.744 0.99166,-5.89556 0.39395,-7.52566c-0.09509,-0.27169 -0.09509,-0.59772 0.01359,-0.89658l6.91439,-19.75152c0.21735,-0.62487 0.36678,-1.27692 0.4347,-1.92897c2.9342,-0.27168 7.47136,-2.03764 9.72634,-7.62078c0.31243,-0.7743 0.17659,-1.65728 -0.35319,-2.28215" fill="#283b8b" fill-opacity="1"></path></g></g></svg>