<?xml version="1.0" encoding="UTF-8"?>
<svg id="SVGDoc" width="30" height="21" xmlns="http://www.w3.org/2000/svg" version="1.1" xmlns:xlink="http://www.w3.org/1999/xlink" xmlns:avocode="https://avocode.com/" viewBox="0 0 30 21"><defs></defs><desc>Generated with Avocode.</desc><g><g><title>menu-right</title><g><title>Caminho 26029</title><path d="M30.00049,19.508c0,0.825 -0.669,1.492 -1.492,1.492h-12.015c-0.82429,0 -1.4925,-0.66822 -1.4925,-1.4925c0,-0.82429 0.66821,-1.4925 1.4925,-1.4925h12.015c0.825,0 1.492,0.667 1.492,1.492z" fill="#ffffff" fill-opacity="1"></path></g><g><title>Caminho 26030</title><path d="M30.00049,10.5c0,0.825 -0.669,1.492 -1.492,1.492h-27.016c-0.82429,0 -1.4925,-0.66822 -1.4925,-1.4925c0,-0.82429 0.66822,-1.4925 1.4925,-1.4925h27.015c0.825,0 1.492,0.669 1.492,1.492z" fill="#ffffff" fill-opacity="1"></path></g><g><title>Caminho 26031</title><path d="M28.50849,2.985c0.82428,0 1.4925,-0.66822 1.4925,-1.4925c0,-0.82428 -0.66822,-1.4925 -1.4925,-1.4925h-18.016c-0.82429,0 -1.4925,0.66821 -1.4925,1.4925c0,0.82428 0.66822,1.4925 1.4925,1.4925h18.015v0z" fill="#ffffff" fill-opacity="1"></path></g></g></g></svg>