<?xml version="1.0" encoding="UTF-8"?>
<svg id="SVGDoc" width="64" height="58" xmlns="http://www.w3.org/2000/svg" version="1.1" xmlns:xlink="http://www.w3.org/1999/xlink" xmlns:avocode="https://avocode.com/" viewBox="0 0 64 58"><defs></defs><desc>Generated with Avocode.</desc><g><g clip-path="url(#clip-3240c0d5-b460-4ebc-9c83-8f68cd2a748e)"><title>Caminho 25431</title><path d="M33.68752,54.88925c-0.08459,0.01147 -8.43021,0.84732 -14.45035,-4.55202c-4.13482,-3.71044 -6.26818,-9.52413 -6.37714,-17.25613c2.72405,-2.23945 4.42156,-6.62373 5.02085,-13.10122c0.07312,-0.78711 -0.5061,-1.48676 -1.29464,-1.55988c-0.79141,-0.08172 -1.48819,0.50753 -1.55987,1.29607c-0.67958,7.33342 -2.6538,10.21661 -4.1893,11.34494c-1.30181,0.95341 -2.4201,0.72832 -2.52763,0.70395c-5.70903,-1.10252 -4.92479,-11.88401 -4.7083,-14.03314c0.04444,-0.45879 0.21362,-0.87743 0.48603,-1.21292c3.61868,-4.46314 12.97793,-2.71402 13.07543,-2.69681c0.46452,0.09033 0.95054,-0.05591 1.28604,-0.39284c4.41869,-4.41869 13.05105,-5.12838 13.14424,-5.13841c0.78711,-0.08602 1.35629,-0.79284 1.27027,-1.57995c-0.08459,-0.78711 -0.80717,-1.36202 -1.57851,-1.2717c-0.4043,0.04444 -9.0553,0.7484 -14.31701,5.44666c-2.57494,-0.37563 -11.05963,-1.16704 -15.10699,3.82657c-0.62653,0.77134 -1.01076,1.71615 -1.11399,2.73265c-0.36273,3.63302 -0.93191,15.60019 6.93055,17.11418c0.09319,0.02437 0.48459,0.11613 1.06955,0.11613c0.36273,0 0.81148,-0.05305 1.29751,-0.16201c0.35986,7.89257 2.7943,13.94999 7.30475,17.98158c5.26027,4.70256 11.81089,5.32193 14.90053,5.32193c1.0165,0 1.6588,-0.06596 1.7563,-0.07742c0.78567,-0.08889 1.35055,-0.79572 1.26309,-1.58282c-0.08746,-0.78567 -0.79714,-1.35199 -1.58138,-1.2674" fill="#283b8b" fill-opacity="1"></path></g><g clip-path="url(#clip-3240c0d5-b460-4ebc-9c83-8f68cd2a748e)"><title>Caminho 25432</title><path d="M62.73447,0.38394c-0.43155,-0.25807 -0.97063,-0.26954 -1.41508,-0.03154l-12.95211,6.96209c-1.49536,-0.61506 -5.25025,-1.94411 -9.75353,-1.94411c-0.7914,0 -1.43371,0.6423 -1.43371,1.43371c0,0.79141 0.6423,1.43371 1.43371,1.43371c5.05096,0 9.15424,1.94268 9.19582,1.96131c0.41147,0.19785 0.89606,0.18925 1.30181,-0.02867l11.45389,-6.15778v0v28.70142c0,6.70259 -1.94267,12.02594 -5.77497,15.82241c-6.47607,6.41727 -14.87186,6.1463 -15.00807,6.14057c-0.73836,-0.03441 -1.43945,0.62796 -1.44804,1.41938c-0.00717,0.78996 0.6251,1.438 1.4165,1.44804h0.07455c1.06239,0 9.84815,0.08029 16.96366,-6.95061c4.40864,-4.35704 6.6438,-10.37289 6.6438,-17.87978v-31.10002c0,-0.50467 -0.26525,-0.97062 -0.69822,-1.23012" fill="#283b8b" fill-opacity="1"></path></g><g clip-path="url(#clip-3240c0d5-b460-4ebc-9c83-8f68cd2a748e)"><title>Caminho 25433</title><path d="M30.75989,39.23889c0,1.22009 2.01006,2.20935 4.4875,2.20935c2.47889,0 4.48895,-0.98925 4.48895,-2.20935c0,-1.22008 -2.01006,-2.20934 -4.48895,-2.20934c-2.47745,0 -4.4875,0.98926 -4.4875,2.20934" fill="#283b8b" fill-opacity="1"></path></g></g></svg>