<?xml version="1.0" encoding="UTF-8"?>
<svg id="SVGDoc" width="58" height="58" xmlns="http://www.w3.org/2000/svg" version="1.1" xmlns:xlink="http://www.w3.org/1999/xlink" xmlns:avocode="https://avocode.com/" viewBox="0 0 58 58"><defs></defs><desc>Generated with Avocode.</desc><g><g clip-path="url(#clip-144cdfcb-5454-4b73-af6a-a864c5348715)"><title>Caminho 25436</title><path d="M48.62391,18.34719c-0.93628,0.49272 -1.36979,1.61163 -1.01153,2.6041c0.59307,1.63972 3.3487,10.17255 -0.63222,17.11281c-2.73857,4.7767 -8.11938,7.93473 -15.98989,9.38581c-9.08776,1.67486 -16.46455,-0.5118 -21.32955,-6.3231c-6.10634,-7.29249 -6.69841,-18.26785 -4.7777,-23.38674c0.05319,-0.14049 0.19669,-0.22679 0.35825,-0.22679c0.04415,0 0.09032,0.00702 0.13648,0.02107c4.48066,1.3748 20.16649,4.78573 33.91955,-8.96735c0.40041,-0.4014 0.5429,-0.99247 0.36629,-1.53135l-0.3422,-1.04766l1.59859,0.13447c0.68138,0.0572 1.31059,-0.34621 1.54239,-0.98544l0.50076,-1.37782l0.81585,0.81585c0.57903,0.57702 1.51028,0.58806 2.10134,0.0271l1.10486,-1.05067l0.61918,1.31861c0.27596,0.58806 0.90214,0.93025 1.54239,0.85499l1.47515,-0.17662l-0.1465,2.3171c-0.01706,0.26392 0.03612,0.52784 0.15353,0.76367l3.4049,6.86499zM30.21256,54.8859h-1.49121l-2.58403,-3.89061c0.47064,-0.01303 0.95032,-0.03912 1.44003,-0.07526zM56.82457,14.3462v0l-3.3196,-6.69239v0l0.17059,-2.68739c0.04517,-0.70446 -0.22278,-1.38584 -0.73457,-1.86953c-0.51279,-0.48469 -1.20521,-0.7145 -1.90867,-0.6302l-1.16507,0.13949v0l-0.53688,-1.14299c-0.32212,-0.6864 -0.96035,-1.17912 -1.70495,-1.31961c-0.75064,-0.14049 -1.51832,0.08831 -2.06623,0.61013l-0.68941,0.65529v0l-0.49273,-0.49373c-0.57501,-0.57501 -1.39388,-0.81384 -2.18464,-0.63823c-0.79377,0.17561 -1.43401,0.73657 -1.71299,1.50225l-0.45258,1.24636v0l-1.41996,-0.12042c-0.78876,-0.07025 -1.56145,0.26493 -2.05418,0.88911c-0.49372,0.62318 -0.64124,1.44605 -0.39437,2.2027l0.35323,1.08278c-12.40335,11.81831 -26.24874,8.80377 -30.25173,7.57648c-1.72703,-0.52985 -3.56847,0.36026 -4.19466,2.02608c-2.50074,6.66228 -1.18916,18.64216 5.28748,26.3772c2.87605,3.435 7.63569,7.07673 15.08974,7.81532l2.66532,4.01102v0h-1.69793c-0.8309,0 -1.50526,0.67335 -1.50526,1.50526c0,0.8309 0.67436,1.50526 1.50526,1.50526h13.25231c0.8309,0 1.50526,-0.67436 1.50526,-1.50526c0,-0.83191 -0.67436,-1.50526 -1.50526,-1.50526h-2.83591v0l-2.90716,-4.3753c0.20672,-0.03512 0.40843,-0.06121 0.61816,-0.10035c8.78069,-1.61965 14.85493,-5.26941 18.05511,-10.84792c4.16957,-7.2704 2.17963,-15.59651 1.10185,-18.90306l4.93023,-2.60009c1.35172,-0.71249 1.87957,-2.34319 1.2002,-3.71298" fill="#fff" fill-opacity="1"></path></g></g></svg>