<?xml version="1.0" encoding="UTF-8"?>
<svg id="SVGDoc" width="30" height="7" xmlns="http://www.w3.org/2000/svg" version="1.1" xmlns:xlink="http://www.w3.org/1999/xlink" xmlns:avocode="https://avocode.com/" viewBox="0 0 30 7"><defs></defs><desc>Generated with Avocode.</desc><g><g><title>Caminho 25454</title><path d="M25.875,6.75c-1.86396,0 -3.375,-1.51104 -3.375,-3.375c0,-1.86396 1.51104,-3.375 3.375,-3.375c1.86396,0 3.375,1.51104 3.375,3.375c0,1.86396 -1.51104,3.375 -3.375,3.375zM14.625,6.75c-1.86396,0 -3.375,-1.51104 -3.375,-3.375c0,-1.86396 1.51104,-3.375 3.375,-3.375c1.86396,0 3.375,1.51104 3.375,3.375c0,1.86396 -1.51104,3.375 -3.375,3.375zM3.375,6.75c-1.86396,0 -3.375,-1.51104 -3.375,-3.375c0,-1.86396 1.51104,-3.375 3.375,-3.375c1.86396,0 3.375,1.51104 3.375,3.375c0,1.86396 -1.51104,3.375 -3.375,3.375z" fill="#eb7a2f" fill-opacity="1"></path></g></g></svg>