<?xml version="1.0" encoding="UTF-8"?>
<svg id="SVGDoc" width="70" height="43" xmlns="http://www.w3.org/2000/svg" version="1.1" xmlns:xlink="http://www.w3.org/1999/xlink" xmlns:avocode="https://avocode.com/" viewBox="0 0 70 43"><defs></defs><desc>Generated with Avocode.</desc><g><g clip-path="url(#clip-225bae67-fcdb-46d9-b996-0c097de3d56a)"><title>Caminho 25439</title><path d="M67.82357,32.8736c-2.41224,-0.04536 -9.12159,-1.21193 -16.9838,-11.22481c7.86221,-10.01393 14.57156,-11.1805 16.9838,-11.22585zM23.81882,35.91976c-7.28314,0 -12.44621,-3.06514 -15.91006,-6.38976c-0.15716,-0.15399 -0.31748,-0.30166 -0.47148,-0.46093l-0.0211,-0.02215c-2.00722,-2.06944 -3.76023,-4.52177 -5.11771,-7.40866c1.37752,-2.92381 3.16851,-5.39195 5.21053,-7.47723c0.1118,-0.11286 0.2215,-0.22572 0.33752,-0.33752c0.02426,-0.02426 0.05063,-0.04747 0.07489,-0.07172c3.46384,-3.31934 8.6248,-6.37394 15.8974,-6.37394c7.85799,0 15.94276,4.80867 24.03807,14.27096c-8.09531,9.46124 -16.18008,14.27096 -24.03807,14.27096zM35.95072,40.24534c0,0.06118 -0.02743,0.1002 -0.05168,0.12235c-0.0327,0.03164 -0.0886,0.04957 -0.11919,0.04219c-2.53144,-0.14556 -7.56899,-0.65923 -13.1065,-2.41436c0.37866,0.01687 0.75626,0.03376 1.14547,0.03376c4.02498,0 8.07738,-1.14547 12.1319,-3.39212zM35.89904,2.9299c0.02425,0.02215 0.05168,0.06012 0.05168,0.1213v5.60818c-4.05451,-2.24665 -8.10692,-3.39107 -12.1319,-3.39107c-0.38815,0 -0.7647,0.01688 -1.14231,0.0327c5.53751,-1.75407 10.57295,-2.26774 13.10334,-2.41436c0.04008,-0.00738 0.08754,0.01266 0.11919,0.04325zM49.49178,21.64879l-0.12657,0.09599l-0.11497,-0.09599l0.11497,-0.09598zM68.28556,8.31658c-2.22556,-0.06434 -10.0519,0.59594 -18.9499,11.81758c-3.7444,-4.35407 -7.50886,-7.76201 -11.27542,-10.20695v-6.87601c0,-0.62442 -0.25947,-1.22775 -0.71196,-1.65493c-0.45145,-0.42612 -1.06427,-0.64657 -1.68974,-0.61598c-5.97418,0.34491 -25.23312,2.64008 -34.00032,17.56498c-1.01363,1.6602 -1.49776,2.812 -1.51464,2.85419l-0.077,0.19091v0l0.00738,0.04852v0l-0.00738,0.01899v0v0.44933v0l0.077,0.18986c0.01688,0.04325 0.5084,1.21087 1.53679,2.89111c8.79673,14.89748 28.01348,17.18527 33.97817,17.52807c0.04325,0.00211 0.08649,0.00422 0.12974,0.00422c0.57695,0 1.13914,-0.22149 1.55894,-0.61809c0.45354,-0.42822 0.71301,-1.03156 0.71301,-1.65703v-6.876c3.76657,-2.44495 7.53102,-5.85183 11.27542,-10.2059c8.55309,10.78814 16.11469,11.82075 18.66617,11.82075c0.10336,0 0.19724,-0.00106 0.28373,-0.00422c0.92397,-0.02953 1.64754,-0.77947 1.64754,-1.70766v-11.62351v0v-11.62456c0,-0.92714 -0.72357,-1.67707 -1.64754,-1.70766" fill="#fff" fill-opacity="1"></path></g></g></svg>