<?xml version="1.0" encoding="UTF-8"?>
<svg id="SVGDoc" width="62" height="53" xmlns="http://www.w3.org/2000/svg" version="1.1" xmlns:xlink="http://www.w3.org/1999/xlink" xmlns:avocode="https://avocode.com/" viewBox="0 0 62 53"><defs></defs><desc>Generated with Avocode.</desc><g><g clip-path="url(#clip-b3c4e5f6-52d6-44c9-9bf9-72e0edfa607d)"><title>Caminho 25438</title><path d="M58.74326,26.05429c-0.14644,-0.21014 -0.25373,-0.46163 -0.30962,-0.72766c-1.66547,-7.79972 -5.75087,-12.69104 -7.42975,-14.43138c-0.50187,-0.522 -0.80254,-1.17365 -0.84278,-1.83536c-0.18555,-2.98553 0.87185,-7.00835 0.9948,-7.46775c0.0816,-0.31409 0.01677,-0.68295 -0.16655,-0.94898c-0.18666,-0.27162 -0.5231,-0.46834 -0.8506,-0.50187c-4.66888,-0.46499 -7.85114,3.45723 -8.86606,4.93379c-11.42238,0.12631 -20.75231,3.73555 -27.72825,10.75172c-13.38516,13.46229 -13.42093,34.45157 -13.41534,35.33796c0.00224,0.61588 0.50299,1.11105 1.11776,1.11105h0.00447c0.61812,-0.00223 1.11552,-0.50634 1.11329,-1.12334c-0.00112,-0.20791 0.04695,-20.96917 12.77598,-33.75968c4.36038,-4.38161 9.72562,-7.34144 16.01413,-8.87053c-24.53704,11.68617 -24.18159,42.315 -24.17377,42.66151c0.01453,0.60918 0.51193,1.09206 1.11776,1.09206h0.02571c0.617,-0.01341 1.10546,-0.52535 1.09205,-1.14235c-0.03353,-1.52127 -0.43257,-37.33874 32.88558,-43.85527c0.03577,-0.00783 0.06483,-0.03242 0.09948,-0.04248c0.08495,-0.02571 0.16096,-0.05924 0.23586,-0.10283c0.05476,-0.0313 0.10507,-0.0626 0.15425,-0.10395c0.06929,-0.05701 0.12519,-0.12184 0.17884,-0.19449c0.02459,-0.03353 0.06148,-0.05477 0.08271,-0.09054c0.02572,-0.04359 2.30929,-3.87303 5.80677,-4.35479c-0.37222,1.67552 -0.87632,4.45986 -0.7299,6.80939c0.07378,1.19041 0.59241,2.34394 1.46538,3.24821c1.54587,1.60287 5.30713,6.11079 6.85299,13.34716c0.11848,0.56112 0.34092,1.07752 0.65836,1.5358c1.72694,2.48478 2.79775,4.71024 2.72845,5.66816c-0.11513,1.5481 -2.66697,4.41963 -6.43494,4.26873c-0.02122,-0.00112 -2.11479,-0.19672 -4.25753,-3.87192c-0.48511,-0.73773 -4.83096,-7.2375 -7.78296,-8.26024c-0.40016,-0.13972 -0.84279,-0.04024 -1.14682,0.25485c-0.19002,0.18555 -4.65211,4.60516 -3.42146,9.65074c0.40017,1.6431 1.15466,3.51088 1.95161,5.48932c1.3782,3.41587 2.93971,7.28778 2.61668,10.13919c-0.07042,0.61253 0.36998,1.16582 0.98251,1.23624c0.6237,0.07154 1.16694,-0.3722 1.23736,-0.98474c0.38898,-3.41364 -1.28654,-7.56499 -2.7631,-11.22678c-0.76678,-1.90131 -1.49109,-3.69643 -1.85325,-5.18305c-0.70978,-2.90617 1.29102,-5.7464 2.28694,-6.93681c1.78059,1.18818 4.53586,4.78848 5.99342,6.9994c2.7508,4.72477 5.74975,4.9215 6.06161,4.92709c4.59399,0.16991 8.53744,-3.32198 8.75875,-6.33882c0.14307,-1.95607 -1.61739,-4.94496 -3.12077,-7.10671" fill="#283b8b" fill-opacity="1"></path></g></g></svg>