<?xml version="1.0" encoding="UTF-8"?>
<svg id="SVGDoc" width="18" height="16" xmlns="http://www.w3.org/2000/svg" version="1.1" xmlns:xlink="http://www.w3.org/1999/xlink" xmlns:avocode="https://avocode.com/" viewBox="0 0 18 16"><defs></defs><desc>Generated with Avocode.</desc><g><g><title>Icon awesome-twitter</title><path d="M16.19318,4.41946c0.01116,0.15615 0.01116,0.31234 0.01116,0.4685c0,4.76289 -3.62515,10.25087 -10.25087,10.25087c-2.04126,0 -3.93749,-0.59121 -5.53257,-1.61736c0.29002,0.03344 0.56886,0.0446 0.87004,0.0446c1.68428,0 3.23477,-0.56886 4.47291,-1.53929c-1.58392,-0.03348 -2.9113,-1.07083 -3.36864,-2.4986c0.22311,0.03344 0.44618,0.05576 0.68044,0.05576c0.32347,0 0.64697,-0.04463 0.94812,-0.12268c-1.65084,-0.33466 -2.88902,-1.78471 -2.88902,-3.53595v-0.0446c0.47962,0.26771 1.03739,0.43502 1.62852,0.4573c-0.97043,-0.64697 -1.60621,-1.75124 -1.60621,-3.00053c0,-0.66925 0.17844,-1.28274 0.49078,-1.81815c1.77355,2.18626 4.43946,3.61399 7.4288,3.77018c-0.05576,-0.26771 -0.08924,-0.54654 -0.08924,-0.8254c0,-1.9855 1.60624,-3.60287 3.60287,-3.60287c1.03735,0 1.97431,0.43502 2.63243,1.13775c0.81425,-0.15615 1.59505,-0.45734 2.28665,-0.87004c-0.26774,0.8366 -0.8366,1.53932 -1.58393,1.98547c0.72505,-0.07804 1.42777,-0.27887 2.0747,-0.5577c-0.49071,0.71385 -1.10423,1.34962 -1.80696,1.86276z" fill="#a1a1a1" fill-opacity="1"></path></g></g></svg>