<svg width="23" height="23" viewBox="0 0 23 23" fill="none" xmlns="http://www.w3.org/2000/svg">
<path d="M4.19759 0C1.87241 0 0 1.87241 0 4.19759V18.7918C0 21.1169 1.87241 22.9893 4.19759 22.9893H12.1074V14.0022H9.73116V10.7663H12.1074V8.0018C12.1074 5.82988 13.5117 3.8355 16.7463 3.8355C18.0561 3.8355 19.0242 3.96131 19.0242 3.96131L18.9482 6.98322C18.9482 6.98322 17.9603 6.97364 16.883 6.97364C15.7162 6.97364 15.5297 7.51135 15.5297 8.40349V10.7663H19.0415L18.8882 14.0022H15.5297V22.99H18.7924C21.1176 22.99 22.99 21.1176 22.99 18.7924V4.1976C22.99 1.87242 21.1176 1.00136e-05 18.7924 1.00136e-05L4.19759 0Z" fill="white"/>
<path d="M4.19759 0C1.87241 0 0 1.87241 0 4.19759V18.7918C0 21.1169 1.87241 22.9893 4.19759 22.9893H12.1074V14.0022H9.73116V10.7663H12.1074V8.0018C12.1074 5.82988 13.5117 3.8355 16.7463 3.8355C18.0561 3.8355 19.0242 3.96131 19.0242 3.96131L18.9482 6.98322C18.9482 6.98322 17.9603 6.97364 16.883 6.97364C15.7162 6.97364 15.5297 7.51135 15.5297 8.40349V10.7663H19.0415L18.8882 14.0022H15.5297V22.99H18.7924C21.1176 22.99 22.99 21.1176 22.99 18.7924V4.1976C22.99 1.87242 21.1176 1.00136e-05 18.7924 1.00136e-05L4.19759 0Z" fill="white"/>
</svg>
