<svg width="23" height="23" viewBox="0 0 23 23" fill="none" xmlns="http://www.w3.org/2000/svg">
<path d="M20.4356 0C21.0742 0 21.6153 0.22181 22.0589 0.66543C22.5025 1.10905 22.7241 1.63229 22.7237 2.23513V20.4355C22.7237 21.0388 22.5019 21.562 22.0583 22.0052C21.6147 22.4484 21.0737 22.6702 20.4356 22.6707H2.28814C1.64953 22.6707 1.10841 22.4489 0.664791 22.0052C0.221171 21.5616 -0.000429375 21.0384 6.24578e-07 20.4355V2.23513C6.24578e-07 1.63186 0.221811 1.10862 0.665431 0.66543C1.10905 0.22223 1.64996 0.00042 2.28814 0H20.4356ZM19.318 6.7054C18.8569 6.91827 18.3071 7.07792 17.6685 7.18436C18.3071 6.72328 18.7328 6.15556 18.9457 5.48118C18.236 5.87158 17.5797 6.12 16.9768 6.22644C16.5511 5.7296 16.0013 5.4369 15.3273 5.34835C14.6534 5.2598 14.0237 5.34856 13.4383 5.61465C12.8529 5.88074 12.3829 6.32415 12.0283 6.94488C11.6736 7.56561 11.5848 8.2485 11.762 8.99354C9.38504 8.85177 7.29188 7.80509 5.48248 5.85349C5.09208 6.5632 5.01225 7.33485 5.243 8.16845C5.47375 9.00205 5.85479 9.57871 6.38612 9.89845C5.99572 9.86311 5.56997 9.73901 5.1089 9.52614C5.14424 11.0516 5.92483 12.0627 7.45069 12.5595C7.02495 12.666 6.59921 12.6836 6.17347 12.6125C6.59921 13.8898 7.53946 14.5993 8.99422 14.741C8.46204 15.2021 7.77022 15.548 6.91873 15.7788C6.06725 16.0095 5.26877 16.0717 4.5233 15.9652C6.11983 16.9585 7.75191 17.4198 9.41953 17.3491C11.9029 17.2427 13.9162 16.3646 15.4595 14.7148C17.0028 13.0651 17.7924 10.9275 17.8281 8.30191C18.6085 7.66331 19.1051 7.13113 19.318 6.7054Z" fill="white"/>
</svg>
