<svg width="23" height="24" viewBox="0 0 23 24" fill="none" xmlns="http://www.w3.org/2000/svg">
<path d="M17.6314 4.33092C16.8696 4.33092 16.252 4.9485 16.252 5.71032C16.2838 6.44907 16.892 7.03162 17.6314 7.03162C18.3709 7.03162 18.979 6.44907 19.0108 5.71032C19.0108 4.9485 18.3932 4.33092 17.6314 4.33092ZM11.495 15.6771C9.378 15.6771 7.66333 13.9625 7.66333 11.8455C7.66333 9.72847 9.378 8.0138 11.495 8.0138C13.612 8.0138 15.3267 9.72847 15.3267 11.8455C15.3267 13.9625 13.612 15.6771 11.495 15.6771ZM11.495 5.94278C8.23504 5.94278 5.59232 8.5855 5.59232 11.8455C5.59232 15.1054 8.23504 17.7481 11.495 17.7481C14.755 17.7481 17.3977 15.1054 17.3977 11.8455C17.3977 8.5855 14.755 5.94278 11.495 5.94278ZM11.495 2.41956C14.5629 2.41956 14.9288 2.43489 16.1409 2.48725C17.2617 2.54025 17.8703 2.72545 18.2739 2.88447C18.8122 3.09266 19.1935 3.34172 19.5977 3.74276C19.9988 4.14508 20.2478 4.52697 20.456 5.06532C20.6131 5.46956 20.8008 6.07752 20.8513 7.19828C20.9062 8.411 20.9183 8.77501 20.9183 11.8442C20.9183 14.9133 20.9043 15.278 20.8475 16.4901C20.7893 17.6108 20.6022 18.2194 20.4445 18.623C20.2574 19.1219 19.9634 19.5738 19.583 19.9469C19.2115 20.3274 18.7599 20.6206 18.2611 20.8052C17.8588 20.9622 17.2412 21.15 16.1198 21.2005C14.8994 21.2554 14.5399 21.2675 11.4656 21.2675C8.39007 21.2675 8.03053 21.2535 6.81142 21.1966C5.69002 21.1385 5.07184 20.9514 4.66952 20.7937C4.17021 20.6089 3.7187 20.3145 3.34823 19.9322C2.9637 19.5631 2.66879 19.1109 2.48611 18.6103C2.32837 18.2079 2.14254 17.5904 2.08378 16.469C2.04035 15.262 2.02567 14.8891 2.02567 11.8289C2.02567 8.76735 2.041 8.39376 2.08378 7.17274C2.14189 6.05198 2.32837 5.43508 2.48611 5.03276C2.68727 4.48675 2.94463 4.11316 3.34824 3.7102C3.74929 3.30915 4.12415 3.05052 4.66953 2.84999C5.07186 2.69098 5.67598 2.5045 6.79738 2.44703C8.0184 2.4036 8.37794 2.38955 11.4516 2.38955L11.495 2.41829L11.495 2.41956ZM11.495 0.350464C8.37219 0.350464 7.98264 0.364514 6.75587 0.419434C5.53229 0.476904 4.69826 0.669774 3.96578 0.953954C3.2103 1.24707 2.56786 1.64046 1.92925 2.27971C1.29064 2.91896 0.89598 3.55949 0.60349 4.31624C0.31931 5.04873 0.12581 5.88275 0.06897 7.10633C0.01149 8.3331 0 8.72265 0 11.8455C0 14.9683 0.01405 15.3578 0.06897 16.5846C0.12645 17.8075 0.31931 18.6422 0.60349 19.3747C0.89211 20.1418 1.34454 20.8368 1.92925 21.4112C2.50331 21.9963 3.19839 22.4488 3.96578 22.737C4.69954 23.0205 5.53293 23.2147 6.75587 23.2715C7.98264 23.329 8.37219 23.3405 11.495 23.3405C14.6178 23.3405 15.0074 23.3264 16.2341 23.2715C17.4571 23.214 18.2917 23.0205 19.0242 22.737C19.7912 22.448 20.4861 21.9956 21.0608 21.4112C21.6461 20.8373 22.0986 20.1422 22.3865 19.3747C22.6701 18.6422 22.8642 17.8075 22.921 16.5846C22.9785 15.3585 22.99 14.9689 22.99 11.8455C22.99 8.72202 22.976 8.3331 22.921 7.10633C22.8636 5.88339 22.6701 5.04745 22.3865 4.31624C22.0978 3.54916 21.6454 2.8542 21.0608 2.27971C20.4871 1.69409 19.7919 1.24152 19.0242 0.953964C18.2917 0.669144 17.4571 0.476284 16.2341 0.419444C15.0074 0.361974 14.6178 0.350464 11.495 0.350464Z" fill="white"/>
</svg>
