<?xml version="1.0" encoding="UTF-8"?>
<svg id="SVGDoc" width="28" height="28" xmlns="http://www.w3.org/2000/svg" version="1.1" xmlns:xlink="http://www.w3.org/1999/xlink" xmlns:avocode="https://avocode.com/" viewBox="0 0 28 28"><defs></defs><desc>Generated with Avocode.</desc><g><g><title>icons Q2</title><g><title>Grupo 9262</title><g><title>Caminho 25446</title><path d="M13.99976,24.97296c-6.0602,0 -10.97296,-4.91277 -10.97296,-10.97297c0,-6.0602 4.91276,-10.97296 10.97296,-10.97296c6.0602,0 10.97296,4.91276 10.97296,10.97296c-0.03332,6.04635 -4.92661,10.93965 -10.97296,10.97296zM13.99976,0.5886c-7.40691,0 -13.41139,6.00449 -13.41139,13.4114c0,7.40691 6.00449,13.4114 13.4114,13.4114c7.40691,0 13.4114,-6.00449 13.4114,-13.4114c0.0163,-3.5619 -1.39145,-6.98262 -3.91012,-9.50128c-2.51867,-2.51867 -5.93939,-3.92641 -9.50129,-3.91011z" fill="#ffffff" fill-opacity="1"></path></g><g><title>Caminho 25447</title><path d="M20.09584,12.78078h-4.87687v0v-4.87687c0,-0.67336 -0.54586,-1.21922 -1.21922,-1.21922c-0.67336,0 -1.21922,0.54586 -1.21922,1.21922v4.87687v0h-4.87687c-0.67336,0 -1.21922,0.54586 -1.21922,1.21922c0,0.67336 0.54586,1.21922 1.21922,1.21922h4.87687v0v4.87687c0,0.67336 0.54586,1.21922 1.21922,1.21922c0.67336,0 1.21922,-0.54586 1.21922,-1.21922v-4.87687v0h4.87687c0.67336,0 1.21922,-0.54586 1.21922,-1.21922c0,-0.67336 -0.54586,-1.21922 -1.21922,-1.21922z" fill="#ffffff" fill-opacity="1"></path></g></g></g></g></svg>