<?xml version="1.0" encoding="UTF-8"?>
<svg id="SVGDoc" width="19" height="18" xmlns="http://www.w3.org/2000/svg" version="1.1" xmlns:xlink="http://www.w3.org/1999/xlink" xmlns:avocode="https://avocode.com/" viewBox="0 0 19 18"><defs></defs><desc>Generated with Avocode.</desc><g><g><title>Icon simple-instagram</title><path d="M14.29394,3.30212c-0.57677,0 -1.04602,0.46853 -1.04602,1.04529c0,0.57677 0.46853,1.04602 1.04602,1.04602c0.57676,0 1.04602,-0.46853 1.04602,-1.04602c0,-0.57676 -0.46999,-1.04602 -1.04602,-1.04529zM9.64062,11.9056c-1.60534,0 -2.9056,-1.30025 -2.9056,-2.9056c0,-1.60534 1.30026,-2.9056 2.9056,-2.9056c1.60534,0 2.9056,1.30026 2.9056,2.9056c0,1.60534 -1.30025,2.9056 -2.9056,2.9056zM9.64062,4.52392c-2.47339,0 -4.47607,2.00486 -4.47607,4.47607c0,2.47339 2.00486,4.47607 4.47607,4.47607c2.47339,0 4.47607,-2.00486 4.47607,-4.47607c0,-2.47339 -2.00486,-4.47607 -4.47607,-4.47607zM9.64062,1.85223c2.32666,0 2.60414,0.01162 3.52304,0.05157c0.84989,0.03995 1.31115,0.18087 1.61769,0.30146c0.40824,0.15763 0.69734,0.34649 1.00388,0.65085c0.30436,0.30509 0.49323,0.59492 0.65086,1.00316c0.11913,0.30654 0.2615,0.7678 0.3,1.61769c0.0414,0.91962 0.05085,1.19565 0.05085,3.52304c0,2.32738 -0.0109,2.60414 -0.05375,3.52304c-0.04431,0.84989 -0.18596,1.31115 -0.30581,1.61769c-0.16271,0.40824 -0.34795,0.69734 -0.65303,1.00388c-0.30436,0.30436 -0.59855,0.49323 -1.00243,0.65086c-0.30509,0.11913 -0.77362,0.2615 -1.6235,0.3c-0.92543,0.0414 -1.19783,0.05085 -3.52958,0.05085c-2.33247,0 -2.60487,-0.0109 -3.52958,-0.05375c-0.85061,-0.04431 -1.31914,-0.18596 -1.62423,-0.30581c-0.41332,-0.16271 -0.69734,-0.34795 -1.00171,-0.65303c-0.30581,-0.30436 -0.50122,-0.59855 -0.65376,-1.00243c-0.11986,-0.30509 -0.26078,-0.77362 -0.30509,-1.6235c-0.03269,-0.91526 -0.04431,-1.19783 -0.04431,-3.51868c0,-2.32157 0.01162,-2.60487 0.04431,-3.53103c0.04431,-0.84989 0.18523,-1.31769 0.30509,-1.62278c0.15254,-0.41405 0.34795,-0.69734 0.65376,-1.00316c0.30436,-0.30436 0.58838,-0.50049 1.00171,-0.65231c0.30509,-0.12058 0.76345,-0.26223 1.61333,-0.30581c0.92616,-0.03269 1.19856,-0.04358 3.52958,-0.04358l0.03269,0.02179zM9.64062,0.2832c-2.36806,0 -2.66371,0.0109 -3.5935,0.0523c-0.92834,0.04358 -1.56031,0.18959 -2.116,0.40533c-0.57313,0.22228 -1.05982,0.52083 -1.54433,1.00534c-0.48451,0.48451 -0.78379,0.97047 -1.00534,1.54433c-0.21574,0.5557 -0.36247,1.18766 -0.40533,2.116c-0.04358,0.92979 -0.0523,1.22544 -0.0523,3.5935c0,2.36806 0.0109,2.66371 0.0523,3.5935c0.04358,0.92761 0.18959,1.56031 0.40533,2.116c0.22228,0.5724 0.52083,1.05982 1.00534,1.54432c0.48451,0.48378 0.97047,0.78379 1.54433,1.00534c0.55642,0.21501 1.18839,0.36247 2.116,0.40533c0.92979,0.04358 1.22544,0.0523 3.5935,0.0523c2.36806,0 2.66371,-0.01089 3.5935,-0.0523c0.92761,-0.04358 1.56031,-0.19032 2.116,-0.40533c0.5724,-0.22228 1.05982,-0.52155 1.54432,-1.00534c0.48378,-0.48451 0.78379,-0.96975 1.00534,-1.54433c0.21501,-0.55569 0.36247,-1.18839 0.40533,-2.116c0.04358,-0.92979 0.0523,-1.22544 0.0523,-3.5935c0,-2.36806 -0.0109,-2.66371 -0.0523,-3.5935c-0.04358,-0.92761 -0.19032,-1.56103 -0.40533,-2.116c-0.22228,-0.57313 -0.52155,-1.05982 -1.00534,-1.54433c-0.48451,-0.48451 -0.96974,-0.78378 -1.54432,-1.00534c-0.5557,-0.21574 -1.18839,-0.36247 -2.116,-0.40533c-0.92979,-0.04358 -1.22544,-0.0523 -3.5935,-0.0523z" fill="#a1a1a1" fill-opacity="1"></path></g></g></svg>