<?xml version="1.0" encoding="UTF-8"?>
<svg id="SVGDoc" width="59" height="39" xmlns="http://www.w3.org/2000/svg" version="1.1" xmlns:xlink="http://www.w3.org/1999/xlink" xmlns:avocode="https://avocode.com/" viewBox="0 0 59 39"><defs></defs><desc>Generated with Avocode.</desc><g><g><title>Retângulo 6540</title><path d="M0,39v0v-39v0h59v0v39v0z" fill="#ffffff" fill-opacity="1"></path></g><g><title>bxs-quote-alt-left</title><path d="M38.24854,14.72656c-0.335,0 -0.655,0.051 -0.975,0.098c0.104,-0.348 0.21,-0.702 0.381,-1.02c0.171,-0.462 0.438,-0.862 0.704,-1.266c0.222,-0.436 0.613,-0.732 0.901,-1.105c0.301,-0.363 0.712,-0.605 1.038,-0.906c0.32,-0.315 0.738,-0.473 1.071,-0.695c0.348,-0.2 0.651,-0.42 0.975,-0.525l0.808,-0.333l0.711,-0.295l-0.728,-2.907l-0.895,0.216c-0.286,0.072 -0.636,0.156 -1.033,0.257c-0.407,0.075 -0.84,0.28 -1.323,0.468c-0.476,0.214 -1.029,0.357 -1.542,0.701c-0.516,0.327 -1.111,0.6 -1.636,1.038c-0.509,0.452 -1.122,0.843 -1.575,1.416c-0.495,0.537 -0.984,1.101 -1.364,1.743c-0.44,0.612 -0.738,1.284 -1.053,1.948c-0.285,0.664 -0.515,1.344 -0.702,2.004c-0.355,1.323 -0.515,2.58 -0.576,3.655c-0.051,1.077 -0.021,1.972 0.042,2.621c0.022,0.306 0.065,0.603 0.095,0.808l0.038,0.252l0.039,-0.009c0.7424,3.46533 4.0383,5.76644 7.54722,5.26924c3.50891,-0.49719 6.0358,-3.62336 5.78627,-7.15852c-0.24953,-3.53517 -3.19052,-6.27537 -6.73448,-6.27472zM21.74854,14.72656c-0.335,0 -0.655,0.051 -0.975,0.098c0.104,-0.348 0.21,-0.702 0.381,-1.02c0.171,-0.462 0.438,-0.862 0.704,-1.266c0.222,-0.436 0.613,-0.732 0.901,-1.105c0.301,-0.363 0.712,-0.605 1.038,-0.906c0.32,-0.315 0.738,-0.473 1.071,-0.695c0.348,-0.2 0.651,-0.42 0.975,-0.525l0.808,-0.333l0.711,-0.295l-0.728,-2.907l-0.895,0.216c-0.286,0.072 -0.636,0.156 -1.033,0.257c-0.407,0.075 -0.84,0.28 -1.323,0.468c-0.477,0.213 -1.029,0.357 -1.542,0.699c-0.516,0.327 -1.111,0.6 -1.636,1.038c-0.509,0.452 -1.122,0.843 -1.575,1.417c-0.495,0.537 -0.984,1.101 -1.364,1.743c-0.44,0.612 -0.738,1.284 -1.053,1.948c-0.285,0.664 -0.515,1.344 -0.702,2.004c-0.355,1.323 -0.515,2.58 -0.576,3.655c-0.051,1.077 -0.021,1.972 0.042,2.621c0.022,0.306 0.065,0.603 0.095,0.808l0.038,0.252l0.039,-0.009c0.7419,3.4656 4.03771,5.76723 7.54683,5.27033c3.50911,-0.4969 6.03633,-3.62308 5.78689,-7.15841c-0.24945,-3.53533 -3.19059,-6.27568 -6.73471,-6.27491z" fill="#eb7a2f" fill-opacity="1"></path></g></g></svg>