<svg width="23" height="24" viewBox="0 0 23 24" fill="none" xmlns="http://www.w3.org/2000/svg">
<path d="M3.89791 9.49665H7.36812V19.9386H3.89791V9.49665ZM15.8885 9.25078C18.1722 9.25078 19.8836 10.7432 19.8836 13.9509V19.9386H16.4134V14.3526C16.4134 12.949 15.9115 11.991 14.6553 11.991C13.6968 11.991 13.1252 12.6367 12.8742 13.26C12.7823 13.4828 12.7599 13.7945 12.7599 14.1068V19.9386H9.28907C9.28907 19.9386 9.33441 10.4756 9.28907 9.496H12.7599V10.975C13.221 10.2636 14.0467 9.25078 15.8885 9.25078ZM5.65601 4.46184C6.84319 4.46184 7.57504 5.24158 7.59739 6.26591C7.59739 7.26789 6.84319 8.06935 5.63302 8.06935H5.61067C4.44584 8.06935 3.69292 7.26789 3.69292 6.26591C3.69292 5.24158 4.46883 4.46184 5.65601 4.46184ZM4.52311 0.669769C2.04658 0.669769 0.0202637 2.69672 0.0202637 5.17325V19.1473C0.0202637 21.6239 2.04721 23.6495 4.52375 23.6495H18.4978C20.9744 23.6495 23.0001 21.6232 23.0001 19.1473V5.17325C23.0001 2.69672 20.9737 0.669769 18.4978 0.669769H4.52311Z" fill="white"/>
</svg>
