<?xml version="1.0" encoding="UTF-8"?>
<svg id="SVGDoc" width="100" height="45" xmlns="http://www.w3.org/2000/svg" version="1.1" xmlns:xlink="http://www.w3.org/1999/xlink" xmlns:avocode="https://avocode.com/" viewBox="0 0 100 45"><defs><clipPath id="clip-1b049dab-6c88-49b7-8df9-4aebe48478cd"><path d="M0,44.48114v0v-43.54897v0h100v0v43.54897v0z" ></path></clipPath></defs><desc>Generated with Avocode.</desc><g><g><title>Grupo 9251</title><g><title>Grupo 9230</title><g><title>Retângulo 6433</title></g><g clip-path="url(#clip-1b049dab-6c88-49b7-8df9-4aebe48478cd)"><title>Caminho 25398</title><path d="M10.93006,19.66187v0l-0.43023,1.21587c-0.56507,1.56084 -1.091,3.11622 -1.57761,4.66663c-0.20725,0.66212 -0.50929,1.75887 -0.90627,3.28992c-0.07936,0.30657 0.16719,0.59727 0.46848,0.55223c0.626,-0.09358 1.38517,-0.24445 2.27753,-0.45261c0.78246,-0.18246 1.14058,-0.33121 1.33907,-0.1424c0.67165,0.63885 -0.67377,2.8225 -1.09115,3.25803c-0.28692,0.31413 -0.71307,0.53196 -1.27799,0.65366c-0.56538,0.12154 -1.44776,0.18231 -2.6476,0.18231c-1.12168,0 -1.98683,-0.04066 -2.59529,-0.12154c-0.00877,0 -0.15223,-0.0508 -0.43038,-0.15208c-0.49569,-0.24308 -0.74346,-0.74965 -0.74346,-1.51986c0,-0.55707 0.13696,-1.57551 0.41088,-3.055c0.27392,-1.4792 0.67165,-3.31819 1.19334,-5.51695c1.1823,-4.90412 2.0736,-7.93388 2.6736,-9.08897c0.19108,-0.39516 0.43219,-0.70142 0.72335,-0.91942c0.291,-0.21783 0.68858,-0.3876 1.19274,-0.50914c0.48661,-0.1217 1.04716,-0.18246 1.68177,-0.18246c0.59122,0 1.00634,0.08874 1.24549,0.26606c0.23915,0.17733 0.35873,0.4839 0.35873,0.91942c0,0.41541 -0.15646,1.19289 -0.46953,2.33271c-0.31292,1.13997 -0.77822,2.58108 -1.39545,4.32362" fill="#ffffff" fill-opacity="1"></path></g><g clip-path="url(#clip-1b049dab-6c88-49b7-8df9-4aebe48478cd)"><title>Caminho 25399</title><path d="M23.12254,24.79984v0l-0.24776,0.09116c-0.62601,0.20287 -0.90234,0.23839 -1.17928,0.26471c-0.7746,0.07346 -0.61633,-0.52277 -0.47739,-0.82616c0.00015,-0.00061 0.75902,-1.71927 0.75902,-2.47888c0,-0.43553 -0.09357,-0.78716 -0.22403,-1.14694c-0.13031,-0.35948 -0.27377,-0.53952 -0.43038,-0.53952c-0.13908,0 -0.35207,0.17249 -0.639,0.51671c-0.80861,1.02356 -1.44987,2.07224 -1.92365,3.14615c-0.47406,1.07407 -0.7108,2.03157 -0.7108,2.87253c0,0.55737 0.09781,1.0183 0.29343,1.38306c0.19562,0.36478 0.44112,0.54724 0.73695,0.54724c0.252,0 0.72365,-0.31398 1.41495,-0.9424c0.69101,-0.62781 1.46666,-1.4585 2.32712,-2.49144l0.00182,-0.00195v0l0.35117,-0.33348v0zM22.34008,28.28038v0v0.06062v0l-0.05215,-0.06062c-0.80861,1.10445 -1.54994,2.00874 -2.22371,2.71291c-0.67392,0.7043 -1.29568,1.23369 -1.86499,1.58818c-0.56961,0.35464 -1.09357,0.53214 -1.57156,0.53214c-0.97384,0 -1.77821,-0.38005 -2.41267,-1.13998c-0.63492,-0.75993 -0.95207,-1.72243 -0.95207,-2.8878c0,-0.71927 0.15646,-1.57051 0.46938,-2.55342c0.31308,-0.9826 0.74346,-1.9454 1.29131,-2.88765c0.91291,-1.54013 2.0606,-2.84714 3.4429,-3.92136c1.42599,-1.10429 2.79951,-1.65668 4.12135,-1.65668c1.11276,0 2.02795,0.26605 2.74525,0.79802c0.71745,0.53198 1.07603,1.20332 1.07603,2.0139c0,0.5873 -0.17203,1.20845 -0.51594,1.86423c-0.00847,0.01602 0.00317,0.03552 0.02071,0.03568c0.44656,0.00317 0.72894,0.06152 0.84731,0.17461c0.12064,0.11565 0.18155,0.38292 0.18261,0.80226l-0.00181,0.01118c-0.00605,0.03462 -0.02721,0.24217 -0.06334,0.62282c-0.05215,1.00317 -0.07831,1.94057 -0.07831,2.81177c0,0.45593 0.00439,0.8006 0.013,1.03355c0.00861,0.23311 0.02615,0.50159 0.05231,0.80544c0.026,0.304 0.05215,0.54724 0.07815,0.72954c0.00696,0.04762 0.01421,0.09511 0.02207,0.14241c0.17037,1.03596 -0.30431,2.07118 -1.18275,2.58577c-0.47831,0.27861 -0.96508,0.41797 -1.46076,0.41797c-1.33907,0 -2.00845,-1.30716 -2.00845,-3.9212c0,-0.30399 0.00861,-0.54193 0.02615,-0.71426" fill="#ffffff" fill-opacity="1"></path></g><g clip-path="url(#clip-1b049dab-6c88-49b7-8df9-4aebe48478cd)"><title>Caminho 25400</title><path d="M35.54466,26.22855c-0.21738,0.08118 -0.36963,0.12154 -0.45639,0.12154c-0.30446,0 -0.55434,-0.13152 -0.74994,-0.39516c-0.19562,-0.26334 -0.29343,-0.59772 -0.29343,-1.00301c0,-0.80045 0.24323,-1.83384 0.73029,-3.10065c0.48677,-1.26636 0.99969,-2.20376 1.53893,-2.81177c0.39122,-0.45593 0.83476,-0.6839 1.33029,-0.6839c0.38246,0 0.71292,0.14966 0.99123,0.44837c0.27815,0.29902 0.49115,0.72955 0.63899,1.2919c0.14769,0.56236 0.22179,1.21844 0.22179,1.96825c0,1.88463 -0.33908,3.65287 -1.01724,5.30425c-0.6783,1.65184 -1.58261,2.96914 -2.71274,3.95174c-1.13046,0.98292 -2.34329,1.47437 -3.63882,1.47437c-0.84338,0 -1.57806,-0.23296 -2.20392,-0.69917c-0.62614,-0.4659 -1.11095,-1.1374 -1.45425,-2.01389c-0.34361,-0.87634 -0.5152,-1.8922 -0.5152,-3.04744c0,-1.09417 0.1521,-2.32273 0.45654,-3.68568c0.30415,-1.3625 0.73032,-2.75084 1.27798,-4.16443c0.54785,-1.41344 1.19986,-2.78895 1.9563,-4.12635c0.79985,-1.44881 1.71716,-2.57866 2.75191,-3.38938c0.71291,-0.58745 1.46075,-0.88148 2.24321,-0.88148c0.79985,0 1.43884,0.28374 1.91714,0.85109c0.47815,0.56764 0.7173,1.32229 0.7173,2.26453c0,0.66878 -0.21965,1.37051 -0.65865,2.1052c-0.43915,0.73468 -0.99106,1.33997 -1.65622,1.81615c-0.66515,0.47634 -1.31534,0.71428 -1.9498,0.71428c-0.30446,0 -0.45654,-0.09116 -0.45654,-0.27346c0,-0.1418 0.1261,-0.40015 0.37823,-0.77521c0.41739,-0.60801 0.76945,-1.30943 1.05653,-2.10504c0.28677,-0.79531 0.43037,-1.48676 0.43037,-2.07451c0,-0.53696 -0.06982,-0.80559 -0.20876,-0.80559c-0.174,0 -0.44337,0.33439 -0.80861,1.00317c-0.36523,0.66862 -0.69116,1.43385 -0.97807,2.29491c-0.6783,2.0671 -1.19984,4.0302 -1.56505,5.8896c-0.36525,1.85939 -0.5477,3.44244 -0.5477,4.74947c0,0.9829 0.13681,1.81132 0.41072,2.48508c0.27391,0.67391 0.60649,1.01057 0.99773,1.01057c0.49553,0 0.90852,-0.32668 1.23898,-0.98019c0.33031,-0.65351 0.52592,-1.5628 0.58685,-2.72817" fill="#ffffff" fill-opacity="1"></path></g><g clip-path="url(#clip-1b049dab-6c88-49b7-8df9-4aebe48478cd)"><title>Caminho 25401</title><path d="M48.72609,17.41321c1.2952,0 1.94312,0.17732 1.94312,0.53197c0,0.40544 -0.2916,0.62312 -0.87375,0.65352c-0.70428,0.05078 -1.36099,0.28374 -1.96942,0.69916c-0.60864,0.41557 -1.14984,0.98291 -1.6236,1.70232c-0.47424,0.71942 -0.84351,1.53 -1.10867,2.43173c-0.26532,0.90189 -0.39774,1.85425 -0.39774,2.85727c0,1.1046 0.22162,1.99364 0.66513,2.6674c0.44327,0.6739 1.02148,1.01073 1.73453,1.01073c0.66064,0 1.23886,-0.39502 1.73456,-1.1855c0.49567,-0.7903 0.74359,-1.71214 0.74359,-2.7661c0,-0.86122 -0.15451,-1.66922 -0.46304,-2.42416c-0.30884,-0.75479 -0.75885,-1.39078 -1.34995,-1.90747c-0.25214,-0.23311 -0.37805,-0.40015 -0.37805,-0.50157c0,-0.1418 0.17792,-0.3595 0.53467,-0.65352c0.39954,-0.31398 0.8476,-0.57762 1.34332,-0.79031c0.49567,-0.21284 0.91275,-0.31927 1.25195,-0.31927c0.39111,0 0.76282,0.11928 1.11517,0.35722c0.35211,0.23808 0.6629,0.57761 0.93231,1.01828c0.26953,0.44081 0.47617,0.94753 0.61963,1.51987c0.14331,0.57262 0.21512,1.18304 0.21512,1.83157c0,1.07407 -0.17401,2.13528 -0.5217,3.1841c-0.34784,1.04866 -0.80438,1.89734 -1.36932,2.54572c-0.73029,0.82069 -1.61084,1.49203 -2.64124,2.01387c-1.03018,0.522 -2.01041,0.78262 -2.94086,0.78262c-0.9043,0 -1.80194,-0.18231 -2.69308,-0.54709c-0.89133,-0.36478 -1.59756,-0.84579 -2.11929,-1.44397c-0.69565,-0.81044 -1.04333,-1.96054 -1.04333,-3.45001c0,-1.17535 0.24774,-2.35054 0.74329,-3.52605c0.49567,-1.17535 1.16733,-2.24185 2.01511,-3.19937c0.84763,-0.9575 1.78232,-1.71231 2.80374,-2.26468c1.02191,-0.55206 2.05414,-0.82826 3.09781,-0.82826" fill="#ffffff" fill-opacity="1"></path></g><g clip-path="url(#clip-1b049dab-6c88-49b7-8df9-4aebe48478cd)"><title>Caminho 25402</title><path d="M58.4223,28.06754v0l-0.05219,0.304c0,0.17233 -0.01767,0.42055 -0.05228,0.74466c-0.03479,0.49675 -0.0827,0.90202 -0.14331,1.21587c-0.0611,0.31444 -0.1524,0.5752 -0.27393,0.78275c-0.12201,0.20787 -0.28693,0.42827 -0.49554,0.66122c-0.63492,0.67891 -1.27393,1.01843 -1.9173,1.01843c-0.52167,0 -0.90625,-0.22282 -1.15417,-0.66876c-0.24777,-0.44582 -0.37173,-1.16508 -0.37173,-2.15842c0,-0.79018 0.0762,-1.76521 0.22827,-2.9256c0.15195,-1.16008 0.33682,-2.20119 0.55432,-3.12332l0.10434,-0.39531c0,-0.06062 0.026,-0.1873 0.07831,-0.3799c0.3215,-1.37776 0.61707,-2.39876 0.88675,-3.06256c0.26938,-0.66348 0.59549,-1.19801 0.97821,-1.60345c0.33908,-0.31398 0.72153,-0.47121 1.14767,-0.47121c0.61713,0 0.99127,0.43582 1.12155,1.30717c0.1217,-0.12154 0.23898,-0.26334 0.35208,-0.42555c0.25214,-0.35463 0.44775,-0.59016 0.58701,-0.70671c0.13892,-0.11641 0.2999,-0.17491 0.48251,-0.17491c0.74771,0 1.60223,0.86137 1.60223,2.5838c0,0.94241 -0.08704,1.85425 -0.26074,2.73589c-0.17413,0.88148 -0.39365,1.60104 -0.65863,2.15811c-0.26547,0.55736 -0.85321,0.83597 -1.11414,0.83597c-0.28677,0 -0.62555,-0.38533 -0.58594,-1.89977c0.0174,-0.66861 -0.03284,-1.19319 -0.09784,-1.57307c-0.01266,-0.07391 -0.02673,-0.14467 -0.0423,-0.21223c-0.05896,-0.2576 -0.41483,-0.25398 -0.46893,0.00482c-0.14725,0.70341 -0.24854,1.77309 -0.30402,3.20905c-0.06076,1.17566 -0.10431,1.91502 -0.13028,2.21904" fill="#ffffff" fill-opacity="1"></path></g><g clip-path="url(#clip-1b049dab-6c88-49b7-8df9-4aebe48478cd)"><title>Caminho 25403</title><path d="M79.17758,18.0188c0.03009,-0.00832 0.05408,-0.03175 0.06299,-0.06289l0.03784,-0.13228c0.5744,-1.88463 1.07068,-3.21191 1.48853,-3.98212c0.2002,-0.36477 0.47858,-0.68888 0.83569,-0.97263c0.67023,-0.49628 1.30139,-0.74481 1.89337,-0.74481c0.34802,0 0.61346,0.09146 0.79639,0.27408c0.18262,0.18261 0.27423,0.44655 0.27423,0.79123c0,0.23355 -0.13123,0.70913 -0.39368,1.42734c-0.37897,1.01541 -0.67603,1.9758 -0.89087,2.88145c-0.05804,0.24475 0.08411,0.49872 0.31702,0.56569l0.00427,0.00121c0.00208,0.00075 0.00452,0.00121 0.00677,0.00166c0.52032,0.091 0.86292,0.19485 1.02789,0.3111c0.16547,0.11671 0.24829,0.32684 0.24829,0.63084c0,0.53711 -0.11731,1.034 -0.35193,1.48993c-0.23462,0.45624 -0.54303,0.79092 -0.92529,1.00362c-0.27771,0.14709 -0.72229,0.24686 -1.33392,0.29902c-0.03583,0.00302 -0.06696,0.02736 -0.07678,0.06333c-0.10767,0.38897 -0.22662,0.91065 -0.35699,1.56492c-0.00043,0.00257 -0.00085,0.00499 -0.00122,0.00756c-0.07733,0.60815 -0.16302,1.44836 -0.25757,2.52045c-0.05225,0.39501 -0.07837,0.76447 -0.07837,1.10883c0,1.19968 0.37408,1.94965 1.12238,2.24957c0.15814,0.06334 0.46588,0.1034 0.755,0.12411c0.23395,0.01694 0.38092,0.27393 0.28229,0.49584c-0.06451,0.14543 -0.14899,0.3034 -0.25537,0.44187c-0.29559,0.38519 -0.62164,0.72456 -0.97815,1.01829c-0.38257,0.304 -0.80029,0.54723 -1.25305,0.72969c-0.45288,0.18232 -0.86206,0.27347 -1.22791,0.27347c-0.91492,0 -1.65747,-0.35963 -2.22797,-1.07905c-0.57068,-0.71928 -0.85596,-1.67194 -0.85596,-2.85743c0,-0.50642 0.07605,-1.1702 0.22827,-1.99105c0.1521,-0.8207 0.47607,-1.92107 0.79773,-3.29914c0.05219,-0.24324 0.1087,-0.49902 0.16949,-0.76764c0.02795,-0.12321 0.05029,-0.22343 0.06726,-0.30083c0.0202,-0.09176 -0.04218,-0.17928 -0.13196,-0.18957c-0.26019,-0.02978 -0.53864,-0.11096 -0.66125,-0.2455c-0.14801,-0.16206 -0.22174,-0.42569 -0.22174,-0.79031c0,-0.6384 0.21069,-1.24111 0.63263,-1.80876c0.40955,-0.55086 0.8866,-0.90128 1.43164,-1.05108" fill="#ffffff" fill-opacity="1"></path></g><g clip-path="url(#clip-1b049dab-6c88-49b7-8df9-4aebe48478cd)"><title>Caminho 25404</title><path d="M99.77533,15.43438c-0.47229,1.51351 -1.53455,2.50989 -2.37268,2.22538c-0.83789,-0.2845 -1.13446,-1.74224 -0.66223,-3.25576c0.47241,-1.51351 1.53455,-2.50987 2.37256,-2.22537c0.83813,0.2845 1.13458,1.74223 0.66235,3.25575M99.28656,26.08281c-0.60138,3.90594 -2.09778,6.90334 -3.34235,6.69488c-1.24475,-0.20847 -1.7663,-3.54388 -1.16492,-7.44982c0.60126,-3.90594 2.0976,-6.90334 3.34235,-6.69488c1.24463,0.20847 1.76611,3.54388 1.16492,7.44982" fill="#ffffff" fill-opacity="1"></path></g><g clip-path="url(#clip-1b049dab-6c88-49b7-8df9-4aebe48478cd)"><title>Caminho 25405</title><path d="M87.80045,18.0188c0.03009,-0.00832 0.05414,-0.03175 0.06305,-0.06289l0.03778,-0.13228c0.57446,-1.88463 1.0708,-3.21191 1.48859,-3.98212c0.20013,-0.36477 0.47864,-0.68888 0.83569,-0.97263c0.67029,-0.49628 1.30145,-0.74481 1.89337,-0.74481c0.34802,0 0.61346,0.09146 0.79639,0.27408c0.18274,0.18261 0.27417,0.44655 0.27417,0.79123c0,0.23355 -0.13116,0.70913 -0.39362,1.42734c-0.37897,1.01541 -0.67603,1.9758 -0.89087,2.88145c-0.05798,0.24475 0.08405,0.49872 0.31702,0.56569l0.00427,0.00121c0.00208,0.00075 0.00452,0.00121 0.00677,0.00166c0.52032,0.091 0.86292,0.19485 1.02795,0.3111c0.16541,0.11671 0.24823,0.32684 0.24823,0.63084c0,0.53711 -0.11731,1.034 -0.35193,1.48993c-0.23462,0.45624 -0.54297,0.79092 -0.92529,1.00362c-0.27771,0.14709 -0.72229,0.24686 -1.33398,0.29902c-0.03577,0.00302 -0.06696,0.02736 -0.07678,0.06333c-0.1076,0.38897 -0.22656,0.91065 -0.35687,1.56492c-0.00043,0.00257 -0.00092,0.00499 -0.00122,0.00756c-0.07739,0.60815 -0.16309,1.44836 -0.25757,2.52045c-0.05231,0.39501 -0.07849,0.76447 -0.07849,1.10883c0,1.19968 0.37415,1.94965 1.12244,2.24957c0.15814,0.06334 0.46594,0.1034 0.75494,0.12411c0.23401,0.01694 0.3811,0.27393 0.28241,0.49584c-0.06451,0.14543 -0.14905,0.3034 -0.25549,0.44187c-0.29547,0.38519 -0.62158,0.72456 -0.97803,1.01829c-0.38269,0.304 -0.80035,0.54723 -1.25305,0.72969c-0.45288,0.18232 -0.86218,0.27347 -1.22797,0.27347c-0.91492,0 -1.65747,-0.35963 -2.22797,-1.07905c-0.57068,-0.71928 -0.85596,-1.67194 -0.85596,-2.85743c0,-0.50642 0.07605,-1.1702 0.22833,-1.99105c0.15204,-0.8207 0.47595,-1.92107 0.79767,-3.29914c0.05219,-0.24324 0.1087,-0.49902 0.16949,-0.76764c0.02795,-0.12321 0.05029,-0.22343 0.06726,-0.30083c0.0202,-0.09176 -0.04218,-0.17928 -0.13196,-0.18957c-0.26019,-0.02978 -0.53864,-0.11096 -0.66125,-0.2455c-0.14795,-0.16206 -0.22174,-0.42569 -0.22174,-0.79031c0,-0.6384 0.21075,-1.24111 0.63263,-1.80876c0.40955,-0.55086 0.8866,-0.90128 1.43158,-1.05108" fill="#ffffff" fill-opacity="1"></path></g><g clip-path="url(#clip-1b049dab-6c88-49b7-8df9-4aebe48478cd)"><title>Caminho 25406</title><path d="M71.78696,24.79984v0l-0.24777,0.09116c-0.62601,0.20287 -0.90231,0.23839 -1.17929,0.26471c-0.77457,0.07346 -0.61627,-0.52277 -0.47739,-0.82616c0.00015,-0.00061 0.75906,-1.71927 0.75906,-2.47888c0,-0.43553 -0.0936,-0.78716 -0.22406,-1.14694c-0.13031,-0.35948 -0.27377,-0.53952 -0.43036,-0.53952c-0.1391,0 -0.35208,0.17249 -0.63904,0.51671c-0.80859,1.02356 -1.44989,2.07224 -1.92361,3.14615c-0.47406,1.07407 -0.71082,2.03157 -0.71082,2.87253c0,0.55737 0.09781,1.0183 0.29343,1.38306c0.19562,0.36478 0.4411,0.54724 0.73694,0.54724c0.25201,0 0.72366,-0.31398 1.41498,-0.9424c0.69101,-0.62781 1.46667,-1.4585 2.32709,-2.49144l0.00183,-0.00195v0l0.35117,-0.33348v0zM71.00449,28.28038v0v0.06062v0l-0.05212,-0.06062c-0.80862,1.10445 -1.54999,2.00874 -2.22375,2.71291c-0.67389,0.7043 -1.29565,1.23369 -1.86493,1.58818c-0.56964,0.35464 -1.0936,0.53214 -1.57159,0.53214c-0.97382,0 -1.7782,-0.38005 -2.41266,-1.13998c-0.63495,-0.75993 -0.95209,-1.72243 -0.95209,-2.8878c0,-0.71927 0.15646,-1.57051 0.46939,-2.55342c0.31308,-0.9826 0.74344,-1.9454 1.29129,-2.88765c0.9129,-1.54013 2.06061,-2.84714 3.44305,-3.92136c1.42584,-1.10429 2.79938,-1.65668 4.12119,-1.65668c1.11276,0 2.02798,0.26605 2.74527,0.79802c0.71747,0.53198 1.07602,1.20332 1.07602,2.0139c0,0.5873 -0.17203,1.20845 -0.51596,1.86423c-0.00845,0.01602 0.00317,0.03552 0.02075,0.03568c0.44653,0.00317 0.72894,0.06152 0.84729,0.17461c0.12061,0.11565 0.18155,0.38292 0.18262,0.80226l-0.0018,0.01118c-0.00607,0.03462 -0.02725,0.24217 -0.06335,0.62282c-0.05215,1.00317 -0.07831,1.94057 -0.07831,2.81177c0,0.45593 0.00436,0.8006 0.013,1.03355c0.00864,0.23311 0.02615,0.50159 0.05228,0.80544c0.02603,0.304 0.05219,0.54724 0.07819,0.72954c0.00696,0.04762 0.01422,0.09511 0.02206,0.14241c0.17038,1.03596 -0.30429,2.07118 -1.18277,2.58577c-0.47827,0.27861 -0.96506,0.41797 -1.46075,0.41797c-1.33905,0 -2.00842,-1.30716 -2.00842,-3.9212c0,-0.30399 0.00861,-0.54193 0.02612,-0.71426" fill="#ffffff" fill-opacity="1"></path></g><g clip-path="url(#clip-1b049dab-6c88-49b7-8df9-4aebe48478cd)"><title>Caminho 25407</title><path d="M28.19431,38.60457h0.32803c0.1344,0 0.22253,0.03627 0.26486,0.10823c0.04216,0.07209 0.06332,0.21011 0.06332,0.41389v2.46106c0,0.20392 -0.02116,0.34179 -0.06332,0.41374c-0.04233,0.07227 -0.13046,0.10825 -0.26486,0.10825h-0.32803zM26.95636,43.07919h1.61089c0.28828,0 0.5294,-0.02237 0.72334,-0.06712c0.1938,-0.04475 0.3504,-0.13786 0.46985,-0.27966c0.11926,-0.14163 0.20377,-0.34556 0.25351,-0.61163c0.04957,-0.26592 0.07452,-0.61995 0.07452,-1.06258v-1.34979c0,-0.44249 -0.02494,-0.79803 -0.07452,-1.06636c-0.04974,-0.26863 -0.13425,-0.47362 -0.25351,-0.61542c-0.11945,-0.14149 -0.27605,-0.23477 -0.46985,-0.27951c-0.19394,-0.04474 -0.43506,-0.06728 -0.72334,-0.06728h-1.61089z" fill="#eb7a2f" fill-opacity="1"></path></g><g clip-path="url(#clip-1b049dab-6c88-49b7-8df9-4aebe48478cd)"><title>Caminho 25408</title><path d="M30.66277,39.27576h1.1037v3.80327h-1.1037zM30.66277,37.67984h1.1037v0.87997h-1.1037z" fill="#eb7a2f" fill-opacity="1"></path></g><g clip-path="url(#clip-1b049dab-6c88-49b7-8df9-4aebe48478cd)"><title>Caminho 25409</title><path d="M33.32502,41.76659c0,-0.12911 0.02238,-0.21497 0.06712,-0.25731c0.04473,-0.04216 0.11186,-0.06334 0.20135,-0.06334c0.1093,0 0.1814,0.02118 0.21634,0.06334c0.03461,0.04234 0.05214,0.11323 0.05214,0.21255v0.3058c0,0.07456 -0.01632,0.13925 -0.04852,0.19382c-0.03235,0.05475 -0.10567,0.08209 -0.21996,0.08209c-0.09946,0 -0.1678,-0.02222 -0.20514,-0.06714c-0.03732,-0.04474 -0.0585,-0.12924 -0.06334,-0.25351zM32.34057,40.36465h0.96945v-0.20876c0,-0.06969 0.02359,-0.11943 0.07091,-0.14922c0.04716,-0.02992 0.11308,-0.04475 0.19757,-0.04475c0.18897,0 0.28345,0.0623 0.28345,0.1864v0.84262c-0.10444,-0.08435 -0.21888,-0.14649 -0.34315,-0.18639c-0.12427,-0.03977 -0.25351,-0.05956 -0.38776,-0.05956c-0.1492,0 -0.28329,0.01753 -0.40271,0.05214c-0.11928,0.03493 -0.21997,0.09584 -0.30203,0.18277c-0.08194,0.08693 -0.14422,0.20514 -0.1864,0.35417c-0.04232,0.14908 -0.06332,0.34061 -0.06332,0.57431c0,0.19381 0.01224,0.36783 0.03717,0.522c0.02478,0.15406 0.07091,0.28327 0.13803,0.38776c0.06711,0.10443 0.16038,0.18396 0.27966,0.23868c0.11926,0.0546 0.27331,0.08194 0.46243,0.08194c0.10428,0 0.19378,-0.005 0.26846,-0.01483c0.07453,-0.0101 0.14029,-0.02869 0.19759,-0.05594c0.05715,-0.02734 0.11187,-0.06589 0.16402,-0.11563c0.05216,-0.04956 0.1081,-0.11426 0.16779,-0.19379h0.01498v0.32062h1.05896v-2.78906c0,-0.23372 -0.02739,-0.42133 -0.08209,-0.56311c-0.05473,-0.14167 -0.13923,-0.24974 -0.25352,-0.32442c-0.11444,-0.07454 -0.26107,-0.12427 -0.44006,-0.14922c-0.17897,-0.02478 -0.39032,-0.03719 -0.63387,-0.03719c-0.20874,0 -0.3903,0.00877 -0.54434,0.026c-0.1542,0.01754 -0.28102,0.0511 -0.38034,0.10069c-0.09949,0.04973 -0.17279,0.11821 -0.21997,0.20528c-0.0473,0.08693 -0.07089,0.20015 -0.07089,0.33923z" fill="#eb7a2f" fill-opacity="1"></path></g><g clip-path="url(#clip-1b049dab-6c88-49b7-8df9-4aebe48478cd)"><title>Caminho 25410</title><path d="M36.65829,40.27514c0,-0.08452 0.02117,-0.14287 0.06335,-0.17522c0.04217,-0.03235 0.11306,-0.04868 0.21252,-0.04868c0.09948,0 0.17037,0.01633 0.21255,0.04868c0.0422,0.03235 0.06335,0.0907 0.06335,0.17522v1.8196c0,0.08465 -0.02114,0.14288 -0.06335,0.17523c-0.04217,0.03235 -0.11306,0.0484 -0.21255,0.0484c-0.09945,0 -0.17034,-0.01605 -0.21252,-0.0484c-0.04217,-0.03235 -0.06335,-0.09057 -0.06335,-0.17523zM35.55462,42.17671c0,0.12922 0.01358,0.24988 0.04095,0.36176c0.02737,0.11185 0.07452,0.20996 0.14178,0.29462c0.06714,0.08447 0.15769,0.15161 0.27213,0.20135c0.11426,0.04959 0.25849,0.07452 0.4325,0.07452c0.32819,0 0.57914,-0.1167 0.75327,-0.3504h0.01483v0.67859c0,0.09933 -0.02237,0.16632 -0.06699,0.20117c-0.04474,0.03479 -0.11685,0.05237 -0.21631,0.05237c-0.18897,0 -0.28345,-0.05731 -0.28345,-0.17157v-0.08197h-0.96945v0.20117c0,0.1243 0.01874,0.23874 0.05594,0.34302c0.03733,0.1045 0.10065,0.19413 0.19016,0.26868c0.08951,0.07452 0.20755,0.13165 0.35419,0.17157c0.14664,0.03961 0.32941,0.05957 0.54816,0.05957c0.25366,0 0.4736,-0.01483 0.66,-0.0448c0.18655,-0.02972 0.3406,-0.08447 0.46243,-0.16415c0.12171,-0.0795 0.21359,-0.18759 0.27588,-0.32425c0.06213,-0.13678 0.09326,-0.31458 0.09326,-0.53333v-4.13872h-1.02173v0.3504h-0.01483c-0.11941,-0.15903 -0.24746,-0.26728 -0.38412,-0.32442c-0.13681,-0.05713 -0.31442,-0.08571 -0.53317,-0.08571c-0.25867,0 -0.45758,0.08467 -0.59668,0.25351c-0.13922,0.16902 -0.20874,0.41753 -0.20874,0.74573z" fill="#eb7a2f" fill-opacity="1"></path></g><g clip-path="url(#clip-1b049dab-6c88-49b7-8df9-4aebe48478cd)"><title>Caminho 25411</title><path d="M38.90291,39.27574v0h1.1037v0v0.41769v0h0.01495c0.07953,-0.16902 0.18384,-0.291 0.31323,-0.36552c0.12924,-0.07452 0.28342,-0.11188 0.46228,-0.11188c0.11942,0 0.23233,0.01497 0.33936,0.04475c0.10687,0.02992 0.19879,0.07831 0.27603,0.14542c0.07693,0.06712 0.13788,0.15662 0.18262,0.26848c0.04477,0.11188 0.06711,0.24989 0.06711,0.41391v2.99046v0h-1.10367v0v-2.72198c0,-0.0845 -0.02115,-0.14922 -0.06335,-0.19395c-0.04233,-0.04475 -0.11563,-0.06712 -0.22012,-0.06712c-0.09943,0 -0.16898,0.02237 -0.20874,0.06712c-0.03992,0.04474 -0.05969,0.10945 -0.05969,0.19395v2.72198v0h-1.1037v0z" fill="#eb7a2f" fill-opacity="1"></path></g><g clip-path="url(#clip-1b049dab-6c88-49b7-8df9-4aebe48478cd)"><title>Caminho 25412</title><path d="M43.32523,40.3273c0,-0.1143 0.02362,-0.18883 0.07092,-0.22374c0.04718,-0.03462 0.12546,-0.05215 0.23474,-0.05215c0.10944,0 0.18775,0.01753 0.23511,0.05215c0.04715,0.03491 0.07074,0.10944 0.07074,0.22374v1.70036c0,0.11442 -0.02359,0.18896 -0.07074,0.22372c-0.04737,0.03491 -0.12567,0.05215 -0.23511,0.05215c-0.10928,0 -0.18756,-0.01724 -0.23474,-0.05215c-0.0473,-0.03476 -0.07092,-0.10929 -0.07092,-0.22372zM43.01956,38.78371h0.73816l1.1037,-1.10387h-1.15582zM42.17679,41.93061c0,0.25367 0.031,0.46 0.09329,0.61903c0.06195,0.15919 0.15524,0.28224 0.27963,0.36932c0.12412,0.08692 0.27594,0.14527 0.4549,0.17519c0.17895,0.0298 0.38775,0.04475 0.62628,0.04475c0.23871,0 0.44751,-0.01495 0.62665,-0.04475c0.17895,-0.02993 0.33044,-0.08828 0.45483,-0.17519c0.12426,-0.08708 0.2174,-0.21013 0.27966,-0.36932c0.06213,-0.15902 0.09314,-0.36535 0.09314,-0.61903v-1.50626c0,-0.25351 -0.03101,-0.45972 -0.09314,-0.61905c-0.06225,-0.15903 -0.15539,-0.28209 -0.27966,-0.36916c-0.12439,-0.08691 -0.27587,-0.14528 -0.45483,-0.1752c-0.17914,-0.02978 -0.38794,-0.04475 -0.62665,-0.04475c-0.23852,0 -0.44732,0.01496 -0.62628,0.04475c-0.17896,0.02992 -0.33079,0.08829 -0.4549,0.1752c-0.12439,0.08707 -0.21768,0.21013 -0.27963,0.36916c-0.06228,0.15933 -0.09329,0.36554 -0.09329,0.61905z" fill="#eb7a2f" fill-opacity="1"></path></g><g clip-path="url(#clip-1b049dab-6c88-49b7-8df9-4aebe48478cd)"><title>Caminho 25413</title><path d="M45.53246,41.90082v0h1.01419v0v0.10426c0,0.14456 0.01874,0.23767 0.05597,0.27985c0.03735,0.04218 0.1055,0.06335 0.20514,0.06335c0.0993,0 0.17023,-0.02118 0.21252,-0.06335c0.04221,-0.04218 0.05835,-0.13528 0.04852,-0.27985c-0.00513,-0.07933 -0.01392,-0.14265 -0.02612,-0.18999c-0.01257,-0.04715 -0.03857,-0.08313 -0.07831,-0.10808c-0.03992,-0.0248 -0.09827,-0.04596 -0.17523,-0.06349c-0.07727,-0.01724 -0.18274,-0.03584 -0.31702,-0.0558c-0.19391,-0.02991 -0.35309,-0.06831 -0.47723,-0.11562c-0.12439,-0.04718 -0.22266,-0.11444 -0.29462,-0.20137c-0.07208,-0.08694 -0.12183,-0.19394 -0.14905,-0.32063c-0.02753,-0.12683 -0.04114,-0.28209 -0.04114,-0.4662c0,-0.27832 0.01981,-0.49962 0.05969,-0.6638c0.03979,-0.16402 0.10934,-0.28949 0.2088,-0.37656c0.09946,-0.08676 0.23236,-0.14543 0.39893,-0.1752c0.1666,-0.0298 0.37671,-0.04716 0.63025,-0.05217c0.23871,-0.00497 0.43988,0.00621 0.60406,0.03357c0.164,0.02736 0.29572,0.07089 0.39517,0.13045c0.09946,0.05972 0.1702,0.13924 0.21268,0.23856c0.04205,0.09962 0.06335,0.21632 0.06335,0.35072v0.43991v0h-0.9696v0v-0.179c0,-0.17899 -0.08194,-0.26848 -0.24597,-0.26848c-0.10443,0 -0.17291,0.02495 -0.20514,0.07452c-0.03235,0.04974 -0.04852,0.13939 -0.04852,0.26849c0,0.0647 0.005,0.11699 0.01495,0.1566c0.00986,0.0399 0.03101,0.07347 0.06335,0.10083c0.03235,0.02721 0.08209,0.05081 0.14923,0.07076c0.06708,0.01996 0.15781,0.0372 0.27209,0.05215c0.21875,0.03476 0.39648,0.07227 0.53333,0.11186c0.13666,0.03992 0.24338,0.09827 0.32062,0.17522c0.07709,0.07724 0.12909,0.17899 0.15662,0.3058c0.02737,0.12685 0.0434,0.29463 0.04837,0.50339c0.00497,0.29842 -0.01859,0.53575 -0.07071,0.71214c-0.05219,0.17661 -0.13168,0.31323 -0.23859,0.41028c-0.10718,0.0968 -0.24384,0.16028 -0.41025,0.19022c-0.1666,0.02975 -0.36176,0.04459 -0.58536,0.04459c-0.24866,0 -0.45758,-0.01254 -0.62646,-0.03735c-0.16913,-0.02478 -0.30579,-0.07074 -0.41025,-0.13785c-0.10431,-0.06711 -0.18021,-0.15903 -0.22739,-0.27588c-0.0473,-0.11673 -0.07089,-0.26712 -0.07089,-0.45126z" fill="#eb7a2f" fill-opacity="1"></path></g><g clip-path="url(#clip-1b049dab-6c88-49b7-8df9-4aebe48478cd)"><title>Caminho 25414</title><path d="M48.49313,39.27574v0h0.3132v0v-0.99197v0h1.1037v0v0.99197v0h0.64127v0v0.83508v0h-0.64127v0v1.9017c0,0.09964 0.01724,0.17294 0.05215,0.22012c0.03476,0.0473 0.11188,0.07074 0.23114,0.07074c0.04974,0 0.09811,-0.00229 0.14557,-0.00742c0.04703,-0.00497 0.09314,-0.00983 0.13788,-0.0148v0.82767c-0.10431,0.00497 -0.21875,0.01132 -0.34302,0.01859c-0.12439,0.00757 -0.24368,0.01132 -0.35797,0.01132c-0.33817,0 -0.58426,-0.06592 -0.73816,-0.19772c-0.15433,-0.13165 -0.23129,-0.34409 -0.23129,-0.63763v-2.19257v0h-0.3132v0z" fill="#eb7a2f" fill-opacity="1"></path></g><g clip-path="url(#clip-1b049dab-6c88-49b7-8df9-4aebe48478cd)"><title>Caminho 25415</title><path d="M50.90915,39.27576h1.10385v3.80327h-1.10385zM50.90915,37.67984h1.10385v0.87997h-1.10385z" fill="#eb7a2f" fill-opacity="1"></path></g><g clip-path="url(#clip-1b049dab-6c88-49b7-8df9-4aebe48478cd)"><title>Caminho 25416</title><path d="M52.52728,40.42419c0,-0.25351 0.03101,-0.4597 0.09326,-0.61905c0.06198,-0.15887 0.15649,-0.28209 0.28329,-0.369c0.12686,-0.08693 0.28467,-0.14543 0.47363,-0.1752c0.18881,-0.02994 0.40756,-0.04475 0.65622,-0.04475c0.12927,0 0.26489,0.00983 0.40637,0.02977c0.14182,0.01997 0.27225,0.05594 0.39151,0.10811c0.11948,0.05229 0.21756,0.12563 0.29465,0.21994c0.07709,0.0945 0.11563,0.2189 0.11563,0.37294v0.64883v0h-0.96945v0v-0.19382c0,-0.12939 -0.02237,-0.22025 -0.06711,-0.27225c-0.04477,-0.05231 -0.12186,-0.07846 -0.23129,-0.07846c-0.10928,0 -0.1864,0.02615 -0.23114,0.07846c-0.04477,0.052 -0.06696,0.14285 -0.06696,0.27225v1.55099c0,0.12939 0.02219,0.21994 0.06696,0.27228c0.04474,0.05212 0.12186,0.07831 0.23114,0.07831c0.10944,0 0.18652,-0.02618 0.23129,-0.07831c0.04474,-0.05234 0.06711,-0.14288 0.06711,-0.27228v-0.35797v0h1.01422v0v0.33559c0,0.20894 -0.01257,0.38911 -0.03735,0.54076c-0.02496,0.15161 -0.08075,0.2771 -0.16779,0.37659c-0.0871,0.09946 -0.21619,0.17276 -0.38776,0.21994c-0.1716,0.04733 -0.40637,0.07089 -0.70477,0.07089c-0.23853,0 -0.44867,-0.01495 -0.63007,-0.04474c-0.18158,-0.02979 -0.33456,-0.08832 -0.45868,-0.17523c-0.12421,-0.08691 -0.21768,-0.21008 -0.27966,-0.36914c-0.06226,-0.15903 -0.09326,-0.36536 -0.09326,-0.61906z" fill="#eb7a2f" fill-opacity="1"></path></g><g clip-path="url(#clip-1b049dab-6c88-49b7-8df9-4aebe48478cd)"><title>Caminho 25417</title><path d="M56.87503,40.32728c0,-0.11428 0.02347,-0.18879 0.0708,-0.22372c0.04712,-0.03462 0.12542,-0.05215 0.23489,-0.05215c0.10931,0 0.18759,0.01753 0.23492,0.05215c0.04733,0.03492 0.07089,0.10943 0.07089,0.22372v1.70035c0,0.11444 -0.02356,0.18899 -0.07089,0.22372c-0.04733,0.03495 -0.12561,0.05219 -0.23492,0.05219c-0.10946,0 -0.18777,-0.01725 -0.23489,-0.05219c-0.04733,-0.03472 -0.0708,-0.10928 -0.0708,-0.22372zM55.72647,41.93058c0,0.2537 0.031,0.46003 0.09344,0.61906c0.06195,0.15918 0.15524,0.28222 0.27951,0.36932c0.12411,0.08691 0.27587,0.14526 0.45486,0.1752c0.17913,0.02976 0.38775,0.04474 0.62643,0.04474c0.2387,0 0.44747,-0.01499 0.62646,-0.04474c0.17898,-0.02994 0.33059,-0.08829 0.45486,-0.1752c0.12426,-0.08709 0.2174,-0.21014 0.27966,-0.36932c0.06213,-0.15902 0.09326,-0.36535 0.09326,-0.61906v-1.50623c0,-0.25351 -0.03113,-0.45972 -0.09326,-0.61905c-0.06225,-0.15903 -0.15539,-0.28209 -0.27966,-0.36916c-0.12426,-0.08693 -0.27587,-0.14528 -0.45486,-0.1752c-0.17898,-0.02978 -0.38775,-0.04475 -0.62646,-0.04475c-0.23867,0 -0.44729,0.01496 -0.62643,0.04475c-0.17898,0.02992 -0.33075,0.08827 -0.45486,0.1752c-0.12427,0.08707 -0.21756,0.21013 -0.27951,0.36916c-0.06243,0.15933 -0.09344,0.36554 -0.09344,0.61905z" fill="#eb7a2f" fill-opacity="1"></path></g><g clip-path="url(#clip-1b049dab-6c88-49b7-8df9-4aebe48478cd)"><title>Caminho 25418</title><path d="M60.64844,37.67982v0h1.2677v0l0.49222,4.74298v0h0.0148v0l0.49219,-4.74298v0h1.26788v0l-0.71594,5.39935v0h-2.10309v0z" fill="#eb7a2f" fill-opacity="1"></path></g><g clip-path="url(#clip-1b049dab-6c88-49b7-8df9-4aebe48478cd)"><title>Caminho 25419</title><path d="M65.31701,40.18564c0,-0.07965 0.01859,-0.1368 0.05579,-0.17157c0.03733,-0.03463 0.12061,-0.05231 0.24988,-0.05231c0.12924,0 0.21256,0.01769 0.24991,0.05231c0.03729,0.03477 0.05591,0.09192 0.05591,0.17157v0.55919h-0.61148zM64.16843,41.93059c0,0.25352 0.03097,0.46004 0.09344,0.61891c0.06195,0.15921 0.15521,0.28238 0.27948,0.36929c0.12412,0.08691 0.27588,0.14544 0.4549,0.17523c0.1791,0.02979 0.38775,0.04474 0.62643,0.04474c0.27829,0 0.51078,-0.01617 0.69733,-0.04837c0.18643,-0.03234 0.33548,-0.08709 0.44748,-0.16418c0.11188,-0.07708 0.19123,-0.18155 0.23856,-0.31323c0.04715,-0.13165 0.07089,-0.2969 0.07089,-0.49597v-0.21632h-1.11865v0.17912c0,0.11444 -0.02493,0.18762 -0.07452,0.21997c-0.04975,0.03235 -0.12927,0.04837 -0.23871,0.04837c-0.14423,0 -0.23493,-0.01859 -0.27225,-0.05594c-0.0372,-0.0372 -0.05579,-0.10553 -0.05579,-0.20499v-0.64127h1.75992v-1.17836c0,-0.1492 -0.01861,-0.28813 -0.05609,-0.41768c-0.03717,-0.12911 -0.10929,-0.23976 -0.21619,-0.33182c-0.10688,-0.09192 -0.25486,-0.16524 -0.4437,-0.21996c-0.18909,-0.05472 -0.43521,-0.08194 -0.73828,-0.08194c-0.23867,0 -0.44732,0.01481 -0.62643,0.04475c-0.17902,0.02977 -0.33079,0.08827 -0.4549,0.1752c-0.12427,0.08691 -0.21753,0.20997 -0.27948,0.369c-0.06246,0.15935 -0.09344,0.36554 -0.09344,0.61905z" fill="#eb7a2f" fill-opacity="1"></path></g><g clip-path="url(#clip-1b049dab-6c88-49b7-8df9-4aebe48478cd)"><title>Caminho 25420</title><path d="M67.41238,39.27574v0h0.31323v0v-0.99197v0h1.1037v0v0.99197v0h0.64127v0v0.83508v0h-0.64127v0v1.9017c0,0.09964 0.01724,0.17294 0.05212,0.22012c0.03479,0.0473 0.11188,0.07074 0.23114,0.07074c0.04977,0 0.09811,-0.00229 0.14563,-0.00742c0.047,-0.00497 0.09311,-0.00983 0.13788,-0.0148v0.82767c-0.10434,0.00497 -0.21878,0.01132 -0.34302,0.01859c-0.12442,0.00757 -0.24368,0.01132 -0.358,0.01132c-0.33813,0 -0.58429,-0.06592 -0.73816,-0.19772c-0.15436,-0.13165 -0.23129,-0.34409 -0.23129,-0.63763v-2.19257v0h-0.31323v0z" fill="#eb7a2f" fill-opacity="1"></path></g><g clip-path="url(#clip-1b049dab-6c88-49b7-8df9-4aebe48478cd)"><title>Caminho 25421</title><path d="M70.90246,40.18564c0,-0.07965 0.01862,-0.1368 0.05579,-0.17157c0.03736,-0.03463 0.12064,-0.05231 0.24988,-0.05231c0.12924,0 0.21256,0.01769 0.24991,0.05231c0.03732,0.03477 0.05591,0.09192 0.05591,0.17157v0.55919h-0.61148zM69.75387,41.93059c0,0.25352 0.031,0.46004 0.09344,0.61891c0.06195,0.15921 0.15524,0.28238 0.27951,0.36929c0.12409,0.08691 0.27588,0.14544 0.4549,0.17523c0.1791,0.02979 0.38772,0.04474 0.6264,0.04474c0.27829,0 0.51081,-0.01617 0.69736,-0.04837c0.1864,-0.03234 0.33548,-0.08709 0.44748,-0.16418c0.11185,-0.07708 0.19123,-0.18155 0.23853,-0.31323c0.04715,-0.13165 0.07092,-0.2969 0.07092,-0.49597v-0.21632h-1.11868v0.17912c0,0.11444 -0.02493,0.18762 -0.07452,0.21997c-0.04975,0.03235 -0.12924,0.04837 -0.23868,0.04837c-0.14423,0 -0.23493,-0.01859 -0.27228,-0.05594c-0.03717,-0.0372 -0.05579,-0.10553 -0.05579,-0.20499v-0.64127h1.75995v-1.17836c0,-0.1492 -0.01861,-0.28813 -0.05609,-0.41768c-0.0372,-0.12911 -0.10932,-0.23976 -0.21619,-0.33182c-0.10687,-0.09192 -0.25488,-0.16524 -0.44366,-0.21996c-0.18912,-0.05472 -0.43524,-0.08194 -0.73834,-0.08194c-0.23867,0 -0.44729,0.01481 -0.6264,0.04475c-0.17902,0.02977 -0.33082,0.08827 -0.4549,0.1752c-0.12427,0.08691 -0.21756,0.20997 -0.27951,0.369c-0.06243,0.15935 -0.09344,0.36554 -0.09344,0.61905z" fill="#eb7a2f" fill-opacity="1"></path></g><g clip-path="url(#clip-1b049dab-6c88-49b7-8df9-4aebe48478cd)"><title>Caminho 25422</title><path d="M73.17682,39.27574v0h1.05896v0v0.38036v0h0.01495c0.07465,-0.174 0.16522,-0.29085 0.27209,-0.35057c0.10687,-0.05956 0.26727,-0.08949 0.48114,-0.08949c0.19867,0 0.35541,0.03613 0.46973,0.10809c0.11426,0.07225 0.17413,0.2251 0.17902,0.45865v1.02917v0h-0.92462v0v-0.56674c0,-0.05957 -0.02246,-0.09947 -0.06726,-0.11928c-0.04474,-0.01996 -0.09686,-0.02994 -0.15662,-0.02994c-0.06451,0 -0.11804,0.0139 -0.16022,0.04099c-0.04248,0.0275 -0.06335,0.08087 -0.06335,0.16039v2.78169v0h-1.10382v0z" fill="#eb7a2f" fill-opacity="1"></path></g><g clip-path="url(#clip-1b049dab-6c88-49b7-8df9-4aebe48478cd)"><title>Caminho 25423</title><path d="M75.96573,39.27576h1.10388v3.80327h-1.10388zM75.96573,37.67984h1.10388v0.87997h-1.10388z" fill="#eb7a2f" fill-opacity="1"></path></g><g clip-path="url(#clip-1b049dab-6c88-49b7-8df9-4aebe48478cd)"><title>Caminho 25424</title><path d="M77.65854,39.27574v0h1.10382v0v0.41769v0h0.01483c0.07959,-0.16902 0.18384,-0.291 0.31323,-0.36552c0.12927,-0.07452 0.28345,-0.11188 0.46228,-0.11188c0.11926,0 0.23236,0.01497 0.33942,0.04475c0.10663,0.02992 0.19879,0.07831 0.276,0.14542c0.07697,0.06712 0.13788,0.15662 0.18268,0.26848c0.04468,0.11188 0.06702,0.24989 0.06702,0.41391v2.99046v0h-1.10364v0v-2.72198c0,-0.0845 -0.02118,-0.14922 -0.06354,-0.19395c-0.04211,-0.04475 -0.11542,-0.06712 -0.21991,-0.06712c-0.09949,0 -0.16907,0.02237 -0.20874,0.06712c-0.03979,0.04474 -0.05963,0.10945 -0.05963,0.19395v2.72198v0h-1.10382v0z" fill="#eb7a2f" fill-opacity="1"></path></g><g clip-path="url(#clip-1b049dab-6c88-49b7-8df9-4aebe48478cd)"><title>Caminho 25425</title><path d="M81.97644,41.76658c0,-0.12909 0.02234,-0.21496 0.06714,-0.25729c0.04479,-0.04218 0.11206,-0.06334 0.20135,-0.06334c0.10932,0 0.18158,0.02116 0.21631,0.06334c0.03473,0.04233 0.05219,0.11322 0.05219,0.21254v0.30583c0,0.07453 -0.01623,0.13922 -0.04852,0.19379c-0.03216,0.05472 -0.10571,0.08209 -0.21997,0.08209c-0.09949,0 -0.16779,-0.02222 -0.20502,-0.06714c-0.0373,-0.04474 -0.0586,-0.12923 -0.06348,-0.25351zM81.70056,38.78371h0.73834l1.1037,-1.10387h-1.15588zM80.992,40.36463h0.96954v-0.20876c0,-0.0697 0.02368,-0.11945 0.07086,-0.1492c0.0473,-0.02993 0.11303,-0.04475 0.19769,-0.04475c0.18885,0 0.28333,0.06229 0.28333,0.18639v0.84264c-0.10449,-0.08436 -0.21894,-0.14648 -0.34302,-0.1864c-0.12427,-0.03977 -0.25367,-0.05956 -0.38776,-0.05956c-0.14923,0 -0.28345,0.01753 -0.40265,0.05217c-0.11938,0.0349 -0.22003,0.09583 -0.30212,0.18274c-0.08203,0.08693 -0.14416,0.20514 -0.18652,0.3542c-0.04217,0.14905 -0.06335,0.34058 -0.06335,0.57428c0,0.19381 0.01245,0.36779 0.03723,0.522c0.0249,0.15404 0.07092,0.2833 0.13812,0.38776c0.06714,0.10446 0.16028,0.18397 0.27954,0.23869c0.11944,0.05458 0.27343,0.08194 0.46246,0.08194c0.10443,0 0.19391,-0.00499 0.26843,-0.01482c0.07458,-0.01015 0.14038,-0.02872 0.19775,-0.05594c0.05701,-0.02738 0.11169,-0.06591 0.164,-0.11565c0.052,-0.04959 0.10797,-0.11427 0.16766,-0.1938h0.01514v0.32063h1.0589v-2.78909c0,-0.23371 -0.02753,-0.4213 -0.08203,-0.5631c-0.05487,-0.14166 -0.13928,-0.24974 -0.25354,-0.32443c-0.11456,-0.07453 -0.26117,-0.12426 -0.44,-0.14919c-0.17907,-0.02479 -0.39038,-0.0372 -0.63403,-0.0372c-0.20886,0 -0.39038,0.00878 -0.54425,0.02602c-0.15435,0.01752 -0.28106,0.05109 -0.38049,0.10068c-0.09943,0.04971 -0.17261,0.11821 -0.21991,0.20529c-0.04724,0.08691 -0.07098,0.20013 -0.07098,0.3392z" fill="#eb7a2f" fill-opacity="1"></path></g><g clip-path="url(#clip-1b049dab-6c88-49b7-8df9-4aebe48478cd)"><title>Caminho 25426</title><path d="M84.20605,39.27574v0h1.05896v0v0.38036v0h0.01495c0.07471,-0.174 0.16522,-0.29085 0.27209,-0.35057c0.10693,-0.05956 0.26733,-0.08949 0.4812,-0.08949c0.19861,0 0.35535,0.03613 0.46973,0.10809c0.11426,0.07225 0.17407,0.2251 0.17896,0.45865v1.02917v0h-0.92456v0v-0.56674c0,-0.05957 -0.02252,-0.09947 -0.06726,-0.11928c-0.0448,-0.01996 -0.09692,-0.02994 -0.15662,-0.02994c-0.06458,0 -0.11804,0.0139 -0.16028,0.04099c-0.04242,0.0275 -0.06335,0.08087 -0.06335,0.16039v2.78169v0h-1.10382v0z" fill="#eb7a2f" fill-opacity="1"></path></g><g clip-path="url(#clip-1b049dab-6c88-49b7-8df9-4aebe48478cd)"><title>Caminho 25427</title><path d="M86.99512,39.27576h1.10388v3.80327h-1.10388zM86.99512,37.67984h1.10388v0.87997h-1.10388z" fill="#eb7a2f" fill-opacity="1"></path></g><g clip-path="url(#clip-1b049dab-6c88-49b7-8df9-4aebe48478cd)"><title>Caminho 25428</title><path d="M89.76187,40.32728c0,-0.11428 0.02344,-0.18879 0.07074,-0.22372c0.04711,-0.03462 0.12542,-0.05215 0.23492,-0.05215c0.10925,0 0.18756,0.01753 0.23492,0.05215c0.0473,0.03492 0.07086,0.10943 0.07086,0.22372v1.70035c0,0.11444 -0.02356,0.18899 -0.07086,0.22372c-0.04736,0.03495 -0.12567,0.05219 -0.23492,0.05219c-0.10949,0 -0.1878,-0.01725 -0.23492,-0.05219c-0.0473,-0.03472 -0.07074,-0.10928 -0.07074,-0.22372zM88.61325,41.93058c0,0.2537 0.031,0.46003 0.09344,0.61906c0.06195,0.15918 0.15521,0.28222 0.27948,0.36932c0.12415,0.08691 0.27588,0.14526 0.4549,0.1752c0.17919,0.02976 0.38775,0.04474 0.62646,0.04474c0.2387,0 0.44744,-0.01499 0.62646,-0.04474c0.17895,-0.02994 0.33056,-0.08829 0.45483,-0.1752c0.12426,-0.08709 0.2174,-0.21014 0.27972,-0.36932c0.06207,-0.15902 0.0932,-0.36535 0.0932,-0.61906v-1.50623c0,-0.25351 -0.03113,-0.45972 -0.0932,-0.61905c-0.06231,-0.15903 -0.15545,-0.28209 -0.27972,-0.36916c-0.12426,-0.08693 -0.27587,-0.14528 -0.45483,-0.1752c-0.17901,-0.02978 -0.38775,-0.04475 -0.62646,-0.04475c-0.2387,0 -0.44726,0.01496 -0.62646,0.04475c-0.17902,0.02992 -0.33075,0.08827 -0.4549,0.1752c-0.12427,0.08707 -0.21753,0.21013 -0.27948,0.36916c-0.06243,0.15933 -0.09344,0.36554 -0.09344,0.61905z" fill="#eb7a2f" fill-opacity="1"></path></g><g clip-path="url(#clip-1b049dab-6c88-49b7-8df9-4aebe48478cd)"><title>Caminho 25429</title><path d="M12.87184,0.95561c-3.44668,-0.36613 -7.04786,3.59211 -9.34746,9.63242c-0.05064,0.13348 0.17672,0.20619 0.24051,0.07679c2.31699,-4.69444 5.49186,-7.60205 8.56167,-7.27597c3.78576,0.40211 6.30803,5.60721 6.60191,12.60291c0.00076,0.01799 0.0062,0.13393 0.01316,0.21663c0.00544,0.065 0.07301,0.16508 0.18034,0.14981c0.15268,-0.02162 0.19108,-0.27014 0.18836,-0.29282c0.36266,-8.36168 -2.28781,-14.6688 -6.43849,-15.10977" fill="#eb7a2f" fill-opacity="1"></path></g><g clip-path="url(#clip-1b049dab-6c88-49b7-8df9-4aebe48478cd)"><title>Caminho 25430</title><path d="M5.55097,43.64655c3.34525,0.56522 7.10682,-2.96217 9.72463,-8.54716c0.05775,-0.12334 -0.15994,-0.2068 -0.23038,-0.08798c-2.55191,4.30699 -5.41749,6.43079 -8.39705,5.92723c-3.67434,-0.62085 -6.23441,-5.2843 -6.09201,-11.93958c0.0003,-0.01723 0.00212,-0.12744 0.00045,-0.20648c-0.00136,-0.06184 -0.06122,-0.16116 -0.16704,-0.15346c-0.15041,0.01089 -0.20317,0.24429 -0.20196,0.26591c-0.86772,7.9097 1.33483,14.06079 5.36337,14.74152" fill="#eb7a2f" fill-opacity="1"></path></g></g></g></g></svg>