<?xml version="1.0" encoding="UTF-8"?>
<svg id="SVGDoc" width="100" height="28" xmlns="http://www.w3.org/2000/svg" version="1.1" xmlns:xlink="http://www.w3.org/1999/xlink" xmlns:avocode="https://avocode.com/" viewBox="0 0 100 28"><defs></defs><desc>Generated with Avocode.</desc><g><g><title>Grupo 9504</title><g><title>Grupo 6066</title><g><title>Caminho 6313</title><path d="M-0.00033,0.84805v0h3.12229v0v12.28909c0,1.18193 0.73609,1.15949 1.38295,1.15949h5.59808v0v2.87724v0h-6.71336c-1.76194,0 -3.38995,-0.66911 -3.38995,-3.16687z" fill="#ffffff" fill-opacity="1"></path></g><g><title>Caminho 6314</title><path d="M15.14222,14.38589v-10.7723h3.56847c1.7397,0 2.78786,1.07059 2.78786,5.44189c0,3.27864 -0.75833,5.33041 -2.78786,5.33041zM12.01994,17.17387h6.93619c3.96988,0 5.66492,-3.3009 5.66492,-8.09604c0,-4.03682 -0.98136,-8.22978 -5.66492,-8.22978h-6.93619z" fill="#ffffff" fill-opacity="1"></path></g><g><title>Caminho 6315</title><path d="M26.78324,0.84805v0h3.16714v0l6.46793,10.5493v0v-10.5493v0h3.12216v0v16.32582v0h-3.12216v0l-6.49036,-10.43781v0v10.43781v0h-3.14471v0z" fill="#ffffff" fill-opacity="1"></path></g><g><title>Caminho 6316</title><path d="M46.65434,10.79519l1.96255,-5.84342l1.82904,5.84342zM41.30152,17.17387h3.34549l1.18216,-3.61315h5.35254l1.15979,3.61315h3.32318l-5.30814,-16.32582h-3.5462z" fill="#ffffff" fill-opacity="1"></path></g><g><title>Caminho 6317</title><path d="M62.6663,4.92952c0,-3.23396 1.91785,-4.17073 4.41577,-4.2153c2.34192,-0.0446 5.01819,0.26756 6.31189,0.64674v2.45337c-1.42737,-0.13385 -4.6615,-0.22308 -5.46423,-0.22308c-1.36041,-0.02223 -2.14111,0.067 -2.14111,1.5836v0.80284c0,1.29361 0.4906,1.56128 1.73962,1.56128h2.58704c3.21179,0 3.85864,2.5202 3.85864,4.32681v1.09274c0,3.70239 -2.29736,4.39365 -4.50537,4.39365c-2.78772,0 -4.61682,-0.17833 -6.31177,-0.66901v-2.45319c0.89221,0.08908 3.61304,0.24527 5.68726,0.24527c0.93677,0 2.00732,-0.15619 2.00732,-1.40521v-0.86986c0,-0.93658 -0.26758,-1.53883 -1.47205,-1.53883h-2.49792c-3.94775,0 -4.21509,-2.89938 -4.21509,-4.32681z" fill="#eb7a2f" fill-opacity="1"></path></g><g><title>Caminho 6318</title><path d="M81.31059,0.00045v0h3.23389v0l-6.26697,18.77916v0h-3.23401v0z" fill="#eb7a2f" fill-opacity="1"></path></g><g><title>Caminho 6319</title><path d="M90.98935,10.79519l1.96265,-5.84342l1.8288,5.84342zM85.63669,17.17387h3.34528l1.18207,-3.61315h5.35278l1.15991,3.61315h3.323l-5.30835,-16.32582h-3.54602z" fill="#eb7a2f" fill-opacity="1"></path></g></g><g><title>Grupo 6068</title><g><title>Grupo 6067</title><g><title>Caminho 6320</title><path d="M3.96902,24.74961l0.70644,-2.10321l0.65829,2.10321zM2.04234,27.04554h1.20418l0.42545,-1.30035h1.92668l0.4174,1.30035h1.19605l-1.91051,-5.87616h-1.27637z" fill="#ffffff" fill-opacity="1"></path></g><g><title>Caminho 6321</title><path d="M11.70847,21.10517c0.89111,0 1.40497,0.04816 2.25574,0.25705v0.87488c-0.04803,0 -1.07559,-0.1366 -1.99074,-0.1366c-0.8911,0 -1.05968,0.53787 -1.05968,1.991c0,1.52518 0.17661,1.93463 1.00348,1.94266c0.55386,0.0079 1.01135,-0.36935 1.01135,-0.36935v0v-1.05145v0h-0.81873v0v-0.71457c0.34525,-0.14438 0.81873,-0.19272 1.3968,-0.19272c0.16859,0 0.35326,0 0.54588,0.01608v3.32343v0h-0.80275v0l-0.30501,-0.39334c-0.25687,0.24097 -0.57004,0.40948 -1.2444,0.43344c-1.6617,0.0643 -1.91051,-1.3324 -1.91051,-3.01031c0,-1.70981 0.32111,-2.97018 1.91855,-2.97018z" fill="#ffffff" fill-opacity="1"></path></g><g><title>Caminho 6322</title><path d="M18.05914,20.64765h0.75461l0.50568,-0.4816l0.4736,0.4816h0.74655l-0.77853,-1.08377h-0.8349zM17.2163,25.88956c0,1.08377 0.83472,1.20419 1.35657,1.17999c0,0 2.04709,-0.07214 2.50458,-0.13635v-0.92322h-2.23965c-0.23273,0 -0.49771,0.00806 -0.49771,-0.41751v-0.91513l2.37613,-0.07208v-0.93127l-2.37613,-0.08038v-0.9151c0,-0.2165 0,-0.44962 0.41745,-0.44962h2.31992v-0.93118c-0.51373,-0.07215 -2.58481,-0.12833 -2.58481,-0.12833c-0.55402,-0.00802 -1.27634,0.2006 -1.27634,1.22025z" fill="#ffffff" fill-opacity="1"></path></g><g><title>Caminho 6323</title><path d="M24.16095,21.16938v0h1.13986v0l2.328,3.79718v0v-3.79718v0h1.12384v0v5.87616v0h-1.12384v0l-2.33606,-3.75684v0v3.75684v0h-1.13181v0z" fill="#ffffff" fill-opacity="1"></path></g><g><title>Caminho 6324</title><path d="M33.819,21.10517c0.81882,0 1.41296,0.08017 2.04703,0.26483v0.88315c-0.00797,0 -0.99536,-0.11237 -1.78204,-0.11237c-0.82681,0 -1.13992,0.18448 -1.13992,1.96689c0,1.31628 0.21674,1.95053 1.13992,1.95053c0.84286,0 1.78204,-0.06406 1.78204,-0.06406v0v0.87485c-0.52979,0.16858 -1.20407,0.24088 -2.04703,0.22476c-1.48508,-0.0159 -1.99881,-1.13992 -1.99881,-3.00226c0,-1.8786 0.40134,-2.98633 1.99881,-2.98633z" fill="#ffffff" fill-opacity="1"></path></g><g><title>Caminho 6325</title><path d="M38.92542,21.16938v0h1.1239v0v5.87616v0h-1.1239v0z" fill="#ffffff" fill-opacity="1"></path></g><g><title>Caminho 6326</title><path d="M44.97062,24.74961l0.70642,-2.10321l0.65826,2.10321zM43.04403,27.04554h1.2041l0.42548,-1.30035h1.9267l0.41736,1.30035h1.19611l-1.91058,-5.87616h-1.27631z" fill="#ffffff" fill-opacity="1"></path></g><g><title>Caminho 6327</title><path d="M56.68424,26.04199v-3.87701h1.28442c0.6264,0 1.00372,0.3852 1.00372,1.9585c0,1.18018 -0.27319,1.91852 -1.00372,1.91852zM55.56046,27.04554h2.4967c1.42871,0 2.039,-1.18805 2.039,-2.91397c0,-1.4531 -0.35327,-2.96219 -2.039,-2.96219h-2.4967z" fill="#ffffff" fill-opacity="1"></path></g><g><title>Caminho 6328</title><path d="M63.24381,21.16938v0h1.12396v0v5.87616v0h-1.12396v0z" fill="#ffffff" fill-opacity="1"></path></g><g><title>Caminho 6329</title><path d="M69.34519,21.10517c0.89117,0 1.40497,0.04816 2.25586,0.25705v0.87488c-0.04803,0 -1.07568,-0.1366 -1.99084,-0.1366c-0.89093,0 -1.05945,0.53787 -1.05945,1.991c0,1.52518 0.17627,1.93463 1.00336,1.94266c0.55377,0.0079 1.01135,-0.36935 1.01135,-0.36935v0v-1.05145v0h-0.81879v0v-0.71457c0.34521,-0.14438 0.81879,-0.19272 1.39673,-0.19272c0.16858,0 0.35345,0 0.54584,0.01608v3.32343v0h-0.80267v0l-0.30499,-0.39334c-0.25684,0.24097 -0.56976,0.40948 -1.24426,0.43344c-1.66174,0.0643 -1.91064,-1.3324 -1.91064,-3.01031c0,-1.70981 0.32141,-2.97018 1.91852,-2.97018z" fill="#ffffff" fill-opacity="1"></path></g><g><title>Caminho 6330</title><path d="M74.87699,21.16938v0h1.1239v0v5.87616v0h-1.1239v0z" fill="#ffffff" fill-opacity="1"></path></g><g><title>Caminho 6331</title><path d="M78.9719,21.16938v0h4.34302v0v1.03558v0h-1.62964v0v4.84058v0h-1.1239v0v-4.84058v0h-1.58948v0z" fill="#ffffff" fill-opacity="1"></path></g><g><title>Caminho 6332</title><path d="M87.12833,24.74961l0.7066,-2.10321l0.65833,2.10321zM85.20183,27.04554h1.20422l0.4256,-1.30035h1.92645l0.41754,1.30035h1.19604l-1.91071,-5.87616h-1.27637z" fill="#ffffff" fill-opacity="1"></path></g><g><title>Caminho 6333</title><path d="M93.34281,21.16938v0h1.1239v0v4.42316c0,0.42554 0.26489,0.41748 0.4978,0.41748h2.01489v0v1.03552v0h-2.41638c-0.63403,0 -1.22021,-0.24081 -1.22021,-1.13989z" fill="#ffffff" fill-opacity="1"></path></g></g></g></g></g></svg>