<?xml version="1.0" encoding="UTF-8"?>
<svg id="SVGDoc" width="69" height="111" xmlns="http://www.w3.org/2000/svg" version="1.1" xmlns:xlink="http://www.w3.org/1999/xlink" xmlns:avocode="https://avocode.com/" viewBox="0 0 69 111"><defs></defs><desc>Generated with Avocode.</desc><g><g><title>Grupo 9505</title><g transform="rotate(26.999999330442087 43.21000000000001 24.845)"><title>Caminho 25459</title><path d="M48.36259,-2.64106c-12.31864,-1.30857 -25.18944,12.83821 -33.40834,34.42632c-0.181,0.47707 0.63159,0.73694 0.8596,0.27446c8.28104,-16.77797 19.62822,-27.16978 30.5999,-26.00438c13.53051,1.43716 22.54527,20.0402 23.59559,45.0429c0.00271,0.06429 0.02215,0.47868 0.04702,0.77423c0.01944,0.23232 0.26096,0.58999 0.64456,0.53542c0.54568,-0.07725 0.68293,-0.96548 0.67319,-1.04652c1.29615,-29.88471 -8.17677,-52.42642 -23.01154,-54.00243" fill="#eb7a2f" fill-opacity="1"></path></g><g transform="rotate(18.999999609349345 25.595 86.205)"><title>Caminho 25460</title><path d="M18.11714,112.92197c11.9561,2.02008 25.40016,-10.58679 34.75636,-30.54758c0.2064,-0.44084 -0.57163,-0.73915 -0.8234,-0.31448c-9.12065,15.39323 -19.3624,22.98369 -30.01154,21.18399c-13.13231,-2.21892 -22.28213,-18.88614 -21.77318,-42.67213c0.00108,-0.06159 0.00756,-0.4555 0.00162,-0.73799c-0.00486,-0.221 -0.21882,-0.57598 -0.59702,-0.54842c-0.53759,0.03893 -0.72615,0.87308 -0.72183,0.95039c-3.10127,28.26927 4.77077,50.25336 19.16898,52.68623" fill="#eb7a2f" fill-opacity="1"></path></g></g></g></svg>