<?xml version="1.0" encoding="UTF-8"?>
<svg id="SVGDoc" width="37" height="37" xmlns="http://www.w3.org/2000/svg" version="1.1" xmlns:xlink="http://www.w3.org/1999/xlink" xmlns:avocode="https://avocode.com/" viewBox="0 0 37 37"><defs></defs><desc>Generated with Avocode.</desc><g><g><title>whatsapp</title><path d="M18.82893,0.3206c2.39538,0 4.68533,0.46975 6.86985,1.40925c2.18451,0.9395 4.06735,2.20017 5.64849,3.78202c1.58115,1.58184 2.84182,3.46467 3.78202,5.64849c0.94019,2.18382 1.40995,4.47377 1.40925,6.86985c-0.0007,2.39608 -0.47044,4.68602 -1.40925,6.86984c-0.93881,2.18382 -2.19948,4.06665 -3.78202,5.64849c-1.58254,1.58184 -3.46537,2.84251 -5.64849,3.78201c-2.18312,0.93951 -4.47307,1.40926 -6.86985,1.40925c-3.05373,0 -5.91155,-0.73594 -8.57348,-2.20783l-9.79379,3.14734l3.19431,-9.51194c-1.6911,-2.78789 -2.53665,-5.83361 -2.53665,-9.13718c0,-2.39538 0.46975,-4.68533 1.40925,-6.86985c0.9395,-2.18452 2.20017,-4.06735 3.78202,-5.64849c1.58184,-1.58115 3.46467,-2.84182 5.64849,-3.78202c2.18382,-0.9402 4.47377,-1.40995 6.86985,-1.40925zM18.82893,32.78038c1.98826,0 3.89476,-0.39146 5.71948,-1.17437c1.82472,-0.78292 3.39439,-1.83203 4.70899,-3.14733c1.31461,-1.3153 2.36372,-2.88496 3.14734,-4.70899c0.78361,-1.82402 1.17507,-3.73052 1.17438,-5.71947c-0.00069,-1.98896 -0.39215,-3.89546 -1.17438,-5.71948c-0.78222,-1.82403 -1.83134,-3.39369 -3.14734,-4.70899c-1.316,-1.3153 -2.88566,-2.36441 -4.70899,-3.14733c-1.82333,-0.78292 -3.72982,-1.17438 -5.71948,-1.17438c-1.98966,0 -3.89615,0.39146 -5.71948,1.17438c-1.82333,0.78292 -3.39299,1.83203 -4.70899,3.14733c-1.316,1.3153 -2.36511,2.88497 -3.14733,4.70899c-0.78222,1.82403 -1.17368,3.73052 -1.17438,5.71948c0,3.1783 0.9395,6.05944 2.81851,8.64341l-1.85499,5.47208l5.68399,-1.80802c2.47402,1.62847 5.17492,2.44271 8.10268,2.44271zM23.59638,20.33198c0.20321,0 0.96664,0.34448 2.29029,1.03345c1.32365,0.68897 2.02445,1.10374 2.1024,1.24432c0.03131,0.07794 0.04697,0.19521 0.04697,0.35179c0,0.51638 -0.13327,1.1114 -0.39981,1.78505c-0.25053,0.61033 -0.80623,1.12323 -1.6671,1.53869c-0.86086,0.41547 -1.65944,0.6232 -2.39573,0.62321c-0.89218,0 -2.37972,-0.48541 -4.46263,-1.45623c-1.53452,-0.70428 -2.86548,-1.62812 -3.99288,-2.77153c-1.1274,-1.14341 -2.28612,-2.59199 -3.47616,-4.34572c-1.1274,-1.6751 -1.6831,-3.19396 -1.66709,-4.55659v-0.1879c0.04732,-1.42457 0.62668,-2.66158 1.73808,-3.71103c0.3758,-0.34448 0.78292,-0.51673 1.22135,-0.51673c0.09395,0 0.23488,0.01183 0.42278,0.03549c0.1879,0.02366 0.33648,0.03549 0.44574,0.03549c0.29716,0 0.50455,0.0508 0.62216,0.15241c0.11761,0.1016 0.23905,0.31699 0.36432,0.64617c0.12527,0.31317 0.38346,1.00214 0.77457,2.0669c0.39111,1.06477 0.58701,1.65213 0.58771,1.76209c0,0.32848 -0.27002,0.77874 -0.81006,1.3508c-0.54004,0.57205 -0.81041,0.93568 -0.8111,1.09087c0,0.10995 0.03897,0.22722 0.11692,0.35179c0.53238,1.14272 1.33096,2.21548 2.39573,3.21832c0.87687,0.82954 2.0589,1.62012 3.5461,2.37172c0.1879,0.10996 0.36014,0.16494 0.51673,0.16494c0.23453,0 0.6573,-0.37963 1.26833,-1.13888c0.61102,-0.75926 1.01814,-1.13889 1.22135,-1.13889z" fill="#ffffff" fill-opacity="1"></path></g></g></svg>