<svg xmlns="http://www.w3.org/2000/svg" width="432" height="353" viewBox="0 0 432 353"><defs><mask id="lcvgb" width="2" height="2" x="-1" y="-1"><path fill="#fff" d="M36 36h360v281H36z"/><path d="M396 317V204.927c-.02 2.047-.739 4.22-2.08 6.282l-66.73 105.79H396v.002zm-166.849 0l-22.234-107.988c-.92-4.615.517-7.576 1.885-9.246 1.368-1.665 3.98-3.65 8.647-3.65h9.982v-.095h34.874l-9.386 48.935.046-.019c-.468 1.986-.244 3.861.6 5.017.566.774 1.374 1.207 2.403 1.286.819.064 2.212.094 4.26.094 2.635 0 6.066-.051 9.385-.101l.103-.002c3.38-.05 6.874-.102 9.648-.102 2.316 0 3.885.036 4.797.111.914.075 1.335.135 1.523.392.178.243.127.658-.039 1.387-3.3 14.56-6.664 29.403-9.915 43.757l-1.28 5.649-.898 3.965c-.517 2.283.249 3.958 2.156 4.714.497.197.988.297 1.46.297 1.331 0 2.486-.777 3.341-2.247 13.684-23.518 28.263-48.576 42.831-73.635 1.042-1.792 1.258-3.505.595-4.7-.578-1.04-1.758-1.616-3.413-1.666-1.732-.052-4.039-.077-7.051-.077-3.89 0-8.518.042-12.994.084h-.02c-2.417.022-4.916.045-7.291.061-1.056-.083-1.563-.246-1.81-.583-.282-.387-.21-1.013-.003-1.898.253-1.084.6-2.752.933-4.365l.009-.044.033-.156c.28-1.357.547-2.639.751-3.541l1.02-4.509c1.454-6.435 2.766-12.24 4.094-18.104h74.945l-.057.095h12.54c4.325 0 7.748 1.733 9.391 4.756a8.214 8.214 0 0 1 .988 3.881V36H36v281h193.151z"/></mask><filter id="lcvga" width="452" height="373" x="-10" y="-10" filterUnits="userSpaceOnUse"><feOffset in="SourceGraphic" result="FeOffset1621Out"/><feGaussianBlur in="FeOffset1621Out" result="FeGaussianBlur1622Out" stdDeviation="14.4 14.4"/></filter></defs><g><g><g filter="url(#lcvga)"><path fill="none" d="M396 317V204.927c-.02 2.047-.739 4.22-2.08 6.282l-66.73 105.79H396v.002zm-166.849 0l-22.234-107.988c-.92-4.615.517-7.576 1.885-9.246 1.368-1.665 3.98-3.65 8.647-3.65h9.982v-.095h34.874l-9.386 48.935.046-.019c-.468 1.986-.244 3.861.6 5.017.566.774 1.374 1.207 2.403 1.286.819.064 2.212.094 4.26.094 2.635 0 6.066-.051 9.385-.101l.103-.002c3.38-.05 6.874-.102 9.648-.102 2.316 0 3.885.036 4.797.111.914.075 1.335.135 1.523.392.178.243.127.658-.039 1.387-3.3 14.56-6.664 29.403-9.915 43.757l-1.28 5.649-.898 3.965c-.517 2.283.249 3.958 2.156 4.714.497.197.988.297 1.46.297 1.331 0 2.486-.777 3.341-2.247 13.684-23.518 28.263-48.576 42.831-73.635 1.042-1.792 1.258-3.505.595-4.7-.578-1.04-1.758-1.616-3.413-1.666-1.732-.052-4.039-.077-7.051-.077-3.89 0-8.518.042-12.994.084h-.02c-2.417.022-4.916.045-7.291.061-1.056-.083-1.563-.246-1.81-.583-.282-.387-.21-1.013-.003-1.898.253-1.084.6-2.752.933-4.365l.009-.044.033-.156c.28-1.357.547-2.639.751-3.541l1.02-4.509c1.454-6.435 2.766-12.24 4.094-18.104h74.945l-.057.095h12.54c4.325 0 7.748 1.733 9.391 4.756a8.214 8.214 0 0 1 .988 3.881V36H36v281h193.151z" mask="url(&quot;#lcvgb&quot;)"/><path fill-opacity=".06" d="M396 317V204.927c-.02 2.047-.739 4.22-2.08 6.282l-66.73 105.79H396v.002zm-166.849 0l-22.234-107.988c-.92-4.615.517-7.576 1.885-9.246 1.368-1.665 3.98-3.65 8.647-3.65h9.982v-.095h34.874l-9.386 48.935.046-.019c-.468 1.986-.244 3.861.6 5.017.566.774 1.374 1.207 2.403 1.286.819.064 2.212.094 4.26.094 2.635 0 6.066-.051 9.385-.101l.103-.002c3.38-.05 6.874-.102 9.648-.102 2.316 0 3.885.036 4.797.111.914.075 1.335.135 1.523.392.178.243.127.658-.039 1.387-3.3 14.56-6.664 29.403-9.915 43.757l-1.28 5.649-.898 3.965c-.517 2.283.249 3.958 2.156 4.714.497.197.988.297 1.46.297 1.331 0 2.486-.777 3.341-2.247 13.684-23.518 28.263-48.576 42.831-73.635 1.042-1.792 1.258-3.505.595-4.7-.578-1.04-1.758-1.616-3.413-1.666-1.732-.052-4.039-.077-7.051-.077-3.89 0-8.518.042-12.994.084h-.02c-2.417.022-4.916.045-7.291.061-1.056-.083-1.563-.246-1.81-.583-.282-.387-.21-1.013-.003-1.898.253-1.084.6-2.752.933-4.365l.009-.044.033-.156c.28-1.357.547-2.639.751-3.541l1.02-4.509c1.454-6.435 2.766-12.24 4.094-18.104h74.945l-.057.095h12.54c4.325 0 7.748 1.733 9.391 4.756a8.214 8.214 0 0 1 .988 3.881V36H36v281h193.151z"/></g><path fill="#1679e6" d="M396 317V204.927c-.02 2.047-.739 4.22-2.08 6.282l-66.73 105.79H396v.002zm-166.849 0l-22.234-107.988c-.92-4.615.517-7.576 1.885-9.246 1.368-1.665 3.98-3.65 8.647-3.65h9.982v-.095h34.874l-9.386 48.935.046-.019c-.468 1.986-.244 3.861.6 5.017.566.774 1.374 1.207 2.403 1.286.819.064 2.212.094 4.26.094 2.635 0 6.066-.051 9.385-.101l.103-.002c3.38-.05 6.874-.102 9.648-.102 2.316 0 3.885.036 4.797.111.914.075 1.335.135 1.523.392.178.243.127.658-.039 1.387-3.3 14.56-6.664 29.403-9.915 43.757l-1.28 5.649-.898 3.965c-.517 2.283.249 3.958 2.156 4.714.497.197.988.297 1.46.297 1.331 0 2.486-.777 3.341-2.247 13.684-23.518 28.263-48.576 42.831-73.635 1.042-1.792 1.258-3.505.595-4.7-.578-1.04-1.758-1.616-3.413-1.666-1.732-.052-4.039-.077-7.051-.077-3.89 0-8.518.042-12.994.084h-.02c-2.417.022-4.916.045-7.291.061-1.056-.083-1.563-.246-1.81-.583-.282-.387-.21-1.013-.003-1.898.253-1.084.6-2.752.933-4.365l.009-.044.033-.156c.28-1.357.547-2.639.751-3.541l1.02-4.509c1.454-6.435 2.766-12.24 4.094-18.104h74.945l-.057.095h12.54c4.325 0 7.748 1.733 9.391 4.756a8.214 8.214 0 0 1 .988 3.881V36H36v281h193.151z"/></g></g></svg>