<svg xmlns="http://www.w3.org/2000/svg" width="1452" height="186" viewBox="0 0 1452 186"><defs><mask id="9hirb" width="2" height="2" x="-1" y="-1"><path fill="#fff" d="M25 25h1402v136H25z"/><path d="M967.636 133.401c-.473 0-.965-.1-1.461-.297-.945-.375-1.612-.976-1.983-1.787-.371-.811-.43-1.796-.173-2.927l2.505-11.057.233-1.029c3.07-13.548 6.236-27.529 9.355-41.285.165-.73.217-1.144.039-1.386-.188-.257-.609-.317-1.523-.392-.914-.075-2.484-.112-4.801-.112-2.78 0-6.27.052-9.645.103l-.103.001c-3.318.05-6.75.101-9.386.101-2.047 0-3.44-.03-4.257-.093-1.03-.08-1.838-.512-2.404-1.287-.845-1.156-1.07-3.031-.6-5.016l-.045.018L951.433 25h35.648l-3.535 15.635c-.21.926-.484 2.25-.774 3.65l-.002.007c-.34 1.643-.692 3.342-.95 4.448-.208.885-.28 1.51.003 1.898.247.337.754.5 1.81.583 2.421-.017 4.947-.04 7.39-.062h.028c4.436-.04 9.024-.083 12.878-.083 3.018 0 5.327.026 7.06.078 1.655.05 2.835.626 3.413 1.666.664 1.195.447 2.907-.595 4.699-13.923 23.95-27.635 47.518-42.83 73.635-.856 1.47-2.01 2.247-3.34 2.247zM924.148 161H35c-5.514 0-10-4.486-10-10V35c0-5.514 4.486-10 10-10h862.55c-.548 1.797-.604 3.82-.166 6.013zM1417 161h-413.22l80.608-127.791c1.776-2.732 2.445-5.648 1.883-8.21H1417c5.514 0 10 4.487 10 10v116c0 5.515-4.486 10-10 10z"/></mask><filter id="9hira" width="1494" height="228" x="-21" y="-21" filterUnits="userSpaceOnUse"><feOffset in="SourceGraphic" result="FeOffset1641Out"/><feGaussianBlur in="FeOffset1641Out" result="FeGaussianBlur1642Out" stdDeviation="14.4 14.4"/></filter></defs><g><g><g filter="url(#9hira)"><path fill="none" d="M967.636 133.401c-.473 0-.965-.1-1.461-.297-.945-.375-1.612-.976-1.983-1.787-.371-.811-.43-1.796-.173-2.927l2.505-11.057.233-1.029c3.07-13.548 6.236-27.529 9.355-41.285.165-.73.217-1.144.039-1.386-.188-.257-.609-.317-1.523-.392-.914-.075-2.484-.112-4.801-.112-2.78 0-6.27.052-9.645.103l-.103.001c-3.318.05-6.75.101-9.386.101-2.047 0-3.44-.03-4.257-.093-1.03-.08-1.838-.512-2.404-1.287-.845-1.156-1.07-3.031-.6-5.016l-.045.018L951.433 25h35.648l-3.535 15.635c-.21.926-.484 2.25-.774 3.65l-.002.007c-.34 1.643-.692 3.342-.95 4.448-.208.885-.28 1.51.003 1.898.247.337.754.5 1.81.583 2.421-.017 4.947-.04 7.39-.062h.028c4.436-.04 9.024-.083 12.878-.083 3.018 0 5.327.026 7.06.078 1.655.05 2.835.626 3.413 1.666.664 1.195.447 2.907-.595 4.699-13.923 23.95-27.635 47.518-42.83 73.635-.856 1.47-2.01 2.247-3.34 2.247zM924.148 161H35c-5.514 0-10-4.486-10-10V35c0-5.514 4.486-10 10-10h862.55c-.548 1.797-.604 3.82-.166 6.013zM1417 161h-413.22l80.608-127.791c1.776-2.732 2.445-5.648 1.883-8.21H1417c5.514 0 10 4.487 10 10v116c0 5.515-4.486 10-10 10z" mask="url(&quot;#9hirb&quot;)"/><path fill-opacity=".06" d="M967.636 133.401c-.473 0-.965-.1-1.461-.297-.945-.375-1.612-.976-1.983-1.787-.371-.811-.43-1.796-.173-2.927l2.505-11.057.233-1.029c3.07-13.548 6.236-27.529 9.355-41.285.165-.73.217-1.144.039-1.386-.188-.257-.609-.317-1.523-.392-.914-.075-2.484-.112-4.801-.112-2.78 0-6.27.052-9.645.103l-.103.001c-3.318.05-6.75.101-9.386.101-2.047 0-3.44-.03-4.257-.093-1.03-.08-1.838-.512-2.404-1.287-.845-1.156-1.07-3.031-.6-5.016l-.045.018L951.433 25h35.648l-3.535 15.635c-.21.926-.484 2.25-.774 3.65l-.002.007c-.34 1.643-.692 3.342-.95 4.448-.208.885-.28 1.51.003 1.898.247.337.754.5 1.81.583 2.421-.017 4.947-.04 7.39-.062h.028c4.436-.04 9.024-.083 12.878-.083 3.018 0 5.327.026 7.06.078 1.655.05 2.835.626 3.413 1.666.664 1.195.447 2.907-.595 4.699-13.923 23.95-27.635 47.518-42.83 73.635-.856 1.47-2.01 2.247-3.34 2.247zM924.148 161H35c-5.514 0-10-4.486-10-10V35c0-5.514 4.486-10 10-10h862.55c-.548 1.797-.604 3.82-.166 6.013zM1417 161h-413.22l80.608-127.791c1.776-2.732 2.445-5.648 1.883-8.21H1417c5.514 0 10 4.487 10 10v116c0 5.515-4.486 10-10 10z"/></g><path fill="#1679e6" d="M967.636 133.401c-.473 0-.965-.1-1.461-.297-.945-.375-1.612-.976-1.983-1.787-.371-.811-.43-1.796-.173-2.927l2.505-11.057.233-1.029c3.07-13.548 6.236-27.529 9.355-41.285.165-.73.217-1.144.039-1.386-.188-.257-.609-.317-1.523-.392-.914-.075-2.484-.112-4.801-.112-2.78 0-6.27.052-9.645.103l-.103.001c-3.318.05-6.75.101-9.386.101-2.047 0-3.44-.03-4.257-.093-1.03-.08-1.838-.512-2.404-1.287-.845-1.156-1.07-3.031-.6-5.016l-.045.018L951.433 25h35.648l-3.535 15.635c-.21.926-.484 2.25-.774 3.65l-.002.007c-.34 1.643-.692 3.342-.95 4.448-.208.885-.28 1.51.003 1.898.247.337.754.5 1.81.583 2.421-.017 4.947-.04 7.39-.062h.028c4.436-.04 9.024-.083 12.878-.083 3.018 0 5.327.026 7.06.078 1.655.05 2.835.626 3.413 1.666.664 1.195.447 2.907-.595 4.699-13.923 23.95-27.635 47.518-42.83 73.635-.856 1.47-2.01 2.247-3.34 2.247zM924.148 161H35c-5.514 0-10-4.486-10-10V35c0-5.514 4.486-10 10-10h862.55c-.548 1.797-.604 3.82-.166 6.013zM1417 161h-413.22l80.608-127.791c1.776-2.732 2.445-5.648 1.883-8.21H1417c5.514 0 10 4.487 10 10v116c0 5.515-4.486 10-10 10z"/></g></g></svg>