<svg xmlns="http://www.w3.org/2000/svg" width="58" height="50" viewBox="0 0 58 50"><g><g><g><path fill="#dcd028" d="M31.45 21.31h-4.9v-4.974h4.9zm2.219-7.194a1.301 1.301 0 0 0-.92-.38h-7.5a1.3 1.3 0 0 0-1.3 1.3v7.574a1.3 1.3 0 0 0 1.3 1.3h7.5a1.3 1.3 0 0 0 1.3-1.3v-7.574c0-.345-.136-.676-.38-.92z"/></g><g><path fill="#dcd028" d="M35.856 44.01l-5.017-5.016 5.017-5.017zM23.982 32.138h10.034L29 37.156zm-1.837 11.875V33.977l5.017 5.017zM37.157 29.54h-16.31a1.322 1.322 0 0 0-1.3 1.3v15.01h4.435L29 40.832l5.017 5.019h4.441V30.839a1.318 1.318 0 0 0-1.3-1.3z"/></g><g><g><path fill="#fff" d="M57.514 27.888L47.1 8.954a2.037 2.037 0 0 0-.915-.862L29.874.373l-.151-.07h-.02a2.04 2.04 0 0 0-1.577.07l-16.311 7.72c-.39.185-.707.483-.916.861L.486 27.888a2.058 2.058 0 0 0-.172 1.553c.152.524.499.957.977 1.22.986.543 2.23.182 2.774-.805L14.16 11.502 29 4.48l14.84 7.023 10.093 18.354a2.045 2.045 0 0 0 2.776.806 2.046 2.046 0 0 0 .805-2.774z"/></g><g><path fill="#fff" d="M53.122 45.107h-2.309v-18.71a2.045 2.045 0 0 0-2.043-2.043 2.045 2.045 0 0 0-2.042 2.043v18.71H11.383v-18.71a2.045 2.045 0 0 0-2.043-2.043 2.045 2.045 0 0 0-2.043 2.043v18.71H5.081a2.045 2.045 0 0 0-2.043 2.043c0 1.126.916 2.043 2.043 2.043h48.04a2.045 2.045 0 0 0 2.044-2.043 2.045 2.045 0 0 0-2.043-2.043z"/></g></g><g/></g></g></svg>