<svg xmlns="http://www.w3.org/2000/svg" width="52" height="54" viewBox="0 0 52 54"><g><g><g><path fill="#1679e6" d="M48.075 9.34H33.947v3.532h14.128v37.086H33.947v3.532h17.66V12.872a3.532 3.532 0 0 0-3.532-3.532z"/></g><g><path fill="#dcd028" d="M28.65 49.958H23.35V44.66H9.223v5.298H3.925V4.253c0-.117.095-.211.212-.211h24.3c.117 0 .212.094.212.211zM4.136.51A3.744 3.744 0 0 0 .393 4.254V53.49H32.18V4.254A3.744 3.744 0 0 0 28.437.51z"/></g><g><path fill="#dcd028" d="M7.457 9.34h3.532v3.532H7.457z"/></g><g><path fill="#dcd028" d="M14.52 9.34h3.533v3.532H14.52z"/></g><g><path fill="#dcd028" d="M21.585 9.34h3.532v3.532h-3.532z"/></g><g><path fill="#dcd028" d="M7.457 18.17h3.532v3.532H7.457z"/></g><g><path fill="#dcd028" d="M14.52 18.17h3.533v3.532H14.52z"/></g><g><path fill="#dcd028" d="M21.585 18.17h3.532v3.532h-3.532z"/></g><g><path fill="#dcd028" d="M7.457 27h3.532v3.532H7.457z"/></g><g><path fill="#dcd028" d="M14.52 27h3.533v3.532H14.52z"/></g><g><path fill="#dcd028" d="M21.585 27h3.532v3.532h-3.532z"/></g><g><path fill="#dcd028" d="M7.457 35.83h3.532v3.532H7.457z"/></g><g><path fill="#dcd028" d="M14.52 35.83h3.533v3.532H14.52z"/></g><g><path fill="#dcd028" d="M21.585 35.83h3.532v3.532h-3.532z"/></g><g><path fill="#1679e6" d="M33.947 18.17h3.532v3.532h-3.532z"/></g><g><path fill="#1679e6" d="M41.011 18.17h3.532v3.532h-3.532z"/></g><g><path fill="#1679e6" d="M33.947 27h3.532v3.532h-3.532z"/></g><g><path fill="#1679e6" d="M41.011 27h3.532v3.532h-3.532z"/></g><g><path fill="#1679e6" d="M33.947 35.83h3.532v3.532h-3.532z"/></g><g><path fill="#1679e6" d="M41.011 35.83h3.532v3.532h-3.532z"/></g></g></g></svg>