<svg xmlns="http://www.w3.org/2000/svg" width="43" height="54" viewBox="0 0 43 54"><g><g><g><path fill="#1679e6" d="M40.962 11.45H31.42v3.82h7.64v34.4H27.583v-6.69a.958.958 0 0 0-.951-.952h-9.559a.958.958 0 0 0-.95.952v6.69H4.66v-34.4h7.64v-3.82H2.744c-.505 0-.98.209-1.338.565a1.891 1.891 0 0 0-.565 1.338v38.234c0 .505.209.996.565 1.338.357.371.833.58 1.338.565h38.22a1.929 1.929 0 0 0 1.917-1.903V13.353a1.939 1.939 0 0 0-1.918-1.903z"/></g><g><path fill="#dcd028" d="M35.239 39.16v1.917a.981.981 0 0 1-.966.952H32.37c-.52-.015-.951-.432-.951-.952V39.16c0-.52.43-.95.95-.95h1.904c.535 0 .951.43.966.95z"/></g><g><path fill="#dcd028" d="M12.302 39.16v1.917a.978.978 0 0 1-.952.952H9.433c-.52-.015-.952-.432-.952-.952V39.16c0-.52.431-.95.952-.95h1.917c.52 0 .952.43.952.95z"/></g><g><path fill="#dcd028" d="M12.302 31.519v1.902a.981.981 0 0 1-.952.967H9.433a.971.971 0 0 1-.952-.967V31.52c0-.535.431-.952.952-.967h1.917c.52.015.952.432.952.967z"/></g><g><path fill="#dcd028" d="M19.942 31.519v1.902a.971.971 0 0 1-.95.967h-1.919a.981.981 0 0 1-.95-.967V31.52a.981.981 0 0 1 .95-.967h1.918c.52.015.951.432.951.967z"/></g><g><path fill="#dcd028" d="M27.598 31.519h-.015v1.902a.971.971 0 0 1-.951.967h-1.903a.984.984 0 0 1-.966-.967V31.52a.984.984 0 0 1 .966-.967h1.903a.984.984 0 0 1 .966.967z"/></g><g><path fill="#dcd028" d="M35.239 31.519v1.902a.984.984 0 0 1-.966.967H32.37a.971.971 0 0 1-.951-.967V31.52c0-.535.43-.952.95-.967h1.904a.984.984 0 0 1 .966.967z"/></g><g><path fill="#dcd028" d="M35.239 23.863v1.918a.971.971 0 0 1-.966.951H32.37a.958.958 0 0 1-.951-.951v-1.918c0-.52.43-.936.95-.951h1.904a.981.981 0 0 1 .966.951z"/></g><g><path fill="#dcd028" d="M27.583 23.863v1.918c0 .52-.43.951-.951.951h-1.903a.971.971 0 0 1-.966-.951v-1.918a.981.981 0 0 1 .966-.951h1.903c.52.015.951.43.951.951z"/></g><g><path fill="#dcd028" d="M19.942 23.863v1.918c0 .52-.43.951-.95.951h-1.919c-.52 0-.936-.431-.95-.951v-1.918a.978.978 0 0 1 .95-.951h1.918c.52.015.951.43.951.951z"/></g><g><path fill="#dcd028" d="M12.302 23.863v1.918c-.015.52-.431.951-.952.951H9.433a.958.958 0 0 1-.952-.951v-1.918c0-.52.431-.936.952-.951h1.917c.52.015.937.43.952.951z"/></g><g><path fill="#dcd028" d="M27.583 14.32c0 .52-.43.936-.951.95h-1.903a.981.981 0 0 1-.966-.95v-2.87h-3.82v2.87c0 .52-.432.936-.952.95h-1.918a.978.978 0 0 1-.95-.95V4.76a.981.981 0 0 1 .95-.966h1.918a.97.97 0 0 1 .951.966v2.87h3.82V4.76a.984.984 0 0 1 .967-.966h1.903a.97.97 0 0 1 .951.966zM30.571.821a2.728 2.728 0 0 0-2.021-.848H15.17c-.757 0-1.5.298-2.036.848a2.715 2.715 0 0 0-.832 2.021v13.409a2.845 2.845 0 0 0 2.869 2.84h13.393c1.576 0 2.855-1.294 2.855-2.87V2.843A2.752 2.752 0 0 0 30.57.822z"/></g></g></g></svg>