<svg xmlns="http://www.w3.org/2000/svg" width="30" height="30" viewBox="0 0 30 30"><g><g><g><g/></g><g><g><path fill="#dcd028" d="M11.66 20.196l-3.712-3.65a1.3 1.3 0 0 1-.124-1.67 1.175 1.175 0 0 1 1.856-.123l2.846 2.845 7.794-7.794a1.237 1.237 0 0 1 1.732 1.732l-8.66 8.66a1.175 1.175 0 0 1-1.732 0z"/></g><g><path fill="#dcd028" d="M26.135 2.628H3.865c-.683 0-1.237.554-1.237 1.237v22.27c0 .683.554 1.237 1.237 1.237h22.27c.683 0 1.237-.554 1.237-1.237V3.865c0-.683-.554-1.237-1.237-1.237zm-1.237 2.474v19.796H5.102V5.102h19.796"/></g></g></g></g></svg>