<svg xmlns="http://www.w3.org/2000/svg" width="52" height="46" viewBox="0 0 52 46"><g><g><g><path fill="#1679e6" d="M44.89 27.8h-3.148a.786.786 0 0 0-.787.788v11.806H23.639V28.588a.787.787 0 0 0-.787-.787h-3.149a.786.786 0 0 0-.787.787v11.806h-7.871V28.588a.787.787 0 0 0-.787-.787H7.109a.786.786 0 0 0-.787.787v12.594a3.939 3.939 0 0 0 3.936 3.935h31.484a3.94 3.94 0 0 0 3.936-3.935V28.588a.787.787 0 0 0-.788-.787z"/></g><g><path fill="#dcd028" d="M40.168 18.954l-1.275 1.763a4.265 4.265 0 0 1-6.88 0l-1.29-1.763v-2.33L29.148 3.4h7.006l4.014 13.223zm-18.89-2.33v2.393l-1.292 1.7a4.265 4.265 0 0 1-6.879 0l-1.275-1.763v-2.33L15.91 3.4h6.943zm29.579-1.779L44.434 2A3.152 3.152 0 0 0 41.616.252H10.384A3.152 3.152 0 0 0 7.566 2L1.143 14.845c-.219.44-.332.926-.33 1.417v4.848c-.002.737.255 1.45.724 2.015a7.343 7.343 0 0 0 5.572 2.52 7.423 7.423 0 0 0 4.723-1.685 7.445 7.445 0 0 0 9.445 0 7.445 7.445 0 0 0 9.446 0 7.445 7.445 0 0 0 9.445 0 7.428 7.428 0 0 0 10.28-.819 3.144 3.144 0 0 0 .74-2.015v-4.864a3.163 3.163 0 0 0-.331-1.417z"/></g></g></g></svg>