<svg xmlns="http://www.w3.org/2000/svg" width="48" height="45" viewBox="0 0 48 45"><g><g><g><path fill="#dcd028" d="M37.258 27.656v13.258H24V27.656c0-.913.736-1.664 1.665-1.664h9.943c.913 0 1.65.751 1.65 1.664z"/></g><g><path fill="#1679e6" d="M26.578 13.307v8.277l16.572-8.277v26.87H4.85V5.192h5.156v16.392zM46.802 7.39l-.017-.009c-.745-.429-1.66-.424-2.342-.02l-13.078 6.484V9.423a2.423 2.423 0 0 0-.713-1.69 2.33 2.33 0 0 0-1.651-.685c-.383 0-.782.083-1.102.255l-13.106 6.539V2.806A2.397 2.397 0 0 0 12.407.405H2.464A2.397 2.397 0 0 0 .063 2.79v42.174h47.874V9.42c0-.827-.436-1.604-1.135-2.03z"/></g></g></g></svg>