<svg xmlns="http://www.w3.org/2000/svg" width="54" height="50" viewBox="0 0 54 50"><g><g><g><path fill="#dcd028" d="M44.717 5.098v11.921l-8.29-8.29V5.099c0-1.357 1.1-2.457 2.442-2.457h3.391c1.356 0 2.457 1.1 2.457 2.457z"/></g><g><path fill="#dcd028" d="M32.117 33.141v11.5H21.702v-11.5c0-1.145.92-2.064 2.065-2.064h6.285c1.145 0 2.065.919 2.065 2.064z"/></g><g><path fill="#fff" d="M43.21 22.27v21.014a.943.943 0 0 1-.95.935H11.74a.935.935 0 0 1-.934-.935V22.255L27.008 6.053zm9.26 2.32L29.936 2.06c-1.567-1.568-4.29-1.57-5.858 0L1.53 24.59a2.464 2.464 0 0 0 0 3.477 2.45 2.45 0 0 0 3.463 0l.913-.914v16.131a5.84 5.84 0 0 0 5.833 5.833h30.52c3.224 0 5.848-2.616 5.848-5.833V27.168l.898.899c.956.955 2.51.954 3.464 0a2.464 2.464 0 0 0 0-3.477z"/></g></g></g></svg>