<svg xmlns="http://www.w3.org/2000/svg" width="135" height="82" viewBox="0 0 135 82"><g><g><g><g><path fill="#fff" d="M20.035 39.338c1.7 0 3.003.287 3.91.86.907.575 1.362 1.449 1.362 2.62 0 1.701-.644 3.004-1.93 3.912-1.288.908-2.998 1.36-5.135 1.36h-7.684l1.758-8.752zm2.379 18.54c-1.31.919-3.182 1.378-5.617 1.378H8.354l1.791-9.062h8.615c1.883 0 3.29.287 4.221.86.93.576 1.395 1.53 1.395 2.861 0 1.723-.655 3.043-1.964 3.962zm3.478-7.204c-.668-.827-1.62-1.412-2.86-1.758 1.468-.46 2.652-1.257 3.548-2.394.895-1.137 1.344-2.476 1.344-4.153 0-1.677-.648-2.95-1.947-3.825-1.298-.872-3.118-1.309-5.461-1.309H10.213L5.388 61.357h11.2c3.216 0 5.737-.643 7.564-1.93 1.827-1.285 2.74-3.135 2.74-5.547 0-1.31-.334-2.377-1-3.204z"/></g><g><path fill="#fff" d="M48.723 49.674c-1.482 1.22-3.601 1.827-6.359 1.827h-6.513l2.446-12.06h6.41c1.998 0 3.537.413 4.617 1.24 1.079.827 1.62 2.034 1.62 3.619 0 2.367-.741 4.159-2.223 5.376zm2.828.431c1.297-1.572 1.946-3.588 1.946-6.047 0-2.16-.753-3.836-2.257-5.031-1.506-1.194-3.625-1.792-6.359-1.792h-8.683l-4.825 24.122h2.55l1.515-7.65h6.857c.574 0 .987-.01 1.24-.033l4.343 7.683h2.755l-4.549-8.062c2.344-.552 4.164-1.615 5.462-3.188z"/></g><g><path fill="#fff" d="M60.662 52.846L69.07 39.82l3.274 13.026zm12.165 2.068l1.62 6.443h2.549l-6.202-24.122h-2.516L52.427 61.357h2.756l4.17-6.443z"/></g><g><path fill="#fff" d="M82.94 60.703c-1.62-.574-2.843-1.31-3.67-2.206l1.24-1.998c.802.874 1.917 1.574 3.342 2.102 1.424.53 2.895.792 4.41.792 2.137 0 3.855-.419 5.153-1.258 1.298-.838 1.946-2.004 1.946-3.497 0-.805-.242-1.458-.724-1.964-.482-.505-1.092-.913-1.827-1.223-.735-.31-1.735-.648-2.998-1.016-1.493-.435-2.706-.856-3.636-1.257-.93-.402-1.722-1-2.377-1.792-.655-.792-.982-1.82-.982-3.085 0-1.493.408-2.785 1.224-3.876.816-1.092 1.953-1.93 3.412-2.516 1.458-.585 3.13-.879 5.014-.879 1.448 0 2.825.178 4.134.534 1.31.356 2.424.868 3.343 1.534l-1.067 2.067a9.581 9.581 0 0 0-2.998-1.464c-1.126-.333-2.31-.5-3.55-.5-2.114 0-3.813.437-5.1 1.31-1.287.873-1.93 2.055-1.93 3.548 0 .828.253 1.505.758 2.034.504.529 1.132.948 1.878 1.258.747.31 1.752.65 3.016 1.016 1.493.437 2.7.856 3.618 1.257.92.402 1.7.978 2.343 1.723.644.746.965 1.728.965 2.946 0 1.516-.42 2.82-1.258 3.91-.838 1.092-1.998 1.924-3.48 2.498-1.482.574-3.188.861-5.117.861-1.769 0-3.463-.287-5.082-.861z"/></g><g><path fill="#fff" d="M107.009 37.237h2.515L104.7 61.359h-2.516z"/></g><g><path fill="#fff" d="M117.415 37.237h2.515l-4.376 21.916h13.508l-.448 2.206H112.59z"/></g></g><g><g><path fill="#fff" d="M36.388 81.618c-.569.008-1.04-.08-1.414-.263a1.994 1.994 0 0 1-.877-.836c-.212-.374-.362-.848-.452-1.425a13.66 13.66 0 0 1-.134-2.048c0-.789.047-1.417.14-1.987.094-.569.254-1.041.483-1.42a2.14 2.14 0 0 1 .932-.847c.393-.187.887-.28 1.48-.28a13.95 13.95 0 0 1 1.987.146c.326.049.626.107.901.171v.73c-.163-.024-.39-.05-.682-.079a20.27 20.27 0 0 0-.98-.067c-.361-.016-.721-.024-1.08-.024-.584 0-1.038.119-1.358.36-.321.24-.545.63-.671 1.17-.126.54-.189 1.253-.189 2.14 0 .714.034 1.308.103 1.78.07.47.186.845.347 1.12.163.277.384.475.664.592.28.118.636.178 1.066.178.382 0 .776-.048 1.182-.147a7.68 7.68 0 0 0 1.037-.317V77.62h-2.169v-.72c.155-.023.342-.044.561-.06.22-.017.454-.031.702-.042.248-.013.498-.018.75-.018.21 0 .41.001.596.006.187.005.35.018.487.042v4.73h-.706l-.147-.634a9.145 9.145 0 0 1-1.116.452 4.64 4.64 0 0 1-1.444.243z"/></g><g><path fill="#fff" d="M43.591 81.605c-.195 0-.401-.018-.62-.055a1.821 1.821 0 0 1-.623-.226 1.272 1.272 0 0 1-.476-.518c-.122-.232-.182-.546-.182-.945v-5.473c0-.35.05-.64.152-.87a1.39 1.39 0 0 1 .408-.548c.17-.134.361-.233.572-.292.211-.062.423-.092.634-.092.503.008.97.017 1.401.03.43.013.839.024 1.226.037.385.013.761.026 1.127.042v.78H43.7c-.317 0-.57.086-.757.257-.187.171-.28.444-.28.816v2.12l4.01.062v.743l-4.01.062v2.109c0 .3.05.529.151.682a.705.705 0 0 0 .408.305c.171.048.345.072.524.072h3.462v.78a46.12 46.12 0 0 1-1.175.062c-.411.016-.82.029-1.23.037l-1.213.024z"/></g><g><path fill="#fff" d="M49.82 73.464h2.415c.203 0 .393.021.572.067.18.045.34.13.482.256.142.127.255.306.336.537.082.23.122.518.122.908s-.042.708-.122.951a1.37 1.37 0 0 1-.33.566 1.085 1.085 0 0 1-.475.274 2.24 2.24 0 0 1-.585.073H49.82zm-.975 8.092v-.001zm0-.001h.976v-3.717c.153 0 .333.005.542.013.208.008.419.013.64.013.22 0 .427.003.622.01a9.8 9.8 0 0 0 .487.014l1.743 3.668h.987l-1.84-3.802a2.7 2.7 0 0 0 .58-.177c.2-.086.383-.22.554-.402.17-.182.308-.43.414-.743.105-.315.158-.715.158-1.202 0-.56-.064-1.014-.195-1.36-.13-.344-.306-.61-.53-.797a1.867 1.867 0 0 0-.75-.384 3.572 3.572 0 0 0-.853-.103h-3.535z"/></g><g><path fill="#fff" d="M59.424 73.439l1.548 4.68h-3.12zm-2.692 8.117l.877-2.559h3.608l.901 2.56h1l-3.072-8.971h-1.243l-3.072 8.97z"/></g><g><path fill="#fff" d="M65.447 73.461h2.497c.357 0 .666.063.926.189s.474.332.64.616c.168.285.292.656.373 1.116.082.46.122 1.022.122 1.688 0 .739-.072 1.379-.22 1.92-.146.541-.37.959-.67 1.255-.301.297-.692.445-1.17.445h-2.498zm-.976 8.094h3.546c.65 0 1.195-.18 1.634-.537.438-.357.767-.87.986-1.535.22-.666.33-1.47.33-2.413 0-.714-.054-1.351-.159-1.907-.106-.557-.274-1.026-.506-1.408a2.35 2.35 0 0 0-.908-.871c-.374-.198-.832-.298-1.377-.298H64.47v8.97z"/></g><g><path fill="#fff" d="M75.865 80.763a4.47 4.47 0 0 1-1.175-.134 1.42 1.42 0 0 1-.774-.518c-.196-.256-.336-.624-.421-1.103-.086-.478-.128-1.082-.128-1.9 0-.82.052-1.48.154-1.975.101-.495.254-.869.462-1.12.208-.252.468-.418.78-.5a4.37 4.37 0 0 1 1.104-.123c.455 0 .838.042 1.151.123.313.082.568.248.768.5.198.251.345.625.438 1.12.094.496.14 1.186.14 1.974 0 .789-.044 1.423-.133 1.901-.089.48-.234.847-.432 1.103-.2.255-.457.43-.774.518a4.347 4.347 0 0 1-1.158.134zm.003.866c.586 0 1.094-.055 1.524-.165.43-.11.79-.319 1.079-.627.289-.31.505-.764.647-1.366.142-.6.213-1.388.213-2.364 0-.975-.07-1.764-.208-2.37-.14-.607-.352-1.07-.64-1.39a2.201 2.201 0 0 0-1.086-.658 5.985 5.985 0 0 0-1.53-.178c-.57 0-1.07.06-1.5.178-.43.118-.793.337-1.085.658-.292.322-.511.785-.658 1.39-.147.605-.22 1.396-.22 2.37 0 .974.072 1.763.213 2.364.144.602.358 1.058.647 1.366.289.308.65.518 1.085.627.436.11.94.165 1.518.165z"/></g><g><path fill="#fff" d="M81.96 73.464h2.415c.203 0 .393.021.572.067.18.045.34.13.482.256.142.127.255.306.336.537.082.23.122.518.122.908s-.042.708-.122.951c-.08.244-.19.432-.33.566a1.085 1.085 0 0 1-.475.274c-.179.049-.374.073-.585.073H81.96zm-.975 8.092v-.001zm0-.001h.976v-3.717c.153 0 .334.005.541.013.209.008.42.013.64.013.222 0 .428.003.623.01.195.01.356.014.487.014l1.743 3.668h.987l-1.84-3.802c.187-.034.38-.092.58-.177.2-.086.383-.22.554-.402.17-.182.308-.43.414-.743.105-.315.158-.715.158-1.202 0-.56-.064-1.014-.195-1.36-.13-.344-.306-.61-.53-.797a1.867 1.867 0 0 0-.75-.384 3.571 3.571 0 0 0-.853-.103h-3.535z"/></g><g><path fill="#fff" d="M90.298 81.605a3.72 3.72 0 0 1-.621-.055 1.821 1.821 0 0 1-.623-.226 1.273 1.273 0 0 1-.475-.518c-.123-.232-.183-.546-.183-.945v-5.473c0-.35.05-.64.152-.87a1.39 1.39 0 0 1 .408-.548c.17-.134.361-.233.573-.292.21-.062.422-.092.633-.092.503.008.97.017 1.402.03.43.013.838.024 1.225.037.385.013.761.026 1.127.042v.78h-3.51c-.316 0-.57.086-.757.257-.187.171-.28.444-.28.816v2.12l4.01.062v.743l-4.01.062v2.109c0 .3.05.529.151.682a.705.705 0 0 0 .408.305c.171.048.346.072.524.072h3.463v.78c-.375.025-.766.046-1.176.062-.411.016-.82.029-1.23.037l-1.213.024z"/></g><g><path fill="#fff" d="M98.098 81.629c-.18 0-.392-.007-.64-.018a27.193 27.193 0 0 1-1.499-.116 5.852 5.852 0 0 1-.579-.086v-.743a31.884 31.884 0 0 0 1.689.086c.337.008.667.012.993.012.366 0 .695-.037.987-.11.292-.072.526-.207.702-.4.174-.196.262-.477.262-.842v-.61c0-.414-.106-.729-.317-.945-.211-.214-.553-.323-1.024-.323h-.963c-.74 0-1.32-.162-1.737-.487-.419-.325-.627-.885-.627-1.681v-.512c0-.845.227-1.446.682-1.804.455-.358 1.097-.537 1.926-.537.26 0 .553.014.877.042.324.029.64.061.945.098.304.037.558.076.76.116v.744a33.603 33.603 0 0 0-1.212-.086 23.867 23.867 0 0 0-1.274-.037c-.366 0-.682.042-.951.128a1.115 1.115 0 0 0-.616.451c-.142.216-.213.523-.213.92v.415c0 .495.13.837.39 1.024.26.187.623.28 1.085.28h1.036c.495 0 .901.091 1.219.269.317.178.553.424.706.736.155.313.232.673.232 1.08v.694c0 .602-.127 1.065-.383 1.39a1.942 1.942 0 0 1-1.024.671 5.184 5.184 0 0 1-1.432.182z"/></g></g><g><g><path fill="#fff" d="M36.364 18.094l1.798-8.473c.356-1.686.767-1.941 1.996-1.941h9.647c.769 0 .966.14 1.014.202.077.095.174.41-.045 1.45L48.977 17.8c-.356 1.623-.843 1.911-2.033 1.911h-9.646c-.697 0-.905-.13-.968-.208-.08-.1-.184-.416.035-1.41zM57.842 3.549a6.68 6.68 0 0 0-.503-.72l-.06-.069-.803-1.124A3.64 3.64 0 0 0 53.55.114l-2.055-.02A13.69 13.69 0 0 0 50.39.051h-3.736l-8.605-.077a3.334 3.334 0 0 0-2.137.75l-3.49 2.846c-.607.496-1.244 1.528-1.413 2.296l-1.673 7.548-1.496 7.199a2.994 2.994 0 0 0 .69 2.594l2.677 3.024c.526.593 1.603 1.079 2.395 1.079h2.21c.294.019.59.03.897.03h9.646c.307 0 .607-.011.902-.03h1.87a3.64 3.64 0 0 0 2.34-.853l3.61-3.037a3.628 3.628 0 0 0 1.23-2.104l1.178-6.217 1.103-5.252c.142-.658.224-1.295.253-1.906L59 7.108a3.637 3.637 0 0 0-.612-2.79l-.547-.766z"/></g><g><path fill="#fff" d="M29.91.806C29.65.326 29.106.05 28.42.05h-1.992l.01-.015h-11.9l-.812 3.59c-.072.322-.198.964-.274 1.287-.071.301-.026.37.289.393 1.577-.011 3.396-.038 4.342-.011.608.018.753.485.449 1.011-2.266 3.898-4.533 7.795-6.8 11.691-.186.32-.462.43-.763.31-.302-.12-.424-.387-.342-.748l1.92-8.475c.057-.248.026-.26-.235-.282-.723-.06-3.782.053-4.477 0-.467-.035-.587-.533-.477-1.001l-.006.003L8.84.034H3.303V.05H1.718C.976.05.562.364.346.63c-.218.264-.445.733-.3 1.467l4.878 23.693.005.02c.224.956.93 1.527 1.888 1.527h5.978c.793 0 1.41-.34 1.909-1.06L29.736 2.444c.37-.568.432-1.166.173-1.642z"/></g><g><path fill="#fff" d="M81.603 19.71h-4.84l.002-.01-6.05.008a.666.666 0 0 1-.41-.184l-.598-.577a.677.677 0 0 1-.195-.603l3.457-16.25c.145-.729-.082-1.198-.3-1.464-.218-.265-.63-.58-1.372-.58h-4.291c-.958 0-1.664.572-1.892 1.543l-2.68 12.636-1.653 7.743c-.125.59.037 1.203.437 1.655l2.76 3.102c.359.405.873.636 1.414.636h10.762l-.013-.025h4.396c.958 0 1.664-.57 1.891-1.544l.845-4.042c.145-.728-.082-1.198-.3-1.464-.216-.264-.63-.579-1.372-.579z"/></g><g><path fill="#fff" d="M106.162 6.17l.845-4.074c.147-.73-.082-1.199-.3-1.465-.216-.264-.63-.58-1.374-.58H84.794c-.956 0-1.663.57-1.892 1.545l-.844 4.076c-.146.73.082 1.198.3 1.464.217.265.63.58 1.373.58h5.997l-3.744 17.57v.008c-.116.57-.01 1.088.298 1.464.217.265.63.58 1.374.58h4.329c.957 0 1.664-.57 1.891-1.54L97.72 7.716h6.552c.958 0 1.663-.57 1.893-1.546z"/></g><g><path fill="#fff" d="M134.105.631c-.217-.264-.631-.58-1.374-.58h-21.383c-.958 0-1.664.57-1.891 1.545l-.846 4.075c-.146.729.083 1.198.3 1.464.216.264.631.58 1.374.58h10.85l-14.852 11.862c-.527.439-.818.93-.97 1.636l-.88 4.071v.01c-.116.57-.01 1.088.297 1.464.216.265.63.58 1.374.58h21.492c.958 0 1.663-.57 1.892-1.544l.845-4.04c.147-.728-.082-1.198-.3-1.464-.216-.264-.63-.579-1.374-.579h-10.95l14.844-11.79c.527-.438.818-.928.97-1.638l.882-4.187c.146-.73-.083-1.199-.3-1.465z"/></g></g></g></g></svg>