<?xml version="1.0" encoding="UTF-8"?>
<svg id="SVGDoc" width="792" height="734" xmlns="http://www.w3.org/2000/svg" version="1.1" xmlns:xlink="http://www.w3.org/1999/xlink" xmlns:avocode="https://avocode.com/" viewBox="0 0 792 734"><defs></defs><desc>Generated with Avocode.</desc><g><g><title>Caminho 9667</title><path d="M125.20256,196.13672l-50.76004,-92.91338c-6.01622,-11.00819 -5.78575,-24.02206 0.60573,-34.82181c6.3922,-10.77852 17.69307,-17.21228 30.24707,-17.21228h186.91319c12.65823,0 24.00119,6.51736 30.3931,17.44223c6.37088,10.92485 6.47565,24.02211 0.25085,35.03058l-52.30603,92.66252c-6.28748,11.17569 -18.15219,18.11035 -30.95703,18.11035h-83.55524c-12.84641,0 -24.66983,-7.01804 -30.8316,-18.29822zM184.04616,277.54019c4.67923,-7.89569 12.95145,-12.59607 22.12119,-12.59607h49.10971c21.32739,0 41.0881,-11.53024 51.57397,-30.10049l124.93616,-220.27253c1.69244,-2.96593 1.67145,-6.3499 -0.04175,-9.29543c-1.71252,-2.92439 -4.63721,-4.59561 -8.04205,-4.59561h-362.2951c-21.45306,0 -40.58691,9.14939 -51.15666,24.50261c-12.40823,18.00662 -13.64046,41.0256 -3.21701,60.05545l183.6541,336.12181c1.79663,3.30017 6.51767,3.34222 8.39737,0.08344l23.12378,-40.50336c1.25342,-2.1933 1.27408,-4.86682 0.06299,-7.08176l-38.66541,-70.85443c-4.38684,-8.06317 -4.24023,-17.56766 0.43872,-25.46362z" fill="#f2f2f2" fill-opacity="1"></path></g><g><title>Caminho 9668</title><path d="M721.99541,93.61461l-90.46899,163.12053c-9.79687,17.63013 -28.40894,28.5965 -48.58749,28.5965h-22.70645c-21.72375,0 -41.33868,12.13672 -51.17734,31.66751c-8.3765,16.64816 -7.22781,37.82974 3.09134,56.67145l12.24097,22.39297c9.60901,17.56766 9.67151,38.56064 0.16724,56.16977l-103.85913,192.28125c-4.97183,9.21228 -14.55939,14.97742 -25.04581,14.99829h-0.08334c-10.42374,0 -20.03244,-5.68176 -25.0249,-14.85193l-69.33002,-126.37738c-6.5174,-11.86462 -6.43329,-25.98553 0.20929,-37.74573l231.21796,-409.60854c6.85168,-12.17856 19.80255,-19.74005 33.77722,-19.74005h130.5968c10.21454,0 19.42633,5.26398 24.60718,14.07916c5.20129,8.79404 5.34686,19.3847 0.37549,28.34619zM781.19439,25.18266c-10.56897,-15.33205 -29.70361,-24.50261 -51.15668,-24.50261h-201.47272c-8.8147,0 -16.98239,4.76257 -21.32687,12.42912l-271.095,480.27474c-1.96359,3.48877 -1.9845,7.70862 -0.04205,11.23895l109.47845,199.63385c10.02655,18.31946 29.22305,29.70386 50.15356,29.72504c20.8887,0 40.10693,-11.44708 50.19617,-29.85016l136.00687,-251.83551c9.5881,-17.73437 9.52542,-38.89453 -0.14606,-56.58762l-3.23822,-5.9115c-6.24506,-11.38443 -6.01544,-24.87857 0.62708,-36.05402c6.64288,-11.19659 18.36105,-17.8812 31.35428,-17.8812c21.5155,0 41.35956,-11.67661 51.80414,-30.49744l122.07404,-220.10529c10.57001,-19.32222 9.37915,-41.79851 -3.21698,-60.07637z" fill="#f2f2f2" fill-opacity="1"></path></g></g></svg>