<?xml version="1.0" encoding="UTF-8"?>
<svg id="SVGDoc" width="652" height="531" xmlns="http://www.w3.org/2000/svg" version="1.1" xmlns:xlink="http://www.w3.org/1999/xlink" xmlns:avocode="https://avocode.com/" viewBox="0 0 652 531"><defs></defs><desc>Generated with Avocode.</desc><g><g><title>Grupo 9303</title><g><title>Caminho 9667</title><path d="M103.05875,141.55723l-41.78241,-67.2767c-4.95218,-7.97079 -4.76248,-17.39389 0.49857,-25.21375c5.26166,-7.80453 14.56381,-12.46309 24.89746,-12.46309h153.85498c10.41946,0 19.75626,4.71909 25.01767,12.62958c5.24408,7.91048 5.33032,17.39392 0.20648,25.36493l-43.05499,67.09506c-5.17545,8.09212 -14.94171,13.11336 -25.48184,13.11336h-68.77731c-10.57434,0 -20.30661,-5.0816 -25.3786,-13.24939zM151.49503,200.49986c3.85162,-5.7171 10.6608,-9.12057 18.20874,-9.12057h40.42398c17.55533,0 33.82108,-8.34882 42.45239,-21.79514l102.83945,-159.49491c1.39307,-2.14756 1.37585,-4.59784 -0.03436,-6.73064c-1.40967,-2.11749 -3.81702,-3.32758 -6.61969,-3.32758h-298.21817c-17.65878,0 -33.40854,6.62489 -42.10889,17.74184c-10.21365,13.03824 -11.22795,29.70583 -2.64804,43.48495l151.1723,243.37901c1.47888,2.38959 5.36493,2.42004 6.9122,0.06039l19.034,-29.32764c1.03174,-1.5881 1.04874,-3.52396 0.05185,-5.12775l-31.82687,-51.30426c-3.61096,-5.83838 -3.4903,-12.7204 0.36111,-18.43771z" fill="#f2f2f2" fill-opacity="1"></path></g><g><title>Caminho 9668</title><path d="M594.30039,67.32304l-74.46829,118.1123c-8.06415,12.76563 -23.3844,20.70615 -39.99408,20.70615h-18.69049c-17.88159,0 -34.02734,8.78799 -42.12589,22.92981c-6.89499,12.0546 -5.94949,27.39175 2.54459,41.03464l10.07599,16.21429c7.90948,12.7204 7.96094,27.92096 0.13763,40.67142l-85.49017,139.22693c-4.0925,6.67047 -11.98437,10.84485 -20.61612,10.85999h-0.0686c-8.58014,0 -16.48941,-4.11407 -20.59891,-10.75403l-57.06802,-91.50723c-5.36472,-8.59097 -5.29547,-18.81567 0.17227,-27.33096l190.32385,-296.58928c5.63983,-8.81822 16.30017,-14.29337 27.80322,-14.29337h107.49893c8.4079,0 15.99048,3.81154 20.255,10.19444c4.28137,6.36757 4.40118,14.03607 0.30908,20.5249zM643.02921,17.77285c-8.69971,-11.10163 -24.45013,-17.74184 -42.10889,-17.74184h-165.83945c-7.25568,0 -13.97879,3.44849 -17.5549,8.99967l-223.14807,347.75726c-1.6163,2.52612 -1.63351,5.58163 -0.03461,8.13785l90.11566,144.5509c8.2532,13.26471 24.05457,21.508 41.2832,21.52332c17.19424,0 33.01346,-8.28864 41.31827,-21.61395l111.95215,-182.349c7.89227,-12.84106 7.8407,-28.16275 -0.12024,-40.97391l-2.66547,-4.28043c-5.14056,-8.24323 -4.95154,-18.01407 0.51617,-26.10596c5.46796,-8.10724 15.11359,-12.94745 25.80878,-12.94745c17.71021,0 34.04456,-8.45477 42.64185,-22.08255l100.48355,-159.37383c8.70056,-13.99083 7.72028,-30.26546 -2.64801,-43.50009z" fill="#f2f2f2" fill-opacity="1"></path></g></g></g></svg>