<?xml version="1.0" encoding="UTF-8"?>
<svg id="SVGDoc" width="652" height="604" xmlns="http://www.w3.org/2000/svg" version="1.1" xmlns:xlink="http://www.w3.org/1999/xlink" xmlns:avocode="https://avocode.com/" viewBox="0 0 652 604"><defs></defs><desc>Generated with Avocode.</desc><g><g><title>Caminho 9667</title><path d="M103.0607,161.0565l-41.78241,-76.48035c-4.95218,-9.06125 -4.76248,-19.77344 0.49857,-28.66309c5.26166,-8.87219 14.56381,-14.16806 24.89746,-14.16806h153.85498c10.41946,0 19.75626,5.36469 25.01767,14.35733c5.24408,8.99265 5.33032,19.77347 0.20648,28.83493l-43.05499,76.27386c-5.17545,9.19913 -14.94171,14.90729 -25.48184,14.90729h-68.77731c-10.57434,0 -20.30661,-5.77679 -25.3786,-15.06192zM151.49698,228.06263c3.85162,-6.49924 10.6608,-10.36829 18.20874,-10.36829h40.42398c17.55533,0 33.82108,-9.49097 42.45239,-24.77679l102.83945,-181.31426c1.39307,-2.44136 1.37585,-5.22684 -0.03436,-7.65141c-1.40967,-2.40717 -3.81702,-3.78281 -6.61969,-3.78281h-298.21817c-17.65878,0 -33.40854,7.53119 -42.10889,20.16898c-10.21365,14.8219 -11.22795,33.76965 -2.64804,49.43381l151.1723,276.67395c1.47888,2.71649 5.36493,2.7511 6.9122,0.06866l19.034,-33.33975c1.03174,-1.80536 1.04874,-4.00604 0.05185,-5.82925l-31.82687,-58.32281c-3.61096,-6.63708 -3.4903,-14.46057 0.36111,-20.96002z" fill="#082920" fill-opacity="1"></path></g><g><title>Caminho 9668</title><path d="M594.30235,76.66685l-74.46829,134.27039c-8.06415,14.51199 -23.3844,23.53882 -39.99408,23.53882h-18.69049c-17.88159,0 -34.02734,9.99017 -42.12589,26.06665c-6.89499,13.7037 -5.94949,31.13904 2.54459,46.64832l10.07599,18.43246c7.90948,14.46057 7.96094,31.7406 0.13763,46.23535l-85.49017,158.27356c-4.0925,7.58301 -11.98437,12.32849 -20.61612,12.3457h-0.0686c-8.58014,0 -16.48941,-4.67688 -20.59891,-12.22522l-57.06802,-104.0257c-5.36472,-9.76624 -5.29547,-21.38971 0.17227,-31.06995l190.32385,-337.16348c5.63983,-10.0246 16.30017,-16.24875 27.80322,-16.24875h107.49893c8.4079,0 15.99048,4.33298 20.255,11.58908c4.28137,7.23868 4.40118,15.95624 0.30908,23.33276zM643.03117,20.33805c-8.69971,-12.62037 -24.45013,-20.16898 -42.10889,-20.16898h-165.83945c-7.25568,0 -13.97879,3.92024 -17.5549,10.23085l-223.14807,395.33141c-1.6163,2.8717 -1.63351,6.34521 -0.03461,9.25116l90.11566,164.32587c8.2532,15.07935 24.05457,24.45032 41.2832,24.46771c17.19424,0 33.01346,-9.42255 41.31827,-24.57074l111.95215,-207.29486c7.89227,-14.59778 7.8407,-32.0155 -0.12024,-46.57928l-2.66547,-4.86597c-5.14056,-9.37094 -4.95154,-20.47845 0.51617,-29.67737c5.46796,-9.21631 15.11359,-14.71866 25.80878,-14.71866c17.71021,0 34.04456,-9.61142 42.64185,-25.10352l100.48355,-181.17661c8.70056,-15.90482 7.72028,-34.40585 -2.64801,-49.45102z" fill="#082920" fill-opacity="1"></path></g></g></svg>