<?xml version="1.0" encoding="UTF-8"?>
<svg id="SVGDoc" width="69" height="64" xmlns="http://www.w3.org/2000/svg" version="1.1" xmlns:xlink="http://www.w3.org/1999/xlink" xmlns:avocode="https://avocode.com/" viewBox="0 0 69 64"><defs></defs><desc>Generated with Avocode.</desc><g><g><title>Caminho 9711</title><path d="M10.79242,17.63875l-4.3772,-8.00716c-0.51855,-0.9507 -0.49866,-2.07246 0.05408,-3.00157c0.5509,-0.92908 1.52515,-1.48546 2.6073,-1.48546h16.11145c1.08936,0 2.06885,0.56358 2.61804,1.50528c0.5509,0.9399 0.55994,2.06886 0.02344,3.01778l-4.50867,7.98914c-0.54199,0.96152 -1.5647,1.5593 -2.67029,1.5593h-7.20227c-1.1073,0 -2.12463,-0.60498 -2.65588,-1.5773zM15.86469,24.65739c0.40332,-0.68063 1.11633,-1.08755 1.90686,-1.08755h4.23315c1.83838,0 3.54163,-0.99393 4.44373,-2.5946l10.771,-18.98706c0.14404,-0.25571 0.14233,-0.54738 -0.00354,-0.79947c-0.14771,-0.25208 -0.39978,-0.39793 -0.69324,-0.39793h-31.22913c-1.84924,0 -3.49854,0.79044 -4.40967,2.11208c-1.06946,1.55209 -1.17566,3.53635 -0.27905,5.17844l15.83069,28.97128c0.15662,0.28629 0.5636,0.28989 0.72375,0.0072l1.99512,-3.48953c0.10803,-0.18906 0.10974,-0.42133 0.00537,-0.61218l-3.33289,-6.10754c-0.37988,-0.69324 -0.36548,-1.51431 0.03784,-2.19312z" fill="#deb78f" fill-opacity="1"></path></g><g><title>Caminho 9712</title><path d="M62.23474,8.80153l-7.79822,14.06067c-0.84448,1.52148 -2.44873,2.465 -4.18811,2.465h-1.95715c-1.87268,0 -3.56335,1.04614 -4.4115,2.72968c-0.72205,1.43506 -0.62305,3.26083 0.26648,4.88498l1.05518,1.93201c0.82825,1.51428 0.83179,3.32388 0.01257,4.84174l-8.95056,16.57251c-0.42871,0.79584 -1.25684,1.29099 -2.15906,1.29282h-0.00708c-0.90027,0 -1.72681,-0.48978 -2.1571,-1.27844l-5.97791,-10.89346c-0.56006,-1.02454 -0.55273,-2.23993 0.01978,-3.25543l19.92871,-35.30568c0.59241,-1.04973 1.70874,-1.70334 2.91333,-1.70334h11.2572c0.88049,0 1.67273,0.45374 2.12109,1.21358c0.44836,0.75806 0.45911,1.67273 0.03235,2.44339zM67.33765,2.90463c-0.91113,-1.32343 -2.56042,-2.11386 -4.40967,-2.11386h-17.36646c-0.75989,0 -1.4657,0.41052 -1.8385,1.07315l-23.3678,41.39702c-0.16919,0.30069 -0.17102,0.6644 -0.00537,0.96869l9.4386,17.2081c0.86255,1.5791 2.51904,2.56042 4.32141,2.56219c1.80054,0 3.45886,-0.98489 4.32678,-2.573l11.72534,-21.70773c0.82471,-1.52869 0.82104,-3.35086 -0.01257,-4.87595l-0.27917,-0.51135c-0.53833,-0.98132 -0.51855,-2.1427 0.05408,-3.10779c0.57251,-0.96332 1.58276,-1.53952 2.70264,-1.53952c1.85461,0 3.56519,-1.00833 4.46362,-2.63065l10.52246,-18.97266c0.91296,-1.6655 0.8103,-3.60115 -0.27539,-5.17665z" fill="#deb78f" fill-opacity="1"></path></g></g></svg>