<?xml version="1.0" encoding="UTF-8"?>
<svg id="SVGDoc" width="17" height="50" xmlns="http://www.w3.org/2000/svg" version="1.1" xmlns:xlink="http://www.w3.org/1999/xlink" xmlns:avocode="https://avocode.com/" viewBox="0 0 17 50"><defs></defs><desc>Generated with Avocode.</desc><g><g><title>Grupo 9288</title><g><title>bx-mouse</title><g><title>Caminho 9799</title><path d="M2.42484,9.271c0.00442,-3.33891 2.70483,-6.04727 6.04371,-6.06149c3.3516,0.00727 6.07927,2.72605 6.07927,6.06149v7.27379c0,3.34271 -2.71878,6.06149 -6.06149,6.06149h-0.03071c-3.3807,0 -6.03078,-2.66221 -6.03078,-6.06149zM8.48633,25.03087c4.67785,0 8.48608,-3.80661 8.48608,-8.48608v-7.27379c0,-4.65603 -3.79126,-8.45456 -8.46265,-8.48608h-0.07274c-4.65603,0.02667 -8.43678,3.82763 -8.43678,8.48608v7.27379c0,4.67947 3.79368,8.48608 8.45537,8.48608z" fill="#deb78f" fill-opacity="1"></path></g><g><title>Caminho 9800</title><path d="M7.27403,5.6341v0h2.42459v0v7.27378v0h-2.42459v0z" fill="#deb78f" fill-opacity="1"></path></g></g><g><title>chevron-double-down</title><g><title>Caminho 9801</title><path d="M2.12233,30.90798v0l-2.122,2.121v0l8.486,8.486v0l8.486,-8.486v0l-2.121,-2.121v0l-6.365,6.366v0z" fill="#deb78f" fill-opacity="1"></path></g><g><title>Caminho 9802</title><path d="M0.00033,41.51498v0l2.121,-2.121v0l6.365,6.364v0l6.365,-6.365v0l2.121,2.121v0l-8.486,8.486v0l-8.486,-8.486v0z" fill="#deb78f" fill-opacity="1"></path></g></g></g></g></svg>