<?xml version="1.0" encoding="UTF-8"?>
<svg id="SVGDoc" width="36" height="30" xmlns="http://www.w3.org/2000/svg" version="1.1" xmlns:xlink="http://www.w3.org/1999/xlink" xmlns:avocode="https://avocode.com/" viewBox="0 0 36 30"><defs></defs><desc>Generated with Avocode.</desc><g><g><title>diamond</title><path d="M29.022,1.06345l6.75,9c0.164,0.21067 0.24033,0.45367 0.229,0.729c-0.01133,0.27533 -0.111,0.51267 -0.299,0.712l-16.875,18c-0.21067,0.23467 -0.486,0.352 -0.826,0.352c-0.34,0 -0.61533,-0.11733 -0.826,-0.352l-16.876,-18c-0.18733,-0.19867 -0.287,-0.43567 -0.299,-0.711c-0.012,-0.27533 0.06433,-0.51867 0.229,-0.73l6.75,-9c0.21067,-0.30467 0.50933,-0.457 0.896,-0.457h20.25c0.38667,0 0.68533,0.15233 0.896,0.457zM26.543,9.60645h6.082l-5.063,-6.75h-4.605zM12.006,9.60645h11.988l-3.586,-6.75h-4.816zM21.322,23.54544l10.951,-11.689h-5.678zM9.457,9.60645l3.586,-6.75h-4.605l-5.063,6.75zM18,25.42645l6.135,-13.57h-12.27zM3.727,11.85645l10.951,11.689l-5.273,-11.689z" fill="#deb78f" fill-opacity="1"></path></g></g></svg>