<?xml version="1.0" encoding="UTF-8"?>
<svg id="SVGDoc" width="30" height="37" xmlns="http://www.w3.org/2000/svg" version="1.1" xmlns:xlink="http://www.w3.org/1999/xlink" xmlns:avocode="https://avocode.com/" viewBox="0 0 30 37"><defs></defs><desc>Generated with Avocode.</desc><g><g><title>intersex</title><path d="M6.06847,23.23435c-1.762,-1.76133 -2.64267,-3.88067 -2.642,-6.358c0.00067,-2.47733 0.88134,-4.59667 2.642,-6.358c1.76066,-1.76133 3.88,-2.642 6.358,-2.642c2.478,0 4.59767,0.88067 6.359,2.642c1.76133,1.76133 2.64167,3.88067 2.641,6.358c-0.00067,2.47733 -0.88133,4.59667 -2.642,6.358c-1.76067,1.76133 -3.88,2.642 -6.358,2.642c-2.47666,0 -4.596,-0.88067 -6.358,-2.642zM21.42647,2.09035c0,0.18733 0.06033,0.34133 0.181,0.462c0.12067,0.12067 0.27467,0.181 0.462,0.181h2.692l-5.123,5.103c-1.17933,-0.93733 -2.50533,-1.627 -3.978,-2.069c-1.47267,-0.442 -2.99933,-0.56933 -4.58,-0.382c-2.71867,0.30733 -5.04233,1.46233 -6.971,3.465c-1.92867,2.00267 -3,4.37 -3.214,7.102c-0.16,2.076 0.195,4.028 1.065,5.856c0.87,1.828 2.11867,3.32467 3.746,4.49c1.62733,1.16533 3.43867,1.855 5.434,2.069v2.652h-1.929c-0.18733,0 -0.34133,0.06033 -0.462,0.181c-0.12067,0.12067 -0.181,0.27467 -0.181,0.462v1.286c0,0.18733 0.06033,0.34133 0.181,0.462c0.12067,0.12067 0.27467,0.181 0.462,0.181h1.929v1.929c0,0.18733 0.06033,0.34133 0.181,0.462c0.12067,0.12067 0.27467,0.181 0.462,0.181h1.286c0.18733,0 0.34133,-0.06033 0.462,-0.181c0.12067,-0.12067 0.181,-0.27467 0.181,-0.462v-1.929h1.929c0.18733,0 0.34133,-0.06033 0.462,-0.181c0.12067,-0.12067 0.181,-0.27467 0.181,-0.462v-1.286c0,-0.18733 -0.06033,-0.34133 -0.181,-0.462c-0.12067,-0.12067 -0.27467,-0.181 -0.462,-0.181h-1.929v-2.652c2.906,-0.322 5.34667,-1.57767 7.322,-3.767c1.97533,-2.18933 2.963,-4.764 2.963,-7.724c0,-2.692 -0.84367,-5.096 -2.531,-7.212l5.103,-5.123v2.693c0,0.18733 0.06033,0.34133 0.181,0.462c0.12067,0.12067 0.27467,0.181 0.462,0.181h1.286c0.18733,0 0.34133,-0.06033 0.462,-0.181c0.12067,-0.12067 0.181,-0.27467 0.181,-0.462v-5.786c0,-0.348 -0.12733,-0.64933 -0.382,-0.904c-0.25467,-0.25467 -0.556,-0.382 -0.904,-0.382h-5.786c-0.18733,0 -0.34133,0.06033 -0.462,0.181c-0.12067,0.12067 -0.181,0.27467 -0.181,0.462z" fill="#deb78f" fill-opacity="1"></path></g></g></svg>