<?xml version="1.0" encoding="UTF-8"?>
<svg id="SVGDoc" width="38" height="26" xmlns="http://www.w3.org/2000/svg" version="1.1" xmlns:xlink="http://www.w3.org/1999/xlink" xmlns:avocode="https://avocode.com/" viewBox="0 0 38 26"><defs></defs><desc>Generated with Avocode.</desc><g><g><title>smoke</title><g><title>Caminho 9812</title><path d="M25.67246,22.72076h-22.67486v-4.53543h22.67486zM0.40625,15.59398v9.71813h27.85756v-9.71813z" fill="#deb78f" fill-opacity="1"></path></g><g><title>Caminho 9813</title><path d="M30.20674,15.59398v0h2.59135v0v9.71813v0h-2.59135v0z" fill="#deb78f" fill-opacity="1"></path></g><g><title>Caminho 9814</title><path d="M34.74218,15.59398v0h2.59135v0v9.71813v0h-2.59135v0z" fill="#deb78f" fill-opacity="1"></path></g><g><title>Caminho 9815</title><path d="M30.32192,10.19246c-0.63799,-0.9628 -0.56141,-2.23168 0.18773,-3.11077c1.55222,-1.80495 1.66878,-4.43733 0.28217,-6.37241l-0.47335,-0.66339v0h-2.9622v0l-0.14742,0.10481v0l1.47419,2.06386c0.69224,0.96548 0.63419,2.27921 -0.14051,3.17987c-1.50208,1.76187 -1.65572,4.30551 -0.37661,6.23536l0.48372,0.72557v0h3.11422v0z" fill="#deb78f" fill-opacity="1"></path></g><g><title>Caminho 9816</title><path d="M36.15302,10.19246c-0.63799,-0.9628 -0.56141,-2.23168 0.18773,-3.11077c1.55222,-1.80495 1.66878,-4.43733 0.28217,-6.37241l-0.4745,-0.66339v0h-2.96105v0l-0.14742,0.10481v0l1.47419,2.06386c0.69224,0.96548 0.63419,2.27921 -0.14051,3.17987c-1.50209,1.76187 -1.65572,4.30551 -0.37661,6.23536l0.48257,0.72558v0h3.11422v0z" fill="#deb78f" fill-opacity="1"></path></g></g></g></svg>