<?xml version="1.0" encoding="UTF-8"?>
<svg id="SVGDoc" width="36" height="36" xmlns="http://www.w3.org/2000/svg" version="1.1" xmlns:xlink="http://www.w3.org/1999/xlink" xmlns:avocode="https://avocode.com/" viewBox="0 0 36 36"><defs></defs><desc>Generated with Avocode.</desc><g><g><title>law</title><path d="M18.211,15.188l-3.023,3.023l-6.363,-6.363l3.023,-3.059zM35.368,35.367c0.422,-0.422 0.633,-0.926 0.633,-1.512c0,-0.586 -0.211,-1.09 -0.633,-1.512l-15.785,-15.82l3.691,-3.691l0.035,0.035c0.422,0.422 0.93167,0.633 1.529,0.633c0.59733,0 1.107,-0.211 1.529,-0.633c0.422,-0.422 0.633,-0.93167 0.633,-1.529c0,-0.59733 -0.211,-1.107 -0.633,-1.529l-9.176,-9.176c-0.42267,-0.42133 -0.93233,-0.63233 -1.529,-0.633c-0.59667,-0.00067 -1.10633,0.21033 -1.529,0.633c-0.42267,0.42267 -0.634,0.93267 -0.634,1.53c0,0.59733 0.211,1.107 0.633,1.529l0.035,0.035l-10.441,10.441l-0.035,-0.035c-0.422,-0.42267 -0.93167,-0.63367 -1.529,-0.633c-0.59733,0.00067 -1.107,0.21167 -1.529,0.633c-0.422,0.42133 -0.633,0.931 -0.633,1.529c0,0.598 0.211,1.10767 0.633,1.529l9.176,9.176c0.422,0.42133 0.93167,0.63233 1.529,0.633c0.59733,0.00067 1.107,-0.21033 1.529,-0.633c0.422,-0.42267 0.633,-0.93267 0.633,-1.53c0,-0.59733 -0.211,-1.107 -0.633,-1.529v-0.035l3.692,-3.691l15.784,15.785c0.422,0.422 0.926,0.633 1.512,0.633c0.586,0 1.09,-0.211 1.512,-0.633z" fill="#deb78f" fill-opacity="1"></path></g></g></svg>