<?xml version="1.0" encoding="UTF-8"?>
<svg id="SVGDoc" width="32" height="35" xmlns="http://www.w3.org/2000/svg" version="1.1" xmlns:xlink="http://www.w3.org/1999/xlink" xmlns:avocode="https://avocode.com/" viewBox="0 0 32 35"><defs></defs><desc>Generated with Avocode.</desc><g><g><title>Caminho 9809</title><path d="M17.29115,0.92749l-10.82385,10.82385c-0.66269,0.66269 -0.66269,1.73318 0,2.39586l8.411,8.411c0.66269,0.66269 1.73318,0.66269 2.39586,0l10.80686,-10.80686c0.66268,-0.66269 0.66268,-1.73318 0,-2.39586l-8.411,-8.411c-0.64569,-0.67968 -1.71618,-0.67968 -2.37887,-0.01699zM24.49572,10.54491l-8.411,8.411l-6.01514,-6.01514l8.411,-8.411zM26.19491,19.12583h-1.15545l-3.39838,3.39838h3.24546l3.00757,3.39838h-23.78869l3.02456,-3.39838h3.48334l-3.39839,-3.39838h-1.41033l-5.09758,5.09758v6.79677c0,1.86911 1.51228,3.39838 3.38139,3.39838h23.80568c1.86911,0 3.39838,-1.51228 3.39838,-3.39838v-6.79677z" fill="#deb78f" fill-opacity="1"></path></g></g></svg>