<?xml version="1.0" encoding="UTF-8"?>
<svg id="SVGDoc" width="42" height="41" xmlns="http://www.w3.org/2000/svg" version="1.1" xmlns:xlink="http://www.w3.org/1999/xlink" xmlns:avocode="https://avocode.com/" viewBox="0 0 42 41"><defs></defs><desc>Generated with Avocode.</desc><g><g><title>library-building</title><g><title>Caminho 9803</title><path d="M34.24756,13.92883h-26.49512v-0.37863l12.75298,-6.14053l13.74213,6.15955zM20.47553,5.16234l-14.76118,7.10703v3.69754h30.57129v-3.71747z" fill="#deb78f" fill-opacity="1"></path><path d="M34.24756,13.92883h-26.49512v-0.37863l12.75298,-6.14053l13.74213,6.15955zM20.47553,5.16234l-14.76118,7.10703v3.69754h30.57129v-3.71747z" fill-opacity="0" fill="#ffffff" stroke-dashoffset="0" stroke-linejoin="miter" stroke-linecap="butt" stroke-opacity="1" stroke="#deb78f" stroke-miterlimit="20" stroke-width="0.5"></path></g><g><title>Caminho 9804</title><path d="M7.75244,31.25165h26.49512v2.54806h-26.49512zM5.71436,35.8378h30.57129v-6.62333h-30.57129z" fill="#deb78f" fill-opacity="1"></path><path d="M7.75244,31.25165h26.49512v2.54806h-26.49512zM5.71436,35.8378h30.57129v-6.62333h-30.57129z" fill-opacity="0" fill="#ffffff" stroke-dashoffset="0" stroke-linejoin="miter" stroke-linecap="butt" stroke-opacity="1" stroke="#deb78f" stroke-miterlimit="20" stroke-width="0.5"></path></g><g><title>Caminho 9805</title><path d="M9.28146,17.49503v0h2.03809v0v10.19043v0h-2.03809v0z" fill="#deb78f" fill-opacity="1"></path><path d="M9.28146,17.49503v0h2.03809v0v10.19043v0h-2.03809v0z" fill-opacity="0" fill="#ffffff" stroke-dashoffset="0" stroke-linejoin="miter" stroke-linecap="butt" stroke-opacity="1" stroke="#deb78f" stroke-miterlimit="20" stroke-width="0.5"></path></g><g><title>Caminho 9806</title><path d="M30.68136,17.49503v0h2.03809v0v10.19043v0h-2.03809v0z" fill="#deb78f" fill-opacity="1"></path><path d="M30.68136,17.49503v0h2.03809v0v10.19043v0h-2.03809v0z" fill-opacity="0" fill="#ffffff" stroke-dashoffset="0" stroke-linejoin="miter" stroke-linecap="butt" stroke-opacity="1" stroke="#deb78f" stroke-miterlimit="20" stroke-width="0.5"></path></g><g><title>Caminho 9807</title><path d="M16.41476,17.49503v0h2.03809v0v10.19043v0h-2.03809v0z" fill="#deb78f" fill-opacity="1"></path><path d="M16.41476,17.49503v0h2.03809v0v10.19043v0h-2.03809v0z" fill-opacity="0" fill="#ffffff" stroke-dashoffset="0" stroke-linejoin="miter" stroke-linecap="butt" stroke-opacity="1" stroke="#deb78f" stroke-miterlimit="20" stroke-width="0.5"></path></g><g><title>Caminho 9808</title><path d="M23.54806,17.49503v0h2.03809v0v10.19043v0h-2.03809v0z" fill="#deb78f" fill-opacity="1"></path><path d="M23.54806,17.49503v0h2.03809v0v10.19043v0h-2.03809v0z" fill-opacity="0" fill="#ffffff" stroke-dashoffset="0" stroke-linejoin="miter" stroke-linecap="butt" stroke-opacity="1" stroke="#deb78f" stroke-miterlimit="20" stroke-width="0.5"></path></g></g></g></svg>