<?xml version="1.0" encoding="UTF-8"?>
<svg id="SVGDoc" width="219" height="36" xmlns="http://www.w3.org/2000/svg" version="1.1" xmlns:xlink="http://www.w3.org/1999/xlink" xmlns:avocode="https://avocode.com/" viewBox="0 0 219 36"><defs></defs><desc>Generated with Avocode.</desc><g><g><title>Grupo 9251</title><g><title>Grupo 9248</title><g><title>Caminho 9689</title><path d="M50.69379,7.09574c1.25598,0 2.09997,0.255 2.591,0.74699c0.51099,0.47101 0.78598,1.23601 0.78598,2.375c0,0.707 -0.15798,1.315 -0.47198,1.767c-0.29401,0.47101 -0.66702,0.72601 -1.099,0.864c-0.47101,0.15601 -1.08002,0.15601 -1.88501,0.15601h-0.746v-5.88899c0.21701,-0.02 0.491,-0.02 0.82501,-0.02zM54.61978,13.59376c0.668,-0.33301 1.21701,-0.765 1.59,-1.394c0.35401,-0.62801 0.53,-1.334 0.53,-2.13901c0,-0.922 -0.255,-1.70799 -0.80499,-2.336c-0.53,-0.60899 -1.21701,-1.08 -2.04102,-1.315c-0.805,-0.23599 -1.94401,-0.39299 -3.41599,-0.39299h-3.10202v14.625h2.49301v-6.65401h1.276c1.59,0 2.788,-0.05901 3.47501,-0.394z" fill="#deb78f" fill-opacity="1"></path></g><g><title>Caminho 9690</title><path d="M64.75778,6.97874v0h-1.63v0v2.78801v0v0.41199v0v2.29601v0h1.17801v0h2.88599v0v0.963v0h-2.827v0h-1.237v0v1.492v0v0.314v0v0.53v0v0.98201v0v2.905v0h1.59v0h4.57501v0v0.96199v0h-8.69702v0v-3.86699v0v-0.98201v0v-0.84399v0v-5.183v0v-3.75v0h8.73602v0v0.98199v0z" fill="#deb78f" fill-opacity="1"></path></g><g><title>Caminho 9691</title><path d="M82.37277,10.59074c0.29502,0.903 0.452,1.924 0.452,3.10201c0,1.492 -0.255,2.68899 -0.76599,3.632c-0.48999,0.942 -1.11899,1.55099 -1.845,1.86499c-0.72699,0.31401 -1.70801,0.47101 -2.905,0.47101h-1.92401v-12.623c0.431,-0.02001 0.90301,-0.04001 1.354,-0.04001c1.06,0 1.92401,0.09801 2.59201,0.295c0.64801,0.19601 1.25601,0.569 1.78601,1.138c0.54999,0.55 0.96197,1.257 1.25598,2.16zM85.08276,16.42074c0.31403,-0.88299 0.47101,-1.84399 0.47101,-2.88499c0,-1.453 -0.29401,-2.74901 -0.883,-3.86801c-0.58999,-1.13899 -1.49301,-2.02199 -2.69,-2.67c-1.21701,-0.66699 -2.88599,-0.98099 -4.96701,-0.98099c0,0 -0.668,0 -4.12299,-0.02v14.645h4.08301c1.159,0 2.082,-0.039 2.72998,-0.117c0.66703,-0.078 1.35401,-0.27501 2.08002,-0.569c0.74701,-0.295 1.39398,-0.74701 1.96399,-1.336c0.569,-0.58901 1.00101,-1.31501 1.33499,-2.19901z" fill="#deb78f" fill-opacity="1"></path></g><g><title>Caminho 9692</title><path d="M92.94476,7.09575c1.64901,0 2.65099,0.19699 3.04299,0.688c0.45203,0.53 0.68802,1.217 0.68802,2.159c0,0.53 -0.08002,0.96199 -0.19699,1.315c-0.138,0.35399 -0.31403,0.609 -0.53,0.825c-0.25601,0.23599 -0.55002,0.472 -0.884,0.569c-0.19601,0.059 -0.41201,0.138 -0.647,0.19699c-0.23602,0.059 -0.47201,0.117 -0.707,0.117h-1.39401v-5.88899zM96.47878,13.86875c-0.17701,-0.15599 -0.35303,-0.25499 -0.51102,-0.353c1.00202,-0.23601 1.78702,-0.706 2.35602,-1.256c0.72699,-0.688 1.07999,-1.532 1.07999,-2.513c0,-0.84401 -0.27499,-1.571 -0.82501,-2.179c-0.54999,-0.60901 -1.275,-0.96201 -2.13898,-1.217c-0.86401,-0.25601 -1.96402,-0.334 -3.29901,-0.334h-3.31799v14.625h2.49399v-6.733l0.353,0.01999c3.69101,0 5.67402,5.889 5.87,6.71301h2.16c-1.43299,-3.552 -2.49399,-4.98601 -2.49399,-4.98601c-0.66699,-0.88299 -1.23599,-1.433 -1.72699,-1.787z" fill="#deb78f" fill-opacity="1"></path></g><g><title>Caminho 9693</title><path d="M110.58276,6.99774c1.58901,0 2.57101,0.53101 3.39602,1.61c0.82498,1.04001 1.03998,2.59201 1.03998,4.71201c0,2.179 -0.215,3.72999 -1.06,4.77c-0.84399,1.041 -1.767,1.552 -3.22,1.552c-1.66799,0 -2.43399,-0.511 -3.27798,-1.552c-0.82401,-1.04001 -1.25702,-2.63001 -1.25702,-4.79001c0,-2.13899 0.43301,-3.69099 1.25702,-4.731c0.844,-1.06 1.57001,-1.571 3.12197,-1.571zM115.70578,18.60075c1.41401,-1.35501 2.12,-3.14101 2.12,-5.30101c0,-2.23799 -0.74499,-4.02401 -2.21701,-5.34c-1.47299,-1.295 -2.84698,-1.94299 -5.026,-1.94299c-2.17999,0 -3.53497,0.648 -4.987,1.963c-1.45298,1.33499 -2.17899,3.082 -2.17899,5.24199c0,2.218 0.707,4.024 2.159,5.37901c1.414,1.355 2.78799,2.041 5.026,2.041c2.29699,0 3.69101,-0.686 5.104,-2.041z" fill="#deb78f" fill-opacity="1"></path></g><g><title>Caminho 9694</title><path d="M134.60476,14.16374c0.57,0.491 0.86401,1.25701 0.86401,2.37601c0,1.099 -0.27401,1.864 -0.76501,2.375c-0.47199,0.491 -1.198,0.62799 -2.297,0.62799h-1.53198v-6.125h0.629c1.54999,0 2.552,0.27501 3.10098,0.746zM133.60379,7.31174c0.392,0.19699 0.66699,0.472 0.86398,0.825c0.17701,0.334 0.29401,0.864 0.29401,1.571c0,1.02 -0.255,1.688 -0.72601,2.09999c-0.47098,0.39201 -1.39399,0.64801 -2.88599,0.64801c-0.05899,0 -0.17599,0 -0.27499,-0.02v-5.418c0.216,0 0.47098,-0.02 0.668,-0.02c1.03997,0 1.68798,0.11801 2.061,0.31401zM137.33377,19.05275c0.569,-0.688 0.84399,-1.513 0.84399,-2.455c0,-1.08 -0.41198,-1.98199 -1.23599,-2.709c-0.57001,-0.51 -1.35498,-0.864 -2.31699,-1.06c0.707,-0.216 1.29599,-0.51001 1.728,-0.88301c0.72598,-0.58999 1.07898,-1.394 1.07898,-2.37599c0,-2.45399 -2.159,-3.55299 -5.98798,-3.55299h-3.082v14.625h3.495c1.37399,0 2.49301,-0.07801 3.33798,-0.29401c0.86402,-0.196 1.58902,-0.62801 2.13901,-1.295z" fill="#deb78f" fill-opacity="1"></path></g><g><title>Caminho 9695</title><path d="M145.60678,7.09575c1.64898,0 2.65099,0.19699 3.04299,0.688c0.452,0.53 0.68799,1.217 0.68799,2.159c0,0.53 -0.07999,0.96199 -0.19699,1.315c-0.138,0.35399 -0.314,0.609 -0.53,0.825c-0.25601,0.23599 -0.54999,0.472 -0.884,0.569c-0.19598,0.059 -0.41198,0.138 -0.647,0.19699c-0.23599,0.059 -0.47198,0.117 -0.707,0.117h-1.39398v-5.88899zM149.14077,13.86875c-0.17701,-0.15599 -0.353,-0.25499 -0.51099,-0.353c1.00199,-0.23601 1.78699,-0.706 2.35599,-1.256c0.72699,-0.688 1.07999,-1.532 1.07999,-2.513c0,-0.84401 -0.27499,-1.571 -0.82498,-2.179c-0.55002,-0.60901 -1.275,-0.96201 -2.13901,-1.217c-0.86401,-0.25601 -1.96399,-0.334 -3.29901,-0.334h-3.31799v14.625h2.49402v-6.733l0.353,0.01999c3.69098,0 5.67399,5.889 5.87,6.71301h2.16c-1.43302,-3.552 -2.49402,-4.98601 -2.49402,-4.98601c-0.66699,-0.88299 -1.23599,-1.433 -1.72699,-1.787z" fill="#deb78f" fill-opacity="1"></path></g><g><title>Caminho 9696</title><path d="M164.85376,14.49774h-4.14197l2.04199,-5.065zM170.09576,20.64175l-6.20398,-14.625h-0.72601l-6.047,14.625h1.25699l2.00302,-5.20201h4.849l1.02002,2.45401c0,0 0.31397,0.74599 1.11896,2.748z" fill="#deb78f" fill-opacity="1"></path></g><g><title>Caminho 9697</title><path d="M184.76978,20.64175v0l-9.54102,-12.54401v0v8.854v0v3.33699v0h-0.96198v0v-3.33699v0v-7.323v0v-3.612v0h2.51196v0l7.65704,10.228v0v-7.519v0v-2.709v0h1.07996v0v2.866v0v11.759v0z" fill="#deb78f" fill-opacity="1"></path></g><g><title>Caminho 9698</title><path d="M191.68878,18.69875c-1.29602,-1.315 -1.94403,-3.02299 -1.94403,-5.12399c0,-1.39401 0.29504,-2.68901 0.90302,-3.90701c0.58899,-1.237 1.43298,-2.159 2.513,-2.767c1.06104,-0.58899 2.23804,-0.88399 3.51501,-0.88399c1.03998,0 2.00201,0.215 2.86597,0.64799c0.82501,0.412 1.47205,0.883 1.94403,1.452l0.05798,0.27501v0l-0.70697,0.66699c-0.37299,-0.549 -0.60803,-0.82401 -0.883,-1.02c-0.883,-0.68799 -1.88403,-1.021 -2.98401,-1.021c-1.35498,0 -2.41504,0.53 -3.22003,1.63c-0.78497,1.099 -1.19696,2.70799 -1.19696,4.82899c0,2.022 0.45197,3.51401 1.315,4.554c0.86395,1.022 1.94397,1.532 3.23895,1.532c0.68805,0 1.39404,-0.157 2.14105,-0.50999c0.56897,-0.256 1.039,-0.688 1.60895,-1.513l0.76605,0.786c-1.39404,1.571 -2.98401,2.31601 -4.92804,2.31601c-2.02197,0 -3.69,-0.647 -5.00598,-1.94301z" fill="#deb78f" fill-opacity="1"></path></g><g><title>Caminho 9699</title><path d="M210.97479,6.99774c1.58996,0 2.57195,0.53101 3.39599,1.61c0.82502,1.04001 1.04102,2.59201 1.04102,4.71201c0,2.179 -0.21601,3.72999 -1.06104,4.77c-0.84399,1.041 -1.76599,1.552 -3.21899,1.552c-1.669,0 -2.435,-0.511 -3.27899,-1.552c-0.82403,-1.04001 -1.25598,-2.63001 -1.25598,-4.79001c0,-2.13899 0.43194,-3.69099 1.25598,-4.731c0.84399,-1.06 1.57098,-1.571 3.122,-1.571zM216.09875,18.60075c1.41303,-1.35501 2.12,-3.14101 2.12,-5.30101c0,-2.23799 -0.74598,-4.02401 -2.21796,-5.34c-1.47204,-1.295 -2.84704,-1.94299 -5.026,-1.94299c-2.17901,0 -3.53399,0.648 -4.98602,1.963c-1.453,1.33499 -2.17999,3.082 -2.17999,5.24199c0,2.218 0.70697,4.024 2.15997,5.37901c1.414,1.355 2.78802,2.041 5.02502,2.041c2.29797,0 3.69098,-0.686 5.10498,-2.041z" fill="#deb78f" fill-opacity="1"></path></g></g><g><title>Grupo 9249</title><g><title>Caminho 9700</title><path d="M5.99377,9.81975l-2.431,-4.44701c-0.28799,-0.528 -0.27701,-1.151 0.03,-1.66699c0.306,-0.51601 0.84702,-0.82401 1.44699,-0.82401h8.94901c0.60501,0 1.14902,0.312 1.45401,0.83501c0.30499,0.522 0.31,1.149 0.013,1.677l-2.505,4.43599c-0.29999,0.53401 -0.86801,0.866 -1.48199,0.866h-4c-0.61499,0 -1.17999,-0.33499 -1.47501,-0.87599zM8.80978,13.71774c0.22501,-0.37799 0.621,-0.60399 1.06,-0.60399h2.35001c1.022,0 1.96799,-0.552 2.46899,-1.44101l5.98199,-10.545c0.07999,-0.14101 0.07901,-0.304 -0.00299,-0.444c-0.08099,-0.14 -0.22202,-0.22099 -0.38501,-0.22099h-17.34299c-1.02701,0 -1.94302,0.439 -2.45001,1.17299c-0.59299,0.862 -0.65201,1.964 -0.15399,2.87601l8.79199,16.091c0.086,0.15799 0.31299,0.15999 0.40201,0.00299l1.108,-1.938c0.06,-0.105 0.061,-0.23399 0.00299,-0.34l-1.85199,-3.392c-0.21002,-0.38499 -0.202,-0.841 0.021,-1.218z" fill="#deb78f" fill-opacity="1"></path></g><g><title>Caminho 9701</title><path d="M34.56277,4.91174l-4.33099,7.80901c-0.46802,0.845 -1.35901,1.37 -2.32599,1.37h-1.08603c-1.03998,0 -1.97897,0.58 -2.44998,1.515c-0.40201,0.797 -0.34601,1.812 0.147,2.714l0.58701,1.07201c0.45898,0.84099 0.46198,1.84599 0.00699,2.689l-4.97202,9.205c-0.237,0.44099 -0.69699,0.71599 -1.198,0.717h-0.004c-0.5,0 -0.95898,-0.272 -1.19901,-0.71001l-3.319,-6.04999c-0.31097,-0.56801 -0.30698,-1.244 0.01102,-1.808l11.06799,-19.608c0.328,-0.58301 0.948,-0.94501 1.61801,-0.94501h6.25198c0.48901,0 0.92902,0.25101 1.17801,0.673c0.24899,0.42101 0.255,0.929 0.017,1.35699zM37.39679,1.63675c-0.50601,-0.735 -1.42102,-1.174 -2.448,-1.174h-9.64603c-0.422,0 -0.81299,0.22899 -1.021,0.59599l-12.97699,22.991c-0.09399,0.168 -0.095,0.369 -0.00299,0.539l5.24197,9.556c0.479,0.877 1.39902,1.422 2.40002,1.423c1,0 1.92099,-0.547 2.40298,-1.42801l6.51102,-12.05699c0.45898,-0.849 0.457,-1.86101 -0.00601,-2.70801l-0.155,-0.28299c-0.29901,-0.54601 -0.28799,-1.19101 0.03,-1.72701c0.31699,-0.535 0.87799,-0.855 1.5,-0.855c1.03,0 1.98001,-0.56 2.48001,-1.461l5.84399,-10.537c0.50699,-0.925 0.44901,-2 -0.15399,-2.875z" fill="#deb78f" fill-opacity="1"></path></g></g><g><title>Grupo 9250</title><g><title>Caminho 9702</title><path d="M80.36579,28.22674c0.022,-0.056 0.04401,-0.118 0.06598,-0.185c0.022,-0.067 0.04303,-0.138 0.065,-0.213c0.02301,0.075 0.044,0.146 0.065,0.213c0.022,0.067 0.04501,0.127 0.06601,0.181l1.35101,3.34h-2.96201zM80.73478,27.35275h-0.47598l-2.70502,6.612h0.36401c0.04401,0 0.08099,-0.01201 0.112,-0.03801c0.03198,-0.02499 0.05399,-0.05499 0.06598,-0.08899l0.77502,-1.92101h3.24799l0.77899,1.92101c0.017,0.03699 0.039,0.068 0.06601,0.09099c0.02899,0.024 0.06399,0.03601 0.108,0.03601h0.36899z" fill="#deb78f" fill-opacity="1"></path></g><g><title>Caminho 9703</title><path d="M95.90778,31.89376c-0.128,0.362 -0.309,0.66699 -0.54099,0.91699c-0.23202,0.248 -0.51202,0.439 -0.83801,0.57001c-0.327,0.12999 -0.69,0.19499 -1.08899,0.19499h-1.92902v-5.83499h1.92902c0.39899,0 0.76199,0.06499 1.08899,0.196c0.32599,0.12999 0.60598,0.321 0.83801,0.56999c0.232,0.24901 0.413,0.554 0.54099,0.916c0.12701,0.36101 0.19,0.77299 0.19,1.233c0,0.465 -0.06299,0.877 -0.19,1.23801zM96.59378,30.65574c0,-0.507 -0.07598,-0.965 -0.229,-1.373c-0.15299,-0.408 -0.36801,-0.755 -0.64499,-1.04199c-0.27701,-0.287 -0.60901,-0.50601 -0.995,-0.65901c-0.38702,-0.15199 -0.815,-0.22899 -1.285,-0.22899h-2.41202v6.612h2.41202c0.47,0 0.89798,-0.076 1.285,-0.229c0.38599,-0.154 0.71799,-0.373 0.995,-0.66c0.27698,-0.285 0.49201,-0.633 0.64499,-1.041c0.15301,-0.409 0.229,-0.868 0.229,-1.379z" fill="#deb78f" fill-opacity="1"></path></g><g><title>Caminho 9704</title><path d="M103.55078,27.35275v0h0.379c0.043,0 0.07901,0.01199 0.108,0.03499c0.02701,0.02301 0.048,0.054 0.065,0.091l2.25198,5.48601c0.05801,0.14299 0.10703,0.29599 0.14502,0.457c0.034,-0.168 0.07898,-0.32001 0.13498,-0.457l2.24701,-5.48601c0.01599,-0.034 0.039,-0.064 0.06702,-0.089c0.03098,-0.02399 0.06699,-0.03699 0.11099,-0.03699h0.37399v0l-2.73001,6.612v0h-0.42398v0z" fill="#deb78f" fill-opacity="1"></path></g><g><title>Caminho 9705</title><path d="M122.02579,31.90075c-0.12802,0.36601 -0.30902,0.67801 -0.54001,0.933c-0.232,0.25601 -0.51099,0.45001 -0.83899,0.584c-0.32702,0.134 -0.69,0.201 -1.08801,0.201c-0.39301,0 -0.75202,-0.067 -1.077,-0.201c-0.32599,-0.13399 -0.60601,-0.32799 -0.841,-0.584c-0.23499,-0.25499 -0.418,-0.56699 -0.547,-0.933c-0.129,-0.366 -0.194,-0.78 -0.194,-1.245c0,-0.46 0.065,-0.875 0.194,-1.242c0.129,-0.368 0.31201,-0.679 0.547,-0.935c0.23498,-0.25501 0.51501,-0.45101 0.841,-0.586c0.32499,-0.136 0.68399,-0.20399 1.077,-0.20399c0.39801,0 0.76098,0.06799 1.08801,0.20399c0.328,0.135 0.607,0.331 0.83899,0.586c0.23099,0.256 0.41199,0.567 0.54001,0.935c0.12698,0.367 0.19098,0.78199 0.19098,1.242c0,0.465 -0.064,0.879 -0.19098,1.245zM122.71277,30.65575c0,-0.507 -0.07699,-0.96898 -0.229,-1.38498c-0.15299,-0.416 -0.36798,-0.772 -0.64499,-1.06801c-0.27798,-0.29599 -0.60901,-0.524 -0.996,-0.68399c-0.38501,-0.16001 -0.814,-0.24001 -1.284,-0.24001c-0.46399,0 -0.89001,0.08099 -1.276,0.242c-0.38599,0.16199 -0.71799,0.39 -0.995,0.68399c-0.27801,0.295 -0.49301,0.65001 -0.647,1.06601c-0.15399,0.416 -0.23099,0.87799 -0.23099,1.38499c0,0.511 0.077,0.97501 0.23099,1.39c0.15399,0.416 0.36898,0.77099 0.647,1.06599c0.27701,0.29401 0.60901,0.52101 0.995,0.68201c0.38599,0.161 0.81201,0.241 1.276,0.241c0.47,0 0.89899,-0.08 1.284,-0.241c0.38699,-0.161 0.71802,-0.388 0.996,-0.68201c0.27701,-0.29499 0.49201,-0.64999 0.64499,-1.06599c0.152,-0.41499 0.229,-0.87899 0.229,-1.38999z" fill="#deb78f" fill-opacity="1"></path></g><g><title>Caminho 9706</title><path d="M133.64978,33.65074c0.22699,0 0.435,-0.01199 0.621,-0.03499c0.18799,-0.02301 0.35999,-0.05801 0.522,-0.10501c0.16,-0.04599 0.31299,-0.103 0.457,-0.17c0.146,-0.067 0.29099,-0.14299 0.43799,-0.22699v-1.78101v0h-1.272c-0.034,0 -0.06299,-0.00999 -0.086,-0.032c-0.02301,-0.02101 -0.035,-0.047 -0.035,-0.075v-0.26201v0h1.827v0v2.351c-0.16498,0.11501 -0.33698,0.218 -0.51398,0.308c-0.17801,0.091 -0.36801,0.166 -0.57001,0.22701c-0.203,0.061 -0.42099,0.108 -0.65399,0.14c-0.233,0.033 -0.48901,0.049 -0.767,0.049c-0.47601,0 -0.91202,-0.08 -1.306,-0.241c-0.39301,-0.16 -0.73203,-0.38699 -1.01401,-0.68199c-0.28201,-0.29401 -0.50101,-0.65001 -0.65601,-1.06801c-0.15601,-0.416 -0.23401,-0.881 -0.23401,-1.392c0,-0.50999 0.078,-0.97301 0.23401,-1.39c0.155,-0.416 0.37601,-0.771 0.66299,-1.065c0.28702,-0.295 0.63501,-0.522 1.04501,-0.68199c0.409,-0.16 0.86899,-0.24001 1.37601,-0.24001c0.25198,0 0.48398,0.017 0.698,0.05c0.21399,0.035 0.41199,0.08499 0.59598,0.15199c0.18402,0.067 0.35501,0.15001 0.51501,0.248c0.15799,0.09801 0.31,0.21201 0.457,0.338l-0.12701,0.20601c-0.02698,0.047 -0.06699,0.06999 -0.11499,0.06999c-0.02899,0 -0.05499,-0.006 -0.08002,-0.01799c-0.047,-0.01901 -0.11499,-0.063 -0.20398,-0.13101c-0.08801,-0.069 -0.20901,-0.14 -0.35901,-0.215c-0.15201,-0.075 -0.341,-0.142 -0.56799,-0.201c-0.22699,-0.05899 -0.50299,-0.08899 -0.827,-0.08899c-0.42999,0 -0.81799,0.069 -1.16299,0.20599c-0.34601,0.13701 -0.64102,0.334 -0.88602,0.589c-0.245,0.255 -0.43399,0.567 -0.565,0.93399c-0.13199,0.36801 -0.19901,0.78101 -0.19901,1.23801c0,0.468 0.06702,0.886 0.20102,1.257c0.133,0.371 0.32199,0.685 0.56299,0.94099c0.242,0.258 0.53201,0.455 0.86801,0.592c0.33899,0.136 0.71201,0.205 1.12,0.205z" fill="#deb78f" fill-opacity="1"></path></g><g><title>Caminho 9707</title><path d="M146.24677,28.22674c0.022,-0.056 0.043,-0.118 0.065,-0.185c0.02301,-0.067 0.044,-0.138 0.065,-0.213c0.022,0.075 0.04501,0.146 0.06601,0.213c0.021,0.067 0.04401,0.127 0.06601,0.181l1.35098,3.34h-2.96298zM146.61579,27.35275h-0.47601l-2.70499,6.612h0.36398c0.043,0 0.08102,-0.01201 0.112,-0.03801c0.031,-0.02499 0.05301,-0.05499 0.065,-0.08899l0.776,-1.92101h3.24802l0.77899,1.92101c0.01498,0.03699 0.03799,0.068 0.06601,0.09099c0.02899,0.024 0.06299,0.03601 0.108,0.03601h0.36899z" fill="#deb78f" fill-opacity="1"></path></g><g><title>Caminho 9708</title><path d="M161.78778,31.89376c-0.128,0.362 -0.30903,0.66699 -0.54102,0.91699c-0.23199,0.248 -0.51196,0.439 -0.83801,0.57001c-0.32697,0.12999 -0.68997,0.19499 -1.08899,0.19499h-1.92899v-5.83499h1.92899c0.39902,0 0.76202,0.06499 1.08899,0.196c0.32605,0.12999 0.60602,0.321 0.83801,0.56999c0.232,0.24901 0.41303,0.554 0.54102,0.916c0.12701,0.36101 0.19,0.77299 0.19,1.233c0,0.465 -0.06299,0.877 -0.19,1.23801zM162.47375,30.65574c0,-0.507 -0.07598,-0.965 -0.229,-1.373c-0.15296,-0.408 -0.36798,-0.755 -0.64496,-1.04199c-0.27704,-0.287 -0.60901,-0.50601 -0.995,-0.65901c-0.38702,-0.15199 -0.81503,-0.22899 -1.28503,-0.22899h-2.41199v6.612h2.41199c0.47,0 0.89801,-0.076 1.28503,-0.229c0.38599,-0.154 0.71796,-0.373 0.995,-0.66c0.27698,-0.285 0.49201,-0.633 0.64496,-1.041c0.15301,-0.409 0.229,-0.868 0.229,-1.379z" fill="#deb78f" fill-opacity="1"></path></g><g><title>Caminho 9709</title><path d="M175.76178,31.90075c-0.12799,0.36601 -0.30798,0.67801 -0.539,0.933c-0.232,0.25601 -0.51099,0.45001 -0.84003,0.584c-0.32599,0.134 -0.68896,0.201 -1.08795,0.201c-0.39203,0 -0.75104,-0.067 -1.07703,-0.201c-0.32502,-0.13399 -0.60498,-0.32799 -0.83997,-0.584c-0.23504,-0.25499 -0.41803,-0.56699 -0.54803,-0.933c-0.12896,-0.366 -0.19299,-0.78 -0.19299,-1.245c0,-0.46 0.06402,-0.875 0.19299,-1.242c0.13,-0.368 0.31298,-0.679 0.54803,-0.935c0.23499,-0.25501 0.51496,-0.45101 0.83997,-0.586c0.32599,-0.136 0.685,-0.20399 1.07703,-0.20399c0.39899,0 0.76196,0.06799 1.08795,0.20399c0.32904,0.135 0.60804,0.331 0.84003,0.586c0.23102,0.256 0.41101,0.567 0.539,0.935c0.12799,0.367 0.19202,0.78199 0.19202,1.242c0,0.465 -0.06403,0.879 -0.19202,1.245zM176.44977,30.65575c0,-0.507 -0.07696,-0.96898 -0.22998,-1.38498c-0.15301,-0.416 -0.36798,-0.772 -0.64398,-1.06801c-0.27801,-0.29599 -0.61004,-0.524 -0.99603,-0.68399c-0.38501,-0.16001 -0.81402,-0.24001 -1.28497,-0.24001c-0.46301,0 -0.88903,0.08099 -1.27502,0.242c-0.38703,0.16199 -0.71802,0.39 -0.995,0.68399c-0.27801,0.295 -0.49298,0.65001 -0.64697,1.06601c-0.15405,0.416 -0.23102,0.87799 -0.23102,1.38499c0,0.511 0.07697,0.97501 0.23102,1.39c0.15399,0.416 0.36895,0.77099 0.64697,1.06599c0.27698,0.29401 0.60798,0.52101 0.995,0.68201c0.38598,0.161 0.81201,0.241 1.27502,0.241c0.47094,0 0.89996,-0.08 1.28497,-0.241c0.38598,-0.161 0.71801,-0.388 0.99603,-0.68201c0.276,-0.29499 0.49096,-0.64999 0.64398,-1.06599c0.15301,-0.41499 0.22998,-0.87899 0.22998,-1.38999z" fill="#deb78f" fill-opacity="1"></path></g><g><title>Caminho 9710</title><path d="M187.74677,28.15675c-0.02802,0.05199 -0.06897,0.07899 -0.12097,0.07899c-0.04102,0 -0.09399,-0.02901 -0.15704,-0.086c-0.06396,-0.058 -0.15198,-0.12201 -0.26099,-0.192c-0.10999,-0.07001 -0.245,-0.13499 -0.40997,-0.194c-0.164,-0.05901 -0.367,-0.089 -0.60602,-0.089c-0.24097,0 -0.453,0.034 -0.63599,0.103c-0.18298,0.06801 -0.33502,0.16301 -0.45898,0.28c-0.12402,0.119 -0.21704,0.25601 -0.28204,0.412c-0.06396,0.155 -0.09497,0.319 -0.09497,0.49101c0,0.224 0.04596,0.409 0.14197,0.55499c0.09503,0.146 0.22101,0.271 0.37701,0.375c0.15601,0.10201 0.33203,0.188 0.53101,0.258c0.198,0.07001 0.40198,0.14 0.61102,0.20801c0.20801,0.069 0.41095,0.14499 0.60999,0.22699c0.19897,0.082 0.375,0.186 0.53101,0.31001c0.15601,0.125 0.28198,0.278 0.37598,0.461c0.09601,0.18199 0.14301,0.40799 0.14301,0.67999c0,0.27701 -0.047,0.53801 -0.14197,0.782c-0.09503,0.24501 -0.23303,0.457 -0.41302,0.638c-0.18103,0.181 -0.40198,0.323 -0.66302,0.42801c-0.263,0.10399 -0.56195,0.15599 -0.89899,0.15599c-0.43597,0 -0.81097,-0.077 -1.125,-0.231c-0.315,-0.155 -0.58997,-0.36499 -0.828,-0.633l0.13202,-0.20599c0.03699,-0.047 0.08099,-0.07001 0.13,-0.07001c0.02802,0 0.065,0.019 0.10699,0.056c0.04498,0.037 0.09802,0.084 0.16101,0.138c0.06097,0.054 0.13599,0.114 0.224,0.177c0.08698,0.064 0.18799,0.12401 0.30396,0.179c0.11401,0.05299 0.24805,0.10001 0.39703,0.13701c0.14899,0.03699 0.32001,0.056 0.51001,0.056c0.26196,0 0.49597,-0.039 0.70197,-0.119c0.20703,-0.07901 0.38,-0.188 0.52203,-0.325c0.14099,-0.13701 0.25098,-0.3 0.32599,-0.48801c0.07501,-0.188 0.11102,-0.39 0.11102,-0.605c0,-0.23401 -0.04602,-0.42601 -0.14203,-0.57701c-0.09497,-0.151 -0.22101,-0.278 -0.37701,-0.379c-0.15601,-0.09999 -0.33197,-0.18599 -0.53101,-0.25499c-0.198,-0.06801 -0.40198,-0.134 -0.61096,-0.20001c-0.20801,-0.06499 -0.41199,-0.13899 -0.60999,-0.21899c-0.19904,-0.082 -0.375,-0.185 -0.53101,-0.312c-0.15601,-0.125 -0.28204,-0.283 -0.37805,-0.47101c-0.09399,-0.189 -0.14099,-0.42499 -0.14099,-0.70799c0,-0.22101 0.04199,-0.435 0.125,-0.64101c0.08502,-0.205 0.20801,-0.386 0.37,-0.54399c0.16302,-0.157 0.362,-0.283 0.60205,-0.37801c0.23895,-0.095 0.51099,-0.142 0.81696,-0.142c0.34302,0 0.651,0.05299 0.92303,0.16299c0.27301,0.10901 0.52197,0.276 0.74597,0.5z" fill="#deb78f" fill-opacity="1"></path></g></g></g></g></svg>