<?xml version="1.0" encoding="UTF-8"?>
<svg id="SVGDoc" width="129" height="130" xmlns="http://www.w3.org/2000/svg" version="1.1" xmlns:xlink="http://www.w3.org/1999/xlink" xmlns:avocode="https://avocode.com/" viewBox="0 0 129 130"><defs></defs><desc>Generated with Avocode.</desc><g><g><title>Grupo 9282</title><g><title>Grupo 9252</title><g><title>Caminho 9711</title><path d="M43.104,57.5731l-4.3772,-8.00716c-0.51855,-0.9507 -0.49866,-2.07246 0.05408,-3.00157c0.5509,-0.92908 1.52515,-1.48546 2.6073,-1.48546h16.11145c1.08936,0 2.06885,0.56358 2.61804,1.50528c0.5509,0.9399 0.55994,2.06886 0.02344,3.01778l-4.50867,7.98914c-0.54199,0.96152 -1.5647,1.5593 -2.67029,1.5593h-7.20227c-1.1073,0 -2.12463,-0.60498 -2.65588,-1.5773zM48.17627,64.59175c0.40332,-0.68063 1.11633,-1.08755 1.90686,-1.08755h4.23315c1.83838,0 3.54163,-0.99393 4.44373,-2.5946l10.771,-18.98706c0.14404,-0.25571 0.14233,-0.54738 -0.00354,-0.79947c-0.14771,-0.25208 -0.39978,-0.39793 -0.69324,-0.39793h-31.22913c-1.84924,0 -3.49854,0.79044 -4.40967,2.11208c-1.06946,1.55209 -1.17566,3.53635 -0.27905,5.17844l15.83069,28.97128c0.15662,0.28629 0.5636,0.28989 0.72375,0.0072l1.99512,-3.48953c0.10803,-0.18906 0.10974,-0.42133 0.00537,-0.61218l-3.33289,-6.10754c-0.37988,-0.69324 -0.36548,-1.51431 0.03784,-2.19312z" fill="#092d23" fill-opacity="1"></path></g><g><title>Caminho 9712</title><path d="M94.54633,48.73589l-7.79822,14.06067c-0.84448,1.52148 -2.44873,2.465 -4.18811,2.465h-1.95715c-1.87268,0 -3.56335,1.04614 -4.4115,2.72968c-0.72205,1.43506 -0.62305,3.26083 0.26648,4.88498l1.05518,1.93201c0.82825,1.51428 0.83179,3.32388 0.01257,4.84174l-8.95056,16.57251c-0.42871,0.79584 -1.25684,1.29099 -2.15906,1.29282h-0.00708c-0.90027,0 -1.72681,-0.48978 -2.1571,-1.27844l-5.97791,-10.89346c-0.56006,-1.02454 -0.55273,-2.23993 0.01978,-3.25543l19.92871,-35.30568c0.59241,-1.04973 1.70874,-1.70334 2.91333,-1.70334h11.2572c0.88049,0 1.67273,0.45374 2.12109,1.21358c0.44836,0.75806 0.45911,1.67273 0.03235,2.44339zM99.64923,42.83899c-0.91113,-1.32343 -2.56042,-2.11386 -4.40967,-2.11386h-17.36646c-0.75989,0 -1.4657,0.41052 -1.8385,1.07315l-23.3678,41.39702c-0.16919,0.30069 -0.17102,0.6644 -0.00537,0.96869l9.4386,17.2081c0.86255,1.5791 2.51904,2.56042 4.32141,2.56219c1.80054,0 3.45886,-0.98489 4.32678,-2.573l11.72534,-21.70773c0.82471,-1.52869 0.82104,-3.35086 -0.01257,-4.87595l-0.27917,-0.51135c-0.53833,-0.98132 -0.51855,-2.1427 0.05408,-3.10779c0.57251,-0.96332 1.58276,-1.53952 2.70264,-1.53952c1.85461,0 3.56519,-1.00833 4.46362,-2.63065l10.52246,-18.97266c0.91296,-1.6655 0.8103,-3.60115 -0.27539,-5.17665z" fill="#092d23" fill-opacity="1"></path></g></g><g><title>Grupo 9254</title><g><title>Grupo 9253</title><g><title>Caminho 9713</title><path d="M19.23193,112.36102c-0.70752,-0.75985 -1.02808,-1.40988 -1.0083,-1.98605c-0.00354,-0.57257 0.30432,-1.16855 0.99219,-1.81317c0.42676,-0.39612 0.88416,-0.64462 1.3324,-0.70941c0.45202,-0.08826 0.81567,-0.0036 1.14343,0.18002c0.35827,0.19268 0.70227,0.56179 1.15417,1.04974l0.42126,0.45016l-3.55969,3.31665c-0.1333,-0.11884 -0.28808,-0.28452 -0.47546,-0.48795zM20.94788,106.32908c-0.57971,-0.21606 -1.14868,-0.30429 -1.73926,-0.17465c-0.57801,0.14044 -1.10376,0.43215 -1.58997,0.88589c-0.55993,0.51856 -0.8894,1.11457 -0.95959,1.80057c-0.07019,0.66443 0.03234,1.34323 0.35461,1.97522c0.31336,0.61941 0.85901,1.39544 1.68909,2.28494l1.74646,1.87439l2.39478,-2.2345l4.1521,-3.87122l2.28845,-2.1319l-1.4043,-1.50888c0,0 -1.44592,1.35043 -1.45483,1.62411l0.00891,-0.27368c-0.27368,0.27725 -0.47363,0.44293 -0.84265,0.78323l-1.73035,1.61511l-0.72021,-0.77066c-0.8949,-0.95969 -1.60437,-1.65109 -2.19324,-1.87799z" fill="#092d23" fill-opacity="1"></path></g><g><title>Caminho 9714</title><path d="M8.32062,97.36041v0l0.62488,1.19199v0l2.04004,-1.06775v0l0.30237,-0.15845v0l1.67822,-0.87866v0l-0.4502,-0.86249v0l-1.10376,-2.10849v0l0.70215,-0.36911v0l1.08411,2.06708v0l0.47351,0.9039v0l1.09106,-0.5708v0l0.22876,-0.11884v0l0.38892,-0.20346v0l0.71667,-0.37631v0l2.12634,-1.11096v0l-0.60852,-1.16498v0l-1.75195,-3.34546v0l0.70398,-0.36734v0l3.33118,6.36145v0l-2.83057,1.48007v0l-0.71838,0.37631v0l-0.61768,0.3241v0l-3.79199,1.98242v0l-2.74402,1.43506v0l-3.34375,-6.392v0l0.71851,-0.37454v0z" fill="#092d23" fill-opacity="1"></path></g><g><title>Caminho 9715</title><path d="M2.90803,77.50188c0.35828,-0.52939 0.86792,-0.97412 1.55579,-1.35043c0.68786,-0.37814 1.49084,-0.6626 2.44702,-0.84268c1.20996,-0.23047 2.21826,-0.20706 3.06274,0.06122c0.83715,0.25207 1.42968,0.66803 1.79333,1.20819c0.36914,0.54196 0.64636,1.31082 0.83191,2.28314l0.297,1.56107l-10.23804,1.94464c-0.08276,-0.34931 -0.16919,-0.72925 -0.23767,-1.09296c-0.16382,-0.85886 -0.21973,-1.5773 -0.16211,-2.14627c0.05944,-0.5564 0.27014,-1.10737 0.65002,-1.62592zM8.77436,73.05807c-0.76343,-0.12066 -1.56824,-0.09903 -2.41272,0.06119c-1.17774,0.2233 -2.18238,0.66266 -2.99976,1.31085c-0.83375,0.65359 -1.40992,1.52145 -1.75208,2.5946c-0.35108,1.08936 -0.35108,2.49021 -0.03052,4.17734c0,0 0.10437,0.54199 0.62109,3.34546l11.87488,-2.2543l-0.62842,-3.31305c-0.17822,-0.93992 -0.3529,-1.68177 -0.51855,-2.19489c-0.16565,-0.52759 -0.43042,-1.05515 -0.78149,-1.60074c-0.35107,-0.55639 -0.81921,-1.0119 -1.38464,-1.38284c-0.56347,-0.37091 -1.21899,-0.61038 -1.98779,-0.74362z" fill="#092d23" fill-opacity="1"></path></g><g><title>Caminho 9716</title><path d="M1.2118,60.60166c0.16931,-1.35043 0.43762,-2.14987 0.88049,-2.41995c0.479,-0.31692 1.06787,-0.43576 1.8385,-0.33673c0.43396,0.05405 0.77954,0.16385 1.05505,0.29712c0.27734,0.14942 0.46643,0.32047 0.61938,0.52036c0.16931,0.23407 0.33142,0.49875 0.37646,0.78143c0.02881,0.16745 0.06836,0.35291 0.09363,0.5528c0.02332,0.19626 0.04676,0.39792 0.02332,0.59058l-0.14587,1.14157l-4.82373,-0.61398l0.08276,-0.51318zM7.12488,58.41401c-0.14575,0.1296 -0.24658,0.26107 -0.34387,0.38171c-0.0863,-0.84626 -0.39062,-1.53769 -0.78149,-2.05988c-0.48792,-0.668 -1.14148,-1.04434 -1.94446,-1.14517c-0.69324,-0.0882 -1.31628,0.05944 -1.87085,0.44656c-0.5564,0.38532 -0.92188,0.94532 -1.22083,1.62592c-0.29883,0.68064 -0.479,1.5737 -0.61572,2.66486l-0.34753,2.71704l3.10242,0.39615l5.5979,0.71124l3.2771,0.41772l0.26111,-2.04184l-3.28076,-0.41776l-2.23438,-0.28448l0.05212,-0.28809c0.38537,-3.0214 5.41613,-4.0315 6.10937,-4.10712l0.22876,-1.76639c-3.06104,0.80126 -4.34668,1.52151 -4.34668,1.52151c-0.7904,0.45374 -1.30176,0.86246 -1.64221,1.228z" fill="#092d23" fill-opacity="1"></path></g><g><title>Caminho 9717</title><path d="M9.26953,37.51292c1.0658,-0.2539 2.30115,0.12601 3.8855,0.86606c1.63318,0.75985 2.71534,1.46206 3.20142,2.45779c0.48267,0.9939 0.54382,1.86359 0.03418,2.95114c-0.58326,1.246 -1.22974,1.64212 -2.30286,1.9086c-1.06592,0.2539 -2.40735,0.02161 -4.02246,-0.73105c-1.60071,-0.74722 -2.61084,-1.60971 -3.10059,-2.591c-0.49694,-1.0029 -0.62658,-1.72314 -0.08459,-2.88452c0.55444,-1.18838 1.29455,-1.73755 2.3894,-1.97702zM17.09289,44.23805c0.80127,-1.71594 0.77613,-2.99975 0.25574,-4.53024c-0.52038,-1.52869 -1.61157,-2.68283 -3.22485,-3.43729c-1.67627,-0.78146 -3.2716,-0.84628 -4.76965,-0.20346c-1.48377,0.64819 -2.44873,1.44946 -3.20862,3.08078c-0.76172,1.62952 -0.74902,2.87012 -0.27185,4.41501c0.49145,1.55386 1.54309,2.70623 3.15991,3.46069c1.65662,0.77246 3.25721,0.87509 4.77686,0.26108c1.50891,-0.58337 2.49927,-1.37024 3.28247,-3.04657z" fill="#092d23" fill-opacity="1"></path></g><g><title>Caminho 9718</title><path d="M31.45978,18.59068c0.61572,0.03961 1.19019,0.39972 1.74109,1.13977c0.54565,0.72743 0.74194,1.36662 0.67175,1.94822c-0.07019,0.55456 -0.48083,1.00473 -1.20996,1.55029l-1.00842,0.75623l-3.02856,-4.04588c0.13147,-0.09724 0.29882,-0.22328 0.41418,-0.31149c1.02453,-0.76526 1.82214,-1.08037 2.41992,-1.03714zM27.40851,14.55739c0.3584,-0.06482 0.67517,-0.01801 0.97778,0.11885c0.28259,0.13324 0.62293,0.42493 0.97217,0.89128c0.50598,0.6752 0.66809,1.24238 0.55823,1.74655c-0.11511,0.49156 -0.59961,1.11636 -1.5863,1.85458c-0.03772,0.03062 -0.11524,0.08644 -0.18909,0.12065l-2.68103,-3.57594c0.14587,-0.10623 0.30249,-0.24669 0.43396,-0.34392c0.68603,-0.51316 1.17212,-0.75624 1.51428,-0.81206zM34.90436,22.38088c0.47351,-0.55457 0.73999,-1.20096 0.77234,-1.91221c0.03601,-0.73462 -0.18909,-1.41524 -0.65723,-2.03824c-0.53113,-0.71304 -1.25134,-1.10554 -2.15344,-1.17758c-0.63012,-0.05762 -1.32336,0.09724 -2.05615,0.44473c0.36182,-0.49334 0.60498,-0.9777 0.70569,-1.43684c0.18725,-0.74904 0.02343,-1.45486 -0.46082,-2.10487c-1.21362,-1.62052 -3.1853,-1.27662 -5.71338,0.61578l-2.03467,1.52148l7.2312,9.6619l2.30835,-1.72855c0.90748,-0.67883 1.60791,-1.28561 2.05811,-1.84561z" fill="#092d23" fill-opacity="1"></path></g><g><title>Caminho 9719</title><path d="M42.25047,6.02448c1.28382,-0.46095 2.11585,-0.59059 2.56055,-0.31691c0.49878,0.28448 0.875,0.75084 1.13794,1.48547c0.1477,0.41054 0.20886,0.76705 0.21423,1.07494c-0.00537,0.31331 -0.0719,0.56 -0.17822,0.79047c-0.13147,0.25387 -0.29529,0.52037 -0.52576,0.69142c-0.13684,0.09903 -0.28271,0.22148 -0.44836,0.3331c-0.16931,0.11163 -0.33484,0.22328 -0.51672,0.2881l-1.08398,0.39252l-1.65295,-4.57706l0.49329,-0.16205zM46.89968,10.29724c-0.18189,-0.07202 -0.34754,-0.09723 -0.49695,-0.12965c0.7113,-0.46454 1.18835,-1.05153 1.47827,-1.63852c0.37085,-0.73824 0.40869,-1.49268 0.1333,-2.25612c-0.23596,-0.65541 -0.65368,-1.14336 -1.25146,-1.46207c-0.59961,-0.31871 -1.26404,-0.38892 -2.00586,-0.34392c-0.74182,0.04323 -1.61865,0.2917 -2.65405,0.66443l-2.57837,0.93269l1.06238,2.94214l1.91577,5.30989l1.12524,3.1114l1.93567,-0.69862l-1.12354,-3.1132l-0.76526,-2.11926l0.28088,-0.08464c2.86645,-1.03533 6.06079,2.98537 6.44421,3.57054l1.68005,-0.605c-2.11219,-2.36055 -3.33826,-3.17621 -3.33826,-3.17621c-0.76709,-0.49876 -1.36487,-0.76704 -1.84204,-0.90388z" fill="#092d23" fill-opacity="1"></path></g><g><title>Caminho 9720</title><path d="M65.13055,7.55854l-3.41748,0.12964l1.52869,-4.24214zM69.6446,12.46689l-5.56738,-11.87297l-0.59961,0.02159l-4.53931,12.24931l1.0354,-0.03781l1.49268,-4.35379l4.00085,-0.14764l0.91833,1.99323c0,0 0.28088,0.60501 1.00647,2.23093z" fill="#092d23" fill-opacity="1"></path></g><g><title>Caminho 9721</title><path d="M85.26453,15.8448v0l-4.67261,-12.13408v0l-2.03455,7.01685v0l-0.76892,2.64323v0l-0.76331,-0.22145v0l0.7688,-2.64325v0l1.68359,-5.80145v0l0.82996,-2.86111v0l1.99146,0.57619v0l3.71277,9.86534v0l1.73035,-5.9581v0l0.62305,-2.14449v0l0.85535,0.24849v0l-0.66089,2.26872v0l-2.70264,9.31616v0z" fill="#092d23" fill-opacity="1"></path></g><g><title>Caminho 9722</title><path d="M94.81122,18.69151c-0.29895,-1.49448 0.03052,-2.96735 0.98303,-4.41681c0.63391,-0.95972 1.42261,-1.72314 2.39673,-2.28493c0.96497,-0.58699 1.9679,-0.84087 2.98889,-0.77066c0.99927,0.07384 1.94458,0.40515 2.82507,0.98312c0.71655,0.47176 1.28198,1.05695 1.68359,1.74837c0.38342,0.659 0.61572,1.27841 0.68408,1.88159l-0.0863,0.21968v0l-0.78687,0.14043c-0.01086,-0.54916 -0.04858,-0.84627 -0.14771,-1.10915c-0.29883,-0.87508 -0.83728,-1.5575 -1.59705,-2.05624c-0.9364,-0.61401 -1.90686,-0.72743 -2.96204,-0.33672c-1.04065,0.40332 -2.05444,1.32881 -3.01599,2.79089c-0.91821,1.39725 -1.28186,2.63063 -1.15771,3.73798c0.13147,1.09836 0.64636,1.94102 1.53955,2.52982c0.47534,0.31151 1.03345,0.52217 1.71045,0.6158c0.50781,0.08282 1.0282,-0.0018 1.79517,-0.31329l0.17285,0.89128c-1.67444,0.45193 -3.1095,0.24307 -4.45093,-0.63921c-1.39722,-0.91829 -2.25439,-2.11928 -2.57483,-3.61195z" fill="#092d23" fill-opacity="1"></path></g><g><title>Caminho 9723</title><path d="M118.35547,29.00339c-0.24854,1.06774 -1.14148,2.00402 -2.51001,3.09518c-1.40979,1.11817 -2.52624,1.77536 -3.62988,1.76456c-1.10742,-0.0108 -1.91223,-0.3457 -2.65771,-1.28561c-0.85889,-1.07852 -0.92188,-1.83658 -0.6825,-2.91693c0.24853,-1.06952 1.05517,-2.16248 2.45239,-3.27344c1.38294,-1.10195 2.6073,-1.61872 3.70569,-1.62052c1.11816,0.0018 1.82031,0.21068 2.61975,1.2118c0.81567,1.02993 0.97778,1.93741 0.70227,3.02496zM108.83949,33.00429c1.17762,1.48547 2.3407,2.03464 3.94324,2.2525c1.60242,0.21787 3.12036,-0.24307 4.51758,-1.35403c1.44775,-1.15055 2.21838,-2.54962 2.31201,-4.17914c0.08093,-1.61692 -0.20533,-2.83951 -1.32349,-4.24754c-1.12171,-1.40986 -2.23633,-1.95184 -3.83521,-2.21652c-1.60791,-0.25388 -3.11316,0.17286 -4.51038,1.28381c-1.43335,1.13978 -2.23816,2.52619 -2.36609,4.16114c-0.14929,1.60971 0.1117,2.85211 1.26233,4.29977z" fill="#092d23" fill-opacity="1"></path></g><g><title>Caminho 9724</title><path d="M126.81629,62.8452c0.09558,0.02878 0.20898,0.05942 0.33496,0.09003c0.12609,0.02881 0.26293,0.05762 0.41418,0.08823c-0.28808,0.09543 -0.52405,0.18725 -0.71301,0.27908l-3.06458,1.41525l-0.18555,-2.88452zM128.58631,63.49339l-0.06848,-1.06232l-7.92603,-2.58923l0.05396,0.80847c0.0072,0.09 0.0343,0.16205 0.09192,0.22144c0.05407,0.05765 0.11157,0.09903 0.17822,0.11887l1.91394,0.60315l0.22144,3.46252l-1.81848,0.84445c-0.07019,0.03424 -0.12427,0.08105 -0.16919,0.14047c-0.04151,0.05942 -0.06141,0.13684 -0.05579,0.23047l0.05212,0.80847z" fill="#092d23" fill-opacity="1"></path></g><g><title>Caminho 9725</title><path d="M123.60597,79.01434c-0.46814,-0.07922 -0.87513,-0.21246 -1.22266,-0.39975c-0.34924,-0.19086 -0.63013,-0.42313 -0.84436,-0.70041c-0.21606,-0.27728 -0.36377,-0.59417 -0.44299,-0.94891c-0.07922,-0.35827 -0.08642,-0.73825 -0.01794,-1.14877l0.30237,-1.81677l5.95996,0.99213l-0.30066,1.81857c-0.06849,0.40515 -0.19629,0.76703 -0.38538,1.07675c-0.19263,0.3115 -0.43567,0.56357 -0.72925,0.75626c-0.29346,0.19266 -0.63745,0.3223 -1.02808,0.38892c-0.39075,0.06481 -0.81934,0.05941 -1.29102,-0.01801zM123.43139,80.07307c0.57251,0.09723 1.1073,0.09186 1.60596,-0.01257c0.50061,-0.10266 0.94543,-0.29172 1.33435,-0.5654c0.39062,-0.27369 0.71655,-0.62842 0.97583,-1.05875c0.26099,-0.43032 0.4375,-0.92727 0.52759,-1.48907l0.47534,-2.85568l-7.63452,-1.26941l-0.47351,2.85568c-0.09362,0.56 -0.08996,1.08575 0.01807,1.57913c0.1062,0.49154 0.30066,0.93087 0.578,1.31799c0.27722,0.38535 0.63733,0.70764 1.07666,0.96692c0.43946,0.26108 0.94532,0.43573 1.51624,0.53116z" fill="#092d23" fill-opacity="1"></path></g><g><title>Caminho 9726</title><path d="M125.40472,87.216v0l-0.31677,0.77603c-0.03784,0.08643 -0.08826,0.14764 -0.15125,0.18185c-0.06677,0.03601 -0.13867,0.05402 -0.21619,0.05222l-5.88245,-0.05582c-0.13147,0 -0.27551,-0.009 -0.4231,-0.02341c-0.14771,-0.0162 -0.30249,-0.03781 -0.45911,-0.06122c0.12952,0.09003 0.25562,0.17825 0.37451,0.27008c0.11877,0.09003 0.2251,0.18185 0.31677,0.27368l4.22424,4.09271c0.04504,0.04501 0.08093,0.10623 0.10803,0.18365c0.02515,0.07742 0.01978,0.15665 -0.0127,0.2395l-0.32043,0.78143v0l-5.95996,-5.86627v0l0.36194,-0.87329v0z" fill="#092d23" fill-opacity="1"></path></g><g><title>Caminho 9727</title><path d="M112.42261,102.97999c-0.38892,-0.27548 -0.69861,-0.5744 -0.93091,-0.89847c-0.2323,-0.32413 -0.38355,-0.65723 -0.46094,-1.00293c-0.07386,-0.3439 -0.07019,-0.69503 0.01257,-1.05154c0.08276,-0.3565 0.24304,-0.70401 0.48608,-1.04614c0.2395,-0.3367 0.51502,-0.60318 0.823,-0.79944c0.3097,-0.19806 0.64087,-0.3169 0.99207,-0.35834c0.35108,-0.04681 0.71655,-0.01077 1.09839,0.10083c0.38342,0.11346 0.7688,0.30432 1.15588,0.5816c0.38721,0.27368 0.69861,0.5762 0.93274,0.90027c0.2323,0.32233 0.38526,0.65906 0.45911,1.00473c0.07386,0.34931 0.07032,0.70044 -0.00903,1.05515c-0.08093,0.35831 -0.24304,0.70761 -0.48254,1.04431c-0.24304,0.34213 -0.51843,0.60681 -0.83008,0.80127c-0.3097,0.19626 -0.63916,0.31513 -0.99207,0.35654c-0.34925,0.04138 -0.71485,0.009 -1.1001,-0.10626c-0.38354,-0.11163 -0.76709,-0.30609 -1.15417,-0.58157zM111.79956,103.85685c0.47168,0.33493 0.95972,0.569 1.46021,0.70044c0.50244,0.12964 0.99219,0.16205 1.47473,0.09183c0.47718,-0.07022 0.93445,-0.24127 1.36304,-0.51315c0.43213,-0.26828 0.81018,-0.63739 1.13977,-1.10196c0.3313,-0.46274 0.55274,-0.94171 0.66443,-1.43506c0.1134,-0.49514 0.12244,-0.98309 0.02881,-1.45663c-0.0918,-0.47718 -0.28101,-0.93094 -0.56897,-1.35947c-0.28991,-0.43032 -0.67346,-0.81384 -1.14343,-1.15057c-0.47168,-0.3331 -0.9596,-0.56717 -1.46021,-0.69861c-0.50232,-0.13144 -0.99219,-0.16025 -1.47107,-0.08823c-0.47901,0.07022 -0.93274,0.23767 -1.3595,0.50955c-0.42847,0.27008 -0.80664,0.63562 -1.13611,1.10016c-0.3313,0.46634 -0.55273,0.94348 -0.66809,1.43866c-0.1134,0.49515 -0.12598,0.9795 -0.03589,1.45667c0.0918,0.47355 0.28259,0.92551 0.57068,1.35764c0.28821,0.43036 0.66809,0.81204 1.1416,1.14874z" fill="#092d23" fill-opacity="1"></path></g><g><title>Caminho 9728</title><path d="M102.35565,108.9489c-0.15845,0.13864 -0.29895,0.27188 -0.41602,0.39972c-0.11877,0.13144 -0.22327,0.26288 -0.31689,0.39255c-0.08997,0.12964 -0.16736,0.26288 -0.23584,0.39432c-0.06665,0.13324 -0.1261,0.27008 -0.18188,0.41415l1.11816,1.28738v0l0.90576,-0.78683c0.05212,-0.04321 0.1062,-0.06485 0.16382,-0.06302c0.05579,0.00177 0.10437,0.02701 0.14404,0.06839l0.39075,0.45016v0l-1.79517,1.5575v0l-1.9519,-2.23993c0.05591,-0.23587 0.12781,-0.46094 0.21973,-0.6752c0.08826,-0.21967 0.20349,-0.43213 0.33679,-0.64279c0.13318,-0.20886 0.29333,-0.41776 0.47888,-0.62302c0.18176,-0.20346 0.39612,-0.41232 0.63745,-0.62122c0.4248,-0.37091 0.87866,-0.63376 1.35583,-0.79764c0.47888,-0.16205 0.96143,-0.22327 1.4458,-0.18185c0.48083,0.03961 0.95435,0.18005 1.41699,0.42316c0.46106,0.24304 0.88416,0.58517 1.26587,1.02631c0.38892,0.44476 0.67163,0.9111 0.85168,1.40085c0.17822,0.48798 0.25208,0.97769 0.22144,1.46567c-0.03247,0.48615 -0.16931,0.96329 -0.41235,1.42606c-0.24487,0.46634 -0.59412,0.8949 -1.0498,1.29282c-0.23035,0.19986 -0.46082,0.37091 -0.68958,0.50955c-0.22681,0.13684 -0.4519,0.25027 -0.677,0.33313c-0.22681,0.08282 -0.45007,0.14221 -0.67517,0.17642c-0.22327,0.03424 -0.44653,0.04865 -0.67163,0.04321l-0.08643,-0.55276c-0.01807,-0.11343 0.00903,-0.20346 0.08289,-0.26648c0.04309,-0.03961 0.10437,-0.06482 0.18359,-0.07742c0.099,-0.02341 0.21436,-0.04321 0.34753,-0.06302c0.13135,-0.01801 0.27905,-0.05582 0.4447,-0.10983c0.16394,-0.05222 0.34387,-0.13684 0.53845,-0.2431c0.19629,-0.10803 0.40686,-0.25928 0.63196,-0.45734c0.32776,-0.28448 0.57971,-0.59778 0.75256,-0.93448c0.17297,-0.34213 0.2666,-0.68964 0.28101,-1.05334c0.01428,-0.36191 -0.05225,-0.73102 -0.19812,-1.10376c-0.14771,-0.36911 -0.37451,-0.73105 -0.6825,-1.08572c-0.32043,-0.36914 -0.65894,-0.65363 -1.01538,-0.85168c-0.35657,-0.19806 -0.71667,-0.31689 -1.08215,-0.3511c-0.3656,-0.03601 -0.72571,0.0072 -1.07861,0.12604c-0.35291,0.12424 -0.68787,0.3205 -0.99927,0.59418z" fill="#092d23" fill-opacity="1"></path></g><g><title>Caminho 9729</title><path d="M94.97869,120.30872c0.01075,0.10083 0.02881,0.21426 0.05396,0.3403c0.02515,0.12783 0.05225,0.26467 0.08826,0.41595c-0.20349,-0.2251 -0.38525,-0.40155 -0.54553,-0.53659l-2.54968,-2.21292l2.55688,-1.35403zM95.11017,122.18673l0.93982,-0.49518l-0.88416,-8.28979l-0.71655,0.37808c-0.07922,0.03961 -0.1333,0.10083 -0.16565,0.17465c-0.02881,0.07205 -0.03955,0.14407 -0.03052,0.21249l0.23035,1.98962l-3.06812,1.62411l-1.51245,-1.31259c-0.06128,-0.05042 -0.12781,-0.08466 -0.19812,-0.09723c-0.07385,-0.01444 -0.15124,0 -0.23596,0.04498l-0.71301,0.37991z" fill="#092d23" fill-opacity="1"></path></g><g><title>Caminho 9730</title><path d="M78.9428,124.0017c-0.12243,-0.46094 -0.16748,-0.88589 -0.1405,-1.28198c0.03247,-0.39612 0.12964,-0.74726 0.29346,-1.05875c0.16211,-0.30789 0.39075,-0.57257 0.6825,-0.79407c0.29529,-0.21786 0.63916,-0.37811 1.04077,-0.48434l1.77881,-0.47177l1.54504,5.8447l-1.78088,0.47174c-0.40149,0.10624 -0.78137,0.13504 -1.14331,0.08823c-0.36194,-0.04682 -0.69141,-0.16205 -0.98853,-0.35114c-0.29529,-0.19262 -0.55456,-0.45013 -0.77429,-0.77963c-0.2196,-0.32949 -0.39258,-0.72204 -0.51306,-1.18298zM77.90204,124.27541c0.14758,0.56177 0.37268,1.04795 0.67163,1.46024c0.30066,0.41235 0.65357,0.74185 1.06409,0.98312c0.41053,0.24491 0.86609,0.39615 1.36658,0.45557c0.4989,0.05939 1.0227,0.01617 1.57556,-0.12784l2.7981,-0.74005l-1.97705,-7.48318l-2.80164,0.74005c-0.54737,0.14404 -1.02637,0.36551 -1.42969,0.6644c-0.40503,0.29889 -0.72925,0.65543 -0.96509,1.06955c-0.23767,0.41052 -0.38171,0.87146 -0.43945,1.37741c-0.05567,0.50778 -0.01075,1.04254 0.13696,1.60074z" fill="#092d23" fill-opacity="1"></path></g><g><title>Caminho 9731</title><path d="M64.77751,125.34855c-0.00903,-0.47534 0.04858,-0.90027 0.16931,-1.28018c0.12232,-0.37814 0.30066,-0.70044 0.53284,-0.96692c0.2323,-0.26648 0.51685,-0.47174 0.85352,-0.61578c0.33496,-0.14408 0.70948,-0.2215 1.12891,-0.22867c0.41419,-0.01081 0.79053,0.05218 1.1344,0.18362c0.3385,0.13324 0.63208,0.32589 0.87683,0.5834c0.24682,0.25567 0.43579,0.57077 0.57263,0.94528c0.13501,0.37271 0.20887,0.79767 0.2179,1.27301c0.01074,0.47537 -0.04504,0.9039 -0.16748,1.28384c-0.12244,0.37991 -0.30066,0.70401 -0.53479,0.96869c-0.234,0.26648 -0.52026,0.47355 -0.85522,0.62119c-0.33667,0.14407 -0.71119,0.22327 -1.12537,0.23227c-0.41773,0.0072 -0.79773,-0.05582 -1.13965,-0.19086c-0.33862,-0.13321 -0.63208,-0.32589 -0.87341,-0.58337c-0.24304,-0.2557 -0.43384,-0.5726 -0.57263,-0.94891c-0.13672,-0.37451 -0.20874,-0.80304 -0.21777,-1.27661zM63.7044,125.37019c0.01257,0.57977 0.11157,1.11093 0.30603,1.5899c0.19092,0.48074 0.45911,0.89487 0.80127,1.24057c0.34217,0.34214 0.75086,0.60862 1.22437,0.79227c0.47181,0.18546 0.99219,0.27368 1.56287,0.26288c0.5691,-0.01081 1.08582,-0.12064 1.55042,-0.3241c0.46448,-0.20346 0.86072,-0.48257 1.18823,-0.84088c0.32776,-0.35831 0.57984,-0.77966 0.75269,-1.26938c0.17297,-0.48618 0.25756,-1.01914 0.24316,-1.60074c-0.01074,-0.57977 -0.11169,-1.10913 -0.30603,-1.5899c-0.19092,-0.48074 -0.46106,-0.8913 -0.80127,-1.237c-0.34217,-0.3403 -0.74915,-0.60498 -1.22095,-0.78683c-0.47168,-0.18366 -0.99207,-0.27191 -1.56104,-0.25748c-0.5708,0.0108 -1.08764,0.117 -1.55029,0.31866c-0.46643,0.20169 -0.86438,0.47897 -1.19385,0.83548c-0.3258,0.35474 -0.57971,0.77606 -0.75256,1.26581c-0.17468,0.48795 -0.25574,1.02094 -0.24304,1.60074z" fill="#092d23" fill-opacity="1"></path></g><g><title>Caminho 9732</title><path d="M52.27448,126.35328c0.04138,-0.04501 0.08459,-0.08102 0.12427,-0.09723c0.04321,-0.01981 0.08826,-0.02521 0.14392,-0.0144c0.06128,0.0126 0.12427,0.05582 0.19275,0.13324c0.06665,0.07385 0.15491,0.16205 0.26099,0.26108c0.10803,0.09546 0.2395,0.19269 0.39978,0.28632c0.15845,0.09543 0.36011,0.16742 0.60315,0.21606c0.23242,0.04498 0.43945,0.05579 0.62671,0.03061c0.1908,-0.02524 0.35461,-0.07925 0.49512,-0.16205c0.13867,-0.08102 0.25378,-0.18909 0.34204,-0.31873c0.08826,-0.12964 0.15137,-0.27728 0.18555,-0.44473c0.04321,-0.21246 0.02515,-0.39975 -0.05042,-0.55997c-0.07568,-0.16028 -0.18909,-0.30792 -0.34033,-0.43936c-0.15125,-0.13324 -0.32593,-0.25748 -0.53125,-0.37451c-0.20337,-0.11703 -0.40869,-0.23767 -0.62109,-0.36191c-0.21252,-0.12247 -0.41772,-0.25748 -0.61401,-0.39795c-0.19995,-0.14044 -0.36548,-0.30249 -0.50769,-0.48434c-0.14233,-0.18365 -0.24316,-0.39432 -0.30261,-0.63019c-0.06116,-0.2359 -0.05945,-0.50955 0.00537,-0.82468c0.06848,-0.3313 0.18726,-0.63022 0.3584,-0.90027c0.17102,-0.26831 0.38892,-0.48618 0.64819,-0.65903c0.26294,-0.17105 0.5636,-0.28629 0.90393,-0.3457c0.34021,-0.06122 0.71118,-0.04865 1.1145,0.03241c0.49158,0.09903 0.92004,0.27728 1.28748,0.53836c0.36548,0.25928 0.66443,0.5708 0.88953,0.93271l-0.39624,0.42853c-0.03601,0.03061 -0.07739,0.05762 -0.12415,0.07565c-0.04333,0.01797 -0.09363,0.02158 -0.14233,0.01257c-0.07385,-0.0144 -0.14954,-0.07022 -0.23047,-0.17105c-0.07922,-0.09903 -0.17822,-0.20886 -0.30432,-0.3331c-0.12415,-0.12604 -0.27722,-0.2449 -0.46448,-0.36914c-0.18738,-0.1188 -0.42676,-0.20886 -0.72034,-0.27005c-0.24292,-0.05042 -0.46631,-0.05762 -0.66968,-0.03061c-0.20532,0.03061 -0.38721,0.09003 -0.54211,0.18546c-0.15845,0.09363 -0.28979,0.21964 -0.39429,0.37631c-0.10437,0.15485 -0.17822,0.3349 -0.22144,0.54376c-0.04504,0.22867 -0.03064,0.42856 0.04321,0.59598c0.07385,0.16748 0.18542,0.31873 0.33484,0.45197c0.14954,0.13324 0.32593,0.25388 0.52942,0.36911c0.20349,0.11163 0.41235,0.22687 0.62305,0.34573c0.21423,0.11703 0.41956,0.24847 0.61755,0.38712c0.19812,0.13864 0.3656,0.30249 0.50415,0.48795c0.14038,0.18726 0.23767,0.40515 0.29529,0.65179c0.05774,0.2485 0.05225,0.54019 -0.0144,0.87509c-0.05579,0.27008 -0.15845,0.51678 -0.31335,0.74722c-0.15662,0.2305 -0.35291,0.41956 -0.59058,0.5744c-0.23584,0.15485 -0.51135,0.26108 -0.82642,0.3187c-0.31506,0.05762 -0.66089,0.04681 -1.03882,-0.02881c-0.42334,-0.08463 -0.7959,-0.23047 -1.11829,-0.43753c-0.32227,-0.20346 -0.58875,-0.46094 -0.7959,-0.76526z" fill="#092d23" fill-opacity="1"></path></g></g><g><title>Elipse 8</title><path d="M121.04855,47.0506c0,-0.69128 0.5604,-1.25168 1.25168,-1.25168c0.69128,0 1.25168,0.5604 1.25168,1.25168c0,0.69128 -0.5604,1.25168 -1.25168,1.25168c-0.69128,0 -1.25168,-0.5604 -1.25168,-1.25168z" fill="#092d23" fill-opacity="1"></path></g><g><title>Elipse 9</title><path d="M37.1006,119.0127c0,-0.69128 0.5604,-1.25168 1.25168,-1.25168c0.69128,0 1.25168,0.5604 1.25168,1.25168c0,0.69128 -0.5604,1.25168 -1.25168,1.25168c-0.69128,0 -1.25168,-0.5604 -1.25168,-1.25168z" fill="#092d23" fill-opacity="1"></path></g></g></g></g></svg>