<svg xmlns="http://www.w3.org/2000/svg" width="63" height="58" viewBox="0 0 63 58"><g><g><g><path fill="#c00415" d="M30.888 11.78c.202 0 .202 0 0 0a5.86 5.86 0 0 1 5.857 5.856c0 3.231-2.625 5.655-5.857 5.655-3.23 0-5.654-2.626-5.654-5.655 0-3.231 2.625-5.856 5.654-5.856zm.202 15.55c5.453 0 9.694-4.443 9.694-9.896 0-5.452-4.443-9.693-9.896-9.693-5.452 0-9.693 4.443-9.693 9.693 0 5.453 4.443 9.896 9.895 9.896z"/><path fill="none" stroke="#c00415" stroke-miterlimit="20" stroke-width="1.33" d="M30.888 11.78c.202 0 .202 0 0 0a5.86 5.86 0 0 1 5.857 5.856c0 3.231-2.625 5.655-5.857 5.655-3.23 0-5.654-2.626-5.654-5.655 0-3.231 2.625-5.856 5.654-5.856zm.202 15.55c5.453 0 9.694-4.443 9.694-9.896 0-5.452-4.443-9.693-9.896-9.693-5.452 0-9.693 4.443-9.693 9.693 0 5.453 4.443 9.896 9.895 9.896z"/></g><g><path fill="#c00415" d="M60.979 26.118c-3.837-3.433-8.886-5.25-14.137-5.049h-1.615c-.404 1.616-1.01 3.03-1.818 4.241 1.212-.202 2.222-.202 3.433-.202 3.837-.202 7.674 1.01 10.704 3.232v14.54h4.039V26.724l-.606-.606z"/><path fill="none" stroke="#c00415" stroke-miterlimit="20" stroke-width="1.33" d="M60.979 26.118c-3.837-3.433-8.886-5.25-14.137-5.049h-1.615c-.404 1.616-1.01 3.03-1.818 4.241 1.212-.202 2.222-.202 3.433-.202 3.837-.202 7.674 1.01 10.704 3.232v14.54h4.039v0-16.156 0l-.606-.606v0z"/></g><g><path fill="#c00415" d="M42.198 8.145c1.01-2.424 3.837-3.635 6.462-2.626 2.423 1.01 3.635 3.837 2.625 6.463-.808 1.817-2.625 3.029-4.443 3.029-.404 0-1.01 0-1.413-.202.202 1.01.202 2.02.202 2.827v1.212c.404 0 .807.202 1.211.202 5.05 0 9.088-4.04 9.088-8.886 0-5.049-4.039-9.088-8.886-9.088-3.23 0-6.058 1.616-7.674 4.443 1.01.606 2.02 1.414 2.828 2.626z"/><path fill="none" stroke="#c00415" stroke-miterlimit="20" stroke-width="1.33" d="M42.198 8.145c1.01-2.424 3.837-3.635 6.462-2.626 2.423 1.01 3.635 3.837 2.625 6.463-.808 1.817-2.625 3.029-4.443 3.029-.404 0-1.01 0-1.413-.202.202 1.01.202 2.02.202 2.827v1.212c.404 0 .807.202 1.211.202 5.05 0 9.088-4.04 9.088-8.886 0-5.049-4.039-9.088-8.886-9.088-3.23 0-6.058 1.616-7.674 4.443 1.01.606 2.02 1.414 2.828 2.626z"/></g><g><path fill="#c00415" d="M19.175 25.512c-.807-1.211-1.413-2.625-1.817-4.24h-1.616a20.78 20.78 0 0 0-14.136 4.846L1 26.724V42.88h4.039V28.34c3.231-2.222 6.866-3.434 10.703-3.232 1.212 0 2.424.202 3.433.404z"/><path fill="none" stroke="#c00415" stroke-miterlimit="20" stroke-width="1.33" d="M19.175 25.512c-.807-1.211-1.413-2.625-1.817-4.24h-1.616a20.78 20.78 0 0 0-14.136 4.846L1 26.724V42.88h4.039v0-14.54c3.231-2.222 6.866-3.434 10.703-3.232 1.212 0 2.424.202 3.433.404z"/></g><g><path fill="#c00415" d="M15.742 18.848c.404 0 .808 0 1.212-.202v-1.212c0-1.01 0-2.02.202-2.827-.404.202-1.01.202-1.414.202-2.625 0-4.847-2.221-4.847-4.847 0-2.625 2.222-4.847 4.847-4.847a5.102 5.102 0 0 1 4.645 3.03c.808-1.01 2.02-2.02 3.03-2.828-2.626-4.24-8.079-5.654-12.32-3.029-4.24 2.625-5.654 8.078-3.029 12.319 1.616 2.625 4.443 4.24 7.674 4.24z"/><path fill="none" stroke="#c00415" stroke-miterlimit="20" stroke-width="1.33" d="M15.742 18.848c.404 0 .808 0 1.212-.202v-1.212c0-1.01 0-2.02.202-2.827-.404.202-1.01.202-1.414.202-2.625 0-4.847-2.221-4.847-4.847 0-2.625 2.222-4.847 4.847-4.847a5.102 5.102 0 0 1 4.645 3.03c.808-1.01 2.02-2.02 3.03-2.828-2.626-4.24-8.079-5.654-12.32-3.029-4.24 2.625-5.654 8.078-3.029 12.319 1.616 2.625 4.443 4.24 7.674 4.24z"/></g><g><path fill="#c00415" d="M43.611 52.977H19.175V39.65c3.232-3.232 7.674-4.847 12.32-4.847 4.442-.202 8.885 1.615 12.116 4.847zm4.04-14.742l-.405-.606c-4.039-4.443-9.693-7.068-15.752-6.866-6.058-.202-11.915 2.423-15.954 6.866l-.404.606v15.348c0 1.818 1.414 3.433 3.434 3.433h25.849c1.817 0 3.433-1.615 3.433-3.433V38.235z"/><path fill="none" stroke="#c00415" stroke-miterlimit="20" stroke-width="1.33" d="M43.611 52.977H19.175V39.65c3.232-3.232 7.674-4.847 12.32-4.847 4.442-.202 8.885 1.615 12.116 4.847zm4.04-14.742l-.405-.606c-4.039-4.443-9.693-7.068-15.752-6.866-6.058-.202-11.915 2.423-15.954 6.866l-.404.606v15.348c0 1.818 1.414 3.433 3.434 3.433h25.849c1.817 0 3.433-1.615 3.433-3.433V38.235z"/></g></g></g></svg>