<svg xmlns="http://www.w3.org/2000/svg" width="60" height="50" viewBox="0 0 60 50"><g><g><g><g><path fill="#c00415" d="M10.003 10.003v15.005h5.002V15.005h10.003v-5.002z"/></g><g><path fill="#c00415" d="M50.016 40.013H35.012v-5.001h10.003V25.008h5.001z"/></g><g><path fill="#c00415" d="M55.018 10.003v30.01a5.002 5.002 0 0 1-5.002 5.002H10.003a5.002 5.002 0 0 1-5.001-5.002v-30.01a5.002 5.002 0 0 1 5.001-5.001h40.013a5.002 5.002 0 0 1 5.002 5.001zM10.003 0C4.48 0 0 4.479 0 10.003v30.01c0 5.525 4.479 10.003 10.003 10.003h40.013c5.525 0 10.004-4.478 10.004-10.003v-30.01C60.02 4.48 55.54 0 50.016 0z"/></g></g></g></g></svg>