<svg xmlns="http://www.w3.org/2000/svg" width="468" height="552" viewBox="0 0 468 552"><g><g opacity=".7"><path fill="#f5f2f2" d="M390.444 85.932c-9.918-.982-20.03-.196-33.531-.196 13.01-8.248 24.056-8.886 35.249-7.953 11.88.932 22.73 3.927 30.143 14.875 3.044 4.517 5.646 9.72 1.914 12.715-4.86 3.928-6.578-2.995-8.983-5.94-6.48-7.904-14.974-12.519-24.792-13.5zm-48.063 43.399c-13.01-10.948-27.444-18.558-44.38-20.767 46.05-15.66 59.5 28.376 86.502 47.572-19.539-.638-29.357-16.005-42.122-26.805zm-2.602 106.68c-9.376 4.173-19.736 5.498-29.26 9.278-9.77 3.928-15.121 12.47-8.1 20.276 13.304 14.777 12.47 28.818 7.414 43.35-2.358 6.774-8.74 11.39-15.908 11.39l-47.276-21.651c-7.07-10.064-6.873-19 1.767-25.43 8.15-6.088 16.2-7.315 24.841-12.716 5.4-3.338 9.671-7.413 5.155-14.384-1.473-2.307-5.106-5.4-6.136-3.78-9.917 15.808-18.361 1.914-27.05-1.13h-26.757c-8.69 3.044-17.134 16.938-27.05 1.13-1.032-1.62-4.665 1.473-6.137 3.78-4.517 6.971-.245 11.046 5.155 14.384 8.64 5.4 16.741 6.628 24.842 12.716 8.64 6.43 8.836 15.366 1.766 25.43l-47.277 21.65c-7.168 0-13.549-4.615-15.906-11.39-5.057-14.531-5.89-28.572 7.413-43.35 7.02-7.805 1.67-16.347-8.1-20.275-9.524-3.78-19.884-5.105-29.26-9.278-6.726-3.044-14.138-7.462-11.045-15.465 9.572-24.743 11.34-52.824 33.235-72.413 13.648-12.273 29.162-20.422 45.608-27 12.715-5.057 15.612-12.029 8.101-23.32-1.964-2.258-3.682-4.664-5.155-6.628 1.521 1.768 3.437 3.83 5.302 5.94 14.237 16.005 26.068 33.09 25.381 55.967-.098 2.75-.148 6.284 1.032 8.788 1.178 1.767 2.945 2.945 5.498 3.043 2.503-.098 4.271-1.276 5.449-3.043 1.179-2.504 1.13-6.039 1.08-8.788-.736-22.878 11.096-39.962 25.332-55.967 1.915-2.11 3.78-4.172 5.303-5.94-1.474 1.964-3.192 4.37-5.156 6.628-7.51 11.291-4.615 18.263 8.101 23.32 16.446 6.578 31.96 14.727 45.607 27 21.897 19.589 23.663 47.67 33.237 72.413 3.142 8.003-4.32 12.42-11.046 15.465zm-44.234 139.278l-56.997 33.285a10.185 10.185 0 0 1-10.113.098l-60.041-33.089c-5.45-2.994-7.02-10.113-3.289-15.12l15.66-21.209c1.964-2.602 5.008-4.173 8.297-4.173h87.927c3.534 0 6.774 1.817 8.69 4.762l13.352 21.061c3.094 4.91 1.523 11.44-3.486 14.385zM79.191 156.136c27.002-19.196 40.453-63.233 86.503-47.572-16.938 2.21-31.371 9.819-44.38 20.767-12.765 10.8-22.583 26.167-42.123 26.805zm-5.94-70.204c-9.819.982-18.312 5.597-24.793 13.5-2.406 2.946-4.124 9.869-8.983 5.941-3.732-2.995-1.13-8.198 1.914-12.715 7.413-10.948 18.263-13.943 30.144-14.875 11.242-.933 22.239-.295 35.249 7.953-13.501 0-23.615-.786-33.532.196zm344.93 78.942c-.884-.736-.343-2.16.785-2.16 9.182 0 15.858 6.137 23.81 8.69-.147-1.571-14.236-26.265-4.123-42.957 20.129-33.383 0-72.216-43.89-71.087-16.102.442-30.634 6.087-45.607 10.898-.638.197-1.325-.147-1.572-.785-2.11-6.284-1.03-11.979.835-17.428 2.21-6.48-2.356-13.304-9.18-13.894-20.914-1.816-28.131-4.565-53.66-20.226-7.019-4.37-16.15.736-16.15 8.984 0 .884-.885 1.473-1.67 1.178-11.34-4.467-18.655-12.519-25.528-21.552a10.798 10.798 0 0 0-8.2-4.173h-.44c-3.094.099-6.137 1.473-8.2 4.173-6.922 9.033-14.237 17.085-25.528 21.552-.835.295-1.718-.294-1.718-1.178 0-8.248-9.083-13.353-16.152-8.984-25.53 15.66-32.697 18.41-53.61 20.226-6.824.59-11.44 7.414-9.23 13.894 1.865 5.45 2.995 11.144.835 17.428-.197.638-.933.982-1.571.785-14.974-4.81-29.457-10.456-45.608-10.898-43.89-1.13-64.017 37.704-43.84 71.087 10.064 16.692-3.977 41.386-4.125 42.957 7.954-2.553 14.631-8.69 23.761-8.69 1.18 0 1.719 1.424.835 2.16-39.127 33.335-57.635 81.348-46 117.972.294.884 1.473 1.129 2.11.49 4.616-4.565 5.5-13.156 16.545-14.138-12.715 10.751 34.66 125.237 50.96 143.107a4.66 4.66 0 0 0 1.67 1.08c8.64 3.093 16.74 7.659 22.041 15.17 23.81 33.58 50.026 62.643 87.682 80.513 1.129.54 2.258-.736 1.62-1.816-11.93-19.343 35.494 12.028 46.54 43.447.147.393.441.688.736.786.148.049.295 0 .442-.05.147.05.295.099.443.05.343-.098.637-.393.784-.786 10.997-31.42 58.47-62.79 46.541-43.447-.637 1.08.443 2.356 1.572 1.816 37.704-17.87 63.918-46.933 87.68-80.513 5.303-7.511 13.403-12.077 22.092-15.17.638-.245 1.179-.589 1.62-1.08 16.299-17.87 63.724-132.356 50.96-143.107 11.046.982 11.978 9.573 16.592 14.139.639.638 1.768.393 2.062-.491 11.635-36.624-6.824-84.637-45.95-117.972z"/></g><g opacity=".7"><path fill="#f5f2f2" d="M304.138 193.84c-.54.147-1.13.343-1.719.441-.147.05-.294.05-.441.05-2.7 0-6.235-1.915-10.555-5.646 7.51 2.16 10.85-5.302 17.723-8.64-.54 7.805-2.16 12.37-5.008 13.794zm10.457-21.945l-.344.196c-13.746-4.762-24.203-1.816-30.733 9.18h-.048a32.609 32.609 0 0 0-2.407 4.91c-2.65 6.136-4.369 14.04-5.204 23.761 7.316-7.266 17.282-8.591 26.707-10.751.099 0 .198 0 .295-.05.933 0 1.964-.245 2.897-.638.049-.049.097-.049.147-.049.05-.049.099-.049.099-.049 9.572-2.405 18.213-6.431 22.287-19.44-4.86-2.996-9.425-5.254-13.696-6.776z"/></g><g opacity=".7"><path fill="#f5f2f2" d="M165.645 194.33c-.443 0-.884-.049-1.277-.147-.295-.098-.639-.196-.932-.344 0 0-.05-.049-.1-.049-2.797-1.473-4.368-6.038-4.86-13.746 6.825 3.339 10.164 10.8 17.674 8.64-4.32 3.732-7.806 5.646-10.505 5.646zm18.458-13.058c-6.578-10.997-16.986-13.943-30.732-9.18l-.344-.197v.294c-4.27 1.522-8.837 3.78-13.697 6.775 4.124 13.01 12.716 17.085 22.29 19.441l.048.05c.049 0 .098 0 .147.048.982.393 1.964.638 2.896.638.099.05.197.05.296.05 9.425 2.16 19.391 3.485 26.706 10.751-.835-9.72-2.553-17.625-5.155-23.761-.736-1.768-1.522-3.437-2.455-4.91z"/></g></g></svg>