<svg xmlns="http://www.w3.org/2000/svg" width="468" height="552" viewBox="0 0 468 552"><g><g opacity=".04"><path fill="#052a26" d="M390.444 85.57c-9.918-.982-20.03-.197-33.531-.197 13.01-8.247 24.056-8.885 35.249-7.953 11.88.933 22.73 3.928 30.143 14.876 3.044 4.516 5.646 9.72 1.914 12.715-4.86 3.927-6.578-2.995-8.983-5.94-6.48-7.905-14.974-12.52-24.792-13.501zm-48.063 43.398c-13.01-10.947-27.444-18.557-44.38-20.766 46.05-15.66 59.5 28.376 86.502 47.571-19.539-.638-29.357-16.004-42.122-26.805zm-2.602 106.68c-9.376 4.173-19.736 5.499-29.26 9.28-9.77 3.927-15.121 12.469-8.1 20.275 13.304 14.777 12.47 28.818 7.414 43.35-2.358 6.774-8.74 11.389-15.908 11.389l-47.276-21.65c-7.07-10.065-6.873-19 1.767-25.43 8.15-6.088 16.2-7.316 24.841-12.716 5.4-3.338 9.671-7.413 5.155-14.384-1.473-2.308-5.106-5.4-6.136-3.78-9.917 15.808-18.361 1.914-27.05-1.13h-26.757c-8.69 3.044-17.134 16.938-27.05 1.13-1.032-1.62-4.665 1.472-6.137 3.78-4.517 6.97-.245 11.046 5.155 14.384 8.64 5.4 16.741 6.628 24.842 12.715 8.64 6.431 8.836 15.366 1.766 25.43l-47.277 21.65c-7.168 0-13.549-4.614-15.906-11.389-5.057-14.531-5.89-28.572 7.413-43.35 7.02-7.805 1.67-16.347-8.1-20.275-9.524-3.78-19.884-5.106-29.26-9.279-6.726-3.043-14.138-7.462-11.045-15.464 9.572-24.743 11.34-52.824 33.235-72.413 13.648-12.273 29.162-20.423 45.608-27.001 12.715-5.057 15.612-12.028 8.101-23.32-1.964-2.258-3.682-4.663-5.155-6.627 1.521 1.767 3.437 3.83 5.302 5.94 14.237 16.005 26.068 33.09 25.381 55.967-.098 2.749-.148 6.284 1.032 8.787 1.178 1.768 2.945 2.946 5.498 3.044 2.503-.098 4.271-1.276 5.449-3.044 1.179-2.503 1.13-6.038 1.08-8.787-.736-22.878 11.096-39.962 25.332-55.967 1.915-2.11 3.78-4.173 5.303-5.94-1.474 1.964-3.192 4.37-5.156 6.627-7.51 11.292-4.615 18.263 8.101 23.32 16.446 6.578 31.96 14.728 45.607 27.001 21.897 19.589 23.663 47.67 33.237 72.413 3.142 8.002-4.32 12.42-11.046 15.464zm-44.234 139.278l-56.997 33.286a10.185 10.185 0 0 1-10.113.098l-60.041-33.089c-5.45-2.995-7.02-10.113-3.289-15.12l15.66-21.21c1.964-2.601 5.008-4.172 8.297-4.172h87.927c3.534 0 6.774 1.816 8.69 4.762l13.352 21.061c3.094 4.91 1.523 11.439-3.486 14.384zM79.191 155.773c27.002-19.195 40.453-63.232 86.503-47.571-16.938 2.21-31.371 9.819-44.38 20.766-12.765 10.801-22.583 26.167-42.123 26.805zM73.25 85.57c-9.819.982-18.312 5.596-24.793 13.5-2.406 2.946-4.124 9.868-8.983 5.94-3.732-2.994-1.13-8.198 1.914-12.714 7.413-10.948 18.263-13.943 30.144-14.876 11.242-.932 22.239-.294 35.249 7.953-13.501 0-23.615-.785-33.532.197zm344.93 78.942c-.884-.736-.343-2.16.785-2.16 9.182 0 15.858 6.137 23.81 8.69-.147-1.572-14.236-26.266-4.123-42.957 20.129-33.384 0-72.217-43.89-71.088-16.102.442-30.634 6.088-45.607 10.9-.638.196-1.325-.148-1.572-.786-2.11-6.284-1.03-11.98.835-17.428 2.21-6.48-2.356-13.305-9.18-13.894-20.914-1.816-28.131-4.566-53.66-20.226-7.019-4.37-16.15.736-16.15 8.984 0 .883-.885 1.473-1.67 1.178-11.34-4.468-18.655-12.519-25.528-21.552a10.798 10.798 0 0 0-8.2-4.173h-.44c-3.094.098-6.137 1.473-8.2 4.173-6.922 9.033-14.237 17.084-25.528 21.552-.835.295-1.718-.295-1.718-1.178 0-8.248-9.083-13.354-16.152-8.984-25.53 15.66-32.697 18.41-53.61 20.226-6.824.59-11.44 7.413-9.23 13.894 1.865 5.449 2.995 11.144.835 17.428-.197.638-.933.982-1.571.785-14.974-4.81-29.457-10.457-45.608-10.899-43.89-1.129-64.017 37.704-43.84 71.088 10.064 16.691-3.977 41.385-4.125 42.956 7.954-2.552 14.631-8.69 23.761-8.69 1.18 0 1.719 1.425.835 2.161-39.127 33.335-57.635 81.348-46 117.972.294.883 1.473 1.129 2.11.49 4.616-4.565 5.5-13.157 16.545-14.138-12.715 10.751 34.66 125.237 50.96 143.107a4.66 4.66 0 0 0 1.67 1.08c8.64 3.093 16.74 7.658 22.041 15.17 23.81 33.58 50.026 62.643 87.682 80.513 1.129.54 2.258-.736 1.62-1.817-11.93-19.342 35.494 12.028 46.54 43.448.147.393.441.687.736.786.148.049.295 0 .442-.05.147.05.295.099.443.05.343-.099.637-.393.784-.786 10.997-31.42 58.47-62.79 46.541-43.448-.637 1.08.443 2.357 1.572 1.817 37.704-17.87 63.918-46.933 87.68-80.513 5.303-7.512 13.403-12.077 22.092-15.17.638-.246 1.179-.59 1.62-1.08 16.299-17.87 63.724-132.356 50.96-143.107 11.046.981 11.978 9.573 16.592 14.138.639.639 1.768.393 2.062-.49 11.635-36.624-6.824-84.637-45.95-117.972z"/></g><g opacity=".04"><path fill="#052a26" d="M304.138 193.477c-.54.147-1.13.344-1.719.442-.147.049-.294.049-.441.049-2.7 0-6.235-1.915-10.555-5.646 7.51 2.16 10.85-5.302 17.723-8.64-.54 7.806-2.16 12.371-5.008 13.795zm10.457-21.945l-.344.197c-13.746-4.762-24.203-1.817-30.733 9.18h-.048a32.609 32.609 0 0 0-2.407 4.91c-2.65 6.136-4.369 14.04-5.204 23.76 7.316-7.265 17.282-8.59 26.707-10.75.099 0 .198 0 .295-.05.933 0 1.964-.245 2.897-.638.049-.05.097-.05.147-.05.05-.048.099-.048.099-.048 9.572-2.406 18.213-6.431 22.287-19.441-4.86-2.995-9.425-5.253-13.696-6.775z"/></g><g opacity=".04"><path fill="#052a26" d="M187.392 169.863v-17.182c-8.198 5.4-6.676 11.291-4.172 17.28 1.375 0 2.797-.049 4.172-.098z"/></g><g opacity=".04"><path fill="#052a26" d="M165.645 193.968c-.443 0-.884-.049-1.277-.147-.295-.098-.639-.197-.932-.344 0 0-.05-.049-.1-.049-2.797-1.473-4.368-6.038-4.86-13.746 6.825 3.338 10.164 10.8 17.674 8.64-4.32 3.731-7.806 5.646-10.505 5.646zm18.458-13.059c-6.578-10.997-16.986-13.942-30.732-9.18l-.344-.197v.295c-4.27 1.522-8.837 3.78-13.697 6.775 4.124 13.01 12.716 17.084 22.29 19.44l.048.05c.049 0 .098 0 .147.05.982.392 1.964.637 2.896.637.099.05.197.05.296.05 9.425 2.16 19.391 3.485 26.706 10.75-.835-9.72-2.553-17.624-5.155-23.76-.736-1.768-1.522-3.437-2.455-4.91z"/></g><g opacity=".04"><path fill="#052a26" d="M280.18 152.68v17.183c1.423.05 2.797.098 4.22.098 2.505-5.989 3.978-11.88-4.22-17.28z"/></g><g><g><g><path fill="#fff" d="M299.184 279.13c-1.975 0-3.184-1.279-3.184-4.044v-12.644c0-.117.07-.187.186-.187h.837c.139 0 .209.07.209.187v12.713c0 2.022.744 2.836 2.045 2.836.303 0 .79-.047 1.209-.093.116 0 .186.046.186.186v.72c0 .117-.047.21-.163.233a13.1 13.1 0 0 1-1.325.093z"/></g></g><g><g><path fill="#fff" d="M305.596 274.671v-3.533c0-1.929 1.255-3.347 3.696-3.347 2.487 0 3.719 1.418 3.719 3.347v3.533c0 1.93-1.232 3.347-3.719 3.347-2.44 0-3.696-1.418-3.696-3.347zm8.647 0v-3.533c0-2.556-1.79-4.486-4.951-4.486-3.138 0-4.95 1.93-4.95 4.486v3.533c0 2.58 1.812 4.463 4.95 4.463 3.161 0 4.95-1.883 4.95-4.463z"/></g></g><g><g><path fill="#fff" d="M321.496 278.715l-3.603-11.575c-.023-.14.024-.232.163-.232h.884c.116 0 .185.046.208.162l2.302 7.485c.302.953.511 1.906.766 2.859h.024c.256-.884.488-1.86.744-2.65l2.44-7.461a.204.204 0 0 1 .21-.163h.952c.117 0 .186.07.21.163l2.44 7.46c.256.79.488 1.767.744 2.65h.023c.186-.697.581-2.114.767-2.858l2.301-7.485c.024-.116.093-.162.21-.162h.882c.117 0 .187.093.14.232l-3.58 11.575c-.046.093-.092.163-.208.163h-1.046c-.117 0-.163-.07-.21-.163l-2.603-8.088c-.186-.581-.349-1.279-.534-1.93h-.023c-.187.651-.35 1.349-.535 1.93l-2.627 8.088c-.023.093-.07.163-.186.163h-1.046c-.116 0-.162-.07-.209-.163z"/></g></g><g><g><path fill="#fff" d="M342.743 267.787c2.045 0 3.51 1.162 3.51 3.37v1.326h-7.02v-1.325c0-2.232 1.394-3.37 3.51-3.37zm4.718 3.37c0-2.974-2.092-4.509-4.718-4.509-2.65 0-4.765 1.534-4.765 4.51v3.672c0 2.766 2.278 4.3 4.742 4.3 1.975 0 3.416-.814 4.486-1.743.116-.093.116-.186.023-.28l-.418-.534c-.07-.116-.163-.116-.28-.046-.86.744-2.045 1.487-3.788 1.487-1.93 0-3.51-1.162-3.51-3.184v-1.302h8.02c.115 0 .208-.07.208-.186z"/></g></g><g><g><path fill="#fff" d="M298.41 285.36v.385h-2.04v-.385c0-.649.405-.98 1.02-.98.595 0 1.02.338 1.02.98zm.352 0c0-.865-.608-1.311-1.372-1.311-.77 0-1.385.446-1.385 1.31v1.069c0 .804.662 1.25 1.379 1.25.574 0 .993-.237 1.304-.507.034-.027.034-.054.007-.081l-.122-.156c-.02-.033-.047-.033-.081-.013-.25.216-.595.432-1.102.432-.56 0-1.02-.337-1.02-.925v-.379h2.331c.034 0 .061-.02.061-.054z"/></g><g><path fill="#fff" d="M302.743 284.049c.81 0 1.351.466 1.351 1.324v2.176c0 .034-.02.054-.06.054h-.244c-.034 0-.054-.02-.054-.054v-2.19c0-.62-.351-.986-1-.986-.338 0-.642.115-.865.27.101.196.162.44.162.724v2.182c0 .034-.027.054-.06.054h-.244c-.034 0-.054-.02-.054-.054v-2.19c0-.62-.277-.986-.926-.986-.31 0-.568.068-.81.17v3.006c0 .034-.021.054-.055.054h-.243c-.034 0-.061-.02-.061-.054v-3.17c0-.033.013-.06.047-.073a2.694 2.694 0 0 1 1.115-.257c.413 0 .717.121.94.338.31-.21.649-.338 1.06-.338z"/></g><g><path fill="#fff" d="M306.351 287.353c-.344 0-.682-.114-.945-.297v-2.52c.27-.102.6-.163.945-.163.697 0 1.102.325 1.102 1.129v.73c0 .783-.392 1.121-1.102 1.121zm.007-3.304c-.44 0-.892.094-1.27.243-.027.014-.04.034-.04.068v4.473c0 .034.026.054.06.054h.243c.034 0 .055-.02.055-.054v-1.426c.263.163.608.27.966.27.878 0 1.446-.493 1.446-1.445v-.73c0-1.007-.581-1.453-1.46-1.453z"/></g><g><path fill="#fff" d="M308.73 287.603c-.033 0-.06-.02-.06-.054v-3.19a.07.07 0 0 1 .047-.067c.331-.155.75-.243 1.142-.243.223 0 .46.027.69.06.04.007.053.028.053.061v.21c0 .034-.027.054-.06.047a4.042 4.042 0 0 0-.642-.054c-.311 0-.629.061-.872.162v3.014c0 .034-.02.054-.054.054z"/></g><g><path fill="#fff" d="M312.34 284.38c.594 0 1.02.338 1.02.98v.385h-2.041v-.385c0-.649.405-.98 1.02-.98zm1.371.98c0-.865-.608-1.311-1.372-1.311-.77 0-1.385.446-1.385 1.31v1.069c0 .804.662 1.25 1.379 1.25.574 0 .993-.237 1.304-.507.033-.027.033-.054.007-.081l-.122-.156c-.02-.033-.047-.033-.081-.013-.25.216-.595.432-1.102.432-.56 0-1.02-.337-1.02-.925v-.379h2.331c.034 0 .061-.02.061-.054z"/></g><g><path fill="#fff" d="M316.827 285.36v.385h-2.042v-.385c0-.649.406-.98 1.02-.98.596 0 1.022.338 1.022.98zm.351 0c0-.865-.608-1.311-1.372-1.311-.77 0-1.385.446-1.385 1.31v1.069c0 .804.662 1.25 1.378 1.25.575 0 .994-.237 1.304-.507.034-.027.034-.054.007-.081l-.121-.156c-.02-.033-.048-.033-.081-.013-.25.216-.595.432-1.102.432-.56 0-1.02-.337-1.02-.925v-.379h2.33c.035 0 .062-.02.062-.054z"/></g><g><path fill="#fff" d="M318.056 287.603c-.033 0-.06-.02-.06-.054v-3.17a.07.07 0 0 1 .047-.067 3.165 3.165 0 0 1 1.257-.263c.899 0 1.466.446 1.466 1.405v2.095c0 .034-.02.054-.054.054h-.243c-.034 0-.06-.02-.06-.054v-2.081c0-.757-.4-1.088-1.11-1.088-.337 0-.682.068-.945.162v3.007c0 .034-.02.054-.054.054z"/></g><g><path fill="#fff" d="M321.963 286.225v-.73c0-.784.398-1.122 1.101-1.122.352 0 .683.115.946.29v2.535a2.872 2.872 0 0 1-.939.155c-.703 0-1.108-.324-1.108-1.128zm2.047-1.906a1.902 1.902 0 0 0-.973-.27c-.872 0-1.44.493-1.44 1.446v.73c0 1.007.582 1.453 1.467 1.453.433 0 .885-.095 1.257-.243.034-.008.048-.034.048-.061v-4.548c0-.034-.02-.055-.061-.055h-.244c-.033 0-.054.02-.054.055z"/></g><g><path fill="#fff" d="M325.416 287.603c-.034 0-.054-.02-.054-.054v-3.365c0-.04.02-.06.054-.06h.25c.034 0 .054.02.054.06v3.365c0 .034-.02.054-.054.054zm.128-4.196a.233.233 0 0 1-.243-.237c0-.142.101-.243.243-.243.135 0 .237.101.237.243a.23.23 0 0 1-.237.237z"/></g><g><path fill="#fff" d="M329.87 284.049c.81 0 1.35.466 1.35 1.324v2.176c0 .034-.02.054-.06.054h-.243c-.034 0-.054-.02-.054-.054v-2.19c0-.62-.352-.986-1-.986-.338 0-.643.115-.866.27.102.196.163.44.163.724v2.182c0 .034-.027.054-.061.054h-.244c-.033 0-.053-.02-.053-.054v-2.19c0-.62-.278-.986-.926-.986-.311 0-.568.068-.811.17v3.006c0 .034-.02.054-.054.054h-.243c-.034 0-.061-.02-.061-.054v-3.17c0-.033.013-.06.047-.073a2.694 2.694 0 0 1 1.115-.257c.412 0 .716.121.94.338.31-.21.648-.338 1.06-.338z"/></g><g><path fill="#fff" d="M334.472 285.36v.385h-2.041v-.385c0-.649.405-.98 1.02-.98.595 0 1.02.338 1.02.98zm.351 0c0-.865-.608-1.311-1.372-1.311-.77 0-1.385.446-1.385 1.31v1.069c0 .804.663 1.25 1.379 1.25.574 0 .993-.237 1.304-.507.034-.027.034-.054.007-.081l-.122-.156c-.02-.033-.047-.033-.081-.013-.25.216-.595.432-1.102.432-.56 0-1.02-.337-1.02-.925v-.379h2.331c.034 0 .061-.02.061-.054z"/></g><g><path fill="#fff" d="M335.701 287.603c-.034 0-.06-.02-.06-.054v-3.17a.07.07 0 0 1 .047-.067 3.165 3.165 0 0 1 1.257-.263c.899 0 1.466.446 1.466 1.405v2.095c0 .034-.02.054-.054.054h-.243c-.034 0-.06-.02-.06-.054v-2.081c0-.757-.4-1.088-1.11-1.088-.337 0-.682.068-.945.162v3.007c0 .034-.02.054-.054.054z"/></g><g><path fill="#fff" d="M340.46 287.34c.087 0 .243-.007.37-.014.035-.006.055.014.055.054v.217c0 .033-.014.054-.054.06-.122.014-.29.02-.385.02-.663 0-1.095-.398-1.095-1.148v-3.217c0-.034.02-.054.054-.054h.216c.034 0 .054.02.061.054l.02.825h1.034c.034 0 .054.027.054.06v.21c0 .033-.02.054-.054.054h-1.027v2.054c0 .514.257.825.75.825z"/></g><g><path fill="#fff" d="M341.669 286.38v-1.027c0-.561.365-.973 1.074-.973.724 0 1.081.412 1.081.973v1.027c0 .561-.357.973-1.08.973-.71 0-1.075-.412-1.075-.973zm2.514 0v-1.027c0-.743-.52-1.304-1.44-1.304-.912 0-1.439.56-1.439 1.304v1.027c0 .75.527 1.298 1.44 1.298.918 0 1.439-.548 1.439-1.298z"/></g><g><path fill="#fff" d="M346.143 287.678c-.487 0-.926-.149-1.305-.44-.033-.02-.033-.047-.02-.074l.115-.19c.02-.033.047-.04.081-.013.338.25.716.392 1.135.392.555 0 .946-.236.946-.675 0-.48-.5-.581-.946-.676-.527-.102-1.277-.304-1.277-1.027 0-.609.575-.926 1.25-.926.467 0 .832.128 1.183.324.034.02.04.047.02.081l-.108.183c-.013.027-.047.04-.081.02a2.081 2.081 0 0 0-1.027-.277c-.527 0-.885.223-.885.595 0 .466.486.594.993.702.581.122 1.243.27 1.243.987 0 .622-.506 1.014-1.317 1.014z"/></g></g></g></g></svg>