<svg xmlns="http://www.w3.org/2000/svg" width="48" height="48" viewBox="0 0 48 48"><defs><clipPath id="knjqa"><path fill="#fff" d="M0 48V0h48v48z"/></clipPath></defs><g><g><path fill="none" stroke="#fff" stroke-miterlimit="20" stroke-width="2" d="M0 48v0V0v0h48v48z" clip-path="url(&quot;#knjqa&quot;)"/></g><g><path fill="#fff" d="M18.314 15.044a3.264 3.264 0 0 0-3.271 3.27v11.372a3.264 3.264 0 0 0 3.27 3.27h6.164v-7.002h-1.852v-2.521h1.852v-2.154c0-1.693 1.094-3.247 3.614-3.247 1.02 0 1.775.098 1.775.098l-.06 2.355s-.77-.007-1.609-.007c-.909 0-1.054.418-1.054 1.114v1.84h2.736l-.12 2.522h-2.616v7.003h2.542a3.264 3.264 0 0 0 3.27-3.27V18.314a3.264 3.264 0 0 0-3.27-3.271z"/></g></g></svg>