<?xml version="1.0" encoding="UTF-8"?>
<svg id="SVGDoc" width="17" height="10" xmlns="http://www.w3.org/2000/svg" version="1.1" xmlns:xlink="http://www.w3.org/1999/xlink" xmlns:avocode="https://avocode.com/" viewBox="0 0 17 10"><defs></defs><desc>Generated with Avocode.</desc><g><g><title>Icon awesome-bed</title><path d="M16.69922,4.50957v4.91953c0,0.2265 -0.18346,0.40996 -0.40996,0.40996h-0.81992c-0.2265,0 -0.40996,-0.18346 -0.40996,-0.40996v-1.22988h-13.11875v1.22988c0,0.2265 -0.18346,0.40996 -0.40996,0.40996h-0.81992c-0.2265,0 -0.40996,-0.18346 -0.40996,-0.40996v-9.01914c0,-0.2265 0.18346,-0.40996 0.40996,-0.40996h0.81992c0.2265,0 0.40996,0.18346 0.40996,0.40996v5.32949h5.73945v-3.68965c0,-0.2265 0.18346,-0.40996 0.40996,-0.40996h5.73945c1.58502,0 2.86973,1.28472 2.86973,2.86973zM2.76055,2.86973c0,-1.13021 0.91959,-2.0498 2.0498,-2.0498c1.13021,0 2.0498,0.91959 2.0498,2.0498c0,1.13021 -0.91959,2.0498 -2.0498,2.0498c-1.13021,0 -2.0498,-0.91959 -2.0498,-2.0498z" fill="#cc9a59" fill-opacity="1"></path></g></g></svg>