<svg xmlns="http://www.w3.org/2000/svg" width="18" height="18" viewBox="0 0 18 18"><g><g><path fill="#0e4841" d="M9.02 9c1.2 0 2.231.431 3.094 1.294.863.862 1.294 1.894 1.294 3.094 0 1.201-.432 2.239-1.294 3.114-.862.874-1.894 1.312-3.095 1.312zM5.905 7.706c-.875-.862-1.313-1.894-1.313-3.094s.438-2.239 1.313-3.113C6.781.624 7.82.186 9.02.186V9h8.777c0-1.2-.431-2.232-1.294-3.095-.862-.862-1.894-1.293-3.094-1.293s-2.232.43-3.095 1.293C9.451 6.768 9.02 7.8 9.02 9c-1.2 0-2.238-.431-3.113-1.294zM9.02 9c0 1.2-.437 2.232-1.312 3.095-.876.863-1.913 1.294-3.114 1.293-1.2 0-2.231-.431-3.094-1.293C.636 11.233.205 10.2.205 9z"/></g></g></svg>