<svg xmlns="http://www.w3.org/2000/svg" width="42" height="42" viewBox="0 0 42 42"><defs><clipPath id="jdrra"><path fill="#fff" d="M0 21C0 9.402 9.402 0 21 0s21 9.402 21 21-9.402 21-21 21S0 32.598 0 21z"/></clipPath></defs><g><g><path fill="#d6d6d6" d="M0 21C0 9.402 9.402 0 21 0s21 9.402 21 21-9.402 21-21 21S0 32.598 0 21z"/><path fill="none" stroke="#d6d6d6" stroke-miterlimit="20" stroke-width="4" d="M0 21C0 9.402 9.402 0 21 0s21 9.402 21 21-9.402 21-21 21S0 32.598 0 21z" clip-path="url(&quot;#jdrra&quot;)"/></g><g><path fill="#fff" d="M15.872 21.465c0-.81.656-1.465 1.465-1.465h2.93v-6.593a.732.732 0 1 1 1.465 0V20h2.93c.81 0 1.466.656 1.466 1.465zm10.256 5.86h-1.465V22.93h1.465zm-4.396 0V22.93h1.466v4.395zm-2.93 0V22.93h1.466v4.395zm-2.93 0V22.93h1.465v4.395zm7.326-8.79v-5.128a2.198 2.198 0 0 0-4.396 0v5.128h-1.465a2.93 2.93 0 0 0-2.93 2.93v7.325h13.186v-7.325a2.93 2.93 0 0 0-2.93-2.93z"/></g></g></svg>