<?xml version="1.0" encoding="UTF-8"?>
<svg id="SVGDoc" width="12" height="11" xmlns="http://www.w3.org/2000/svg" version="1.1" xmlns:xlink="http://www.w3.org/1999/xlink" xmlns:avocode="https://avocode.com/" viewBox="0 0 12 11"><defs></defs><desc>Generated with Avocode.</desc><g><g><title>Caminho 7499</title><path d="M3.09522,3.77622c0,0.80214 -0.65026,1.45239 -1.45239,1.45239c-0.80213,0 -1.45239,-0.65026 -1.45239,-1.45239c0,-0.80214 0.65026,-1.45239 1.45239,-1.45239c0.80213,0 1.45239,0.65026 1.45239,1.45239z" fill="#cc9a59" fill-opacity="1"></path></g><g><title>Caminho 7500</title><path d="M5.70952,1.45239c0,0.80213 -0.65026,1.45239 -1.45239,1.45239c-0.80213,0 -1.45239,-0.65026 -1.45239,-1.45239c0,-0.80213 0.65026,-1.45239 1.45239,-1.45239c0.80213,0 1.45239,0.65026 1.45239,1.45239z" fill="#cc9a59" fill-opacity="1"></path></g><g><title>Caminho 7501</title><path d="M9.19526,1.45239c0,0.80213 -0.65026,1.45239 -1.45239,1.45239c-0.80213,0 -1.45239,-0.65026 -1.45239,-1.45239c0,-0.80213 0.65026,-1.45239 1.45239,-1.45239c0.80213,0 1.45239,0.65026 1.45239,1.45239z" fill="#cc9a59" fill-opacity="1"></path></g><g><title>Caminho 7502</title><path d="M11.80957,3.77622c0,0.80213 -0.65026,1.45239 -1.45239,1.45239c-0.80214,0 -1.45239,-0.65026 -1.45239,-1.45239c0,-0.80214 0.65026,-1.45239 1.45239,-1.45239c0.80214,0 1.45239,0.65026 1.45239,1.45239z" fill="#cc9a59" fill-opacity="1"></path></g><g><title>Caminho 7503</title><path d="M9.10231,6.89015c-0.50543,-0.59258 -0.92953,-1.09801 -1.44077,-1.69058c-0.26724,-0.31372 -0.61001,-0.62743 -1.01667,-0.76686c-0.0639,-0.02324 -0.12781,-0.04067 -0.19172,-0.05229c-0.14524,-0.02324 -0.3021,-0.02324 -0.45315,-0.02324c-0.15105,0 -0.30791,0 -0.45896,0.02905c-0.06391,0.01162 -0.12781,0.02905 -0.19172,0.05229c-0.40667,0.13943 -0.74362,0.45314 -1.01667,0.76686c-0.50543,0.59258 -0.92953,1.09801 -1.44077,1.69058c-0.76105,0.76105 -1.69639,1.60344 -1.52211,2.78279c0.16848,0.59258 0.59258,1.17934 1.35363,1.34782c0.4241,0.08714 1.77773,-0.25562 3.2185,-0.25562h0.10457c1.44077,0 2.7944,0.33696 3.2185,0.25562c0.76105,-0.16848 1.18515,-0.76105 1.35363,-1.34782c0.1801,-1.18515 -0.75524,-2.02754 -1.5163,-2.7886z" fill="#cc9a59" fill-opacity="1"></path></g></g></svg>