<svg xmlns="http://www.w3.org/2000/svg" width="42" height="42" viewBox="0 0 42 42"><defs><clipPath id="msy2a"><path fill="#fff" d="M0 21C0 9.402 9.402 0 21 0s21 9.402 21 21-9.402 21-21 21S0 32.598 0 21z"/></clipPath></defs><g><g><path fill="#fff" d="M0 21C0 9.402 9.402 0 21 0s21 9.402 21 21-9.402 21-21 21S0 32.598 0 21z"/><path fill="none" stroke="#0e4841" stroke-miterlimit="20" stroke-width="4" d="M0 21C0 9.402 9.402 0 21 0s21 9.402 21 21-9.402 21-21 21S0 32.598 0 21z" clip-path="url(&quot;#msy2a&quot;)"/></g><g><path fill="#0e4841" d="M23.67 16.228h-6.733l1.468-1.468h5.265zm-2.202 12.114h-1.469V17.696h1.469zm.734-15.05V12.19h-2.937v1.101h-1.468l-2.937 2.937v1.468h3.671V29.81h4.405V17.696h2.203v-4.405z"/></g></g></svg>