<svg xmlns="http://www.w3.org/2000/svg" width="54" height="54" viewBox="0 0 54 54"><defs><clipPath id="mx16a"><path fill="#fff" d="M0 27C0 12.088 12.088 0 27 0s27 12.088 27 27-12.088 27-27 27S0 41.912 0 27z"/></clipPath></defs><g><g><path fill="#fff" d="M0 27C0 12.088 12.088 0 27 0s27 12.088 27 27-12.088 27-27 27S0 41.912 0 27z"/><path fill="none" stroke="#ababab" stroke-miterlimit="20" stroke-width="2" d="M0 27C0 12.088 12.088 0 27 0s27 12.088 27 27-12.088 27-27 27S0 41.912 0 27z" clip-path="url(&quot;#mx16a&quot;)"/></g><g><path fill="#ababab" d="M31.849 26.057c0-3.2-2.593-5.793-5.794-5.793a5.793 5.793 0 1 0 0 11.587 5.791 5.791 0 0 0 5.794-5.794zm2.19 9.998l-3.348-3.348a8.07 8.07 0 0 1-4.635 1.46 8.111 8.111 0 1 1 8.11-8.11c0 1.723-.541 3.319-1.459 4.633l3.348 3.347zm-6.825-11.158h2.317v2.318h-2.317v2.318h-2.318v-2.318H22.58v-2.317h2.317V22.58h2.318z"/></g></g></svg>