<svg xmlns="http://www.w3.org/2000/svg" width="42" height="42" viewBox="0 0 42 42"><g><g><path fill="#0e4841" d="M0 21C0 9.402 9.402 0 21 0s21 9.402 21 21-9.402 21-21 21S0 32.598 0 21z"/></g><g><path fill="#fff" d="M21.16 18.146L19.012 16l3.19-1.043zm2.403-5.012l-6.031 1.971c-.506.192-.606.662-.224 1.044l1.388 1.388-.544.543h-.983c-.528 0-1.112.242-1.486.616l-2.55 2.548.928.929 2.549-2.55a.917.917 0 0 1 .56-.232h1.2a.92.92 0 0 0 .559-.232l.695-.695 1.388 1.388c.382.384.851.281 1.043-.223l1.972-6.032z"/></g><g><path fill="#fff" d="M26.244 23.622v1.311h-3.933v-1.311zm-2.622 3.933h-3.933v-1.31h3.933zm-5.244 0h-3.933v-1.31h3.933zm-1.311-3.933H21v1.311h-3.933zm11.8-5.244v-1.311h-2.623v2.622h-2.622v2.622h-7.866v2.622h-2.622v3.933h15.732v-1.31h-3.933v-1.312h3.933v-1.31h-1.31v-1.312h1.31V22.31h-3.933v-1.31h3.933v-1.312h-1.31v-1.311z"/></g></g></svg>