<?xml version="1.0" encoding="UTF-8"?>
<svg id="SVGDoc" width="16" height="14" xmlns="http://www.w3.org/2000/svg" version="1.1" xmlns:xlink="http://www.w3.org/1999/xlink" xmlns:avocode="https://avocode.com/" viewBox="0 0 16 14"><defs></defs><desc>Generated with Avocode.</desc><g><g><title>Icon awesome-bath</title><path d="M15.2772,6.74353v0h-12.28286v0v-4.33513c0,-0.5312 0.43216,-0.96336 0.96336,-0.96336c0.34172,0 0.6422,0.17897 0.81329,0.44796c-0.49649,0.75886 -0.44215,1.79354 0.20586,2.49977c-0.12572,0.14189 -0.12105,0.35873 0.01478,0.49457l0.34061,0.34061c0.14107,0.14107 0.36981,0.14107 0.51091,0l2.86088,-2.86085c0.14107,-0.14107 0.14107,-0.36981 0,-0.51091l-0.34061,-0.34061c-0.13583,-0.13583 -0.35268,-0.14047 -0.49457,-0.01478c-0.54036,-0.4958 -1.27326,-0.64512 -1.93208,-0.46256c-0.43526,-0.62679 -1.15986,-1.03823 -1.97908,-1.03823c-1.32799,0 -2.4084,1.08041 -2.4084,2.4084v4.33513v0h-0.24084c-0.39904,0 -0.72252,0.32348 -0.72252,0.72252v0.48168c0,0.39904 0.32348,0.72252 0.72252,0.72252h0.24084v0v0.96336c0,0.85589 0.37216,1.62474 0.96336,2.15392v0.977c0,0.39904 0.32348,0.72252 0.72252,0.72252h0.48168c0.39904,0 0.72252,-0.32348 0.72252,-0.72252v-0.24084v0h7.70689v0v0.24084c0,0.39904 0.32348,0.72252 0.72252,0.72252h0.48168c0.39904,0 0.72252,-0.32348 0.72252,-0.72252v-0.977c0.5912,-0.52919 0.96336,-1.29804 0.96336,-2.15392v-0.96336v0h0.24084c0.39904,0 0.72252,-0.32348 0.72252,-0.72252v-0.48168c0,-0.39904 -0.32348,-0.72252 -0.72252,-0.72252z" fill="#cc9a59" fill-opacity="1"></path></g></g></svg>