<svg xmlns="http://www.w3.org/2000/svg" width="80" height="94" viewBox="0 0 80 94"><g><g><g><path fill="#fff" d="M11.808 12.105l39.84 6.63a6 6 0 0 1 6 6v39a6 6 0 0 1-6 6h-30a6 6 0 0 1-6-6L7.757 19.407c-3.908-3.997 4.05-7.303 4.05-7.303z"/></g><g><g><path fill="#052a26" d="M66.567 14.777c-1.682-.166-3.397-.033-5.686-.033 2.206-1.399 4.08-1.507 5.978-1.349 2.015.159 3.854.666 5.112 2.523.516.766.957 1.649.324 2.157-.824.666-1.115-.508-1.523-1.008-1.1-1.34-2.54-2.123-4.205-2.29zm-8.15 7.36c-2.207-1.856-4.655-3.147-7.527-3.521 7.81-2.656 10.09 4.812 14.67 8.067-3.314-.108-4.979-2.714-7.144-4.546zm-.442 18.092c-1.59.708-3.347.933-4.962 1.574-1.657.666-2.565 2.115-1.374 3.439 2.256 2.506 2.115 4.887 1.257 7.351a2.868 2.868 0 0 1-2.697 1.932l-8.018-3.672c-1.199-1.707-1.165-3.222.3-4.313 1.382-1.032 2.747-1.24 4.213-2.156.915-.566 1.64-1.257.874-2.44-.25-.39-.866-.915-1.04-.64-1.683 2.68-3.115.324-4.588-.192h-4.538c-1.474.516-2.906 2.872-4.587.191-.175-.274-.791.25-1.041.642-.766 1.182-.042 1.873.874 2.439 1.465.916 2.84 1.124 4.213 2.156 1.465 1.091 1.499 2.606.3 4.313l-8.018 3.672a2.868 2.868 0 0 1-2.698-1.932c-.857-2.464-.999-4.845 1.257-7.351 1.19-1.324.283-2.773-1.373-3.439-1.616-.641-3.372-.866-4.962-1.574-1.141-.516-2.398-1.265-1.874-2.622 1.624-4.196 1.923-8.959 5.637-12.28 2.314-2.082 4.945-3.464 7.734-4.58 2.157-.857 2.648-2.04 1.374-3.955-.333-.383-.624-.79-.874-1.124.258.3.583.65.9 1.008 2.414 2.714 4.42 5.611 4.304 9.491-.017.466-.026 1.066.175 1.49.2.3.499.5.932.517.424-.017.724-.217.924-.516.2-.425.192-1.025.183-1.49-.125-3.88 1.882-6.778 4.296-9.492.325-.358.641-.708.9-1.008-.25.333-.542.741-.875 1.124-1.273 1.915-.782 3.098 1.374 3.955 2.79 1.116 5.42 2.498 7.735 4.58 3.713 3.321 4.013 8.084 5.636 12.28.533 1.357-.732 2.106-1.873 2.622zm-7.502 23.62l-9.666 5.646a1.727 1.727 0 0 1-1.715.016L28.91 63.9a1.74 1.74 0 0 1-.558-2.565l2.656-3.596c.333-.442.85-.708 1.407-.708h14.911c.6 0 1.15.308 1.474.808l2.265 3.571a1.75 1.75 0 0 1-.592 2.44zM13.782 26.684c4.579-3.255 6.86-10.723 14.67-8.067-2.873.374-5.32 1.665-7.527 3.521-2.164 1.832-3.83 4.438-7.143 4.546zm-1.008-11.905c-1.665.166-3.105.949-4.204 2.29-.408.499-.7 1.673-1.524 1.007-.633-.508-.191-1.39.325-2.157 1.257-1.857 3.097-2.364 5.112-2.523 1.907-.158 3.772-.05 5.978 1.35-2.29 0-4.005-.134-5.687.033zm58.497 13.387c-.15-.125-.058-.366.133-.366 1.558 0 2.69 1.04 4.039 1.474-.025-.267-2.415-4.455-.7-7.285 3.414-5.662 0-12.248-7.443-12.056-2.731.075-5.195 1.032-7.735 1.848a.219.219 0 0 1-.266-.133c-.358-1.066-.175-2.032.141-2.956.375-1.099-.4-2.256-1.556-2.356-3.547-.308-4.771-.774-9.1-3.43-1.191-.741-2.74.125-2.74 1.524 0 .15-.15.25-.283.2-1.923-.758-3.164-2.124-4.33-3.656a1.831 1.831 0 0 0-1.39-.707h-.075c-.524.016-1.04.25-1.39.707-1.174 1.532-2.415 2.898-4.33 3.655a.216.216 0 0 1-.29-.2c0-1.398-1.541-2.264-2.74-1.523-4.33 2.656-5.545 3.122-9.092 3.43-1.157.1-1.94 1.257-1.565 2.356.316.924.508 1.89.141 2.956-.033.108-.158.167-.266.133-2.54-.816-4.996-1.773-7.735-1.848-7.443-.192-10.856 6.394-7.435 12.056 1.707 2.83-.674 7.018-.699 7.285 1.349-.433 2.481-1.474 4.03-1.474.2 0 .291.241.141.366C2.101 33.82-1.038 41.961.935 48.172c.05.15.25.192.358.084.783-.775.932-2.232 2.806-2.398-2.157 1.823 5.878 21.239 8.642 24.27a.792.792 0 0 0 .283.183c1.466.524 2.84 1.298 3.738 2.572 4.038 5.695 8.484 10.624 14.87 13.655.192.091.383-.125.275-.309-2.023-3.28 6.02 2.04 7.893 7.369a.22.22 0 0 0 .125.133c.025.008.05 0 .075-.008.025.008.05.016.075.008a.211.211 0 0 0 .133-.133c1.865-5.329 9.916-10.649 7.893-7.369-.108.184.075.4.266.308 6.394-3.03 10.84-7.959 14.87-13.654.9-1.274 2.273-2.048 3.747-2.572.108-.042.2-.1.274-.184 2.764-3.03 10.807-22.446 8.643-24.27 1.873.167 2.031 1.624 2.813 2.399.109.108.3.066.35-.084 1.973-6.21-1.157-14.353-7.793-20.007z"/></g><g><path fill="#052a26" d="M51.93 33.078c-.091.025-.191.058-.291.075a.23.23 0 0 1-.075.008c-.458 0-1.057-.325-1.79-.958 1.274.367 1.84-.899 3.006-1.465-.092 1.324-.367 2.098-.85 2.34zm1.774-3.722l-.058.033c-2.332-.807-4.105-.308-5.212 1.557h-.009a5.55 5.55 0 0 0-.408.833c-.45 1.04-.74 2.381-.882 4.03 1.24-1.233 2.93-1.458 4.53-1.824.016 0 .033 0 .05-.008.157 0 .332-.042.49-.108.009-.009.017-.009.025-.009.009-.008.017-.008.017-.008 1.623-.408 3.089-1.09 3.78-3.297-.825-.508-1.599-.891-2.323-1.15z"/></g><g><path fill="#052a26" d="M32.132 29.073v-2.914c-1.39.916-1.133 1.915-.708 2.93.233 0 .474-.008.708-.016z"/></g><g><path fill="#052a26" d="M28.443 33.16a.906.906 0 0 1-.216-.024c-.05-.017-.108-.033-.158-.058 0 0-.009-.009-.017-.009-.474-.25-.741-1.024-.824-2.331 1.157.566 1.723 1.832 2.997 1.465-.733.633-1.324.958-1.782.958zm3.13-2.214c-1.115-1.865-2.88-2.364-5.21-1.557l-.06-.033v.05c-.724.258-1.498.641-2.322 1.149.7 2.206 2.156 2.897 3.78 3.297l.008.008a1.345 1.345 0 0 0 .516.117.106.106 0 0 0 .05.008c1.599.366 3.289.591 4.53 1.823-.142-1.648-.434-2.989-.875-4.03a5.51 5.51 0 0 0-.416-.832z"/></g><g><path fill="#052a26" d="M47.867 26.159v2.914c.242.008.475.017.716.017.425-1.016.675-2.015-.716-2.931z"/></g></g></g></g></svg>