<svg xmlns="http://www.w3.org/2000/svg" width="17" height="17" viewBox="0 0 17 17"><g><g><g><g/></g><g><g><g><path fill="#fff" d="M8.546 14.341a6.214 6.214 0 0 1-3.452-1.017l-2.399.654.654-2.326a6.504 6.504 0 0 1-1.126-3.597 6.323 6.323 0 1 1 6.323 6.286zm5.378-11.628A7.595 7.595 0 0 0 .95 8.055a7.195 7.195 0 0 0 1.017 3.779l-1.09 3.925 4.034-1.054a7.376 7.376 0 0 0 3.634.908 7.558 7.558 0 0 0 5.378-12.9z"/></g><g><path fill="#fff" d="M11.998 9.654a10.61 10.61 0 0 0-1.308-.618c-.146-.073-.291-.109-.4.073-.11.181-.509.617-.618.763a.29.29 0 0 1-.4.036 5.523 5.523 0 0 1-1.526-.945 5.45 5.45 0 0 1-1.054-1.308.254.254 0 0 1 .073-.363l.29-.364c.074-.088.135-.186.182-.29a.327.327 0 0 0 0-.327c-.072-.11-.436-1.018-.581-1.417-.145-.4-.327-.328-.436-.328h-.363a.618.618 0 0 0-.51.255c-.438.398-.678.97-.653 1.562a3.78 3.78 0 0 0 .763 1.963c.109.109 1.344 2.035 3.234 2.834.35.168.715.302 1.09.4.387.129.8.154 1.2.072.363-.036 1.126-.436 1.271-.872.145-.436.182-.836.11-.908a.763.763 0 0 0-.364-.218z"/></g></g></g></g></g></svg>