<?xml version="1.0" encoding="UTF-8"?>
<svg id="SVGDoc" width="17" height="12" xmlns="http://www.w3.org/2000/svg" version="1.1" xmlns:xlink="http://www.w3.org/1999/xlink" xmlns:avocode="https://avocode.com/" viewBox="0 0 17 12"><defs></defs><desc>Generated with Avocode.</desc><g><g><title>Caminho 7533</title><path d="M3.78492,4.65291v0v1.68395v0h9.43018v0v-1.68395c0,-0.92818 0.7551,-1.68394 1.68395,-1.68394h0.3368v0v-1.01038c0,-0.55707 -0.45331,-1.01038 -1.01038,-1.01038h-11.45094c-0.55706,0 -1.01038,0.45331 -1.01038,1.01038v1.01038v0h0.3368c0.92885,0 1.68395,0.75576 1.68395,1.68394z" fill="#cc9a59" fill-opacity="1"></path></g><g><title>Caminho 7534</title><path d="M15.57263,3.64255v0h-0.67357c-0.55707,0 -1.01038,0.45331 -1.01038,1.01038v2.02075c0,0.1859 -0.15089,0.33679 -0.3368,0.33679h-10.10376c-0.18591,0 -0.3368,-0.15089 -0.3368,-0.33679v-2.02075c0,-0.55707 -0.45331,-1.01038 -1.01038,-1.01038h-0.67357c-0.55706,0 -1.01038,0.45331 -1.01038,1.01038v4.0415c0,0.55705 0.45331,1.01038 1.01038,1.01038h0.3368v0v1.01038c0,0.1859 0.15089,0.33679 0.3368,0.33679h2.02075c0.18591,0 0.3368,-0.15089 0.3368,-0.33679v-1.01038v0h8.08301v0v1.01038c0,0.1859 0.15089,0.33679 0.3368,0.33679h2.02075c0.18591,0 0.3368,-0.15089 0.3368,-0.33679v-1.01038v0h0.33674c0.55707,0 1.01038,-0.45332 1.01038,-1.01038v-4.0415c0,-0.55704 -0.45331,-1.01038 -1.01038,-1.01038z" fill="#cc9a59" fill-opacity="1"></path></g></g></svg>