<svg xmlns="http://www.w3.org/2000/svg" width="36" height="36" viewBox="0 0 36 36"><g><g><path fill="#f9d0a9" d="M.35 2.264C0 1.656-.07 1.129.14.684.35.24.77.019 1.403.019h4.526c.631 0 1.286.222 1.965.667.678.444 1.193.97 1.544 1.579l5.368 9.404c-2.667.63-4.924 1.964-6.772 4zm28.878 22.49c0 2.036-.497 3.913-1.491 5.633a11.046 11.046 0 0 1-4.088 4.087c-1.732 1.005-3.615 1.508-5.65 1.509-2.034 0-3.917-.503-5.648-1.51a11.063 11.063 0 0 1-4.088-4.087c-.994-1.72-1.491-3.596-1.491-5.632 0-2.036.497-3.92 1.49-5.65A11.025 11.025 0 0 1 12.352 15c1.731-1.007 3.614-1.51 5.649-1.51 2.034.001 3.917.504 5.649 1.51a11.006 11.006 0 0 1 4.088 4.105c.994 1.73 1.49 3.614 1.49 5.649zm6.42-22.49l-7.683 13.404c-1.872-2.036-4.129-3.37-6.772-4l5.368-9.404c.35-.608.865-1.135 1.544-1.58.678-.444 1.333-.666 1.965-.666h4.526c.631 0 1.052.222 1.263.667.21.444.14.97-.211 1.579z"/></g></g></svg>