<svg width="8" height="6" viewBox="0 0 8 6" fill="none" xmlns="http://www.w3.org/2000/svg">
<path d="M0.220994 1.917L3.57599 5.244C3.62573 5.29813 3.68617 5.34134 3.75347 5.3709C3.82077 5.40046 3.89348 5.41572 3.96699 5.41572C4.0405 5.41572 4.11321 5.40046 4.18052 5.3709C4.24782 5.34134 4.30826 5.29813 4.35799 5.244L7.71299 1.917C7.79876 1.84027 7.8588 1.73898 7.88495 1.62691C7.9111 1.51484 7.90209 1.39743 7.85914 1.29067C7.81619 1.1839 7.7414 1.09296 7.64493 1.03022C7.54846 0.967472 7.435 0.935971 7.31999 0.939999H0.612994C0.497847 0.93594 0.38425 0.967497 0.287696 1.03037C0.191142 1.09324 0.116331 1.18436 0.0734642 1.29131C0.0305977 1.39825 0.0217629 1.51582 0.0481648 1.62797C0.0745667 1.74013 0.13492 1.84141 0.220994 1.918V1.917Z" fill="#DBDBDB"/>
</svg>
