<?xml version="1.0" encoding="UTF-8"?>
<svg id="SVGDoc" width="12" height="13" xmlns="http://www.w3.org/2000/svg" version="1.1" xmlns:xlink="http://www.w3.org/1999/xlink" xmlns:avocode="https://avocode.com/" viewBox="0 0 12 13"><defs></defs><desc>Generated with Avocode.</desc><g><g><title>Icon awesome-building</title><path d="M8.13296,2.87917c0,0.16448 -0.13336,0.29784 -0.29785,0.29784h-0.99282c-0.16448,0 -0.29784,-0.13336 -0.29784,-0.29784v-0.99282c0,-0.16448 0.13336,-0.29784 0.29784,-0.29784h0.99282c0.16448,0 0.29785,0.13336 0.29785,0.29784zM8.13296,5.26192c0,0.16448 -0.13336,0.29784 -0.29785,0.29784h-0.99282c-0.16448,0 -0.29784,-0.13336 -0.29784,-0.29784v-0.99282c0,-0.16448 0.13336,-0.29784 0.29784,-0.29784h0.99282c0.16448,0 0.29785,0.13336 0.29785,0.29784zM8.13296,7.64468c0,0.16448 -0.13336,0.29785 -0.29785,0.29785h-0.99282c-0.16448,0 -0.29784,-0.13336 -0.29784,-0.29785v-0.99282c0,-0.16448 0.13336,-0.29784 0.29784,-0.29784h0.99282c0.16448,0 0.29785,0.13336 0.29785,0.29784zM6.54445,11.91379h-1.58851v-2.08491c0,-0.16449 0.13336,-0.29784 0.29784,-0.29784h0.99282c0.16448,0 0.29784,0.13336 0.29784,0.29784zM4.6581,7.94253h-0.99282c-0.16448,0 -0.29784,-0.13336 -0.29784,-0.29785v-0.99282c0,-0.16448 0.13336,-0.29784 0.29784,-0.29784h0.99282c0.16448,0 0.29784,0.13336 0.29784,0.29784v0.99282c0,0.16448 -0.13336,0.29785 -0.29784,0.29785zM3.36744,4.26911c0,-0.16448 0.13336,-0.29784 0.29784,-0.29784h0.99282c0.16448,0 0.29784,0.13336 0.29784,0.29784v0.99282c0,0.16448 -0.13336,0.29784 -0.29784,0.29784h-0.99282c-0.16448,0 -0.29784,-0.13336 -0.29784,-0.29784zM3.36744,1.88635c0,-0.16448 0.13336,-0.29784 0.29784,-0.29784h0.99282c0.16448,0 0.29784,0.13336 0.29784,0.29784v0.99282c0,0.16448 -0.13336,0.29784 -0.29784,0.29784h-0.99282c-0.16448,0 -0.29784,-0.13336 -0.29784,-0.29784zM11.01212,11.91379h-0.49641v-11.3181c0,-0.32899 -0.2667,-0.59569 -0.59569,-0.59569h-8.33965c-0.32899,0 -0.59569,0.2667 -0.59569,0.59569v11.3181h-0.49641c-0.16448,0 -0.29784,0.13336 -0.29784,0.29784v0.49641h11.11954v-0.49641c0,-0.16448 -0.13336,-0.29784 -0.29785,-0.29784z" fill="#cc9a59" fill-opacity="1"></path></g></g></svg>