<svg xmlns="http://www.w3.org/2000/svg" width="42" height="42" viewBox="0 0 42 42"><g><g><path fill="#0e4841" d="M0 21C0 9.402 9.402 0 21 0s21 9.402 21 21-9.402 21-21 21S0 32.598 0 21z"/></g><g><path fill="#fff" d="M25.962 26.583h-3.721v-1.241h3.721zm-4.962 0h-3.722v-1.241H21zm-4.962 0h-1.24v-1.241h1.24zm-1.24-3.722h3.72v1.24h-3.72zm0-2.481h1.24v1.24h-1.24zm0-2.481h3.72v1.24h-3.72zm0-2.481h1.24v1.24h-1.24zm2.48 0H21v1.24h-3.722zm6.203 2.48v1.241H19.76V17.9zm-6.203 3.722v-1.24H21v1.24zm2.481 1.241h3.722v1.24H19.76zm6.203-2.481v1.24h-3.721v-1.24zm1.24 6.203v-1.241h1.241v-1.24h-3.721V22.86h3.721v-1.24h-1.24v-2.482h-2.481v-2.48H22.24v-2.482h-8.684v13.646h14.886v-1.24z"/></g></g></svg>