<svg xmlns="http://www.w3.org/2000/svg" width="42" height="42" viewBox="0 0 42 42"><g><g><path fill="#0e4841" d="M0 21C0 9.402 9.402 0 21 0s21 9.402 21 21-9.402 21-21 21S0 32.598 0 21z"/></g><g><path fill="#fff" d="M20.694 24.72l-4.226-1.81-1.025-3.42h10.482zm-3.959 2.618v-2.67l1.385.592zm3.871-13.484c.152-.26.393-.404.659-.404.265 0 .507.144.646.384l2.487 4.146h-6.267zm5.189 13.186a.755.755 0 1 1 0 1.51.755.755 0 0 1 0-1.51zm2.265-9.06h-1.9l-2.942-4.902a2.255 2.255 0 0 0-1.953-1.138c-.838 0-1.562.461-1.953 1.137L16.37 17.98h-1.38l-.906-3.02H9.94v1.51h3.02l2.265 7.55v6.04h1.51l2.796-4.195 4.02 1.724c-.007.067-.021.135-.021.206a2.265 2.265 0 1 0 2.265-2.265c-.635 0-1.207.262-1.619.684l-1.988-.852 5.872-5.872z"/></g></g></svg>