<?xml version="1.0" encoding="UTF-8"?>
<svg id="SVGDoc" width="18" height="9" xmlns="http://www.w3.org/2000/svg" version="1.1" xmlns:xlink="http://www.w3.org/1999/xlink" xmlns:avocode="https://avocode.com/" viewBox="0 0 18 9"><defs></defs><desc>Generated with Avocode.</desc><g><g><title>Icon awesome-ruler-horizontal</title><path d="M16.76042,0v0h-1.4082v0v3.00447c0,0.15091 -0.10503,0.27313 -0.2347,0.27313h-0.4694c-0.12967,0 -0.2347,-0.12223 -0.2347,-0.27313v-3.00447v0h-1.8776v0v3.00447c0,0.15091 -0.10503,0.27313 -0.2347,0.27313h-0.4694c-0.12967,0 -0.2347,-0.12223 -0.2347,-0.27313v-3.00447v0h-1.8776v0v3.00447c0,0.15091 -0.10503,0.27313 -0.2347,0.27313h-0.4694c-0.12967,0 -0.2347,-0.12223 -0.2347,-0.27313v-3.00447v0h-1.8776v0v3.00447c0,0.15091 -0.10503,0.27313 -0.2347,0.27313h-0.4694c-0.12967,0 -0.2347,-0.12223 -0.2347,-0.27313v-3.00447v0h-1.8776v0v3.00447c0,0.15091 -0.10503,0.27313 -0.2347,0.27313h-0.4694c-0.12967,0 -0.2347,-0.12223 -0.2347,-0.27313v-3.00447v0h-1.4082c-0.51839,0 -0.9388,0.48925 -0.9388,1.09253v6.5552c0,0.60328 0.42041,1.09254 0.9388,1.09254h15.02083c0.51839,0 0.9388,-0.48925 0.9388,-1.09254v-6.5552c0,-0.60328 -0.42041,-1.09253 -0.9388,-1.09253z" fill="#cc9a59" fill-opacity="1"></path></g></g></svg>