<?xml version="1.0" encoding="UTF-8"?>
<svg id="SVGDoc" width="16" height="13" xmlns="http://www.w3.org/2000/svg" version="1.1" xmlns:xlink="http://www.w3.org/1999/xlink" xmlns:avocode="https://avocode.com/" viewBox="0 0 16 13"><defs></defs><desc>Generated with Avocode.</desc><g><g><title>Icon awesome-car-alt</title><path d="M13.44629,8.16549c-0.61289,0 -1.53223,0.10183 -1.53223,-0.50915c0,-0.61098 0.91934,-1.52744 1.53223,-1.52744c0.61289,0 1.02148,0.40732 1.02148,1.01829c0,0.61098 -0.40859,1.01829 -1.02148,1.01829zM3.23145,8.16549c-0.61289,0 -1.02148,-0.40732 -1.02148,-1.01829c0,-0.61097 0.40859,-1.01829 1.02148,-1.01829c0.61289,0 1.53223,0.91646 1.53223,1.52744c0,0.61097 -0.91934,0.50915 -1.53223,0.50915zM4.88912,3.00604c0.23271,-0.58161 0.79612,-0.96307 1.42274,-0.96307h4.05402c0.62662,0 1.19003,0.38146 1.42274,0.96307l0.63619,1.59064h-8.17188zM14.68037,4.7349l-0.3588,-0.89699l-0.63619,-1.59064c-0.54618,-1.36528 -1.84889,-2.24727 -3.3195,-2.24727h-4.05402c-1.4703,0 -2.77333,0.88199 -3.31951,2.24727l-0.63619,1.59064l-0.3588,0.89699c-0.76994,0.29272 -1.31963,1.03202 -1.31963,1.90475v1.53223c0,0.51457 0.19664,0.97903 0.51074,1.33846v1.72599c0,0.56405 0.45743,1.02148 1.02148,1.02148h1.02148c0.56405,0 1.02148,-0.45743 1.02148,-1.02148v-1.02148h8.17188v1.02148c0,0.56405 0.45743,1.02148 1.02148,1.02148h1.02148c0.56405,0 1.02148,-0.45743 1.02148,-1.02148v-1.72599c0.31411,-0.35912 0.51074,-0.82357 0.51074,-1.33846v-1.53223c0,-0.87273 -0.54968,-1.61203 -1.31963,-1.90475z" fill="#cc9a59" fill-opacity="1"></path></g></g></svg>