<svg xmlns="http://www.w3.org/2000/svg" width="48" height="48" viewBox="0 0 48 48"><defs><clipPath id="wc6ea"><path fill="#fff" d="M0 48V0h48v48z"/></clipPath></defs><g><g><path fill="none" stroke="#fff" stroke-miterlimit="20" stroke-width="2" d="M0 48v0V0v0h48v48z" clip-path="url(&quot;#wc6ea&quot;)"/></g><g><path fill="#fff" d="M28.78 18.145c-.593 0-1.074.482-1.074 1.075a1.076 1.076 0 0 0 2.15 0c0-.593-.482-1.075-1.075-1.075zM24 26.985a2.985 2.985 0 1 1 0-5.97 2.985 2.985 0 1 1 0 5.97zm0-7.584a4.6 4.6 0 1 0 0 9.199 4.6 4.6 0 0 0 0-9.199zm0-2.745c2.39 0 2.675.012 3.62.053.873.041 1.347.185 1.661.31.42.162.717.356 1.032.668.312.314.506.611.668 1.03.123.316.27.79.308 1.662.043.945.053 1.229.053 3.62 0 2.392-.011 2.676-.056 3.62-.045.874-.19 1.348-.313 1.662-.146.389-.375.741-.672 1.032-.29.296-.641.525-1.03.668-.313.123-.794.27-1.668.308-.951.043-1.231.053-3.626.053-2.397 0-2.677-.011-3.627-.056-.874-.045-1.355-.19-1.669-.314a2.774 2.774 0 0 1-1.03-.67 2.72 2.72 0 0 1-.671-1.03c-.123-.314-.268-.795-.313-1.67-.034-.94-.046-1.23-.046-3.615 0-2.385.012-2.676.046-3.627.045-.874.19-1.354.313-1.668a2.65 2.65 0 0 1 .672-1.03 2.652 2.652 0 0 1 1.03-.67c.313-.124.783-.27 1.657-.314.952-.034 1.232-.045 3.627-.045l.033.022zm0-1.612c-2.434 0-2.737.01-3.693.054-.953.044-1.603.195-2.174.416a4.383 4.383 0 0 0-1.587 1.033 4.379 4.379 0 0 0-1.033 1.587c-.221.57-.372 1.22-.416 2.174-.045.956-.054 1.26-.054 3.692 0 2.434.01 2.737.054 3.693.044.953.195 1.603.416 2.174.225.598.578 1.14 1.033 1.587a4.38 4.38 0 0 0 1.587 1.033c.572.22 1.221.372 2.174.416.956.045 1.26.054 3.692.054 2.434 0 2.737-.011 3.693-.054.953-.045 1.603-.195 2.174-.416a4.402 4.402 0 0 0 1.587-1.033 4.374 4.374 0 0 0 1.033-1.587c.22-.57.372-1.221.416-2.174.045-.955.054-1.259.054-3.693 0-2.433-.011-2.736-.054-3.692-.045-.953-.195-1.604-.416-2.174a4.396 4.396 0 0 0-1.033-1.587 4.364 4.364 0 0 0-1.587-1.033c-.57-.222-1.221-.372-2.174-.416-.956-.045-1.26-.054-3.693-.054z"/></g></g></svg>