<svg xmlns="http://www.w3.org/2000/svg" width="48" height="48" viewBox="0 0 48 48"><defs><clipPath id="a7gla"><path fill="#fff" d="M0 48V0h48v48z"/></clipPath></defs><g><g><path fill="none" stroke="#fff" stroke-miterlimit="20" stroke-width="2" d="M0 48v0V0v0h48v48z" clip-path="url(&quot;#a7gla&quot;)"/></g><g><path fill="#fff" d="M18.407 22.127h2.704v8.136h-2.704zm9.343-.192c1.78 0 3.113 1.163 3.113 3.662v4.666h-2.704V25.91c0-1.093-.391-1.84-1.37-1.84-.747 0-1.192.503-1.388.989-.071.174-.089.416-.089.66v4.544h-2.704s.035-7.373 0-8.137h2.704v1.153c.36-.555 1.002-1.343 2.437-1.343zm-7.973-3.731c.925 0 1.495.607 1.513 1.406 0 .78-.588 1.405-1.53 1.405h-.018c-.908 0-1.495-.625-1.495-1.405 0-.799.605-1.406 1.53-1.406zm-.883-2.955a3.52 3.52 0 0 0-3.508 3.51v10.887c0 1.93 1.58 3.508 3.509 3.508h10.888a3.518 3.518 0 0 0 3.508-3.508V18.758a3.52 3.52 0 0 0-3.508-3.509z"/></g></g></svg>