<svg xmlns="http://www.w3.org/2000/svg" width="214" height="34" viewBox="0 0 214 34"><g><g><g><g><g><g><path fill="#fff" d="M14.735 11.845l-3.151 3.997h5.044l1.896 2.315H6.537l8.199-10.31 6.1 7.785 1.895-2.312 1.685-2.103h2.942l-5.257 6.73v7.776h-2.53v-7.776l-4.835-6.102zm18.37 21.457V.697H.5v32.605z"/></g><g><path fill="#fff" d="M201.992 5.289h6.041v23.847h-6.04z"/></g><g><path fill="#fff" d="M192.051 5.289h6.05v23.847h-6.05z"/></g><g><path fill="#fff" d="M162.616 5.289h6.041v8.918h13.462V5.289h6.044v23.847h-6.044V20.36h-13.462v8.776h-6.04z"/></g><g><path fill="#fff" d="M140.002 21.055c0 1.283.296 2.087.813 2.424.335.207 1.097.334 2.28.394l1.718.059h6.026c1.248-.045 1.869-.663 1.836-1.863-.026-1.056-.437-1.659-1.26-1.81-.215-.017-.626-.05-1.22-.091l-1.216-.06-3.64-.174-1.774-.127-3.022-.186c-.942-.034-1.88-.14-2.806-.32-1.717-.343-2.767-1.368-3.152-3.075a12.288 12.288 0 0 1-.366-3.11c0-2.014.15-3.48.461-4.394.517-1.523 1.375-2.531 2.555-3.007 1.18-.476 3.645-.722 7.377-.704 2.002 0 3.906.065 5.698.16 2.618.124 4.478.518 5.582 1.182 1.384.831 2.114 2.55 2.22 5.172v1.608h-6.037l-.1-.872c-.128-.804-.48-1.322-1.041-1.531a7.02 7.02 0 0 0-1.718-.193l-1.635-.085h-3.549l-1.567.059a4.057 4.057 0 0 0-1.182.219c-.663.183-1 .736-1.009 1.65-.009.913.388 1.525 1.224 1.774.44.103.89.163 1.343.177l1.576.041 5.559.222 3.234.16c.877.059 1.74.245 2.564.553 1.971.788 2.957 3.07 2.957 6.848-.024 4.189-1.619 6.524-4.784 7.004-.574.096-1.154.149-1.736.16a53.023 53.023 0 0 1-4.015.1 326.03 326.03 0 0 1-6.547-.174 30.481 30.481 0 0 1-2.247-.145c-1.774-.142-3.107-.683-3.998-1.623-.804-.849-1.265-2.425-1.375-4.73l-.065-1.669h6.05z"/></g><g><path fill="#fff" d="M113.908 23.169c-2.02 0-3.229-.228-3.69-.662-.603-.589-.922-2.005-.922-4.258-.016-3.178.16-5.098.529-5.76.41-.736 1.123-1.147 2.111-1.224.813-.05 1.626-.083 2.448-.1h2.18c1.493.008 2.782.035 3.873.058a6.893 6.893 0 0 1 1.934.329c.801.25 1.286.946 1.478 2.07.12.966.177 1.94.169 2.915-.002 2.677-.17 4.41-.503 5.198a2.215 2.215 0 0 1-1.736 1.398 10.26 10.26 0 0 1-2.161.128zm6.662 6.212c1.65.033 2.682.024 3.075 0 2.817-.059 4.695-1.37 5.633-3.932.319-.864.524-1.766.612-2.682.1-1.139.168-2.514.168-4.122l-.05-3.933c-.009-1.457-.059-2.613-.142-3.477-.301-2.818-1.502-4.672-3.604-5.559-.978-.41-3.018-.628-6.12-.653H115.8c-4.765.01-7.712.266-8.841.769a5.237 5.237 0 0 0-3.043 3.654 24.54 24.54 0 0 0-.63 5.266l-.03 3.102c.007 3.729.285 6.31.82 7.744.218.597.536 1.152.94 1.641.997 1.274 2.43 1.97 4.317 2.07.852.074 1.708.102 2.564.086z"/></g><g><path fill="#fff" d="M80.818 5.289l6.523 9.589 6.529-9.59h7.753l-11.29 15.524v8.324H84.29v-8.324L73.033 5.29z"/></g><g><path fill="#fff" d="M78.077 22.465v6.67h-5.816v-6.67z"/></g><g><path fill="#fff" d="M53.663 11.342l3.604 8.14H49.9zm-3.88-6.053L38.829 29.136h6.875l1.774-4.09h12.244l1.854 4.09h6.851L57.486 5.289z"/></g><g><path fill="#fff" d="M211.773 5.682a1.384 1.384 0 1 1-1.383 1.384 1.384 1.384 0 0 1 1.384-1.399zm-.431 1.224v-.46h.565c.05.012.095.037.133.073a.234.234 0 0 1 .05.15.228.228 0 0 1-.033.137.213.213 0 0 1-.1.074 1.138 1.138 0 0 1-.325.026h-.27zm-.35 1.044h.353v-.754h.077a.514.514 0 0 1 .183.018c.04.018.077.043.11.074.068.086.132.176.192.269l.269.393h.434l-.216-.352a3.424 3.424 0 0 0-.21-.295 1.243 1.243 0 0 0-.195-.151.592.592 0 0 0 .361-.169.485.485 0 0 0 .118-.334.547.547 0 0 0-.074-.296.43.43 0 0 0-.21-.174 1.293 1.293 0 0 0-.42-.05h-.771zm-.963-.899a1.736 1.736 0 1 0 3.471 0 1.736 1.736 0 0 0-3.471 0z"/></g></g></g></g></g></g></svg>