<svg xmlns="http://www.w3.org/2000/svg" width="143" height="23" viewBox="0 0 143 23"><g><g><g><g><g><g><path fill="#fff" d="M9.557 8.04L7.44 10.722h3.387l1.272 1.554H4.053l5.504-6.922 4.096 5.226 1.272-1.552 1.131-1.411h1.976l-3.53 4.518v5.22h-1.7v-5.22L9.559 8.039zM21.89 22.444V.555H0v21.89z"/></g><g><path fill="#fff" d="M135.274 3.638h4.056v16.01h-4.056z"/></g><g><path fill="#fff" d="M128.6 3.638h4.062v16.01H128.6z"/></g><g><path fill="#fff" d="M108.839 3.638h4.055v5.987h9.038V3.638h4.058v16.01h-4.058v-5.892h-9.038v5.892h-4.055z"/></g><g><path fill="#fff" d="M93.657 14.222c0 .862.198 1.402.546 1.628.224.139.736.224 1.53.264l1.153.04h4.046c.838-.03 1.255-.445 1.233-1.25-.018-.71-.294-1.114-.846-1.216-.145-.012-.42-.033-.82-.061l-.816-.04-2.443-.117-1.191-.085-2.03-.125a12.173 12.173 0 0 1-1.883-.215c-1.153-.23-1.858-.918-2.116-2.064a8.25 8.25 0 0 1-.246-2.089c0-1.352.1-2.336.31-2.95.347-1.022.922-1.699 1.715-2.018.792-.32 2.447-.485 4.952-.473 1.344 0 2.623.044 3.826.107 1.757.084 3.006.348 3.748.794.929.558 1.419 1.712 1.49 3.472v1.08h-4.053l-.068-.585c-.085-.54-.321-.888-.699-1.029a4.713 4.713 0 0 0-1.153-.129l-1.098-.057h-2.382l-1.052.04c-.27.009-.538.058-.794.146-.445.123-.67.495-.677 1.108-.006.613.26 1.024.822 1.191.296.07.598.11.901.12l1.058.027 3.732.149 2.172.107c.589.04 1.168.165 1.721.371 1.323.53 1.985 2.062 1.985 4.598-.016 2.812-1.086 4.38-3.212 4.702a8.07 8.07 0 0 1-1.165.108c-.883.055-1.787.08-2.696.067-.984-.012-2.45-.05-4.395-.117a20.456 20.456 0 0 1-1.508-.097c-1.191-.096-2.086-.459-2.684-1.09-.54-.57-.85-1.628-.923-3.176l-.044-1.12h4.061z"/></g><g><path fill="#fff" d="M76.138 15.642c-1.356 0-2.168-.153-2.477-.445-.405-.395-.62-1.346-.62-2.859-.01-2.133.108-3.422.356-3.867.276-.494.754-.77 1.417-.821a40.902 40.902 0 0 1 1.644-.068h1.463c1.002.006 1.868.024 2.6.04.441.011.878.085 1.298.22.538.169.864.635.993 1.39.08.649.118 1.303.113 1.957-.001 1.797-.114 2.96-.337 3.49-.192.5-.637.858-1.166.939-.479.08-.965.108-1.45.085zm4.472 4.17c1.108.022 1.8.016 2.065 0 1.891-.04 3.152-.92 3.782-2.64.214-.58.352-1.185.41-1.8.068-.765.114-1.688.114-2.768l-.034-2.64a27.212 27.212 0 0 0-.095-2.334c-.203-1.892-1.009-3.137-2.42-3.732-.657-.275-2.026-.422-4.11-.439h-2.914c-3.198.007-5.177.179-5.935.516A3.516 3.516 0 0 0 69.43 6.43a16.474 16.474 0 0 0-.422 3.535l-.02 2.083c.004 2.503.19 4.236.55 5.199.146.4.36.773.63 1.101.67.856 1.633 1.322 2.9 1.39.571.05 1.146.069 1.72.057z"/></g><g><path fill="#fff" d="M53.923 3.638l4.379 6.437 4.383-6.437h5.205L60.31 14.06v5.588h-4.057V14.06L48.696 3.638z"/></g><g><path fill="#fff" d="M52.083 15.17v4.478h-3.905v-4.479z"/></g><g><path fill="#fff" d="M35.692 7.701l2.42 5.465h-4.948zm-2.605-4.063l-7.355 16.01h4.616l1.19-2.746h8.221l1.245 2.746h4.6l-7.346-16.01z"/></g><g><path fill="#fff" d="M141.841 3.902a.929.929 0 1 1-.93.929.93.93 0 0 1 .93-.94zm-.29.822v-.31h.38a.199.199 0 0 1 .089.05.157.157 0 0 1 .033.1.153.153 0 0 1-.021.092.143.143 0 0 1-.068.05.764.764 0 0 1-.218.018zm-.234.7h.236v-.506h.052a.345.345 0 0 1 .123.012c.027.012.052.03.073.05.046.058.09.118.13.18l.18.264h.292l-.145-.236a2.295 2.295 0 0 0-.141-.198.834.834 0 0 0-.131-.102.397.397 0 0 0 .242-.113.325.325 0 0 0 .08-.224.367.367 0 0 0-.05-.199.288.288 0 0 0-.141-.117.867.867 0 0 0-.282-.034h-.518v1.215zm-.647-.603a1.165 1.165 0 1 0 2.33 0 1.165 1.165 0 0 0-2.33 0z"/></g></g></g></g></g></g></svg>