<svg xmlns="http://www.w3.org/2000/svg" width="52" height="27" viewBox="0 0 52 27"><g><g><g><g><path fill="#fff" d="M3.454 17.13C1.478 17.13.27 15.851.27 13.086V.442C.27.325.34.255.456.255h.836c.14 0 .21.07.21.187v12.713c0 2.022.743 2.836 2.045 2.836.302 0 .79-.047 1.208-.093.117 0 .186.046.186.186v.72c0 .117-.046.21-.162.233a13.1 13.1 0 0 1-1.325.093z"/></g></g><g><g><path fill="#fff" d="M9.866 12.671V9.138c0-1.929 1.255-3.347 3.696-3.347 2.487 0 3.719 1.418 3.719 3.347v3.533c0 1.93-1.232 3.347-3.72 3.347-2.44 0-3.695-1.418-3.695-3.347zm8.646 0V9.138c0-2.556-1.79-4.486-4.95-4.486-3.138 0-4.951 1.93-4.951 4.486v3.533c0 2.58 1.813 4.463 4.95 4.463 3.162 0 4.951-1.883 4.951-4.463z"/></g></g><g><g><path fill="#fff" d="M25.766 16.715L22.163 5.14c-.023-.14.023-.232.163-.232h.883c.116 0 .186.046.209.162l2.301 7.485c.302.953.512 1.906.767 2.859h.023c.256-.884.489-1.86.744-2.65l2.44-7.461a.204.204 0 0 1 .21-.163h.953c.116 0 .186.07.21.163l2.44 7.46c.255.79.488 1.767.743 2.65h.024c.186-.697.58-2.114.767-2.858l2.3-7.485c.024-.116.094-.162.21-.162h.883c.116 0 .186.093.14.232l-3.58 11.575c-.046.093-.093.163-.209.163h-1.046c-.116 0-.163-.07-.21-.163l-2.602-8.088c-.186-.581-.349-1.279-.535-1.93h-.023c-.186.651-.349 1.349-.535 1.93l-2.626 8.088c-.024.093-.07.163-.186.163h-1.046c-.116 0-.163-.07-.21-.163z"/></g></g><g><g><path fill="#fff" d="M47.012 5.787c2.046 0 3.51 1.162 3.51 3.37v1.326h-7.02V9.158c0-2.232 1.395-3.37 3.51-3.37zm4.718 3.37c0-2.974-2.091-4.509-4.718-4.509-2.65 0-4.764 1.535-4.764 4.51v3.672c0 2.766 2.277 4.3 4.741 4.3 1.976 0 3.417-.814 4.486-1.743.116-.093.116-.186.023-.28l-.418-.534c-.07-.116-.163-.116-.28-.046-.859.744-2.045 1.487-3.788 1.487-1.929 0-3.51-1.162-3.51-3.184v-1.302h8.02c.115 0 .208-.07.208-.186z"/></g></g><g><g><path fill="#fff" d="M2.68 23.36v.385H.64v-.385c0-.649.405-.98 1.02-.98.595 0 1.02.338 1.02.98zm.352 0c0-.865-.609-1.311-1.372-1.311-.77 0-1.385.446-1.385 1.31v1.069c0 .804.662 1.25 1.378 1.25.575 0 .993-.237 1.304-.507.034-.027.034-.054.007-.081l-.121-.156c-.02-.033-.048-.033-.082-.013-.25.216-.594.432-1.101.432-.561 0-1.02-.337-1.02-.925v-.379h2.33c.035 0 .062-.02.062-.054z"/></g><g><path fill="#fff" d="M7.012 22.049c.811 0 1.352.466 1.352 1.324v2.176c0 .034-.02.054-.061.054H8.06c-.034 0-.054-.02-.054-.054v-2.19c0-.62-.352-.986-1-.986-.338 0-.642.115-.866.27.102.196.163.44.163.724v2.182c0 .034-.027.054-.061.054h-.243c-.034 0-.055-.02-.055-.054v-2.19c0-.62-.277-.986-.925-.986-.311 0-.568.068-.811.17v3.006c0 .034-.02.054-.054.054H3.91c-.033 0-.06-.02-.06-.054v-3.17c0-.033.013-.06.047-.073a2.694 2.694 0 0 1 1.115-.257c.412 0 .716.121.94.338.31-.21.648-.338 1.06-.338z"/></g><g><path fill="#fff" d="M10.62 25.353c-.344 0-.682-.114-.945-.297v-2.52c.27-.102.601-.163.946-.163.696 0 1.102.325 1.102 1.129v.73c0 .783-.393 1.121-1.102 1.121zm.008-3.304c-.44 0-.892.094-1.27.243-.028.014-.041.034-.041.068v4.473c0 .034.027.054.06.054h.244c.034 0 .054-.02.054-.054v-1.426c.263.163.608.27.966.27.879 0 1.447-.493 1.447-1.445v-.73c0-1.007-.582-1.453-1.46-1.453z"/></g><g><path fill="#fff" d="M13 25.603c-.034 0-.06-.02-.06-.054v-3.19a.07.07 0 0 1 .046-.067c.332-.155.75-.243 1.142-.243.224 0 .46.027.69.06.04.007.054.028.054.061v.21c0 .034-.027.054-.061.047a4.042 4.042 0 0 0-.642-.054c-.31 0-.628.061-.872.162v3.014c0 .034-.02.054-.054.054z"/></g><g><path fill="#fff" d="M16.609 22.38c.594 0 1.02.338 1.02.98v.385h-2.04v-.385c0-.649.405-.98 1.02-.98zm1.372.98c0-.865-.609-1.311-1.372-1.311-.77 0-1.386.446-1.386 1.31v1.069c0 .804.663 1.25 1.379 1.25.574 0 .993-.237 1.304-.507.034-.027.034-.054.007-.081l-.122-.156c-.02-.033-.047-.033-.08-.013-.25.216-.595.432-1.102.432-.561 0-1.02-.337-1.02-.925v-.379h2.33c.035 0 .062-.02.062-.054z"/></g><g><path fill="#fff" d="M21.096 23.36v.385h-2.041v-.385c0-.649.405-.98 1.02-.98.595 0 1.021.338 1.021.98zm.352 0c0-.865-.609-1.311-1.373-1.311-.77 0-1.385.446-1.385 1.31v1.069c0 .804.663 1.25 1.379 1.25.574 0 .993-.237 1.304-.507.034-.027.034-.054.007-.081l-.122-.156c-.02-.033-.047-.033-.08-.013-.251.216-.596.432-1.103.432-.56 0-1.02-.337-1.02-.925v-.379h2.331c.035 0 .062-.02.062-.054z"/></g><g><path fill="#fff" d="M22.326 25.603c-.034 0-.061-.02-.061-.054v-3.17a.07.07 0 0 1 .047-.067 3.165 3.165 0 0 1 1.257-.263c.9 0 1.467.446 1.467 1.405v2.095c0 .034-.02.054-.054.054h-.244c-.033 0-.06-.02-.06-.054v-2.081c0-.757-.4-1.088-1.109-1.088-.337 0-.682.068-.946.162v3.007c0 .034-.02.054-.054.054z"/></g><g><path fill="#fff" d="M26.232 24.225v-.73c0-.784.399-1.122 1.102-1.122.351 0 .682.115.946.29v2.535a2.872 2.872 0 0 1-.94.155c-.703 0-1.108-.324-1.108-1.128zm2.048-1.906a1.902 1.902 0 0 0-.973-.27c-.872 0-1.44.493-1.44 1.446v.73c0 1.007.581 1.453 1.466 1.453.433 0 .886-.095 1.258-.243.034-.008.047-.034.047-.061v-4.548c0-.034-.02-.055-.06-.055h-.244c-.034 0-.054.02-.054.055z"/></g><g><path fill="#fff" d="M29.686 25.603c-.035 0-.055-.02-.055-.054v-3.365c0-.04.02-.06.055-.06h.25c.033 0 .054.02.054.06v3.365c0 .034-.02.054-.054.054zm.128-4.196a.233.233 0 0 1-.244-.237c0-.142.102-.243.244-.243.135 0 .236.101.236.243a.23.23 0 0 1-.236.237z"/></g><g><path fill="#fff" d="M34.139 22.049c.811 0 1.351.466 1.351 1.324v2.176c0 .034-.02.054-.06.054h-.243c-.034 0-.055-.02-.055-.054v-2.19c0-.62-.351-.986-1-.986-.338 0-.642.115-.865.27.101.196.162.44.162.724v2.182c0 .034-.027.054-.06.054h-.244c-.034 0-.054-.02-.054-.054v-2.19c0-.62-.277-.986-.926-.986-.31 0-.567.068-.81.17v3.006c0 .034-.021.054-.054.054h-.244c-.034 0-.06-.02-.06-.054v-3.17c0-.033.013-.06.046-.073a2.694 2.694 0 0 1 1.115-.257c.413 0 .717.121.94.338.31-.21.649-.338 1.06-.338z"/></g><g><path fill="#fff" d="M38.741 23.36v.385h-2.04v-.385c0-.649.405-.98 1.02-.98.595 0 1.02.338 1.02.98zm.352 0c0-.865-.608-1.311-1.372-1.311-.77 0-1.386.446-1.386 1.31v1.069c0 .804.663 1.25 1.38 1.25.574 0 .993-.237 1.303-.507.034-.027.034-.054.007-.081l-.122-.156c-.02-.033-.047-.033-.08-.013-.25.216-.595.432-1.102.432-.561 0-1.02-.337-1.02-.925v-.379h2.331c.033 0 .06-.02.06-.054z"/></g><g><path fill="#fff" d="M39.971 25.603c-.034 0-.06-.02-.06-.054v-3.17a.07.07 0 0 1 .046-.067 3.165 3.165 0 0 1 1.257-.263c.9 0 1.467.446 1.467 1.405v2.095c0 .034-.02.054-.054.054h-.243c-.034 0-.061-.02-.061-.054v-2.081c0-.757-.4-1.088-1.109-1.088-.337 0-.682.068-.945.162v3.007c0 .034-.02.054-.055.054z"/></g><g><path fill="#fff" d="M44.729 25.34c.088 0 .243-.007.371-.014.034-.006.055.014.055.054v.217c0 .033-.014.054-.055.06-.121.014-.29.02-.385.02-.662 0-1.095-.398-1.095-1.148v-3.217c0-.034.02-.054.055-.054h.216c.034 0 .054.02.06.054l.02.825h1.035c.034 0 .054.027.054.06v.21c0 .033-.02.054-.054.054h-1.027v2.054c0 .514.257.825.75.825z"/></g><g><path fill="#fff" d="M45.938 24.38v-1.027c0-.561.365-.973 1.075-.973.723 0 1.081.412 1.081.973v1.027c0 .561-.358.973-1.081.973-.71 0-1.075-.412-1.075-.973zm2.514 0v-1.027c0-.743-.52-1.304-1.44-1.304-.912 0-1.439.56-1.439 1.304v1.027c0 .75.527 1.298 1.44 1.298.919 0 1.44-.548 1.44-1.298z"/></g><g><path fill="#fff" d="M50.412 25.678c-.486 0-.926-.149-1.304-.44-.034-.02-.034-.047-.02-.074l.114-.19c.02-.033.048-.04.082-.013.338.25.716.392 1.135.392.554 0 .946-.236.946-.675 0-.48-.5-.581-.946-.676-.527-.102-1.277-.304-1.277-1.027 0-.609.574-.926 1.25-.926.466 0 .831.128 1.183.324.033.02.04.047.02.081l-.108.183c-.014.027-.048.04-.081.02a2.081 2.081 0 0 0-1.028-.277c-.527 0-.885.223-.885.595 0 .466.487.594.994.702.58.122 1.243.27 1.243.987 0 .622-.507 1.014-1.318 1.014z"/></g></g></g></g></svg>