<svg xmlns="http://www.w3.org/2000/svg" width="141" height="52" viewBox="0 0 141 52"><g><g><g><g><g><g><path fill="#fff" d="M54.273 34.25c-3.549 0-5.72-2.297-5.72-7.266V4.27c0-.21.125-.334.335-.334h1.503c.25 0 .375.125.375.334v22.84c0 3.632 1.337 5.094 3.675 5.094.543 0 1.42-.084 2.17-.167.21 0 .335.083.335.333v1.295c0 .209-.084.376-.292.418-.71.083-1.712.167-2.38.167z"/></g></g><g><g><path fill="#fff" d="M65.792 26.24v-6.347c0-3.466 2.255-6.013 6.64-6.013 4.467 0 6.68 2.547 6.68 6.013v6.347c0 3.465-2.213 6.012-6.68 6.012-4.385 0-6.64-2.547-6.64-6.012zm15.533 0v-6.347c0-4.593-3.215-8.059-8.894-8.059-5.637 0-8.893 3.466-8.893 8.059v6.347c0 4.634 3.256 8.017 8.893 8.017 5.68 0 8.894-3.383 8.894-8.017z"/></g></g><g><g><path fill="#fff" d="M94.356 33.504l-6.473-20.793c-.041-.251.042-.418.293-.418h1.586c.21 0 .334.084.376.292l4.134 13.445c.542 1.712.918 3.424 1.377 5.136h.042c.46-1.587.878-3.34 1.337-4.76l4.384-13.403a.366.366 0 0 1 .376-.292h1.711c.21 0 .335.125.377.292l4.384 13.403c.459 1.42.876 3.173 1.336 4.76h.041c.335-1.252 1.044-3.8 1.378-5.136l4.134-13.445c.042-.208.167-.292.376-.292h1.586c.21 0 .335.167.25.418l-6.43 20.793c-.083.167-.166.293-.375.293h-1.879c-.209 0-.292-.126-.376-.293l-4.676-14.53c-.334-1.044-.627-2.297-.96-3.466h-.042c-.334 1.17-.626 2.422-.96 3.466l-4.719 14.53c-.041.167-.125.293-.334.293h-1.879c-.208 0-.292-.126-.375-.293z"/></g></g><g><g><path fill="#fff" d="M132.524 13.874c3.674 0 6.305 2.087 6.305 6.054v2.38h-12.61v-2.38c0-4.009 2.505-6.054 6.305-6.054zM141 19.928c0-5.345-3.758-8.1-8.476-8.1-4.76 0-8.56 2.755-8.56 8.1v6.597c0 4.969 4.092 7.725 8.518 7.725 3.55 0 6.138-1.462 8.059-3.132.209-.167.209-.334.042-.501l-.752-.96c-.125-.21-.292-.21-.501-.084-1.545 1.336-3.675 2.672-6.806 2.672-3.466 0-6.305-2.087-6.305-5.72v-2.339h14.406c.208 0 .375-.125.375-.333z"/></g></g><g><g><path fill="#fff" d="M52.884 45.441v.692h-3.666v-.692c0-1.165.728-1.76 1.833-1.76 1.068 0 1.833.607 1.833 1.76zm.632 0c0-1.554-1.093-2.355-2.465-2.355-1.384 0-2.489.801-2.489 2.355v1.918c0 1.445 1.19 2.246 2.477 2.246 1.032 0 1.784-.425 2.342-.91.062-.049.062-.098.013-.146l-.218-.28c-.037-.06-.085-.06-.146-.024-.45.39-1.068.778-1.979.778-1.008 0-1.833-.607-1.833-1.664v-.68h4.188c.061 0 .11-.036.11-.097z"/></g><g><path fill="#fff" d="M60.667 43.086c1.456 0 2.427.838 2.427 2.38v3.908c0 .061-.036.098-.11.098h-.436c-.06 0-.097-.037-.097-.098v-3.933c0-1.117-.632-1.773-1.797-1.773a2.75 2.75 0 0 0-1.554.486c.182.352.292.79.292 1.3v3.92c0 .061-.049.098-.11.098h-.437c-.06 0-.097-.037-.097-.098v-3.933c0-1.117-.498-1.773-1.663-1.773a3.66 3.66 0 0 0-1.457.304v5.402c0 .061-.036.098-.097.098h-.437c-.06 0-.11-.037-.11-.098v-5.693c0-.06.025-.11.086-.133.619-.28 1.287-.462 2.003-.462.74 0 1.287.218 1.687.607.559-.377 1.166-.607 1.907-.607z"/></g><g><path fill="#fff" d="M69.128 47.008c0 1.408-.704 2.015-1.98 2.015a3.032 3.032 0 0 1-1.698-.535V43.96a4.93 4.93 0 0 1 1.699-.292c1.25 0 1.979.583 1.979 2.028zm-1.967-3.922c-.79 0-1.602.17-2.282.437-.049.024-.073.06-.073.121v8.037c0 .061.049.097.109.097h.437c.061 0 .098-.036.098-.097v-2.562a3.372 3.372 0 0 0 1.735.486c1.579 0 2.598-.886 2.598-2.597v-1.312c0-1.809-1.043-2.61-2.622-2.61z"/></g><g><path fill="#fff" d="M71.422 49.472c-.06 0-.109-.037-.109-.098v-5.73c0-.048.025-.096.085-.12.595-.28 1.348-.438 2.052-.438.4 0 .826.048 1.238.11.073.011.097.048.097.108v.377c0 .06-.048.097-.11.085a7.268 7.268 0 0 0-1.152-.098c-.558 0-1.13.11-1.566.292v5.414c0 .061-.037.098-.097.098z"/></g><g><path fill="#fff" d="M79.739 45.441v.692h-3.666v-.692c0-1.165.728-1.76 1.833-1.76 1.068 0 1.833.607 1.833 1.76zm.631 0c0-1.554-1.093-2.355-2.464-2.355-1.384 0-2.489.801-2.489 2.355v1.918c0 1.445 1.19 2.246 2.477 2.246 1.032 0 1.784-.425 2.343-.91.06-.049.06-.098.012-.146l-.219-.28c-.036-.06-.085-.06-.146-.024-.449.39-1.068.778-1.978.778-1.008 0-1.833-.607-1.833-1.664v-.68h4.188c.06 0 .11-.036.11-.097z"/></g><g><path fill="#fff" d="M85.967 45.441v.692H82.3v-.692c0-1.165.729-1.76 1.833-1.76 1.07 0 1.834.607 1.834 1.76zm.631 0c0-1.554-1.093-2.355-2.465-2.355-1.383 0-2.488.801-2.488 2.355v1.918c0 1.445 1.19 2.246 2.476 2.246 1.032 0 1.785-.425 2.343-.91.061-.049.061-.098.013-.146l-.219-.28c-.036-.06-.085-.06-.146-.024-.449.39-1.068.778-1.979.778-1.007 0-1.833-.607-1.833-1.664v-.68h4.189c.06 0 .11-.036.11-.097z"/></g><g><path fill="#fff" d="M88.176 49.472c-.06 0-.11-.037-.11-.098v-5.693c0-.049.025-.097.086-.122a5.687 5.687 0 0 1 2.258-.473c1.615 0 2.634.801 2.634 2.525v3.763c0 .061-.036.098-.096.098h-.438c-.06 0-.109-.037-.109-.098v-3.739c0-1.359-.716-1.954-1.991-1.954-.607 0-1.226.121-1.7.291v5.402c0 .061-.036.098-.097.098z"/></g><g><path fill="#fff" d="M97.185 49.023c-1.263 0-1.992-.583-1.992-2.028v-1.311c0-1.408.717-2.016 1.98-2.016.63 0 1.226.207 1.7.522v4.553c-.474.17-1.081.28-1.688.28zm1.687-5.451a3.42 3.42 0 0 0-1.748-.486c-1.566 0-2.586.886-2.586 2.598v1.31c0 1.81 1.044 2.611 2.634 2.611.778 0 1.59-.17 2.258-.437.062-.012.086-.06.086-.109v-8.17c0-.061-.037-.098-.11-.098h-.437c-.06 0-.097.037-.097.098z"/></g><g><path fill="#fff" d="M101.397 49.472c-.06 0-.097-.037-.097-.098V43.33c0-.073.036-.11.097-.11h.45c.06 0 .097.037.097.11v6.045c0 .061-.037.098-.098.098zm.23-7.54a.418.418 0 0 1-.437-.424.42.42 0 0 1 .437-.437c.244 0 .426.182.426.437a.415.415 0 0 1-.426.425z"/></g><g><path fill="#fff" d="M109.398 43.086c1.456 0 2.427.838 2.427 2.38v3.908c0 .061-.036.098-.109.098h-.437c-.061 0-.097-.037-.097-.098v-3.933c0-1.117-.631-1.773-1.797-1.773a2.75 2.75 0 0 0-1.554.486c.182.352.292.79.292 1.3v3.92c0 .061-.049.098-.11.098h-.437c-.06 0-.097-.037-.097-.098v-3.933c0-1.117-.498-1.773-1.663-1.773a3.66 3.66 0 0 0-1.457.304v5.402c0 .061-.036.098-.097.098h-.437c-.06 0-.109-.037-.109-.098v-5.693c0-.06.024-.11.085-.133.619-.28 1.287-.462 2.003-.462.74 0 1.287.218 1.687.607.559-.377 1.166-.607 1.907-.607z"/></g><g><path fill="#fff" d="M117.665 45.441v.692H114v-.692c0-1.165.728-1.76 1.833-1.76 1.069 0 1.833.607 1.833 1.76zm.632 0c0-1.554-1.093-2.355-2.465-2.355-1.384 0-2.489.801-2.489 2.355v1.918c0 1.445 1.19 2.246 2.477 2.246 1.032 0 1.785-.425 2.343-.91.06-.049.06-.098.012-.146l-.219-.28c-.036-.06-.084-.06-.146-.024-.448.39-1.067.778-1.978.778-1.008 0-1.833-.607-1.833-1.664v-.68h4.188c.06 0 .11-.036.11-.097z"/></g><g><path fill="#fff" d="M119.875 49.472c-.061 0-.11-.037-.11-.098v-5.693c0-.049.025-.097.085-.122a5.689 5.689 0 0 1 2.258-.473c1.615 0 2.635.801 2.635 2.525v3.763c0 .061-.037.098-.097.098h-.437c-.06 0-.109-.037-.109-.098v-3.739c0-1.359-.717-1.954-1.992-1.954-.606 0-1.226.121-1.699.291v5.402c0 .061-.037.098-.097.098z"/></g><g><path fill="#fff" d="M128.421 48.998c.158 0 .438-.012.668-.024.061-.012.098.024.098.097v.389c0 .06-.025.096-.098.109a7.458 7.458 0 0 1-.692.036c-1.19 0-1.966-.716-1.966-2.064v-5.779c0-.06.036-.096.097-.096h.388c.06 0 .097.036.11.096l.036 1.482h1.858c.06 0 .096.048.096.109v.376c0 .06-.036.097-.096.097h-1.846v3.69c0 .924.462 1.482 1.347 1.482z"/></g><g><path fill="#fff" d="M130.595 47.274V45.43c0-1.008.655-1.748 1.93-1.748 1.3 0 1.942.74 1.942 1.748v1.845c0 1.008-.643 1.749-1.942 1.749-1.275 0-1.93-.741-1.93-1.749zm4.516 0V45.43c0-1.335-.935-2.343-2.586-2.343-1.64 0-2.586 1.008-2.586 2.343v1.845c0 1.348.947 2.331 2.586 2.331 1.651 0 2.586-.983 2.586-2.33z"/></g><g><path fill="#fff" d="M138.632 49.605a3.766 3.766 0 0 1-2.344-.789c-.06-.036-.06-.085-.036-.133l.206-.34c.037-.061.086-.073.146-.025.607.45 1.287.705 2.04.705.995 0 1.7-.425 1.7-1.215 0-.861-.899-1.044-1.7-1.214-.947-.182-2.294-.546-2.294-1.845 0-1.092 1.031-1.663 2.245-1.663.838 0 1.494.23 2.125.582.06.037.073.086.037.146l-.195.328c-.024.048-.085.073-.146.037a3.74 3.74 0 0 0-1.845-.498c-.947 0-1.59.4-1.59 1.068 0 .838.874 1.068 1.784 1.263 1.044.218 2.234.485 2.234 1.772 0 1.117-.91 1.821-2.367 1.821z"/></g></g></g><g><g><g><g><g><path fill="#052a26" d="M37.615 15.283a.11.11 0 0 1 .071-.194c.814.001 1.407.545 2.116.771-.014-.138-1.264-2.335-.368-3.818 1.791-2.967.003-6.42-3.9-6.318-1.434.037-2.723.543-4.052.97a.115.115 0 0 1-.141-.07c-.19-.562-.092-1.064.074-1.551.198-.577-.21-1.18-.818-1.234-1.86-.163-2.499-.407-4.769-1.801a.942.942 0 0 0-1.434.801c0 .077-.08.132-.151.104-1.007-.397-1.656-1.112-2.27-1.914a.937.937 0 0 0-.73-.371h-.038a.937.937 0 0 0-.728.371c-.614.802-1.264 1.517-2.27 1.914a.112.112 0 0 1-.152-.104.942.942 0 0 0-1.434-.801c-2.27 1.394-2.91 1.638-4.77 1.801a.941.941 0 0 0-.817 1.234c.166.487.264.99.074 1.55a.114.114 0 0 1-.14.07c-1.33-.426-2.62-.932-4.053-.97-3.903-.1-5.691 3.352-3.9 6.32.895 1.482-.354 3.68-.368 3.817.71-.226 1.301-.77 2.116-.771a.11.11 0 0 1 .07.194c-3.477 2.963-5.12 7.23-4.085 10.485.025.08.127.101.186.043.408-.404.49-1.169 1.47-1.257-1.13.956 3.084 11.134 4.533 12.725.04.043.09.073.144.093.77.276 1.49.682 1.963 1.35 2.113 2.987 4.444 5.57 7.795 7.16.1.046.199-.07.14-.163-1.06-1.72 3.159 1.066 4.14 3.863a.107.107 0 0 0 .066.067c.013.005.026 0 .04-.001.013.001.026.006.039.001a.109.109 0 0 0 .067-.067c.98-2.797 5.2-5.582 4.138-3.863-.058.093.042.209.14.162 3.351-1.588 5.682-4.172 7.796-7.159.473-.668 1.192-1.074 1.963-1.35a.358.358 0 0 0 .145-.093c1.449-1.591 5.663-11.77 4.531-12.725.98.088 1.063.853 1.471 1.257.06.058.162.036.187-.043 1.034-3.256-.61-7.522-4.087-10.485z"/></g></g><g><g><path fill="#fff" d="M16.939 44.753a.548.548 0 0 0-.55.413c-3.172-1.696-5.307-4.32-6.989-6.695-.464-.658-1.175-1.152-2.14-1.486-1.63-1.79-5.165-11.185-4.573-12.097l1.056-.893-1.377.124c-.768.07-1.13.474-1.373.842-.568-2.99 1.053-6.73 4.125-9.346a.542.542 0 0 0 .158-.605.542.542 0 0 0-.514-.358c-.5.002-.924.169-1.3.353.3-.882.55-2.156-.073-3.188-.775-1.284-.843-2.728-.183-3.864.688-1.183 2.026-1.83 3.697-1.793 1.152.03 2.207.38 3.324.75l.607.199a.549.549 0 0 0 .688-.346c.243-.718.087-1.356-.075-1.831a.48.48 0 0 1 .054-.425.514.514 0 0 1 .389-.234c1.93-.168 2.625-.43 4.959-1.863a.498.498 0 0 1 .512-.01.493.493 0 0 1 .258.44.547.547 0 0 0 .748.51c1.166-.46 1.88-1.302 2.456-2.056.13-.169.3-.198.412-.2a.498.498 0 0 1 .391.2c.577.754 1.29 1.596 2.457 2.055a.547.547 0 0 0 .747-.51c0-.266.18-.396.258-.439a.497.497 0 0 1 .512.01c2.334 1.434 3.03 1.695 4.96 1.863.16.015.3.1.388.234.049.075.12.23.055.425-.163.475-.318 1.113-.076 1.831a.55.55 0 0 0 .688.346c.203-.066.405-.132.607-.2 1.117-.37 2.172-.72 3.324-.749 1.664-.053 3.01.61 3.697 1.793.66 1.136.592 2.58-.183 3.864-.624 1.033-.372 2.306-.072 3.188-.377-.184-.8-.351-1.302-.353a.54.54 0 0 0-.512.358.541.541 0 0 0 .158.605c3.071 2.617 4.693 6.357 4.124 9.346-.243-.368-.605-.773-1.373-.842l-1.392-.139 1.057.892c.607.928-2.929 10.324-4.528 12.089-.996.358-1.706.852-2.171 1.51-1.682 2.375-3.817 4.999-6.99 6.695a.55.55 0 0 0-.069-.162c-.055-.088-.226-.285-.568-.245-.835.096-3.158 1.978-4.197 3.979-1.04-2.002-3.363-3.883-4.198-3.98a.803.803 0 0 0-.088-.005zm4.282 5.334l.085.01.103-.036a.547.547 0 0 0 .333-.335c.586-1.667 2.357-3.259 3.281-3.854a.553.553 0 0 0 .774.403c3.71-1.759 6.108-4.677 7.964-7.3.359-.508.932-.897 1.752-1.192a.78.78 0 0 0 .322-.21c1.332-1.462 4.724-9.408 4.833-12.218.057.077.11.164.169.26.105.172.214.35.371.506.136.136.33.19.519.143a.542.542 0 0 0 .39-.364c.983-3.09-.263-6.928-3.12-9.912.213.107.433.212.673.288l.636.203-.07-.664c-.01-.09-.037-.152-.112-.32-.238-.534-.962-2.16-.317-3.227.942-1.56 1.014-3.339.19-4.754-.852-1.467-2.469-2.27-4.473-2.227-1.282.034-2.448.42-3.576.794l-.264.087c-.039-.342.043-.658.145-.954.135-.398.08-.83-.15-1.183a1.383 1.383 0 0 0-1.044-.627c-1.791-.157-2.348-.368-4.578-1.738a1.36 1.36 0 0 0-1.395-.028 1.36 1.36 0 0 0-.624.732c-.67-.353-1.169-.888-1.719-1.606a1.377 1.377 0 0 0-1.075-.542h-.048c-.42.008-.809.206-1.066.542-.55.718-1.048 1.253-1.719 1.606a1.362 1.362 0 0 0-.624-.732 1.363 1.363 0 0 0-1.395.028c-2.231 1.37-2.787 1.581-4.579 1.738-.428.038-.809.266-1.043.627-.231.354-.286.785-.15 1.183.102.296.184.612.145.954a42.995 42.995 0 0 1-.263-.087c-1.128-.373-2.295-.76-3.576-.794-1.99-.038-3.621.76-4.474 2.227-.824 1.415-.753 3.193.19 4.754.644 1.068-.08 2.693-.317 3.227-.075.168-.103.23-.112.32l-.07.664.636-.203c.24-.076.46-.181.673-.288C.595 18.972-.65 22.81.332 25.898a.548.548 0 0 0 .91.223c.156-.156.265-.334.37-.505.06-.097.112-.184.17-.26.108 2.809 3.5 10.755 4.832 12.217a.788.788 0 0 0 .32.21c.822.295 1.395.684 1.754 1.192 1.856 2.623 4.254 5.541 7.964 7.3a.54.54 0 0 0 .64-.13.55.55 0 0 0 .134-.273c.924.595 2.696 2.187 3.28 3.855a.547.547 0 0 0 .341.336l.088.037zM1.163 25.634v.002"/></g></g></g><g><g><path fill="#fff" d="M15.116 32.67l1.394-1.886a.914.914 0 0 1 .735-.371h7.818c.314 0 .605.16.772.424l1.187 1.872a.914.914 0 0 1-.31 1.279l-5.064 2.958a.914.914 0 0 1-.902.01l-5.336-2.942a.914.914 0 0 1-.294-1.344z"/></g><g><path fill="#fff" d="M25.064 30.85c.164 0 .315.082.403.221l1.186 1.872a.474.474 0 0 1-.161.668l-5.064 2.958a.478.478 0 0 1-.471.005l-5.336-2.943a.469.469 0 0 1-.236-.316.472.472 0 0 1 .082-.385l1.395-1.887a.48.48 0 0 1 .384-.193zm-3.877 6.656c.236 0 .472-.062.68-.184l5.065-2.957a1.34 1.34 0 0 0 .63-.848c.088-.36.027-.73-.171-1.041l-1.187-1.872a1.344 1.344 0 0 0-1.14-.627h-7.818c-.427 0-.833.205-1.087.548l-1.393 1.886a1.349 1.349 0 0 0 .433 1.985l5.336 2.942c.202.112.426.168.652.168z"/></g></g><g><g><path fill="#fff" d="M22.238 22.07c.771.264 1.525 1.51 2.407.098.09-.145.413.133.545.336.4.621.022.981-.458 1.28-.77.48-1.486.59-2.21 1.13-.766.572-.784 1.364-.156 2.258l4.202 1.926c.64 0 1.205-.41 1.415-1.014.45-1.29.523-2.539-.66-3.853-.622-.693-.148-1.454.722-1.799.848-.336 1.766-.456 2.602-.829.599-.266 1.258-.66.983-1.372-.853-2.199-1.008-4.695-2.957-6.44-1.214-1.088-2.59-1.812-4.056-2.397-1.13-.452-1.384-1.07-.717-2.076.173-.201.328-.414.456-.587-.136.156-.302.339-.471.525-1.265 1.426-2.316 2.943-2.254 4.98.008.242.011.554-.095.777a.573.573 0 0 1-.485.272.574.574 0 0 1-.485-.272c-.106-.223-.103-.535-.096-.777.063-2.037-.988-3.554-2.252-4.98-.17-.186-.336-.37-.472-.525.129.173.284.386.455.587.668 1.006.414 1.624-.716 2.076-1.465.585-2.841 1.309-4.056 2.397-1.949 1.745-2.104 4.241-2.956 6.44-.276.711.384 1.106.982 1.372.836.373 1.754.493 2.602.829.87.345 1.344 1.106.721 1.799-1.181 1.314-1.108 2.564-.659 3.853.21.604.775 1.014 1.415 1.014l4.202-1.926c.628-.894.61-1.686-.157-2.259-.723-.54-1.44-.648-2.209-1.129-.48-.299-.858-.659-.458-1.28.132-.203.455-.481.546-.336.881 1.411 1.636.166 2.407-.099"/></g><g><path fill="#fff" d="M26.568 29.534h-.095l-4.396-2.015-.068-.096c-.782-1.114-.69-2.156.253-2.859.442-.33.874-.511 1.292-.687.325-.137.631-.266.947-.463.255-.158.395-.29.418-.39.018-.083-.042-.2-.096-.283a.748.748 0 0 0-.026-.036c-.245.3-.511.476-.805.538-.548.112-1.013-.206-1.388-.463-.185-.127-.36-.247-.508-.298l.284-.825c.26.09.492.249.717.402.264.181.539.367.716.329.133-.028.298-.188.462-.451a.523.523 0 0 1 .441-.246h.005c.458 0 .832.57.836.577.21.325.281.643.213.946-.1.45-.484.74-.807.94a7.2 7.2 0 0 1-1.071.527c-.387.163-.752.317-1.108.583-.334.248-.7.678-.125 1.562l3.996 1.832a1.07 1.07 0 0 0 .916-.717c.363-1.042.544-2.176-.572-3.418-.334-.372-.462-.813-.362-1.243.125-.531.58-.989 1.248-1.254.413-.164.838-.277 1.248-.388.472-.126.917-.246 1.336-.434.912-.405.813-.662.754-.815-.246-.634-.436-1.294-.62-1.932-.469-1.63-.912-3.168-2.22-4.34-1.029-.922-2.277-1.658-3.928-2.318-.656-.262-1.065-.592-1.248-1.004-.74 1.054-1.179 2.126-1.14 3.427.01.315.008.675-.136.978l-.028.051c-.19.291-.487.458-.836.47-.382-.012-.68-.18-.868-.47l-.027-.05c-.146-.305-.147-.665-.137-.98.04-1.3-.4-2.372-1.14-3.426-.183.412-.593.742-1.248 1.004-1.651.66-2.899 1.396-3.927 2.317-1.309 1.173-1.752 2.711-2.22 4.341-.185.638-.375 1.298-.62 1.932-.06.153-.16.41.752.815.42.188.865.307 1.337.434.41.11.835.224 1.248.388.668.265 1.123.722 1.249 1.254.1.43-.029.87-.363 1.243-1.116 1.242-.935 2.376-.572 3.418.14.403.502.682.916.717l3.996-1.832c.576-.884.209-1.314-.124-1.562-.357-.266-.722-.42-1.109-.583a7.198 7.198 0 0 1-1.07-.526c-.324-.202-.708-.49-.808-.941-.068-.303.004-.622.214-.946.003-.006.376-.577.835-.577h.004a.523.523 0 0 1 .443.246c.164.263.328.423.461.451.178.038.452-.148.716-.329.225-.153.457-.313.717-.402l.285.825c-.15.05-.324.17-.509.298-.375.257-.842.576-1.387.463-.295-.062-.561-.239-.806-.538-.01.012-.019.024-.026.036-.054.083-.114.2-.096.282.023.1.163.233.418.391.316.197.623.326.948.463.418.176.85.358 1.291.687.943.703 1.036 1.745.253 2.859l-.068.096-4.396 2.015h-.095c-.82 0-1.555-.525-1.827-1.306-.405-1.16-.685-2.696.746-4.289.214-.237.175-.404.162-.459-.057-.243-.332-.489-.719-.642-.367-.145-.75-.248-1.154-.357-.483-.13-.983-.264-1.465-.48-1.108-.493-1.516-1.142-1.211-1.927.232-.598.416-1.24.594-1.858.483-1.677.982-3.41 2.478-4.75 1.106-.991 2.436-1.778 4.184-2.478.317-.126.71-.33.79-.588.06-.19-.028-.465-.26-.82-.152-.179-.291-.366-.412-.528l-.045-.06.68-.548c.123.142.273.307.428.477l.038.043c1.271 1.433 2.435 3.062 2.366 5.285-.004.134-.013.402.041.55.03.036.062.048.12.05.029-.002.057-.014.086-.05.054-.147.045-.416.041-.55-.068-2.223 1.095-3.852 2.363-5.282l.093-.103c.136-.15.266-.294.377-.42l.679.548-.04.054c-.122.163-.263.353-.418.534-.23.355-.318.63-.259.82.08.258.473.462.789.588 1.75.7 3.079 1.487 4.185 2.478 1.496 1.34 1.996 3.073 2.478 4.75.179.619.363 1.26.594 1.858.306.785-.103 1.434-1.212 1.928-.482.215-.981.349-1.464.479-.404.109-.787.212-1.154.357-.386.153-.662.4-.72.642-.012.055-.051.222.163.46 1.431 1.592 1.15 3.128.747 4.288a1.942 1.942 0 0 1-1.828 1.306z"/></g></g><g><g><g><path fill="#fff" d="M7.481 14.504c1.735-.056 2.61-1.42 3.746-2.38 1.154-.976 2.437-1.654 3.945-1.85-4.094-1.39-5.292 2.526-7.69 4.23z"/></g><g><path fill="#fff" d="M12.979 10.464zm0 0a9.162 9.162 0 0 0-2.034 1.326c-.28.236-.542.494-.796.743-.205.201-.407.4-.615.583l.184-.21c1.007-1.16 1.92-2.209 3.26-2.442zM7.495 14.94c1.498-.048 2.437-.97 3.265-1.784.254-.25.494-.484.748-.7 1.193-1.007 2.41-1.58 3.72-1.75l1.862-.242-1.778-.604c-3.169-1.076-4.807.81-6.253 2.474-.6.69-1.169 1.344-1.83 1.814l-1.182.839z"/></g></g></g><g><g><g><path fill="#fff" d="M6.952 8.264c-.871.086-1.63.497-2.204 1.2-.214.261-.365.875-.798.529-.334-.267-.101-.73.17-1.132.66-.973 1.621-1.238 2.68-1.323.996-.08 1.978-.025 3.134.706-1.2 0-2.099-.068-2.982.02z"/></g></g><g><g><path fill="#fff" d="M4.19 10.532a.81.81 0 0 1-.512-.198c-.466-.372-.439-.95.081-1.717.807-1.193 2.03-1.435 3.006-1.514 1.005-.082 2.112-.044 3.403.773l1.272.805H9.934c-.391 0-.75-.007-1.088-.014-.688-.013-1.28-.025-1.851.03-.763.076-1.405.427-1.91 1.043-.037.046-.071.11-.107.173-.13.228-.31.54-.663.607a.63.63 0 0 1-.124.012zm1.35-2.288a2.248 2.248 0 0 0-1.044.842"/></g></g></g><g><g><g><path fill="#fff" d="M34.621 14.504c-1.734-.056-2.608-1.42-3.745-2.38-1.155-.976-2.437-1.654-3.945-1.85 4.093-1.39 5.292 2.526 7.69 4.23z"/></g><g><path fill="#fff" d="M32.385 12.906l.183.21c-.207-.183-.409-.382-.615-.583-.254-.25-.516-.507-.796-.743a9.16 9.16 0 0 0-2.034-1.326c1.342.233 2.254 1.283 3.262 2.442zm2.489 1.242c-.662-.47-1.23-1.123-1.83-1.814-1.447-1.663-3.085-3.55-6.254-2.474l-1.778.604 1.862.242c1.31.17 2.527.743 3.72 1.75.254.216.494.45.748.7.828.813 1.768 1.736 3.265 1.784l1.447.047z"/></g></g></g><g><g><g><path fill="#fff" d="M32.168 8.244c1.156-.731 2.138-.786 3.134-.706 1.059.085 2.021.35 2.68 1.323.271.401.504.865.17 1.132-.433.346-.584-.268-.798-.53-.574-.702-1.332-1.113-2.204-1.2-.883-.087-1.782-.019-2.982-.019z"/></g></g><g><g><path fill="#fff" d="M37.912 10.532a.672.672 0 0 1-.124-.011c-.354-.067-.533-.38-.664-.608-.036-.063-.07-.126-.107-.172-.504-.617-1.147-.968-1.91-1.043-.572-.056-1.165-.044-1.85-.031-.338.007-.697.014-1.089.014h-1.505l1.272-.805c1.29-.817 2.396-.855 3.403-.773.975.079 2.198.321 3.005 1.514.52.767.547 1.345.081 1.717a.81.81 0 0 1-.512.198zm-1.35-2.288c.388.209.74.492 1.046.844"/></g></g></g><g><g><g><g><g><path fill="#052a26" d="M16.726 15.768c-.222-.534-.355-1.058.374-1.54v1.53z"/></g></g><g><g><path fill="#fff" d="M16.439 16.213l-.116-.278c-.167-.403-.56-1.347.537-2.07l.677-.446v2.763z"/></g></g></g><g><g><g><path fill="#052a26" d="M12.825 16.536c2.693-1.648 4.356-.795 4.66 2.752"/></g></g><g><g><path fill="#fff" d="M13.365 16.726zm0 0c1.023-.568 1.834-.707 2.412-.414.55.278.94.988 1.146 2.076-.472-.216-.975-.321-1.44-.42-.942-.197-1.705-.357-2.118-1.242zm4.554 2.525c-.168-1.965-.756-3.216-1.748-3.718-.923-.467-2.126-.255-3.574.63l-.291.179.103.325c.524 1.658 1.783 1.923 2.894 2.156.714.15 1.388.292 1.873.775l.844.84z"/></g></g></g><g><g><path fill="#adafaf" d="M16.102 17.398c-.99.856-1.486.633-1.575-.77"/></g><g><path fill="#fff" d="M15.165 18.338a.87.87 0 0 1-.338-.067c-.583-.245-.699-1.039-.735-1.615l-.048-.75.675.33c.263.129.466.302.646.455.324.277.429.34.616.287l1.907-.549-1.5 1.299c-.322.277-.768.61-1.223.61z"/></g></g></g><g><g><g><g><path fill="#052a26" d="M25.723 15.768c.222-.534.356-1.058-.374-1.54v1.53z"/></g></g><g><g><path fill="#fff" d="M26.01 16.213l-1.098-.031v-2.763l.677.445c1.098.724.705 1.668.537 2.071z"/></g></g></g><g><g><g><path fill="#052a26" d="M29.624 16.536c-2.693-1.648-4.356-.795-4.659 2.752"/></g></g><g><g><path fill="#fff" d="M29.084 16.726c-.413.885-1.176 1.045-2.117 1.243-.466.098-.968.203-1.441.419.207-1.088.597-1.798 1.146-2.076.196-.1.419-.149.668-.149.485 0 1.068.188 1.744.563zm-3.81 2.872c.485-.484 1.158-.625 1.872-.775 1.111-.233 2.37-.498 2.894-2.156l.103-.325-.291-.179c-1.447-.885-2.651-1.097-3.574-.63-.992.502-1.58 1.753-1.747 3.718l-.102 1.187z"/></g></g></g><g><g><path fill="#adafaf" d="M26.347 17.398c.989.856 1.486.633 1.575-.77"/></g><g><path fill="#fff" d="M27.284 18.338c-.455 0-.902-.333-1.222-.61l-1.5-1.299 1.906.55c.187.051.291-.01.617-.288a3.06 3.06 0 0 1 .645-.455l.675-.33-.047.75c-.037.576-.153 1.37-.736 1.615a.872.872 0 0 1-.338.067z"/></g></g></g></g></g><g><g><g><path fill="#052a26" d="M37.615 15.283a.11.11 0 0 1 .071-.194c.814.001 1.407.545 2.116.771-.014-.138-1.264-2.335-.368-3.818 1.791-2.967.003-6.42-3.9-6.318-1.434.037-2.723.543-4.052.97a.115.115 0 0 1-.141-.07c-.19-.562-.092-1.064.074-1.551.198-.577-.21-1.18-.818-1.234-1.86-.163-2.499-.407-4.769-1.801a.942.942 0 0 0-1.434.801c0 .077-.08.132-.151.104-1.007-.397-1.656-1.112-2.27-1.914a.937.937 0 0 0-.73-.371h-.038a.937.937 0 0 0-.728.371c-.614.802-1.264 1.517-2.27 1.914a.112.112 0 0 1-.152-.104.942.942 0 0 0-1.434-.801c-2.27 1.394-2.91 1.638-4.77 1.801a.941.941 0 0 0-.817 1.234c.166.487.264.99.074 1.55a.114.114 0 0 1-.14.07c-1.33-.426-2.62-.932-4.053-.97-3.903-.1-5.691 3.352-3.9 6.32.895 1.482-.354 3.68-.368 3.817.71-.226 1.301-.77 2.116-.771a.11.11 0 0 1 .07.194c-3.477 2.963-5.12 7.23-4.085 10.485.025.08.127.101.186.043.408-.404.49-1.169 1.47-1.257-1.13.956 3.084 11.134 4.533 12.725.04.043.09.073.144.093.77.276 1.49.682 1.963 1.35 2.113 2.987 4.444 5.57 7.795 7.16.1.046.199-.07.14-.163-1.06-1.72 3.159 1.066 4.14 3.863a.107.107 0 0 0 .066.067c.013.005.026 0 .04-.001.013.001.026.006.039.001a.109.109 0 0 0 .067-.067c.98-2.797 5.2-5.582 4.138-3.863-.058.093.042.209.14.162 3.351-1.588 5.682-4.172 7.796-7.159.473-.668 1.192-1.074 1.963-1.35a.358.358 0 0 0 .145-.093c1.449-1.591 5.663-11.77 4.531-12.725.98.088 1.063.853 1.471 1.257.06.058.162.036.187-.043 1.034-3.256-.61-7.522-4.087-10.485z"/></g></g><g><g><path fill="#fff" d="M15.116 32.67l1.394-1.886a.914.914 0 0 1 .735-.37h7.818c.314 0 .605.16.772.423l1.187 1.872a.914.914 0 0 1-.31 1.279l-5.064 2.958a.914.914 0 0 1-.902.01l-5.336-2.942a.914.914 0 0 1-.294-1.344z"/></g></g><g><g><path fill="#fff" d="M22.238 22.07c.771.264 1.525 1.51 2.407.098.09-.145.413.133.545.336.4.621.022.981-.458 1.28-.77.48-1.486.59-2.21 1.13-.766.572-.784 1.364-.156 2.258l4.202 1.926c.64 0 1.205-.41 1.415-1.014.45-1.29.523-2.539-.66-3.853-.622-.693-.148-1.454.722-1.799.848-.336 1.766-.456 2.602-.829.599-.266 1.258-.66.983-1.372-.853-2.199-1.008-4.695-2.957-6.44-1.214-1.088-2.59-1.812-4.056-2.397-1.13-.452-1.384-1.07-.717-2.076.173-.201.328-.414.456-.587-.136.156-.302.339-.471.525-1.265 1.426-2.316 2.943-2.254 4.98.008.242.011.554-.095.777a.573.573 0 0 1-.485.272.574.574 0 0 1-.485-.272c-.106-.223-.103-.535-.096-.777.063-2.037-.988-3.554-2.252-4.98-.17-.186-.336-.37-.472-.525.129.173.284.386.455.587.668 1.006.414 1.624-.716 2.076-1.465.585-2.841 1.309-4.056 2.397-1.948 1.745-2.104 4.241-2.956 6.44-.276.711.384 1.106.982 1.372.836.373 1.754.493 2.602.829.87.345 1.344 1.106.721 1.799-1.181 1.314-1.108 2.564-.659 3.853.21.604.775 1.014 1.415 1.014l4.202-1.926c.628-.894.61-1.686-.157-2.259-.723-.54-1.44-.648-2.209-1.129-.48-.299-.858-.659-.458-1.28.132-.203.455-.481.546-.336.881 1.411 1.636.166 2.407-.099"/></g></g><g><g><g><path fill="#fff" d="M7.481 14.504c1.735-.056 2.61-1.42 3.746-2.38 1.154-.976 2.437-1.654 3.945-1.85-4.094-1.39-5.292 2.526-7.69 4.23z"/></g></g></g><g><g><path fill="#fff" d="M6.952 8.264c-.871.086-1.63.497-2.204 1.2-.214.261-.365.875-.798.529-.334-.267-.101-.73.17-1.132.66-.973 1.621-1.238 2.68-1.323.996-.08 1.978-.025 3.134.706-1.2 0-2.099-.068-2.982.02z"/></g></g><g><g><g><path fill="#fff" d="M34.621 14.504c-1.734-.056-2.609-1.42-3.745-2.38-1.155-.976-2.437-1.654-3.945-1.85 4.093-1.39 5.292 2.526 7.69 4.23z"/></g></g></g><g><g><path fill="#fff" d="M32.168 8.244c1.156-.731 2.138-.786 3.134-.706 1.059.085 2.021.35 2.68 1.323.271.401.504.865.17 1.132-.433.346-.584-.268-.798-.53-.574-.702-1.332-1.113-2.204-1.2-.883-.087-1.782-.019-2.982-.019z"/></g></g><g><g><g><g><path fill="#052a26" d="M16.726 15.768c-.222-.534-.355-1.058.374-1.54v1.53z"/></g></g><g><g><path fill="#052a26" d="M12.825 16.536c2.693-1.648 4.356-.795 4.66 2.752"/></g></g><g><g><path fill="#adafaf" d="M16.102 17.398c-.99.856-1.486.633-1.575-.77"/></g></g></g><g><g><g><path fill="#052a26" d="M25.723 15.768c.222-.534.356-1.058-.374-1.54v1.53z"/></g></g><g><g><path fill="#052a26" d="M29.624 16.536c-2.693-1.648-4.356-.795-4.659 2.752"/></g></g><g><g><path fill="#adafaf" d="M26.348 17.398c.988.856 1.485.633 1.574-.77"/></g></g></g></g></g></g></g></g></g></svg>