<svg xmlns="http://www.w3.org/2000/svg" width="30" height="30" viewBox="0 0 30 30"><g><g><path fill="#f9d0a9" d="M15 19.136c2.485 0 4.5-1.96 4.5-4.38 0-2.418-2.015-4.379-4.5-4.379s-4.5 1.96-4.5 4.38c0 2.419 2.015 4.38 4.5 4.38zm-9-4.38c0-4.837 4.03-8.759 9-8.759s9 3.922 9 8.76c0 4.837-4.03 8.76-9 8.76s-9-3.923-9-8.76zm24 1.46v-2.92h-3.093c-.687-5.292-4.97-9.46-10.407-10.128V.158h-3v3.01c-5.438.668-9.72 4.836-10.407 10.129H0v2.92h3.093c.687 5.292 4.97 9.46 10.407 10.128v3.01h3v-3.01c5.438-.668 9.72-4.836 10.407-10.128z"/></g></g></svg>