<svg xmlns="http://www.w3.org/2000/svg" width="30" height="30" viewBox="0 0 30 30"><g><g><path fill="#f9d0a9" d="M30 11.966c0 .265-.157.553-.47.865l-6.544 6.383 1.55 9.014c.013.084.02.204.02.36 0 .253-.064.466-.19.64-.126.175-.31.262-.55.262-.23 0-.47-.072-.722-.216L15 25.018l-8.095 4.255c-.265.144-.505.216-.721.216-.252 0-.441-.087-.567-.261a1.067 1.067 0 0 1-.19-.64c0-.073.011-.193.035-.361l1.551-9.014-6.562-6.382C.15 12.508 0 12.22 0 11.966c0-.444.337-.72 1.01-.829l9.05-1.315 4.056-8.204c.229-.492.523-.739.884-.739.36 0 .655.247.883.74l4.056 8.203 9.051 1.315c.673.109 1.01.385 1.01.83z"/></g></g></svg>