<svg xmlns="http://www.w3.org/2000/svg" width="37" height="43" viewBox="0 0 37 43"><g><g><g><path fill="#008ecb" d="M18.077 31.336c-6.33 0-11.076-5.898-11.22-15.871-.048-6.905 3.212-11.029 11.22-11.029 8.008 0 11.316 4.124 11.22 11.029-.096 9.973-4.89 15.871-11.22 15.871zM1.39 20.787v-5.946c0-.72.528-1.342 1.247-1.486.336-3.644 1.726-6.713 4.028-8.967C9.11 1.991 12.611.6 16.782.264c0 0 .432-.048 1.343-.048.863 0 1.295.048 1.295.048C23.59.6 27.092 1.991 29.537 4.388c2.302 2.254 3.692 5.323 4.028 8.967.72.144 1.247.767 1.247 1.486v5.946c0 .863-.672 1.534-1.535 1.534h-1.774a1.515 1.515 0 0 1-1.534-1.534v-5.946c0-.671.431-1.247 1.055-1.438C30.256 6.833 25.7 2.998 18.22 2.758h-.24c-7.48.24-12.083 4.076-12.803 10.645a1.496 1.496 0 0 1 1.055 1.438v5.946c0 .863-.67 1.534-1.534 1.534H2.925c-.863 0-1.535-.719-1.535-1.534zm34.764 21.434h-16.83l-.96-6.474L23.16 31l3.02 2.494 6.186 2.877c.96.383 1.918.959 2.302 1.966 0 0 .719 1.63 1.486 3.884zM12.994 31l4.843 4.746-1.007 6.474H0c.815-2.254 1.534-3.884 1.534-3.884.384-.96 1.343-1.583 2.254-1.966l6.233-2.877z"/></g></g></g></svg>