<svg xmlns="http://www.w3.org/2000/svg" width="56" height="29" viewBox="0 0 56 29"><g><g transform="rotate(45 27.87 14.575)"><g><path fill="#008ecb" d="M10.897 12.163v9.699l-5.552 5.552a2.425 2.425 0 0 0 0 3.419l6.255 6.28a2.425 2.425 0 0 0 3.443 0L25.445 26.71h9.699a2.425 2.425 0 0 0 2.424-2.425v-2.424h2.425a2.425 2.425 0 0 0 2.425-2.425v-2.425h2.424a2.425 2.425 0 0 0 2.425-2.424v-2.425H30.294v2.425a4.85 4.85 0 0 1-4.849 4.85h-4.85a4.85 4.85 0 0 1-4.849-4.85V7.314zM25.445.04h7.274l7.977-8.002a2.425 2.425 0 0 1 3.443 0l6.256 6.28c.94.946.94 2.473 0 3.419l-5.553 5.577H25.445v4.85a2.425 2.425 0 0 1-4.85 0V4.888a4.85 4.85 0 0 1 4.85-4.85"/></g></g></g></svg>