<svg xmlns="http://www.w3.org/2000/svg" width="185" height="306" viewBox="0 0 185 306"><g><g><path fill="#fff" d="M94.65 188.088c-1.78.57-3.56 1.141-5.267 1.71-1.077.343-2.078.72-3.115 1.065-.67.228-1.334.457-1.964.683-3.34 1.219-6.53 2.397-9.572 3.649a.726.726 0 0 0-.26.075c-.073.04-.15.076-.26.115-.217.089-.416.178-.63.267-4.029 1.66-7.871 3.322-11.465 5.054C13 224.31.833 253.849.461 270.383c0-.076.037-.153.037-.229v.19l.112 1.597c.037.154.037.302.037.418.04.189.073.34.113.491v.114c.073.42.147.799.22 1.178.074.228.113.496.187.722.073.344.15.648.26.99 0 .04 0 .076.039.152.184.61.37 1.217.591 1.825.336.8.67 1.596 1.04 2.395.11.154.184.342.296.57.334.608.667 1.179 1.038 1.787.446.762.966 1.52 1.523 2.281a34.19 34.19 0 0 0 1.817 2.243c.63.72 1.3 1.444 2.003 2.127 1.67 1.636 3.524 3.157 5.528 4.599 1.41.988 2.894 1.978 4.451 2.888.223.114.483.265.704.38 1.82 1.064 3.784 2.015 5.787 2.927a75.085 75.085 0 0 0 6.938 2.66c10.55 3.505 34.177 3.351 49.395 2.886 7.25-.222 13.003-6.326 13.003-13.756V187.775c-.295.113-.63.189-.928.305z"/></g><g><path fill="#fff" d="M169.998 97.953c-48.19 5.935-82.953 15.433-107.883 26.451C26.353 140.17 10.66 166.398 4.13 182.09c-1.965 4.75-3.115 9.204-3.71 13.209v74.864c0 .224.038.408.038.631v.446c.37-16.139 12.54-44.963 61.657-68 3.593-1.69 7.436-3.315 11.464-4.932.215-.087.416-.173.631-.26.11-.04.184-.074.26-.113a.685.685 0 0 1 .26-.074c3.04-1.223 6.231-2.374 9.571-3.56.63-.221 1.297-.444 1.964-.668 1.038-.335 2.041-.704 3.115-1.04 1.707-.556 3.487-1.11 5.268-1.667.297-.113.632-.186.927-.297 1.486-.446 3.004-.89 4.564-1.334 1.743-.52 3.563-1.04 5.38-1.523a1.05 1.05 0 0 1 .334-.073c1.706-.482 3.413-.928 5.196-1.374a473.197 473.197 0 0 1 6.9-1.667c2.078-.52 4.23-1 6.38-1.447 2.339-.52 4.71-1.04 7.16-1.523 2.04-.407 4.157-.814 6.268-1.224 4.637-.89 9.424-1.707 14.393-2.484 4.527-.74 9.164-1.41 13.951-2.078.481-.073.964-.11 1.447-.183 2.67-.37 5.341-.704 8.086-1.04 5.341-.63 9.348-5.194 9.348-10.609v-52.792c0-8.05-7.011-14.319-14.989-13.318z"/></g><g><path fill="#fff" d="M161.53.601C50.98 15.436 15.99 47.936 5.181 73.894-.01 86.396.435 98.007.435 104.61v52.378c0 .825 1.098 1.111 1.47.375 7.705-15.314 26.833-34.95 60.225-49.672 25.591-11.31 61.499-21.039 111.69-26.932 6.362-.748 11.18-6.147 11.18-12.554v-47.18C185 8.507 173.938-1.062 161.53.603z"/></g></g></svg>