<svg xmlns="http://www.w3.org/2000/svg" width="373.448" height="617.901" viewBox="0 0 373.448 617.901">
  <g id="bg" opacity="0.04">
    <g id="Grupo_9570" data-name="Grupo 9570" transform="translate(0 197.143)">
      <path id="Caminho_26075" data-name="Caminho 26075" d="M662.887,1173.728c-3.6,1.126-7.2,2.252-10.658,3.374-2.178.679-4.2,1.425-6.3,2.1-1.355.451-2.7.9-3.975,1.349-6.758,2.407-13.213,4.734-19.366,7.2a1.491,1.491,0,0,0-.525.149,3.639,3.639,0,0,1-.526.227c-.438.175-.841.351-1.275.527-8.151,3.277-15.925,6.559-23.195,9.978-99.377,46.61-123.992,104.934-124.745,137.582,0-.151.075-.3.075-.452v.373l.228,3.155a3.377,3.377,0,0,1,.075.824c.079.374.149.673.228.972v.224c.149.829.3,1.577.447,2.327.149.45.228.978.377,1.424a18.7,18.7,0,0,0,.526,1.956.542.542,0,0,0,.079.3c.372,1.2.75,2.4,1.2,3.6.679,1.578,1.354,3.151,2.1,4.729a8.215,8.215,0,0,1,.6,1.125c.675,1.2,1.349,2.328,2.1,3.529a53.491,53.491,0,0,0,3.081,4.5c1.126,1.5,2.4,3,3.676,4.427s2.629,2.852,4.053,4.2a95.776,95.776,0,0,0,11.184,9.081c2.853,1.951,5.854,3.905,9.005,5.7.451.226.977.524,1.424.75,3.681,2.1,7.656,3.979,11.709,5.779,4.505,1.954,9.159,3.68,14.036,5.255,21.346,6.92,69.148,6.616,99.938,5.7a27.152,27.152,0,0,0,26.307-27.161V1173.109c-.6.223-1.275.372-1.876.6Z" transform="translate(-472.237 -985.433)" fill="#00376d"/>
      <path id="Caminho_26076" data-name="Caminho 26076" d="M815.225,745.044c-97.5,12.008-167.832,31.224-218.271,53.516-72.355,31.9-104.1,84.963-117.317,116.712A113.7,113.7,0,0,0,472.13,942v151.467c0,.452.078.826.078,1.276v.9c.75-32.652,25.369-90.97,124.745-137.58,7.27-3.419,15.045-6.706,23.2-9.978.434-.175.842-.351,1.276-.527a3.776,3.776,0,0,0,.525-.228,1.388,1.388,0,0,1,.526-.149c6.153-2.476,12.608-4.8,19.365-7.2,1.276-.447,2.625-.9,3.975-1.35,2.1-.679,4.128-1.425,6.3-2.1,3.453-1.127,7.055-2.248,10.657-3.375.6-.228,1.28-.377,1.876-.6q4.509-1.352,9.233-2.7c3.528-1.052,7.209-2.1,10.886-3.081a2.131,2.131,0,0,1,.675-.147c3.453-.975,6.906-1.877,10.513-2.78q6.751-1.688,13.962-3.374c4.2-1.051,8.558-2.025,12.906-2.927,4.732-1.053,9.531-2.1,14.488-3.081,4.128-.824,8.409-1.647,12.682-2.477,9.382-1.8,19.067-3.453,29.12-5.026,9.159-1.5,18.541-2.852,28.226-4.2.973-.148,1.95-.223,2.927-.371,5.4-.75,10.807-1.425,16.359-2.1a21.524,21.524,0,0,0,18.914-21.464V772a27.051,27.051,0,0,0-30.325-26.946Z" transform="translate(-472.13 -744.845)" fill="#008ecb"/>
    </g>
    <path id="Caminho_26077" data-name="Caminho 26077" d="M576.338,1671.519c-4.053-1.8-8.027-3.678-11.709-5.779A114.185,114.185,0,0,0,576.338,1671.519Z" transform="translate(-524.094 -1065.038)"/>
    <path id="Caminho_26078" data-name="Caminho 26078" d="M798.106,295.356c-223.666,30.014-294.457,95.77-316.325,148.287-10.508,25.294-9.606,48.787-9.606,62.149V611.763a1.577,1.577,0,0,0,2.976.759c15.588-30.983,54.288-70.713,121.849-100.5,51.776-22.88,124.425-42.565,225.971-54.489a25.612,25.612,0,0,0,22.622-25.4V336.681a41.788,41.788,0,0,0-47.487-41.32Z" transform="translate(-472.145 -294.978)" fill="#008ecb"/>
  </g>
</svg>
