<svg xmlns="http://www.w3.org/2000/svg" width="24.023" height="24.023" viewBox="0 0 24.023 24.023">
  <g id="scrolldown" transform="translate(277.023 695.023) rotate(180)">
    <g id="arrow" transform="translate(289.012 665.012) rotate(90)">
      <path id="Caminho_27015" data-name="Caminho 27015" d="M19.42,12.58a2,2,0,0,0-2.84,0l-10,10a2,2,0,0,0,0,2.84l10,10a2.008,2.008,0,1,0,2.84-2.84L10.82,24l8.6-8.58a2,2,0,0,0,0-2.84Z" fill="#fff"/>
    </g>
    <g id="arrow-2" data-name="arrow" transform="translate(289.012 675.012) rotate(90)">
      <path id="Caminho_27015-2" data-name="Caminho 27015" d="M19.42,12.58a2,2,0,0,0-2.84,0l-10,10a2,2,0,0,0,0,2.84l10,10a2.008,2.008,0,1,0,2.84-2.84L10.82,24l8.6-8.58a2,2,0,0,0,0-2.84Z" fill="#fff"/>
    </g>
  </g>
</svg>
