<svg xmlns="http://www.w3.org/2000/svg" width="28.687" height="28.686" viewBox="0 0 28.687 28.686">
  <g id="close" transform="translate(0.014 0.004)">
    <path id="Caminho_27067" data-name="Caminho 27067" d="M24.471,4.2a14.343,14.343,0,1,0,4.2,10.143A14.3,14.3,0,0,0,24.471,4.2ZM22.628,22.633a11.737,11.737,0,1,1,3.435-8.3,11.7,11.7,0,0,1-3.435,8.3Z" fill="#d9e7ec"/>
    <path id="Caminho_27068" data-name="Caminho 27068" d="M21.205,19.425l4.607-4.607a1.3,1.3,0,0,0-1.843-1.842h0l-4.607,4.607-4.607-4.607a1.3,1.3,0,0,0-1.842,1.843h0l4.607,4.607-4.607,4.607a1.3,1.3,0,1,0,1.842,1.843h0l4.607-4.607,4.607,4.607a1.3,1.3,0,1,0,1.843-1.842h0Z" transform="translate(-5.032 -5.085)" fill="#d9e7ec"/>
  </g>
</svg>
