<svg xmlns="http://www.w3.org/2000/svg" width="13.186" height="13.249" viewBox="0 0 13.186 13.249">
  <g id="whatsapp-fill" transform="translate(0 0)">
    <g id="Grupo_9797" data-name="Grupo 9797" transform="translate(0 0)">
      <path id="Caminho_27066" data-name="Caminho 27066" d="M9.614,7.94c-.165-.082-.971-.479-1.121-.534s-.259-.082-.369.083-.423.533-.519.643-.192.123-.356.041A4.5,4.5,0,0,1,5.93,7.358a4.938,4.938,0,0,1-.913-1.137c-.1-.164-.01-.253.072-.335s.164-.192.246-.287A1.112,1.112,0,0,0,5.5,5.326a.3.3,0,0,0-.014-.287c-.041-.082-.369-.89-.506-1.218s-.268-.276-.369-.282-.205-.006-.315-.006a.6.6,0,0,0-.437.205,1.838,1.838,0,0,0-.574,1.369,3.192,3.192,0,0,0,.67,1.7,7.314,7.314,0,0,0,2.8,2.477,9.373,9.373,0,0,0,.935.345,2.24,2.24,0,0,0,1.033.065,1.691,1.691,0,0,0,1.107-.78,1.375,1.375,0,0,0,.1-.78c-.041-.068-.15-.109-.315-.192ZM6.621,12.027h0a5.45,5.45,0,0,1-2.779-.761l-.2-.118-2.066.542.552-2.014L2,9.469a5.457,5.457,0,1,1,4.623,2.557Zm4.644-10.1A6.567,6.567,0,0,0,.931,9.847L0,13.249l3.48-.913a6.559,6.559,0,0,0,3.138.8h0a6.568,6.568,0,0,0,4.644-11.21" transform="translate(0 0)" fill="#008ecb" fill-rule="evenodd"/>
    </g>
  </g>
</svg>
