<svg xmlns="http://www.w3.org/2000/svg" width="22" height="22" viewBox="0 0 22 22"><g><g><path fill="#fff" d="M21.46 10.992c0 2.049-.023 3.466-.067 4.254-.09 1.86-.644 3.3-1.664 4.32-1.02 1.02-2.46 1.575-4.32 1.664-.788.045-2.206.067-4.254.067-2.049 0-3.466-.022-4.254-.067-1.86-.09-3.3-.644-4.32-1.664-1.02-1.02-1.575-2.46-1.664-4.32C.872 14.458.85 13.04.85 10.992c0-2.048.022-3.466.067-4.253.09-1.861.644-3.301 1.664-4.321C3.6 1.398 5.04.844 6.9.754 7.69.71 9.106.687 11.155.687c2.048 0 3.466.023 4.253.067 1.86.09 3.301.644 4.32 1.664 1.02 1.02 1.575 2.46 1.665 4.32.044.788.067 2.206.067 4.254zM11.155 2.54l-1.027-.007a71.104 71.104 0 0 0-1.415 0c-.323.005-.754.018-1.295.04-.542.022-1.002.067-1.382.134-.38.067-.7.15-.96.249a3.488 3.488 0 0 0-1.18.778c-.34.34-.6.733-.778 1.181-.099.26-.182.58-.249.96s-.112.84-.134 1.382c-.022.54-.035.972-.04 1.294-.004.323-.004.795 0 1.416l.007 1.027-.007 1.026a71.104 71.104 0 0 0 0 1.416c.005.322.018.754.04 1.295.022.541.067 1.002.134 1.382.067.38.15.7.249.958.179.448.438.841.778 1.181.34.34.733.6 1.18.778.26.099.58.182.96.249s.84.112 1.382.134c.541.022.973.035 1.295.04.322.004.794.004 1.416 0l1.026-.007 1.027.007c.622.004 1.093.004 1.416 0 .322-.005.753-.018 1.295-.04a10.58 10.58 0 0 0 1.382-.134c.38-.067.7-.15.959-.249a3.488 3.488 0 0 0 1.181-.778c.34-.34.6-.733.778-1.18.099-.26.181-.58.249-.96.067-.38.111-.841.133-1.382.023-.541.036-.973.04-1.295.005-.322.005-.794 0-1.416l-.006-1.026.007-1.027c.004-.622.004-1.094 0-1.416a51.093 51.093 0 0 0-.04-1.295 10.58 10.58 0 0 0-.134-1.382c-.068-.38-.15-.7-.25-.958a3.488 3.488 0 0 0-.778-1.181c-.34-.34-.733-.6-1.181-.778a5.384 5.384 0 0 0-.96-.248 10.58 10.58 0 0 0-1.382-.134 51.085 51.085 0 0 0-1.295-.04 71.104 71.104 0 0 0-1.415 0l-1.027.006zM17.89 5.49c0 .34-.12.63-.362.872a1.192 1.192 0 0 1-.872.362c-.34 0-.63-.12-.872-.362a1.19 1.19 0 0 1-.362-.872c0-.34.12-.63.362-.872s.532-.363.872-.362c.34 0 .63.121.872.362.241.241.362.532.362.872zm-1.449 5.501c0 1.467-.514 2.715-1.543 3.744-1.028 1.028-2.276 1.543-3.743 1.543s-2.715-.515-3.744-1.543c-1.028-1.029-1.543-2.277-1.543-3.744s.515-2.715 1.543-3.743C8.44 6.22 9.688 5.706 11.155 5.706s2.715.514 3.743 1.543c1.029 1.028 1.543 2.276 1.543 3.743zm-1.851 0a3.31 3.31 0 0 0-1.007-2.428 3.31 3.31 0 0 0-2.428-1.007 3.31 3.31 0 0 0-2.429 1.007 3.31 3.31 0 0 0-1.006 2.428 3.31 3.31 0 0 0 1.006 2.429 3.31 3.31 0 0 0 2.429 1.006 3.31 3.31 0 0 0 2.428-1.006 3.31 3.31 0 0 0 1.007-2.429z"/></g></g></svg>