<svg xmlns="http://www.w3.org/2000/svg" width="15" height="15" viewBox="0 0 15 15"><g><g><path fill="#fff" d="M7.742 12.948H7.74a5.703 5.703 0 0 1-2.908-.796l-.207-.123-2.162.567.577-2.108-.135-.216a5.697 5.697 0 0 1-.873-3.038 5.719 5.719 0 0 1 5.713-5.71 5.67 5.67 0 0 1 4.037 1.674 5.676 5.676 0 0 1 1.67 4.04 5.719 5.719 0 0 1-5.71 5.71zm3.133-4.276c-.172-.087-1.016-.501-1.174-.56-.157-.056-.271-.085-.386.088a10.22 10.22 0 0 1-.543.672c-.1.115-.2.129-.372.043-.172-.086-.725-.267-1.38-.852a5.168 5.168 0 0 1-.956-1.19c-.1-.17-.01-.264.075-.35.078-.076.172-.2.258-.3.086-.1.114-.172.172-.287.057-.114.028-.214-.015-.3s-.386-.932-.53-1.275c-.138-.335-.28-.29-.385-.295a7.43 7.43 0 0 0-.33-.006c-.114 0-.3.043-.457.215-.158.172-.6.587-.6 1.432s.614 1.661.7 1.776c.086.115 1.21 1.849 2.933 2.592.41.177.73.283.978.361.412.132.786.113 1.082.069.329-.05 1.015-.416 1.159-.817.142-.4.142-.744.1-.816-.043-.072-.158-.114-.33-.2zm1.727-6.294A6.826 6.826 0 0 0 7.742.363c-3.786 0-6.87 3.082-6.87 6.87 0 1.21.315 2.393.917 3.435l-.975 3.56 3.642-.956a6.864 6.864 0 0 0 3.284.837h.002c3.787 0 6.87-3.082 6.87-6.87a6.83 6.83 0 0 0-2.01-4.861"/></g></g></svg>