<svg xmlns="http://www.w3.org/2000/svg" width="22" height="22" viewBox="0 0 22 22"><g><g><path fill="#fff" d="M4.025 8.61h3.111v9.36h-3.11zm10.75-.221c2.047 0 3.58 1.338 3.58 4.213v5.368h-3.11v-5.007c0-1.259-.45-2.118-1.576-2.118-.86 0-1.372.58-1.597 1.138-.082.2-.102.48-.102.76v5.227H8.858s.041-8.483 0-9.361h3.112v1.326c.413-.638 1.153-1.546 2.804-1.546zM5.6 4.096c1.065 0 1.72.699 1.74 1.617 0 .898-.675 1.617-1.76 1.617h-.02c-1.044 0-1.72-.719-1.72-1.617 0-.918.696-1.617 1.76-1.617zM4.586.696A4.049 4.049 0 0 0 .549 4.734V17.26a4.049 4.049 0 0 0 4.037 4.036h12.528a4.048 4.048 0 0 0 4.036-4.036V4.734A4.049 4.049 0 0 0 17.114.696z"/></g></g></svg>