<svg xmlns="http://www.w3.org/2000/svg" width="100" height="28" viewBox="0 0 100 28"><g><g><g><g><path fill="#13172d" d="M0 1.594h3.122v12.29c0 1.181.737 1.159 1.383 1.159h5.598v2.877H3.39c-1.762 0-3.39-.67-3.39-3.167z"/></g><g><path fill="#13172d" d="M15.143 15.132V4.36h3.568c1.74 0 2.788 1.07 2.788 5.442 0 3.278-.758 5.33-2.788 5.33zM12.02 17.92h6.937c3.97 0 5.665-3.3 5.665-8.096 0-4.037-.982-8.23-5.665-8.23H12.02z"/></g><g><path fill="#13172d" d="M26.784 1.594h3.167l6.468 10.55V1.593h3.122V17.92h-3.122l-6.49-10.438V17.92h-3.145z"/></g><g><path fill="#13172d" d="M46.655 11.541l1.962-5.843 1.83 5.843zm-5.353 6.379h3.346l1.182-3.613h5.352l1.16 3.613h3.323L50.357 1.594h-3.546z"/></g><g><path fill="#008ecb" d="M62.667 5.676c0-3.234 1.918-4.171 4.416-4.216 2.341-.044 5.018.268 6.311.647V4.56c-1.427-.133-4.661-.223-5.464-.223-1.36-.022-2.14.067-2.14 1.584v.803c0 1.293.49 1.561 1.739 1.561h2.587c3.212 0 3.858 2.52 3.858 4.327v1.093c0 3.702-2.297 4.393-4.505 4.393-2.788 0-4.617-.178-6.312-.669v-2.453c.892.09 3.613.245 5.688.245.936 0 2.007-.156 2.007-1.405v-.87c0-.936-.268-1.539-1.472-1.539h-2.498c-3.948 0-4.215-2.899-4.215-4.326z"/></g><g><path fill="#008ecb" d="M81.311.747h3.234l-6.267 18.779h-3.234z"/></g><g><path fill="#008ecb" d="M90.99 11.541l1.962-5.843 1.83 5.843zm-5.353 6.379h3.345l1.183-3.613h5.352l1.16 3.613H100L94.692 1.594h-3.546z"/></g></g><g><g><g><path fill="#918d8c" d="M3.97 25.496l.706-2.104.658 2.104zm-1.927 2.296h1.204l.425-1.3H5.6l.418 1.3h1.196l-1.91-5.877H4.025z"/></g><g><path fill="#918d8c" d="M11.709 21.851c.891 0 1.405.048 2.256.257v.875c-.048 0-1.076-.136-1.991-.136-.891 0-1.06.537-1.06 1.99 0 1.526.177 1.935 1.004 1.943.554.008 1.011-.37 1.011-.37v-1.05h-.819v-.715c.346-.144.82-.193 1.397-.193.169 0 .353 0 .546.016v3.324h-.803l-.305-.394c-.257.241-.57.41-1.244.434-1.662.064-1.91-1.333-1.91-3.01 0-1.71.32-2.97 1.918-2.97z"/></g><g><path fill="#918d8c" d="M18.06 21.394h.754l.506-.482.474.482h.746l-.778-1.084h-.835zm-.843 5.242c0 1.083.835 1.204 1.356 1.18 0 0 2.047-.073 2.505-.137v-.923h-2.24c-.232 0-.497.008-.497-.417v-.916l2.376-.072v-.93l-2.376-.081v-.915c0-.217 0-.45.417-.45h2.32v-.931c-.514-.072-2.585-.129-2.585-.129-.554-.008-1.276.201-1.276 1.22z"/></g><g><path fill="#918d8c" d="M24.161 21.915h1.14l2.328 3.798v-3.798h1.124v5.877H27.63l-2.336-3.757v3.757h-1.132z"/></g><g><path fill="#918d8c" d="M33.82 21.851c.818 0 1.412.08 2.047.265V23c-.008 0-.996-.112-1.783-.112-.826 0-1.14.184-1.14 1.967 0 1.316.217 1.95 1.14 1.95.843 0 1.783-.064 1.783-.064v.875c-.53.169-1.205.241-2.048.225-1.485-.016-1.998-1.14-1.998-3.002 0-1.879.401-2.987 1.998-2.987z"/></g><g><path fill="#918d8c" d="M38.926 21.915h1.124v5.877h-1.124z"/></g><g><path fill="#918d8c" d="M44.971 25.496l.707-2.104.658 2.104zm-1.926 2.296h1.204l.425-1.3h1.927l.417 1.3h1.196l-1.91-5.877h-1.277z"/></g><g><path fill="#918d8c" d="M56.685 26.788v-3.877h1.284c.627 0 1.004.385 1.004 1.959 0 1.18-.273 1.918-1.004 1.918zm-1.124 1.004h2.497c1.428 0 2.039-1.188 2.039-2.914 0-1.453-.354-2.963-2.04-2.963h-2.496z"/></g><g><path fill="#918d8c" d="M63.244 21.915h1.124v5.877h-1.124z"/></g><g><path fill="#918d8c" d="M69.346 21.851c.89 0 1.405.048 2.256.257v.875c-.048 0-1.076-.136-1.991-.136-.891 0-1.06.537-1.06 1.99 0 1.526.177 1.935 1.004 1.943.553.008 1.011-.37 1.011-.37v-1.05h-.819v-.715c.345-.144.819-.193 1.397-.193.168 0 .353 0 .546.016v3.324h-.803l-.305-.394c-.257.241-.57.41-1.244.434-1.662.064-1.91-1.333-1.91-3.01 0-1.71.32-2.97 1.918-2.97z"/></g><g><path fill="#918d8c" d="M74.877 21.915h1.124v5.877h-1.124z"/></g><g><path fill="#918d8c" d="M78.972 21.915h4.343v1.036h-1.63v4.84h-1.123v-4.84h-1.59z"/></g><g><path fill="#918d8c" d="M87.129 25.496l.706-2.104.659 2.104zm-1.927 2.296h1.205l.425-1.3h1.927l.417 1.3h1.196l-1.91-5.877h-1.277z"/></g><g><path fill="#918d8c" d="M93.343 21.915h1.124v4.424c0 .425.265.417.498.417h2.015v1.036h-2.416c-.635 0-1.22-.241-1.22-1.14z"/></g></g></g></g></g></svg>