<svg xmlns="http://www.w3.org/2000/svg" width="149" height="58" viewBox="0 0 149 58"><g><g><g><g><g><path fill="#fff" d="M17.651 36.185c-.333.104-.667.208-.987.312-.201.063-.389.132-.583.195-.125.042-.25.083-.368.125-.626.223-1.223.438-1.793.667a.138.138 0 0 0-.049.014.33.33 0 0 1-.048.02l-.118.05c-.755.303-1.475.607-2.148.923C2.357 42.806.077 48.206.007 51.23c0-.014.008-.028.008-.042v.034l.02.293c.008.028.008.055.008.076l.021.09v.02l.041.216c.014.042.021.09.035.132.014.063.028.118.049.18a6.255 6.255 0 0 0 .118.361c.063.147.125.293.195.44.02.027.034.062.055.103.063.112.125.216.195.327.083.14.18.278.285.417.104.139.222.278.34.41.118.132.244.264.376.389.312.299.66.577 1.035.84.264.181.542.362.834.528.041.021.09.049.132.07.34.194.708.368 1.084.535.417.18.848.34 1.3.486 1.975.641 6.401.613 9.252.528a2.514 2.514 0 0 0 2.435-2.515v-19.02c-.055.021-.118.035-.174.056z"/></g><g><path fill="#fff" d="M31.765 18.77c-9.027 1.112-15.538 2.891-20.208 4.955-6.7 2.953-9.639 7.866-10.862 10.806-.368.89-.583 1.724-.695 2.474v14.023c0 .042.007.076.007.118v.084c.07-3.023 2.35-8.423 11.55-12.738a40.77 40.77 0 0 1 2.147-.924l.118-.048a.358.358 0 0 0 .049-.022.129.129 0 0 1 .049-.013c.57-.23 1.167-.445 1.792-.667.119-.042.243-.083.368-.125.195-.063.383-.132.584-.195.32-.104.653-.208.987-.312.055-.022.118-.035.173-.056.279-.084.563-.167.855-.25.327-.097.668-.195 1.008-.285a.198.198 0 0 1 .062-.014c.32-.09.64-.174.974-.257.416-.104.847-.208 1.292-.313.39-.097.793-.187 1.195-.27a57.03 57.03 0 0 1 1.341-.286c.383-.076.779-.152 1.175-.23.868-.166 1.765-.319 2.696-.464.848-.14 1.716-.265 2.613-.39.09-.013.18-.02.27-.034.501-.07 1.001-.132 1.515-.195 1-.118 1.751-.973 1.751-1.987v-9.889c0-1.508-1.313-2.682-2.807-2.494z"/></g></g><g><path fill="#fff" d="M4.837 56.65c-.375-.167-.743-.341-1.084-.536"/></g><g><path fill="#fff" d="M30.178.535C9.471 3.314 2.917 9.402.892 14.264-.08 16.605.003 18.78.003 20.018v9.81c0 .155.206.209.276.07 1.443-2.868 5.026-6.546 11.28-9.303 4.794-2.119 11.52-3.941 20.921-5.045a2.371 2.371 0 0 0 2.095-2.352V4.361c0-2.345-2.072-4.138-4.397-3.826z"/></g></g><g><g><g><path fill="#fff" d="M52.28 49.143c0-1.796 1.366-3.118 3.214-3.118.893 0 1.699.298 2.241.893l-.411.412c-.5-.508-1.113-.727-1.813-.727-1.48 0-2.592 1.086-2.592 2.54s1.112 2.54 2.592 2.54c.7 0 1.314-.22 1.813-.736l.411.412c-.543.595-1.348.901-2.25.901-1.84 0-3.205-1.322-3.205-3.117z"/></g><g><path fill="#fff" d="M60.671 51.699c-.98 0-1.717-.718-1.717-1.795s.736-1.795 1.717-1.795c.981 0 1.708.718 1.708 1.795s-.727 1.795-1.708 1.795zm0 .552c1.35 0 2.338-.98 2.338-2.347s-.989-2.339-2.337-2.339c-1.35 0-2.348.972-2.348 2.339 0 1.366.999 2.347 2.348 2.347z"/></g><g><path fill="#fff" d="M66.601 47.566v.604c-.052 0-.105-.009-.149-.009-.963 0-1.55.614-1.55 1.7v2.346h-.621v-4.606h.595v.903c.289-.614.876-.938 1.725-.938z"/></g><g><path fill="#fff" d="M70.044 47.566v.604c-.053 0-.105-.009-.149-.009-.963 0-1.55.614-1.55 1.7v2.346h-.622v-4.606h.596v.903c.288-.614.876-.938 1.725-.938z"/></g><g><path fill="#fff" d="M71.28 49.633c.08-.902.728-1.533 1.63-1.533.9 0 1.558.631 1.637 1.533zm3.853.464c0-.07.009-.14.009-.193 0-1.383-.937-2.338-2.233-2.338s-2.25.972-2.25 2.338.98 2.347 2.416 2.347c.727 0 1.366-.262 1.778-.753l-.35-.403c-.35.403-.85.604-1.41.604-1.007 0-1.743-.64-1.813-1.602h3.853z"/></g><g><path fill="#fff" d="M78.84 51.927c-.246.22-.614.324-.973.324-.867 0-1.349-.49-1.349-1.34v-2.785h-.823v-.525h.823v-1.007h.622V47.6h1.4v.525h-1.4v2.75c0 .543.28.84.797.84.254 0 .508-.078.683-.236l.219.447z"/></g><g><path fill="#fff" d="M81.686 51.699c-.98 0-1.716-.718-1.716-1.795s.735-1.795 1.716-1.795 1.708.718 1.708 1.795-.727 1.795-1.708 1.795zm0 .552c1.35 0 2.339-.98 2.339-2.347s-.99-2.339-2.339-2.339c-1.348 0-2.347.972-2.347 2.339 0 1.366.999 2.347 2.347 2.347z"/></g><g><path fill="#fff" d="M87.617 47.566v.604c-.053 0-.105-.009-.15-.009-.962 0-1.55.614-1.55 1.7v2.346h-.621v-4.606h.596v.903c.288-.614.875-.938 1.725-.938z"/></g><g><path fill="#fff" d="M91.584 50.824c-.245.604-.727.937-1.462.937-.736 0-1.165-.333-1.165-.867 0-.473.29-.824 1.183-.824h1.444v.754zm.623-1.472c0-1.19-.675-1.786-1.866-1.786-.727 0-1.41.228-1.874.622l.28.464c.377-.333.937-.543 1.533-.543.858 0 1.304.429 1.304 1.217v.28h-1.462c-1.323 0-1.778.596-1.778 1.305 0 .797.64 1.34 1.682 1.34.761 0 1.304-.29 1.585-.762v.718h.595v-2.855z"/></g><g><path fill="#fff" d="M98.076 51.699c-.98 0-1.717-.718-1.717-1.795s.744-1.795 1.717-1.795c.972 0 1.707.718 1.707 1.795s-.727 1.795-1.707 1.795zm1.699-5.99v2.768c-.385-.596-1.016-.911-1.751-.911-1.314 0-2.295.946-2.295 2.338 0 1.392.981 2.347 2.295 2.347.761 0 1.4-.333 1.777-.954v.91h.595v-6.498z"/></g><g><path fill="#fff" d="M102.29 49.633c.08-.902.728-1.533 1.629-1.533s1.559.631 1.638 1.533zm3.853.464c0-.07.008-.14.008-.193 0-1.383-.937-2.338-2.232-2.338-1.296 0-2.25.972-2.25 2.338s.98 2.347 2.416 2.347c.727 0 1.366-.262 1.778-.753l-.35-.403c-.35.403-.85.604-1.41.604-1.007 0-1.743-.64-1.813-1.602h3.853z"/></g><g><path fill="#fff" d="M109.263 51.462l.254-.499c.438.43 1.217.745 2.022.745 1.147 0 1.647-.482 1.647-1.086 0-1.682-3.775-.648-3.775-2.916 0-.902.7-1.681 2.26-1.681.691 0 1.41.2 1.9.543l-.22.516a3.159 3.159 0 0 0-1.68-.508c-1.122 0-1.62.5-1.62 1.113 0 1.681 3.774.666 3.774 2.898 0 .902-.718 1.673-2.286 1.673-.918 0-1.82-.324-2.276-.797z"/></g><g><path fill="#fff" d="M115.264 49.633c.078-.902.727-1.533 1.628-1.533.902 0 1.56.631 1.638 1.533zm3.852.464c0-.07.008-.14.008-.193 0-1.383-.936-2.338-2.232-2.338-1.296 0-2.25.972-2.25 2.338s.98 2.347 2.416 2.347c.727 0 1.366-.262 1.778-.753l-.35-.403c-.35.403-.85.604-1.41.604-1.007 0-1.743-.64-1.813-1.602h3.853z"/></g><g><path fill="#fff" d="M122.306 51.48c-1.017 0-1.744-.692-1.744-1.69s.728-1.681 1.744-1.681c1.015 0 1.75.683 1.75 1.681s-.735 1.69-1.75 1.69zm1.76-3.88v.885c-.386-.604-1.052-.92-1.822-.92-1.314 0-2.312.903-2.312 2.225 0 1.323.998 2.242 2.312 2.242.753 0 1.41-.307 1.795-.893v.586c0 1.138-.534 1.673-1.699 1.673-.71 0-1.375-.237-1.812-.63l-.316.472c.482.456 1.305.71 2.146.71 1.523 0 2.303-.719 2.303-2.304v-4.045z"/></g><g><path fill="#fff" d="M130.556 47.6v4.607h-.596v-.84c-.323.56-.919.884-1.654.884-1.174 0-1.944-.657-1.944-1.98v-2.67h.621v2.61c0 .98.508 1.48 1.384 1.48.963 0 1.567-.623 1.567-1.673V47.6h.623z"/></g><g><path fill="#fff" d="M134.622 47.566v.604c-.053 0-.105-.009-.15-.009-.963 0-1.55.614-1.55 1.7v2.346h-.621v-4.606h.596v.903c.288-.614.875-.938 1.725-.938z"/></g><g><path fill="#fff" d="M137.582 51.699c-.98 0-1.716-.718-1.716-1.795s.735-1.795 1.716-1.795 1.708.718 1.708 1.795-.727 1.795-1.708 1.795zm0 .552c1.35 0 2.339-.98 2.339-2.347s-.99-2.339-2.339-2.339c-1.348 0-2.346.972-2.346 2.339 0 1.366.998 2.347 2.346 2.347z"/></g><g><path fill="#fff" d="M140.553 51.682l.28-.49c.368.289.99.516 1.638.516.875 0 1.234-.297 1.234-.753 0-1.2-2.985-.254-2.985-2.075 0-.754.647-1.314 1.821-1.314.596 0 1.243.167 1.629.43l-.272.499c-.403-.28-.885-.395-1.357-.395-.832 0-1.2.324-1.2.763 0 1.243 2.986.306 2.986 2.075 0 .797-.7 1.313-1.9 1.313-.762 0-1.498-.245-1.874-.569z"/></g></g><g><g><path fill="#fff" d="M50.65 20.98H47.7v-5.37h2.95v-1.892c0-1.378.234-2.639.703-3.784a8.903 8.903 0 0 1 2.002-2.993c.865-.85 1.906-1.51 3.124-1.98 1.217-.47 2.589-.703 4.114-.703 1.115 0 2.186.125 3.212.373 1.026.25 2.04.61 3.037 1.079a25.56 25.56 0 0 1 2.991 1.671l-2.727 5.369a11.643 11.643 0 0 0-2.905-1.848c-1.055-.47-2.111-.704-3.168-.704-.734 0-1.35.14-1.848.418a2.69 2.69 0 0 0-1.122 1.166 3.695 3.695 0 0 0-.374 1.673v2.155h12.717v21.21h-7.041V20.978h-5.676V36.82h-7.04V20.978z"/></g><g><path fill="#fff" d="M91.573 28.19a5.037 5.037 0 0 1-.88 1.286c-.353.373-.741.7-1.166.987a4.947 4.947 0 0 1-2.795.858c-.792 0-1.534-.15-2.222-.451a5.257 5.257 0 0 1-1.76-1.222 5.755 5.755 0 0 1-1.144-1.802c-.28-.686-.419-1.442-.419-2.272 0-.83.125-1.601.375-2.316.249-.714.601-1.345 1.056-1.887a5.465 5.465 0 0 1 1.65-1.33c.645-.342 1.364-.514 2.156-.514.674 0 1.356.178 2.046.536a6.948 6.948 0 0 1 1.848 1.395c.543.572.96 1.243 1.254 2.014v4.718zm-17.646-2.788c0 1.709.264 3.28.792 4.713a11.217 11.217 0 0 0 2.267 3.758 10.385 10.385 0 0 0 3.475 2.497c1.335.593 2.824.89 4.378.89a9.803 9.803 0 0 0 4.445-1.056c1.408-.703 2.537-1.774 3.387-3.212l.09 1.188c.175.94.63 1.673 1.364 2.201.732.528 1.715.792 2.947.792.762 0 1.775-.118 3.037-.352v-5.853c-.587-.029-.99-.19-1.21-.484-.22-.292-.33-.792-.33-1.496V4.698h-7.04v13.113c-.676-1.26-1.674-2.273-2.994-3.036-1.32-.763-2.787-1.145-4.4-1.145-1.995 0-3.755.523-5.28 1.565-1.526 1.043-2.73 2.454-3.61 4.235-.879 1.78-1.32 3.772-1.32 5.973z"/></g><g><path fill="#fff" d="M110.008 23.267c.088-.96.352-1.78.792-2.458a4.586 4.586 0 0 1 1.76-1.59 5.07 5.07 0 0 1 2.376-.572c.939 0 1.76.191 2.465.573.704.382 1.29.919 1.76 1.61.469.693.748 1.505.835 2.437h-9.988zm9.878 13.179c1.453-.543 2.707-1.26 3.763-2.155a9.632 9.632 0 0 0 2.465-3.147l-5.986-1.715c-.323.822-.945 1.48-1.869 1.98a6.248 6.248 0 0 1-3.014.748 5.75 5.75 0 0 1-2.376-.513 4.676 4.676 0 0 1-1.894-1.541c-.498-.684-.777-1.525-.835-2.522h17.073c.03-.29.067-.63.11-1.022a12.158 12.158 0 0 0-1.364-6.975c-.954-1.796-2.354-3.237-4.202-4.324-1.848-1.086-4.078-1.63-6.689-1.63-2.611 0-4.84.55-6.688 1.65-1.848 1.097-3.264 2.55-4.246 4.357-.983 1.807-1.475 3.81-1.475 6.006 0 1.539.28 3.01.836 4.417a10.88 10.88 0 0 0 2.443 3.72c1.07 1.073 2.367 1.921 3.894 2.545 1.525.624 3.27.936 5.236.936 1.76 0 3.366-.273 4.818-.815z"/></g><g><path fill="#fff" d="M139.447 37.261c-1.966 0-3.88-.331-5.742-.99-1.864-.66-3.455-1.621-4.775-2.883l2.464-4.4c1.378 1.027 2.734 1.797 4.07 2.31 1.334.513 2.588.77 3.762.77.88 0 1.577-.13 2.09-.394.514-.262.77-.683.77-1.265 0-.433-.153-.766-.461-.997-.309-.231-.755-.455-1.343-.673a24.687 24.687 0 0 0-2.199-.671c-1.76-.606-3.229-1.177-4.4-1.711-1.175-.536-2.055-1.201-2.641-1.996-.587-.794-.88-1.828-.88-3.1 0-1.531.396-2.869 1.188-4.01.793-1.142 1.899-2.031 3.323-2.667 1.422-.635 3.13-.954 5.125-.954 1.585 0 3.14.25 4.665.748 1.526.499 2.948 1.35 4.268 2.552l-2.772 4.357c-1.291-.91-2.457-1.57-3.498-1.981-1.042-.41-2.046-.616-3.014-.616-.5 0-.955.059-1.364.173-.412.116-.742.302-.99.561-.25.26-.374.62-.374 1.08 0 .403.124.742.373 1.016.25.272.645.503 1.189.69.543.187 1.21.396 2.001.626 1.937.577 3.543 1.138 4.819 1.685 1.276.547 2.23 1.239 2.86 2.074.63.833.946 1.928.946 3.281 0 2.303-.851 4.11-2.552 5.42-1.701 1.31-4.005 1.965-6.908 1.965z"/></g></g></g></g></g></svg>