<svg xmlns="http://www.w3.org/2000/svg" width="99" height="50.185" viewBox="0 0 99 50.185">
  <g id="liberty-seguros" opacity="0.27">
    <path id="Caminho_27101" data-name="Caminho 27101" d="M12.438,46c3.907-6.089,8.859-11.2,18.838-11.6a30.02,30.02,0,0,0-.615-10.319l3.976-4.733-4.781,1.7a16.143,16.143,0,0,0-1.278-2.272c.473-1.562.97-3.077,1.444-4.638-1.025.8-2.075,1.562-3.1,2.367a11.16,11.16,0,0,0-5.112-2.982c-.395-1.231-.718-2.461-1.112-3.692-.284,1.073-.639,2.146-.923,3.219a11.2,11.2,0,0,0-8.851,2.177L9.788,12.445c2.827-3-.262-5.235.909-5.873-.161-.492-.65-.547-1.253-.473C8.2,4.467,15.747,4.349,12.021.213A2.554,2.554,0,0,1,9.893,1.584C9.887.542,9.492.219,9.042,0A1.328,1.328,0,0,1,7.478.776C4.847.188.229.438,2.542,5.271L1.667,6.1a1.664,1.664,0,0,0-1.04-.307A1.626,1.626,0,0,1,.935,6.807c-1.693,3.063-.885,4.6.827,5.579-.469.431-.264.75.4.993a1.48,1.48,0,0,0,.9,1.914L3.2,16.546q-.78,1.217.52,1.678.378,1.655,2.458,1.418L6.418,21.7c-2.585,6.423-2.36,17.235,3.8,23.074,3.191-5.321,7.19-7.979,11.644-9.135A23.644,23.644,0,0,0,11.3,45.294Z" fill="#2f3a56" fill-rule="evenodd"/>
    <g id="Grupo_9866" data-name="Grupo 9866">
      <path id="Caminho_27102" data-name="Caminho 27102" d="M19.8,19.217a4.3,4.3,0,0,1,2.506.236l-1.56-7.966Zm-3.309,2.435-3.664-6.075,4.964,4.278a3,3,0,0,0-1.3,1.8Zm7.895-1.276,4.775-4.822L26.25,21.888a7.289,7.289,0,0,0-1.867-1.513Zm3.1,2.482a8.1,8.1,0,0,1,.969,2.151l4.7-4.468Zm-8,3.664c.413.3.433.04.354-.295h1.356c.141.232.542.016.849-.012.2.035.288-.2-.106-.389a2.262,2.262,0,0,0-2.959-.212c-.236.24-.126.436.141.613a1.09,1.09,0,0,1,.366.295Zm3.062-3.853,1.938,1.182.638-.922-2.1-1.371ZM18.781,21.2l.567,1.158a6.857,6.857,0,0,1,2.269.047l.236-1.182a3.31,3.31,0,0,0-3.073-.024m-.685.52a1.646,1.646,0,0,0-.662,1.7,3.1,3.1,0,0,1,1.04-.8l-.378-.9Zm-1.608,4.137a1.414,1.414,0,0,1,.331-1.938c-.233-2.191.705-3.254,2.175-3.806,2.382-.591,4.891.252,7.588,3.191.7,1.048.687,1.319.567,1.536L25.9,23.472l-.733.78L26.6,25.576a2.618,2.618,0,0,1-2.837-.5c-.41-.378-.7-1.182-1.229-1.135a7.375,7.375,0,0,0-4.515-.094l.307.662c1.7-.62,3.506-.191,5.46,1.773a.928.928,0,0,0,1.489.118l.165.756.189.236c.749-.449,1.205-.5.8.071-.5.41-.9,1.15-1.489,1.016q-.508-.213-.355.52l1.962,4.562a15.829,15.829,0,0,0-5.838,1.56l-.685-1.938c.37-.536.741-1.126,1.111-1.725-1.8.883-2.419.536-2.458-.473,0-.472.067-.547.39-.437.33-.016.554-.433.083-.426-.236.047-.319.047-.556.095-.32.051-.449-.406-.224-.414a2.766,2.766,0,0,0,1.016.024c.408-.1.262-.578-.827-.39-.276.049-.418-.156-.284-.331.252-.2.6-.268.756-.532-.41-.087-.643-.433-1.229-.26a14.972,14.972,0,0,1,.26-1.8c.125-.267.062-.429-.189-.307-.5.385-.8.476-.733.024a1.439,1.439,0,0,1,.284-1.206c.474-.36.474-.832.213-.827-.657.245-.961.808-1.158,1.655m-.685-1.82a7.588,7.588,0,0,0-.284,1.655l-1.584-1.087.024-1.513Z" fill="#fff" fill-rule="evenodd"/>
      <path id="Caminho_27103" data-name="Caminho 27103" d="M27.432,27.774c-.821.687-1.857,1.321-1.135,2.458l1.584,3,1.536.047a29.472,29.472,0,0,1-1.8-3.475A3.756,3.756,0,0,1,27.432,27.774ZM19.8,35.243c-.508,0-.981-.216-1.3-1.04-.355-.8-.685-1.655-1.04-2.458-4.05-.2-2.71,4.807-4.066,7.209A20.928,20.928,0,0,1,19.8,35.243Z" fill="#fff" fill-rule="evenodd"/>
      <path id="Caminho_27104" data-name="Caminho 27104" d="M15.992,28.27c-7.493-.425-4.066,9.36-6.1,14.041C14.92,38.1,11.272,30.8,17.315,30.894Z" fill="#fff" fill-rule="evenodd"/>
      <path id="Caminho_27105" data-name="Caminho 27105" d="M13.858,27.4a7.088,7.088,0,0,1-.947-3.219,16.627,16.627,0,0,0-.852-2.509L8.475,12.315a1.933,1.933,0,0,0-1.3-1.347,5.783,5.783,0,0,1-1.56-.425c-.26-.208-.5.225-.354.614a1.109,1.109,0,0,0,1.064.685c.319.075.507.209.425.615.116.818-.259,2.144.331,2.34.5-.032.693.228.165.425l.355,8.6a10.324,10.324,0,0,0,.473,1.8l1.938,6.1c.693-2.588,1.957-4.064,3.847-4.319ZM4.67,10.888a9.559,9.559,0,0,0-1.875.66c-.052.188-.044.377.377.566l-.472.047-.047.8h.9l-.542.483A.39.39,0,0,0,3,13.895l.5.79a1.422,1.422,0,0,1,1.167-1.262l-.024-.66h.542l.012-.837L4.257,11.9c.161-.083.334-.224.5-.307-.024-.255-.059-.452-.083-.707Z" fill="#fff" fill-rule="evenodd"/>
      <path id="Caminho_27106" data-name="Caminho 27106" d="M4.387,16.665l-.012-1.922a.881.881,0,0,1,.259-.755l.872-.648.884,1.132a1.539,1.539,0,0,1,.236.9l.012,1.344c.572.448.324,1.1-.035.79a2.044,2.044,0,0,0-2.075-.024c-.531.135-.661-.614-.141-.813Zm-.861-6.06-.012-.872a2.631,2.631,0,0,1,4.138.189l-.047.766a2.963,2.963,0,0,0-4.079-.082Z" fill="#fff" fill-rule="evenodd"/>
      <path id="Caminho_27107" data-name="Caminho 27107" d="M1.416,10.016A1.534,1.534,0,0,1,1.2,8.648a1.625,1.625,0,0,0,.33-1.792c.661-.326.942.882,1.6-.92.843.126,1.4.715,2.087-.2.118-.244.4-.5.637.012.279.476.805.645,1.509.224.679-.459.841.029.9.519-.1.676.715.527,1.356.366-.527.586.786,2.067.153,3.136-.475-3.359-7.892-3.33-8.359.024ZM3.561,4.533A2.1,2.1,0,0,1,4.705,1.621c1.324-.511,2.59.9,4.079-.33a1.534,1.534,0,0,1-.177,1.037,2.768,2.768,0,0,0,3.3-.6c.357,2.5-3.458,1.868-3.82,3.5l-.566-.448q-.9.9-1.568-.141c-.15-.187-.416-.221-.756-.106-.364.123-.462.362-.763.554s-.592.113-.874-.555Z" fill="#fff" fill-rule="evenodd"/>
    </g>
    <g id="Grupo_9867" data-name="Grupo 9867">
      <path id="Caminho_27108" data-name="Caminho 27108" d="M38.047,13.9v-.652q2,.095,3.112.1,1.138,0,3.034-.1V13.9a12.808,12.808,0,0,0-1.749.352q-.231.149-.231.767l-.024,2.264v7.327h2.837a2.643,2.643,0,0,0,.937-.105,1.719,1.719,0,0,0,.615-.538,16.72,16.72,0,0,0,1.046-1.795h.7Q47.8,23.8,47.3,25.743q-3.314-.095-5.515-.1-1.8,0-3.742.1v-.652a7.307,7.307,0,0,0,1.528-.421.635.635,0,0,0,.176-.427q.036-.316.035-4.224l-.008-3.2v-.565a8.854,8.854,0,0,0-.085-1.69.468.468,0,0,0-.213-.3,10.952,10.952,0,0,0-1.432-.364Z" fill="#2f3a56" fill-rule="evenodd"/>
      <path id="Caminho_27109" data-name="Caminho 27109" d="M47.876,18.837V18.2a10.025,10.025,0,0,0,3.454-1.224l.448.238q-.122,1.069-.159,1.9-.059,1.24-.06,3.929a7.823,7.823,0,0,0,.078,1.434.5.5,0,0,0,.207.3,5.429,5.429,0,0,0,1.052.34v.616q-1.222-.095-2.237-.1c-.646,0-1.587.033-2.829.1v-.616l.232-.051a2.706,2.706,0,0,0,.914-.307.685.685,0,0,0,.177-.451c.054-.559.078-1.711.078-3.454a9.9,9.9,0,0,0-.078-1.762.469.469,0,0,0-.5-.325,5.861,5.861,0,0,0-.776.06Zm2.556-5.917a1.426,1.426,0,0,1,0,2.853,1.429,1.429,0,0,1-1.013-2.435,1.368,1.368,0,0,1,1.013-.418Zm6.131,11.545a2.875,2.875,0,0,0,1.261.337,1.623,1.623,0,0,0,1.317-.547,3.711,3.711,0,0,0,.649-2.414,4.171,4.171,0,0,0-.629-2.519,1.318,1.318,0,0,0-1.1-.535,1.356,1.356,0,0,0-1.066.5,2.589,2.589,0,0,0-.437,1.687Zm-4.054-9.8v-.616A17.473,17.473,0,0,0,56.337,12.8l.477.27a32.56,32.56,0,0,0-.261,4.774c0,.2,0,.478.01.854a9.991,9.991,0,0,1,1.754-1.341,2.584,2.584,0,0,1,1.182-.28,2.734,2.734,0,0,1,2.085.917,3.86,3.86,0,0,1,.854,2.721,4.843,4.843,0,0,1-1.628,3.779,6.037,6.037,0,0,1-4.19,1.464,7.962,7.962,0,0,1-2.674-.511q.084-2.476.086-6.124,0-4.068-.056-4.287a.559.559,0,0,0-.632-.433q-.243,0-.834.063m13.306,5.213q.533.018.88.018.821,0,2-.072a2.435,2.435,0,0,0-.407-1.488,1.25,1.25,0,0,0-.958-.37,1.35,1.35,0,0,0-1.013.442A2.4,2.4,0,0,0,65.814,19.877Zm4.937,3.479.5.67a12.362,12.362,0,0,1-2.76,1.7,4.278,4.278,0,0,1-4.1-.74A4.436,4.436,0,0,1,63.2,21.744a4.548,4.548,0,0,1,1.356-3.418,4.645,4.645,0,0,1,3.363-1.311A3.29,3.29,0,0,1,70.6,18.038a3.563,3.563,0,0,1,.648,2.086,5.978,5.978,0,0,0-.886.662q-1.007-.036-2.043-.036-1.359,0-2.522.036-.009.162-.01.324A3.9,3.9,0,0,0,66.4,23.3a2.059,2.059,0,0,0,1.847.941,3.573,3.573,0,0,0,1.15-.183,6.511,6.511,0,0,0,1.352-.7m.856-4.456v-.616a14.607,14.607,0,0,0,3.724-1.2l.449.237a14.307,14.307,0,0,0-.186,2.035,7.934,7.934,0,0,1,1.415-1.735,1.8,1.8,0,0,1,1.075-.325,2.425,2.425,0,0,1,.93.21,19.535,19.535,0,0,0-.452,2.282h-.638a.794.794,0,0,0-.244-.52.706.706,0,0,0-.468-.168,1.113,1.113,0,0,0-.783.361,2.992,2.992,0,0,0-.77,1.365,6.259,6.259,0,0,0-.112,1.428c0,1.193.013,1.879.039,2.062a.59.59,0,0,0,.205.4,3.41,3.41,0,0,0,1.043.319c.083.018.205.045.369.087v.616q-1.785-.095-2.887-.1-1.184,0-2.707.1v-.616c.754-.147,1.18-.31,1.28-.493a14.484,14.484,0,0,0,.215-3.62,6.585,6.585,0,0,0-.141-1.951.541.541,0,0,0-.507-.234,7.424,7.424,0,0,0-.847.072Zm14.088-1.179.1.076c-.186.328.344.231.2.586-.628-.066-2.51.054-3.238.024l-.027,1.046L82.7,20.662l-.027,1.2a4.784,4.784,0,0,0,.28,2.11.831.831,0,0,0,.725.427,3.266,3.266,0,0,0,1.109-.334l.319.635a13.479,13.479,0,0,1-1.771.959,3.33,3.33,0,0,1-1.127.21,1.7,1.7,0,0,1-1.308-.52,2.161,2.161,0,0,1-.49-1.53l.036-2.036.069-3.373-.713-.018c-.063,0-.247.006-.544.018v-.653a4.365,4.365,0,0,0,1.554-.977,8.257,8.257,0,0,0,1.431-2.008h.776a24.023,24.023,0,0,0-.265,2.858c.92.022,2.008.109,2.939.094Z" fill="#2f3a56" fill-rule="evenodd"/>
      <path id="Caminho_27110" data-name="Caminho 27110" d="M84.71,18.314l.035-.628c1.067.062,1.965.012,2.545.012q.907,0,2.4-.094v.6c-.093.015-.165.027-.211.033a1.807,1.807,0,0,0-.661.185.321.321,0,0,0-.123.256,2.106,2.106,0,0,0,.186.568l1.32,3.228,1.049-3.036a2.569,2.569,0,0,0,.165-.733.33.33,0,0,0-.114-.256,1.754,1.754,0,0,0-.6-.244v-.6c.67.062,1.218.094,1.648.094a11.773,11.773,0,0,0,1.443-.094v.6a2.9,2.9,0,0,0-.854.362,1.782,1.782,0,0,0-.409.624c-.144.312-.592,1.476-1.344,3.481q-1.416,3.8-1.84,4.659c-.4.807-1.447,3.193-1.91,3.5a3.513,3.513,0,0,1-2.479.44l.168-2.14c.739.581,1.395.586,2.512-.253a16.689,16.689,0,0,0,1.418-3.373l-2.51-5.566a4.566,4.566,0,0,0-.7-1.263c-.16-.141-.2-.395-1.128-.371ZM44.986,36.607h-.78a4.079,4.079,0,0,0-.78-2.106,1.891,1.891,0,0,0-1.419-.536,1.715,1.715,0,0,0-1.254.439,1.5,1.5,0,0,0-.447,1.117,1.664,1.664,0,0,0,.412,1.095,6.336,6.336,0,0,0,1.964,1.237,5.8,5.8,0,0,1,2.169,1.553,3.34,3.34,0,0,1,.615,2.047,3.624,3.624,0,0,1-1.057,2.581A4.53,4.53,0,0,1,41,45.142a9.3,9.3,0,0,1-1.592-.131A8.509,8.509,0,0,1,38,44.634q.132-1.437.133-2.837v-.547H38.9a5.35,5.35,0,0,0,.732,2.175,1.943,1.943,0,0,0,1.621.743,1.76,1.76,0,0,0,1.325-.514,1.816,1.816,0,0,0,.5-1.318,1.9,1.9,0,0,0-.207-.9,2.2,2.2,0,0,0-.615-.712,9.432,9.432,0,0,0-1.485-.844A6.159,6.159,0,0,1,38.553,38.3a2.885,2.885,0,0,1-.562-1.776,3.271,3.271,0,0,1,1.059-2.494,4.316,4.316,0,0,1,3.058-.991,8.928,8.928,0,0,1,2.877.533q-.048,1.282-.048,1.782C44.938,35.744,44.954,36.16,44.986,36.607Zm3.505,3.06q.485.016.8.016.748,0,1.825-.064a2.141,2.141,0,0,0-.371-1.328,1.151,1.151,0,0,0-.873-.33,1.241,1.241,0,0,0-.923.394,2.117,2.117,0,0,0-.46,1.312Zm4.5,3.1.451.6a11.321,11.321,0,0,1-2.514,1.516,3.342,3.342,0,0,1-1.267.206,3.308,3.308,0,0,1-2.469-.867,3.911,3.911,0,0,1-1.08-2.892,4.016,4.016,0,0,1,1.234-3.05,4.28,4.28,0,0,1,3.063-1.17,3.028,3.028,0,0,1,2.442.912,3.135,3.135,0,0,1,.591,1.862,5.437,5.437,0,0,0-.807.59q-.93-.032-1.861-.032-1.237,0-2.3.032-.008.145-.009.289a3.43,3.43,0,0,0,.561,1.95,1.887,1.887,0,0,0,1.682.84,3.319,3.319,0,0,0,1.048-.164,5.964,5.964,0,0,0,1.232-.622m3.88,3.929a1.775,1.775,0,0,0-.872,1.281,1.06,1.06,0,0,0,.515.806,2.6,2.6,0,0,0,1.561.384,4.106,4.106,0,0,0,2.189-.5,1.37,1.37,0,0,0,.79-1.124.631.631,0,0,0-.278-.568,2.99,2.99,0,0,0-1.491-.247l-1.147.019c-.2,0-.625-.019-1.267-.053Zm.37-6.525a3.74,3.74,0,0,0,.49,2.105.919.919,0,0,0,.8.418.889.889,0,0,0,.736-.434,3,3,0,0,0,.31-1.633,3.742,3.742,0,0,0-.442-2.058.92.92,0,0,0-.8-.412.942.942,0,0,0-.774.434,2.831,2.831,0,0,0-.319,1.58Zm5.961-2.58.092.172a7.934,7.934,0,0,0-.537,1.043,7.372,7.372,0,0,0-1.213-.119,3.224,3.224,0,0,1,.474,1.612,3.022,3.022,0,0,1-.439,1.59,3.065,3.065,0,0,1-1.333,1.156,4.316,4.316,0,0,1-1.877.428c-.139,0-.31-.009-.509-.025q-.339-.033-.676-.075c-.389.347-.581.622-.581.825,0,.109.07.2.212.275a4.639,4.639,0,0,0,1.649.172l1.526-.019a4.253,4.253,0,0,1,2.47.487,1.773,1.773,0,0,1,.6,1.471,2.992,2.992,0,0,1-.594,1.8,4.05,4.05,0,0,1-1.893,1.309,8.593,8.593,0,0,1-3.048.494,5.072,5.072,0,0,1-2.888-.678,1.393,1.393,0,0,1-.676-1.162.828.828,0,0,1,.12-.459,1.553,1.553,0,0,1,.49-.409,15.232,15.232,0,0,0,1.352-.925,2.119,2.119,0,0,1-1-.625,1.378,1.378,0,0,1-.291-.868.932.932,0,0,1,.079-.437,1.28,1.28,0,0,1,.338-.359q.952-.74,1.377-1.124a2.88,2.88,0,0,1-1.137-.868,2.806,2.806,0,0,1-.5-1.684,3.012,3.012,0,0,1,.97-2.317,3.924,3.924,0,0,1,2.758-.9,4.828,4.828,0,0,1,.894.084,5.493,5.493,0,0,1,.9.247l1.08.019a12.612,12.612,0,0,0,1.8-.128m10.7,6.07v.6a20.173,20.173,0,0,0-2.08.333,12.183,12.183,0,0,0-1.539.474l-.424-.243a11.134,11.134,0,0,0,.161-1.163,9.8,9.8,0,0,1-1.6,1.155,2.478,2.478,0,0,1-1.053.209,2.89,2.89,0,0,1-1.182-.221,1.776,1.776,0,0,1-.74-.565,1.976,1.976,0,0,1-.319-.9c-.025-.237-.034-.852-.034-1.842l.006-1.607a3.209,3.209,0,0,0-.2-1.544,2.347,2.347,0,0,0-1.251-.3v-.54a19.126,19.126,0,0,0,3.563-.535l.418.234a10.7,10.7,0,0,0-.118,1.2c-.049.954-.074,1.789-.074,2.511a5.724,5.724,0,0,0,.251,2.156.959.959,0,0,0,.938.485,1.448,1.448,0,0,0,.929-.306,1.5,1.5,0,0,0,.5-.937,20.625,20.625,0,0,0,.08-2.544,3.17,3.17,0,0,0-.167-1.434,2.673,2.673,0,0,0-1.266-.287v-.54c1.053-.094,1.8-.174,2.26-.248a12.664,12.664,0,0,0,1.335-.287l.424.226a10.469,10.469,0,0,0-.17,1.373q-.074,1.075-.074,3.239a6.778,6.778,0,0,0,.093,1.607c.077.174.266.259.57.259h.1c.152-.005.372-.011.662-.016Zm.147-5.519v-.59a12.93,12.93,0,0,0,3.4-1.147l.41.227a14.3,14.3,0,0,0-.17,1.947,7.524,7.524,0,0,1,1.293-1.66,1.589,1.589,0,0,1,.982-.311,2.131,2.131,0,0,1,.85.2A19.475,19.475,0,0,0,80.4,39h-.583a.773.773,0,0,0-.223-.5.627.627,0,0,0-.428-.161,1,1,0,0,0-.715.345,2.9,2.9,0,0,0-.7,1.306,6.271,6.271,0,0,0-.1,1.366c0,1.142.012,1.8.035,1.973a.573.573,0,0,0,.188.385,3.016,3.016,0,0,0,.952.3q.169.038.337.083v.59q-1.631-.091-2.638-.092-1.081,0-2.474.092V44.1c.689-.141,1.079-.3,1.169-.472a14.482,14.482,0,0,0,.2-3.463,6.587,6.587,0,0,0-.129-1.867.487.487,0,0,0-.463-.224,6.429,6.429,0,0,0-.774.069Zm9.968,2.423a5.85,5.85,0,0,0,.689,3.247,1.286,1.286,0,0,0,1.128.57,1.223,1.223,0,0,0,1.041-.487,4.157,4.157,0,0,0,.525-2.415,5.571,5.571,0,0,0-.656-3.113,1.3,1.3,0,0,0-1.128-.578,1.273,1.273,0,0,0-1.065.5A3.734,3.734,0,0,0,84.013,40.568Zm-2.613.424a3.7,3.7,0,0,1,1.2-2.875,4.551,4.551,0,0,1,3.2-1.1,4.406,4.406,0,0,1,3.088,1.016A3.588,3.588,0,0,1,90,40.831a4.238,4.238,0,0,1-1.184,3.2,4.423,4.423,0,0,1-3.2,1.139,4.314,4.314,0,0,1-3.124-1.06,4.124,4.124,0,0,1-1.1-3.113m9.467,1.339h.75a2.727,2.727,0,0,0,.719,1.527,1.7,1.7,0,0,0,1.171.456,1.184,1.184,0,0,0,.8-.254.775.775,0,0,0,.3-.618.94.94,0,0,0-.29-.644,7.1,7.1,0,0,0-1.486-.954,5.121,5.121,0,0,1-1.595-1.171,1.884,1.884,0,0,1-.409-1.182,2.014,2.014,0,0,1,.824-1.619,3.693,3.693,0,0,1,2.365-.663,6.058,6.058,0,0,1,2.274.467,16.225,16.225,0,0,0-.242,1.948l-.725-.024a2.321,2.321,0,0,0-.594-1.3,1.415,1.415,0,0,0-.978-.382,1.049,1.049,0,0,0-.713.223.726.726,0,0,0-.253.57.793.793,0,0,0,.224.551,5.417,5.417,0,0,0,1.373.9,5.821,5.821,0,0,1,1.748,1.219,1.869,1.869,0,0,1,.409,1.2,2.424,2.424,0,0,1-.767,1.725,3.606,3.606,0,0,1-2.637.784,9.037,9.037,0,0,1-2.382-.358q.107-1.368.117-2.4ZM38.188,28.873h44.9v.853h-44.9Zm51.719,0H99v.853H89.907Z" fill="#2f3a56" fill-rule="evenodd"/>
    </g>
  </g>
</svg>
