<svg xmlns="http://www.w3.org/2000/svg" xmlns:xlink="http://www.w3.org/1999/xlink" width="99" height="55.66" viewBox="0 0 99 55.66">
  <defs>
    <clipPath id="clip-path">
      <rect id="Retângulo_6719" data-name="Retângulo 6719" width="99" height="55.66"/>
    </clipPath>
  </defs>
  <g id="essor-logo-tagline" opacity="0.27">
    <g id="Grupo_9805" data-name="Grupo 9805">
      <g id="Grupo_9804" data-name="Grupo 9804" clip-path="url(#clip-path)">
        <path id="Caminho_27070" data-name="Caminho 27070" d="M10.688,39.45l-.049.341a1.435,1.435,0,0,0-.316-.119,1.4,1.4,0,0,0-.336-.04.992.992,0,0,0-.587.151.484.484,0,0,0-.212.416q0,.334.714.742c.065.036.115.064.149.085a2.225,2.225,0,0,1,.645.491.81.81,0,0,1,.149.493.933.933,0,0,1-.322.737,1.233,1.233,0,0,1-.844.282,2.141,2.141,0,0,1-.424-.042,2.193,2.193,0,0,1-.408-.125l.041-.38a2.175,2.175,0,0,0,.42.179,1.335,1.335,0,0,0,.376.058.869.869,0,0,0,.58-.185.614.614,0,0,0,.218-.493q0-.37-.693-.768l-.164-.1a2.246,2.246,0,0,1-.63-.482.773.773,0,0,1-.153-.478.785.785,0,0,1,.3-.656,1.358,1.358,0,0,1,.851-.235,1.9,1.9,0,0,1,.338.031,2.585,2.585,0,0,1,.356.093" fill="#464646"/>
      </g>
    </g>
    <g id="Grupo_9807" data-name="Grupo 9807">
      <g id="Grupo_9806" data-name="Grupo 9806" clip-path="url(#clip-path)">
        <path id="Caminho_27071" data-name="Caminho 27071" d="M13.554,41.563v.19H11.7a1.146,1.146,0,0,0,.259.764.887.887,0,0,0,.688.266,1.335,1.335,0,0,0,.35-.047,1.665,1.665,0,0,0,.353-.143v.326A1.8,1.8,0,0,1,13,43.03a1.9,1.9,0,0,1-.38.037,1.157,1.157,0,0,1-.909-.367,1.478,1.478,0,0,1-.329-1.022A1.46,1.46,0,0,1,11.7,40.7a1.045,1.045,0,0,1,.835-.373.915.915,0,0,1,.743.334,1.381,1.381,0,0,1,.276.906m-.321-.054a1.173,1.173,0,0,0-.218-.674A.631.631,0,0,0,12.5,40.6a.675.675,0,0,0-.532.245,1.144,1.144,0,0,0-.252.664Z" fill="#464646"/>
      </g>
    </g>
    <g id="Grupo_9809" data-name="Grupo 9809">
      <g id="Grupo_9808" data-name="Grupo 9808" clip-path="url(#clip-path)">
        <path id="Caminho_27072" data-name="Caminho 27072" d="M15.893,40.875v-.491h.3v2.339a1.669,1.669,0,0,1-.3,1.08,1.084,1.084,0,0,1-.888.358,2.454,2.454,0,0,1-.438-.038,1.926,1.926,0,0,1-.4-.116l.026-.352a1.744,1.744,0,0,0,.393.158,1.572,1.572,0,0,0,.4.053.81.81,0,0,0,.659-.282,1.21,1.21,0,0,0,.235-.8v-.342a1.1,1.1,0,0,1-.37.422.9.9,0,0,1-.5.145.942.942,0,0,1-.774-.368,1.776,1.776,0,0,1,0-1.955,1.034,1.034,0,0,1,1.3-.223.946.946,0,0,1,.351.408m-.84-.28a.641.641,0,0,0-.548.285,1.314,1.314,0,0,0-.2.778,1.329,1.329,0,0,0,.205.784.649.649,0,0,0,.557.289.692.692,0,0,0,.578-.29,1.235,1.235,0,0,0,.221-.768,1.291,1.291,0,0,0-.216-.792.7.7,0,0,0-.593-.286" fill="#464646"/>
      </g>
    </g>
    <g id="Grupo_9811" data-name="Grupo 9811">
      <g id="Grupo_9810" data-name="Grupo 9810" clip-path="url(#clip-path)">
        <path id="Caminho_27073" data-name="Caminho 27073" d="M17.036,40.384h.326v1.5a1.106,1.106,0,0,0,.153.65.551.551,0,0,0,.476.208.656.656,0,0,0,.574-.286,1.44,1.44,0,0,0,.2-.826V40.384H19.1V43h-.306v-.516a1.026,1.026,0,0,1-.366.415.982.982,0,0,1-.528.137.776.776,0,0,1-.643-.273,1.265,1.265,0,0,1-.219-.805V40.384Z" fill="#464646"/>
      </g>
    </g>
    <g id="Grupo_9813" data-name="Grupo 9813">
      <g id="Grupo_9812" data-name="Grupo 9812" clip-path="url(#clip-path)">
        <path id="Caminho_27074" data-name="Caminho 27074" d="M21.247,40.364V40.7q-.057-.013-.1-.019a.556.556,0,0,0-.081-.006.613.613,0,0,0-.519.249,1.127,1.127,0,0,0-.187.691V43h-.331V40.384h.306v.552a.924.924,0,0,1,.293-.434.712.712,0,0,1,.455-.154c.024,0,.049,0,.076,0l.091.012" fill="#464646"/>
      </g>
    </g>
    <g id="Grupo_9815" data-name="Grupo 9815">
      <g id="Grupo_9814" data-name="Grupo 9814" clip-path="url(#clip-path)">
        <path id="Caminho_27075" data-name="Caminho 27075" d="M23.53,41.332V43h-.293v-.452a1,1,0,0,1-.369.365,1.022,1.022,0,0,1-.5.123.868.868,0,0,1-.6-.205.7.7,0,0,1-.227-.547.739.739,0,0,1,.349-.651,1.772,1.772,0,0,1,.986-.232H23.2c0-.01,0-.025,0-.044s0-.033,0-.044a.747.747,0,0,0-.163-.511.57.57,0,0,0-.451-.185,1.369,1.369,0,0,0-.385.054,1.492,1.492,0,0,0-.367.167V40.52a1.958,1.958,0,0,1,.394-.144,1.65,1.65,0,0,1,.394-.049.858.858,0,0,1,.674.252,1.1,1.1,0,0,1,.225.752m-.693.342a1.351,1.351,0,0,0-.71.154.522.522,0,0,0-.1.8.526.526,0,0,0,.382.14.76.76,0,0,0,.581-.231.878.878,0,0,0,.217-.627v-.241h-.367Z" fill="#464646"/>
      </g>
    </g>
    <g id="Grupo_9817" data-name="Grupo 9817">
      <g id="Grupo_9816" data-name="Grupo 9816" clip-path="url(#clip-path)">
        <path id="Caminho_27076" data-name="Caminho 27076" d="M26.107,39.085h.331V43h-.306v-.537a1.077,1.077,0,0,1-.375.428.966.966,0,0,1-.529.145.9.9,0,0,1-.75-.384,1.6,1.6,0,0,1-.293-1,1.486,1.486,0,0,1,.3-.967.975.975,0,0,1,1.625.13V39.085ZM25.3,40.6a.635.635,0,0,0-.547.289,1.343,1.343,0,0,0-.2.784,1.363,1.363,0,0,0,.2.795.64.64,0,0,0,.552.289.7.7,0,0,0,.583-.293,1.245,1.245,0,0,0,.223-.775,1.311,1.311,0,0,0-.216-.8.7.7,0,0,0-.6-.289" fill="#464646"/>
      </g>
    </g>
    <g id="Grupo_9819" data-name="Grupo 9819">
      <g id="Grupo_9818" data-name="Grupo 9818" clip-path="url(#clip-path)">
        <path id="Caminho_27077" data-name="Caminho 27077" d="M28.372,40.328a1.128,1.128,0,0,1,.886.369,1.681,1.681,0,0,1,0,2,1.235,1.235,0,0,1-1.768,0,1.674,1.674,0,0,1,0-2,1.126,1.126,0,0,1,.885-.37m0,.278a.758.758,0,0,0-.623.3,1.412,1.412,0,0,0,0,1.57.758.758,0,0,0,.622.3.768.768,0,0,0,.632-.3A1.435,1.435,0,0,0,29,40.9a.769.769,0,0,0-.632-.294" fill="#464646"/>
      </g>
    </g>
    <g id="Grupo_9821" data-name="Grupo 9821">
      <g id="Grupo_9820" data-name="Grupo 9820" clip-path="url(#clip-path)">
        <path id="Caminho_27078" data-name="Caminho 27078" d="M31.523,40.364V40.7q-.057-.013-.1-.019a.558.558,0,0,0-.081-.006.613.613,0,0,0-.518.249,1.126,1.126,0,0,0-.188.691V43H30.3V40.384h.306v.552A.923.923,0,0,1,30.9,40.5a.712.712,0,0,1,.454-.154c.024,0,.049,0,.076,0l.091.012" fill="#464646"/>
      </g>
    </g>
    <g id="Grupo_9823" data-name="Grupo 9823">
      <g id="Grupo_9822" data-name="Grupo 9822" clip-path="url(#clip-path)">
        <path id="Caminho_27079" data-name="Caminho 27079" d="M33.806,41.332V43h-.293v-.452a1,1,0,0,1-.368.365,1.022,1.022,0,0,1-.5.123.867.867,0,0,1-.6-.205.7.7,0,0,1-.227-.547.739.739,0,0,1,.349-.651,1.772,1.772,0,0,1,.986-.232h.336c0-.01,0-.025,0-.044s0-.033,0-.044a.747.747,0,0,0-.163-.511.57.57,0,0,0-.451-.185,1.368,1.368,0,0,0-.385.054,1.493,1.493,0,0,0-.367.167V40.52a1.966,1.966,0,0,1,.394-.144,1.651,1.651,0,0,1,.394-.049.857.857,0,0,1,.674.252,1.1,1.1,0,0,1,.225.752m-.693.342a1.351,1.351,0,0,0-.71.154.521.521,0,0,0-.1.8.526.526,0,0,0,.381.14.76.76,0,0,0,.582-.231.88.88,0,0,0,.217-.627v-.241h-.367Z" fill="#464646"/>
      </g>
    </g>
    <g id="Grupo_9825" data-name="Grupo 9825">
      <g id="Grupo_9824" data-name="Grupo 9824" clip-path="url(#clip-path)">
        <path id="Caminho_27080" data-name="Caminho 27080" d="M37.855,39.085h.331V43h-.305v-.537a1.078,1.078,0,0,1-.375.428.966.966,0,0,1-.529.145.9.9,0,0,1-.75-.384,1.6,1.6,0,0,1-.293-1,1.487,1.487,0,0,1,.3-.967.975.975,0,0,1,1.625.13V39.085ZM37.044,40.6a.635.635,0,0,0-.547.289,1.341,1.341,0,0,0-.2.784,1.362,1.362,0,0,0,.2.795.64.64,0,0,0,.552.289.7.7,0,0,0,.583-.293,1.244,1.244,0,0,0,.224-.775,1.311,1.311,0,0,0-.216-.8.7.7,0,0,0-.6-.289" fill="#464646"/>
      </g>
    </g>
    <g id="Grupo_9827" data-name="Grupo 9827">
      <g id="Grupo_9826" data-name="Grupo 9826" clip-path="url(#clip-path)">
        <path id="Caminho_27081" data-name="Caminho 27081" d="M40.12,40.328a1.128,1.128,0,0,1,.886.369,1.682,1.682,0,0,1,0,2,1.235,1.235,0,0,1-1.768,0,1.675,1.675,0,0,1,0-2,1.127,1.127,0,0,1,.885-.37m0,.278a.758.758,0,0,0-.623.3,1.413,1.413,0,0,0,0,1.57.757.757,0,0,0,.621.3.767.767,0,0,0,.632-.3,1.435,1.435,0,0,0,0-1.578.768.768,0,0,0-.632-.294" fill="#464646"/>
      </g>
    </g>
    <g id="Grupo_9829" data-name="Grupo 9829">
      <g id="Grupo_9828" data-name="Grupo 9828" clip-path="url(#clip-path)">
        <path id="Caminho_27082" data-name="Caminho 27082" d="M46.177,39.516l-.067.316a1.937,1.937,0,0,0-.43-.15,2.18,2.18,0,0,0-.474-.05,1.452,1.452,0,0,0-1.089.416,1.528,1.528,0,0,0-.406,1.114,1.551,1.551,0,0,0,.422,1.144,1.534,1.534,0,0,0,1.139.425,1.839,1.839,0,0,0,.359-.033,1.433,1.433,0,0,0,.313-.1V41.337h-.835v-.3h1.176v1.782a2.656,2.656,0,0,1-.5.146,2.958,2.958,0,0,1-.543.049,2.367,2.367,0,0,1-.659-.085,1.691,1.691,0,0,1-1.057-.9,1.984,1.984,0,0,1-.182-.86,2.029,2.029,0,0,1,.086-.6,1.911,1.911,0,0,1,.266-.538,1.5,1.5,0,0,1,.624-.512,2.065,2.065,0,0,1,.881-.186,2.862,2.862,0,0,1,.507.044,2.4,2.4,0,0,1,.469.133" fill="#464646"/>
      </g>
    </g>
    <g id="Grupo_9831" data-name="Grupo 9831">
      <g id="Grupo_9830" data-name="Grupo 9830" clip-path="url(#clip-path)">
        <path id="Caminho_27083" data-name="Caminho 27083" d="M48.355,40.364V40.7q-.057-.013-.1-.019a.557.557,0,0,0-.081-.006.613.613,0,0,0-.519.249,1.127,1.127,0,0,0-.188.691V43h-.331V40.384h.306v.552a.923.923,0,0,1,.293-.434.712.712,0,0,1,.454-.154c.024,0,.049,0,.076,0l.091.012" fill="#464646"/>
      </g>
    </g>
    <g id="Grupo_9833" data-name="Grupo 9833">
      <g id="Grupo_9832" data-name="Grupo 9832" clip-path="url(#clip-path)">
        <path id="Caminho_27084" data-name="Caminho 27084" d="M48.83,40.384h.326v1.5a1.106,1.106,0,0,0,.153.65.552.552,0,0,0,.476.208.656.656,0,0,0,.574-.286,1.44,1.44,0,0,0,.2-.826V40.384h.334V43h-.306v-.516a1.028,1.028,0,0,1-.366.415.982.982,0,0,1-.528.137.776.776,0,0,1-.643-.273,1.265,1.265,0,0,1-.22-.805V40.384Z" fill="#464646"/>
      </g>
    </g>
    <g id="Grupo_9835" data-name="Grupo 9835">
      <g id="Grupo_9834" data-name="Grupo 9834" clip-path="url(#clip-path)">
        <path id="Caminho_27085" data-name="Caminho 27085" d="M52.152,42.556V44.1h-.331V40.384h.306V40.9a1.11,1.11,0,0,1,.383-.425.956.956,0,0,1,.521-.148.93.93,0,0,1,.766.359,1.516,1.516,0,0,1,.286.971,1.572,1.572,0,0,1-.3,1,1.028,1.028,0,0,1-1.28.249.975.975,0,0,1-.356-.355m1.574-.878a1.334,1.334,0,0,0-.2-.786.646.646,0,0,0-.556-.282.712.712,0,0,0-.592.29,1.231,1.231,0,0,0-.225.773,1.326,1.326,0,0,0,.214.8.7.7,0,0,0,.6.289.647.647,0,0,0,.553-.3,1.347,1.347,0,0,0,.209-.794" fill="#464646"/>
      </g>
    </g>
    <g id="Grupo_9837" data-name="Grupo 9837">
      <g id="Grupo_9836" data-name="Grupo 9836" clip-path="url(#clip-path)">
        <path id="Caminho_27086" data-name="Caminho 27086" d="M55.791,40.328a1.128,1.128,0,0,1,.886.369,1.682,1.682,0,0,1,0,2,1.235,1.235,0,0,1-1.768,0,1.674,1.674,0,0,1,0-2,1.127,1.127,0,0,1,.885-.37m0,.278a.759.759,0,0,0-.623.3,1.413,1.413,0,0,0,0,1.57.757.757,0,0,0,.621.3.768.768,0,0,0,.632-.3,1.435,1.435,0,0,0,0-1.578.769.769,0,0,0-.632-.294" fill="#464646"/>
      </g>
    </g>
    <g id="Grupo_9839" data-name="Grupo 9839">
      <g id="Grupo_9838" data-name="Grupo 9838" clip-path="url(#clip-path)">
        <path id="Caminho_27087" data-name="Caminho 27087" d="M60.909,39.45l-.049.341a1.436,1.436,0,0,0-.316-.119,1.4,1.4,0,0,0-.336-.04.993.993,0,0,0-.587.151.484.484,0,0,0-.212.416q0,.334.714.742c.065.036.115.064.149.085a2.229,2.229,0,0,1,.645.491.81.81,0,0,1,.149.493.933.933,0,0,1-.322.737,1.233,1.233,0,0,1-.844.282,2.143,2.143,0,0,1-.424-.042,2.191,2.191,0,0,1-.408-.125l.041-.38a2.184,2.184,0,0,0,.42.179,1.336,1.336,0,0,0,.376.058.869.869,0,0,0,.58-.185.614.614,0,0,0,.218-.493q0-.37-.693-.768l-.164-.1a2.243,2.243,0,0,1-.63-.482.772.772,0,0,1-.153-.478.785.785,0,0,1,.3-.656,1.357,1.357,0,0,1,.851-.235,1.9,1.9,0,0,1,.338.031,2.593,2.593,0,0,1,.356.093" fill="#464646"/>
      </g>
    </g>
    <g id="Grupo_9841" data-name="Grupo 9841">
      <g id="Grupo_9840" data-name="Grupo 9840" clip-path="url(#clip-path)">
        <path id="Caminho_27088" data-name="Caminho 27088" d="M64.311,39.47V39.8a2.545,2.545,0,0,0-.411-.121,1.976,1.976,0,0,0-.383-.038,1.481,1.481,0,0,0-1.116.417,1.585,1.585,0,0,0-.4,1.152,1.464,1.464,0,0,0,.4,1.094,1.521,1.521,0,0,0,1.116.4,2.164,2.164,0,0,0,.4-.036,1.86,1.86,0,0,0,.371-.11V42.9a1.955,1.955,0,0,1-.375.087,3.415,3.415,0,0,1-.462.028,1.8,1.8,0,0,1-1.329-.491,1.772,1.772,0,0,1-.494-1.317,1.817,1.817,0,0,1,.514-1.357,1.883,1.883,0,0,1,1.379-.5,2.811,2.811,0,0,1,.43.031,1.62,1.62,0,0,1,.358.1" fill="#464646"/>
      </g>
    </g>
    <g id="Grupo_9843" data-name="Grupo 9843">
      <g id="Grupo_9842" data-name="Grupo 9842" clip-path="url(#clip-path)">
        <path id="Caminho_27089" data-name="Caminho 27089" d="M66.3,39.29a1.453,1.453,0,0,1,1.166.51,2.406,2.406,0,0,1,0,2.756,1.587,1.587,0,0,1-2.334,0,2.4,2.4,0,0,1,0-2.754A1.454,1.454,0,0,1,66.3,39.29m0,.3a1.083,1.083,0,0,0-.9.43,2.142,2.142,0,0,0,0,2.3,1.153,1.153,0,0,0,1.8,0,2.136,2.136,0,0,0,0-2.3,1.087,1.087,0,0,0-.9-.43" fill="#464646"/>
      </g>
    </g>
    <g id="Grupo_9845" data-name="Grupo 9845">
      <g id="Grupo_9844" data-name="Grupo 9844" clip-path="url(#clip-path)">
        <path id="Caminho_27090" data-name="Caminho 27090" d="M68.679,39.354h.811a1.433,1.433,0,0,1,.891.235.825.825,0,0,1,.3.695.811.811,0,0,1-.216.574,1.117,1.117,0,0,1-.611.315.552.552,0,0,1,.27.14,1.123,1.123,0,0,1,.216.345l.6,1.345h-.378l-.542-1.269a.713.713,0,0,0-.244-.32.737.737,0,0,0-.4-.094h-.357V43h-.339V39.354Zm.339.3v1.358h.418a.984.984,0,0,0,.646-.193.655.655,0,0,0,.232-.534.551.551,0,0,0-.213-.475,1.091,1.091,0,0,0-.647-.157h-.436Z" fill="#464646"/>
      </g>
    </g>
    <g id="Grupo_9847" data-name="Grupo 9847">
      <g id="Grupo_9846" data-name="Grupo 9846" clip-path="url(#clip-path)">
        <path id="Caminho_27091" data-name="Caminho 27091" d="M15.684,24.3a3.654,3.654,0,0,0-3.106,1.49,3.327,3.327,0,0,0-.758,1.92h5.634c.589,0,.887-.275.887-.833a2.573,2.573,0,0,0-.835-1.719,2.505,2.505,0,0,0-1.822-.858M11.82,30.064a3.437,3.437,0,0,0,.908,2.232,3.664,3.664,0,0,0,2.956,1.38,14.025,14.025,0,0,0,4.68-.912v2.524a17.173,17.173,0,0,1-4.68.739,6.4,6.4,0,0,1-5.076-2.048A7.225,7.225,0,0,1,8.914,29a7.282,7.282,0,0,1,1.621-4.881,6.256,6.256,0,0,1,5.127-2.174,5.4,5.4,0,0,1,3.865,1.519,4.84,4.84,0,0,1,1.618,3.663,2.566,2.566,0,0,1-1.011,2.147,3.851,3.851,0,0,1-2.428.787Z" fill="#006a8d"/>
      </g>
    </g>
    <g id="Grupo_9849" data-name="Grupo 9849">
      <g id="Grupo_9848" data-name="Grupo 9848" clip-path="url(#clip-path)">
        <path id="Caminho_27092" data-name="Caminho 27092" d="M29.245,36.053a12.521,12.521,0,0,1-4.147-.685V32.74a9.419,9.419,0,0,0,4.04,1.016,3.117,3.117,0,0,0,1.777-.473,1.341,1.341,0,0,0,.7-1.148q0-.935-1.69-1.768c-1.94-.941-2.974-1.468-3.112-1.569a3.354,3.354,0,0,1-1.69-2.854,3.449,3.449,0,0,1,1.592-3.087,5.914,5.914,0,0,1,3.309-.883,12.323,12.323,0,0,1,3.717.659v2.5a9.527,9.527,0,0,0-3.523-.806q-2.29,0-2.29,1.467c0,.52.562,1.045,1.69,1.567a27.247,27.247,0,0,1,3.17,1.593,3.631,3.631,0,0,1,1.685,3.057,3.5,3.5,0,0,1-1.849,3.213,6.648,6.648,0,0,1-3.38.832" fill="#006a8d"/>
      </g>
    </g>
    <g id="Grupo_9851" data-name="Grupo 9851">
      <g id="Grupo_9850" data-name="Grupo 9850" clip-path="url(#clip-path)">
        <path id="Caminho_27093" data-name="Caminho 27093" d="M41.913,36.053a12.512,12.512,0,0,1-4.143-.685V32.74a9.414,9.414,0,0,0,4.045,1.016,3.09,3.09,0,0,0,1.763-.473,1.35,1.35,0,0,0,.714-1.148c0-.623-.569-1.213-1.7-1.768-1.937-.941-2.974-1.468-3.107-1.569a3.349,3.349,0,0,1-1.694-2.854,3.44,3.44,0,0,1,1.59-3.087,5.939,5.939,0,0,1,3.315-.883,12.361,12.361,0,0,1,3.715.659v2.5a9.543,9.543,0,0,0-3.523-.806c-1.523,0-2.291.488-2.291,1.467,0,.52.56,1.045,1.688,1.567a27.029,27.029,0,0,1,3.17,1.593,3.626,3.626,0,0,1,1.689,3.057A3.512,3.512,0,0,1,45.3,35.222a6.681,6.681,0,0,1-3.387.832" fill="#006a8d"/>
      </g>
    </g>
    <g id="Grupo_9853" data-name="Grupo 9853">
      <g id="Grupo_9852" data-name="Grupo 9852" clip-path="url(#clip-path)">
        <path id="Caminho_27094" data-name="Caminho 27094" d="M57.276,24.274c-2.6,0-3.893,1.528-3.893,4.575a5.627,5.627,0,0,0,.959,3.417,3.44,3.44,0,0,0,2.958,1.41q3.813,0,3.812-4.551a5.668,5.668,0,0,0-.932-3.441,3.4,3.4,0,0,0-2.906-1.41M57.3,36.027A6.391,6.391,0,0,1,52.166,33.9a7.41,7.41,0,0,1-1.745-5.054,7.008,7.008,0,0,1,1.72-4.928,6.656,6.656,0,0,1,5.135-2,6.366,6.366,0,0,1,5.1,2.151,7.42,7.42,0,0,1,1.694,5.052,7.024,7.024,0,0,1-1.694,4.933,6.514,6.514,0,0,1-5.077,1.97" fill="#006a8d"/>
      </g>
    </g>
    <g id="Grupo_9855" data-name="Grupo 9855">
      <g id="Grupo_9854" data-name="Grupo 9854" clip-path="url(#clip-path)">
        <path id="Caminho_27095" data-name="Caminho 27095" d="M73.85,24.325a10.53,10.53,0,0,0-2.907.406V35.446H68.137v-12.3A15.359,15.359,0,0,1,74,21.974c.4,0,.886.025,1.439.077v2.344c-1.012-.042-1.538-.069-1.591-.069" fill="#006a8d"/>
      </g>
    </g>
    <g id="Grupo_9857" data-name="Grupo 9857">
      <g id="Grupo_9856" data-name="Grupo 9856" clip-path="url(#clip-path)">
        <path id="Caminho_27096" data-name="Caminho 27096" d="M84.963,18.361l5.074-3.8-3.187-2.41a3.045,3.045,0,0,0-3.729-.035l-3.233,2.445Z" fill="#006a8d"/>
      </g>
    </g>
    <g id="Grupo_9859" data-name="Grupo 9859">
      <g id="Grupo_9858" data-name="Grupo 9858" clip-path="url(#clip-path)">
        <path id="Caminho_27097" data-name="Caminho 27097" d="M84.963,27.106l5.061,3.781L86.85,33.313a3.044,3.044,0,0,1-3.729.035L79.889,30.9Z" fill="#006a8d"/>
      </g>
    </g>
    <g id="Grupo_9861" data-name="Grupo 9861">
      <g id="Grupo_9860" data-name="Grupo 9860" clip-path="url(#clip-path)">
        <path id="Caminho_27098" data-name="Caminho 27098" d="M90.158,23.219,85.37,26.8l4.788,3.582Z" fill="#40aad7"/>
      </g>
    </g>
    <g id="Grupo_9863" data-name="Grupo 9863">
      <g id="Grupo_9862" data-name="Grupo 9862" clip-path="url(#clip-path)">
        <path id="Caminho_27099" data-name="Caminho 27099" d="M79.554,14.921l0,5.026.01.294c0,.02-.01-.252-.01-.232A4.8,4.8,0,0,0,81.4,23.832l3.318,2.479V18.784Z" fill="#40aad7"/>
      </g>
    </g>
    <g id="Grupo_9865" data-name="Grupo 9865">
      <g id="Grupo_9864" data-name="Grupo 9864" clip-path="url(#clip-path)">
        <path id="Caminho_27100" data-name="Caminho 27100" d="M85.21,26.313,90,22.733,85.21,19.151Z" fill="#006a8d"/>
      </g>
    </g>
  </g>
</svg>
