<svg xmlns="http://www.w3.org/2000/svg" width="53.244" height="41.883" viewBox="0 0 53.244 41.883">
  <path id="quote" d="M51.714,41.883a17.51,17.51,0,0,0,4.5-12.324V8.618A2.639,2.639,0,0,0,53.551,6H37.59a5.283,5.283,0,0,0-5.32,5.235V29.559a2.639,2.639,0,0,0,2.66,2.618h8.188a7.479,7.479,0,0,1-1.14,3.654c-1.351,2.1-3.9,3.529-7.571,4.251L32.27,40.5v7.382h2.66c7.4,0,13.051-2.019,16.782-6Zm-29.281,0a17.491,17.491,0,0,0,4.5-12.324V8.618A2.639,2.639,0,0,0,24.27,6H8.309a5.283,5.283,0,0,0-5.32,5.235V29.559a2.639,2.639,0,0,0,2.66,2.618h8.188a7.479,7.479,0,0,1-1.14,3.654c-1.351,2.1-3.9,3.529-7.571,4.251L2.989,40.5v7.382h2.66c7.4,0,13.051-2.019,16.782-6Z" transform="translate(-2.989 -6)" fill="#008ecb"/>
</svg>
