<svg xmlns="http://www.w3.org/2000/svg" width="34" height="31" viewBox="0 0 34 31"><g><g clip-path="url(#clip-71030cea-52f5-4f79-a5e4-069839d8a5cf)"><path fill="#008ecb" d="M18.682 30.535v.336H.202c0-.336.029-.708 0-1.037-.034-.336.099-.441.4-.406.133.035.302 0 .435.035.743.035.61.035.61-.603a5.19 5.19 0 0 1 .034-1.044 1.376 1.376 0 0 1 1.374-1.177h12.803a1.43 1.43 0 0 1 1.38 1.45c.028.33.028.666.028 1.002 0 .274.105.407.407.407 1.009 0 1.009.035 1.009 1.037"/></g><g clip-path="url(#clip-71030cea-52f5-4f79-a5e4-069839d8a5cf)"><path fill="#00376d" d="M21.674 7.416a1.593 1.593 0 0 1-.19.498c-.406.672-1.289.89-1.961.477-2.824-1.648-5.683-3.294-8.5-4.941a1.328 1.328 0 0 1-.743-1.205c0-.287.077-.567.231-.8a1.408 1.408 0 0 1 1.955-.412c1.549.876 3.055 1.744 4.569 2.62 1.275.744 2.586 1.48 3.868 2.25.56.28.876.897.771 1.513"/></g><g clip-path="url(#clip-71030cea-52f5-4f79-a5e4-069839d8a5cf)"><path fill="#00376d" d="M13.91 20.492c.028.302-.05.61-.21.87a1.436 1.436 0 0 1-1.977.476c-1.913-1.08-3.826-2.221-5.774-3.328-.911-.54-1.815-1.044-2.726-1.584a1.37 1.37 0 0 1-.7-1.507 1.389 1.389 0 0 1 1.107-1.107 1.4 1.4 0 0 1 1.044.168c2.817 1.64 5.64 3.259 8.465 4.906.427.21.715.63.77 1.106"/></g><g clip-path="url(#clip-71030cea-52f5-4f79-a5e4-069839d8a5cf)"><path fill="#00376d" d="M33.797 22.91a2.085 2.085 0 0 1-2.151 1.949c-.47 0-.932-.147-1.31-.442-4.738-2.985-9.44-5.977-14.177-8.97-.47-.3-.47-.3-.77.204-.435.743-.877 1.485-1.311 2.256-.133.231-.238.266-.505.133a1050.94 1050.94 0 0 0-7.96-4.604c-.239-.168-.274-.238-.14-.47a861.593 861.593 0 0 0 4.603-7.995c.169-.273.274-.273.54-.14a1051.28 1051.28 0 0 0 7.96 4.604c.274.168.239.273.106.47-.47.805-.911 1.646-1.416 2.452-.133.238-.133.372.14.505 5.004 2.585 9.98 5.241 14.955 7.827a2.204 2.204 0 0 1 1.436 2.222"/></g></g></svg>