<svg xmlns="http://www.w3.org/2000/svg" width="38" height="32" viewBox="0 0 38 32"><g><g><path fill="#00376d" d="M35.003 13.924L31.626 17.3c.041.124.07.25.087.378a2.724 2.724 0 0 1-2.723 2.727 2.716 2.716 0 0 1-1.136-.265 5.301 5.301 0 0 1-5.443-1.331l-5.45-5.45.013-.013a5.478 5.478 0 0 1-1.272-2.025H8.1V9.507l1.817-5.45h18.165l.344 1.032L30.8 2.712a4.973 4.973 0 0 0-2.115-1.403s-3.16-.886-9.685-.886c-6.527 0-9.687.886-9.687.886a5.18 5.18 0 0 0-3.04 2.73l-.005.017h.018L4.47 9.506H2.653a1.817 1.817 0 1 0 0 3.632h.607l-.51 1.526-.097.29V28.58a2.724 2.724 0 1 0 5.448 0v-.91h21.798v.91a2.724 2.724 0 1 0 5.448 0V14.954zM9.01 20.404a2.724 2.724 0 0 1-2.724-2.726 2.724 2.724 0 1 1 5.447 0 2.726 2.726 0 0 1-2.723 2.727"/></g><g><path fill="#008ecb" d="M36.63 7.16l-9.082 9.082c-.71.709-1.86.709-2.57 0l-5.447-5.45a1.816 1.816 0 0 1 0-2.573 1.816 1.816 0 0 1 2.572 0l4.163 4.163 7.794-7.796c.341-.34.801-.532 1.282-.53a1.817 1.817 0 0 1 1.287 3.104"/></g></g></svg>