<svg xmlns="http://www.w3.org/2000/svg" width="40" height="33" viewBox="0 0 40 33"><defs><clipPath id="gk2ea"><path d="M.367 32.909V-.05h39.266V32.91z"/></clipPath></defs><g><g><g><g/><g clip-path="url(#gk2ea)"><path fill="#00376d" d="M39.2 16.815v-8.37a3.643 3.643 0 0 0-2.427-3.434v10.21c.905.108 1.743.667 2.427 1.594"/></g><g clip-path="url(#gk2ea)"><path fill="#00376d" d="M5.427 26.65a3.641 3.641 0 0 0 3.435 2.426l15.412-.064c-.838-.838-1.396-1.675-2.117-2.362z"/></g><g clip-path="url(#gk2ea)"><path fill="#00376d" d="M7.647 21.796H4.006c-.67 0-1.212-.544-1.212-1.214V16.94H5.22a2.427 2.427 0 0 1 2.426 2.43zM2.794 3.592c0-.67.544-1.215 1.215-1.215h3.638v2.427c0 1.34-1.086 2.43-2.426 2.43H2.794zm24.273-1.215h3.638c.67 0 1.215.544 1.215 1.215v3.641h-2.427a2.429 2.429 0 0 1-2.426-2.43zm-7.261 19.42h-9.732v-2.43a4.853 4.853 0 0 0-4.853-4.854H2.794V9.66H5.22a4.853 4.853 0 0 0 4.853-4.854V2.377h14.563v2.43a4.855 4.855 0 0 0 4.856 4.853h2.427v6.227a3.967 3.967 0 0 1 2.427-.838V3.592c0-2.01-1.631-3.642-3.642-3.642h-26.7A3.64 3.64 0 0 0 .368 3.592v16.99a3.64 3.64 0 0 0 3.639 3.641h16.08c-.397-.796-.503-1.634-.28-2.427"/></g><g clip-path="url(#gk2ea)"><path fill="#00376d" d="M19.784 12.087a2.426 2.426 0 1 1-4.853 0 2.426 2.426 0 0 1 4.853 0m-7.28 0a4.853 4.853 0 1 0 9.705 0 4.853 4.853 0 0 0-9.706 0"/></g><g clip-path="url(#gk2ea)"><path fill="#5acafb" d="M38.266 18.208c-.85-.972-2.065-1.458-3.402-1.458a4.797 4.797 0 0 0-3.401 1.458l-1.094 1.093-1.093-1.215a5.221 5.221 0 0 0-3.402-1.336 4.798 4.798 0 0 0-3.402 1.458c-1.822 1.823-1.822 4.981 0 6.804l7.897 7.897 7.897-7.897c1.823-1.823 1.823-4.981 0-6.804"/></g></g></g></g></svg>