<svg xmlns="http://www.w3.org/2000/svg" width="44" height="43" viewBox="0 0 44 43"><g><g><path fill="#00376d" d="M26.99 37.849l-14.085-3.86V22.875h3.253l11.763 4.384a1.802 1.802 0 0 1 1.152 1.677 43.38 43.38 0 0 1-4.65-.302l-4.807-1.595-1.273 3.84 4.807 1.594c1.03.34 2.11.511 3.193.506h10.813c.776.011 1.48.457 1.818 1.152zM8.863 37.02h-4.04V22.875h4.04zm28.293-8.085h-4.043a5.838 5.838 0 0 0-3.777-5.454l-12.45-4.65H.78v22.232h12.125v-2.91l14.147 3.918 16.168-5.05v-2.039a6.058 6.058 0 0 0-6.064-6.047"/></g><g><path fill="#008ecb" d="M43.22 7.314a9.071 9.071 0 0 1-2.021 4.971 37.082 37.082 0 0 1-3.981 4.83c-1.316 1.294-3.357 3.213-6.123 5.76-2.81-2.547-4.873-4.466-6.186-5.76a33.963 33.963 0 0 1-3.98-4.83 9.091 9.091 0 0 1-1.962-4.971 6.201 6.201 0 0 1 1.962-4.65 6.876 6.876 0 0 1 10.166.466A6.897 6.897 0 0 1 36.549.646a6.12 6.12 0 0 1 4.65 2.018 7.073 7.073 0 0 1 2.02 4.65"/></g></g></svg>