<svg xmlns="http://www.w3.org/2000/svg" width="42" height="31" viewBox="0 0 42 31"><g><g clip-path="url(#clip-9496bc99-8cc4-4a9f-a0fa-e9e7263bf1ba)"><path fill="#00376d" d="M30.354 15.63v-4.678h4.678l3.666 4.678zm-.937 9.354a2.806 2.806 0 0 1 2.81-2.806 2.806 2.806 0 1 1 0 5.612 2.809 2.809 0 0 1-2.81-2.806zm-2.806-3.742H13.965a5.63 5.63 0 0 0-8.383 0h-1.42V4.404h22.45zM6.968 24.984a2.806 2.806 0 1 1 5.61 0 2.806 2.806 0 0 1-5.61 0zm29-16.838h-5.614V.662H4.134A3.728 3.728 0 0 0 .42 4.404v20.58h3.742a5.611 5.611 0 1 0 11.223 0h11.226a5.614 5.614 0 0 0 11.227 0h3.742V15.63z"/></g><g clip-path="url(#clip-9496bc99-8cc4-4a9f-a0fa-e9e7263bf1ba)"><path fill="#008ecb" d="M22.87 9.08l-9.354 9.356-5.612-5.615 2.806-2.806 2.806 2.806 6.548-6.548z"/></g></g></svg>