<svg xmlns="http://www.w3.org/2000/svg" width="37" height="37" viewBox="0 0 37 37"><defs><clipPath id="bvrva"><path d="M.95 36.697V.69h36.1v36.007z"/></clipPath></defs><g><g><g><g/><g clip-path="url(#bvrva)"><path fill="#008ecb" d="M17.31 22.62c-.52.2-1.1-.06-1.29-.57-.61-1.51-1.36-2.96-2.22-4.34-.29-.47-.14-1.09.33-1.38.47-.28 1.08-.14 1.37.33.93 1.49 1.73 3.05 2.38 4.67.2.51-.06 1.09-.57 1.29"/></g><g clip-path="url(#bvrva)"><path fill="#008ecb" d="M24.76 16.78a30.44 30.44 0 0 0-2.9 5.32c-.22.5-.81.73-1.32.5a.993.993 0 0 1-.5-1.32c.84-1.99 1.88-3.89 3.1-5.68.33-.45.95-.54 1.4-.22.45.33.54.95.22 1.4"/></g><g clip-path="url(#bvrva)"><path fill="#00376d" d="M32.51 31.23c-.95.99-8.57 4.71-9.9 5.2-1.22.31-2.49.35-3.73.12-.4-.04-.8-.08-1.22-.12a17.17 17.17 0 0 1-4.19-.93c-1.44-.52-2.95-.84-4.47-.93-.52-.03-2.03.03-3.05.07v2.05h-5v-12h5v1.91c1.02-.36 3.96-1.42 4.66-1.74.98-.21 1.98-.21 2.95 0l6.1 1.37c.95.3 1.95.46 2.95.49 1.43 0 .57 1.97-.38 2.65-.47.39-1.05.61-1.65.65l-4.92-.06s4.28.78 5.9.88c1.32-.17 2.61-.57 3.8-1.18 1.5-.68 3.07-1.21 4.67-1.56 2.96-.49 3.43 2.15 2.48 3.13"/></g><g clip-path="url(#bvrva)"><path fill="#008ecb" d="M10.33 11.14a.99.99 0 0 0-.16 1.4c1.19 1.51 2.3 3.07 3.33 4.7-1.87.5-5.27 1.2-6.37-.06-1.54-1.77-3.3-12.82-3.3-12.82S14.16 7.13 16.1 9.34c1.49 1.71-.12 5.26-.93 6.79a58.547 58.547 0 0 0-3.43-4.83c-.35-.43-.98-.51-1.41-.16"/></g><g clip-path="url(#bvrva)"><path fill="#008ecb" d="M37.05.69s-2.13 13.4-4 15.53c-1.4 1.6-5.84.6-8.02-.01a67.86 67.86 0 0 1 5.18-6.87.996.996 0 0 0-.06-1.41.996.996 0 0 0-1.41.05c-.02.02-.04.04-.05.06a68.763 68.763 0 0 0-5.31 7.05c-.96-1.78-3.05-6.25-1.19-8.36v-.01C24.53 4.05 37.05.69 37.05.69"/></g></g></g></g></svg>