<svg xmlns="http://www.w3.org/2000/svg" width="38" height="30" viewBox="0 0 38 30"><g><g clip-path="url(#clip-4dfae396-a943-41eb-ab1d-b7d16756808c)"><path fill="#008ecb" d="M37.155 10.148l-8.106 8.044h-.007a.67.67 0 0 1-.956-.007l-4.687-4.718a.678.678 0 0 1 .007-.964l1.606-1.598h.008a.67.67 0 0 1 .955.008l2.616 2.623L34.6 7.57a.685.685 0 0 1 .963.008l1.59 1.614c.26.267.26.695 0 .955"/></g><g clip-path="url(#clip-4dfae396-a943-41eb-ab1d-b7d16756808c)"><path fill="#00376d" d="M26.342 24.264v2.385a2.756 2.756 0 0 1-2.752 2.753H3.403A2.751 2.751 0 0 1 .65 26.65v-2.385a7.705 7.705 0 0 1 7.708-7.708h.956a9.974 9.974 0 0 0 8.357 0h.964c4.251 0 7.7 3.449 7.707 7.708"/></g><g clip-path="url(#clip-4dfae396-a943-41eb-ab1d-b7d16756808c)"><path fill="#00376d" d="M20.837 7.38a7.343 7.343 0 0 1-12.533 5.192A7.316 7.316 0 0 1 6.156 7.38c0-4.052 3.28-7.34 7.34-7.34a7.343 7.343 0 0 1 7.341 7.34"/></g></g></svg>