<svg xmlns="http://www.w3.org/2000/svg" width="32" height="34" viewBox="0 0 32 34"><g><g clip-path="url(#clip-895fad8a-0563-45a0-83d7-39b75e323f55)"><path fill="#00376d" d="M16 4.186a.515.515 0 0 0-.356.142L4.816 14.556c-.325.308-.512.74-.512 1.187v12.438c0 .902.734 1.636 1.636 1.636h20.12c.902 0 1.636-.734 1.636-1.636V15.74a1.633 1.633 0 0 0-.51-1.185L16.355 4.329A.518.518 0 0 0 16 4.186M26.06 33.25H5.94a5.075 5.075 0 0 1-5.068-5.07V15.744c0-1.386.579-2.728 1.588-3.682L13.286 1.834a3.95 3.95 0 0 1 5.43.001L29.542 12.06a5.08 5.08 0 0 1 1.586 3.69v12.43a5.075 5.075 0 0 1-5.07 5.07"/></g><g clip-path="url(#clip-895fad8a-0563-45a0-83d7-39b75e323f55)"><path fill="#008ecb" d="M23.713 17.274l-8.087 8.088a1.619 1.619 0 0 1-2.289 0l-4.851-4.854a1.617 1.617 0 0 1 0-2.29 1.617 1.617 0 0 1 2.29 0l3.708 3.707 6.94-6.944a1.61 1.61 0 0 1 1.142-.471 1.619 1.619 0 0 1 1.147 2.764"/></g></g></svg>