<svg xmlns="http://www.w3.org/2000/svg" width="38" height="32" viewBox="0 0 38 32"><g><g clip-path="url(#clip-3386362e-9add-4c3b-ab87-470cb76bd364)"><path fill="#00376d" d="M30.11 5.716h-.004l-5.564 5.564-.013-.013a3.554 3.554 0 0 0-2.54-1.054 3.56 3.56 0 0 0-2.533 1.048 3.565 3.565 0 0 0-1.051 2.54c0 .959.373 1.859 1.05 2.533l5.215 5.218a3.563 3.563 0 0 0 2.52 1.05l1.512 5.561a2.339 2.339 0 0 1-.543 2.05l-1.48 1.479a.879.879 0 0 1-1.234.098.902.902 0 0 1-.225-.304l-6.062-10.972-1.922-1.925-5.086 5.087a8.509 8.509 0 0 1-1.938 1.3l1.14 3.728a2.273 2.273 0 0 1-.512 2.045l-.451.455a1.233 1.233 0 0 1-1.738 0L5.967 28.52l-.046-.052-2.036-2.03-.052-.052-2.678-2.68a1.229 1.229 0 0 1 0-1.735l.455-.455a2.255 2.255 0 0 1 2.043-.511l3.734 1.13c.344-.701.783-1.353 1.3-1.935l5.08-5.084-1.928-1.918L.874 7.14a.877.877 0 0 1-.207-1.463l1.48-1.48a2.355 2.355 0 0 1 2.052-.543l16.494 4.48.052.017 5.898-5.901c.956-.963 4.19-2.635 5.146-1.68.956.956-.717 4.19-1.68 5.146"/></g><g clip-path="url(#clip-3386362e-9add-4c3b-ab87-470cb76bd364)"><path fill="#008ecb" d="M37.13 9.094a1.749 1.749 0 0 0-2.464-.003l-7.46 7.462-2.278-2.278-1.705-1.708a1.742 1.742 0 1 0-2.465 2.464l5.214 5.218c.203.203.439.344.694.419.603.2 1.29.059 1.768-.42l8.693-8.693c.681-.68.681-1.78.004-2.461"/></g></g></svg>