<svg xmlns="http://www.w3.org/2000/svg" width="38" height="26" viewBox="0 0 38 26"><g><g clip-path="url(#clip-2eb6a4a4-3f97-4c24-80fe-dea03410417c)"><path fill="#00376d" d="M15.438 8.812l-1.975-4.614H8.327v4.614zM9.094 21.115a3.845 3.845 0 0 0 0-7.69 3.845 3.845 0 1 0 0 7.69zm22.297-9.608v1.279c0 .41-.16.8-.447 1.086l-2.446 2.446a5.675 5.675 0 0 0-7.078 1.721h-3.87v.287c0 .588-.47 1.058-1.054 1.058h-.343c-.146.48-.339.94-.574 1.383l.245.24c.409.414.409 1.081 0 1.495l-1.5 1.496a1.05 1.05 0 0 1-1.491 0l-.245-.245c-.437.24-.903.433-1.383.574v.343c0 .584-.47 1.059-1.053 1.059H8.036a1.06 1.06 0 0 1-1.059-1.059v-.343a7.05 7.05 0 0 1-1.378-.574l-.244.245a1.056 1.056 0 0 1-1.496 0l-1.495-1.496a1.065 1.065 0 0 1 0-1.495l.244-.24a7.375 7.375 0 0 1-.569-1.383h-.348a1.056 1.056 0 0 1-1.053-1.058v-2.112c0-.587.47-1.058 1.058-1.058h.343c.141-.48.334-.94.57-1.382l-.24-.24a1.056 1.056 0 0 1 0-1.496l1.49-1.495a1.05 1.05 0 0 1 1.392-.071v-7.04c0-1.275 1.03-2.31 2.305-2.31h6.415c.922 0 1.759.55 2.116 1.402l2.7 6.288h4.383L26.354 12c.63.625 1.448.935 2.271.935a3.2 3.2 0 0 0 2.272-.935zm-5.38 11.146a1.155 1.155 0 1 1-.004-2.31 1.155 1.155 0 0 1 .003 2.31zm3.72-11.824l1.373-1.373a1.53 1.53 0 0 0-1.251-.644h-3.076V6.879c0-.357.061-.705.179-1.035L25.06 3.95a1.434 1.434 0 0 0-.432-.301 6.115 6.115 0 0 0-.927 3.231v.122l3.824 3.828a1.564 1.564 0 0 0 2.206 0M29 18.51a4.22 4.22 0 0 0-2.99-1.241 4.233 4.233 0 0 0-4.233 4.233 4.231 4.231 0 1 0 7.224-2.991"/></g><g clip-path="url(#clip-2eb6a4a4-3f97-4c24-80fe-dea03410417c)"><path fill="#008ecb" d="M37.519 3.041l-6.415 6.415-1.373 1.373a1.564 1.564 0 0 1-2.206 0L23.7 7.001l-.846-.846a1.556 1.556 0 0 1 0-2.206 1.54 1.54 0 0 1 1.773-.301c.16.07.305.174.432.301l3.57 3.57L35.313.836a1.555 1.555 0 0 1 2.206.004 1.558 1.558 0 0 1 0 2.201"/></g></g></svg>