<svg xmlns="http://www.w3.org/2000/svg" width="376" height="210" viewBox="0 0 376 210"><g><g clip-path="url(#clip-80557327-620c-4ef4-a1b0-8d5f4db571af)" opacity=".08"><path fill="#fff" d="M105.423 122.706c14.828-1.2 15.483 2.004 15.483 15.775v19.68c-.761 7.803-6.624 9.77-13.75 10.24l-82.825 5.043c-6.566.392-6.73-.872-6.508-8.326v-27.853c-.164-4.79 1.533-7.29 4.774-7.93zm51.166-102.564c13.464.534 29.529 7.369 51.07 27.44v62.982c-17.656-1.94-34.651-10.657-51.07-25.274zM14.81 54.502C51.338 17.6 96.77 13.947 144.055 17.167v68.827C95.51 88.24 46.692 88.653.172 105.03v26.268c6.587-.354 10.388 3.594 10.282 7.66-.106 4.049-2.125 7.638-10.282 8.24v36.92c47.101-7.702 94.842-9.145 143.883-3.674-49.226 2.913-97.421 6.381-143.883 15.754v25.998c56.85-7.121 113.55-9.542 170.15-7.866.37-13.755-.1-29.635 13.174-37.565 12.476-7.454 23.44-6.814 33.99-4.086 9.315 2.395 6.751 7.824-1.59 7.041-27.278-2.622-33.246 29.075-18.582 37.729 46.81 2.21 95.318 8.341 145.062 17.386 3.964-8.59 10.53-7.126 10.757 3.801 9.457 2.786 18.915 5.55 28.372 8.342v-15.198c-28.266-10.7-56.558-21.415-84.83-32.115 13.158-4.107 31.824.064 54.724 10.615 11.916 5.244 23.81 10.494 35.704 15.738 3.574-47.931-76.239-112.128-153.942-175.918.27 35.44.555 70.874.824 106.308.164 19.242-13.073 19.511-13.11-2.934-.042-38.532-.105-77.085-.169-115.617C190.622 13.84 161.611.546 133.936.688 52.83 1.698 31.125 26.993 14.81 54.503m125.962 66.115c5.74 0 10.388 4.647 10.388 10.388 0 5.74-4.647 10.388-10.388 10.388-5.72 0-10.388-4.647-10.388-10.388s4.668-10.388 10.388-10.388"/></g></g></svg>