<svg xmlns="http://www.w3.org/2000/svg" width="766" height="271" viewBox="0 0 766 271"><g><g clip-path="url(#clip-e34d03fc-b37c-48ed-ab82-8d39d9fb5ccb)" opacity=".08"><path fill="#fff" d="M250.423 184.06c14.828-1.2 15.483 2.003 15.483 15.773v19.681c-.761 7.803-6.624 9.77-13.75 10.24l-82.825 5.043c-6.566.391-6.73-.872-6.508-8.326v-27.853c-.164-4.79 1.533-7.29 4.774-7.93zm51.166-102.566c13.464.534 29.529 7.37 51.07 27.441v62.981c-17.656-1.94-34.651-10.657-51.07-25.273zM159.81 115.855C196.338 78.952 241.77 75.3 289.055 78.518v68.828c-48.544 2.246-97.363 2.659-143.883 19.036v26.267c6.587-.354 10.388 3.595 10.282 7.66-.106 4.05-2.125 7.639-10.282 8.242v36.919c47.101-7.702 94.842-9.145 143.883-3.674-49.226 2.913-97.421 6.38-143.883 15.753v25.998c56.85-7.12 113.55-9.542 170.15-7.866.37-13.755-.1-29.635 13.174-37.564 12.476-7.454 23.44-6.814 33.99-4.087 9.315 2.395 6.751 7.824-1.59 7.042-27.278-2.622-33.246 29.074-18.582 37.728 46.81 2.21 95.318 8.342 145.062 17.387 3.964-8.59 10.53-7.126 10.757 3.8 9.457 2.786 18.915 5.551 28.372 8.342v-15.198c-28.266-10.7-56.558-21.414-84.83-32.114 13.158-4.107 31.824.063 54.724 10.615 11.916 5.244 23.81 10.493 35.704 15.737 3.574-47.93-76.239-112.127-153.942-175.917.27 35.44.555 70.873.824 106.307.164 19.242-13.073 19.512-13.11-2.934-.042-38.531-.105-77.084-.169-115.616-30.084-24.016-59.095-37.311-86.77-37.168-81.107 1.01-102.812 26.304-119.126 53.814m125.962 66.116c5.741 0 10.388 4.647 10.388 10.388 0 5.74-4.647 10.387-10.388 10.387-5.72 0-10.388-4.647-10.388-10.387 0-5.741 4.668-10.388 10.388-10.388"/></g><g opacity=".12"><path fill="#fff" d="M765.976 61.523C628.086 32.658 429.66-1.633 261.205.579 151.42 2.037 47.088 4.332.024 56.284 80.868 34.358 174.61 27.716 271.843 28.767 434.38 30.55 599.249 35.92 765.976 61.523"/></g></g></svg>