<svg xmlns="http://www.w3.org/2000/svg" width="52" height="52" viewBox="0 0 52 52"><defs><clipPath id="rbgwa"><path fill="#fff" d="M0 26C0 11.64 11.64 0 26 0s26 11.64 26 26-11.64 26-26 26S0 40.36 0 26z"/></clipPath></defs><g><g><path fill="#fff" d="M30.781 20.145c-.593 0-1.075.481-1.075 1.075a1.076 1.076 0 0 0 2.15 0c0-.594-.481-1.075-1.075-1.075zM26 28.985a2.985 2.985 0 1 1 0-5.97 2.985 2.985 0 1 1 0 5.97zm0-7.584a4.6 4.6 0 1 0 0 9.198 4.6 4.6 0 0 0 0-9.198zm0-2.745c2.39 0 2.675.012 3.62.052.873.042 1.347.186 1.662.31.42.162.716.356 1.031.669.313.313.507.61.669 1.03.122.315.269.789.308 1.662.043.945.052 1.229.052 3.62s-.01 2.675-.055 3.62c-.045.873-.191 1.347-.314 1.662-.146.388-.375.74-.671 1.031-.29.297-.642.525-1.03.669-.314.122-.795.269-1.669.308-.95.043-1.23.052-3.626.052s-2.676-.01-3.626-.055c-.874-.045-1.356-.191-1.67-.314a2.774 2.774 0 0 1-1.029-.671 2.72 2.72 0 0 1-.671-1.03c-.123-.314-.268-.795-.314-1.669-.034-.94-.045-1.23-.045-3.615 0-2.385.012-2.677.045-3.628.045-.873.19-1.354.314-1.667a2.65 2.65 0 0 1 .671-1.03 2.652 2.652 0 0 1 1.03-.671c.313-.124.784-.27 1.658-.314.951-.034 1.231-.045 3.626-.045l.034.023zm0-1.613c-2.433 0-2.737.011-3.693.054-.953.045-1.603.195-2.174.417a4.383 4.383 0 0 0-1.586 1.033 4.379 4.379 0 0 0-1.033 1.586c-.222.571-.373 1.221-.417 2.174-.045.956-.054 1.26-.054 3.693s.011 2.737.054 3.692c.045.953.195 1.604.417 2.174.225.598.577 1.14 1.033 1.587a4.38 4.38 0 0 0 1.586 1.033c.572.221 1.222.372 2.174.417.956.044 1.26.053 3.693.053s2.737-.01 3.692-.053c.953-.045 1.604-.196 2.174-.417a4.402 4.402 0 0 0 1.587-1.033 4.374 4.374 0 0 0 1.033-1.587c.221-.57.372-1.22.417-2.174.044-.955.053-1.258.053-3.692s-.01-2.737-.053-3.693c-.045-.953-.196-1.604-.417-2.174a4.396 4.396 0 0 0-1.033-1.586 4.364 4.364 0 0 0-1.587-1.033c-.57-.222-1.22-.373-2.174-.417-.955-.045-1.259-.054-3.692-.054z"/></g><g><path fill="none" stroke="#fff" stroke-miterlimit="20" stroke-width="2" d="M0 26C0 11.64 11.64 0 26 0s26 11.64 26 26-11.64 26-26 26S0 40.36 0 26z" clip-path="url(&quot;#rbgwa&quot;)"/></g></g></svg>