<svg xmlns="http://www.w3.org/2000/svg" width="52" height="52" viewBox="0 0 52 52"><defs><clipPath id="ksm3a"><path fill="#fff" d="M0 26C0 11.64 11.64 0 26 0s26 11.64 26 26-11.64 26-26 26S0 40.36 0 26z"/></clipPath></defs><g><g><path fill="#fff" d="M20.314 17.043a3.264 3.264 0 0 0-3.27 3.271v11.371a3.264 3.264 0 0 0 3.27 3.27h6.163v-7.002h-1.851v-2.52h1.851v-2.155c0-1.692 1.094-3.246 3.615-3.246 1.02 0 1.774.098 1.774.098l-.059 2.354s-.77-.007-1.609-.007c-.91 0-1.054.419-1.054 1.114v1.841h2.736l-.12 2.521h-2.616v7.003h2.542a3.264 3.264 0 0 0 3.27-3.27V20.314a3.264 3.264 0 0 0-3.27-3.27z"/></g><g><path fill="none" stroke="#fff" stroke-miterlimit="20" stroke-width="2" d="M0 26C0 11.64 11.64 0 26 0s26 11.64 26 26-11.64 26-26 26S0 40.36 0 26z" clip-path="url(&quot;#ksm3a&quot;)"/></g></g></svg>