<svg xmlns="http://www.w3.org/2000/svg" width="57" height="57" viewBox="0 0 57 57"><g><g><path fill="#383A36" d="M27.035 21.121c-.002.299-.12.585-.33.797l-6.099 6.098c-.211.211-.33.498-.33.797v22.722c-.001.299-.12.585-.33.796l-2.06 2.06c-.21.212-.497.33-.796.33h-4.892c-.3 0-.586-.118-.797-.33l-2.06-2.06a1.136 1.136 0 0 1-.33-.796V28.813c0-.3-.118-.586-.33-.797l-6.098-6.098a1.136 1.136 0 0 1-.33-.797V6.642c0-.45.268-.858.683-1.035l3.38-1.448a1.126 1.126 0 0 1 1.57 1.036v11.227c0 .342.155.666.422.88l5.632 4.506a1.13 1.13 0 0 0 1.407 0l5.632-4.506c.268-.214.423-.538.423-.88V5.195a1.126 1.126 0 0 1 1.57-1.037l3.38 1.45c.414.176.683.584.683 1.034zm.204-17.584l-3.38-1.449a3.38 3.38 0 0 0-4.71 3.107V15.88l-4.505 3.605-4.506-3.605V5.195a3.38 3.38 0 0 0-4.71-3.107l-3.38 1.449A3.376 3.376 0 0 0 0 6.642v14.48a3.356 3.356 0 0 0 .99 2.388l5.769 5.77v22.255a3.356 3.356 0 0 0 .99 2.39l2.059 2.059a3.359 3.359 0 0 0 2.39.99h4.892a3.359 3.359 0 0 0 2.39-.99l2.059-2.06a3.356 3.356 0 0 0 .99-2.389V29.28l5.768-5.769a3.356 3.356 0 0 0 .99-2.389V6.642a3.376 3.376 0 0 0-2.048-3.105z"/></g><g><path fill="#383A36" d="M54.07 51.535c-.002.299-.12.585-.33.796l-2.06 2.06c-.211.212-.498.33-.797.33h-11.65c-.3 0-.587-.118-.798-.33l-2.059-2.06a1.136 1.136 0 0 1-.33-.796v-15.03c.001-.3.12-.586.33-.797l2.72-2.72c.21-.21.33-.497.33-.796v-2.253H50.69v2.253c0 .299.119.585.33.796l2.72 2.72c.21.212.328.498.33.796zm-10.328-37.99l-1.976-2.966 1.918-7.675h2.747l1.919 7.675-1.977 2.965c-.123.185-.189.403-.189.625v13.517h-2.253V14.17c0-.222-.066-.44-.189-.625zm9.2 18.18V29.94h1.127a1.126 1.126 0 1 0 0-2.253h-5.632V14.51l2.064-3.096c.176-.263.232-.59.155-.897l-2.253-9.012a1.126 1.126 0 0 0-1.092-.853h-4.506c-.517 0-.967.351-1.093.853l-2.253 9.012c-.077.308-.02.634.156.897l2.063 3.096v13.176h-5.632a1.126 1.126 0 1 0 0 2.253h1.127v1.786l-2.39 2.39a3.356 3.356 0 0 0-.99 2.39v15.03a3.356 3.356 0 0 0 .99 2.39l2.06 2.059a3.359 3.359 0 0 0 2.39.99h11.65a3.359 3.359 0 0 0 2.39-.99l2.059-2.06a3.356 3.356 0 0 0 .99-2.389v-15.03a3.356 3.356 0 0 0-.99-2.39z"/></g></g></svg>