<svg xmlns="http://www.w3.org/2000/svg" width="57" height="58" viewBox="0 0 57 58"><g><g><path fill="#383a36" d="M54.538 54.974h-4.546V31.108c0-.627-.509-1.136-1.137-1.136H21.58c-.627 0-1.136.509-1.136 1.136v23.866h-4.546v-25.53l19.32-12.88 19.32 12.88zm-31.821-4.546h25.002v4.546H22.717zm25.002-15.91H22.717v-2.273h25.002zm-25.002 9.091h25.002v4.546H22.717zm25.002-2.273H22.717V36.79h25.002zM2.261 29.972h11.364v25.002H2.261zm18.975-6.819h-9.54l3.41-2.273h9.54zm-6.818 4.546h-9.54l3.409-2.273h9.54zm7.506-11.365h9.54l-3.409 2.273h-9.54zm18.353-1.136h10.816l2.766 11.061L39.9 16.953zm2.679-12.501h5.011l1.137 4.546H41.98zm-1.462 6.818h8.179l.852 3.41h-9.761zm8.464-8.23a1.136 1.136 0 0 0-1.103-.861h-6.818c-.536 0-1 .374-1.111.898l-3.06 14.276-2.018-1.346a1.353 1.353 0 0 0-.634-.19H21.58c-.224 0-.443.066-.63.19L.494 27.89a1.197 1.197 0 0 0-.506.945V56.11c0 .628.509 1.137 1.136 1.137h54.55c.628 0 1.137-.51 1.137-1.137V28.835c0-.095-.013-.19-.037-.282z"/></g></g></svg>