<svg xmlns="http://www.w3.org/2000/svg" width="57" height="48" viewBox="0 0 57 48"><g><g><path fill="#383a36" d="M54.194 44.456c0 .624-.506 1.13-1.13 1.13H47.42V26.391c0-.624-.506-1.13-1.13-1.13h-9.032c-.623 0-1.129.506-1.129 1.13v19.193h-6.774V19.993l12.42-16.558 12.193 16.258c.146.196.225.433.226.678zm-15.807 1.13V27.52h6.775v18.064zm-36.129-1.13v-23.71h24.839v24.84H3.387a1.129 1.129 0 0 1-1.129-1.13zm6.21-32.742h6.21l-5.081 6.774h-6.21zm6.774-9.032h6.21l-5.08 6.774h-6.21zm19.194 6.774h-6.21l5.08-6.774h6.21zm-3.952-6.774l-5.08 6.774h-6.21l5.08-6.774zM12.42 18.488l5.081-6.774h6.21l-5.08 6.774zm15.242 0h-6.21l5.081-6.774h6.21zm28.114-.15L42.678.875c-.014-.018-.036-.022-.05-.04a1.113 1.113 0 0 0-.854-.411H14.678c-.356 0-.69.167-.904.451L.226 18.94c-.136.201-.214.435-.226.677v24.84a3.387 3.387 0 0 0 3.387 3.386h49.678a3.387 3.387 0 0 0 3.387-3.387V20.371a3.4 3.4 0 0 0-.677-2.033z"/></g><g><path fill="#383a36" d="M41.774 16.23a2.258 2.258 0 1 1 0-4.516 2.258 2.258 0 0 1 0 4.516zm0-6.774a4.516 4.516 0 1 0 0 9.032 4.516 4.516 0 0 0 0-9.032z"/></g><g><path fill="#383a36" d="M20.323 34.295H9.033v-9.032h11.29zm1.129-11.29H7.903c-.623 0-1.129.505-1.129 1.129v11.29c0 .624.506 1.13 1.13 1.13h13.548c.623 0 1.129-.506 1.129-1.13v-11.29c0-.624-.506-1.13-1.13-1.13z"/></g></g></svg>