<svg xmlns="http://www.w3.org/2000/svg" width="57" height="40" viewBox="0 0 57 40"><g><g><path fill="#383a36" d="M10.161 32.833h6.774v4.516h-6.774zm-3.387-3.387v-7.99a3.37 3.37 0 0 1 1.271-2.646l3.641-2.912h33.008l3.991 3.991a3.41 3.41 0 0 1 .992 2.395v7.162a1.13 1.13 0 0 1-1.129 1.129H7.903a1.13 1.13 0 0 1-1.129-1.13zM17.398 3.044c.175-.421.587-.695 1.042-.695h4.502l-.753 4.516h-6.383zm21.655 0l1.592 3.821h-6.382L33.51 2.35h4.501c.456 0 .867.274 1.042.695zm-3.66 10.595l-.754-4.516h6.947l1.882 4.516zM24.477 6.865l.753-4.516h5.99l.753 4.516zm-.376 2.258h8.248l.753 4.516h-9.755zM12.984 13.64l1.882-4.516h6.947l-.753 4.516zm24.274 19.194v4.516H19.194v-4.516zm9.032 4.516h-6.774v-4.516h6.774zm9.033 0h-6.775v-4.516a3.39 3.39 0 0 0 3.387-3.387v-7.162a5.609 5.609 0 0 0-1.653-3.991l-4.165-4.165-4.98-11.952A3.376 3.376 0 0 0 38.01.091h-19.57a3.376 3.376 0 0 0-3.126 2.084L10.36 14.067l-3.726 2.98a5.62 5.62 0 0 0-2.118 4.408v7.99a3.39 3.39 0 0 0 3.387 3.388v4.516H1.13a1.129 1.129 0 1 0 0 2.258h54.194a1.129 1.129 0 1 0 0-2.258z"/></g><g><path fill="#383a36" d="M14.677 21.543a2.258 2.258 0 1 1 0 4.516 2.258 2.258 0 0 1 0-4.516zm0 6.774a4.516 4.516 0 1 0 0-9.032 4.516 4.516 0 0 0 0 9.032z"/></g><g><path fill="#383a36" d="M41.774 21.543a2.258 2.258 0 1 1 0 4.516 2.258 2.258 0 0 1 0-4.516zm0 6.774a4.516 4.516 0 1 0 0-9.032 4.516 4.516 0 0 0 0 9.032z"/></g><g><path fill="#383a36" d="M22.58 22.672h11.291a1.129 1.129 0 0 0 0-2.258h-11.29a1.129 1.129 0 0 0 0 2.258z"/></g><g><path fill="#383a36" d="M22.58 27.188h11.291a1.129 1.129 0 0 0 0-2.258h-11.29a1.129 1.129 0 0 0 0 2.258z"/></g></g></svg>