<svg xmlns="http://www.w3.org/2000/svg" width="42" height="34" viewBox="0 0 42 34"><g><g><path fill="#a0e361" d="M20.557 23.167a6.167 6.167 0 1 0 0-12.334 6.167 6.167 0 0 0 0 12.334zM10.278 17c0-5.677 4.602-10.278 10.279-10.278 5.676 0 10.278 4.601 10.278 10.278 0 5.677-4.602 10.278-10.278 10.278-5.677 0-10.279-4.601-10.279-10.278zm10.279 16.445c10.148 0 18.614-7.063 20.556-16.445C39.17 7.618 30.705.555 20.557.555 10.409.555 1.942 7.618 0 17c1.943 9.382 10.409 16.445 20.557 16.445z"/></g></g></svg>