<svg xmlns="http://www.w3.org/2000/svg" width="48" height="49" viewBox="0 0 48 49"><g><g><path fill="#a0e361" d="M23.938 31.674a7.181 7.181 0 1 0 0-14.363 7.181 7.181 0 0 0 0 14.363zM9.575 24.493c0-7.933 6.43-14.363 14.363-14.363 7.932 0 14.363 6.43 14.363 14.363 0 7.932-6.43 14.362-14.363 14.362-7.932 0-14.363-6.43-14.363-14.362zm38.301 2.393V22.1H42.94A19.16 19.16 0 0 0 26.332 5.49V.555h-4.788V5.49A19.16 19.16 0 0 0 4.936 22.099H0v4.787h4.936a19.16 19.16 0 0 0 16.608 16.609v4.936h4.788v-4.936A19.16 19.16 0 0 0 42.94 26.886z"/></g></g></svg>