<svg xmlns="http://www.w3.org/2000/svg" width="55" height="57" viewBox="0 0 55 57"><g><g><path fill="#383a36" d="M4.516 16.23h24.839v38.386H4.516zm2.575-6.775h4.666l-.376 4.516h-5.42zm1.694-6.774h3.537l-.376 4.516h-4.29zm17.43 4.516h-4.29l-.376-4.516h3.537zm-3.725 6.774l-.377-4.516h4.667l1.129 4.516zm-8.28-6.774l.376-4.516h4.698l.376 4.516zm5.638 2.258l.377 4.516h-6.58l.377-4.516zm29.83 13.548v31.613H31.612V23.004zm3.387 31.613h-1.13V21.874c0-.623-.505-1.129-1.129-1.129H31.613V15.1c0-.623-.506-1.129-1.13-1.129h-.247L27.063 1.278a1.129 1.129 0 0 0-1.095-.855H7.903c-.518 0-.97.353-1.095.855L3.636 13.971h-.249c-.623 0-1.129.506-1.129 1.13v39.515H1.13a1.129 1.129 0 1 0 0 2.258h51.936a1.129 1.129 0 0 0 0-2.258z"/></g><g><path fill="#383a36" d="M18.065 47.842v-4.516h6.774v4.516zm-9.033-4.516h6.774v4.516H9.032zm6.774-20.323v4.517H9.032v-4.517zm9.033 4.517h-6.774v-4.517h6.774zm-6.774 9.032h6.774v4.516h-6.774zm-9.033 0h6.774v4.516H9.032zm9.033-6.774h6.774v4.516h-6.774zm-2.259 4.516H9.032v-4.516h6.774zm10.162-13.549H7.903c-.623 0-1.129.506-1.129 1.13V48.97c0 .624.506 1.13 1.13 1.13h18.064c.623 0 1.129-.506 1.129-1.13V21.874c0-.623-.506-1.129-1.13-1.129z"/></g><g><path fill="#383a36" d="M42.903 29.778v2.258h-4.516v-2.258zm-4.516 18.064v-2.258h4.516v2.258zm4.516-10.161h-4.516v-3.387h4.516zm0 5.645h-4.516V39.94h4.516zM37.258 50.1h6.774c.624 0 1.13-.505 1.13-1.129V28.65c0-.624-.506-1.13-1.13-1.13h-6.774c-.623 0-1.129.506-1.129 1.13V48.97c0 .624.506 1.13 1.13 1.13z"/></g></g></svg>