<svg xmlns="http://www.w3.org/2000/svg" width="57" height="47" viewBox="0 0 57 47"><g><g><path fill="#a0e361" d="M2.304 20.138l26.47-17.65 26.47 17.65a1.129 1.129 0 1 0 1.253-1.88l-11.79-7.86 1.354-1.694a1.129 1.129 0 0 0-.255-1.644L36.242.682a1.129 1.129 0 0 0-1.506.231l-1.486 1.85L29.401.197a1.13 1.13 0 0 0-1.253 0l-3.85 2.566L22.814.908a1.129 1.129 0 0 0-1.506-.232l-9.564 6.38a1.13 1.13 0 0 0-.255 1.643l1.355 1.694-11.791 7.866a1.129 1.129 0 1 0 1.252 1.879z"/></g><g><path fill="#a0e361" d="M23 46V31h11v15z"/></g><g><path fill="#a0e361" d="M28.774 20.327a5.645 5.645 0 1 1 5.646-5.645 5.652 5.652 0 0 1-5.646 5.645zm.627-15.617a1.129 1.129 0 0 0-1.253 0L1.05 22.775a1.129 1.129 0 1 0 1.252 1.879l7.278-4.852v23.106a3.387 3.387 0 0 0 3.387 3.387h7.903V29.36c0-.624.506-1.13 1.13-1.13h13.548c.623 0 1.129.506 1.129 1.13v16.935h7.903a3.387 3.387 0 0 0 3.387-3.387V19.802l7.277 4.855a1.129 1.129 0 1 0 1.252-1.879z"/></g></g></svg>