<svg xmlns="http://www.w3.org/2000/svg" width="50" height="25" viewBox="0 0 50 25"><g><g><g><path fill="#383a36" d="M37.5 0a6.25 6.25 0 0 1 6.25 6.25v12.5A6.25 6.25 0 0 1 37.5 25H6.25A6.25 6.25 0 0 1 0 18.75V6.25A6.25 6.25 0 0 1 6.25 0zm0 3.125H6.25A3.125 3.125 0 0 0 3.125 6.25v12.5c0 1.726 1.4 3.125 3.125 3.125H37.5c1.726 0 3.125-1.4 3.125-3.125V6.25c0-1.726-1.4-3.125-3.125-3.125z"/></g><g><path fill="#383a36" d="M45.313 17.188a4.688 4.688 0 0 0 0-9.375zM6.25 18.75h15.625V6.25H6.25z"/></g></g></g></svg>