<svg xmlns="http://www.w3.org/2000/svg" width="50" height="51" viewBox="0 0 50 51"><g><g><path fill="#a0e361" d="M25.16.664C11.658.664.63 11.444.326 24.939.02 38.43 10.546 49.699 24.031 50.31V34.534h-5.645c-6.232-.008-11.283-5.058-11.29-11.29 0-.624.505-1.13 1.129-1.13h6.774a11.27 11.27 0 0 1 9.084 4.615A12.429 12.429 0 0 1 36.45 15.341h5.645c.623 0 1.129.505 1.129 1.129v2.258c-.008 6.855-5.563 12.41-12.42 12.419H26.29V50.31C39.773 49.699 50.3 38.43 49.993 24.935 49.687 11.441 38.658.662 25.16.664z"/></g></g></svg>