<svg xmlns="http://www.w3.org/2000/svg" width="52" height="44" viewBox="0 0 52 44"><g><g><path fill="#a0e361" d="M15.69 21.298v-6.547h6.548v6.547z"/></g><g><path fill="#a0e361" d="M15.69 30.465v-6.547h6.548v6.547z"/></g><g><path fill="#a0e361" d="M15.69 13.442V5.585h6.548v7.857z"/></g><g><path fill="#a0e361" d="M6.524 30.465v-6.547h6.547v6.547z"/></g><g><path fill="#a0e361" d="M6.524 21.298v-6.547h6.547v6.547z"/></g><g><path fill="#a0e361" d="M6.524 13.442V5.585h6.547v7.857z"/></g><g><path fill="#a0e361" d="M42.968 41.036h-11.29V36.52h11.29zm-13.549 0h-2.258V36.52h2.258zm-4.516-9.032c0 .623-.505 1.129-1.129 1.129H5.71a1.129 1.129 0 0 1-1.13-1.13V4.908c0-.624.506-1.13 1.13-1.13h18.064c.624 0 1.13.506 1.13 1.13zm0 9.032h-2.258V36.52h2.258zm-4.516 0H9.097V36.52h11.29zm6.774-36.13c0-.623.506-1.128 1.13-1.128h18.064c.623 0 1.129.505 1.129 1.129v27.096c0 .624-.506 1.13-1.13 1.13H28.29a1.129 1.129 0 0 1-1.129-1.13zm23.71 37.259c0-.624-.506-1.13-1.13-1.13h-4.515V36.52h3.387A3.39 3.39 0 0 0 52 33.133V3.778A3.39 3.39 0 0 0 48.613.39H3.452A3.39 3.39 0 0 0 .065 3.778v29.355a3.39 3.39 0 0 0 3.387 3.387h3.387v4.516H2.323a1.129 1.129 0 0 0 0 2.258h47.419c.623 0 1.129-.506 1.129-1.13z"/></g><g><path fill="#a0e361" d="M37.952 30.465v-6.547h7.857v6.547z"/></g><g><path fill="#a0e361" d="M37.952 21.298v-6.547h7.857v6.547z"/></g><g><path fill="#a0e361" d="M37.952 13.442V5.585h7.857v7.857z"/></g><g><path fill="#a0e361" d="M28.785 30.465v-6.547h7.857v6.547z"/></g><g><path fill="#a0e361" d="M28.785 21.298v-6.547h7.857v6.547z"/></g><g><path fill="#a0e361" d="M28.785 13.442V5.585h7.857v7.857z"/></g></g></svg>