<svg xmlns="http://www.w3.org/2000/svg" width="46" height="47" viewBox="0 0 46 47"><g><g><g><path fill="#a0e361" d="M21.948 17.223a.922.922 0 0 1-.268.646l-4.95 4.952a.914.914 0 0 0-.269.646v18.448a.922.922 0 0 1-.268.646l-1.672 1.672a.911.911 0 0 1-.647.268H9.903a.911.911 0 0 1-.647-.268l-1.672-1.672a.922.922 0 0 1-.268-.646V23.467a.914.914 0 0 0-.268-.646l-4.951-4.952a.922.922 0 0 1-.268-.646V5.468c0-.366.218-.696.555-.84l2.743-1.176a.914.914 0 0 1 1.275.84v9.116c0 .277.126.54.343.714l4.573 3.658a.917.917 0 0 0 1.142 0l4.572-3.658a.916.916 0 0 0 .344-.714V4.293a.915.915 0 0 1 1.274-.842l2.744 1.177a.914.914 0 0 1 .554.84zm.166-14.276l-2.743-1.176a2.744 2.744 0 0 0-3.824 2.522v8.676l-3.658 2.926L8.23 12.97V4.293A2.745 2.745 0 0 0 4.406 1.77L1.663 2.947A2.74 2.74 0 0 0 0 5.468v11.755a2.725 2.725 0 0 0 .804 1.94l4.683 4.683v18.069a2.725 2.725 0 0 0 .804 1.94l1.672 1.671a2.727 2.727 0 0 0 1.94.804h3.971a2.727 2.727 0 0 0 1.94-.804l1.672-1.672a2.725 2.725 0 0 0 .804-1.94V23.847l4.684-4.683a2.725 2.725 0 0 0 .803-1.94V5.468a2.74 2.74 0 0 0-1.663-2.521z"/></g><g><path fill="#a0e361" d="M43.897 41.915a.922.922 0 0 1-.268.646l-1.672 1.672a.911.911 0 0 1-.647.268H31.85a.911.911 0 0 1-.647-.268l-1.672-1.672a.922.922 0 0 1-.268-.646V29.712c.001-.243.098-.475.268-.647l2.208-2.208a.914.914 0 0 0 .268-.646v-1.83h9.145v1.83c0 .242.096.475.268.646l2.208 2.208c.17.172.267.404.268.647zM35.512 11.07l-1.604-2.407 1.557-6.23h2.23l1.558 6.23-1.604 2.407a.915.915 0 0 0-.154.508v10.974h-1.83V11.579a.915.915 0 0 0-.153-.508zm7.47 14.761v-1.45h.915a.915.915 0 1 0 0-1.83h-4.573V11.856l1.675-2.513a.913.913 0 0 0 .127-.728l-1.83-7.317a.915.915 0 0 0-.887-.693h-3.658a.914.914 0 0 0-.887.693l-1.829 7.317a.913.913 0 0 0 .127.728l1.675 2.513v10.698h-4.573a.915.915 0 1 0 0 1.829h.915v1.45l-1.94 1.94a2.725 2.725 0 0 0-.804 1.94v12.203a2.725 2.725 0 0 0 .804 1.94l1.672 1.671a2.727 2.727 0 0 0 1.94.804h9.459a2.727 2.727 0 0 0 1.94-.804l1.672-1.672a2.725 2.725 0 0 0 .804-1.94V29.713a2.725 2.725 0 0 0-.804-1.94z"/></g><g><path fill="#a0e361" d="M11.889 36.27a.915.915 0 0 0-.915.915v2.743a.915.915 0 0 0 1.83 0v-2.743a.915.915 0 0 0-.915-.915z"/></g><g><path fill="#a0e361" d="M33.837 30.783a.915.915 0 0 0-.915.915v8.23a.915.915 0 0 0 1.83 0v-8.23a.915.915 0 0 0-.915-.915z"/></g><g><path fill="#a0e361" d="M39.324 30.783a.915.915 0 0 0-.915.915v8.23a.915.915 0 0 0 1.83 0v-8.23a.915.915 0 0 0-.915-.915z"/></g></g></g></svg>