<svg xmlns="http://www.w3.org/2000/svg" width="52" height="52" viewBox="0 0 52 52"><defs><clipPath id="oh2da"><path fill="#fff" d="M0 26C0 11.64 11.64 0 26 0s26 11.64 26 26-11.64 26-26 26S0 40.36 0 26z"/></clipPath></defs><g><g><path fill="#fff" d="M35.84 21.985s.202 1.625.202 3.25v1.524c0 1.625-.201 3.25-.201 3.25s-.196 1.385-.799 1.994c-.763.8-1.62.803-2.012.85-2.81.203-7.03.21-7.03.21s-5.221-.048-6.828-.202c-.447-.083-1.451-.057-2.214-.858-.603-.61-.799-1.993-.799-1.993s-.2-1.626-.2-3.25v-1.524c0-1.626.2-3.25.2-3.25s.196-1.386.799-1.995c.764-.8 1.62-.803 2.012-.85 2.81-.203 7.025-.203 7.025-.203h.008s4.216 0 7.026.203c.392.047 1.249.051 2.012.85.603.61.798 1.995.798 1.995zm-6.49 3.809l-5.424-2.832v5.643z"/></g><g><path fill="none" stroke="#fff" stroke-miterlimit="20" stroke-width="2" d="M0 26C0 11.64 11.64 0 26 0s26 11.64 26 26-11.64 26-26 26S0 40.36 0 26z" clip-path="url(&quot;#oh2da&quot;)"/></g></g></svg>