<svg width="57" height="56" viewBox="0 0 57 56" fill="none" xmlns="http://www.w3.org/2000/svg">
<path d="M5.645 34.183H30.483V53.376H5.645V34.183ZM15.241 20.635H19.193L15.806 25.151H11.854L15.241 20.635ZM32.741 42.085H37.257V53.375H32.741V42.085ZM30.483 27.409H34.434L31.047 31.925H27.096L30.483 27.409ZM39.515 20.635L36.128 25.151H32.176L35.563 20.635H39.515ZM32.741 20.635L29.354 25.151H25.402L28.789 20.635H32.741ZM25.967 20.635L22.58 25.151H18.628L22.015 20.635H25.967ZM6.774 31.925L10.161 27.409H14.112L10.725 31.925H6.774ZM13.548 31.925L16.935 27.409H20.886L17.499 31.925H13.548ZM20.322 31.925L23.709 27.409H27.66L24.273 31.925H20.322ZM50.805 39.828H45.16C44.536 39.828 44.03 40.333 44.03 40.957V46.602C44.03 47.225 44.536 47.731 45.16 47.731H50.805V53.376H39.515V40.957C39.515 40.333 39.009 39.828 38.386 39.828H32.741V33.43L41.773 21.387L50.805 33.43V39.828ZM50.805 45.473H46.289V42.086H50.805V45.473ZM55.321 53.376H53.063V33.054C53.063 32.81 52.983 32.572 52.837 32.377L42.677 18.829C42.5685 18.6922 42.4313 18.5808 42.2751 18.5027C42.1189 18.4246 41.9475 18.3817 41.773 18.377H14.677C14.322 18.377 13.987 18.544 13.774 18.829L3.613 32.377C3.47896 32.5786 3.40096 32.8123 3.387 33.054V53.376H1.129C0.829568 53.376 0.542402 53.495 0.330673 53.7067C0.118945 53.9184 0 54.2056 0 54.505C0 54.8044 0.118945 55.0916 0.330673 55.3033C0.542402 55.5151 0.829568 55.634 1.129 55.634H55.321C55.6204 55.634 55.9076 55.5151 56.1193 55.3033C56.3311 55.0916 56.45 54.8044 56.45 54.505C56.45 54.2056 56.3311 53.9184 56.1193 53.7067C55.9076 53.495 55.6204 53.376 55.321 53.376Z" fill="#383A36"/>
<path d="M9.03199 7.08701C9.63085 7.08701 10.2052 7.3249 10.6286 7.74836C11.0521 8.17182 11.29 8.74615 11.29 9.34501C11.29 9.94387 11.0521 10.5182 10.6286 10.9417C10.2052 11.3651 9.63085 11.603 9.03199 11.603C8.43313 11.603 7.85881 11.3651 7.43535 10.9417C7.01189 10.5182 6.77399 9.94387 6.77399 9.34501C6.77399 8.74615 7.01189 8.17182 7.43535 7.74836C7.85881 7.3249 8.43313 7.08701 9.03199 7.08701ZM4.51599 9.34501C4.51599 10.5427 4.99179 11.6914 5.8387 12.5383C6.68561 13.3852 7.83427 13.861 9.03199 13.861C10.2297 13.861 11.3784 13.3852 12.2253 12.5383C13.0722 11.6914 13.548 10.5427 13.548 9.34501C13.548 8.14729 13.0722 6.99862 12.2253 6.15171C11.3784 5.3048 10.2297 4.82901 9.03199 4.82901C7.83427 4.82901 6.68561 5.3048 5.8387 6.15171C4.99179 6.99862 4.51599 8.14729 4.51599 9.34501V9.34501Z" fill="#383A36"/>
<path d="M10.161 2.57098V1.44199C10.161 1.29372 10.1317 1.14691 10.075 1.00993C10.0183 0.872957 9.93511 0.748499 9.83028 0.643661C9.72544 0.538824 9.60098 0.455663 9.464 0.398926C9.32703 0.342188 9.18021 0.312988 9.03195 0.312988C8.88369 0.312988 8.73688 0.342188 8.59991 0.398926C8.46293 0.455663 8.33846 0.538824 8.23363 0.643661C8.12879 0.748499 8.04563 0.872957 7.98889 1.00993C7.93215 1.14691 7.90295 1.29372 7.90295 1.44199V2.57098C7.90295 2.71925 7.93215 2.86606 7.98889 3.00304C8.04563 3.14001 8.12879 3.26447 8.23363 3.36931C8.33846 3.47415 8.46293 3.55731 8.59991 3.61404C8.73688 3.67078 8.88369 3.69998 9.03195 3.69998C9.18021 3.69998 9.32703 3.67078 9.464 3.61404C9.60098 3.55731 9.72544 3.47415 9.83028 3.36931C9.93511 3.26447 10.0183 3.14001 10.075 3.00304C10.1317 2.86606 10.161 2.71925 10.161 2.57098V2.57098Z" fill="#383A36"/>
<path d="M7.90295 16.119V17.248C7.90295 17.3963 7.93215 17.5431 7.98889 17.68C8.04563 17.817 8.12879 17.9415 8.23363 18.0463C8.33846 18.1512 8.46293 18.2343 8.59991 18.2911C8.73688 18.3478 8.88369 18.377 9.03195 18.377C9.18021 18.377 9.32703 18.3478 9.464 18.2911C9.60098 18.2343 9.72544 18.1512 9.83028 18.0463C9.93511 17.9415 10.0183 17.817 10.075 17.68C10.1317 17.5431 10.161 17.3963 10.161 17.248V16.119C10.161 15.9707 10.1317 15.8239 10.075 15.6869C10.0183 15.55 9.93511 15.4255 9.83028 15.3207C9.72544 15.2158 9.60098 15.1327 9.464 15.0759C9.32703 15.0192 9.18021 14.99 9.03195 14.99C8.88369 14.99 8.73688 15.0192 8.59991 15.0759C8.46293 15.1327 8.33846 15.2158 8.23363 15.3207C8.12879 15.4255 8.04563 15.55 7.98889 15.6869C7.93215 15.8239 7.90295 15.9707 7.90295 16.119V16.119Z" fill="#383A36"/>
<path d="M16.935 10.474C17.2344 10.474 17.5216 10.3551 17.7333 10.1433C17.9451 9.9316 18.064 9.64443 18.064 9.345C18.064 9.04557 17.9451 8.75841 17.7333 8.54668C17.5216 8.33495 17.2344 8.216 16.935 8.216H15.806C15.5066 8.216 15.2194 8.33495 15.0077 8.54668C14.7959 8.75841 14.677 9.04557 14.677 9.345C14.677 9.64443 14.7959 9.9316 15.0077 10.1433C15.2194 10.3551 15.5066 10.474 15.806 10.474H16.935Z" fill="#383A36"/>
<path d="M1.129 8.216C0.829568 8.216 0.542402 8.33495 0.330673 8.54668C0.118945 8.75841 0 9.04557 0 9.345C0 9.64443 0.118945 9.9316 0.330673 10.1433C0.542402 10.3551 0.829568 10.474 1.129 10.474H2.258C2.55743 10.474 2.84459 10.3551 3.05632 10.1433C3.26805 9.9316 3.387 9.64443 3.387 9.345C3.387 9.04557 3.26805 8.75841 3.05632 8.54668C2.84459 8.33495 2.55743 8.216 2.258 8.216H1.129Z" fill="#383A36"/>
<path d="M4.24103 2.958C4.02663 2.75894 3.74338 2.65078 3.45087 2.6563C3.15835 2.66181 2.87938 2.78056 2.67263 2.98757C2.46588 3.19457 2.34749 3.47369 2.34234 3.76621C2.33719 4.05874 2.44569 4.34185 2.64503 4.556L3.44503 5.354C3.65943 5.55307 3.94268 5.66122 4.2352 5.65571C4.52771 5.6502 4.80668 5.53145 5.01343 5.32444C5.22017 5.11744 5.33858 4.83831 5.34373 4.54579C5.34887 4.25327 5.24037 3.97015 5.04103 3.756L4.24103 2.958Z" fill="#383A36"/>
<path d="M13.022 13.337C12.582 13.778 12.582 14.493 13.023 14.934L13.823 15.732C14.0374 15.9311 14.3207 16.0392 14.6132 16.0337C14.9057 16.0282 15.1847 15.9094 15.3914 15.7024C15.5982 15.4954 15.7166 15.2163 15.7217 14.9238C15.7269 14.6313 15.6183 14.3481 15.419 14.134L14.619 13.336C14.407 13.1245 14.1197 13.0059 13.8203 13.006C13.5209 13.0062 13.2338 13.1253 13.022 13.337V13.337Z" fill="#383A36"/>
<path d="M13.823 2.95799L13.023 3.75599C12.8202 3.96962 12.7089 4.25396 12.7127 4.54845C12.7166 4.84293 12.8352 5.12429 13.0434 5.3326C13.2516 5.54092 13.5328 5.65972 13.8273 5.66372C14.1218 5.66771 14.4062 5.55658 14.62 5.35399L15.419 4.55599C15.5303 4.45266 15.6196 4.32797 15.6816 4.18935C15.7436 4.05073 15.777 3.90102 15.7799 3.74919C15.7828 3.59736 15.755 3.44651 15.6982 3.30565C15.6415 3.16479 15.5569 3.03681 15.4496 2.92937C15.3423 2.82192 15.2144 2.7372 15.0737 2.68028C14.9329 2.62336 14.782 2.5954 14.6302 2.59808C14.4784 2.60075 14.3286 2.63399 14.1899 2.69583C14.0512 2.75767 13.9264 2.84683 13.823 2.95799V2.95799Z" fill="#383A36"/>
<path d="M3.44406 13.336L2.64506 14.134C2.53377 14.2373 2.44446 14.362 2.38245 14.5006C2.32044 14.6393 2.287 14.789 2.28414 14.9408C2.28127 15.0926 2.30904 15.2435 2.36579 15.3843C2.42253 15.5252 2.50709 15.6532 2.61441 15.7606C2.72172 15.8681 2.84959 15.9528 2.99037 16.0097C3.13116 16.0666 3.28198 16.0946 3.43382 16.0919C3.58565 16.0892 3.73539 16.056 3.87409 15.9942C4.01278 15.9323 4.13759 15.8432 4.24106 15.732L5.04106 14.934C5.1506 14.8302 5.23823 14.7055 5.29878 14.5672C5.35934 14.429 5.39159 14.2801 5.39364 14.1292C5.39569 13.9783 5.36749 13.8285 5.3107 13.6886C5.25392 13.5488 5.16971 13.4218 5.06303 13.315C4.95635 13.2083 4.82937 13.124 4.68958 13.0671C4.54979 13.0103 4.40003 12.982 4.24913 12.9839C4.09822 12.9859 3.94924 13.018 3.81097 13.0785C3.6727 13.139 3.54794 13.2265 3.44406 13.336V13.336Z" fill="#383A36"/>
<path d="M20.8271 43.334L17.321 41.581L19.074 38.075C19.195 37.8088 19.208 37.5061 19.1104 37.2304C19.0127 36.9548 18.8121 36.7278 18.5506 36.597C18.289 36.4662 17.987 36.4419 17.7079 36.5292C17.4288 36.6165 17.1945 36.8085 17.054 37.065L14.796 41.581C14.7297 41.7136 14.6901 41.858 14.6796 42.006C14.6691 42.1539 14.6878 42.3024 14.7347 42.4431C14.7816 42.5838 14.8557 42.7139 14.9529 42.8259C15.0501 42.9379 15.1684 43.0297 15.3011 43.096L18.807 44.849L17.054 48.355C16.9811 48.4883 16.9357 48.6349 16.9207 48.7861C16.9057 48.9373 16.9214 49.09 16.9667 49.235C17.0121 49.38 17.0862 49.5144 17.1847 49.6301C17.2832 49.7458 17.404 49.8404 17.5399 49.9084C17.6758 49.9763 17.824 50.0162 17.9756 50.0256C18.1273 50.0349 18.2792 50.0136 18.4225 49.9629C18.5657 49.9121 18.6972 49.833 18.8092 49.7303C18.9211 49.6276 19.0112 49.5034 19.074 49.365L21.332 44.849C21.3984 44.7164 21.438 44.572 21.4485 44.4241C21.459 44.2761 21.4403 44.1276 21.3934 43.9869C21.3465 43.8462 21.2723 43.7161 21.1752 43.6041C21.078 43.4921 20.9597 43.4003 20.8271 43.334V43.334Z" fill="#383A36"/>
</svg>
