<svg xmlns="http://www.w3.org/2000/svg" width="57" height="57" viewBox="0 0 57 57"><g><g><path fill="#a0e361" d="M36.941 14.112a4.482 4.482 0 1 1 8.965 0 4.482 4.482 0 0 1-8.965 0z"/></g><g><path fill="#a0e361" d="M41.194 21.582a6.774 6.774 0 1 1 6.774-6.774 6.782 6.782 0 0 1-6.774 6.774zM52.242 5.058a1.129 1.129 0 0 0-1.299-1.298A9.841 9.841 0 0 1 41.992.462a1.128 1.128 0 0 0-1.597 0 9.833 9.833 0 0 1-8.951 3.297 1.13 1.13 0 0 0-1.3 1.299 9.834 9.834 0 0 1-3.297 8.952c-.44.44-.44 1.156 0 1.596a9.83 9.83 0 0 1 3.298 8.952 1.13 1.13 0 0 0 1.299 1.299 9.826 9.826 0 0 1 8.951 3.298c.441.44 1.156.44 1.597 0a9.842 9.842 0 0 1 8.951-3.298 1.129 1.129 0 0 0 1.3-1.298 9.834 9.834 0 0 1 3.297-8.953c.44-.44.44-1.155 0-1.596a9.83 9.83 0 0 1-3.298-8.952z"/></g><g><path fill="#a0e361" d="M42.323 40.776c-.551.003-1.101.037-1.648.103a23.698 23.698 0 0 1 2.99 4.944 1.129 1.129 0 1 1-2.063.92 21.452 21.452 0 0 0-41.054 8.71c0 .624.506 1.13 1.13 1.13H55.87c.624 0 1.129-.506 1.129-1.13-.01-8.102-6.575-14.668-14.677-14.677z"/></g></g></svg>