<svg xmlns="http://www.w3.org/2000/svg" width="36" height="35" viewBox="0 0 36 35"><g><g><path fill="#a0e361" d="M36 13.305c0 .317-.188.663-.563 1.038l-7.853 7.659 1.861 10.817c.015.1.022.245.022.433 0 .303-.076.559-.227.768-.151.21-.372.314-.661.314-.274 0-.562-.087-.865-.26L18 28.968l-9.714 5.106c-.317.173-.606.26-.865.26-.303 0-.53-.105-.681-.314a1.28 1.28 0 0 1-.228-.768c0-.087.014-.231.043-.433l1.861-10.817-7.875-7.658c-.36-.39-.541-.736-.541-1.039 0-.533.404-.865 1.212-.995l10.861-1.579L16.94.887C17.214.296 17.567 0 18 0c.433 0 .786.296 1.06.887l4.868 9.844 10.861 1.579c.808.13 1.212.462 1.212.995z"/></g></g></svg>