<svg xmlns="http://www.w3.org/2000/svg" width="54" height="55" viewBox="0 0 54 55"><g><g><path fill="#a0e361" d="M49.567 50.218c-.44.44-1.153.44-1.593 0l-9.012-9.011a1.126 1.126 0 1 1 1.593-1.593l9.012 9.012c.44.44.44 1.153 0 1.592zm-5.302-14.877a9.575 9.575 0 1 0 9.574 9.575 9.586 9.586 0 0 0-9.574-9.575z"/></g><g><path fill="#a0e361" d="M48.44 11.92L34.923 25.436a1.126 1.126 0 1 1-1.593-1.593l13.518-13.517a1.126 1.126 0 1 1 1.592 1.592zm-7.555-6.992c-7.154 0-12.954 5.8-12.954 12.954 0 7.154 5.8 12.954 12.954 12.954 7.155 0 12.954-5.8 12.954-12.954-.008-7.151-5.803-12.946-12.954-12.954z"/></g><g><path fill="#a0e361" d="M15.54 43.227a5.069 5.069 0 1 1 0-10.138 5.069 5.069 0 0 1 0 10.138zm14.085-13.365l-13.517-7.885a1.126 1.126 0 0 0-1.135 0L1.455 29.862a1.129 1.129 0 0 0-.558.974v14.643c0 .401.213.772.558.974l13.518 7.885c.35.204.784.204 1.135 0l13.517-7.885c.346-.202.559-.573.56-.974V30.836c-.001-.401-.214-.772-.56-.974z"/></g><g><path fill="#a0e361" d="M14.414 9.152a2.253 2.253 0 0 1-4.506 0 2.26 2.26 0 0 1 2.253-2.253 2.253 2.253 0 0 1 2.253 2.253zM12.16 6.899h-.005.005zm-.568 10.83a1.13 1.13 0 0 0 1.136 0l6.758-3.943c.346-.202.559-.573.56-.973V5.49c-.001-.401-.214-.772-.56-.974L12.73.575a1.126 1.126 0 0 0-1.136 0L4.835 4.517a1.129 1.129 0 0 0-.559.974v7.322c0 .4.213.77.559.973z"/></g></g></svg>