<svg xmlns="http://www.w3.org/2000/svg" width="51" height="30" viewBox="0 0 51 30"><g><g><path fill="#a0e361" d="M31.005 13.974l-3.03-4.546H19.34l3.03 4.546z"/></g><g><path fill="#a0e361" d="M47.902 27.611h-31.82v-4.546h31.82zM12.673 16.247a1.136 1.136 0 0 1 0-2.273h6.968l-3.032-4.546H8.127a1.136 1.136 0 1 1 0-2.273h6.967l-1.97-2.953a1.136 1.136 0 0 1 1.892-1.26l2.81 4.213h8.633l-1.97-2.953a1.136 1.136 0 0 1 1.892-1.26l2.81 4.213h8.482a1.136 1.136 0 0 1 0 2.273h-6.967l3.03 4.546h8.483a1.136 1.136 0 1 1 0 2.273h-6.967l1.97 2.953a1.136 1.136 0 1 1-1.892 1.26l-2.81-4.213h-8.632l1.969 2.953a1.136 1.136 0 1 1-1.891 1.26l-2.81-4.213zm1.136 8.747L2.444 7.948V5.226l11.365 17.047zM49.984 21.3L36.347.842A1.136 1.136 0 0 0 35.4.336H1.308A1.146 1.146 0 0 0 .17 1.473v27.275a1.136 1.136 0 0 0 2.273 0V12.045l11.555 17.333c.219.308.569.495.946.506h34.094c.627 0 1.136-.509 1.136-1.136v-6.819a1.316 1.316 0 0 0-.19-.63z"/></g></g></svg>