<svg xmlns="http://www.w3.org/2000/svg" width="170" height="63" viewBox="0 0 170 63"><g><g clip-path="url(#clip-2a423299-829e-4d97-b503-629cb5dc49d8)"><path fill="#fff" d="M104.86 27.905c0 4.03-3.413 6.76-10.24 6.76-6.857 0-10.921-2.372-11.116-6.76h2.179c.26 3.933 5.07 4.68 8.938 4.68 4.29 0 7.996-1.202 7.996-4.518 0-3.12-2.6-3.445-7.477-4.062-7.312-.91-10.856-1.625-10.856-6.404 0-4.453 4.194-6.63 9.524-6.63 5.461 0 9.46 1.755 9.752 6.338h-2.179c-.357-3.186-3.347-4.226-7.573-4.226-4.095 0-7.313 1.17-7.313 4.518 0 3.283 3.186 3.543 9.003 4.291 6.176.78 9.362 1.463 9.362 6.013"/></g><g clip-path="url(#clip-2a423299-829e-4d97-b503-629cb5dc49d8)"><path fill="#fff" d="M123.52 24.59c-.227-3.674-2.73-6.436-7.02-6.436-4.291 0-6.794 2.567-7.151 6.435zm2.112 1.852H109.35c.357 3.868 3.023 6.469 7.345 6.469 3.348 0 5.364-1.398 6.372-3.705h2.177c-1.235 3.574-4.453 5.46-8.549 5.46-5.038 0-9.556-2.894-9.556-9.135 0-6.207 4.29-9.132 9.361-9.132 5.461 0 9.525 3.51 9.133 10.043"/></g><g clip-path="url(#clip-2a423299-829e-4d97-b503-629cb5dc49d8)"><path fill="#fff" d="M150.666 22.834c0-5.786-3.836-9.751-10.076-9.751-6.273 0-10.075 3.965-10.075 9.751s3.802 9.751 10.075 9.751c6.24 0 10.076-3.965 10.076-9.75m2.211 0c0 7.832-5.786 11.83-12.287 11.83-6.534 0-12.32-3.998-12.32-11.83 0-7.834 5.786-11.865 12.32-11.865 6.501 0 12.287 4.03 12.287 11.864"/></g><g clip-path="url(#clip-2a423299-829e-4d97-b503-629cb5dc49d8)"><path fill="#fff" d="M77.477 51.124h-5.903v-7.797h5.792v.735h-5.047v2.684h4.734v.747H72.32v2.884h5.158z"/></g><g clip-path="url(#clip-2a423299-829e-4d97-b503-629cb5dc49d8)"><path fill="#fff" d="M87.722 43.327v7.797h-1.003l-5.335-6.928v6.928h-.735v-7.797h1.003l5.335 6.928v-6.928z"/></g><g clip-path="url(#clip-2a423299-829e-4d97-b503-629cb5dc49d8)"><path fill="#fff" d="M95.004 51.28c-2.24 0-4.222-1.392-4.222-4.054 0-2.662 1.994-4.066 4.222-4.066 1.793 0 3.275.857 3.831 2.55h-.813c-.456-1.124-1.448-1.826-3.018-1.826-2.15 0-3.464 1.382-3.464 3.342 0 1.96 1.314 3.341 3.464 3.341 2.25 0 3.252-1.236 3.263-2.818h-2.93v-.735h3.643c.234 2.874-1.504 4.266-3.976 4.266"/></g><g clip-path="url(#clip-2a423299-829e-4d97-b503-629cb5dc49d8)"><path fill="#fff" d="M107.966 51.124h-5.904v-7.797h5.793v.735h-5.046v2.684h4.734v.747h-4.734v2.884h5.157z"/></g><g clip-path="url(#clip-2a423299-829e-4d97-b503-629cb5dc49d8)"><path fill="#fff" d="M118.212 43.327v7.797h-1.003l-5.335-6.928v6.928h-.736v-7.797h1.003l5.335 6.928v-6.928z"/></g><g clip-path="url(#clip-2a423299-829e-4d97-b503-629cb5dc49d8)"><path fill="#fff" d="M129.124 43.327v7.797h-.746v-3.63h-5.803v3.63h-.747v-7.797h.747v3.419h5.803v-3.419z"/></g><g clip-path="url(#clip-2a423299-829e-4d97-b503-629cb5dc49d8)"><path fill="#fff" d="M133.978 48.384l2.049-4.344 2.05 4.344zm5.39 2.74h.836l-3.697-7.797h-.959l-3.697 7.797h.834l.947-2.005h4.79z"/></g><g clip-path="url(#clip-2a423299-829e-4d97-b503-629cb5dc49d8)"><path fill="#fff" d="M150.048 51.124h-.88l-1.882-2.952c-.112.012-.234.012-.357.012h-3.263v2.94h-.736v-7.797h4.11c2.24 0 2.852 1.125 2.852 2.428 0 .98-.423 1.96-1.804 2.306zm-.913-5.369c0-1.035-.535-1.693-2.094-1.693h-3.375v3.386h3.375c1.57 0 2.094-.657 2.094-1.693"/></g><g clip-path="url(#clip-2a423299-829e-4d97-b503-629cb5dc49d8)"><path fill="#fff" d="M152.997 51.124v-7.797h.746v7.797z"/></g><g clip-path="url(#clip-2a423299-829e-4d97-b503-629cb5dc49d8)"><path fill="#fff" d="M158.602 48.384l2.049-4.344 2.05 4.344zm5.39 2.74h.836l-3.698-7.797h-.958l-3.698 7.797h.835l.946-2.005h4.79z"/></g><g clip-path="url(#clip-2a423299-829e-4d97-b503-629cb5dc49d8)"><path fill="#fff" d="M66.882 39.449h-.494v-1.083H170v1.083z"/></g><g clip-path="url(#clip-2a423299-829e-4d97-b503-629cb5dc49d8)"><path fill="#fff" d="M56.026 45.033c0 10.575-8.953 17.738-26.862 17.738C11.171 62.77.512 56.546 0 45.033h5.713c.683 10.318 13.304 12.28 23.451 12.28 11.258 0 20.978-3.155 20.978-11.853 0-8.187-6.821-9.04-19.613-10.66-19.188-2.388-28.483-4.263-28.483-16.799 0-11.683 11-17.397 24.987-17.397 14.326 0 24.815 4.606 25.583 16.63h-5.714c-.939-8.358-8.784-11.086-19.87-11.086C16.288 6.148 7.846 9.218 7.846 18c0 8.613 8.357 9.295 23.622 11.257 16.202 2.046 24.56 3.837 24.56 15.775"/></g><g clip-path="url(#clip-2a423299-829e-4d97-b503-629cb5dc49d8)"><path fill="#fff" d="M45.738 31.713c0-10.16-6.735-17.123-17.695-17.123-11.016 0-17.694 6.963-17.694 17.123s6.678 17.124 17.694 17.124c10.96 0 17.695-6.964 17.695-17.124m3.881 0c0 13.757-10.16 20.777-21.576 20.777-11.473 0-21.633-7.02-21.633-20.777 0-13.756 10.16-20.834 21.633-20.834 11.417 0 21.576 7.078 21.576 20.834"/></g><g clip-path="url(#clip-2a423299-829e-4d97-b503-629cb5dc49d8)"><path fill="#fff" d="M37.765 30.362c-.32-5.161-3.837-9.044-9.867-9.044-6.029 0-9.546 3.608-10.049 9.044zm2.97 2.604H17.848c.503 5.435 4.249 9.088 10.323 9.088 4.706 0 7.537-1.963 8.954-5.206h3.06c-1.736 5.024-6.258 7.673-12.014 7.673-7.079 0-13.429-4.064-13.429-12.834 0-8.725 6.03-12.835 13.155-12.835 7.674 0 13.384 4.932 12.836 14.114"/></g></g></svg>