<svg xmlns="http://www.w3.org/2000/svg" width="101" height="28" viewBox="0 0 101 28"><g><g><g><g><path fill="#13172d" d="M.5 1.532h3.122v12.29c0 1.181.736 1.159 1.383 1.159h5.598v2.877H3.89c-1.762 0-3.39-.67-3.39-3.167z"/></g><g><path fill="#13172d" d="M15.643 15.07V4.298h3.568c1.74 0 2.788 1.07 2.788 5.442 0 3.278-.758 5.33-2.788 5.33zm-3.123 2.788h6.936c3.97 0 5.665-3.301 5.665-8.096 0-4.037-.98-8.23-5.665-8.23H12.52z"/></g><g><path fill="#13172d" d="M27.284 1.532h3.167l6.468 10.55V1.531h3.122v16.326h-3.122L30.429 7.42v10.438h-3.145z"/></g><g><path fill="#13172d" d="M47.155 11.48l1.962-5.844 1.83 5.843zm-5.353 6.378h3.345l1.183-3.613h5.352l1.16 3.613h3.323L50.857 1.532H47.31z"/></g><g><path fill="#a0e361" d="M63.167 5.614c0-3.234 1.918-4.171 4.415-4.216 2.342-.044 5.019.268 6.312.647v2.453c-1.427-.133-4.661-.223-5.464-.223-1.36-.022-2.141.067-2.141 1.584v.803c0 1.293.49 1.561 1.74 1.561h2.587c3.211 0 3.858 2.52 3.858 4.327v1.093c0 3.702-2.297 4.393-4.505 4.393-2.788 0-4.617-.178-6.312-.669v-2.453c.892.09 3.613.245 5.687.245.937 0 2.008-.156 2.008-1.405v-.87c0-.936-.268-1.539-1.472-1.539h-2.498c-3.948 0-4.215-2.899-4.215-4.326z"/></g><g><path fill="#a0e361" d="M81.811.685h3.234l-6.267 18.779h-3.234z"/></g><g><path fill="#a0e361" d="M91.49 11.48l1.962-5.844 1.83 5.843zm-5.353 6.378h3.345l1.182-3.613h5.353l1.16 3.613h3.323L95.192 1.532h-3.546z"/></g></g><g><g><g><path fill="#918d8c" d="M4.47 25.434l.706-2.104.658 2.104zM2.542 27.73h1.204l.425-1.3H6.1l.417 1.3h1.196l-1.91-5.877H4.526z"/></g><g><path fill="#918d8c" d="M12.209 21.79c.891 0 1.405.047 2.256.256v.875c-.048 0-1.076-.136-1.991-.136-.891 0-1.06.537-1.06 1.99 0 1.526.177 1.935 1.004 1.943.553.008 1.011-.37 1.011-.37v-1.05h-.819v-.715c.346-.145.819-.193 1.397-.193.169 0 .353 0 .546.016v3.324h-.803l-.305-.394c-.257.241-.57.41-1.244.434-1.662.064-1.91-1.333-1.91-3.01 0-1.71.32-2.97 1.918-2.97z"/></g><g><path fill="#918d8c" d="M18.56 21.332h.754l.506-.482.473.482h.747l-.779-1.084h-.834zm-.843 5.242c0 1.083.834 1.204 1.356 1.18 0 0 2.047-.073 2.505-.137v-.923h-2.24c-.233 0-.498.008-.498-.417v-.916l2.377-.072v-.93l-2.377-.081v-.915c0-.217 0-.45.418-.45h2.32v-.931c-.514-.072-2.585-.129-2.585-.129-.554-.008-1.276.201-1.276 1.22z"/></g><g><path fill="#918d8c" d="M24.661 21.853h1.14l2.328 3.798v-3.798h1.124v5.877h-1.124l-2.336-3.757v3.757h-1.132z"/></g><g><path fill="#918d8c" d="M34.32 21.79c.818 0 1.412.08 2.046.264v.883c-.008 0-.995-.112-1.782-.112-.826 0-1.14.184-1.14 1.967 0 1.316.217 1.95 1.14 1.95.843 0 1.782-.064 1.782-.064v.875c-.53.169-1.204.24-2.047.225-1.485-.016-1.998-1.14-1.998-3.002 0-1.879.4-2.987 1.998-2.987z"/></g><g><path fill="#918d8c" d="M39.426 21.853h1.124v5.877h-1.124z"/></g><g><path fill="#918d8c" d="M45.471 25.434l.706-2.104.659 2.104zm-1.927 2.296h1.205l.425-1.3h1.927l.417 1.3h1.196l-1.91-5.877h-1.277z"/></g><g><path fill="#918d8c" d="M57.185 26.726V22.85h1.284c.626 0 1.004.385 1.004 1.959 0 1.18-.273 1.918-1.004 1.918zM56.06 27.73h2.497c1.428 0 2.039-1.188 2.039-2.914 0-1.453-.354-2.963-2.04-2.963h-2.496z"/></g><g><path fill="#918d8c" d="M63.744 21.853h1.124v5.877h-1.124z"/></g><g><path fill="#918d8c" d="M69.846 21.79c.89 0 1.405.047 2.255.256v.875c-.048 0-1.075-.136-1.99-.136-.891 0-1.06.537-1.06 1.99 0 1.526.176 1.935 1.003 1.943.554.008 1.012-.37 1.012-.37v-1.05h-.819v-.715c.345-.145.819-.193 1.397-.193.168 0 .353 0 .546.016v3.324h-.803l-.305-.394c-.257.241-.57.41-1.244.434-1.662.064-1.911-1.333-1.911-3.01 0-1.71.321-2.97 1.919-2.97z"/></g><g><path fill="#918d8c" d="M75.377 21.853h1.124v5.877h-1.124z"/></g><g><path fill="#918d8c" d="M79.472 21.853h4.343v1.036h-1.63v4.84h-1.123v-4.84h-1.59z"/></g><g><path fill="#918d8c" d="M87.629 25.434l.706-2.104.659 2.104zm-1.927 2.296h1.204l.426-1.3h1.926l.418 1.3h1.196l-1.91-5.877h-1.277z"/></g><g><path fill="#918d8c" d="M93.843 21.853h1.124v4.424c0 .425.265.417.498.417h2.015v1.036h-2.417c-.634 0-1.22-.241-1.22-1.14z"/></g></g></g></g></g></svg>