<svg xmlns="http://www.w3.org/2000/svg" width="21" height="60" viewBox="0 0 21 60"><g><g><g transform="rotate(90 10.5 48)"><g><path fill="#383a36" d="M11.355 38.077a1.437 1.437 0 0 1 2.036 0l8.623 8.624a1.437 1.437 0 0 1 0 2.035l-8.623 8.624a1.44 1.44 0 0 1-2.036-2.035l7.609-7.607-7.609-7.607a1.437 1.437 0 0 1 0-2.035z"/></g><g><path fill="#383a36" d="M-.563 47.718c0-.794.643-1.437 1.437-1.437H19.56a1.437 1.437 0 1 1 0 2.874H.874a1.437 1.437 0 0 1-1.437-1.437z"/></g></g><g><path fill="#383a36" d="M12.374 12.782a1.5 1.5 0 1 1-3 0v-4.5a1.5 1.5 0 1 1 3 0zm-1.5-12a9 9 0 0 1 9 9v12a9 9 0 0 1-18 0v-12a9 9 0 0 1 9-9zm0 3a6 6 0 0 0-6 6v12a6 6 0 1 0 12 0v-12a6 6 0 0 0-6-6z"/></g></g></g></svg>