<svg xmlns="http://www.w3.org/2000/svg" width="30" height="28" viewBox="0 0 30 28"><g><g><path fill="#383a36" d="M24.633 21.192l-1.072-3.813h3.764l.845 3.005a.635.635 0 0 1-.613.808zm-5.215-.464l-.94-3.35h3.762l1.072 3.814H20.03a.635.635 0 0 1-.612-.464zm-4.392-18.6h2.923l1.073 3.813h-3.763l-.845-3.005a.635.635 0 0 1 .612-.808zm8.139.463l.942 3.35h-3.764l-1.072-3.813h3.282c.285 0 .535.189.612.463zm-1.035 9.704h3.764l1.072 3.813h-3.763zm-1.677-1.27h-3.764l-1.07-3.813h3.761zm5.083 0h-3.763l-1.071-3.813h3.764zm-8.49 1.27h3.764l1.073 3.813h-3.764zM6.035 20.757L4.91 17.379h3.743l1.271 3.813H6.638a.635.635 0 0 1-.602-.435zM5.26 7.212l1.271 3.812h-3.74L1.8 8.048a.635.635 0 0 1 .602-.836zm5.233.434l1.126 3.378H7.875l-1.27-3.812H9.89c.274 0 .517.175.603.434zM8.3 12.296h3.744l1.271 3.812H9.57zm-5.084 0H6.96l1.271 3.812H4.486zm10.912 8.896h-2.86l-1.27-3.813h3.74l.992 2.976a.635.635 0 0 1-.602.837zm12.566 5.083v-3.812h.864a1.906 1.906 0 0 0 1.835-2.423L24.387 2.247a1.911 1.911 0 0 0-1.834-1.39h-7.527a1.906 1.906 0 0 0-1.835 2.422l5.004 17.793c.233.821.982 1.388 1.835 1.39h1.58v3.813h-8.897v-3.812h1.414a1.906 1.906 0 0 0 1.809-2.51L11.7 7.244a1.906 1.906 0 0 0-1.81-1.303H2.4A1.906 1.906 0 0 0 .593 8.45l4.236 12.708c.26.78.99 1.304 1.81 1.304h.991v3.812H1.91a.635.635 0 1 0 0 1.271h6.355a.635.635 0 0 0 .635-.635v-4.448h2.542v4.448c0 .35.284.635.635.635h10.168a.635.635 0 0 0 .635-.635v-4.448h2.542v4.448c0 .35.285.635.635.635h3.178a.635.635 0 1 0 0-1.27z"/></g></g></svg>