<svg xmlns="http://www.w3.org/2000/svg" width="30" height="22" viewBox="0 0 30 22"><g><g><path fill="#fff" d="M4.59 17H1.5C.67 17 0 16.33 0 15.5V14c0-1.655 1.345-3 3-3h3c.825 0 1.57.333 2.114.872A6.874 6.874 0 0 0 4.59 17zm19.41.9v1.35a2.25 2.25 0 0 1-2.25 2.25H8.25A2.25 2.25 0 0 1 6 19.25V17.9c0-2.981 2.419-5.4 5.4-5.4h.39a7.4 7.4 0 0 0 3.21.75 7.384 7.384 0 0 0 3.21-.75h.39c2.981 0 5.4 2.419 5.4 5.4zM9.75 5.75A5.247 5.247 0 0 1 15 .5a5.247 5.247 0 0 1 5.25 5.25A5.247 5.247 0 0 1 15 11a5.247 5.247 0 0 1-5.25-5.25zM30 14v1.5c0 .83-.67 1.5-1.5 1.5h-3.094a6.857 6.857 0 0 0-3.52-5.128A2.991 2.991 0 0 1 24 11h3c1.655 0 3 1.345 3 3zm-7.5-7.5c0-1.655 1.345-3 3-3s3 1.345 3 3-1.345 3-3 3-3-1.345-3-3zm-21 0c0-1.655 1.345-3 3-3s3 1.345 3 3-1.345 3-3 3-3-1.345-3-3z"/></g></g></svg>