<svg xmlns="http://www.w3.org/2000/svg" width="46" height="28" viewBox="0 0 46 28"><g><g><path fill="#fff" d="M36.197 24.12c-2.885-.152-5.207-2.51-5.318-5.396a5.6 5.6 0 0 1 1.36-3.886l3.124 5.033c.328.528 1.021.69 1.55.363l.955-.593c.528-.328.69-1.022.363-1.55l-3.127-5.037a5.631 5.631 0 0 1 7.021 5.45 5.631 5.631 0 0 1-5.928 5.617zM18.43 17.38a8.982 8.982 0 0 0-2.98-5.627l1.74-2.811h8.968l-5.223 8.438zm-8.93 6.75a5.631 5.631 0 0 1-5.625-5.625 5.631 5.631 0 0 1 6.827-5.495l-3.2 5.169c-.694 1.122.115 2.576 1.436 2.576h5.716A5.632 5.632 0 0 1 9.5 24.129zm4.13-9.438a5.614 5.614 0 0 1 1.382 2.688h-3.045zm22.906-5.187a8.979 8.979 0 0 0-3.265.597l-5.462-8.8a1.687 1.687 0 0 0-1.434-.797h-4.5c-.621 0-1.125.503-1.125 1.125v1.125c0 .62.504 1.125 1.125 1.125h3.561l1.048 1.687H18.5V4.441c0-.621-.504-1.125-1.125-1.125h-6.15c-.944 0-1.741.773-1.725 1.718a1.687 1.687 0 0 0 1.688 1.657h3.426l-2.069 3.341a8.982 8.982 0 0 0-3.023-.528C4.585 9.492.53 13.512.5 18.45a9 9 0 0 0 17.717 2.304h3.658c.585 0 1.127-.303 1.435-.8l6.044-9.764 1.05 1.693a8.976 8.976 0 0 0-2.904 6.64c.01 4.84 4.071 8.933 8.91 8.98a9 9 0 0 0 9.089-8.86c.076-4.987-3.975-9.12-8.963-9.14z"/></g></g></svg>