<svg xmlns="http://www.w3.org/2000/svg" width="31" height="32" viewBox="0 0 31 32"><g><g><path fill="#fff" d="M30.584 28.163L14.056 13.117l.769-.771c.63-.632.97-1.447 1.022-2.278.03-.014.06-.028.089-.044l3.102-1.94c.42-.494.39-1.273-.068-1.732L13.574.942a1.296 1.296 0 0 0-1.728-.07L9.911 3.983c-.016.03-.03.06-.044.09a3.51 3.51 0 0 0-2.27 1.024L4.66 8.041a3.527 3.527 0 0 0-1.022 2.277c-.03.014-.06.028-.09.044l-3.102 1.94c-.42.494-.389 1.273.069 1.732l5.396 5.41c.458.46 1.235.49 1.728.07l1.935-3.111c.016-.03.03-.06.043-.09a3.509 3.509 0 0 0 2.271-1.024l.853-.855 15.006 16.573c.435.48 1.106.558 1.49.172l1.517-1.521c.385-.386.308-1.059-.171-1.495z"/></g></g></svg>