<svg xmlns="http://www.w3.org/2000/svg" width="30" height="30" viewBox="0 0 30 30"><g><g><path fill="#fff" d="M4.215 27.198c-.76 0-1.381-.621-1.381-1.381 0-.766.616-1.381 1.381-1.381a1.382 1.382 0 0 1 0 2.763zm9.428-9.497l-3.263-3.263-8.772 8.777a3.682 3.682 0 0 0 0 5.21 3.682 3.682 0 0 0 5.209 0l7.114-7.115c-.437-1.145-.57-2.394-.288-3.609zm5.98-4.72c1.63 0 3.16.634 4.312 1.785l1.116 1.116a8.147 8.147 0 0 0 2.521-1.698 8.278 8.278 0 0 0 2.182-7.868A.689.689 0 0 0 28.597 6l-4.282 4.282-3.909-.65-.65-3.909 4.282-4.282A.695.695 0 0 0 23.71.278a8.291 8.291 0 0 0-7.862 2.182c-1.64 1.64-2.412 3.804-2.372 5.963l4.726 4.725a6.27 6.27 0 0 1 1.422-.167zm9.75 9.826l-6.74-6.74a4.274 4.274 0 0 0-4.915-.8L11.583 9.13V5.556L4.215.031.531 3.715l5.526 7.367h3.574l6.136 6.136c-.783 1.6-.53 3.586.8 4.915l6.74 6.74c.84.84 2.199.84 3.034 0l3.033-3.033a2.15 2.15 0 0 0 0-3.033z"/></g></g></svg>