<svg xmlns="http://www.w3.org/2000/svg" width="30" height="22" viewBox="0 0 30 22"><g><g><path fill="#fff" d="M24.75 19.215c-.825 0-1.5-.675-1.5-1.5s.675-1.5 1.5-1.5 1.5.675 1.5 1.5-.675 1.5-1.5 1.5zm-2.25-10.5h1.758c.201 0 .389.08.53.22l2.03 2.03H22.5zm-12.75 10.5c-.825 0-1.5-.675-1.5-1.5s.675-1.5 1.5-1.5 1.5.675 1.5 1.5-.675 1.5-1.5 1.5zm-6 0c-.825 0-1.5-.675-1.5-1.5s.675-1.5 1.5-1.5 1.5.675 1.5 1.5-.675 1.5-1.5 1.5zM26.38 7.346a3.001 3.001 0 0 0-2.123-.876H22.5V1.965c0-.83-.67-1.5-1.5-1.5H1.5c-.83 0-1.5.67-1.5 1.5v15.75a3.749 3.749 0 0 0 3.75 3.75 3.743 3.743 0 0 0 3-1.519 3.73 3.73 0 0 0 3 1.519 3.749 3.749 0 0 0 3.675-4.5h7.65a3.749 3.749 0 0 0 3.675 4.5 3.749 3.749 0 0 0 3.675-4.5h.825c.412 0 .75-.337.75-.75v-4.008a2.99 2.99 0 0 0-.877-2.119z"/></g></g></svg>