<svg xmlns="http://www.w3.org/2000/svg" width="30" height="24" viewBox="0 0 30 24"><g><g><path fill="#fff" d="M29.77 11.728l-4.354-3.589V.925a.625.625 0 0 0-.625-.624h-2.917a.625.625 0 0 0-.625.624v3.782L16.587.87a2.5 2.5 0 0 0-3.177 0L.227 11.728a.625.625 0 0 0-.083.88l1.328 1.614a.625.625 0 0 0 .88.085l12.25-10.09a.635.635 0 0 1 .797 0l12.25 10.09c.267.22.66.183.88-.083l1.329-1.615a.625.625 0 0 0-.089-.881zM14.601 6.353L5 14.26v8.535c0 .46.374.833.834.833l5.836-.015a.833.833 0 0 0 .829-.833v-4.984c0-.46.373-.834.833-.834h3.333c.46 0 .833.373.833.834v4.98a.833.833 0 0 0 .834.836l5.834.016c.46 0 .833-.373.833-.833v-8.54l-9.6-7.903a.635.635 0 0 0-.797 0z"/></g></g></svg>