<svg xmlns="http://www.w3.org/2000/svg" width="33" height="23" viewBox="0 0 33 23"><g><g><path fill="#fff" d="M24.134 20.594a2.416 2.416 0 0 1-2.414-2.413 2.416 2.416 0 0 1 2.414-2.414 2.416 2.416 0 0 1 2.413 2.414 2.416 2.416 0 0 1-2.413 2.413zM14.078 8.527V3.701h4.487l3.861 4.826zm-2.413 0H5.879l1.93-4.826h3.856zm-3.62 12.067a2.416 2.416 0 0 1-2.414-2.413 2.416 2.416 0 0 1 2.414-2.414 2.416 2.416 0 0 1 2.413 2.414 2.416 2.416 0 0 1-2.413 2.413zM26.547 8.527l-5.47-6.837A3.22 3.22 0 0 0 18.566.483H7.81c-1.316 0-2.499.8-2.988 2.022L2.413 8.641A3.21 3.21 0 0 0 0 11.745v5.631c0 .445.36.805.804.805h2.414a4.827 4.827 0 1 0 9.653 0h6.436a4.827 4.827 0 1 0 9.654 0h2.413c.444 0 .804-.36.804-.805v-4.022a4.827 4.827 0 0 0-4.826-4.827z"/></g></g></svg>