<svg xmlns="http://www.w3.org/2000/svg" width="33" height="20" viewBox="0 0 33 20"><g><g><path fill="#fff" d="M30.578 13.402a4.028 4.028 0 0 1-3.794 3.794 4.024 4.024 0 0 1-4.241-4.015c0-1.076.422-2.05 1.11-2.769l2.483 4.14a.807.807 0 0 0 1.105.277l.689-.412a.807.807 0 0 0 .276-1.106l-2.442-4.065a4.02 4.02 0 0 1 4.814 4.156zM7.267 17.2a4.025 4.025 0 0 1-4.02-4.02 4.025 4.025 0 0 1 4.648-3.97L5.81 13a1.207 1.207 0 0 0 1.055 1.789h4.085A4.03 4.03 0 0 1 7.267 17.2zM26.608 6.749a6.358 6.358 0 0 0-2.13.347l-1.654-2.76h4.14c.67 0 1.207-.537 1.207-1.205V1.523c0-.668-.538-1.206-1.206-1.206h-2.277c-.341 0-.668.146-.894.397L21.91 2.809 20.764.9a1.214 1.214 0 0 0-1.035-.582h-4.02a.806.806 0 0 0-.804.804v.804c0 .442.362.804.804.804h3.336l.965 1.608h-7.723c-.89-1.16-2.256-2.01-5.02-2.01H4.478c-.678 0-1.246.553-1.231 1.231.01.653.548 1.18 1.206 1.18h2.814c1.231 0 1.945.549 2.402 1.247L9.1 7.015a6.434 6.434 0 0 0-2.075-.261c-3.382.12-6.11 2.89-6.19 6.276a6.434 6.434 0 0 0 12.662 1.759h4.23c.69 0 1.237-.573 1.207-1.261a7.612 7.612 0 0 1 2.824-6.282l.628 1.046a6.424 6.424 0 0 0-2.251 4.934c.025 3.497 2.874 6.357 6.372 6.387A6.431 6.431 0 0 0 33 13.126c-.035-3.498-2.895-6.352-6.392-6.377z"/></g></g></svg>