<svg xmlns="http://www.w3.org/2000/svg" width="24" height="27" viewBox="0 0 24 27"><g><g><path fill="#fff" d="M16.645 6.827a.612.612 0 0 1-.612.611h-2.04a.612.612 0 0 1-.611-.611v-2.04c0-.338.274-.612.611-.612h2.04c.338 0 .612.274.612.612zm0 4.894a.612.612 0 0 1-.612.612h-2.04a.612.612 0 0 1-.611-.612v-2.04c0-.337.274-.61.611-.61h2.04c.338 0 .612.273.612.61zm0 4.895a.612.612 0 0 1-.612.612h-2.04a.612.612 0 0 1-.611-.612v-2.04c0-.337.274-.611.611-.611h2.04c.338 0 .612.274.612.612zm-3.263 8.77h-3.264v-4.283c0-.338.274-.612.612-.612h2.04c.338 0 .612.274.612.612zm-3.875-8.158h-2.04a.612.612 0 0 1-.612-.612v-2.04c0-.337.274-.611.612-.611h2.04c.337 0 .611.274.611.612v2.04a.612.612 0 0 1-.611.611zM6.855 9.682c0-.338.274-.612.612-.612h2.04c.337 0 .611.274.611.612v2.04a.612.612 0 0 1-.611.611h-2.04a.612.612 0 0 1-.612-.612zm0-4.895c0-.338.274-.612.612-.612h2.04c.337 0 .611.274.611.612v2.04a.612.612 0 0 1-.611.611h-2.04a.612.612 0 0 1-.612-.611zm15.704 20.6h-1.02V2.135c0-.676-.547-1.224-1.223-1.224H3.184c-.676 0-1.224.548-1.224 1.224v23.25H.94a.612.612 0 0 0-.611.612v1.02H23.17v-1.02a.612.612 0 0 0-.612-.612z"/></g></g></svg>