<svg xmlns="http://www.w3.org/2000/svg" width="53" height="53" viewBox="0 0 53 53"><g><g><path fill="#fff" d="M33.29 35.839l-6.665-6.668-6.666 6.666a2.03 2.03 0 0 1-2.859 0 2.02 2.02 0 0 1 0-2.86l6.666-6.666-6.666-6.666a2.02 2.02 0 0 1 0-2.86 2.03 2.03 0 0 1 2.86 0l6.665 6.665 6.666-6.666a2.03 2.03 0 0 1 2.859 0 2.03 2.03 0 0 1 0 2.86l-6.666 6.669 6.666 6.665a2.03 2.03 0 0 1 0 2.86 2.008 2.008 0 0 1-2.86 0zM26.626 0C12.09 0 .312 11.777.312 26.313c0 14.535 11.778 26.312 26.313 26.312 14.535 0 26.313-11.777 26.313-26.312C52.938 11.777 41.16 0 26.625 0z"/></g></g></svg>