<svg width="21" height="22" viewBox="0 0 21 22" fill="none" xmlns="http://www.w3.org/2000/svg">
<path d="M10.705 5.355C11.04 5.355 11.311 5.627 11.311 5.962V10.814C11.311 10.9748 11.2472 11.1291 11.1336 11.2429C11.0199 11.3567 10.8658 11.4207 10.705 11.421H5.852C5.69101 11.421 5.53662 11.3571 5.42278 11.2432C5.30895 11.1294 5.245 10.975 5.245 10.814C5.245 10.653 5.30895 10.4986 5.42278 10.3848C5.53662 10.271 5.69101 10.207 5.852 10.207H10.098V5.962C10.098 5.627 10.37 5.355 10.705 5.355Z" fill="#00A99F"/>
<path d="M10.705 5.355C11.04 5.355 11.311 5.627 11.311 5.962V10.814C11.311 10.9748 11.2472 11.1291 11.1336 11.2429C11.0199 11.3567 10.8658 11.4207 10.705 11.421H5.852C5.69101 11.421 5.53662 11.3571 5.42278 11.2432C5.30895 11.1294 5.245 10.975 5.245 10.814C5.245 10.653 5.30895 10.4986 5.42278 10.3848C5.53662 10.271 5.69101 10.207 5.852 10.207H10.098V5.962C10.098 5.627 10.37 5.355 10.705 5.355Z" stroke="#00A99F" stroke-miterlimit="20"/>
<path d="M10.098 10.814C10.098 10.479 10.37 10.207 10.705 10.207H15.557C15.718 10.207 15.8724 10.271 15.9862 10.3848C16.1001 10.4986 16.164 10.653 16.164 10.814C16.164 10.975 16.1001 11.1294 15.9862 11.2432C15.8724 11.357 15.718 11.421 15.557 11.421H11.311V15.666C11.3143 15.7477 11.3011 15.8293 11.2721 15.9057C11.2431 15.9822 11.199 16.0521 11.1423 16.111C11.0857 16.17 11.0177 16.217 10.9425 16.249C10.8672 16.2811 10.7863 16.2976 10.7045 16.2976C10.6227 16.2976 10.5418 16.2811 10.4665 16.249C10.3913 16.217 10.3233 16.17 10.2667 16.111C10.21 16.0521 10.1659 15.9822 10.1369 15.9057C10.1079 15.8293 10.0947 15.7477 10.098 15.666V10.814Z" fill="#00A99F"/>
<path d="M10.098 10.814C10.098 10.479 10.37 10.207 10.705 10.207H15.557C15.718 10.207 15.8724 10.271 15.9862 10.3848C16.1001 10.4986 16.164 10.653 16.164 10.814C16.164 10.975 16.1001 11.1294 15.9862 11.2432C15.8724 11.357 15.718 11.421 15.557 11.421H11.311V15.666C11.3143 15.7477 11.3011 15.8293 11.2721 15.9057C11.2431 15.9822 11.199 16.0521 11.1423 16.111C11.0857 16.17 11.0177 16.217 10.9425 16.249C10.8672 16.2811 10.7863 16.2976 10.7045 16.2976C10.6227 16.2976 10.5418 16.2811 10.4665 16.249C10.3913 16.217 10.3233 16.17 10.2667 16.111C10.21 16.0521 10.1659 15.9822 10.1369 15.9057C10.1079 15.8293 10.0947 15.7477 10.098 15.666V10.814Z" stroke="#00A99F" stroke-miterlimit="20"/>
<path d="M1 10.814C1 5.454 5.345 1.109 10.705 1.109C16.065 1.109 20.41 5.454 20.41 10.814C20.41 16.174 16.065 20.519 10.705 20.519C5.345 20.519 1 16.174 1 10.814ZM10.705 19.306C12.9572 19.306 15.1172 18.4113 16.7098 16.8188C18.3023 15.2262 19.197 13.0662 19.197 10.814C19.197 8.56178 18.3023 6.40181 16.7098 4.80925C15.1172 3.21669 12.9572 2.322 10.705 2.322C8.45278 2.322 6.29281 3.21669 4.70025 4.80925C3.10769 6.40181 2.213 8.56178 2.213 10.814C2.213 13.0662 3.10769 15.2262 4.70025 16.8188C6.29281 18.4113 8.45278 19.306 10.705 19.306V19.306Z" fill="#00A99F"/>
<path d="M1 10.814C1 5.454 5.345 1.109 10.705 1.109C16.065 1.109 20.41 5.454 20.41 10.814C20.41 16.174 16.065 20.519 10.705 20.519C5.345 20.519 1 16.174 1 10.814ZM10.705 19.306C12.9572 19.306 15.1172 18.4113 16.7098 16.8188C18.3023 15.2262 19.197 13.0662 19.197 10.814C19.197 8.56178 18.3023 6.40181 16.7098 4.80925C15.1172 3.21669 12.9572 2.322 10.705 2.322C8.45278 2.322 6.29281 3.21669 4.70025 4.80925C3.10769 6.40181 2.213 8.56178 2.213 10.814C2.213 13.0662 3.10769 15.2262 4.70025 16.8188C6.29281 18.4113 8.45278 19.306 10.705 19.306V19.306Z" stroke="#00A99F" stroke-miterlimit="20"/>
</svg>
