<svg xmlns="http://www.w3.org/2000/svg" width="21" height="24" viewBox="0 0 21 24"><g><g><g><path fill="#858585" d="M19.55 10.869v2.3H18.4v-2.3zm0 6.9v2.3H18.4v-2.3zm-2.3 4.6H4.6v-20.7h12.65zM1.15 2.244c0-.318.258-.575.575-.575H3.45v20.7H1.725a.576.576 0 0 1-.575-.575zm18.4 1.725v2.3H18.4v-2.3zm.575 3.45a.575.575 0 0 0 .575-.575v-3.45a.575.575 0 0 0-.575-.575H18.4V1.094a.575.575 0 0 0-.575-.575h-16.1A1.727 1.727 0 0 0 0 2.244v19.55a1.727 1.727 0 0 0 1.725 1.725h16.1a.575.575 0 0 0 .575-.575v-1.725h1.725a.575.575 0 0 0 .575-.575v-3.45a.575.575 0 0 0-.575-.575H18.4v-2.3h1.725a.575.575 0 0 0 .575-.575v-3.45a.575.575 0 0 0-.575-.575H18.4v-2.3z"/></g><g><path fill="#858585" d="M14.375 5.119h-6.9a.575.575 0 1 0 0 1.15h6.9a.575.575 0 1 0 0-1.15z"/></g><g><path fill="#858585" d="M14.375 7.419h-6.9a.575.575 0 1 0 0 1.15h6.9a.575.575 0 1 0 0-1.15z"/></g><g><path fill="#858585" d="M14.375 17.769h-6.9a.575.575 0 1 0 0 1.15h6.9a.575.575 0 1 0 0-1.15z"/></g></g></g></svg>