<svg xmlns="http://www.w3.org/2000/svg" width="23" height="24" viewBox="0 0 23 24"><g><g><g><path fill="#858585" d="M1.135 22.088V1.654h11.353v2.838c0 .314.254.568.567.568h2.838v17.028zM13.623 2.457l1.468 1.468h-1.468zM13.457.685a.567.567 0 0 0-.402-.166H.568A.568.568 0 0 0 0 1.086v21.57c0 .314.254.568.568.568H16.46a.568.568 0 0 0 .568-.568V4.492c0-.15-.06-.295-.167-.401z"/></g><g><path fill="#858585" d="M21.002 21.387l-.568-1.136V6.195h1.136v14.056zm0-19.733c.313 0 .567.254.568.568V5.06h-1.136V2.222c0-.314.255-.568.568-.568zm0-1.135A1.705 1.705 0 0 0 19.3 2.222v18.164c0 .088.02.175.06.254l1.135 2.27a.568.568 0 0 0 1.016 0l1.135-2.27a.57.57 0 0 0 .06-.254V2.222A1.705 1.705 0 0 0 21.002.519z"/></g><g><path fill="#858585" d="M13.055 15.277H3.973a.568.568 0 0 0 0 1.135h9.082a.568.568 0 1 0 0-1.135z"/></g><g><path fill="#858585" d="M6.244 9.6h-2.27a.568.568 0 0 0 0 1.136h1.135v.568a.568.568 0 0 0 1.135 0v-.568a1.703 1.703 0 1 0 0-3.406H5.109a.568.568 0 0 1 0-1.135h2.27a.568.568 0 1 0 0-1.135H6.244v-.568a.568.568 0 0 0-1.135 0v.568a1.703 1.703 0 1 0 0 3.406h1.135a.568.568 0 1 1 0 1.135z"/></g><g><path fill="#858585" d="M13.055 10.736H9.65a.568.568 0 0 0 0 1.135h3.405a.568.568 0 1 0 0-1.135z"/></g><g><path fill="#858585" d="M13.055 13.007H3.973a.568.568 0 0 0 0 1.135h9.082a.568.568 0 1 0 0-1.135z"/></g><g><path fill="#858585" d="M13.055 18.683h-2.27a.568.568 0 0 0 0 1.135h2.27a.568.568 0 0 0 0-1.135z"/></g><g><path fill="#858585" d="M13.055 8.466h-2.27a.568.568 0 1 0 0 1.135h2.27a.568.568 0 1 0 0-1.135z"/></g></g></g></svg>