<svg xmlns="http://www.w3.org/2000/svg" width="28" height="23" viewBox="0 0 28 23"><g><g><g><path fill="#858585" d="M9.845 13.44a.615.615 0 0 1-1.23 0V9.748a.615.615 0 1 0-1.231 0v11.076a.615.615 0 1 1-1.23 0v-4.922a.615.615 0 0 0-1.231 0v4.922a.615.615 0 0 1-1.231 0V9.748a.615.615 0 1 0-1.23 0v3.692a.615.615 0 1 1-1.231 0V8.518a1.848 1.848 0 0 1 1.846-1.846h4.922a1.848 1.848 0 0 1 1.846 1.846zM3.692 3.595a1.846 1.846 0 1 1 3.692 0 1.846 1.846 0 0 1-3.692 0zm4.307 1.846h-.015c.407-.53.628-1.178.63-1.846a3.077 3.077 0 1 0-6.153 0c.003.668.224 1.316.631 1.846h-.015A3.08 3.08 0 0 0 0 8.518v4.922a1.848 1.848 0 0 0 1.846 1.846c.21-.002.418-.04.615-.113v5.651a1.838 1.838 0 0 0 3.077 1.366 1.838 1.838 0 0 0 3.077-1.366v-5.651c.197.073.405.111.615.113a1.848 1.848 0 0 0 1.846-1.846V8.518A3.08 3.08 0 0 0 7.999 5.44z"/></g><g><path fill="#858585" d="M19.075 5.441a.615.615 0 0 0 0-1.23h-2.461a.615.615 0 0 0-.615.615v6.768h-1.846a.615.615 0 1 0 0 1.231h1.846v6.769c0 .34.275.615.615.615h2.461a.615.615 0 1 0 0-1.23H17.23v-6.154h1.846a.615.615 0 0 0 0-1.23H17.23V5.44z"/></g><g><path fill="#858585" d="M23.998 5.441c.782 0 1.48.493 1.74 1.23h-3.48a1.848 1.848 0 0 1 1.74-1.23zm-.615-1.846a.615.615 0 1 1 1.23 0 .615.615 0 0 1-1.23 0zm3.076 4.307c.34 0 .616-.275.616-.615a3.066 3.066 0 0 0-1.55-2.656 1.846 1.846 0 1 0-3.053 0 3.066 3.066 0 0 0-1.55 2.656c0 .34.275.615.615.615z"/></g><g><path fill="#858585" d="M22.258 14.056a1.846 1.846 0 0 1 3.48 0zm1.125-3.077a.615.615 0 1 1 1.23 0 .615.615 0 0 1-1.23 0zm2.141 1.036a1.846 1.846 0 1 0-3.052 0 3.066 3.066 0 0 0-1.55 2.656c0 .34.275.615.615.615h4.922c.34 0 .616-.275.616-.615a3.066 3.066 0 0 0-1.55-2.656z"/></g><g><path fill="#858585" d="M22.258 21.44a1.846 1.846 0 0 1 3.48 0zm1.125-3.077a.615.615 0 1 1 1.23 0 .615.615 0 0 1-1.23 0zm2.141 1.036a1.846 1.846 0 1 0-3.052 0 3.066 3.066 0 0 0-1.55 2.656c0 .34.275.615.615.615h4.922c.34 0 .616-.275.616-.615a3.066 3.066 0 0 0-1.55-2.656z"/></g></g></g></svg>