<svg xmlns="http://www.w3.org/2000/svg" width="21" height="20" viewBox="0 0 21 20"><g><g><path fill="#fff" d="M10.865.106c1.31 0 2.563.257 3.759.771a9.78 9.78 0 0 1 3.09 2.07 9.802 9.802 0 0 1 2.07 3.09 9.4 9.4 0 0 1 .77 3.759 9.427 9.427 0 0 1-.77 3.759 9.776 9.776 0 0 1-2.07 3.09 9.798 9.798 0 0 1-3.09 2.07 9.41 9.41 0 0 1-3.76.771 9.542 9.542 0 0 1-4.69-1.208L.814 20l1.749-5.205a9.46 9.46 0 0 1-1.388-4.999c0-1.31.257-2.564.77-3.759a9.78 9.78 0 0 1 2.07-3.09 9.802 9.802 0 0 1 3.09-2.07 9.4 9.4 0 0 1 3.76-.771zm0 17.76a7.856 7.856 0 0 0 3.13-.642 8.13 8.13 0 0 0 2.576-1.722 8.152 8.152 0 0 0 1.722-2.577 7.84 7.84 0 0 0 .642-3.129 7.867 7.867 0 0 0-.642-3.13A8.126 8.126 0 0 0 16.57 4.09a8.148 8.148 0 0 0-2.577-1.722 7.85 7.85 0 0 0-3.13-.643 7.85 7.85 0 0 0-3.129.643A8.148 8.148 0 0 0 5.16 4.09a8.126 8.126 0 0 0-1.722 2.577 7.867 7.867 0 0 0-.643 3.129c0 1.739.514 3.315 1.542 4.73l-1.015 2.993 3.11-.989a7.902 7.902 0 0 0 4.434 1.337zm2.608-6.81c.112 0 .53.188 1.253.565.725.377 1.108.604 1.15.68a.545.545 0 0 1 .027.193c0 .283-.073.608-.22.977-.136.334-.44.614-.911.842-.471.227-.908.34-1.311.34-.488 0-1.302-.265-2.442-.796a7.327 7.327 0 0 1-2.185-1.516c-.617-.626-1.25-1.419-1.902-2.378-.617-.917-.92-1.748-.912-2.493v-.103c.026-.78.343-1.457.951-2.03.206-.19.428-.283.668-.283.052 0 .129.006.232.019.102.013.184.02.244.02.162 0 .276.027.34.083.064.055.13.173.2.353.068.172.21.549.423 1.131.214.583.321.904.322.964 0 .18-.148.426-.444.74-.295.312-.443.511-.443.596 0 .06.021.125.064.193.29.625.728 1.212 1.31 1.76.48.455 1.127.887 1.94 1.298a.57.57 0 0 0 .283.09c.129 0 .36-.207.694-.622.335-.416.558-.624.669-.624z"/></g></g></svg>