<svg xmlns="http://www.w3.org/2000/svg" width="27" height="24" viewBox="0 0 27 24"><g><g><path fill="#858585" d="M1.903 21.952v-9.977l7.687 2.14c.2.862.969 1.474 1.854 1.476h3.817a1.908 1.908 0 0 0 1.855-1.476l7.687-2.14v9.977zm9.541-8.906h3.817a.636.636 0 1 1 0 1.273h-3.817a.636.636 0 1 1 0-1.273zm13.359-6.36v3.97l-7.84 2.181a1.904 1.904 0 0 0-1.702-1.063h-3.816a1.904 1.904 0 0 0-1.703 1.063l-7.839-2.182v-3.97zM8.264 3.504a1.91 1.91 0 0 1 1.908-1.908h6.361a1.91 1.91 0 0 1 1.909 1.908v1.908H8.264zm17.175 1.908h-5.725V3.505a3.184 3.184 0 0 0-3.18-3.18h-6.362a3.184 3.184 0 0 0-3.18 3.18v1.908H1.267a.636.636 0 0 0-.636.636v16.539c0 .351.285.636.636.636h24.172a.636.636 0 0 0 .636-.636V6.049a.636.636 0 0 0-.636-.636z"/></g></g></svg>