<svg xmlns="http://www.w3.org/2000/svg" width="28" height="28" viewBox="0 0 28 28"><g><g><g><path fill="#858585" d="M1.47 11.312a2.033 2.033 0 0 1 1.914-1.354h1.354c.86 0 1.627.543 1.914 1.354zm2.591-5.415a1.354 1.354 0 1 1 0 2.707 1.354 1.354 0 0 1 0-2.707zM6.167 8.93a2.68 2.68 0 0 0 .602-1.68 2.707 2.707 0 0 0-5.415 0 2.68 2.68 0 0 0 .602 1.68A3.38 3.38 0 0 0 0 11.988c0 .374.303.677.677.677h6.769a.677.677 0 0 0 .676-.677 3.38 3.38 0 0 0-1.955-3.057z"/></g><g><path fill="#858585" d="M10.946 7.25a2.033 2.033 0 0 1 1.914-1.353h1.354c.86 0 1.627.542 1.914 1.353zm2.591-5.415a1.354 1.354 0 1 1 0 2.708 1.354 1.354 0 0 1 0-2.708zm2.106 3.035a2.68 2.68 0 0 0 .602-1.68 2.707 2.707 0 0 0-5.415 0 2.68 2.68 0 0 0 .602 1.68 3.38 3.38 0 0 0-1.956 3.057c0 .374.303.677.677.677h6.769a.677.677 0 0 0 .677-.677 3.38 3.38 0 0 0-1.956-3.057z"/></g><g><path fill="#858585" d="M23.69 9.958c.86 0 1.627.543 1.915 1.354h-5.183a2.033 2.033 0 0 1 1.915-1.354zm-.677-4.061a1.354 1.354 0 1 1 0 2.707 1.354 1.354 0 0 1 0-2.707zm3.385 6.768a.677.677 0 0 0 .677-.677 3.38 3.38 0 0 0-1.956-3.057 2.68 2.68 0 0 0 .602-1.68 2.707 2.707 0 1 0-5.415 0 2.68 2.68 0 0 0 .602 1.68 3.38 3.38 0 0 0-1.956 3.057c0 .374.303.677.677.677z"/></g><g><path fill="#858585" d="M1.47 20.788a2.033 2.033 0 0 1 1.914-1.354h1.354c.86 0 1.627.543 1.914 1.354zm2.591-5.415a1.354 1.354 0 1 1 0 2.707 1.354 1.354 0 0 1 0-2.707zm2.106 3.035a2.68 2.68 0 0 0 .602-1.681 2.707 2.707 0 0 0-5.415 0 2.68 2.68 0 0 0 .602 1.68A3.38 3.38 0 0 0 0 21.466c0 .373.303.676.677.676h6.769a.677.677 0 0 0 .676-.676 3.38 3.38 0 0 0-1.955-3.057z"/></g><g><path fill="#858585" d="M10.946 26.203a2.033 2.033 0 0 1 1.914-1.354h1.354c.86 0 1.627.543 1.914 1.354zm2.591-5.415a1.354 1.354 0 1 1 0 2.707 1.354 1.354 0 0 1 0-2.707zm2.106 3.035a2.68 2.68 0 0 0 .602-1.682 2.707 2.707 0 1 0-5.415 0 2.68 2.68 0 0 0 .602 1.682 3.38 3.38 0 0 0-1.956 3.057c0 .373.303.676.677.676h6.769a.677.677 0 0 0 .677-.676 3.38 3.38 0 0 0-1.956-3.057z"/></g><g><path fill="#858585" d="M20.422 20.788a2.033 2.033 0 0 1 1.915-1.354h1.353c.86 0 1.627.543 1.915 1.354zm2.591-5.415a1.354 1.354 0 1 1 0 2.707 1.354 1.354 0 0 1 0-2.707zm2.106 3.035a2.68 2.68 0 0 0 .602-1.681 2.707 2.707 0 0 0-5.415 0 2.68 2.68 0 0 0 .602 1.68 3.38 3.38 0 0 0-1.956 3.058c0 .373.303.676.677.676h6.769a.677.677 0 0 0 .677-.676 3.38 3.38 0 0 0-1.956-3.057z"/></g></g></g></svg>