<svg xmlns="http://www.w3.org/2000/svg" width="266" height="79" viewBox="0 0 266 79"><g><g clip-path="url(#clip-3bdac237-2615-4124-a915-bc03680d310d)"><path fill="#fff" d="M6.307 78.89l-2.288-2.987h.25c.265 0 .517-.029.755-.087l2.352 3.074zm-2.601-3.395l.87-.264.448.585c.209-.052.407-.125.594-.221.4-.206.718-.49.953-.855.236-.363.353-.784.353-1.262 0-.426-.11-.813-.33-1.162a2.417 2.417 0 0 0-.888-.832 2.537 2.537 0 0 0-1.25-.309H.212v7.715h.86v-2.987h2.946zm-2.634-3.482h3.141c.33 0 .632.066.904.198.271.132.488.31.65.535.162.224.242.475.242.755 0 .294-.08.558-.242.793a1.712 1.712 0 0 1-.661.562c-.28.14-.595.21-.948.21H1.072z"/></g><g clip-path="url(#clip-3bdac237-2615-4124-a915-bc03680d310d)"><path fill="#fff" d="M22.078 71.175h.86v7.715h-.86v-3.384h.364v-.837h-.364zm0 3.494v.837h-5.841v-.837zm-6.282.837l.011-.837h.43v-3.494h-.86v7.715h.86v-3.384z"/></g><g clip-path="url(#clip-3bdac237-2615-4124-a915-bc03680d310d)"><path fill="#fff" d="M42.091 75.275h3.527c.353 0 .687.048 1.003.143.316.096.573.243.772.441.198.198.297.46.297.783 0 .316-.092.58-.275.793a1.629 1.629 0 0 1-.728.474 2.94 2.94 0 0 1-1.014.143h-3.582zm0-3.262h3.395c.536 0 .97.097 1.3.292.331.195.496.498.496.909 0 .25-.07.467-.21.65a1.29 1.29 0 0 1-.583.42c-.25.095-.544.142-.882.142h-3.516zm3.626 6.877c.346 0 .69-.04 1.03-.122.342-.08.65-.209.927-.385a2.03 2.03 0 0 0 .666-.7c.169-.29.254-.64.254-1.052 0-.39-.09-.72-.27-.992a2.04 2.04 0 0 0-.711-.656 3.048 3.048 0 0 0-.638-.268 2.1 2.1 0 0 0 .803-.52c.272-.294.408-.658.408-1.091 0-.412-.109-.76-.325-1.047-.217-.287-.531-.505-.943-.656-.411-.15-.914-.226-1.51-.226h-4.187v7.715z"/></g><g clip-path="url(#clip-3bdac237-2615-4124-a915-bc03680d310d)"><path fill="#fff" d="M60.198 78.967c-.764 0-1.429-.164-1.995-.49a3.478 3.478 0 0 1-1.322-1.34c-.316-.566-.474-1.212-.474-1.94v-4.022h.86v3.99c0 .573.128 1.081.385 1.526.258.444.608.792 1.053 1.041.444.25.942.375 1.493.375.588 0 1.106-.125 1.554-.375.448-.25.8-.597 1.053-1.041.253-.445.38-.953.38-1.526v-3.99h.826v4.034c0 .72-.158 1.362-.473 1.928a3.47 3.47 0 0 1-1.329 1.34c-.569.326-1.24.49-2.01.49"/></g><g clip-path="url(#clip-3bdac237-2615-4124-a915-bc03680d310d)"><path fill="#fff" d="M75.462 79c-.514 0-.995-.055-1.444-.165a4.867 4.867 0 0 1-1.245-.49 4.341 4.341 0 0 1-1.036-.822l.53-.716c.462.485.958.837 1.487 1.058.529.22 1.098.33 1.708.33a4.78 4.78 0 0 0 1.323-.17c.397-.114.716-.285.959-.513.242-.228.36-.503.352-.826 0-.22-.066-.4-.198-.54a1.491 1.491 0 0 0-.513-.342 3.4 3.4 0 0 0-.689-.204 9.326 9.326 0 0 0-.716-.11 34.08 34.08 0 0 1-.595-.072c-.448-.066-.87-.143-1.267-.231a4.38 4.38 0 0 1-1.047-.364 1.862 1.862 0 0 1-.705-.6c-.17-.247-.254-.553-.254-.921 0-.352.083-.664.248-.937.165-.271.398-.503.7-.694.3-.19.652-.334 1.052-.43.4-.095.832-.143 1.295-.143.5 0 .954.053 1.361.16.408.106.775.26 1.102.463.327.202.605.45.832.744l-.562.639a3.387 3.387 0 0 0-.755-.656 3.511 3.511 0 0 0-.926-.413 3.854 3.854 0 0 0-1.063-.143c-.44 0-.837.055-1.19.165-.353.11-.634.26-.843.452a.905.905 0 0 0-.314.694c0 .25.07.456.21.617.138.162.331.29.577.386.247.095.532.17.855.226.323.055.672.108 1.047.16.39.044.777.103 1.162.176.386.074.74.178 1.064.314.323.136.582.325.777.568.195.242.292.57.292.98 0 .47-.147.884-.441 1.24-.294.357-.707.634-1.24.833-.532.198-1.162.297-1.89.297"/></g><g clip-path="url(#clip-3bdac237-2615-4124-a915-bc03680d310d)"><path fill="#fff" d="M86.913 78.89v-.871h2.017v-5.973h-2.017v-.87h4.893v.87H89.79v5.973h2.017v.87z"/></g><g clip-path="url(#clip-3bdac237-2615-4124-a915-bc03680d310d)"><path fill="#fff" d="M100.347 78.89v-7.715h.882l6.634 6.734-.077.198a5.392 5.392 0 0 1-.06-.689l-.034-.942c-.01-.338-.018-.672-.022-1.003l-.01-.887c-.004-.26-.006-.453-.006-.578v-2.833h.86v7.715h-.915l-6.568-6.59.022-.232c.007.095.016.24.027.435l.039.672c.014.254.03.517.044.789a32.245 32.245 0 0 1 .044 1.421v3.505z"/></g><g clip-path="url(#clip-3bdac237-2615-4124-a915-bc03680d310d)"><path fill="#fff" d="M117.506 74.504h.397v-2.491h5.356v-.838h-6.216v7.715h6.194v-.838h-5.334v-2.71h-.397zm5.136 0v.837h-4.739v-.837z"/></g><g clip-path="url(#clip-3bdac237-2615-4124-a915-bc03680d310d)"><path fill="#fff" d="M134.555 79c-.514 0-.996-.055-1.444-.165a4.866 4.866 0 0 1-1.245-.49 4.338 4.338 0 0 1-1.036-.822l.53-.716c.462.485.958.837 1.487 1.058.529.22 1.098.33 1.708.33.485 0 .926-.056 1.322-.17.397-.114.717-.285.96-.513.242-.228.36-.503.352-.826 0-.22-.066-.4-.198-.54a1.492 1.492 0 0 0-.513-.342 3.402 3.402 0 0 0-.689-.204 9.327 9.327 0 0 0-.716-.11c-.228-.026-.426-.05-.595-.072-.448-.066-.87-.143-1.267-.231a4.38 4.38 0 0 1-1.048-.364 1.862 1.862 0 0 1-.705-.6c-.169-.247-.253-.553-.253-.921 0-.352.082-.664.248-.937.165-.271.398-.503.7-.694.3-.19.652-.334 1.052-.43.4-.095.832-.143 1.295-.143.5 0 .954.053 1.361.16.408.106.775.26 1.102.463.327.202.605.45.832.744l-.562.639a3.39 3.39 0 0 0-.755-.656 3.512 3.512 0 0 0-.926-.413 3.854 3.854 0 0 0-1.063-.143c-.44 0-.838.055-1.19.165-.353.11-.634.26-.843.452a.905.905 0 0 0-.314.694c0 .25.07.456.21.617.138.162.331.29.577.386.247.095.531.17.855.226.323.055.672.108 1.047.16.389.044.776.103 1.162.176.386.074.74.178 1.064.314.323.136.582.325.777.568.194.242.292.57.292.98 0 .47-.147.884-.44 1.24-.295.357-.708.634-1.24.833-.534.198-1.163.297-1.89.297"/></g><g clip-path="url(#clip-3bdac237-2615-4124-a915-bc03680d310d)"><path fill="#fff" d="M149.092 79c-.515 0-.996-.055-1.444-.165a4.867 4.867 0 0 1-1.245-.49 4.339 4.339 0 0 1-1.037-.822l.53-.716c.462.485.959.837 1.487 1.058.53.22 1.099.33 1.71.33a4.78 4.78 0 0 0 1.321-.17c.397-.114.716-.285.96-.513.241-.228.359-.503.352-.826 0-.22-.067-.4-.199-.54a1.492 1.492 0 0 0-.512-.342 3.4 3.4 0 0 0-.69-.204 9.324 9.324 0 0 0-.715-.11c-.228-.026-.427-.05-.595-.072-.449-.066-.871-.143-1.268-.231a4.377 4.377 0 0 1-1.047-.364 1.862 1.862 0 0 1-.705-.6c-.17-.247-.254-.553-.254-.921 0-.352.083-.664.248-.937.166-.271.399-.503.7-.694.301-.19.652-.334 1.052-.43.401-.095.833-.143 1.295-.143.5 0 .954.053 1.362.16.408.106.775.26 1.102.463.327.202.604.45.832.744l-.562.639a3.386 3.386 0 0 0-.755-.656 3.511 3.511 0 0 0-.926-.413 3.854 3.854 0 0 0-1.063-.143c-.441 0-.838.055-1.19.165-.354.11-.634.26-.844.452a.905.905 0 0 0-.314.694c0 .25.07.456.21.617.139.162.332.29.578.386.246.095.531.17.854.226.323.055.672.108 1.047.16.39.044.777.103 1.163.176.386.074.74.178 1.063.314.323.136.582.325.777.568.195.242.293.57.293.98 0 .47-.147.884-.441 1.24-.294.357-.707.634-1.24.833-.533.198-1.163.297-1.89.297"/></g><g clip-path="url(#clip-3bdac237-2615-4124-a915-bc03680d310d)"><path fill="#fff" d="M171.144 72.013h3.295c.338 0 .636.063.893.187.257.125.459.296.606.513.147.216.22.465.22.744 0 .323-.073.61-.22.86-.147.249-.351.445-.612.59-.26.142-.556.214-.887.214h-3.295zm0 6.877v-2.932h3.35c.492 0 .933-.108 1.323-.325a2.412 2.412 0 0 0 1.267-2.166 2.202 2.202 0 0 0-1.19-1.994 2.575 2.575 0 0 0-1.246-.298h-4.364v7.715z"/></g><g clip-path="url(#clip-3bdac237-2615-4124-a915-bc03680d310d)"><path fill="#fff" d="M184.876 76.873l.352-.838h.383l1.337-2.755c.095-.205.174-.37.237-.496.062-.125.12-.24.17-.347a8.698 8.698 0 0 0 .227-.514 3.805 3.805 0 0 0 .193.431c.05.096.108.21.17.342.063.132.142.309.237.529l1.362 2.81h.402l.154.838h-.15l.976 2.017h.96l-3.726-7.715h-1.08l-3.758 7.715h.904l.978-2.017zm.735-.838h3.933l.405.838h-4.745z"/></g><g clip-path="url(#clip-3bdac237-2615-4124-a915-bc03680d310d)"><path fill="#fff" d="M205.485 78.89l-2.289-2.987h.25c.266 0 .518-.029.756-.087l2.352 3.074zm-2.601-3.395l.87-.264.448.585c.209-.052.407-.125.594-.221.4-.206.718-.49.953-.855.235-.363.353-.784.353-1.262 0-.426-.11-.813-.33-1.162a2.417 2.417 0 0 0-.888-.832 2.537 2.537 0 0 0-1.25-.309h-4.244v7.715h.86v-2.987h2.946zm-2.634-3.482h3.141c.33 0 .632.066.904.198.271.132.488.31.65.535.161.224.242.475.242.755 0 .294-.08.558-.242.793a1.711 1.711 0 0 1-.662.562c-.279.14-.594.21-.947.21h-3.086z"/></g><g clip-path="url(#clip-3bdac237-2615-4124-a915-bc03680d310d)"><path fill="#fff" d="M216.296 78.89v-6.877h-2.975v-.838h6.899v.838h-3.064v6.877z"/></g><g clip-path="url(#clip-3bdac237-2615-4124-a915-bc03680d310d)"><path fill="#fff" d="M227.725 78.89v-7.715h.881l6.635 6.734-.077.198a5.392 5.392 0 0 1-.061-.689l-.033-.942c-.01-.338-.018-.672-.022-1.003l-.011-.887a48.67 48.67 0 0 1-.006-.578v-2.833h.86v7.715h-.915l-6.568-6.59.022-.232.028.435a248.835 248.835 0 0 1 .083 1.46 31.96 31.96 0 0 1 .043 1.422v3.505z"/></g><g clip-path="url(#clip-3bdac237-2615-4124-a915-bc03680d310d)"><path fill="#fff" d="M244.884 74.504h.397v-2.491h5.356v-.838h-6.216v7.715h6.194v-.838h-5.334v-2.71h-.397zm5.136 0v.837h-4.74v-.837z"/></g><g clip-path="url(#clip-3bdac237-2615-4124-a915-bc03680d310d)"><path fill="#fff" d="M264.931 78.89l-2.288-2.987h.25c.265 0 .517-.029.755-.087L266 78.89zm-2.601-3.395l.87-.264.448.585c.209-.052.407-.125.594-.221.4-.206.718-.49.953-.855.236-.363.353-.784.353-1.262 0-.426-.11-.813-.33-1.162a2.416 2.416 0 0 0-.888-.832 2.536 2.536 0 0 0-1.25-.309h-4.243v7.715h.86v-2.987h2.946zm-2.634-3.482h3.141c.33 0 .632.066.904.198.271.132.488.31.65.535.162.224.242.475.242.755 0 .294-.08.558-.242.793a1.712 1.712 0 0 1-.661.562c-.28.14-.595.21-.948.21h-3.086z"/></g><g clip-path="url(#clip-3bdac237-2615-4124-a915-bc03680d310d)"><path fill="#fff" d="M19.47 17.89l-6.958 21.94-6.71-21.94H.165v43.875h5.83V38.071l4.26 14.293h4.579l4.637-14.293v23.694h5.639V17.891z"/></g><g clip-path="url(#clip-3bdac237-2615-4124-a915-bc03680d310d)"><path fill="#fff" d="M30.122 61.765V17.891h5.639v43.874z"/></g><g clip-path="url(#clip-3bdac237-2615-4124-a915-bc03680d310d)"><path fill="#fff" d="M50.494 37.51h-4.076V23.535h4.076zm3.693 2.506c1.129-.312 1.945-1.505 1.945-3.068V21.653c0-2.008-1.627-3.762-3.763-3.762H40.774v43.874h5.644V43.148h4.764v18.617h5.64v-18.05c0-1.568-.94-3.323-2.635-3.699"/></g><g clip-path="url(#clip-3bdac237-2615-4124-a915-bc03680d310d)"><path fill="#fff" d="M67.16 47.536l2.507-24.001 2.507 24.001zm10.97 3.869a5.847 5.847 0 0 1-.524-.366c-1.384-1.08-1.945-2.692-1.505-4.245.164-.652.397-1.468.704-2.485.138-.45.287-.922.445-1.42L74.68 17.89H64.654l-4.638 43.874h5.64l.879-8.585h6.27l.874 8.585h5.516z"/></g><g clip-path="url(#clip-3bdac237-2615-4124-a915-bc03680d310d)"><path fill="#fff" d="M119.742 16.81v20.466l-6.566-20.467h-8.4v14.755c.509.307.991.672 1.447 1.091 1.24 1.145 2.014 2.698 2.236 4.489.128.959.154 1.923.064 2.862.88.301 1.632.922 2.099 1.775.37.689.545 1.415.545 2.189 0 .741-.164 1.446-.482 2.093-.63 1.245-1.749 2.019-3.036 2.13-.63.08-1.235.111-1.823.096-.08.137-.165.275-.25.418-.243.387-.508.769-.8 1.14V60.34h6.874V35.443l7.864 24.897h7.102V16.81z"/></g><g clip-path="url(#clip-3bdac237-2615-4124-a915-bc03680d310d)"><path fill="#fff" d="M139.6 53.466V41.627h7.254v-6.873H139.6V23.683h10.307v-6.874h-17.18v43.53h17.715v-6.873z"/></g><g clip-path="url(#clip-3bdac237-2615-4124-a915-bc03680d310d)"><path fill="#fff" d="M175.334 29.793v-8.4c0-2.448-1.982-4.584-4.578-4.584h-10.388c-2.443 0-4.584 2.136-4.584 4.585v34.441c0 2.443 2.141 4.505 4.584 4.505h10.388c2.517 0 4.578-2.062 4.578-4.505V40.408h-9.163v6.874h2.29v6.184h-5.803V23.683h5.803v6.11z"/></g><g clip-path="url(#clip-3bdac237-2615-4124-a915-bc03680d310d)"><path fill="#fff" d="M193.967.164l-10.461 11.145 4.96 4.737 10.467-11.15zm.154 23.519h-5.803v29.783h5.803zm2.29-6.874h-10.388c-2.443 0-4.578 2.136-4.578 4.585v34.441c0 2.443 2.135 4.505 4.578 4.505h10.387c2.523 0 4.584-2.062 4.584-4.505V21.394c0-2.449-1.987-4.585-4.584-4.585"/></g><g clip-path="url(#clip-3bdac237-2615-4124-a915-bc03680d310d)"><path fill="#fff" d="M226.655 29.793v-8.4c0-2.448-1.988-4.584-4.585-4.584h-10.386c-2.444 0-4.58 2.136-4.58 4.585v34.441c0 2.443 2.136 4.505 4.58 4.505h10.386c2.523 0 4.585-2.062 4.585-4.505v-8.553h-6.874v6.184h-5.808V23.683h5.808v6.11z"/></g><g clip-path="url(#clip-3bdac237-2615-4124-a915-bc03680d310d)"><path fill="#fff" d="M232.76 60.34V16.81h6.873v43.53z"/></g><g clip-path="url(#clip-3bdac237-2615-4124-a915-bc03680d310d)"><path fill="#fff" d="M258.42 53.466h-5.803V23.683h5.803zm2.29-36.656h-10.387c-2.444 0-4.58 2.135-4.58 4.584v34.441c0 2.444 2.136 4.505 4.58 4.505h10.386c2.523 0 4.585-2.062 4.585-4.505V21.394c0-2.449-1.987-4.584-4.585-4.584"/></g><g clip-path="url(#clip-3bdac237-2615-4124-a915-bc03680d310d)"><path fill="#fff" d="M98.013 38.812a1.663 1.663 0 0 0-.471-.36 1.557 1.557 0 0 0-.567-.185c-.186-.027-.318.047-.398.222a26.17 26.17 0 0 1-1.632 2.671 24.538 24.538 0 0 1-1.293 1.712 16.828 16.828 0 0 1-1.643 1.738 9.107 9.107 0 0 1-1.32 1.023c-.079.058-.153.106-.233.148 0-.434.08-.948.239-1.536.026-.128.064-.255.106-.387.222-.758.487-1.543.79-2.364.301-.816.62-1.6.948-2.342.323-.742.588-1.368.79-1.871a.87.87 0 0 0 .063-.28c.022-.213-.047-.425-.196-.642a2.75 2.75 0 0 0-.885-.816 3.474 3.474 0 0 0-1.23-.45c-.44-.08-.81-.027-1.112.148-.456.28-.922.62-1.4 1.023-.476.402-.953.852-1.414 1.356a31.939 31.939 0 0 0-2.703 3.365c.026-.127.132-.365.318-.72.19-.35.419-.758.684-1.225.265-.466.54-.97.832-1.51.286-.546.556-1.081.81-1.606.075-.206-.005-.445-.243-.72a2.79 2.79 0 0 0-.928-.679 2.722 2.722 0 0 0-1.155-.265c-.387 0-.673.175-.848.53a29.048 29.048 0 0 0-1.664 3.434 69.105 69.105 0 0 0-1.357 3.61 97.416 97.416 0 0 0-1.06 3.248c-.302.996-.53 1.796-.678 2.4-.08.228.032.456.318.679.292.228.625.408 1.002.53.376.127.758.185 1.134.17.376-.011.63-.133.758-.356.275-.583.673-1.309 1.187-2.194a49.432 49.432 0 0 1 3.572-5.252c.63-.805 1.197-1.42 1.7-1.85-.074.176-.206.563-.397 1.15-.19.594-.376 1.257-.567 1.983-.19.731-.334 1.463-.434 2.194-.101.732-.101 1.309 0 1.738.048.255.238.504.567.758.328.25.705.45 1.134.604.429.149.87.244 1.32.281.264.021.513.005.741-.042.17-.037.324-.09.472-.165.525-.275 1.097-.742 1.717-1.399.233-.249.466-.503.694-.779.376-.445.747-.922 1.118-1.43a31.813 31.813 0 0 0 1.664-2.55c.515-.88.95-1.69 1.304-2.416.027-.08-.026-.186-.154-.324"/></g><g clip-path="url(#clip-3bdac237-2615-4124-a915-bc03680d310d)"><path fill="#fff" d="M99.582 45.294c-.466.779-1.187 1.457-2.173 2.04a2.318 2.318 0 0 1-.095-.408c-.063-.382-.069-.832-.016-1.351a13.94 13.94 0 0 1 .398-2.152c.185-.72.381-1.357.582-1.908.202-.556.366-.896.493-1.023.377.737.88 1.373 1.51 1.903.165.143.345.276.53.403-.354.88-.763 1.711-1.229 2.496m2.099-5.915a4.54 4.54 0 0 1-.302 1.267 3.165 3.165 0 0 1-.085-.207c-.377-.932-.578-1.807-.615-2.628-.016-.371.006-.705.064-1.007.09-.419.249-.779.482-1.07.1.174.196.46.286.847.085.393.149.832.186 1.325.042.493.032.98-.016 1.473m5.76 3.816c-.09-.164-.233-.233-.434-.207-.504.101-1.012.112-1.532.038a3.623 3.623 0 0 1-.906-.228 1.835 1.835 0 0 1-.207-.112c.075-.333.143-.662.207-.99.117-.562.217-1.113.302-1.654a9.112 9.112 0 0 0 .021-2.687 4.488 4.488 0 0 0-.323-1.208 3.464 3.464 0 0 0-.848-1.208c-.657-.605-1.378-1.018-2.173-1.246-.795-.228-1.547-.286-2.268-.17-.715.112-1.192.372-1.415.774a2.896 2.896 0 0 0-.265.642 2.764 2.764 0 0 0-.117.927c.027.54.09 1.076.192 1.606a2.815 2.815 0 0 1-.414.339c-.154.1-.291.212-.419.339-.35.328-.72.811-1.112 1.457-.292.483-.557.997-.785 1.553a12.992 12.992 0 0 0-.822 2.92c-.079.509-.095.996-.042 1.452.027.27.08.53.154.78.127.503.43.97.906 1.398.286.255.599.483.933.679.228.143.466.27.715.381a6.93 6.93 0 0 0 1.85.546c.615.09 1.129.016 1.531-.207a4.711 4.711 0 0 0 1.304-1.038c.387-.44.726-.896 1.018-1.362.291-.467.535-.917.736-1.362.201-.44.366-.784.493-1.04.302.102.583.181.848.24.339.084.646.127.927.143a9.06 9.06 0 0 0 1.622-.08c.127 0 .233-.085.323-.265a1.26 1.26 0 0 0 .133-.583c0-.212-.043-.403-.133-.567"/></g></g></svg>