<svg xmlns="http://www.w3.org/2000/svg" width="100" height="28" viewBox="0 0 100 28"><g><g><g><g><path fill="#fff" d="M0 1.341h3.123v12.29c0 1.181.736 1.159 1.383 1.159h5.598v2.877H3.39c-1.762 0-3.39-.67-3.39-3.167z"/></g><g><path fill="#fff" d="M15.143 14.879V4.107h3.569c1.74 0 2.787 1.07 2.787 5.442 0 3.278-.758 5.33-2.787 5.33zm-3.122 2.788h6.936c3.97 0 5.665-3.3 5.665-8.096 0-4.037-.981-8.23-5.665-8.23h-6.936z"/></g><g><path fill="#fff" d="M26.784 1.341h3.167l6.468 10.55V1.34h3.122v16.326H36.42L29.93 7.229v10.438h-3.145z"/></g><g><path fill="#fff" d="M46.655 11.288l1.963-5.843 1.829 5.843zm-5.353 6.379h3.346l1.182-3.613h5.353l1.16 3.613h3.323L50.357 1.341h-3.546z"/></g><g><path fill="#fca26d" d="M62.667 5.423c0-3.234 1.918-4.171 4.416-4.216 2.342-.044 5.018.268 6.312.647v2.453c-1.428-.133-4.662-.223-5.465-.223-1.36-.022-2.14.067-2.14 1.584v.803c0 1.293.49 1.561 1.739 1.561h2.587c3.212 0 3.859 2.52 3.859 4.327v1.093c0 3.702-2.298 4.393-4.506 4.393-2.787 0-4.616-.178-6.311-.669v-2.453c.892.09 3.613.245 5.687.245.937 0 2.007-.156 2.007-1.405v-.87c0-.936-.267-1.539-1.472-1.539h-2.498c-3.948 0-4.215-2.899-4.215-4.326z"/></g><g><path fill="#fca26d" d="M81.311.494h3.234l-6.267 18.779h-3.234z"/></g><g><path fill="#fca26d" d="M90.99 11.288l1.963-5.843 1.829 5.843zm-5.353 6.379h3.346l1.182-3.613h5.353l1.16 3.613H100L94.692 1.341h-3.546z"/></g></g><g><g><g><path fill="#fff" d="M3.97 25.243l.706-2.103.659 2.103zm-1.927 2.296h1.204l.426-1.3H5.6l.417 1.3h1.196l-1.91-5.877H4.026z"/></g><g><path fill="#fff" d="M11.71 21.598c.89 0 1.404.048 2.255.257v.875c-.048 0-1.075-.136-1.99-.136-.892 0-1.06.537-1.06 1.99 0 1.526.176 1.935 1.003 1.943.554.008 1.012-.37 1.012-.37v-1.05h-.82v-.715c.346-.144.82-.193 1.398-.193.168 0 .353 0 .546.016v3.324h-.803l-.305-.394c-.257.241-.57.41-1.245.434-1.661.064-1.91-1.333-1.91-3.01 0-1.71.321-2.97 1.918-2.97z"/></g><g><path fill="#fff" d="M18.06 21.14h.755l.505-.48.474.48h.747l-.779-1.083h-.835zm-.843 5.243c0 1.083.835 1.204 1.357 1.18 0 0 2.047-.073 2.504-.137v-.923h-2.24c-.232 0-.497.008-.497-.417v-.916l2.376-.072v-.93l-2.376-.081v-.915c0-.217 0-.45.417-.45h2.32v-.931c-.513-.072-2.584-.129-2.584-.129-.554-.008-1.277.201-1.277 1.22z"/></g><g><path fill="#fff" d="M24.162 21.663h1.14l2.328 3.797v-3.798h1.124v5.877H27.63l-2.336-3.757v3.757h-1.132z"/></g><g><path fill="#fff" d="M33.82 21.598c.819 0 1.413.08 2.047.265v.883c-.008 0-.995-.112-1.782-.112-.827 0-1.14.184-1.14 1.967 0 1.316.217 1.95 1.14 1.95.843 0 1.782-.064 1.782-.064v.875c-.53.169-1.204.241-2.047.225-1.485-.016-1.999-1.14-1.999-3.002 0-1.879.401-2.987 1.999-2.987z"/></g><g><path fill="#fff" d="M38.926 21.663h1.124v5.876h-1.124z"/></g><g><path fill="#fff" d="M44.971 25.243l.707-2.103.658 2.103zm-1.926 2.296h1.204l.425-1.3h1.927l.418 1.3h1.196l-1.91-5.877h-1.277z"/></g><g><path fill="#fff" d="M56.685 26.535v-3.877h1.284c.627 0 1.004.385 1.004 1.959 0 1.18-.273 1.918-1.004 1.918zm-1.124 1.004h2.497c1.429 0 2.039-1.188 2.039-2.914 0-1.453-.353-2.962-2.039-2.962h-2.497z"/></g><g><path fill="#fff" d="M63.245 21.663h1.123v5.876h-1.123z"/></g><g><path fill="#fff" d="M69.346 21.598c.891 0 1.405.048 2.256.257v.875c-.048 0-1.076-.136-1.991-.136-.89 0-1.06.537-1.06 1.99 0 1.526.177 1.935 1.004 1.943.554.008 1.011-.37 1.011-.37v-1.05h-.819v-.715c.346-.144.82-.193 1.397-.193.169 0 .354 0 .546.016v3.324h-.803l-.305-.394c-.256.241-.57.41-1.244.434-1.662.064-1.91-1.333-1.91-3.01 0-1.71.32-2.97 1.918-2.97z"/></g><g><path fill="#fff" d="M74.878 21.663h1.124v5.876h-1.124z"/></g><g><path fill="#fff" d="M78.973 21.663h4.343v1.035h-1.63v4.84h-1.124v-4.84h-1.59z"/></g><g><path fill="#fff" d="M87.13 25.243l.706-2.103.658 2.103zm-1.927 2.296h1.204l.426-1.3h1.926l.417 1.3h1.197l-1.911-5.877h-1.277z"/></g><g><path fill="#fff" d="M93.344 21.663h1.123v4.423c0 .425.265.417.498.417h2.015v1.036h-2.416c-.634 0-1.22-.241-1.22-1.14z"/></g></g></g></g></g></svg>