<svg xmlns="http://www.w3.org/2000/svg" width="222" height="216" viewBox="0 0 222 216"><g><g><g><path fill="#fff" d="M177.37 11.728v.076h-.006v5.049h24.786v24.874h5.05v-.07h.011V11.727z"/></g><g><path fill="#fff" d="M202.166 174.503h-.012v24.334h-24.78v.069h-.006v5.057h29.836v-.074h.011v-29.456h-5.049z"/></g><g><path fill="#fff" d="M108.619 186.41h-.01v29.281h5.047v-.068h.012v-29.286h-5.05z"/></g><g><path fill="#fff" d="M.01 105.199H0v5.045h30.079v-.072h.011v-5.049H.01z"/></g><g><path fill="#fff" d="M20.113 174.429h-5.057v.07h-.012v29.465H44.59v-.074h.012v-5.051H20.113z"/></g><g><path fill="#fff" d="M20.098 41.657h.016V16.851h24.47v-.068h.012v-5.057h-29.54v.076h-.01V41.73h5.052z"/></g><g><path fill="#fff" d="M113.66 30.079h.01V0h-5.048v.068h-.01v30.088h5.047z"/></g><g><path fill="#fff" d="M222 110.244v-5.045h-.29v-.076h-29.284v5.049h.294v.072z"/></g></g></g></svg>