<svg xmlns="http://www.w3.org/2000/svg" width="132" height="129" viewBox="0 0 132 129"><g><g><g><path fill="#fff" d="M105.463 7.35v.044h-.004v3.002h14.738v14.79h3.002v-.042h.007V7.35z"/></g><g><path fill="#fff" d="M120.207 104.134h-.007v14.47h-14.735v.04h-.003v3.007h17.74v-.044h.007v-17.514h-3.002z"/></g><g><path fill="#fff" d="M64.584 111.214h-.006v17.41h3.001v-.04h.007V111.17h-3.002z"/></g><g><path fill="#fff" d="M.006 62.926H0v3h17.885v-.042h.007V62.88H.006z"/></g><g><path fill="#fff" d="M11.96 104.09H8.951v.042h-.007v17.52h17.568v-.045h.007v-3.003H11.96z"/></g><g><path fill="#fff" d="M11.95 25.145h.01v-14.75h14.55v-.04h.007V7.348H8.953v.045h-.007v17.796h3.004z"/></g><g><path fill="#fff" d="M67.581 18.26h.007V.376h-3.002v.04h-.006v17.89h3.001z"/></g><g><path fill="#fff" d="M132 65.926v-3h-.173v-.045h-17.412v3.002h.175v.043z"/></g></g></g></svg>