<svg xmlns="http://www.w3.org/2000/svg" width="816" height="773" viewBox="0 0 816 773"><g><g opacity=".06"><g opacity=".06"><path fill="#00a99f" d="M651.946 42.565v.272h-.022v18.067h91.104v89.004h18.557v-.25h.044V42.564z"/></g><g opacity=".06"><path fill="#00a99f" d="M743.085 625.02h-.042v87.074H651.96v.244h-.02v18.096h109.661v-.265h.042v-105.4h-18.559z"/></g><g opacity=".06"><path fill="#00a99f" d="M399.247 667.628h-.035V772.4h18.55v-.244h.043V667.362h-18.558z"/></g><g opacity=".06"><path fill="#00a99f" d="M.05 377.03H.013v18.053H110.57v-.257h.042v-18.068H.049z"/></g><g opacity=".06"><path fill="#00a99f" d="M73.94 624.753H55.352v.251h-.042v105.433h108.595v-.263h.042v-18.075H73.94z"/></g><g opacity=".06"><path fill="#00a99f" d="M73.886 149.66h.058V60.897h89.942v-.242h.044V42.56H55.356v.27h-.043v107.094h18.573z"/></g><g opacity=".06"><path fill="#00a99f" d="M417.774 108.23h.043V.6h-18.558v.244h-.035v107.662h18.55z"/></g><g opacity=".06"><path fill="#00a99f" d="M815.986 395.081v-18.053h-1.066v-.272H707.285v18.068h1.08v.257z"/></g></g></g></svg>