<svg xmlns="http://www.w3.org/2000/svg" width="18.31" height="18.453" viewBox="0 0 18.31 18.453">
  <path id="icon-whatsapp" d="M11.741,10.741a5.442,5.442,0,0,1,1.162.525,5.164,5.164,0,0,1,1.067.632.506.506,0,0,1,.024.179,2.511,2.511,0,0,1-.2.906,1.6,1.6,0,0,1-.846.781,2.819,2.819,0,0,1-1.216.316,6.44,6.44,0,0,1-2.265-.739,6.8,6.8,0,0,1-2.026-1.407A15.721,15.721,0,0,1,5.674,9.728a4.169,4.169,0,0,1-.846-2.313v-.1A2.636,2.636,0,0,1,5.71,5.436a.9.9,0,0,1,.62-.262,1.884,1.884,0,0,1,.215.018,1.917,1.917,0,0,0,.226.018.49.49,0,0,1,.316.077.86.86,0,0,1,.185.328q.1.238.393,1.049a7.084,7.084,0,0,1,.3.894,1.211,1.211,0,0,1-.411.686q-.411.435-.412.554a.34.34,0,0,0,.059.179A5.374,5.374,0,0,0,8.415,10.61a7.608,7.608,0,0,0,1.8,1.2.528.528,0,0,0,.262.084q.179,0,.644-.578t.62-.578Zm-2.42,6.318a7.287,7.287,0,0,0,2.9-.6,7.372,7.372,0,0,0,3.987-3.987,7.367,7.367,0,0,0,0-5.806,7.372,7.372,0,0,0-3.987-3.987,7.367,7.367,0,0,0-5.806,0A7.372,7.372,0,0,0,2.432,6.67a7.413,7.413,0,0,0,.834,7.29l-.941,2.777,2.885-.918A7.33,7.33,0,0,0,9.322,17.059Zm0-16.474a8.734,8.734,0,0,1,3.487.715,8.885,8.885,0,0,1,4.786,4.786,8.856,8.856,0,0,1,0,6.973,8.885,8.885,0,0,1-4.786,4.786,8.729,8.729,0,0,1-3.487.715,8.851,8.851,0,0,1-4.351-1.121L0,19.038,1.621,14.21a8.936,8.936,0,0,1-.572-8.124A8.885,8.885,0,0,1,5.835,1.3,8.719,8.719,0,0,1,9.322.585Z" transform="translate(0 -0.585)" fill="#fff"/>
</svg>
