<svg xmlns="http://www.w3.org/2000/svg" width="45" height="45" viewBox="0 0 45 45"><g><g><path fill="#c00415" d="M36.289 36.289C29.204 43.35 17.915 43.88 10.2 37.513 2.486 31.145.868 19.96 6.46 11.666 12.052 3.372 23.028.68 31.824 5.445c8.796 4.765 12.536 15.43 8.644 24.644a19.437 19.437 0 0 1-4.18 6.2zM22.5 0C10.074 0 0 10.074 0 22.5S10.074 45 22.5 45 45 34.926 45 22.5 34.926 0 22.5 0z"/></g><g><path fill="#c00415" d="M11.842 21.096l2.122 2.122L21 16.18V33.75h3V16.181l7.036 7.037 2.122-2.122L22.5 10.44 11.842 21.096z"/></g></g></svg>