<svg xmlns="http://www.w3.org/2000/svg" width="704" height="392" viewBox="0 0 704 392"><g><g clip-path="url(#clip-95a3257b-463b-44e0-8950-59fd06e2a2df)" opacity=".08"><path fill="#d9d9d9" d="M42.82 240.781l154.958-12.402c27.742-2.245 28.969 3.748 28.969 29.512v36.821c-1.425 14.598-12.393 18.277-25.725 19.157l-154.958 9.435c-12.283.732-12.59-1.632-12.174-15.577v-52.11c-.307-8.961 2.868-13.639 8.93-14.836zm250.685-204.29c25.19 1 55.246 13.787 95.548 51.34v117.83c-33.033-3.63-64.83-19.938-95.548-47.284zM28.252 100.777C96.592 31.734 181.588 24.9 270.055 30.923v128.77C179.235 163.895 87.9 164.666.866 195.306v49.143c12.324-.662 19.434 6.726 19.237 14.331-.198 7.576-3.976 14.292-19.237 15.419v69.072c88.121-14.41 177.439-17.11 269.19-6.873-92.097 5.45-182.265 11.937-269.19 29.472v48.64c106.359-13.322 212.44-17.852 318.333-14.717.693-25.734-.188-55.444 24.646-70.279 23.341-13.945 43.853-12.748 63.594-7.645 17.426 4.48 12.63 14.638-2.977 13.174-51.033-4.906-62.199 54.395-34.764 70.586 87.577 4.134 178.329 15.606 271.395 32.528 7.417-16.071 19.7-13.332 20.126 7.111 17.693 5.212 35.387 10.385 53.08 15.607v-28.434c-52.882-20.018-105.814-40.065-158.707-60.083 24.617-7.684 59.539.119 102.383 19.86 22.292 9.81 44.545 19.631 66.798 29.442 6.686-89.673-142.635-209.779-288.01-329.123.504 66.304 1.038 132.597 1.543 198.89.306 36-24.458 36.505-24.528-5.488-.079-72.09-.197-144.218-.316-216.307C357.177 24.703 302.9-.171 251.126.096 99.382 1.985 58.773 49.309 28.252 100.776m235.662 123.696c10.74 0 19.434 8.694 19.434 19.435 0 10.74-8.694 19.434-19.434 19.434-10.702 0-19.435-8.694-19.435-19.434 0-10.741 8.733-19.435 19.435-19.435"/></g></g></svg>