<svg xmlns="http://www.w3.org/2000/svg" width="18" height="17" viewBox="0 0 18 17"><g><g><path fill="#d9d9d9" d="M18 10.54v6.337h-3.67v-5.913c0-.78-.151-1.392-.452-1.835-.301-.442-.772-.663-1.412-.663-.468 0-.86.128-1.176.384a2.373 2.373 0 0 0-.709.954c-.082.223-.123.525-.123.904v6.17h-3.67c.015-2.968.022-5.374.022-7.219 0-1.844-.003-2.945-.01-3.302l-.012-.536h3.67v1.572c.142-.224.287-.42.435-.59.157-.178.367-.372.63-.58.265-.208.588-.37.971-.485a4.422 4.422 0 0 1 1.278-.173c1.272 0 2.294.422 3.068 1.266.773.844 1.16 2.08 1.16 3.71zM4.992 2.409c.007.543-.18.996-.564 1.36-.383.365-.886.547-1.511.547h-.023c-.61 0-1.1-.182-1.472-.546C1.05 3.404.864 2.95.864 2.408c0-.55.192-1.006.575-1.367.383-.36.883-.541 1.5-.541s1.112.18 1.484.541c.372.36.561.816.569 1.367zM4.758 5.82v11.056H1.076V5.821z"/></g></g></svg>