<svg xmlns="http://www.w3.org/2000/svg" width="17" height="16" viewBox="0 0 17 16"><g><g><path fill="#d9d9d9" d="M8.23 5.33a2.638 2.638 0 1 1 0 5.275 2.638 2.638 0 0 1 0-5.275zm0-1.426a4.063 4.063 0 1 0 0 8.128 4.064 4.064 0 1 0 0-8.128zm4.224-1.11a.95.95 0 1 0 0 1.9.95.95 0 0 0 0-1.9zM7.52 1.482h.71c2.112 0 2.362.007 3.196.046.772.034 1.191.164 1.47.272.369.143.633.315.91.592.277.277.448.54.591.91.109.278.238.697.272 1.469.039.834.047 1.084.047 3.195 0 2.112-.008 2.363-.047 3.197-.034.771-.164 1.19-.272 1.469-.127.343-.33.654-.592.909-.277.277-.54.448-.91.591-.277.109-.696.237-1.469.273-.834.038-1.084.047-3.196.047-2.113 0-2.364-.01-3.198-.047-.771-.036-1.19-.164-1.469-.273a2.45 2.45 0 0 1-.91-.591 2.453 2.453 0 0 1-.593-.91c-.108-.278-.237-.698-.272-1.469-.038-.834-.045-1.084-.045-3.198 0-2.112.007-2.361.045-3.195.036-.772.164-1.19.273-1.47.143-.369.316-.633.592-.91.277-.277.54-.448.91-.591.28-.109.698-.238 1.47-.273.729-.034 1.012-.044 2.487-.045zM8.228.055h.002zm-3.26.048c-.843.04-1.417.172-1.92.368a3.874 3.874 0 0 0-1.402.912 3.884 3.884 0 0 0-.913 1.402c-.196.502-.33 1.078-.368 1.919-.038.845-.048 1.114-.048 3.264 0 2.149.01 2.418.048 3.261.04.843.172 1.418.368 1.921.203.52.473.961.913 1.401.439.44.88.712 1.4.913.505.196 1.078.33 1.92.368.845.038 1.114.048 3.264.048 2.149 0 2.417-.01 3.261-.048.842-.04 1.419-.172 1.922-.368a3.873 3.873 0 0 0 1.4-.913c.44-.44.71-.88.914-1.401.194-.503.328-1.078.367-1.92.038-.844.048-1.113.048-3.263 0-2.149-.01-2.418-.048-3.262-.04-.842-.173-1.418-.367-1.92a3.883 3.883 0 0 0-.913-1.402 3.868 3.868 0 0 0-1.402-.912c-.504-.196-1.08-.33-1.922-.368C10.646.065 10.378.055 8.23.055c-2.147 0-2.417.01-3.26.048z"/></g></g></svg>