<svg xmlns="http://www.w3.org/2000/svg" width="104" height="65" viewBox="0 0 104 65"><defs><clipPath id="con2a"><path d="M0 64.69V0h103.675v64.69z"/></clipPath></defs><g><g><g><g><g/><g clip-path="url(#con2a)"><path fill="#6b6b73" d="M37.445 21.028c2.555-.207 2.668.345 2.668 2.718v3.392c-.131 1.345-1.141 1.684-2.37 1.765l-14.273.869c-1.132.067-1.16-.15-1.122-1.435v-4.8c-.028-.826.264-1.256.823-1.367zm8.817-17.676c2.32.092 5.09 1.27 8.802 4.73v10.853c-3.043-.334-5.972-1.836-8.802-4.355zM21.83 9.274c6.295-6.36 14.124-6.99 22.273-6.435v11.862c-8.365.387-16.779.458-24.796 3.28v4.527c1.135-.06 1.79.62 1.772 1.32-.018.698-.366 1.317-1.772 1.42v6.363a90.447 90.447 0 0 1 24.796-.633c-8.483.502-16.789 1.1-24.796 2.715v4.48c9.797-1.227 19.569-1.644 29.323-1.355.064-2.37-.017-5.107 2.27-6.474 2.15-1.285 4.04-1.174 5.858-.704 1.606.412 1.164 1.348-.274 1.213-4.7-.452-5.73 5.01-3.202 6.502 8.067.381 16.426 1.438 25 2.997.682-1.48 1.814-1.229 1.853.655 1.63.48 3.26.956 4.89 1.437v-2.619l-14.62-5.534c2.268-.708 5.485.01 9.431 1.829 2.054.904 4.104 1.808 6.153 2.712.616-8.26-13.138-19.324-26.53-30.317l.143 18.32c.028 3.317-2.253 3.363-2.26-.505-.007-6.64-.018-13.284-.029-19.925C52.128 2.266 47.128-.025 42.36 0 28.38.174 24.64 4.533 21.829 9.274m21.708 11.394a1.79 1.79 0 1 1 .001 3.579 1.79 1.79 0 0 1-.001-3.579"/></g><g clip-path="url(#con2a)"><path fill="#c00415" d="M102.01 46.967c-18.174-3.804-44.327-8.324-66.53-8.032-14.47.192-28.22.495-34.423 7.342 10.655-2.89 23.01-3.765 35.826-3.627 21.422.235 43.152.943 65.126 4.317"/></g><g clip-path="url(#con2a)"><path fill="#1b1918" d="M3.644 54.504v3.17c0 .14.036.25.104.325.067.078.185.138.352.181v.228H1.057v-.228c.171-.05.289-.11.356-.185a.474.474 0 0 0 .1-.32v-8.1a.497.497 0 0 0-.1-.33c-.067-.075-.185-.136-.356-.182v-.232H7.16c.74 0 1.33.043 1.768.129a3.15 3.15 0 0 1 1.139.44 2.3 2.3 0 0 1 .843.994c.174.402.264.832.264 1.291 0 1.567-.887 2.478-2.652 2.748l1.894 2.633c.33.463.573.759.73.894a.958.958 0 0 0 .569.22v.228H8.189v-.228c.242-.039.363-.125.363-.252 0-.086-.11-.289-.335-.609l-1.986-2.815zm0-1.58h3.289c.484 0 .829-.014 1.028-.042.199-.026.384-.086.548-.175.366-.193.545-.538.545-1.039 0-.498-.179-.847-.545-1.04a1.534 1.534 0 0 0-.545-.177 9.15 9.15 0 0 0-1.031-.04H3.644zm14.406-4.263c1.697 0 3.046.452 4.042 1.352 1.054.946 1.577 2.17 1.577 3.67 0 .914-.253 1.771-.754 2.569-.99 1.551-2.606 2.33-4.851 2.33-1.69 0-3.029-.455-4.025-1.356a4.71 4.71 0 0 1-1.214-1.732 4.88 4.88 0 0 1-.366-1.88c0-.956.252-1.832.75-2.63.958-1.522 2.57-2.295 4.841-2.323zm.007 1.622c-.936 0-1.708.271-2.331.816-.737.64-1.103 1.48-1.103 2.522 0 1.04.366 1.88 1.103 2.52.623.545 1.402.818 2.345.818.94 0 1.715-.273 2.331-.818.37-.32.652-.715.847-1.185.174-.416.26-.847.26-1.292 0-1.088-.37-1.943-1.107-2.565-.623-.538-1.405-.808-2.345-.816zm7.595 7.385v-8.092a.498.498 0 0 0-.1-.331c-.068-.075-.182-.136-.353-.182v-.232h5.434c1.193 0 2.104.136 2.744.403a3.88 3.88 0 0 1 2.029 1.921c.348.702.52 1.523.52 2.46 0 1.65-.517 2.91-1.549 3.775-.434.367-.94.626-1.523.783-.58.157-1.32.235-2.221.235h-5.434v-.228c.171-.05.285-.11.352-.185.064-.07.1-.181.1-.327zm2.134-.84h2.673c.854 0 1.494-.114 1.921-.341.922-.491 1.385-1.449 1.385-2.873 0-1.025-.25-1.815-.744-2.359a2.252 2.252 0 0 0-1.003-.647c-.392-.132-.911-.196-1.559-.196h-2.673zm15.022-8.167c1.697 0 3.045.452 4.042 1.352 1.053.946 1.58 2.17 1.58 3.67 0 .914-.256 1.771-.758 2.569-.99 1.551-2.605 2.33-4.85 2.33-1.69 0-3.029-.455-4.025-1.356a4.709 4.709 0 0 1-1.214-1.732 4.88 4.88 0 0 1-.366-1.88c0-.956.252-1.832.75-2.63.958-1.522 2.57-2.295 4.84-2.323zm.006 1.622c-.932 0-1.708.271-2.33.816-.734.64-1.103 1.48-1.103 2.522 0 1.04.37 1.88 1.103 2.52.622.545 1.402.818 2.345.818.94 0 1.715-.273 2.334-.818.367-.32.648-.715.843-1.185.175-.416.26-.847.26-1.292 0-1.088-.37-1.943-1.103-2.565-.626-.538-1.409-.808-2.349-.816zm19.861-.647l-1.163 2.253-.2-.114c.008-.043.008-.082.008-.11 0-.16-.139-.332-.413-.513-.847-.58-1.844-.869-2.986-.869-.501 0-.95.061-1.338.182a1.63 1.63 0 0 0-.68.423.867.867 0 0 0-.26.609c0 .363.222.608.662.737.228.067.72.138 1.47.213l1.121.114c.665.067 1.207.164 1.62.289.408.12.772.291 1.092.508.324.231.58.534.769.907.184.374.281.773.281 1.2 0 .673-.221 1.274-.662 1.797-.398.477-1.022.829-1.865 1.057-.626.175-1.3.264-2.018.264-1.288 0-2.562-.306-3.818-.911-.267-.121-.424-.182-.477-.182-.06 0-.16.053-.292.153l-.21-.103 1.06-2.349.207.1v.092c0 .21.104.402.302.58.31.27.791.505 1.438.701.648.196 1.26.295 1.84.295.633 0 1.174-.106 1.619-.316.25-.117.45-.274.595-.466a1.01 1.01 0 0 0 .22-.609c0-.317-.175-.545-.523-.683-.242-.093-.733-.178-1.47-.256l-1.1-.114c-.736-.075-1.259-.146-1.565-.214a4.086 4.086 0 0 1-.914-.327 2.342 2.342 0 0 1-1.019-.95 2.526 2.526 0 0 1-.338-1.307c0-.81.285-1.48.851-2.01.743-.697 1.858-1.046 3.349-1.046.618 0 1.202.06 1.736.185.541.125 1.21.352 2.015.687.277.106.444.16.509.16.1 0 .213-.054.348-.16zm1.915-.068a.478.478 0 0 0-.1-.323c-.067-.075-.181-.136-.352-.182v-.232h3.04v.232c-.172.042-.29.1-.353.178a.481.481 0 0 0-.1.327v8.1c0 .146.033.256.1.33.067.08.185.14.353.182v.228h-3.04v-.228c.17-.05.285-.11.352-.185.065-.07.1-.181.1-.327zm4.79.008a.498.498 0 0 0-.1-.331c-.067-.075-.185-.136-.352-.182v-.232h5.434c1.189 0 2.103.136 2.74.403a3.887 3.887 0 0 1 2.033 1.921c.348.702.519 1.523.519 2.46 0 1.65-.517 2.91-1.548 3.775-.434.367-.94.626-1.523.783-.58.157-1.32.235-2.221.235h-5.434v-.228c.167-.05.285-.11.352-.185.064-.07.1-.181.1-.327zm2.131 7.252h2.677c.853 0 1.494-.114 1.921-.341.922-.491 1.381-1.449 1.381-2.873 0-1.025-.25-1.815-.74-2.359a2.272 2.272 0 0 0-1.003-.647c-.392-.132-.911-.196-1.56-.196h-2.676zm12.256-2.626v2.626h6.253c.143 0 .253-.032.328-.096.078-.064.138-.182.184-.35h.235v2.47h-.235c-.046-.166-.106-.28-.184-.344a.489.489 0 0 0-.328-.1h-8.84v-.228c.171-.05.289-.11.352-.185.069-.07.1-.181.1-.327v-8.092c0-.146-.031-.256-.1-.331-.063-.075-.18-.136-.351-.182v-.232h8.665c.143 0 .253-.032.327-.095.075-.068.139-.182.185-.35h.235v2.47h-.235c-.046-.164-.11-.277-.185-.345a.495.495 0 0 0-.327-.1h-6.079v2.271h3.947a.49.49 0 0 0 .324-.1c.078-.064.142-.178.189-.348h.231v2.412h-.231c-.047-.163-.11-.277-.189-.345a.49.49 0 0 0-.324-.1zm11.107.302v3.17c0 .14.032.25.1.325.07.078.185.138.352.181v.228h-3.039v-.228c.171-.05.285-.11.353-.185a.474.474 0 0 0 .099-.32v-8.1a.497.497 0 0 0-.1-.33c-.067-.075-.18-.136-.352-.182v-.232h6.1c.744 0 1.33.043 1.769.129.433.082.814.231 1.138.44.377.247.655.577.844.994.174.402.263.832.263 1.291 0 1.567-.886 2.478-2.652 2.748l1.894 2.633c.33.463.576.759.729.894a.958.958 0 0 0 .57.22v.228h-3.527v-.228c.242-.039.363-.125.363-.252 0-.086-.11-.289-.334-.609l-1.986-2.815zm0-1.58h3.285c.484 0 .83-.014 1.028-.042a1.6 1.6 0 0 0 .552-.175c.363-.193.54-.538.54-1.039 0-.498-.177-.847-.54-1.04a1.583 1.583 0 0 0-.548-.177 9.17 9.17 0 0 0-1.032-.04h-3.285z"/></g><g clip-path="url(#con2a)"><path fill="#1b1918" d="M40.569 64.69v-3.823h1.313c.495 0 .818.022.971.057.232.06.428.185.584.377.157.193.235.438.235.744 0 .235-.046.43-.135.59a1.157 1.157 0 0 1-.768.558 5.06 5.06 0 0 1-.848.055h-.533v1.441zm.819-3.176v1.09h.448c.32 0 .537-.022.644-.061a.502.502 0 0 0 .349-.487.491.491 0 0 0-.132-.346.587.587 0 0 0-.327-.17 4.008 4.008 0 0 0-.587-.026zm6.192 3.175h-.887l-.349-.868h-1.626l-.338.868h-.868l1.576-3.822h.866zm-1.503-1.516l-.562-1.413-.547 1.413zm1.94 1.516v-3.822h1.723c.433 0 .75.035.946.104a.948.948 0 0 1 .474.366c.117.177.178.377.178.601 0 .289-.09.527-.267.712-.182.188-.445.306-.801.352.174.1.32.207.435.32.116.118.27.324.465.623l.495.744h-.979l-.587-.832a5.408 5.408 0 0 0-.434-.563.661.661 0 0 0-.246-.156 1.45 1.45 0 0 0-.416-.043h-.163v1.594zm.823-2.202h.605c.39 0 .636-.019.736-.047a.427.427 0 0 0 .227-.164.457.457 0 0 0 .082-.288.443.443 0 0 0-.106-.31.488.488 0 0 0-.31-.149 6.125 6.125 0 0 0-.598-.015h-.636zm6.92 2.202h-.885l-.349-.868H52.9l-.338.868h-.869l1.577-3.822h.865zm-1.5-1.516l-.563-1.413-.548 1.413zm1.939 1.516v-3.822h.793l1.67 2.562v-2.562h.761v3.822H58.6l-1.643-2.512v2.512zm7.744 0h-.883l-.353-.868h-1.626l-.338.868h-.868l1.576-3.822h.869zm-1.503-1.516l-.562-1.413-.547 1.413zm-.853-2.652l.384-.778h.868l-.765.778z"/></g><g clip-path="url(#con2a)"><path fill="#c00415" d="M0 63.953V62.72h35.33v1.232z"/></g><g clip-path="url(#con2a)"><path fill="#c00415" d="M68.34 63.953V62.72h35.335v1.232z"/></g></g></g><g><g><path d="M79.72 4.008c0 .39-.076.762-.228 1.118a2.893 2.893 0 0 1-.614.92 2.893 2.893 0 0 1-.919.613 2.815 2.815 0 0 1-1.118.228c-.39 0-.763-.076-1.118-.228a2.893 2.893 0 0 1-.92-.614 2.893 2.893 0 0 1-.613-.919 2.815 2.815 0 0 1-.229-1.118c0-.39.077-.763.229-1.119.152-.355.356-.662.613-.919.258-.257.564-.462.92-.614a2.815 2.815 0 0 1 1.118-.228c.39 0 .763.076 1.118.228.356.152.662.357.92.614.256.257.461.564.613.92.152.355.228.728.228 1.118zm-2.88-2.366a2.387 2.387 0 0 0-1.673.693 2.387 2.387 0 0 0-.691 1.673 2.387 2.387 0 0 0 .693 1.673 2.387 2.387 0 0 0 1.672.692 2.387 2.387 0 0 0 1.673-.693 2.387 2.387 0 0 0 .692-1.672 2.387 2.387 0 0 0-.693-1.673 2.387 2.387 0 0 0-1.672-.693zm.637 2.661l.659 1.199c.017.036.016.07-.003.1-.017.034-.046.051-.087.051h-.488c-.043 0-.073-.018-.09-.055l-.624-1.173h-.498V5.55a.1.1 0 0 1-.029.074.1.1 0 0 1-.074.029h-.43a.1.1 0 0 1-.074-.029.1.1 0 0 1-.03-.074V2.465a.1.1 0 0 1 .03-.074.1.1 0 0 1 .074-.029h.944c.275 0 .478.026.61.077a.834.834 0 0 1 .432.35c.105.168.157.36.157.58 0 .196-.045.373-.137.531a.864.864 0 0 1-.37.352.81.81 0 0 1 .028.051zm-.167-.916c0-.188-.064-.318-.193-.388-.07-.039-.196-.058-.376-.058h-.395v.903h.52c.142 0 .251-.04.328-.12.078-.078.116-.19.116-.337z"/></g></g></g></g></svg>