<svg xmlns="http://www.w3.org/2000/svg" width="100" height="28" viewBox="0 0 100 28"><g><g><g><g><path fill="#13172d" d="M0 1.257h3.123v12.29c0 1.182.736 1.16 1.382 1.16h5.598v2.876H3.39c-1.763 0-3.39-.669-3.39-3.167z"/></g><g><path fill="#13172d" d="M15.143 14.795V4.025h3.568c1.74 0 2.788 1.07 2.788 5.442 0 3.279-.758 5.33-2.788 5.33zm-3.123 2.788h6.937c3.972 0 5.664-3.3 5.664-8.096 0-4.037-.981-8.23-5.664-8.23H12.02z"/></g><g><path fill="#13172d" d="M26.784 1.257h3.167l6.468 10.55V1.256h3.122v16.326h-3.122L29.93 7.146v10.437h-3.145z"/></g><g><path fill="#13172d" d="M46.655 11.204l1.962-5.843 1.83 5.843zm-5.351 6.379h3.345l1.182-3.614h5.353l1.16 3.614h3.322L50.358 1.257H46.81z"/></g><g><path fill="#c00415" d="M62.666 5.339c0-3.234 1.919-4.17 4.416-4.215a25.141 25.141 0 0 1 6.312.647v2.453c-1.427-.134-4.661-.223-5.464-.223-1.36-.022-2.14.07-2.14 1.584v.804c0 1.293.493 1.561 1.739 1.561h2.587c3.212 0 3.858 2.52 3.858 4.327v1.093c0 3.702-2.297 4.393-4.505 4.393a22.048 22.048 0 0 1-6.312-.669V14.64c.892.089 3.613.245 5.688.245.936 0 2.007-.155 2.007-1.405v-.87c0-.936-.268-1.538-1.472-1.538h-2.498c-3.949 0-4.215-2.9-4.215-4.327z"/></g><g><path fill="#c00415" d="M81.314.41h3.234L78.28 19.189h-3.235z"/></g><g><path fill="#c00415" d="M90.99 11.204l1.963-5.843 1.828 5.843zm-5.353 6.379h3.345l1.182-3.614h5.353l1.16 3.614H100L94.692 1.257h-3.546z"/></g></g><g><g><g><path fill="#918d8c" d="M3.972 25.159l.706-2.103.658 2.103zm-1.928 2.295H3.25l.423-1.3h1.924l.418 1.3h1.198l-1.91-5.876H4.027z"/></g><g><path fill="#918d8c" d="M11.71 21.514c.76-.02 1.52.067 2.256.258v.875c-.047 0-1.075-.137-1.99-.137-.892 0-1.058.538-1.058 1.99 0 1.526.176 1.935 1.003 1.944a1.751 1.751 0 0 0 1.012-.37v-1.051h-.82v-.715c.45-.151.924-.216 1.398-.192.169 0 .353 0 .546.016v3.324h-.803l-.305-.394c-.34.306-.788.462-1.245.434-1.661.064-1.91-1.332-1.91-3.01-.003-1.712.32-2.972 1.916-2.972z"/></g><g><path fill="#918d8c" d="M18.057 21.057h.755l.506-.482.473.482h.747l-.775-1.084h-.835zm-.84 5.238c0 1.084.835 1.204 1.357 1.18 0 0 2.047-.072 2.504-.136v-.923h-2.24c-.232 0-.497.006-.497-.417v-.917l2.376-.07v-.927l-2.376-.08v-.917c0-.217 0-.45.417-.45h2.32v-.931c-.513-.072-2.584-.129-2.584-.129a1.128 1.128 0 0 0-1.277 1.22z"/></g><g><path fill="#918d8c" d="M24.162 21.578h1.14l2.327 3.797v-3.797h1.122v5.876H27.63l-2.334-3.756v3.756h-1.129z"/></g><g><path fill="#918d8c" d="M33.82 21.514a6.88 6.88 0 0 1 2.045.266v.882c-.008 0-.995-.112-1.782-.112-.826 0-1.14.185-1.14 1.967 0 1.317.217 1.95 1.14 1.95.846 0 1.782-.063 1.782-.063v.875a6.456 6.456 0 0 1-2.045.225c-1.485-.017-1.998-1.14-1.998-3.002 0-1.88.4-2.988 1.998-2.988z"/></g><g><path fill="#918d8c" d="M38.926 21.578h1.124v5.876h-1.124z"/></g><g><path fill="#918d8c" d="M44.973 25.159l.705-2.103.658 2.103zm-1.928 2.295h1.204l.423-1.3h1.926l.418 1.3h1.199l-1.91-5.876h-1.277z"/></g><g><path fill="#918d8c" d="M56.685 26.453v-3.879h1.284c.626 0 1.004.385 1.004 1.959 0 1.18-.273 1.918-1.004 1.918zm-1.124 1.001h2.496c1.429 0 2.039-1.188 2.039-2.914 0-1.452-.353-2.962-2.039-2.962h-2.496z"/></g><g><path fill="#918d8c" d="M63.245 21.578h1.124v5.876h-1.124z"/></g><g><path fill="#918d8c" d="M69.345 21.514a8.14 8.14 0 0 1 2.257.258v.875c-.048 0-1.075-.137-1.99-.137-.891 0-1.059.538-1.059 1.99 0 1.526.177 1.935 1.004 1.944a1.752 1.752 0 0 0 1.011-.37v-1.051h-.819v-.715c.45-.151.924-.216 1.398-.192.168 0 .352 0 .545.016v3.324h-.802l-.306-.394c-.34.306-.787.462-1.243.434-1.662.064-1.91-1.332-1.91-3.01-.004-1.712.318-2.972 1.914-2.972z"/></g><g><path fill="#918d8c" d="M74.877 21.578h1.124v5.876h-1.124z"/></g><g><path fill="#918d8c" d="M78.972 21.578h4.343v1.036h-1.63v4.84h-1.124v-4.84h-1.59z"/></g><g><path fill="#918d8c" d="M87.13 25.159l.705-2.103.658 2.103zm-1.926 2.295h1.205l.423-1.3h1.923l.417 1.3h1.199l-1.91-5.876h-1.277z"/></g><g><path fill="#918d8c" d="M93.343 21.578h1.125v4.426c0 .423.265.417.497.417h2.015v1.035h-2.416c-.635 0-1.22-.24-1.22-1.14z"/></g></g></g></g></g></svg>