<svg xmlns="http://www.w3.org/2000/svg" width="44" height="44" viewBox="0 0 44 44"><g><g><path fill="#fff" d="M22.03 3.269c3.133 0 6.061.713 8.785 2.138 2.723 1.425 4.96 3.38 6.71 5.863a18.622 18.622 0 0 1 3.26 8.256 21.083 21.083 0 0 0-8.298 1.757c-2.625 1.143-4.897 2.674-6.816 4.593-1.92 1.92-3.45 4.191-4.593 6.816a21.083 21.083 0 0 0-1.757 8.298 18.622 18.622 0 0 1-8.256-3.26c-2.483-1.75-4.438-3.987-5.863-6.71-1.425-2.724-2.138-5.652-2.138-8.785 0-2.568.5-5.024 1.503-7.366 1.002-2.343 2.35-4.36 4.043-6.054 1.693-1.693 3.711-3.041 6.054-4.043a18.54 18.54 0 0 1 7.366-1.503zm21.464 16.257c-.423-3.528-1.637-6.739-3.64-9.631-2.005-2.893-4.573-5.172-7.706-6.838C29.015 1.392 25.643.56 22.03.56c-2.935 0-5.743.571-8.425 1.714-2.68 1.143-4.988 2.681-6.921 4.615-1.934 1.933-3.472 4.24-4.615 6.922a21.265 21.265 0 0 0-1.715 8.424c0 3.613.833 6.986 2.498 10.118 1.665 3.133 3.944 5.702 6.837 7.705 2.893 2.004 6.104 3.218 9.632 3.641v.212c.592 0 1.058-.014 1.397-.042.338-.029.762-.149 1.27-.36.508-.212.974-.53 1.397-.953L42.35 23.59c.423-.423.74-.89.953-1.397.211-.508.331-.931.36-1.27.028-.339.042-.805.042-1.397z"/></g></g></svg>