<svg xmlns="http://www.w3.org/2000/svg" width="58" height="38" viewBox="0 0 58 38"><g><g><path fill="#f9f9f9" d="M43.5 24.273a3.915 3.915 0 0 1 3.955 3.954 3.915 3.915 0 0 1-3.955 3.955 3.915 3.915 0 0 1-3.955-3.955 3.915 3.915 0 0 1 3.955-3.954zm-31.636 0a3.915 3.915 0 0 1 3.954 3.954 3.915 3.915 0 0 1-3.954 3.955 3.915 3.915 0 0 1-3.955-3.955 3.915 3.915 0 0 1 3.955-3.954zM31.636.545A2.644 2.644 0 0 0 29 3.182v7.909H0v5.273h29v7.909h-8.846C18.659 21.174 15.51 19 11.864 19c-3.647 0-6.796 2.174-8.29 5.273H0v5.272h2.77c.652 4.444 4.48 7.91 9.094 7.91 4.613 0 8.44-3.466 9.093-7.91h13.45c.652 4.444 4.48 7.91 9.093 7.91 4.613 0 8.441-3.466 9.093-7.91h2.77A2.644 2.644 0 0 0 58 26.91v-9.727c0-1.476-.393-2.9-1.184-4.165L51.46 4.315c-1.45-2.373-3.977-3.77-6.745-3.77z"/></g></g></svg>