<svg xmlns="http://www.w3.org/2000/svg" width="49" height="49" viewBox="0 0 49 49"><g><g><path fill="#fff" d="M14.351 13.2l8.274 11.034-8.274 11.034a14.946 14.946 0 0 1-4.845-11.034A14.952 14.952 0 0 1 14.351 13.2zm1.032-.87c.087-.066.171-.132.261-.195zm24.036 10.407H25.25l-8.502-11.34a14.994 14.994 0 0 1 22.671 11.337zm0 2.997zm0 0a14.994 14.994 0 0 1-22.671 11.337l8.502-11.337zM21.704 2.415l-.213.858a2.88 2.88 0 0 1-4.866 1.302l-.615-.633c-2.085-2.157-5.664-.087-4.839 2.793l.243.852a2.88 2.88 0 0 1-3.561 3.558l-.852-.24c-2.883-.825-4.95 2.754-2.793 4.84l.633.614a2.88 2.88 0 0 1-1.302 4.866l-.858.213c-2.91.732-2.91 4.863 0 5.592l.858.213a2.88 2.88 0 0 1 1.302 4.866l-.633.615c-2.157 2.085-.087 5.664 2.793 4.84l.852-.244a2.88 2.88 0 0 1 3.558 3.561l-.24.852c-.825 2.883 2.754 4.95 4.839 2.793l.615-.633a2.88 2.88 0 0 1 4.866 1.302l.213.858c.732 2.91 4.863 2.91 5.592 0l.213-.858a2.88 2.88 0 0 1 4.866-1.302l.615.633c2.085 2.157 5.664.087 4.839-2.793l-.243-.849a2.88 2.88 0 0 1 3.561-3.56l.852.24c2.883.824 4.95-2.755 2.793-4.84l-.633-.615a2.88 2.88 0 0 1 1.302-4.866l.858-.213c2.91-.732 2.91-4.863 0-5.592l-.858-.213a2.88 2.88 0 0 1-1.302-4.866l.633-.615c2.157-2.085.087-5.664-2.793-4.839l-.849.243a2.88 2.88 0 0 1-3.561-3.56l.24-.853c.825-2.883-2.754-4.95-4.839-2.793l-.615.633a2.88 2.88 0 0 1-4.866-1.302l-.213-.858c-.732-2.91-4.863-2.91-5.592 0zm-6.321 33.723l.261.195"/></g></g></svg>