<svg xmlns="http://www.w3.org/2000/svg" width="55" height="51" viewBox="0 0 55 51"><g><g><path fill="#fff" d="M26.565 27.53v-3.297c1.582-.287 2.864-.884 3.847-1.792.983-.908 1.474-2.128 1.474-3.657 0-1.911-.647-3.37-1.941-4.373-1.295-1.003-3.045-1.768-5.25-2.294-1.725-.478-2.924-.967-3.595-1.47-.67-.502-1.007-1.111-1.007-1.827 0-.86.372-1.554 1.115-2.08s1.762-.789 3.056-.789c2.444 0 3.715 1.076 3.81 3.227h3.38c-.048-1.386-.491-2.605-1.33-3.657-.839-1.051-2.025-1.768-3.559-2.15V0h-4.602V3.3c-1.582.335-2.876.992-3.883 1.972-1.007.979-1.51 2.163-1.51 3.549 0 3.058 2.397 5.161 7.19 6.309 1.774.429 2.984.955 3.631 1.576.648.621.972 1.339.972 2.151 0 .669-.312 1.29-.935 1.864-.623.574-1.678.86-3.164.86-2.876 0-4.41-1.075-4.602-3.226h-3.38c.096 1.578.66 2.868 1.69 3.872 1.03 1.003 2.36 1.672 3.99 2.007v3.298zM10.37 40.555c1.462 0 2.592 1.125 2.592 2.584 0 1.458-1.13 2.584-2.592 2.584-1.463 0-2.593-1.126-2.593-2.584 0-1.459 1.13-2.584 2.593-2.584zm28.515 0c1.463 0 2.593 1.125 2.593 2.584 0 1.458-1.13 2.584-2.593 2.584-1.462 0-2.592-1.126-2.592-2.584 0-1.459 1.13-2.584 2.592-2.584zm0 10.338c3.353 0 6.21-2.178 7.291-5.17h3.08c2.833 0 5.184-2.343 5.184-5.168V27.63c0-1.113-.714-2.101-1.772-2.454l-6.005-1.993v-8.477a2.589 2.589 0 0 0-2.593-2.584h-2.592v12.923c0 1.113.713 2.101 1.772 2.453l6.005 1.995v11.06h-3.079c-1.082-2.991-3.938-5.17-7.29-5.17-3.353 0-6.21 2.179-7.292 5.17H17.661c-1.082-2.991-3.939-5.17-7.291-5.17-1.993 0-3.803.787-5.185 2.035V12.122H2.592A2.589 2.589 0 0 0 0 14.706v25.848c0 2.005 1.195 3.754 2.896 4.608.907 3.278 3.914 5.73 7.474 5.73 3.352 0 6.209-2.178 7.29-5.17h13.934c1.082 2.992 3.939 5.17 7.291 5.17z"/></g></g></svg>