<svg xmlns="http://www.w3.org/2000/svg" width="48" height="39" viewBox="0 0 48 39"><g><g><path fill="#fff" d="M46.436 33.916c.652 0 1.18.529 1.18 1.18v2.362c0 .652-.528 1.181-1.18 1.181H39.35c-.652 0-1.181-.529-1.181-1.18v-2.362c0-.652.529-1.181 1.18-1.181zm-23.617 0c.652 0 1.18.529 1.18 1.18v2.362c0 .652-.528 1.181-1.18 1.181h-7.085c-.652 0-1.181-.529-1.181-1.18v-2.362c0-.652.529-1.181 1.18-1.181zm-14.17 0c.652 0 1.18.529 1.18 1.18v2.362c0 .652-.528 1.181-1.18 1.181H1.564c-.652 0-1.181-.529-1.181-1.18v-2.362c0-.652.529-1.181 1.18-1.181zM7.468 10.299v5.36a4.723 4.723 0 0 1 1.72 1.725h6.006a4.723 4.723 0 0 1 1.72-1.725v-5.36h4.724v5.364a4.723 4.723 0 0 1 1.725 1.72h15.448a4.723 4.723 0 0 1 1.72-1.724v-5.36h4.724v5.364a4.723 4.723 0 0 1 2.362 4.083 4.723 4.723 0 0 1-2.362 4.087v5.36h-4.723v-5.365a4.723 4.723 0 0 1-1.726-1.72H23.36a4.723 4.723 0 0 1-1.72 1.725v5.36h-4.724v-5.365a4.723 4.723 0 0 1-1.725-1.72H9.184a4.723 4.723 0 0 1-1.716 1.72v5.364H2.745v-5.36a4.723 4.723 0 0 1-2.362-4.086 4.723 4.723 0 0 1 2.362-4.083V10.3zM46.436.852c.652 0 1.18.53 1.18 1.18v2.363c0 .651-.528 1.18-1.18 1.18H39.35c-.652 0-1.181-.529-1.181-1.18V2.033c0-.652.529-1.18 1.18-1.18zm-23.617 0c.652 0 1.18.53 1.18 1.18v2.363c0 .651-.528 1.18-1.18 1.18h-7.085c-.652 0-1.181-.529-1.181-1.18V2.033c0-.652.529-1.181 1.18-1.181zm-14.17 0c.652 0 1.18.53 1.18 1.18v2.363c0 .651-.528 1.18-1.18 1.18H1.564c-.652 0-1.181-.529-1.181-1.18V2.033c0-.652.529-1.181 1.18-1.181z"/></g></g></svg>