<svg xmlns="http://www.w3.org/2000/svg" width="36" height="27" viewBox="0 0 36 27"><g><g><path fill="#c00415" d="M34.507 4.869H1.493a1.1 1.1 0 0 1-1.1-1.1V1.566a1.1 1.1 0 0 1 1.1-1.1h33.014a1.1 1.1 0 0 1 1.1 1.1v2.201a1.1 1.1 0 0 1-1.1 1.1zm0 11.004H1.493a1.1 1.1 0 0 1-1.1-1.1v-2.201a1.1 1.1 0 0 1 1.1-1.1h33.014a1.1 1.1 0 0 1 1.1 1.1v2.2a1.1 1.1 0 0 1-1.1 1.101zm0 11.005H1.493a1.1 1.1 0 0 1-1.1-1.1v-2.201a1.1 1.1 0 0 1 1.1-1.1h33.014a1.1 1.1 0 0 1 1.1 1.1v2.2a1.1 1.1 0 0 1-1.1 1.101z"/></g></g></svg>