<svg xmlns="http://www.w3.org/2000/svg" width="13" height="13" viewBox="0 0 13 13"><g><g><path fill="#fff" d="M6.109 4.654a2.036 2.036 0 1 1 0 4.073 2.036 2.036 0 0 1 0-4.073zm0-1.1a3.137 3.137 0 1 0-.001 6.274 3.137 3.137 0 0 0 .001-6.274zm3.26-.857a.733.733 0 1 0 0 1.466.733.733 0 0 0 0-1.466zM5.561 1.684h.548c1.63 0 1.824.005 2.468.035.595.026.919.126 1.134.21.285.11.489.243.703.457.214.214.346.417.456.702.084.215.184.539.21 1.134.03.644.036.837.036 2.467 0 1.63-.006 1.824-.036 2.468-.026.595-.126.918-.21 1.134a1.886 1.886 0 0 1-.457.701 1.887 1.887 0 0 1-.702.457c-.214.084-.538.183-1.134.21-.644.03-.837.037-2.468.037-1.63 0-1.825-.007-2.469-.036-.595-.028-.918-.127-1.133-.211a1.892 1.892 0 0 1-.703-.457 1.893 1.893 0 0 1-.458-.702c-.083-.215-.183-.538-.21-1.134-.029-.644-.035-.837-.035-2.468s.006-1.824.035-2.467c.028-.596.127-.92.21-1.135.112-.285.244-.489.458-.702.214-.214.417-.346.703-.457.215-.084.538-.183 1.133-.21.564-.027.782-.034 1.92-.035v.002zM6.108.583c-1.657 0-1.866.007-2.517.036-.651.03-1.095.133-1.484.284a2.99 2.99 0 0 0-1.082.705c-.31.305-.55.674-.704 1.082-.151.388-.255.832-.284 1.481-.03.653-.037.86-.037 2.52C0 8.35.008 8.558.037 9.21c.03.65.133 1.094.284 1.483a3 3 0 0 0 .704 1.082c.34.34.68.548 1.082.704.389.151.832.254 1.482.284.652.03.86.037 2.52.037 1.658 0 1.865-.008 2.517-.037.65-.03 1.095-.133 1.484-.284a2.99 2.99 0 0 0 1.081-.704 3 3 0 0 0 .705-1.082c.15-.389.253-.833.284-1.483.029-.651.036-.86.036-2.518 0-1.66-.007-1.867-.036-2.52-.03-.649-.134-1.093-.284-1.481a2.998 2.998 0 0 0-.705-1.082 2.986 2.986 0 0 0-1.082-.705C9.72.752 9.275.65 8.626.62 7.974.59 7.766.583 6.109.583zm.001 0h-.002.002z"/></g></g></svg>