<svg xmlns="http://www.w3.org/2000/svg" width="14" height="13" viewBox="0 0 14 13"><g><g><path fill="#fff" d="M13.39 12.797h-2.833V8.232c0-.603-.116-1.075-.349-1.416-.232-.342-.596-.513-1.09-.513-.361 0-.664.1-.908.297a1.832 1.832 0 0 0-.547.737c-.063.172-.095.404-.095.697v4.763H4.735c.011-2.291.017-4.148.017-5.572 0-1.424-.003-2.274-.009-2.55l-.008-.413h2.833v1.213c.11-.173.222-.324.336-.455.12-.138.283-.287.487-.448.204-.16.453-.286.75-.375.295-.089.623-.133.985-.133.982 0 1.772.326 2.369.977.597.652.895 1.607.895 2.864zM3.348 1.627c.006.419-.139.769-.435 1.05-.295.282-.684.422-1.167.422H1.73c-.47 0-.85-.14-1.137-.422a1.411 1.411 0 0 1-.43-1.05c0-.425.147-.777.443-1.055.296-.279.682-.418 1.159-.418.476 0 .858.139 1.145.418.287.278.433.63.44 1.055zm-.18 2.635v8.535H.324V4.262z"/></g></g></svg>