<svg xmlns="http://www.w3.org/2000/svg" width="14" height="15" viewBox="0 0 14 15"><g><g><path fill="#c00415" d="M6.248 4v4.165l3.644 2.212.52-.878L7.29 7.644V3.999zm-3.222 7.419C1.942 10.334 1.4 9.02 1.4 7.48s.543-2.853 1.627-3.937c1.085-1.085 2.392-1.627 3.921-1.627 1.53 0 2.837.542 3.922 1.627 1.084 1.084 1.627 2.397 1.627 3.937s-.543 2.853-1.627 3.938c-1.085 1.084-2.392 1.627-3.922 1.627-1.529 0-2.836-.543-3.92-1.627zm-.992-8.835C.678 3.94 0 5.572 0 7.48c0 1.91.678 3.542 2.034 4.898 1.356 1.355 2.994 2.033 4.913 2.033 1.92 0 3.558-.678 4.914-2.033 1.356-1.356 2.034-2.989 2.034-4.898 0-1.909-.678-3.541-2.034-4.897C10.505 1.228 8.867.55 6.947.55c-1.92 0-3.557.678-4.913 2.034z"/></g></g></svg>