<svg xmlns="http://www.w3.org/2000/svg" width="14" height="14" viewBox="0 0 14 14"><g><g><path fill="#fff" d="M6.248 3.475V7.64l3.644 2.213.52-.878L7.29 7.12V3.475zm-3.222 7.42C1.942 9.81 1.4 8.496 1.4 6.956s.543-2.853 1.627-3.937c1.085-1.085 2.392-1.627 3.921-1.627 1.53 0 2.837.542 3.922 1.627 1.084 1.084 1.627 2.397 1.627 3.937s-.543 2.853-1.627 3.937c-1.085 1.085-2.392 1.627-3.922 1.627-1.529 0-2.836-.542-3.92-1.627zM2.034 2.06C.678 3.416 0 5.048 0 6.957c0 1.909.678 3.541 2.034 4.897 1.356 1.356 2.994 2.034 4.913 2.034 1.92 0 3.558-.678 4.914-2.034 1.356-1.356 2.034-2.988 2.034-4.897 0-1.909-.678-3.541-2.034-4.897C10.505.704 8.867.026 6.947.026c-1.92 0-3.557.678-4.913 2.034z"/></g></g></svg>