<svg xmlns="http://www.w3.org/2000/svg" width="20" height="28" viewBox="0 0 20 28"><g><g><path fill="#c00415" d="M13.125 23.875l-2.75-2.125a.563.563 0 0 0-.75 0l-2.75 2.125V19.75c1.01.323 2.064.491 3.125.5a10.562 10.562 0 0 0 3.125-.5zM2.5 10.25a7.5 7.5 0 1 1 15 0 7.5 7.5 0 0 1-15 0zm17.5 0A10 10 0 1 0 4.375 18.5v7.937c0 .702.55 1.28 1.25 1.313a.938.938 0 0 0 .688-.25L10 24.625l3.688 2.875a.938.938 0 0 0 .687.25c.7-.033 1.25-.611 1.25-1.313V18.5A10 10 0 0 0 20 10.25z"/></g><g><path fill="#c00415" d="M7.75 11.313l-.313 1.937a.688.688 0 0 0 .938.688L10 12.75l1.625 1.188a.688.688 0 0 0 .938-.688l-.313-1.938 1.313-1.25a.687.687 0 0 0-.376-1.124l-1.812-.25-.813-1.813a.625.625 0 0 0-1.124 0l-.813 1.813-1.813.25a.687.687 0 0 0-.375 1.124z"/></g></g></svg>