<svg xmlns="http://www.w3.org/2000/svg" width="28" height="18" viewBox="0 0 28 18"><g><g><path fill="#c00415" d="M14 14.625C8.5 14.625 4.437 10.75 2.937 9 4.438 7.25 8.5 3.375 14 3.375c5.5 0 9.563 3.875 11.063 5.625-1.5 1.75-5.563 5.625-11.063 5.625zm13.313-6.813C26 6.188 21.125.875 14 .875 6.875.875 2 6.188.687 7.813a1.875 1.875 0 0 0 0 2.375C2 11.812 6.875 17.125 14 17.125c7.125 0 12-5.313 13.313-6.938a1.875 1.875 0 0 0 0-2.374z"/></g><g><path fill="#c00415" d="M10 9a4 4 0 1 1 8 0 4 4 0 0 1-8 0z"/></g></g></svg>