<svg xmlns="http://www.w3.org/2000/svg" width="28" height="28" viewBox="0 0 28 28"><g><g><path fill="#c00415" d="M15.25 22.625V20.25a1.25 1.25 0 1 0-2.5 0v2.375a8.625 8.625 0 0 1-7.375-7.375H7.75a1.25 1.25 0 1 0 0-2.5H5.375a8.625 8.625 0 0 1 7.375-7.375V7.75a1.25 1.25 0 1 0 2.5 0V5.375a8.625 8.625 0 0 1 7.375 7.375H20.25a1.25 1.25 0 1 0 0 2.5h2.375a8.625 8.625 0 0 1-7.375 7.375zM26.5 12.75h-1.313a11.312 11.312 0 0 0-9.937-9.938V1.5a1.25 1.25 0 1 0-2.5 0v1.313a11.312 11.312 0 0 0-9.938 9.937H1.5a1.25 1.25 0 1 0 0 2.5h1.313a11.312 11.312 0 0 0 9.937 9.938V26.5a1.25 1.25 0 1 0 2.5 0v-1.313a11.312 11.312 0 0 0 9.938-9.937H26.5a1.25 1.25 0 1 0 0-2.5z"/></g></g></svg>