<svg xmlns="http://www.w3.org/2000/svg" width="1366" height="246" viewBox="0 0 1366 246"><g><g><path fill="#191919" d="M1218.844 144.509h-.002v-.001a77.618 77.618 0 0 1-14.088-2.912c-4.607-1.401-9.26-3.27-13.833-5.554-4.52-2.257-9.09-4.984-13.584-8.106-4.44-3.085-8.93-6.642-13.343-10.57v-69.97c7.823.31 15.73 2.555 24.172 6.866 4.607 2.352 9.446 5.375 14.381 8.986 5.192 3.799 10.675 8.38 16.297 13.62zm-71.838 33.112c-6.152 0-11.156-5.004-11.156-11.156 0-6.152 5.004-11.156 11.156-11.156 2.982 0 5.784 1.16 7.89 3.266a11.084 11.084 0 0 1 3.266 7.89c0 2.982-1.16 5.784-3.266 7.89a11.083 11.083 0 0 1-7.89 3.266zm-127.037 34.49c-2.075 0-3.266-.314-3.983-1.052-1.17-1.207-1.156-3.683-1.028-7.957v-29.915c-.087-2.52.314-4.516 1.192-5.93.849-1.369 2.173-2.239 3.935-2.586l88.956-7.12c2.062-.168 3.794-.249 5.295-.249 5.428 0 8.243 1.085 9.715 3.744 1.506 2.72 1.619 7.09 1.619 13.447v21.137c-.381 3.905-1.958 6.67-4.82 8.452-2.317 1.442-5.478 2.251-9.948 2.546l-88.956 5.415c-.769.046-1.416.069-1.977.069zM996 246H0V0h1366v184.97c-7.263-7.671-15.327-15.636-24.652-24.348-8.295-7.75-17.408-15.92-27.858-24.975-19.406-16.814-40.582-34.189-61.06-50.991l-1.612-1.323-4.585-3.763c.142 18.743.29 37.587.433 55.81l.006.787c.148 18.874.3 38.39.446 57.578.055 6.384-1.287 11.432-3.682 13.849-.897.904-1.912 1.383-2.937 1.383-.93 0-1.839-.377-2.7-1.122-.902-.78-1.705-1.924-2.39-3.403-1.541-3.332-2.361-8.124-2.37-13.857-.046-40.75-.113-81.66-.177-121.225l-.005-2.95c-8.078-6.448-16.114-12.188-23.886-17.06-7.925-4.97-15.809-9.182-23.432-12.52-7.765-3.402-15.487-5.995-22.952-7.71-7.598-1.745-15.15-2.63-22.446-2.63-.16 0-.317 0-.476.002-10.62.132-20.642.664-29.79 1.583-8.761.88-17 2.141-24.487 3.75-7.126 1.531-13.81 3.43-19.867 5.64-5.712 2.086-11.07 4.526-15.924 7.252-8.705 4.89-16.144 10.853-22.743 18.23-6.51 7.277-11.507 15.228-15.132 21.342a139.125 139.125 0 0 1 12.429-11.15 129.732 129.732 0 0 1 12.99-9.06 128.445 128.445 0 0 1 13.5-7.155 135.03 135.03 0 0 1 13.96-5.436c9.1-2.978 18.619-5.092 29.103-6.462 9.385-1.227 19.311-1.823 30.347-1.823 8.083 0 16.745.322 26.481.985v73.922c-5.432.252-11.116.492-16.132.705-23.005.974-46.792 1.982-69.942 4.697-12.462 1.462-23.75 3.288-34.508 5.582-12.075 2.575-23.18 5.67-33.95 9.46v28.213c.299-.016.594-.024.875-.024 3.3 0 6.15 1.06 8.025 2.985 1.432 1.47 2.193 3.34 2.143 5.266-.065 2.5-.81 4.401-2.279 5.813-.86.827-1.99 1.497-3.358 1.993-1.484.538-3.303.89-5.406 1.044v39.653c15.11-2.47 30.41-4.35 45.478-5.59a563.16 563.16 0 0 1 45.956-1.888c20.86 0 42.09 1.188 63.098 3.532-25.19 1.49-52.12 3.23-78.38 5.857-28.465 2.849-53.374 6.467-76.152 11.062V246zm203.573 0h-20.532c.248-4.989.81-11.447 2.976-17.167 2.214-5.85 5.771-10.175 10.875-13.224 7.227-4.317 14.502-6.416 22.24-6.416 4.383 0 8.917.644 14.267 2.028 2.167.557 3.892 1.317 4.989 2.195.99.794 1.457 1.66 1.35 2.504-.103.814-.751 1.553-1.826 2.081-1.153.566-2.717.865-4.525.865-.546 0-1.115-.028-1.697-.082a35.41 35.41 0 0 0-3.365-.165c-9.84 0-15.721 4.352-18.921 8.003-2.288 2.609-4.027 5.812-5.028 9.262-.962 3.312-1.24 6.81-.803 10.115zm160.384 0h-30.198l-2.538-.96-3.193-1.21-9.579-3.625c3.562-1.112 7.59-1.674 11.972-1.674 4.685 0 9.92.643 15.56 1.911 5.501 1.238 11.55 3.107 17.976 5.556z"/></g></g></svg>