<svg xmlns="http://www.w3.org/2000/svg" width="70" height="71" viewBox="0 0 70 71"><g><g><path fill="#c00415" d="M40.346 22.442c.422.42.662.999.662 1.587l-.047.48-1.424 6.854H49c1.654 0 3 1.346 3 3.001l-.018.121.018.013v2.867c0 .375-.068.733-.21 1.094l-4.53 10.574a2.974 2.974 0 0 1-2.758 1.833H31c-1.654 0-3-1.346-3-3V32.863c0-.81.314-1.56.887-2.115l9.867-9.885zM19 32.864h5.998v18.002H19zm41 38.003c5.512 0 9.998-4.488 9.998-10.003V10.865C69.998 5.35 65.512.863 60 .863H10.002C4.488.863 0 5.35 0 10.865v50a9.936 9.936 0 0 0 2.93 7.071 9.932 9.932 0 0 0 7.072 2.93z"/></g></g></svg>